<?xml version="1.0" encoding="UTF-8" standalone="no"?>
<svg
   xmlns:dc="http://purl.org/dc/elements/1.1/"
   xmlns:cc="http://creativecommons.org/ns#"
   xmlns:rdf="http://www.w3.org/1999/02/22-rdf-syntax-ns#"
   xmlns:svg="http://www.w3.org/2000/svg"
   xmlns="http://www.w3.org/2000/svg"
   viewBox="0 0 160.41333 140.67999"
   height="140.67999"
   width="160.41333"
   xml:space="preserve"
   id="svg2"
   version="1.1"><metadata
     id="metadata8"><rdf:RDF><cc:Work
         rdf:about=""><dc:format>image/svg+xml</dc:format><dc:type
           rdf:resource="http://purl.org/dc/dcmitype/StillImage" /></cc:Work></rdf:RDF></metadata><defs
     id="defs6" /><g
     transform="matrix(1.3333333,0,0,-1.3333333,0,140.68)"
     id="g10"><g
       transform="scale(0.1)"
       id="g12"><path
         id="path14"
         style="fill:#ee2c30;fill-opacity:1;fill-rule:nonzero;stroke:none"
         d="M 1153.45,0 H 49.6875 V 0 C 11.4961,0 -12.3711,41.3281 6.70703,74.4141 v 0 L 558.625,1030.29 v 0 c 19.074,33.08 66.809,33.08 85.891,0 v 0 L 1196.43,74.4141 v 0 C 1215.51,41.3281 1191.64,0 1153.45,0 v 0" /><path
         id="path16"
         style="fill:#ffffff;fill-opacity:1;fill-rule:nonzero;stroke:none"
         d="M 1067.55,99.2188 H 135.586 L 601.566,906.262 1067.55,99.2188" /><path
         id="path18"
         style="fill:#231f20;fill-opacity:1;fill-rule:nonzero;stroke:none"
         d="m 1031.29,113.43 -21.01,35.222 H 845.035 l 20.82,24.543 12.891,-0.547 13.797,37.911 -38.828,35.879 -19.512,-5.704 -27.969,13.614 -42.136,-13.43 v 0 c -2.95,-1.102 -5.528,-3.133 -6.993,-5.703 -1.476,-2.578 -2.031,-5.34 -1.66,-8.281 v 0 l 5.516,-38.653 39.863,-39.531 H 655.395 v 0 c -3.125,4.602 -5.215,9.914 -8.153,14.512 -6.621,10.117 -12.883,20.422 -18.957,30.91 -2.019,3.68 -5.887,10.496 -7.363,14.539 -1.102,2.949 -6.992,25.031 -7.91,28.34 -0.731,2.394 -1.66,5.89 -2.391,8.281 v 0 l 14.539,22.824 -37.722,91.453 -0.372,35.704 48.399,50.05 -14.902,90.172 -14.543,23.371 -15.086,69.192 -66.067,70.664 -13.25,24.656 -351.242,-610.105 870.915,0.117 v 0" /><path
         id="path20"
         style="fill:#231f20;fill-opacity:1;fill-rule:nonzero;stroke:none"
         d="m 677.262,661.746 -24.485,11.234 -19.316,-16.75 -10.672,5.887 -9.941,-18.765 18.769,-41.778 34.414,-5.519 20.43,25.574 -9.023,16.566 -0.176,23.551" /><path
         id="path22"
         style="fill:#231f20;fill-opacity:1;fill-rule:nonzero;stroke:none"
         d="m 733.383,581.121 -24.285,-9.566 -3.496,-22.453 27.597,-11.223 19.324,14.348 1.465,18.039 -20.605,10.855" /><path
         id="path24"
         style="fill:#231f20;fill-opacity:1;fill-rule:nonzero;stroke:none"
         d="m 702.477,501.836 -35.149,-3.496 -0.555,-27.235 -6.992,-9.386 27.793,-34.414 12.696,-4.602 12.507,-19.5 29.082,11.777 13.43,28.887 -52.812,57.969" /><path
         id="path26"
         style="fill:#231f20;fill-opacity:1;fill-rule:nonzero;stroke:none"
         d="m 802.398,394.512 -20.058,-8.653 -22.629,8.84 -26.875,-16.75 13.996,-40.301 46.004,-31.464 26.68,9.566 11.406,59.992 -28.524,18.77" /></g></g></svg>