<?xml version="1.0" encoding="UTF-8" standalone="no"?>
<svg
   xmlns:dc="http://purl.org/dc/elements/1.1/"
   xmlns:cc="http://creativecommons.org/ns#"
   xmlns:rdf="http://www.w3.org/1999/02/22-rdf-syntax-ns#"
   xmlns:svg="http://www.w3.org/2000/svg"
   xmlns="http://www.w3.org/2000/svg"
   viewBox="0 0 189.36 189.34666"
   height="189.34666"
   width="189.36"
   xml:space="preserve"
   id="svg2"
   version="1.1"><metadata
     id="metadata8"><rdf:RDF><cc:Work
         rdf:about=""><dc:format>image/svg+xml</dc:format><dc:type
           rdf:resource="http://purl.org/dc/dcmitype/StillImage" /></cc:Work></rdf:RDF></metadata><defs
     id="defs6" /><g
     transform="matrix(1.3333333,0,0,-1.3333333,0,189.34667)"
     id="g10"><g
       transform="scale(0.1)"
       id="g12"><path
         id="path14"
         style="fill:#ffffff;fill-opacity:1;fill-rule:nonzero;stroke:none"
         d="M 1.41797,1.41797 H 1418.738 V 1418.668 H 1.41797 Z" /><path
         id="path16"
         style="fill:#ffffff;fill-opacity:1;fill-rule:nonzero;stroke:none"
         d="m 1.41797,1.41797 h 425.199 V 1418.698 H 1.41797 Z" /><path
         id="path18"
         style="fill:none;stroke:#231f20;stroke-width:2.83500004;stroke-linecap:butt;stroke-linejoin:round;stroke-miterlimit:4;stroke-dasharray:none;stroke-opacity:1"
         d="M 1.41797,1.41797 H 426.617 V 1418.7 H 1.41797 V 1.41797" /><path
         id="path20"
         style="fill:#ffffff;fill-opacity:1;fill-rule:nonzero;stroke:none"
         d="M 497.5,1.41797 H 922.695 V 1418.698 H 497.5 Z" /><path
         id="path22"
         style="fill:none;stroke:#231f20;stroke-width:2.83500004;stroke-linecap:butt;stroke-linejoin:round;stroke-miterlimit:4;stroke-dasharray:none;stroke-opacity:1"
         d="M 497.5,1.41797 H 922.695 V 1418.7 H 497.5 V 1.41797" /><path
         id="path24"
         style="fill:#ffffff;fill-opacity:1;fill-rule:nonzero;stroke:none"
         d="m 993.539,1.41797 h 425.195 V 1418.698 H 993.539 Z" /><path
         id="path26"
         style="fill:none;stroke:#231f20;stroke-width:2.83500004;stroke-linecap:butt;stroke-linejoin:round;stroke-miterlimit:4;stroke-dasharray:none;stroke-opacity:1"
         d="M 993.539,1.41797 H 1418.73 V 1418.7 H 993.539 V 1.41797" /><path
         id="path28"
         style="fill:#ee2c30;fill-opacity:1;fill-rule:nonzero;stroke:none"
         d="M 1.41797,157.797 426.617,403.281 V 575.113 L 1.41797,329.625 V 157.797" /><path
         id="path30"
         style="fill:#ee2c30;fill-opacity:1;fill-rule:nonzero;stroke:none"
         d="M 1.41797,501.418 426.617,746.902 V 918.695 L 1.41797,673.207 V 501.418" /><path
         id="path32"
         style="fill:#ee2c30;fill-opacity:1;fill-rule:nonzero;stroke:none"
         d="M 1.41797,845 426.617,1090.49 v 171.82 L 1.41797,1016.83 V 845" /><path
         id="path34"
         style="fill:#ee2c30;fill-opacity:1;fill-rule:nonzero;stroke:none"
         d="M 497.5,329.59 922.695,575.113 V 746.902 L 497.5,501.418 V 329.59" /><path
         id="path36"
         style="fill:#ee2c30;fill-opacity:1;fill-rule:nonzero;stroke:none"
         d="M 497.5,673.246 922.695,918.73 v 171.79 L 497.5,845.039 V 673.246" /><path
         id="path38"
         style="fill:#ee2c30;fill-opacity:1;fill-rule:nonzero;stroke:none"
         d="M 993.539,501.418 1418.73,746.902 V 918.695 L 993.539,673.207 V 501.418" /></g></g></svg>