<?xml version="1.0" encoding="UTF-8" standalone="no"?>
<svg
   xmlns:dc="http://purl.org/dc/elements/1.1/"
   xmlns:cc="http://creativecommons.org/ns#"
   xmlns:rdf="http://www.w3.org/1999/02/22-rdf-syntax-ns#"
   xmlns:svg="http://www.w3.org/2000/svg"
   xmlns="http://www.w3.org/2000/svg"
   viewBox="0 0 160.41333 140.67999"
   height="140.67999"
   width="160.41333"
   xml:space="preserve"
   id="svg2"
   version="1.1"><metadata
     id="metadata8"><rdf:RDF><cc:Work
         rdf:about=""><dc:format>image/svg+xml</dc:format><dc:type
           rdf:resource="http://purl.org/dc/dcmitype/StillImage" /></cc:Work></rdf:RDF></metadata><defs
     id="defs6" /><g
     transform="matrix(1.3333333,0,0,-1.3333333,0,140.68)"
     id="g10"><g
       transform="scale(0.1)"
       id="g12"><path
         id="path14"
         style="fill:#ee2c30;fill-opacity:1;fill-rule:nonzero;stroke:none"
         d="M 49.6875,0 H 1153.45 v 0 c 38.19,0 62.06,41.3281 42.98,74.4102 v 0 L 644.512,1030.29 v 0 c -19.078,33.07 -66.817,33.07 -85.895,0 v 0 L 6.69922,74.4102 v 0 C -12.3789,41.3281 11.4883,0 49.6875,0 v 0" /><path
         id="path16"
         style="fill:#ffffff;fill-opacity:1;fill-rule:nonzero;stroke:none"
         d="M 135.582,99.2148 H 1067.55 L 601.566,906.266 135.582,99.2148" /><path
         id="path18"
         style="fill:#231f20;fill-opacity:1;fill-rule:nonzero;stroke:none"
         d="m 382.184,212.578 h 457.773 v 15.297 l -65.664,-0.898 v 0 c 0,2.703 0.902,5.402 0.902,7.203 0,0.898 -0.902,8.101 0,9.898 0,0.902 0,2.699 0.899,3.602 0.898,0.898 0.898,2.695 1.801,3.601 0,1.797 0,5.36 0,7.16 -0.903,0.899 -0.903,1.805 -0.903,2.704 0,3.597 0,9.894 0.903,13.5 0,4.496 0.898,9.894 1.796,13.5 2.7,5.394 2.7,9 2.7,9.898 0.906,2.699 1.804,5.398 1.804,8.102 0,3.597 -1.804,8.097 -2.703,11.695 -1.801,1.805 -6.297,10.805 -7.199,12.605 -2.699,4.496 -4.496,9.864 -5.402,14.36 -0.899,4.504 -0.899,9.902 -0.899,15.304 0.899,5.399 1.805,11.7 3.602,17.098 0,2.699 1.801,10.801 3.601,16.203 0.899,5.399 1.797,10.793 1.797,17.098 0,4.496 -1.797,8.101 -1.797,12.597 0.899,-0.898 4.496,-1.796 6.297,-17.101 0.899,-6.297 0,-13.5 -0.898,-19.797 0,-6.301 -0.903,-18 -0.903,-24.301 0,-7.199 1.801,-15.301 2.7,-22.5 1.804,-8.062 5.402,-17.062 8.101,-25.164 0.899,-4.5 3.602,-8.996 6.301,-12.601 0.902,-1.797 3.602,-3.598 5.398,-3.598 0.903,0.898 1.801,3.598 1.801,4.5 0,5.402 -0.898,8.102 -0.898,17.102 0,9.894 -1.801,22.46 -0.903,33.261 0,2.699 1.801,18.004 1.801,22.5 0.899,9.903 0,19.801 -2.699,28.797 -2.699,9.004 -8.102,18.004 -13.5,25.168 -2.699,3.598 -6.301,8.102 -9.898,9.902 -0.903,0.899 -3.602,1.797 -5.399,1.797 -1.805,3.598 -5.402,9 -8.066,11.7 -4.5,5.398 -11.7,9.003 -18,11.703 -5.399,2.695 -11.7,4.496 -18.004,5.394 -8.996,0.906 -17.059,0 -25.16,-1.797 -6.297,-0.902 -16.2,-3.597 -22.5,-5.398 -3.598,-0.899 -7.203,-1.801 -11.7,-2.699 -11.664,-2.703 -24.265,-4.504 -37.761,-5.403 -9.004,0 -18.903,0 -27.867,3.598 -8.102,2.703 -15.297,7.203 -22.5,13.5 -6.301,6.301 -13.5,12.605 -18.903,19.801 -5.359,6.301 -11.66,13.504 -16.16,19.765 -4.504,6.301 -10.801,13.504 -17.102,18.903 -5.398,5.394 -11.699,9.898 -18.898,12.597 -4.465,1.801 -8.969,3.598 -13.465,5.399 -1.801,0 -4.5,0.902 -6.305,1.805 -0.894,2.699 -1.796,6.296 -2.699,9 -0.898,1.796 -3.597,8.097 -4.496,10.8 -0.898,-0.906 -5.398,-20.703 -5.398,-22.5 0,-0.906 -1.805,-2.703 -1.805,-2.703 -2.699,-3.601 -7.195,-10.801 -10.801,-15.301 -4.496,-5.402 -9.863,-15.296 -12.562,-18.902 -2.699,-3.559 -2.699,-5.359 -2.699,-7.164 0,-0.898 0,-2.699 0,-3.598 -0.899,-2.699 -3.598,-7.203 -5.395,-10.8 -0.906,-0.899 -1.805,-3.598 -2.703,-4.497 -1.801,-3.605 -2.699,-7.203 -4.5,-9.902 -2.703,-4.504 -4.504,-9 -5.402,-14.398 -0.899,-2.703 -1.801,-5.403 -1.801,-8.102 0,-2.703 1.801,-4.504 3.601,-6.301 1.797,-0.902 2.703,-1.8 4.5,-1.8 0,0 6.305,-2.7 8.102,-2.7 0.894,0 2.699,0 3.598,0.903 0,1.797 0.902,4.496 0.902,4.496 0.898,1.804 1.797,2.699 2.699,3.601 1.797,1.801 8.063,7.2 8.965,8.098 2.695,1.805 5.394,3.605 8.098,4.504 2.699,0.898 10.8,3.598 12.601,5.398 2.699,1.797 5.399,4.5 7.195,7.2 1.805,1.8 2.704,5.398 3.606,5.398 2.699,0.906 6.301,-8.098 9,-11.699 5.398,-7.196 8.965,-15.297 11.664,-24.301 2.699,-10.797 5.398,-22.461 7.195,-33.262 0.907,-4.5 3.606,-22.5 5.403,-27 0.902,-4.5 3.597,-10.797 6.297,-14.402 0.906,-3.598 2.703,-7.195 4.503,-10.801 2.7,-7.195 4.5,-14.398 5.403,-22.461 0.894,-10.801 1.801,-23.398 1.801,-34.199 0,-1.801 0,-4.5 0,-6.301 0,-0.902 0.898,-19.801 0.898,-25.203 0,-5.394 0,-10.793 0,-15.297 0,-1.762 0,-2.664 0.898,-4.461 -1.796,-1.804 -1.796,-3.601 -1.796,-3.601 0,-0.903 0.898,-3.602 0.898,-5.399 -0.898,-0.902 -3.602,-4.504 -4.504,-6.304 -0.898,-0.899 -2.699,-7.196 -2.699,-9 v 0 H 382.184 v -14.399 0" /><path
         id="path20"
         style="fill:#ffffff;fill-opacity:1;fill-rule:nonzero;stroke:none"
         d="m 560.094,226.906 c 0,1.801 1.801,8.098 0.898,9.903 0,0.898 -0.898,3.597 -0.898,4.5 0,0.898 4.5,5.394 4.5,6.3 0,0.899 0,1.797 -0.903,3.598 0,0.898 -0.898,3.598 -0.898,4.5 -0.898,3.602 -0.898,8.102 -0.898,10.801 0,1.797 0.898,5.363 0.898,7.164 0.898,2.699 1.801,14.398 1.801,16.195 0.898,1.801 1.797,7.203 1.797,9.004 0,1.797 0,4.5 0,6.301 0,0 4.504,25.199 4.504,27.898 0.898,3.598 1.8,8.102 1.8,11.7 0.899,1.804 1.797,10.761 2.7,13.464 19.761,-5.363 43.164,-7.164 59.363,-3.601 40.461,9.902 50.363,16.203 65.629,19.801 0.898,0 1.801,-10.801 2.699,-14.399 1.801,-6.301 5.398,-12.562 9,-17.965 2.699,-9 9,-12.597 12.602,-18.902 1.796,-2.699 3.597,-6.297 5.402,-9.895 0,-1.804 0.894,-2.703 0.894,-4.503 0,-2.7 -0.894,-7.196 -1.8,-10.801 -3.598,-10.801 -8.098,-26.098 -11.7,-36.86 0,-0.902 -4.5,-9.004 -5.398,-10.8 0,-1.801 -0.898,-5.403 -1.805,-7.204 -0.894,-2.699 -3.597,-5.398 -4.496,-8.101 -0.898,-1.797 -1.801,-5.399 -2.699,-8.098 v 0 H 560.094 v 0" /><path
         id="path22"
         style="fill:#ffffff;fill-opacity:1;fill-rule:nonzero;stroke:none"
         d="m 724.758,226.906 c 0,1.801 0,2.699 0,4.5 0,0.899 -0.903,7.203 0,9 0,0 2.699,2.699 3.601,3.602 0.899,0 1.797,0.898 2.7,1.797 0.898,1.804 2.703,10.8 3.597,12.605 0.899,5.399 3.602,10.758 6.301,15.262 1.801,3.598 6.301,11.699 8.102,14.398 1.761,2.703 5.367,8.102 6.261,9.899 v 0 16.199 0 c 0.899,-3.598 6.301,-3.598 6.301,-17.098 0,-2.699 0,-9 0,-11.699 -0.898,-5.398 -0.898,-11.699 -0.898,-17.066 v 0 -2.7 0 c 0,-2.699 0,-6.296 0,-9.898 0,-1.801 0,-7.199 -0.903,-9.004 -0.898,-3.598 -2.695,-7.195 -4.5,-9.894 -0.894,-1.805 -2.699,-4.504 -3.597,-6.301 0,-0.903 -0.903,-2.699 -0.903,-3.602 v 0 h -26.062 v 0" /></g></g></svg>