<?xml version="1.0" encoding="UTF-8" standalone="no"?>
<svg
   xmlns:dc="http://purl.org/dc/elements/1.1/"
   xmlns:cc="http://creativecommons.org/ns#"
   xmlns:rdf="http://www.w3.org/1999/02/22-rdf-syntax-ns#"
   xmlns:svg="http://www.w3.org/2000/svg"
   xmlns="http://www.w3.org/2000/svg"
   viewBox="0 0 160.41333 140.67999"
   height="140.67999"
   width="160.41333"
   xml:space="preserve"
   id="svg2"
   version="1.1"><metadata
     id="metadata8"><rdf:RDF><cc:Work
         rdf:about=""><dc:format>image/svg+xml</dc:format><dc:type
           rdf:resource="http://purl.org/dc/dcmitype/StillImage" /></cc:Work></rdf:RDF></metadata><defs
     id="defs6" /><g
     transform="matrix(1.3333333,0,0,-1.3333333,0,140.68)"
     id="g10"><g
       transform="scale(0.1)"
       id="g12"><path
         id="path14"
         style="fill:#ee2c30;fill-opacity:1;fill-rule:nonzero;stroke:none"
         d="M 49.6875,0 H 1153.45 v 0 c 38.19,0 62.06,41.3281 42.98,74.4102 v 0 L 644.516,1030.29 v 0 c -19.082,33.07 -66.817,33.07 -85.895,0 v 0 L 6.70313,74.4102 v 0 C -12.3711,41.3281 11.4922,0 49.6875,0 v 0" /><path
         id="path16"
         style="fill:#ffffff;fill-opacity:1;fill-rule:nonzero;stroke:none"
         d="M 135.586,99.2148 H 1067.55 L 601.566,906.266 135.586,99.2148" /><path
         id="path18"
         style="fill:#231f20;fill-opacity:1;fill-rule:nonzero;stroke:none"
         d="m 464.805,163.008 -0.035,337.789 v 0 c -0.18,0.066 -1.801,1.152 -2.055,1.328 -1.797,1.371 -3.238,3.102 -3.992,5.223 -1.157,3.312 -0.614,6.66 1.148,9.683 1.84,3.168 5.149,5.328 8.785,5.977 3.063,0.535 6.481,-0.18 9.035,-1.981 1.192,-0.828 3.207,-3.058 3.063,-3.058 v 0 l 115.883,26.601 v 0 c 0.179,0.035 0.394,0.075 0.543,0.106 v 0 l 2.73,0.472 v 0 c 1.836,0.286 4.324,0.61 6.192,0.5 2.058,-0.07 4.289,-0.574 6.195,-1.441 v 0 l 5.473,-3.668 215.605,-176.973 v 0 c 0.07,-0.113 4.93,-4.578 5.613,-5.765 0.973,-1.617 1.547,-3.274 1.731,-5.145 0.469,-4.789 -1.367,-10.406 -2.809,-15.195 -2.055,-6.695 -5.472,-15.223 -8.57,-21.527 -1.727,-3.528 -8.57,-14.329 -10.762,-17.711 -3.027,-4.684 -9.144,-12.711 -12.855,-16.778 -1.403,-1.441 -3.094,-3.054 -5,-3.992 -2.559,-1.336 -5.977,-1.551 -8.891,-1.371 -1.769,0.145 -4.535,0.867 -6.125,1.402 v 0 l -266.113,90.758 -5.574,2.27 v 0 c -1.801,1.078 -3.497,2.949 -4.579,4.933 -0.355,0.645 -1.113,2.875 -1.437,3.672 v 0 l -29.27,96.117 V 163.008 h -13.929 v 0" /><path
         id="path20"
         style="fill:#ffffff;fill-opacity:1;fill-rule:nonzero;stroke:none"
         d="m 586.773,532.082 -104.761,-23.801 -3.168,-5.937 30.277,-97.235 v 0 c 6.406,24.297 16.344,47.551 29.449,69.008 13.172,21.567 29.407,41.078 48.203,57.965 v 0" /><path
         id="path22"
         style="fill:#ffffff;fill-opacity:1;fill-rule:nonzero;stroke:none"
         d="m 652.723,348.805 c -1.836,-1.836 -5.977,-5.903 -8.387,-6.875 -2.41,-1.192 -5.469,-2.27 -7.883,-2.414 -3.168,-0.325 -6.805,0.324 -9.973,1.402 v 0 l -37.476,12.926 v 0 c 20.301,18.902 37.367,41.004 50.582,65.41 12.133,22.465 20.844,46.656 25.809,71.711 v 0 l 34.777,-28.442 v 0 c 0.469,-0.355 1.726,-1.367 2.125,-1.761 0.933,-0.864 1.726,-2.016 2.375,-3.129 0.758,-1.301 1.297,-2.699 1.516,-4.18 0.246,-1.582 0.246,-3.203 0.035,-4.785 -0.145,-1.227 -0.325,-2.559 -0.578,-3.746 -3.598,-17.098 -10.079,-33.695 -18.254,-49.141 -9.145,-17.316 -20.805,-33.156 -34.668,-46.976 v 0" /><path
         id="path24"
         style="fill:#ffffff;fill-opacity:1;fill-rule:nonzero;stroke:none"
         d="m 520.211,417.598 c -1.656,-5.004 -3.242,-10.293 -4.574,-15.371 -0.867,-3.418 -1.512,-6.914 -1.871,-10.407 -0.289,-2.988 -0.938,-6.586 0.359,-9.465 0.824,-1.871 2.555,-3.277 4.57,-3.746 2.668,-0.754 6.371,-0.175 8.86,0.938 24.297,11.16 44.89,39.598 58.172,62.781 13.789,24.016 23.183,50.293 27.324,77.652 0.394,2.454 0.648,5.079 0.648,7.563 0,1.656 -0.215,3.348 -0.754,4.895 -0.972,2.878 -4.898,4.285 -8.101,3.746 -2.16,-0.434 -4.86,-2.055 -6.696,-3.313 -12.562,-8.461 -23.543,-20.055 -33.152,-31.894 -8.066,-9.829 -16.168,-20.993 -22.18,-32.188 -8.242,-15.371 -16.343,-34.957 -22.605,-51.191 v 0" /><path
         id="path26"
         style="fill:#ffffff;fill-opacity:1;fill-rule:nonzero;stroke:none"
         d="m 753.023,303.945 c -2.453,-2.34 -6.191,-3.566 -9.328,-2.914 v 0 l -44.925,15.41 v 0 c 14.398,15.262 26.781,32.289 36.898,50.649 8.605,15.66 15.48,32.223 20.52,49.32 v 0 l 32.367,-26.711 3.781,-3.855 v 0 c 1.437,-2.555 1.109,-5.797 0.641,-8.676 -2.008,-13.027 -5.793,-26.348 -12.274,-37.832 -7.344,-13.106 -16.848,-24.953 -27.68,-35.391 v 0" /></g></g></svg>