<?xml version="1.0" encoding="UTF-8" standalone="no"?>
<svg
   xmlns:dc="http://purl.org/dc/elements/1.1/"
   xmlns:cc="http://creativecommons.org/ns#"
   xmlns:rdf="http://www.w3.org/1999/02/22-rdf-syntax-ns#"
   xmlns:svg="http://www.w3.org/2000/svg"
   xmlns="http://www.w3.org/2000/svg"
   viewBox="0 0 113.38667 113.38667"
   height="113.38667"
   width="113.38667"
   xml:space="preserve"
   id="svg2"
   version="1.1"><metadata
     id="metadata8"><rdf:RDF><cc:Work
         rdf:about=""><dc:format>image/svg+xml</dc:format><dc:type
           rdf:resource="http://purl.org/dc/dcmitype/StillImage" /></cc:Work></rdf:RDF></metadata><defs
     id="defs6" /><g
     transform="matrix(1.3333333,0,0,-1.3333333,0,113.38667)"
     id="g10"><g
       transform="scale(0.1)"
       id="g12"><path
         id="path14"
         style="fill:#ee2c30;fill-opacity:1;fill-rule:nonzero;stroke:none"
         d="m 425.195,850.395 c 234.832,0 425.196,-190.368 425.196,-425.2 C 850.391,190.371 660.027,0 425.195,0 190.367,0 0,190.371 0,425.195 c 0,234.832 190.367,425.2 425.195,425.2 v 0" /><path
         id="path16"
         style="fill:#ffffff;fill-opacity:1;fill-rule:nonzero;stroke:none"
         d="m 425.195,708.664 c 38.504,0 75.274,-7.41 110.293,-22.219 33.899,-14.336 63.946,-34.609 90.149,-60.804 26.199,-26.203 46.472,-56.25 60.808,-90.149 14.805,-35.019 22.215,-71.785 22.215,-110.297 0,-38.507 -7.41,-75.273 -22.215,-110.293 -14.336,-33.894 -34.609,-63.945 -60.808,-90.144 -26.203,-26.203 -56.25,-46.465 -90.149,-60.801 -35.019,-14.816 -71.789,-22.227 -110.293,-22.227 -38.511,0 -75.273,7.411 -110.293,22.227 -33.894,14.336 -63.945,34.598 -90.144,60.801 -26.203,26.199 -46.473,56.25 -60.809,90.144 -14.812,35.02 -22.222,71.786 -22.222,110.293 0,38.512 7.41,75.278 22.222,110.297 14.336,33.899 34.606,63.946 60.809,90.149 26.199,26.195 56.25,46.468 90.144,60.804 35.02,14.809 71.782,22.219 110.293,22.219 v 0" /></g></g></svg>