<?xml version="1.0" encoding="UTF-8" standalone="no"?>
<svg
   xmlns:dc="http://purl.org/dc/elements/1.1/"
   xmlns:cc="http://creativecommons.org/ns#"
   xmlns:rdf="http://www.w3.org/1999/02/22-rdf-syntax-ns#"
   xmlns:svg="http://www.w3.org/2000/svg"
   xmlns="http://www.w3.org/2000/svg"
   viewBox="0 0 113.38667 113.38667"
   height="113.38667"
   width="113.38667"
   xml:space="preserve"
   id="svg2"
   version="1.1"><metadata
     id="metadata8"><rdf:RDF><cc:Work
         rdf:about=""><dc:format>image/svg+xml</dc:format><dc:type
           rdf:resource="http://purl.org/dc/dcmitype/StillImage" /></cc:Work></rdf:RDF></metadata><defs
     id="defs6" /><g
     transform="matrix(1.3333333,0,0,-1.3333333,0,113.38667)"
     id="g10"><g
       transform="scale(0.1)"
       id="g12"><path
         id="path14"
         style="fill:#ee2c30;fill-opacity:1;fill-rule:nonzero;stroke:none"
         d="m 425.195,850.395 c 234.832,0 425.196,-190.368 425.196,-425.2 C 850.391,190.371 660.027,0 425.195,0 190.367,0 0,190.371 0,425.195 c 0,234.832 190.367,425.2 425.195,425.2 v 0" /><path
         id="path16"
         style="fill:#ffffff;fill-opacity:1;fill-rule:nonzero;stroke:none"
         d="m 425.23,708.695 c 38.508,0 75.278,-7.402 110.297,-22.215 33.899,-14.335 63.946,-34.605 90.149,-60.804 26.199,-26.203 46.465,-56.25 60.797,-90.149 14.816,-35.019 22.218,-71.781 22.218,-110.293 0,-38.511 -7.402,-75.273 -22.218,-110.293 C 672.141,281.047 651.875,250.996 625.676,224.797 599.473,198.594 569.426,178.32 535.527,163.984 500.508,149.18 463.738,141.77 425.23,141.77 c -38.507,0 -75.273,7.41 -110.292,22.214 -33.899,14.336 -63.946,34.61 -90.149,60.813 -26.199,26.199 -46.469,56.25 -60.805,90.144 -14.808,35.02 -22.218,71.782 -22.218,110.293 0,38.512 7.41,75.274 22.218,110.293 14.336,33.899 34.606,63.946 60.805,90.149 26.203,26.199 56.25,46.469 90.149,60.804 35.019,14.813 71.785,22.215 110.292,22.215 v 0" /><path
         id="path18"
         style="fill:#231f20;fill-opacity:1;fill-rule:nonzero;stroke:none"
         d="m 631.863,431.852 4.289,-7.668 L 326.547,246.27 v 0 c -0.789,-0.43 -2.121,-1.075 -2.914,-1.582 -2.016,-1.083 -4.246,-1.942 -6.516,-2.668 -2.519,-0.68 -5.183,-1.219 -7.597,-1.043 -2.915,-0.106 -5.758,0.332 -8.497,1.152 -2.089,0.723 -4.031,1.516 -6.082,2.707 -2.089,1.328 -3.925,2.691 -5.582,4.461 -1.293,1.301 -2.339,2.668 -3.273,4.18 -0.324,0.753 -0.934,1.867 -1.328,2.656 v 0 l 6.547,3.781 v 0 c 0.359,-0.539 0.902,-1.476 1.222,-2.121 1.297,-1.73 2.848,-3.457 4.43,-4.68 2.09,-1.836 4.356,-2.847 6.949,-3.531 1.942,-0.644 3.887,-0.793 5.938,-0.754 1.586,0.254 3.316,0.754 4.824,1.047 1.766,0.469 3.637,1.188 5.293,1.98 v 0 l 3.277,2.083 135.325,78.082 -2.09,8.898 v 0 c -0.039,0.645 -0.145,1.648 -0.25,2.414 0.105,0.856 0.066,1.582 0.32,2.438 0,0.761 0.293,1.593 0.469,2.382 0.398,1.328 1.406,2.7 2.414,3.93 0.652,0.457 1.148,1.148 1.914,1.543 v 0 l 14.793,11.988 -90.938,25.055 -2.808,0.973 v 0 c -1.801,0.394 -4.106,1.113 -5.942,1.91 -1.656,0.609 -3.418,1.582 -5.078,2.554 -2.695,1.547 -5.469,3.668 -7.594,6.192 -1.875,2.23 -3.242,4.93 -3.816,7.844 -0.359,1.73 -0.289,3.672 -0.035,5.332 0.215,1.691 0.574,3.277 1.113,4.754 0.863,2.261 2.164,4.714 3.457,6.691 0.469,0.832 1.406,2.125 1.981,2.988 v 0 l 6.336,9.18 -119.336,3.531 0.066,5.903 5.836,-0.106 v 0 c -0.148,0.469 -0.148,1.004 -0.148,1.399 -0.106,2.089 0.253,4.464 0.941,6.339 0.609,1.692 1.437,3.168 2.445,4.356 1.008,0.972 2.59,2.125 3.957,2.808 0.618,0.18 1.551,0.61 2.09,0.864 v 0 l 68.438,69.769 v 0 l 2.195,2.555 c 0.902,0.973 2.379,2.844 3.133,4.215 0.719,1.183 1.297,2.586 1.621,3.922 0.215,1.007 0.215,1.941 0.215,2.804 -0.254,0.723 -0.395,1.407 -0.574,1.946 -0.395,0.648 -1.012,1.371 -1.801,1.875 -0.504,0.214 -1.157,0.648 -1.657,0.714 -0.832,0.329 -1.621,0.29 -2.414,0.364 -0.718,-0.035 -2.089,-0.149 -2.773,-0.11 -3.449,-0.214 -7.195,-0.105 -10.512,0.719 -3.343,0.832 -6.66,2.668 -9.574,4.973 -2.809,2.34 -5.543,5.219 -7.305,8.637 -1.769,3.382 -2.808,7.238 -3.277,11.234 -0.254,3.633 -0.074,7.379 0.898,10.941 1.079,3.817 2.774,7.348 5.188,10.332 2.336,3.063 5.144,5.512 8.387,7.239 3.269,1.691 6.765,2.699 10.367,3.093 3.457,0.289 6.945,-0.214 10.363,-1.222 3.426,-1.078 6.594,-2.809 9.254,-5.254 2.629,-2.235 4.789,-5.188 6.52,-8.246 1.722,-3.203 2.988,-6.731 3.343,-10.582 0.11,-2.52 -0.25,-5.723 -0.535,-8.137 -0.148,-1.043 -0.363,-2.773 -0.722,-3.711 0.5,-0.141 1.042,-0.141 1.511,-0.18 v 0 l 5.254,-0.105 v 0 c 4.469,-0.215 8.895,-0.973 13.106,-2.086 6.875,-1.984 13.644,-4.938 19.836,-8.461 6.734,-3.93 13.175,-8.531 19.187,-13.645 6.371,-5.398 12.383,-11.664 17.816,-18.183 4.825,-5.543 9.512,-11.59 13.508,-18.145 v 0 l 7.481,-12.168 v 0 c 1.043,-1.722 3.496,-5.433 4.14,-7.089 0.938,-1.801 1.809,-3.852 2.09,-5.833 0.293,-1.511 0.188,-3.382 0.039,-5.042 0.039,-1.368 -0.066,-2.625 -0.429,-3.918 -0.442,-1.985 -1.086,-3.821 -1.946,-5.836 -0.293,-0.899 -0.906,-2.012 -1.402,-2.735 -0.656,-1.476 -1.621,-2.554 -2.492,-3.851 -0.567,-0.793 -1.867,-2.375 -2.625,-3.133 v 0 l -16.086,-18.539 114.258,-3.352 0.363,14.442 5.973,-0.508 -1.004,-33.082 -5.911,0.324 0.254,12.852 -119.589,3.601 v 0 c -0.536,-0.574 -1.192,-1.152 -1.622,-1.695 -0.648,-0.539 -3.562,-3.278 -4.105,-3.992 -1.293,-1.481 -2.34,-3.028 -3.277,-4.789 -0.575,-1.008 -1.114,-2.379 -1.328,-3.782 -0.11,-0.609 -0.04,-1.257 -0.071,-1.91 0.18,-1.152 0.574,-2.195 1.113,-3.129 0.575,-1.078 1.333,-2.015 2.485,-2.519 1.441,-1.082 4.32,-2.559 6.015,-3.133 1.114,-0.613 3.348,-1.621 4.493,-2.125 v 0 l 85.183,-43.922 112.207,65.27 v 0" /><path
         id="path20"
         style="fill:#ffffff;fill-opacity:1;fill-rule:nonzero;stroke:none"
         d="m 376.949,444.703 -97.633,2.809 v 0 c 0.289,0.574 0.575,1.187 0.864,1.66 v 0 l 1.082,1.902 v 0 c 0.465,0.938 0.613,1.547 0.793,2.485 0.215,0.148 0.355,1.546 0.465,1.656 0.074,0.359 0.578,1.406 0.828,1.656 v 0 l 1.55,2.559 v 0 c 0.61,1.043 1.258,2.125 2.051,2.773 v 0 l 42.586,37.223 v 0 c 1.047,1.004 2.305,2.015 3.492,2.914 1.082,0.723 2.305,1.437 3.422,2.164 1.153,0.535 2.52,1.039 3.856,1.508 2.261,0.394 4.785,0.254 7.015,0.179 3.457,-0.179 6.946,-0.578 10.371,-1.113 4.032,-0.574 8.387,-1.695 12.239,-2.883 4.07,-1.363 8.746,-3.636 12.672,-5.547 2.703,-1.437 7.707,-4.136 10.546,-5.687 1.407,-0.75 3.532,-2.156 4.645,-3.383 0.574,-0.973 1.078,-1.976 1.227,-3.023 0.285,-0.864 0.179,-1.801 0.214,-2.551 -0.289,-0.906 -0.613,-1.731 -0.832,-2.633 -0.289,-0.933 -0.683,-1.617 -1.328,-2.48 v 0 l -20.125,-32.188 v 0" /></g></g></svg>