<?xml version="1.0" encoding="UTF-8" standalone="no"?>
<svg
   xmlns:dc="http://purl.org/dc/elements/1.1/"
   xmlns:cc="http://creativecommons.org/ns#"
   xmlns:rdf="http://www.w3.org/1999/02/22-rdf-syntax-ns#"
   xmlns:svg="http://www.w3.org/2000/svg"
   xmlns="http://www.w3.org/2000/svg"
   viewBox="0 0 113.38667 113.38667"
   height="113.38667"
   width="113.38667"
   xml:space="preserve"
   id="svg2"
   version="1.1"><metadata
     id="metadata8"><rdf:RDF><cc:Work
         rdf:about=""><dc:format>image/svg+xml</dc:format><dc:type
           rdf:resource="http://purl.org/dc/dcmitype/StillImage" /></cc:Work></rdf:RDF></metadata><defs
     id="defs6" /><g
     transform="matrix(1.3333333,0,0,-1.3333333,0,113.38667)"
     id="g10"><g
       transform="scale(0.1)"
       id="g12"><path
         id="path14"
         style="fill:#ee2c30;fill-opacity:1;fill-rule:nonzero;stroke:none"
         d="m 425.199,850.395 c 234.832,0 425.203,-190.372 425.203,-425.2 C 850.402,190.363 660.031,0 425.199,0 190.371,0 0,190.363 0,425.195 c 0,234.828 190.371,425.2 425.199,425.2 v 0" /><path
         id="path16"
         style="fill:#ffffff;fill-opacity:1;fill-rule:nonzero;stroke:none"
         d="m 425.199,708.645 c 156.551,0 283.446,-126.903 283.446,-283.45 0,-156.543 -126.895,-283.445 -283.446,-283.445 -156.547,0 -283.445,126.902 -283.445,283.445 0,156.547 126.898,283.45 283.445,283.45 v 0" /><path
         id="path18"
         style="fill:#231f20;fill-opacity:1;fill-rule:nonzero;stroke:none"
         d="m 552.285,438.66 c -2.43,0.676 -7.48,1.977 -15.156,3.895 -26.395,6.617 -45.301,12.441 -56.719,17.468 -17.683,7.793 -26.531,15.997 -26.531,24.618 0,1.851 0.398,3.828 1.18,5.91 9.668,25.57 18.625,49.211 26.875,70.91 v 0 l 4.316,11.332 -10.457,6.145 v 0 c -6.438,3.777 -13.664,5.667 -21.66,5.667 -7.16,0 -17.824,-2.121 -32.004,-6.363 -12.508,-3.738 -21.488,-5.609 -26.934,-5.609 -5.172,0 -9.629,1.18 -13.382,3.539 -1.606,1.012 -3.247,1.719 -4.926,2.113 v 0 l -3.489,0.832 -3.46,-0.91 v 0 c -4.516,-1.18 -8.551,-4.562 -12.102,-10.148 -2.445,-3.844 -4.711,-8.782 -6.797,-14.817 -3.266,-9.449 -5.176,-17.176 -5.734,-23.187 v 0 l -0.032,-0.336 -0.003,-0.149 v 0 c -1.266,-17.457 -4.743,-32.375 -10.426,-44.738 -3.317,-7.219 -8.864,-15.828 -16.637,-25.832 -8.039,-10.352 -13.125,-18.879 -15.246,-25.578 -4.363,-13.465 -6.543,-24.305 -6.543,-32.52 0,-7.519 1.695,-13.879 5.098,-19.086 3.464,-5.316 8.742,-9.492 15.839,-12.531 11.641,-4.988 31.446,-7.566 59.399,-7.73 3.434,-0.024 8.379,-0.039 14.832,-0.039 10.23,0 23.641,0.066 40.223,0.203 15.632,0.129 27.988,0.183 37.078,0.183 14.746,0 30.773,-0.117 48.066,-0.347 v 0 l 0.352,-0.012 0.343,0.02 v 0 c 9.325,0.324 19.336,4.257 30.02,11.812 10.762,7.605 17.773,15.738 21.023,24.391 2.168,5.593 3.243,10.89 3.243,15.894 0,13.039 -6.551,21.375 -19.649,25 v 0" /><path
         id="path20"
         style="fill:#231f20;fill-opacity:1;fill-rule:nonzero;stroke:none"
         d="m 282.074,345.781 c 22.117,0 40.039,-17.929 40.039,-40.039 0,-22.109 -17.922,-40.039 -40.039,-40.039 -22.113,0 -40.039,17.93 -40.039,40.039 0,22.11 17.926,40.039 40.039,40.039 v 0" /><path
         id="path22"
         style="fill:#231f20;fill-opacity:1;fill-rule:nonzero;stroke:none"
         d="m 377.402,345.781 c 22.114,0 40.039,-17.929 40.039,-40.039 0,-22.109 -17.925,-40.039 -40.039,-40.039 -22.113,0 -40.039,17.93 -40.039,40.039 0,22.11 17.926,40.039 40.039,40.039 v 0" /><path
         id="path24"
         style="fill:#231f20;fill-opacity:1;fill-rule:nonzero;stroke:none"
         d="m 472.891,345.781 c 22.109,0 40.039,-17.929 40.039,-40.039 0,-22.109 -17.93,-40.039 -40.039,-40.039 -22.118,0 -40.039,17.93 -40.039,40.039 0,22.11 17.921,40.039 40.039,40.039 v 0" /><path
         id="path26"
         style="fill:#231f20;fill-opacity:1;fill-rule:nonzero;stroke:none"
         d="m 568.371,345.781 c 22.117,0 40.039,-17.929 40.039,-40.039 0,-22.109 -17.922,-40.039 -40.039,-40.039 -22.109,0 -40.039,17.93 -40.039,40.039 0,22.11 17.93,40.039 40.039,40.039 v 0" /></g></g></svg>