<?xml version="1.0" encoding="UTF-8" standalone="no"?>
<svg
   xmlns:dc="http://purl.org/dc/elements/1.1/"
   xmlns:cc="http://creativecommons.org/ns#"
   xmlns:rdf="http://www.w3.org/1999/02/22-rdf-syntax-ns#"
   xmlns:svg="http://www.w3.org/2000/svg"
   xmlns="http://www.w3.org/2000/svg"
   viewBox="0 0 113.38667 113.38667"
   height="113.38667"
   width="113.38667"
   xml:space="preserve"
   id="svg2"
   version="1.1"><metadata
     id="metadata8"><rdf:RDF><cc:Work
         rdf:about=""><dc:format>image/svg+xml</dc:format><dc:type
           rdf:resource="http://purl.org/dc/dcmitype/StillImage" /></cc:Work></rdf:RDF></metadata><defs
     id="defs6" /><g
     transform="matrix(1.3333333,0,0,-1.3333333,0,113.38667)"
     id="g10"><g
       transform="scale(0.1)"
       id="g12"><path
         id="path14"
         style="fill:#ee2c30;fill-opacity:1;fill-rule:nonzero;stroke:none"
         d="m 425.195,850.395 c 234.832,0 425.196,-190.368 425.196,-425.2 C 850.391,190.371 660.027,0 425.195,0 190.367,0 0,190.371 0,425.195 c 0,234.832 190.367,425.2 425.195,425.2 v 0" /><path
         id="path16"
         style="fill:#ffffff;fill-opacity:1;fill-rule:nonzero;stroke:none"
         d="m 425.23,708.695 c 38.508,0 75.278,-7.402 110.297,-22.215 33.899,-14.335 63.946,-34.605 90.149,-60.804 26.199,-26.203 46.465,-56.25 60.797,-90.149 14.816,-35.019 22.218,-71.781 22.218,-110.293 0,-38.511 -7.402,-75.273 -22.218,-110.293 C 672.141,281.047 651.875,250.996 625.676,224.797 599.473,198.594 569.426,178.32 535.527,163.984 500.508,149.18 463.738,141.77 425.23,141.77 c -38.507,0 -75.273,7.41 -110.292,22.214 -33.899,14.336 -63.946,34.61 -90.149,60.813 -26.199,26.199 -46.469,56.25 -60.805,90.144 -14.808,35.02 -22.218,71.782 -22.218,110.293 0,38.512 7.41,75.274 22.218,110.293 14.336,33.899 34.606,63.946 60.805,90.149 26.203,26.199 56.25,46.469 90.149,60.804 35.019,14.813 71.785,22.215 110.292,22.215 v 0" /><path
         id="path18"
         style="fill:#231f20;fill-opacity:1;fill-rule:nonzero;stroke:none"
         d="m 370.117,610.227 c 11.953,6.562 26.754,1.687 33.36,-10.446 6.613,-12.105 2.503,-27.484 -9.204,-34.461 -12.168,-7.422 -27.8,-3.312 -34.66,9.364 -7.039,12.738 -2.097,28.824 10.504,35.543 v 0" /><path
         id="path20"
         style="fill:#231f20;fill-opacity:1;fill-rule:nonzero;stroke:none"
         d="m 253.418,303.652 c 0.59,-0.769 1.512,-2.168 2.012,-3 0.679,-1.109 2.468,-3.757 3.207,-4.871 0.683,-0.832 1.855,-2.676 2.57,-3.468 0.645,-0.958 1.785,-2.45 2.5,-3.407 0.398,-0.32 1.078,-1.113 1.391,-1.633 v 0 l 103.91,60.649 v 0 c -0.063,0.918 -0.063,2.293 -0.156,3.242 0.093,1.91 0.433,4.207 0.621,6.309 0.277,2.617 0.648,5.547 1.605,8.086 0.68,2.101 1.637,4.269 2.844,6.152 0.707,1.082 1.574,2.289 2.285,3.344 v 0 l 2.227,2.511 51.058,63.473 -35.058,64.461 v 0 c -0.621,1.082 -1.297,2.676 -1.856,3.758 -1.484,2.961 -2.812,6.402 -3.648,9.621 -0.922,3.309 -1.571,6.781 -1.571,10.219 -0.093,6.816 1.7,13.57 5.032,19.492 3.246,6.144 7.82,11.273 13.808,14.746 5.992,3.754 13.219,5.508 20.449,5.125 4.7,-0.223 9.211,-1.398 13.442,-3.117 3.301,-1.567 6.355,-3.41 9.297,-5.864 v 0 l 3.179,-2.863 57.981,-47.422 41.086,-54.621 33.269,18.918 4.786,-8.148 -23.973,-14.145 29.898,-54.234 23.789,13.566 5.743,-10.066 -241.711,-140.797 v 0 c -0.368,-0.379 -2.809,-1.621 -3.301,-1.914 -7.754,-3.914 -15.945,-7.227 -24.192,-9.551 -8.461,-2.265 -17.171,-3.469 -26.039,-3.535 -8.894,-0.195 -17.757,1.145 -26.441,3.602 -8.496,2.484 -16.621,6.019 -24.219,10.734 -7.687,4.426 -15.043,10.09 -21.097,16.496 -5.286,5.477 -9.852,11.59 -13.715,18.113 -0.617,1.055 -1.387,2.364 -1.973,3.407 v 0 l 10.961,6.632 v 0" /><path
         id="path22"
         style="fill:#ffffff;fill-opacity:1;fill-rule:nonzero;stroke:none"
         d="m 318.949,306.633 17.422,-31.34 -2.223,-6.113 6.672,-1.629 4.418,-8.215 v 0 c -1.269,-0.32 -3.183,-0.606 -4.355,-0.762 -3.582,-0.508 -7.352,-0.898 -10.871,-0.929 -7.602,-0.094 -15.571,1.339 -22.895,3.441 -7.504,2.168 -14.699,5.125 -21.402,8.855 -3.738,2.254 -7.57,4.872 -10.75,7.704 -0.832,0.707 -1.856,1.691 -2.563,2.328 v 0 l 46.547,26.66 v 0" /><path
         id="path24"
         style="fill:#ffffff;fill-opacity:1;fill-rule:nonzero;stroke:none"
         d="m 329.16,312.859 37.535,21.723 -6.179,-48.828 5.652,-1.172 -5.559,-4.777 -13.621,1.718 -17.828,31.336 v 0" /><path
         id="path26"
         style="fill:#ffffff;fill-opacity:1;fill-rule:nonzero;stroke:none"
         d="m 465.371,320.703 -76.543,-44.844 21.719,64.942 v 0 c 0.277,0.832 1.387,4.113 1.699,4.969 0.828,2.257 1.664,4.55 2.899,6.625 1.515,2.996 3.156,5.859 5.285,8.562 v 0 l 3.586,4.492 v 0 c 0.957,1.055 3.054,4.047 4.199,5 0.863,0.992 2.129,1.625 3.211,2.387 0.715,0.418 1.57,0.769 2.344,1.273 0.527,0.2 1.296,0.61 1.921,0.895 v 0 l 29.68,-54.301 v 0" /><path
         id="path28"
         style="fill:#ffffff;fill-opacity:1;fill-rule:nonzero;stroke:none"
         d="m 476.328,327.07 -29.746,54.461 85.039,49.746 v 0 c 0.488,-0.382 1.047,-0.636 1.414,-0.89 2.57,-1.149 5.195,-1.465 7.973,-0.957 2.41,0.449 4.883,1.402 6.797,2.8 1.699,1.375 3.152,2.805 4.238,4.622 0.887,1.562 1.629,3.308 1.973,5.062 0.054,0.668 0.211,1.754 0.242,2.422 v 0 l 0.437,0.191 29.961,-54.554 -108.328,-62.903 v 0" /><path
         id="path30"
         style="fill:#ffffff;fill-opacity:1;fill-rule:nonzero;stroke:none"
         d="m 434.551,444.242 -6.703,11.848 47.543,27.738 6.797,-11.402 -47.637,-28.184 v 0" /><path
         id="path32"
         style="fill:#ffffff;fill-opacity:1;fill-rule:nonzero;stroke:none"
         d="m 511.875,431.039 -37.559,67.992 16.993,-13.597 33.945,-46.528 -13.379,-7.867 v 0" /></g></g></svg>