<?xml version="1.0" encoding="UTF-8" standalone="no"?>
<svg
   xmlns:dc="http://purl.org/dc/elements/1.1/"
   xmlns:cc="http://creativecommons.org/ns#"
   xmlns:rdf="http://www.w3.org/1999/02/22-rdf-syntax-ns#"
   xmlns:svg="http://www.w3.org/2000/svg"
   xmlns="http://www.w3.org/2000/svg"
   viewBox="0 0 113.38667 113.38667"
   height="113.38667"
   width="113.38667"
   xml:space="preserve"
   id="svg2"
   version="1.1"><metadata
     id="metadata8"><rdf:RDF><cc:Work
         rdf:about=""><dc:format>image/svg+xml</dc:format><dc:type
           rdf:resource="http://purl.org/dc/dcmitype/StillImage" /></cc:Work></rdf:RDF></metadata><defs
     id="defs6" /><g
     transform="matrix(1.3333333,0,0,-1.3333333,0,113.38667)"
     id="g10"><g
       transform="scale(0.1)"
       id="g12"><path
         id="path14"
         style="fill:#ee2c30;fill-opacity:1;fill-rule:nonzero;stroke:none"
         d="m 124.535,725.855 c 166.051,166.047 435.27,166.047 601.324,0 166.047,-166.05 166.047,-435.269 0,-601.324 -166.054,-166.0427 -435.273,-166.0427 -601.324,0 -166.0467,166.055 -166.0467,435.274 0,601.324 v 0" /><path
         id="path16"
         style="fill:#ffffff;fill-opacity:1;fill-rule:nonzero;stroke:none"
         d="M 201.207,251.328 375.09,425.203 201.207,599.047 v 0 c -15.949,-20.481 -28.906,-42.84 -38.734,-67.137 -13.825,-34.094 -20.774,-69.699 -20.774,-106.746 0.035,-37.039 6.949,-72.605 20.774,-106.734 9.828,-24.27 22.746,-46.621 38.734,-67.102 v 0" /><path
         id="path18"
         style="fill:#ffffff;fill-opacity:1;fill-rule:nonzero;stroke:none"
         d="M 599.082,201.25 425.199,375.094 251.32,201.25 v 0 c 20.481,-16.023 42.875,-28.906 67.102,-38.777 34.168,-13.821 69.734,-20.735 106.777,-20.774 37.047,0.039 72.614,6.953 106.774,20.774 24.23,9.871 46.621,22.754 67.109,38.777 v 0" /><path
         id="path20"
         style="fill:#ffffff;fill-opacity:1;fill-rule:nonzero;stroke:none"
         d="M 649.191,599.047 475.313,425.203 649.191,251.328 v 0 c 15.985,20.481 28.907,42.832 38.739,67.102 13.82,34.129 20.734,69.695 20.773,106.734 0,37.047 -6.953,72.652 -20.773,106.746 -9.832,24.297 -22.793,46.656 -38.739,67.137 v 0" /><path
         id="path22"
         style="fill:#ffffff;fill-opacity:1;fill-rule:nonzero;stroke:none"
         d="M 251.352,649.16 425.199,475.316 599.043,649.16 v 0 c -20.488,15.981 -42.84,28.871 -67.109,38.735 -34.121,13.859 -69.657,20.738 -106.735,20.738 -37.078,0 -72.609,-6.879 -106.742,-20.738 -24.262,-9.864 -46.621,-22.754 -67.105,-38.735 v 0" /><path
         id="path24"
         style="fill:#1a67bb;fill-opacity:1;fill-rule:nonzero;stroke:none"
         d="m 202.129,264.289 c -12.859,17.723 -23.445,36.844 -31.766,57.363 -13.406,33.055 -20.113,67.571 -20.125,103.539 -0.011,35.879 6.707,70.399 20.149,103.563 8.304,20.488 18.89,39.613 31.754,57.383 v 0 L 363.063,425.215 202.129,264.289 v 0" /><path
         id="path26"
         style="fill:#1a67bb;fill-opacity:1;fill-rule:nonzero;stroke:none"
         d="m 586.133,202.109 c -17.735,-12.859 -36.856,-23.445 -57.371,-31.765 -33.125,-13.43 -67.657,-20.149 -103.563,-20.149 -35.91,0 -70.433,6.719 -103.566,20.149 -20.52,8.32 -39.641,18.906 -57.363,31.765 v 0 L 425.199,363.047 586.133,202.109 v 0" /><path
         id="path28"
         style="fill:#1a67bb;fill-opacity:1;fill-rule:nonzero;stroke:none"
         d="m 648.254,586.137 c 12.871,-17.77 23.445,-36.895 31.758,-57.383 13.445,-33.164 20.156,-67.684 20.144,-103.563 -0.008,-35.968 -6.718,-70.484 -20.125,-103.539 -8.312,-20.519 -18.906,-39.64 -31.769,-57.363 v 0 L 487.336,425.215 648.254,586.137 v 0" /><path
         id="path30"
         style="fill:#1a67bb;fill-opacity:1;fill-rule:nonzero;stroke:none"
         d="m 264.293,648.258 c 17.699,12.836 36.82,23.426 57.367,31.765 33.043,13.418 67.555,20.125 103.539,20.125 35.985,0 70.496,-6.707 103.531,-20.125 20.547,-8.339 39.68,-18.929 57.375,-31.765 v 0 L 425.199,487.348 264.293,648.258 v 0" /></g></g></svg>