<?xml version="1.0" encoding="UTF-8" standalone="no"?>
<svg
   xmlns:dc="http://purl.org/dc/elements/1.1/"
   xmlns:cc="http://creativecommons.org/ns#"
   xmlns:rdf="http://www.w3.org/1999/02/22-rdf-syntax-ns#"
   xmlns:svg="http://www.w3.org/2000/svg"
   xmlns="http://www.w3.org/2000/svg"
   viewBox="0 0 113.38667 113.38667"
   height="113.38667"
   width="113.38667"
   xml:space="preserve"
   id="svg2"
   version="1.1"><metadata
     id="metadata8"><rdf:RDF><cc:Work
         rdf:about=""><dc:format>image/svg+xml</dc:format><dc:type
           rdf:resource="http://purl.org/dc/dcmitype/StillImage" /></cc:Work></rdf:RDF></metadata><defs
     id="defs6" /><g
     transform="matrix(1.3333333,0,0,-1.3333333,0,113.38667)"
     id="g10"><g
       transform="scale(0.1)"
       id="g12"><path
         id="path14"
         style="fill:#ee2c30;fill-opacity:1;fill-rule:nonzero;stroke:none"
         d="m 725.859,725.855 c 166.047,-166.05 166.047,-435.269 0,-601.324 -166.054,-166.0427 -435.273,-166.0427 -601.324,0 -166.0467,166.055 -166.0467,435.274 0,601.324 166.051,166.047 435.27,166.047 601.324,0 v 0" /><path
         id="path16"
         style="fill:#ffffff;fill-opacity:1;fill-rule:nonzero;stroke:none"
         d="M 257.09,653.496 653.555,257.031 v 0 c 14.004,18.938 25.488,39.383 34.414,61.446 13.828,34.093 20.742,69.664 20.742,106.742 0,37.047 -6.875,72.613 -20.742,106.738 -14.285,35.211 -35.02,66.461 -62.274,93.672 -27.218,27.219 -58.468,47.988 -93.672,62.281 -34.132,13.863 -69.699,20.774 -106.777,20.774 -37.043,-0.036 -72.613,-6.946 -106.738,-20.735 -22.031,-8.965 -42.516,-20.414 -61.418,-34.453 v 0" /><path
         id="path18"
         style="fill:#ffffff;fill-opacity:1;fill-rule:nonzero;stroke:none"
         d="m 593.438,196.875 -396.469,396.5 v 0 C 182.93,574.438 171.48,553.992 162.516,531.926 148.73,497.832 141.781,462.227 141.781,425.219 c 0,-37.078 6.91,-72.68 20.774,-106.774 14.254,-35.211 35.027,-66.453 62.242,-93.668 27.254,-27.257 58.465,-47.988 93.711,-62.324 34.125,-13.82 69.656,-20.734 106.738,-20.734 37.078,0 72.645,6.953 106.738,20.734 22.071,8.965 42.52,20.449 61.454,34.422 v 0" /><path
         id="path20"
         style="fill:#1a67bb;fill-opacity:1;fill-rule:nonzero;stroke:none"
         d="m 270.195,652.387 c 16.071,11.031 33.239,20.246 51.508,27.648 33.074,13.403 67.59,20.113 103.547,20.125 35.914,0.012 70.426,-6.703 103.559,-20.148 34.179,-13.867 64.464,-34.004 90.859,-60.399 26.406,-26.398 46.543,-56.699 60.43,-90.886 13.41,-33.043 20.117,-67.555 20.117,-103.539 0,-35.926 -6.707,-70.442 -20.117,-103.547 -7.391,-18.235 -16.602,-35.411 -27.637,-51.512 v 0 L 270.195,652.387 v 0" /><path
         id="path22"
         style="fill:#1a67bb;fill-opacity:1;fill-rule:nonzero;stroke:none"
         d="m 580.305,198 c -16.114,-11.027 -33.282,-20.234 -51.524,-27.629 -33.105,-13.418 -67.617,-20.125 -103.543,-20.125 -35.984,0 -70.496,6.707 -103.535,20.125 -34.191,13.879 -64.492,34.024 -90.887,60.422 -26.398,26.395 -46.527,56.68 -60.402,90.859 -13.441,33.133 -20.16,67.649 -20.144,103.563 0.007,35.957 6.718,70.469 20.121,103.547 7.402,18.265 16.621,35.433 27.648,51.504 v 0 L 580.305,198 v 0" /></g></g></svg>