<?xml version="1.0" encoding="UTF-8" standalone="no"?>
<svg
   xmlns:dc="http://purl.org/dc/elements/1.1/"
   xmlns:cc="http://creativecommons.org/ns#"
   xmlns:rdf="http://www.w3.org/1999/02/22-rdf-syntax-ns#"
   xmlns:svg="http://www.w3.org/2000/svg"
   xmlns="http://www.w3.org/2000/svg"
   viewBox="0 0 113.38667 113.38667"
   height="113.38667"
   width="113.38667"
   xml:space="preserve"
   id="svg2"
   version="1.1"><metadata
     id="metadata8"><rdf:RDF><cc:Work
         rdf:about=""><dc:format>image/svg+xml</dc:format><dc:type
           rdf:resource="http://purl.org/dc/dcmitype/StillImage" /></cc:Work></rdf:RDF></metadata><defs
     id="defs6" /><g
     transform="matrix(1.3333333,0,0,-1.3333333,0,113.38667)"
     id="g10"><g
       transform="scale(0.1)"
       id="g12"><path
         id="path14"
         style="fill:#ee2c30;fill-opacity:1;fill-rule:nonzero;stroke:none"
         d="m 850.391,425.195 c 0,234.828 -190.36,425.196 -425.192,425.196 C 190.371,850.391 0,660.023 0,425.195 0,190.371 190.371,0 425.199,0 660.031,0 850.391,190.371 850.391,425.195 v 0" /><path
         id="path16"
         style="fill:#ffffff;fill-opacity:1;fill-rule:nonzero;stroke:none"
         d="m 708.664,425.195 c 0,156.563 -126.906,283.461 -283.465,283.461 -156.566,0 -283.465,-126.898 -283.465,-283.461 0,-156.562 126.899,-283.465 283.465,-283.465 156.559,0 283.465,126.903 283.465,283.465 v 0" /><path
         id="path18"
         style="fill:#231f20;fill-opacity:1;fill-rule:nonzero;stroke:none"
         d="M 616.535,396.863 H 233.859 v 0 c -15.625,0 -28.332,12.707 -28.332,28.332 0,15.66 12.707,28.371 28.332,28.371 v 0 h 191.34 191.336 v 0 c 15.664,0 28.367,-12.711 28.367,-28.371 0,-15.625 -12.703,-28.332 -28.367,-28.332 v 0" /><path
         id="path20"
         style="fill:#231f20;fill-opacity:1;fill-rule:nonzero;stroke:none"
         d="m 226.801,486.176 h 16.707 v 0 c 6.586,0 12.347,1.121 17.312,3.531 4.973,2.266 9.219,5.543 12.563,9.973 3.351,4.39 5.762,9.644 7.492,15.91 1.727,6.265 2.555,13.215 2.555,21.027 v 0 0 0 c 0,10.801 -1.403,19.617 -4.285,26.457 -2.879,6.664 -6.551,11.774 -10.942,15.34 -2.664,2.121 -5.762,3.848 -9.219,5.106 -3.597,1.3 -7.847,1.843 -12.925,1.843 v 0 h -19.258 v -99.187 0" /><path
         id="path22"
         style="fill:#231f20;fill-opacity:1;fill-rule:nonzero;stroke:none"
         d="m 298.625,497.809 c 2.766,-4.25 6.008,-7.383 9.828,-9.508 3.672,-2.231 7.699,-3.238 11.988,-3.238 4.497,0 8.637,1.007 12.454,3.097 3.816,2.121 7.019,5.254 9.793,9.5 2.773,4.141 4.968,9.543 6.585,15.953 1.481,6.367 2.305,14.039 2.305,22.715 v 0 0 0 c 0,8.391 -0.824,15.66 -2.305,21.887 -1.617,6.262 -3.812,11.523 -6.585,15.805 -2.774,4.105 -5.977,7.382 -9.684,9.5 -3.82,2.125 -7.848,3.136 -12.094,3.136 -4.504,0 -8.57,-1.011 -12.351,-3.136 -3.817,-2.118 -7.168,-5.254 -9.934,-9.395 -2.773,-4.246 -4.973,-9.648 -6.445,-16.055 -1.621,-6.371 -2.45,-14.078 -2.45,-22.715 0,-8.386 0.829,-15.66 2.45,-21.886 1.472,-6.266 3.672,-11.52 6.445,-15.66 v 0" /><path
         id="path24"
         style="fill:#231f20;fill-opacity:1;fill-rule:nonzero;stroke:none"
         d="m 404.934,499.934 c -1.153,-0.688 -2.52,-1.262 -4.25,-1.696 -1.727,-0.429 -3.348,-0.578 -5.079,-0.578 -4.031,0 -7.632,1.012 -10.726,2.848 -3.129,1.871 -5.656,4.57 -7.633,7.953 -2.051,3.426 -3.562,7.559 -4.609,12.531 -1.043,4.824 -1.621,10.223 -1.621,16.199 0,5.543 0.578,10.657 1.836,15.192 1.3,4.57 3.027,8.39 5.226,11.664 2.192,3.133 4.711,5.543 7.699,7.379 3.028,1.726 6.371,2.594 9.938,2.594 3.348,0 6.699,-0.579 9.898,-1.582 3.133,-1.118 6.121,-2.7 8.785,-4.536 v 0 l 0.36,14.36 v 0 c -2.195,1.258 -4.969,2.41 -8.211,3.242 -3.344,0.719 -7.016,1.152 -11.082,1.152 -5.871,0 -11.055,-1.293 -15.664,-3.707 -4.75,-2.414 -8.672,-5.976 -11.879,-10.371 -3.238,-4.39 -5.652,-9.789 -7.379,-16.055 -1.73,-6.265 -2.668,-13.066 -2.668,-20.628 0,-6.95 0.797,-13.645 2.305,-19.727 1.515,-6.266 3.925,-11.664 7.023,-16.234 3.129,-4.684 7.16,-8.25 11.879,-10.946 4.75,-2.699 10.406,-3.925 16.738,-3.925 4.504,0 8.535,0.578 12.102,1.656 3.598,1.008 6.586,2.16 8.781,3.418 v 0 51.156 h -24.695 v -12.348 h 12.926 v -29.011 0" /><path
         id="path26"
         style="fill:#231f20;fill-opacity:1;fill-rule:nonzero;stroke:none"
         d="m 422.32,486.176 h 12.418 l 6.121,24.844 h 29.192 l 6.082,-24.844 h 12.93 l -26.172,99.187 H 449.277 L 422.32,486.176 v 0" /><path
         id="path28"
         style="fill:#231f20;fill-opacity:1;fill-rule:nonzero;stroke:none"
         d="m 495.148,486.176 h 11.524 v 79.312 h 0.242 l 28.477,-79.312 h 15.129 v 99.187 h -11.524 v -79.89 h -0.258 l -28.472,79.89 h -15.118 v -99.187 0" /><path
         id="path30"
         style="fill:#231f20;fill-opacity:1;fill-rule:nonzero;stroke:none"
         d="m 556.816,486.176 h 12.454 l 6.121,24.844 h 29.199 l 6.086,-24.844 h 12.918 l -26.172,99.187 H 583.82 l -27.004,-99.187 v 0" /><path
         id="path32"
         style="fill:#231f20;fill-opacity:1;fill-rule:nonzero;stroke:none"
         d="m 226.801,265.07 h 18.039 v 0 c 7.09,0 13.281,1.153 18.648,3.563 5.36,2.265 9.934,5.547 13.567,9.972 3.605,4.391 6.199,9.649 8.066,15.907 1.871,6.269 2.734,13.215 2.734,21.023 v 0 0 0 c 0,10.805 -1.472,19.621 -4.601,26.469 -3.102,6.656 -7.098,11.766 -11.813,15.328 -2.843,2.133 -6.226,3.859 -9.937,5.117 -3.852,1.289 -8.457,1.836 -13.93,1.836 v 0 h -20.773 v -99.215 0" /><path
         id="path34"
         style="fill:#231f20;fill-opacity:1;fill-rule:nonzero;stroke:none"
         d="m 304.273,276.73 c 2.954,-4.25 6.446,-7.375 10.551,-9.503 3.996,-2.266 8.352,-3.27 12.961,-3.27 4.824,0 9.32,1.004 13.426,3.125 4.102,2.129 7.559,5.262 10.547,9.512 2.988,4.129 5.367,9.527 7.09,15.945 1.621,6.367 2.484,14.031 2.484,22.715 v 0 0 0 c 0,8.391 -0.863,15.652 -2.484,21.887 -1.723,6.257 -4.102,11.519 -7.09,15.8 -2.988,4.11 -6.445,7.379 -10.438,9.508 -4.109,2.121 -8.465,3.125 -13.066,3.125 -4.824,0 -9.188,-1.004 -13.289,-3.125 -4.106,-2.129 -7.738,-5.261 -10.692,-9.402 -2.988,-4.246 -5.363,-9.649 -6.984,-16.055 -1.726,-6.367 -2.59,-14.07 -2.59,-22.715 0,-8.386 0.864,-15.656 2.59,-21.882 1.621,-6.274 3.996,-11.528 6.984,-15.665 v 0" /><path
         id="path36"
         style="fill:#231f20;fill-opacity:1;fill-rule:nonzero;stroke:none"
         d="m 370.695,364.285 v -63.394 c 0,-4.825 0.254,-8.926 0.864,-12.356 0.648,-3.562 1.621,-6.836 3.129,-9.93 2.089,-4.574 5.332,-8.097 9.433,-10.695 4.106,-2.695 9.074,-3.953 14.942,-3.953 5.832,0 10.8,1.258 14.902,3.953 4.14,2.707 7.344,6.27 9.469,10.84 1.511,3.098 2.449,6.367 3.062,9.785 0.649,3.43 0.899,7.531 0.899,12.356 v 0 63.394 h -13.43 v -64.375 0 c 0,-8.094 -1.219,-13.922 -3.707,-17.781 -2.625,-3.816 -6.336,-5.828 -11.195,-5.828 -9.969,0 -14.942,7.851 -14.942,23.609 v 0 64.375 h -13.426 v 0" /><path
         id="path38"
         style="fill:#231f20;fill-opacity:1;fill-rule:nonzero;stroke:none"
         d="m 428.043,265.07 h 13.422 l 6.594,24.871 h 31.464 l 6.59,-24.871 h 13.926 l -28.223,99.215 H 457.129 L 428.043,265.07 v 0" /><path
         id="path40"
         style="fill:#231f20;fill-opacity:1;fill-rule:nonzero;stroke:none"
         d="m 506.594,265.07 h 12.461 v 79.344 h 0.242 l 30.715,-79.344 h 16.308 v 99.215 h -12.461 v -79.89 h -0.246 l -30.711,79.89 h -16.308 v -99.215 0" /><path
         id="path42"
         style="fill:#231f20;fill-opacity:1;fill-rule:nonzero;stroke:none"
         d="m 579.133,265.07 h 44.422 v 12.664 H 592.598 V 310 h 28.078 v 12.664 h -28.078 v 28.988 h 29.59 v 12.633 h -43.055 v -99.215 0" /><path
         id="path44"
         style="fill:#ffffff;fill-opacity:1;fill-rule:nonzero;stroke:none"
         d="m 239.258,498.527 v 74.485 h 5.543 v 0 c 4.469,0 8.387,-0.864 11.629,-2.699 3.238,-1.836 5.906,-4.286 7.957,-7.524 1.98,-3.277 3.457,-7.129 4.5,-11.523 0.937,-4.426 1.402,-9.395 1.402,-14.649 v 0 0 0 c 0,-11.812 -2.086,-21.168 -6.226,-27.867 -4.286,-6.801 -10.622,-10.223 -19.262,-10.223 v 0 h -5.543 v 0" /><path
         id="path46"
         style="fill:#ffffff;fill-opacity:1;fill-rule:nonzero;stroke:none"
         d="m 307.301,507.348 c -3.137,6.804 -4.649,16.199 -4.649,28.007 0,7.239 0.469,13.356 1.512,18.321 0.938,4.972 2.199,9.113 3.926,12.207 1.621,2.988 3.566,5.293 5.758,6.695 2.199,1.301 4.609,1.985 7.062,1.985 5.754,0 10.149,-3.387 13.246,-10.227 2.989,-6.809 4.496,-16.199 4.496,-28.008 v 0 0 0 c 0,-7.234 -0.468,-13.359 -1.367,-18.324 -1.047,-4.969 -2.34,-9.106 -3.926,-12.098 -1.722,-3.133 -3.707,-5.398 -5.902,-6.66 -2.191,-1.437 -4.605,-2.121 -7.016,-2.121 -5.761,0 -10.152,3.383 -13.14,10.223 v 0" /><path
         id="path48"
         style="fill:#ffffff;fill-opacity:1;fill-rule:nonzero;stroke:none"
         d="m 443.848,523.402 11.875,47.918 h 0.254 l 11.164,-47.918 h -23.293 v 0" /><path
         id="path50"
         style="fill:#ffffff;fill-opacity:1;fill-rule:nonzero;stroke:none"
         d="m 578.379,523.402 11.875,47.918 h 0.254 l 11.164,-47.918 h -23.293 v 0" /><path
         id="path52"
         style="fill:#ffffff;fill-opacity:1;fill-rule:nonzero;stroke:none"
         d="m 240.23,277.449 v 74.485 h 5.977 v 0 c 4.824,0 9.07,-0.86 12.563,-2.696 3.457,-1.836 6.339,-4.289 8.57,-7.531 2.125,-3.269 3.746,-7.129 4.859,-11.512 0.969,-4.433 1.473,-9.406 1.473,-14.66 v 0 0 0 c 0,-11.805 -2.231,-21.16 -6.695,-27.859 -4.61,-6.809 -11.45,-10.227 -20.77,-10.227 v 0 h -5.977 v 0" /><path
         id="path54"
         style="fill:#ffffff;fill-opacity:1;fill-rule:nonzero;stroke:none"
         d="m 313.598,286.27 c -3.383,6.804 -5.004,16.203 -5.004,28.007 0,7.239 0.504,13.36 1.621,18.332 1.008,4.961 2.375,9.098 4.25,12.196 1.726,2.988 3.851,5.293 6.223,6.699 2.343,1.301 4.972,1.984 7.566,1.984 6.223,0 10.941,-3.39 14.324,-10.226 3.238,-6.809 4.824,-16.199 4.824,-28.008 v 0 0 0 c 0,-7.234 -0.468,-13.359 -1.472,-18.328 -1.121,-4.961 -2.489,-9.106 -4.215,-12.094 -1.871,-3.133 -3.996,-5.398 -6.371,-6.656 -2.34,-1.446 -4.969,-2.129 -7.559,-2.129 -6.23,0 -10.949,3.387 -14.187,10.223 v 0" /><path
         id="path56"
         style="fill:#ffffff;fill-opacity:1;fill-rule:nonzero;stroke:none"
         d="m 451.301,302.324 12.812,47.918 h 0.25 l 12.063,-47.918 h -25.125 v 0" /></g></g></svg>