<?xml version="1.0" encoding="UTF-8" standalone="no"?>
<svg
   xmlns:dc="http://purl.org/dc/elements/1.1/"
   xmlns:cc="http://creativecommons.org/ns#"
   xmlns:rdf="http://www.w3.org/1999/02/22-rdf-syntax-ns#"
   xmlns:svg="http://www.w3.org/2000/svg"
   xmlns="http://www.w3.org/2000/svg"
   viewBox="0 0 113.38667 113.38667"
   height="113.38667"
   width="113.38667"
   xml:space="preserve"
   id="svg2"
   version="1.1"><metadata
     id="metadata8"><rdf:RDF><cc:Work
         rdf:about=""><dc:format>image/svg+xml</dc:format><dc:type
           rdf:resource="http://purl.org/dc/dcmitype/StillImage" /></cc:Work></rdf:RDF></metadata><defs
     id="defs6" /><g
     transform="matrix(1.3333333,0,0,-1.3333333,0,113.38667)"
     id="g10"><g
       transform="scale(0.1)"
       id="g12"><path
         id="path14"
         style="fill:#ee2c30;fill-opacity:1;fill-rule:nonzero;stroke:none"
         d="m 850.391,425.195 c 0,234.828 -190.36,425.196 -425.192,425.196 C 190.371,850.391 0,660.023 0,425.195 0,190.371 190.371,0 425.199,0 660.031,0 850.391,190.371 850.391,425.195 v 0" /><path
         id="path16"
         style="fill:#ffffff;fill-opacity:1;fill-rule:nonzero;stroke:none"
         d="m 708.664,425.195 c 0,156.563 -126.906,283.461 -283.465,283.461 -156.566,0 -283.465,-126.898 -283.465,-283.461 0,-156.562 126.899,-283.465 283.465,-283.465 156.559,0 283.465,126.903 283.465,283.465 v 0" /><path
         id="path18"
         style="fill:#231f20;fill-opacity:1;fill-rule:nonzero;stroke:none"
         d="M 616.535,396.863 H 233.859 v 0 c -15.625,0 -28.332,12.707 -28.332,28.332 0,15.66 12.707,28.371 28.332,28.371 v 0 h 191.34 191.336 v 0 c 15.664,0 28.367,-12.711 28.367,-28.371 0,-15.625 -12.703,-28.332 -28.367,-28.332 v 0" /><path
         id="path20"
         style="fill:#231f20;fill-opacity:1;fill-rule:nonzero;stroke:none"
         d="m 237.422,486.176 h 14.328 v 40.215 h 8.641 v 0 c 9.683,0 17.132,2.554 22.172,7.812 4.898,5.113 7.417,12.492 7.417,22.031 v 0 0 0 c 0,9.543 -2.519,16.778 -7.558,21.746 -5.039,4.969 -11.953,7.383 -20.559,7.383 v 0 h -24.441 v -99.187 0" /><path
         id="path22"
         style="fill:#231f20;fill-opacity:1;fill-rule:nonzero;stroke:none"
         d="m 305.93,497.809 c 3.168,-4.25 6.879,-7.383 11.269,-9.508 4.246,-2.231 8.891,-3.238 13.821,-3.238 5.152,0 9.937,1.007 14.332,3.097 4.39,2.121 8.101,5.254 11.265,9.5 3.207,4.141 5.727,9.543 7.598,15.953 1.695,6.367 2.625,14.039 2.625,22.715 v 0 0 0 c 0,8.391 -0.93,15.66 -2.625,21.887 -1.871,6.262 -4.391,11.523 -7.598,15.805 -3.164,4.105 -6.875,7.382 -11.125,9.5 -4.387,2.125 -9.031,3.136 -13.969,3.136 -5.144,0 -9.824,-1.011 -14.179,-3.136 -4.395,-2.118 -8.246,-5.254 -11.414,-9.395 -3.203,-4.246 -5.723,-9.648 -7.453,-16.055 -1.872,-6.371 -2.77,-14.078 -2.77,-22.715 0,-8.386 0.898,-15.66 2.77,-21.886 1.73,-6.266 4.25,-11.52 7.453,-15.66 v 0" /><path
         id="path24"
         style="fill:#231f20;fill-opacity:1;fill-rule:nonzero;stroke:none"
         d="m 376.703,486.176 h 44.715 v 12.637 h -30.383 v 86.55 h -14.332 v -99.187 0" /><path
         id="path26"
         style="fill:#231f20;fill-opacity:1;fill-rule:nonzero;stroke:none"
         d="m 428.043,486.176 h 14.332 v 99.187 h -14.332 v -99.187 0" /><path
         id="path28"
         style="fill:#231f20;fill-opacity:1;fill-rule:nonzero;stroke:none"
         d="m 451.086,486.176 h 54.676 v 12.637 h -38.621 l 37.976,73.625 v 12.925 h -52.851 v -12.636 h 35.968 l -37.148,-72.653 v -13.898 0" /><path
         id="path30"
         style="fill:#231f20;fill-opacity:1;fill-rule:nonzero;stroke:none"
         d="m 514.875,486.176 h 14.324 v 99.187 h -14.324 v -99.187 0" /><path
         id="path32"
         style="fill:#231f20;fill-opacity:1;fill-rule:nonzero;stroke:none"
         d="m 536.074,486.176 h 14.336 l 7.051,24.844 h 33.586 l 7.019,-24.844 h 14.875 l -30.136,99.187 h -15.657 l -31.074,-99.187 v 0" /><path
         id="path34"
         style="fill:#231f20;fill-opacity:1;fill-rule:nonzero;stroke:none"
         d="m 248.043,265.07 h 15.371 v 40.243 h 9.254 v 0 c 10.363,0 18.324,2.558 23.758,7.812 5.254,5.117 7.953,12.488 7.953,22.031 v 0 0 0 c 0,9.539 -2.699,16.778 -8.094,21.746 -5.441,4.973 -12.816,7.383 -22.07,7.383 v 0 h -26.172 v -99.215 0" /><path
         id="path36"
         style="fill:#231f20;fill-opacity:1;fill-rule:nonzero;stroke:none"
         d="m 321.445,276.73 c 3.383,-4.25 7.383,-7.375 12.063,-9.503 4.57,-2.266 9.539,-3.27 14.793,-3.27 5.547,0 10.695,1.004 15.371,3.125 4.683,2.129 8.676,5.262 12.101,9.512 3.418,4.129 6.118,9.527 8.098,15.945 1.836,6.367 2.844,14.031 2.844,22.715 v 0 0 0 c 0,8.391 -1.008,15.652 -2.844,21.887 -1.98,6.257 -4.68,11.519 -8.098,15.8 -3.425,4.11 -7.418,7.379 -11.953,9.508 -4.683,2.121 -9.683,3.125 -14.941,3.125 -5.543,0 -10.516,-1.004 -15.231,-3.125 -4.679,-2.129 -8.82,-5.261 -12.203,-9.402 -3.418,-4.246 -6.117,-9.649 -7.992,-16.055 -1.976,-6.367 -2.988,-14.07 -2.988,-22.715 0,-8.386 1.012,-15.656 2.988,-21.882 1.875,-6.274 4.574,-11.528 7.992,-15.665 v 0" /><path
         id="path38"
         style="fill:#231f20;fill-opacity:1;fill-rule:nonzero;stroke:none"
         d="m 397.262,265.07 h 47.886 v 12.664 h -32.515 v 86.551 h -15.371 v -99.215 0" /><path
         id="path40"
         style="fill:#231f20;fill-opacity:1;fill-rule:nonzero;stroke:none"
         d="m 452.266,265.07 h 15.382 v 99.215 h -15.382 v -99.215 0" /><path
         id="path42"
         style="fill:#231f20;fill-opacity:1;fill-rule:nonzero;stroke:none"
         d="m 543.391,267.227 -0.578,14.472 v 0 c -2.411,-1.551 -4.969,-2.695 -7.958,-3.523 -2.992,-0.871 -6.406,-1.301 -10.226,-1.301 -9.246,0 -16.524,3.273 -21.922,9.973 -5.402,6.66 -8.098,16.347 -8.098,29.265 0,6.27 0.86,11.668 2.414,16.348 1.543,4.531 3.848,8.391 6.551,11.379 2.696,2.984 5.832,5.105 9.395,6.656 3.527,1.438 7.375,2.16 11.23,2.16 4.102,0 7.664,-0.578 10.656,-1.582 2.989,-1.125 5.684,-2.414 7.958,-3.672 v 0 l 0.578,14.328 v 0 c -2.129,1.004 -4.973,1.875 -8.536,2.696 -3.71,0.722 -7.667,1.148 -11.953,1.148 -6.945,0 -13.066,-1.289 -18.613,-3.699 -5.578,-2.41 -10.117,-5.977 -13.965,-10.371 -3.82,-4.539 -6.808,-9.941 -8.82,-16.055 -2.129,-6.269 -3.133,-13.066 -3.133,-20.633 0,-6.945 1.004,-13.644 2.84,-19.726 1.875,-6.113 4.57,-11.516 8.281,-16.231 3.672,-4.679 8.391,-8.242 14.082,-10.949 5.684,-2.695 12.383,-3.953 20.051,-3.953 3.711,0 7.234,0.281 10.801,0.859 3.562,0.684 6.551,1.407 8.965,2.411 v 0" /><path
         id="path44"
         style="fill:#231f20;fill-opacity:1;fill-rule:nonzero;stroke:none"
         d="m 551.563,265.07 h 50.753 v 12.664 H 566.934 V 310 h 32.109 v 12.664 h -32.109 v 28.988 h 33.839 v 12.633 h -49.21 v -99.215 0" /><path
         id="path46"
         style="fill:#ffffff;fill-opacity:1;fill-rule:nonzero;stroke:none"
         d="m 251.75,538.453 v 34.848 h 6.516 v 0 c 5.722,0 9.972,-1.442 12.886,-4.141 2.774,-2.847 4.25,-7.383 4.25,-13.5 v 0 0 0 c 0,-5.543 -1.336,-9.648 -3.996,-12.637 -2.668,-2.988 -7.019,-4.57 -13.285,-4.57 v 0 h -6.371 v 0" /><path
         id="path48"
         style="fill:#ffffff;fill-opacity:1;fill-rule:nonzero;stroke:none"
         d="m 315.863,507.348 c -3.562,6.804 -5.285,16.199 -5.285,28.007 0,7.239 0.5,13.356 1.723,18.321 1.043,4.972 2.523,9.113 4.5,12.207 1.871,2.988 4.109,5.293 6.629,6.695 2.519,1.301 5.324,1.985 8.093,1.985 6.661,0 11.704,-3.387 15.27,-10.227 3.453,-6.809 5.18,-16.199 5.18,-28.008 v 0 0 0 c 0,-7.234 -0.504,-13.359 -1.582,-18.324 -1.188,-4.969 -2.664,-9.106 -4.5,-12.098 -2.02,-3.133 -4.25,-5.398 -6.77,-6.66 -2.555,-1.437 -5.328,-2.121 -8.101,-2.121 -6.661,0 -11.7,3.383 -15.157,10.223 v 0" /><path
         id="path50"
         style="fill:#ffffff;fill-opacity:1;fill-rule:nonzero;stroke:none"
         d="m 560.918,523.402 13.645,47.918 h 0.292 l 12.852,-47.918 h -26.789 v 0" /><path
         id="path52"
         style="fill:#ffffff;fill-opacity:1;fill-rule:nonzero;stroke:none"
         d="m 263.414,317.371 v 34.856 h 6.981 v 0 c 6.085,0 10.66,-1.446 13.789,-4.141 2.988,-2.852 4.539,-7.383 4.539,-13.508 v 0 0 0 c 0,-5.535 -1.403,-9.644 -4.25,-12.633 -2.84,-2.992 -7.559,-4.574 -14.219,-4.574 v 0 h -6.84 v 0" /><path
         id="path54"
         style="fill:#ffffff;fill-opacity:1;fill-rule:nonzero;stroke:none"
         d="m 332.102,286.27 c -3.848,6.804 -5.684,16.203 -5.684,28.007 0,7.239 0.574,13.36 1.836,18.332 1.144,4.961 2.699,9.098 4.855,12.196 1.981,2.988 4.391,5.293 7.09,6.699 2.703,1.301 5.692,1.984 8.68,1.984 7.129,0 12.527,-3.39 16.34,-10.226 3.711,-6.809 5.582,-16.199 5.582,-28.008 v 0 0 0 c 0,-7.234 -0.574,-13.359 -1.727,-18.328 -1.261,-4.961 -2.844,-9.106 -4.824,-12.094 -2.125,-3.133 -4.57,-5.398 -7.273,-6.656 -2.7,-1.446 -5.688,-2.129 -8.676,-2.129 -7.09,0 -12.488,3.387 -16.199,10.223 v 0" /></g></g></svg>