<?xml version="1.0" encoding="UTF-8" standalone="no"?>
<svg
   xmlns:dc="http://purl.org/dc/elements/1.1/"
   xmlns:cc="http://creativecommons.org/ns#"
   xmlns:rdf="http://www.w3.org/1999/02/22-rdf-syntax-ns#"
   xmlns:svg="http://www.w3.org/2000/svg"
   xmlns="http://www.w3.org/2000/svg"
   viewBox="0 0 113.21333 113.17333"
   height="113.17333"
   width="113.21333"
   xml:space="preserve"
   id="svg2"
   version="1.1"><metadata
     id="metadata8"><rdf:RDF><cc:Work
         rdf:about=""><dc:format>image/svg+xml</dc:format><dc:type
           rdf:resource="http://purl.org/dc/dcmitype/StillImage" /></cc:Work></rdf:RDF></metadata><defs
     id="defs6" /><g
     transform="matrix(1.3333333,0,0,-1.3333333,0,113.17333)"
     id="g10"><g
       transform="scale(0.1)"
       id="g12"><path
         id="path14"
         style="fill:#918f90;fill-opacity:1;fill-rule:nonzero;stroke:none"
         d="M 545.465,832.363 C 439.188,863.715 333.457,854.18 234.457,804.316 135.531,754.531 64.8633,675.293 26.7031,571.25 -11.4961,467.211 -8.86719,361.086 34.4023,259.063 77.6406,157.109 152.129,81.4023 253.395,36.5078 c 235.8,-104.4375 509.503,23.543 580.5,271.4412 64.257,224.352 -64.512,458.567 -288.43,524.414 v 0" /><path
         id="path16"
         style="fill:#ffffff;fill-opacity:1;fill-rule:nonzero;stroke:none"
         d="m 155.113,581.91 20.844,31.82 -10.582,6.954 -14.148,-21.641 -72.434,47.344 -6.6953,-10.188 83.0153,-54.289" /><path
         id="path18"
         style="fill:#ffffff;fill-opacity:1;fill-rule:nonzero;stroke:none"
         d="m 178.945,616.758 7.383,9.18 -56.773,45.718 -7.383,-9.144 56.773,-45.754" /><path
         id="path20"
         style="fill:#ffffff;fill-opacity:1;fill-rule:nonzero;stroke:none"
         d="m 110.547,671.441 7.773,9.684 -12.277,9.863 -7.7735,-9.648 12.2775,-9.899" /><path
         id="path22"
         style="fill:#ffffff;fill-opacity:1;fill-rule:nonzero;stroke:none"
         d="m 191.508,635.117 8.859,7.707 -29.269,33.656 v 0 c -3.532,4.067 -5.543,7.813 -6.231,11.165 -0.683,3.382 0.328,6.117 2.813,8.273 4.101,3.566 9.105,1.914 15.011,-4.855 v 0 l 31.497,-36.25 8.859,7.738 -29.234,33.66 v 0 c -3.563,4.062 -5.583,7.773 -6.266,11.156 -0.684,3.348 0.363,6.121 2.808,8.285 4.106,3.559 9.145,1.907 15.016,-4.859 v 0 l 31.5,-36.258 8.891,7.707 -31.321,36.035 v 0 c -5.613,6.442 -10.945,10.512 -15.839,12.059 -5.039,1.441 -9.68,0.437 -13.969,-3.273 -2.809,-2.454 -4.356,-5.293 -4.645,-8.571 -0.215,-3.383 0.184,-6.625 1.047,-9.828 -1.367,0.684 -2.808,1.336 -4.32,1.875 -1.442,0.469 -3.063,0.723 -4.645,0.863 -1.515,0.036 -3.097,-0.254 -4.679,-0.648 -1.586,-0.43 -3.133,-1.406 -4.575,-2.668 -2.734,-2.371 -4.175,-5.145 -4.496,-8.418 -0.218,-3.387 0.215,-6.77 1.618,-10.301 v 0 l -0.176,-0.144 v 0 c -0.289,0.328 -0.867,0.972 -1.59,1.84 -0.754,0.687 -1.473,1.511 -2.231,2.375 -0.863,0.792 -1.582,1.621 -2.265,2.375 -0.723,0.683 -1.266,1.332 -1.547,1.66 v 0 l -8.785,-7.637 v 0 c 1.367,-1.402 2.875,-2.988 4.465,-4.606 1.582,-1.621 3.168,-3.457 4.929,-5.472 v 0 l 38.77,-44.641 v 0" /><path
         id="path24"
         style="fill:#ffffff;fill-opacity:1;fill-rule:nonzero;stroke:none"
         d="m 255.016,685.84 10.007,6.125 -38.089,62.168 -10.004,-6.121 38.086,-62.172" /><path
         id="path26"
         style="fill:#ffffff;fill-opacity:1;fill-rule:nonzero;stroke:none"
         d="m 208.969,760.289 10.621,6.52 -8.242,13.461 -10.621,-6.52 8.242,-13.461" /><path
         id="path28"
         style="fill:#ffffff;fill-opacity:1;fill-rule:nonzero;stroke:none"
         d="m 298.105,710.715 -5.039,9.867 v 0 c -0.503,-0.719 -1.007,-1.48 -1.695,-2.125 -0.609,-0.789 -1.433,-1.367 -2.586,-1.941 -1.875,-0.938 -3.566,-0.864 -5.187,0.066 -1.621,0.906 -3.243,3.137 -5.039,6.699 v 0 l -18.289,35.969 10.476,5.32 -5.144,10.157 -10.481,-5.332 -8.75,17.246 -8.492,-9.254 6.769,-13.317 -8.281,-4.175 5.145,-10.153 8.281,4.176 19.621,-38.629 v 0 c 3.168,-6.226 6.52,-10.082 10.117,-11.449 3.672,-1.512 7.524,-1.074 11.774,1.082 1.508,0.754 2.949,1.656 4.066,2.695 1.043,1.121 2.086,2.129 2.734,3.098 v 0" /><path
         id="path30"
         style="fill:#ffffff;fill-opacity:1;fill-rule:nonzero;stroke:none"
         d="m 302.137,745.93 31.211,11.082 -1.653,4.679 v 0 c -2.125,6.047 -4.504,10.946 -7.023,15.012 -2.52,4.07 -5.18,7.203 -8.027,9.363 -2.774,2.196 -5.723,3.383 -8.637,3.852 -3.028,0.465 -6.051,0.141 -9.039,-0.938 -3.383,-1.187 -6.192,-3.097 -8.281,-5.796 -2.086,-2.735 -3.524,-6.082 -4.282,-9.825 -0.648,-3.855 -0.832,-8.14 -0.179,-12.89 0.574,-4.754 1.761,-9.793 3.636,-15.008 1.762,-4.934 3.922,-9.473 6.446,-13.395 2.48,-3.961 5.144,-7.054 8.242,-9.433 3.023,-2.414 6.336,-3.922 9.937,-4.606 3.633,-0.761 7.414,-0.359 11.375,1.075 3.383,1.191 6.332,2.707 8.672,4.503 2.344,1.907 4.141,3.637 5.621,5.184 v 0 l -4.718,11.484 v 0 c -0.903,-1.726 -2.305,-3.562 -4.032,-5.546 -1.761,-1.942 -4.215,-3.598 -7.418,-4.715 -5.113,-1.836 -9.32,-1.367 -12.851,1.476 -3.457,2.664 -6.512,7.453 -9,14.442 v 0" /><path
         id="path32"
         style="fill:#ffffff;fill-opacity:1;fill-rule:nonzero;stroke:none"
         d="m 467.633,766.125 32.683,-5.332 0.793,4.898 v 0 c 1.043,6.332 1.332,11.77 1.082,16.555 -0.218,4.758 -1.082,8.824 -2.484,12.063 -1.441,3.281 -3.422,5.722 -5.762,7.527 -2.445,1.867 -5.218,3.059 -8.351,3.562 -3.563,0.575 -6.946,0.254 -10.043,-1.121 -3.168,-1.367 -6.051,-3.632 -8.496,-6.547 -2.45,-3.023 -4.645,-6.734 -6.371,-11.195 -1.762,-4.43 -3.168,-9.433 -4.036,-14.902 -0.863,-5.188 -1.078,-10.192 -0.828,-14.836 0.254,-4.676 1.118,-8.676 2.739,-12.242 1.441,-3.563 3.597,-6.516 6.445,-8.817 2.809,-2.445 6.367,-3.89 10.473,-4.574 3.566,-0.578 6.843,-0.684 9.832,-0.215 2.914,0.574 5.324,1.192 7.343,1.836 v 0 l 1.473,12.313 v 0 c -1.656,-1.043 -3.777,-1.981 -6.191,-2.879 -2.555,-0.864 -5.473,-1.114 -8.817,-0.578 -5.367,0.863 -8.824,3.277 -10.554,7.492 -1.762,3.992 -2.122,9.683 -0.93,16.992 v 0" /><path
         id="path34"
         style="fill:#ffffff;fill-opacity:1;fill-rule:nonzero;stroke:none"
         d="m 502.48,727.023 11.196,-3.671 13.429,41.078 v 0 c 1.762,5.398 4.028,9.429 6.875,11.949 2.735,2.559 5.793,3.172 9.321,2.019 2.918,-0.937 4.574,-2.812 5.183,-5.691 0.469,-2.879 -0.179,-7.016 -1.941,-12.418 v 0 l -14.078,-43.055 11.125,-3.671 15.156,46.332 v 0 c 2.41,7.304 3.027,13.535 1.875,18.679 -1.191,5.153 -4.535,8.684 -10.117,10.52 -3.203,1.039 -6.34,1.004 -9.469,-0.223 -3.097,-1.223 -5.976,-3.422 -8.605,-6.625 v 0 l -0.18,0.074 v 0 c 0.109,0.434 0.395,1.227 0.684,2.164 0.214,1.004 0.578,2.051 0.832,3.164 0.246,1.153 0.609,2.196 0.898,3.168 0.18,0.973 0.43,1.801 0.574,2.196 v 0 l -10.511,3.426 v 0 c -0.543,-2.059 -1.153,-4.219 -1.762,-6.446 -0.652,-2.344 -1.406,-4.609 -2.164,-6.914 v 0 L 502.48,727.023 v 0" /><path
         id="path36"
         style="fill:#ffffff;fill-opacity:1;fill-rule:nonzero;stroke:none"
         d="m 575.777,734.043 29.375,-15.262 2.305,4.426 v 0 c 2.949,5.691 4.93,10.731 6.191,15.379 1.258,4.605 1.727,8.711 1.399,12.234 -0.356,3.567 -1.473,6.516 -3.129,8.965 -1.762,2.52 -4.031,4.539 -6.805,5.977 -3.238,1.656 -6.55,2.414 -9.898,2.051 -3.457,-0.286 -6.914,-1.547 -10.117,-3.563 -3.278,-2.125 -6.512,-4.934 -9.575,-8.645 -3.062,-3.671 -5.945,-7.988 -8.496,-12.886 -2.414,-4.68 -4.175,-9.36 -5.367,-13.86 -1.222,-4.496 -1.691,-8.566 -1.262,-12.492 0.29,-3.816 1.407,-7.269 3.387,-10.367 1.906,-3.207 4.824,-5.687 8.535,-7.594 3.203,-1.656 6.297,-2.769 9.25,-3.277 2.95,-0.395 5.438,-0.539 7.594,-0.539 v 0 l 5.219,11.23 v 0 c -1.903,-0.468 -4.172,-0.722 -6.801,-0.828 -2.699,0 -5.547,0.649 -8.531,2.196 -4.824,2.484 -7.383,5.91 -7.703,10.406 -0.434,4.355 1.004,9.863 4.429,16.449 v 0" /><path
         id="path38"
         style="fill:#ffffff;fill-opacity:1;fill-rule:nonzero;stroke:none"
         d="m 596.441,685.66 9.536,-6.875 22.933,31.789 v 0 c 2.16,3.02 4.25,5.364 6.406,7.16 2.125,1.77 4.106,2.957 6.012,3.672 1.836,0.617 3.676,0.871 5.367,0.723 1.621,-0.289 3.059,-0.789 4.426,-1.797 0.578,-0.398 1.113,-0.797 1.477,-1.23 0.363,-0.469 0.828,-0.965 1.226,-1.434 v 0 l 8.313,11.551 v 0 c -0.18,0.148 -0.36,0.254 -0.36,0.437 -0.109,0.071 -0.289,0.18 -0.468,0.356 -1.731,1.226 -3.493,2.129 -5.254,2.519 -1.801,0.434 -3.492,0.434 -5.254,0.114 -1.731,-0.29 -3.496,-0.797 -5.113,-1.551 -1.661,-0.758 -3.317,-1.66 -4.864,-2.84 v 0 l -0.179,0.141 v 0 c 0.328,0.464 0.828,1.148 1.511,2.085 0.578,0.977 1.336,2.02 1.985,3.094 0.644,1.153 1.293,2.051 1.976,2.989 0.543,0.976 1.047,1.66 1.406,2.128 v 0 l -8.785,6.336 v 0 c -1.152,-1.765 -2.41,-3.672 -3.672,-5.617 -1.296,-2.015 -2.699,-4 -4.105,-5.941 v 0 l -34.52,-47.809 v 0" /><path
         id="path40"
         style="fill:#ffffff;fill-opacity:1;fill-rule:nonzero;stroke:none"
         d="m 644.246,646.637 7.774,-7.203 v 0 c 0.793,1.011 1.875,2.492 3.277,4.14 1.367,1.66 2.808,3.391 4.465,5.153 v 0 l 23.652,25.562 v 0 c 3.313,3.563 5.727,6.695 7.274,9.535 1.546,2.848 2.375,5.543 2.734,8.102 0.363,2.23 0.035,4.824 -0.899,7.812 -1.043,2.914 -3.093,5.828 -6.335,8.817 -2.735,2.519 -5.543,4.32 -8.391,5.402 -2.84,1.117 -5.613,1.906 -8.242,2.234 v 0 l -7.957,-9.902 v 0 c 2.343,0.363 5.078,0.149 8.207,-0.613 2.953,-0.793 5.621,-2.266 8.031,-4.5 3.059,-2.844 4.242,-5.903 3.633,-9.211 -0.321,-1.621 -0.864,-3.242 -1.797,-4.719 -0.977,-1.586 -2.27,-3.133 -3.817,-4.824 v 0 l -2.019,-2.156 -3.059,2.8 v 0 c -6.91,6.414 -13.57,9.864 -19.726,10.332 -6.227,0.364 -12.352,-2.519 -18.145,-8.742 -2.34,-2.527 -3.996,-5.047 -5.183,-7.633 -1.192,-2.593 -1.692,-5.003 -1.766,-7.418 -0.18,-2.378 0.254,-4.535 1.152,-6.554 0.864,-2.051 2.125,-3.813 3.887,-5.434 3.168,-2.949 6.371,-4.461 9.828,-4.535 3.278,-0.113 6.481,0.395 9.508,1.473 v 0 l 0.18,-0.18 v 0 c -0.289,-0.32 -0.758,-0.828 -1.371,-1.621 -0.684,-0.75 -1.368,-1.473 -1.946,-2.266 -0.609,-0.828 -1.293,-1.547 -1.761,-2.23 -0.61,-0.824 -1.004,-1.227 -1.188,-1.621 v 0" /><path
         id="path42"
         style="fill:#ffffff;fill-opacity:1;fill-rule:nonzero;stroke:none"
         d="m 657.816,631.914 7.633,-9.004 81.289,68.945 -7.597,8.997 -81.325,-68.938" /><path
         id="path44"
         style="fill:#ffffff;fill-opacity:1;fill-rule:nonzero;stroke:none"
         d="m 704.438,625.215 18.539,-27.391 4.101,2.774 v 0 c 5.332,3.593 9.508,7.09 12.785,10.547 3.309,3.457 5.688,6.835 7.09,10.117 1.367,3.269 1.836,6.406 1.512,9.355 -0.32,3.059 -1.367,5.906 -3.129,8.496 -2.055,3.028 -4.609,5.254 -7.672,6.551 -3.203,1.367 -6.84,1.91 -10.617,1.656 -3.887,-0.289 -8.102,-1.187 -12.531,-2.984 -4.461,-1.805 -9.032,-4.219 -13.641,-7.313 -4.355,-2.949 -8.137,-6.191 -11.34,-9.57 -3.207,-3.39 -5.547,-6.769 -7.055,-10.371 -1.585,-3.527 -2.238,-7.09 -1.984,-10.762 0.184,-3.711 1.551,-7.277 3.887,-10.769 2.019,-2.953 4.215,-5.434 6.594,-7.27 2.41,-1.765 4.496,-3.062 6.371,-4.101 v 0 l 9.972,7.375 v 0 c -1.91,0.508 -4.035,1.371 -6.375,2.523 -2.375,1.258 -4.574,3.238 -6.445,6.012 -3.02,4.5 -3.672,8.711 -1.836,12.816 1.731,4.028 5.617,8.168 11.774,12.309 v 0" /><path
         id="path46"
         style="fill:#ffffff;fill-opacity:1;fill-rule:nonzero;stroke:none"
         d="m 429.793,730.66 c -1.152,-2.015 -2.699,-3.597 -4.715,-4.898 -2.015,-1.188 -4.57,-1.758 -7.633,-1.797 -3.168,-0.07 -6.191,0.578 -9.254,1.836 -3.093,1.367 -5.468,2.773 -7.304,4.14 v 0 l -0.434,-13.789 v 0 c 1.91,-0.972 4.645,-1.941 8.027,-2.879 3.422,-0.937 6.915,-1.437 10.372,-1.406 8.566,0.145 14.937,3.242 19.078,9.11 3.691,5.171 5.351,12.316 5.687,21.418 v 0 l -0.937,54.793 v 0 c -0.035,2.16 0.039,4.14 0.109,6.265 0.07,2.125 0.07,4.141 0.145,6.117 v 0 l -10.801,-0.175 v 0 c 0,-0.434 0,-1.297 0.039,-2.27 -0.113,-1.012 -0.074,-2.125 -0.18,-3.277 -0.074,-1.153 -0.074,-2.125 -0.074,-3.133 -0.105,-1.008 -0.105,-1.836 -0.105,-2.266 v 0 h -0.329 v 0 c -1.507,3.242 -3.453,6.082 -5.832,8.461 -2.375,2.231 -5.363,3.309 -8.964,3.278 -3.489,-0.075 -6.586,-0.977 -9.141,-2.844 -2.59,-1.914 -4.824,-4.36 -6.445,-7.672 -1.622,-3.234 -2.914,-7.27 -3.637,-11.809 -0.824,-4.746 -1.188,-9.863 -1.113,-15.547 0.109,-6.808 0.753,-12.496 2.086,-17.14 1.191,-4.715 2.699,-8.496 4.644,-11.305 1.981,-2.953 4.106,-4.93 6.516,-6.156 2.414,-1.258 4.894,-1.871 7.343,-1.836 3.961,0.039 7.059,1.191 9.395,3.641 2.305,2.335 4.176,5.179 5.617,8.742 v 0 h 0.219 l 0.156,-8.907 v 0 c -0.543,-2.695 -1.422,-6.71 -2.535,-8.695 v 0" /><path
         id="path48"
         style="fill:#ffffff;fill-opacity:1;fill-rule:nonzero;stroke:none"
         d="M 505.289,696.57 C 654.508,652.648 740.367,496.555 697.523,347.012 650.184,181.84 467.813,96.4844 310.633,166.145 c -67.465,29.882 -117.11,80.316 -145.981,148.285 -28.797,68.043 -30.527,138.777 -5.113,208.082 25.457,69.336 72.539,122.148 138.492,155.371 65.953,33.191 136.442,39.57 207.258,18.687 v 0" /><path
         id="path50"
         style="fill:#918f90;fill-opacity:1;fill-rule:nonzero;stroke:none"
         d="m 298.789,755.43 c -2.16,6.34 -2.914,11.66 -2.375,15.734 0.613,3.992 2.594,6.66 5.758,7.774 6.594,2.343 12.242,-3.024 16.957,-16.27 v 0 l -20.34,-7.238 v 0" /><path
         id="path52"
         style="fill:#918f90;fill-opacity:1;fill-rule:nonzero;stroke:none"
         d="m 469.254,776.055 c 1.184,6.593 3.055,11.633 5.539,14.941 2.449,3.203 5.437,4.57 8.785,4.035 6.91,-1.113 9.254,-8.535 6.985,-22.433 v 0 l -21.309,3.457 v 0" /><path
         id="path54"
         style="fill:#918f90;fill-opacity:1;fill-rule:nonzero;stroke:none"
         d="m 580.418,743.008 c 3.203,5.871 6.516,10.078 9.898,12.457 3.352,2.269 6.586,2.633 9.614,1.078 6.226,-3.242 6.121,-11.016 -0.36,-23.504 v 0 l -19.152,9.969 v 0" /><path
         id="path56"
         style="fill:#918f90;fill-opacity:1;fill-rule:nonzero;stroke:none"
         d="m 667.68,673.605 -4.461,-4.824 v 0 c -3.961,-4.289 -7.883,-7.023 -11.809,-8.25 -4.066,-1.258 -7.558,-0.539 -10.652,2.305 -2.238,2.051 -3.102,4.465 -2.848,7.098 0.289,2.625 1.762,5.359 4.176,7.988 3.273,3.523 6.766,5.144 10.656,4.824 3.887,-0.324 7.883,-2.48 12.098,-6.375 0.5,-0.465 1.004,-0.93 1.582,-1.473 0.574,-0.543 1.082,-1.011 1.258,-1.293 v 0" /><path
         id="path58"
         style="fill:#918f90;fill-opacity:1;fill-rule:nonzero;stroke:none"
         d="m 712.789,630.871 c 5.617,3.672 10.512,5.762 14.617,6.258 4.067,0.363 7.09,-0.824 9,-3.633 3.926,-5.797 0.106,-12.598 -11.519,-20.484 v 0 l -12.098,17.859 v 0" /><path
         id="path60"
         style="fill:#918f90;fill-opacity:1;fill-rule:nonzero;stroke:none"
         d="m 411.469,753.34 c -1.942,4.14 -3.063,10.621 -3.203,19.586 -0.106,8.39 0.683,14.687 2.414,19.078 1.621,4.32 4.5,6.484 8.566,6.699 3.817,0.067 6.805,-2.015 8.965,-6.265 2.086,-4.215 3.203,-10.622 3.348,-19.008 v 0 0 0 c 0.144,-8.821 -0.829,-15.332 -2.664,-19.66 -1.801,-4.422 -4.895,-6.582 -9.29,-6.661 -3.386,-0.066 -6.121,2.024 -8.136,6.231 v 0" /><path
         id="path62"
         style="fill:#231f20;fill-opacity:1;fill-rule:nonzero;stroke:none"
         d="M 399.223,564.27 H 266.605 V 417.969 l 39.016,-9.278 v 0 c 0.274,0.86 0.715,2.188 1.059,3.047 0.55,1.301 1.304,2.598 2.054,3.766 2.571,3.73 5.852,6.91 9.684,9.273 4.93,3.012 10.574,4.657 16.363,4.618 6.703,-0.028 13.242,-2.254 18.309,-6.532 4.551,-3.84 7.871,-9.722 10.129,-15.164 1.883,-4.515 3.386,-9.203 4.379,-14.066 1.269,-5.813 1.918,-11.805 1.918,-17.86 0.07,-5.582 -0.446,-11.226 -1.508,-16.699 -0.992,-5.511 -2.633,-11.027 -5.133,-16.015 -2.535,-5.036 -5.992,-9.688 -10.539,-13.043 -5.066,-3.731 -11.16,-5.786 -17.453,-5.953 -6.195,-0.106 -12.285,1.675 -17.492,5.097 -4.825,3.184 -8.657,7.559 -11.02,12.797 -0.648,1.402 -1.402,3.527 -1.914,4.969 v 0 l -37.852,-10.988 v 0 c 0.309,-1.508 0.719,-3.661 1.094,-5.137 1.27,-4.551 3.731,-9.203 6.301,-13.172 4.141,-6.402 9.133,-12.422 14.953,-17.316 6.09,-5.102 13.141,-8.969 20.535,-11.739 8.723,-3.289 18,-5.035 27.239,-4.726 7.871,0.238 15.675,2.023 22.964,4.894 7.395,2.84 14.34,6.778 20.403,11.875 6.496,5.446 11.875,12.012 16.047,19.375 4.484,7.969 7.668,17.211 9.922,26.074 2.468,9.715 4.14,19.95 4.246,29.981 0.101,9.34 -1.266,19.16 -3.18,28.367 -1.918,9.141 -4.793,18.926 -9.106,27.207 -4.074,7.906 -9.582,14.957 -16.222,20.84 -6.606,5.891 -14.238,10.477 -22.52,13.59 -7.972,3.012 -16.492,4.586 -25.047,4.586 -8.117,0 -16.261,-1.407 -23.789,-4.621 -0.855,-0.411 -2.257,-1.024 -3.109,-1.434 v 0 61.941 h 91.887 v 37.747 0" /><path
         id="path64"
         style="fill:#231f20;fill-opacity:1;fill-rule:nonzero;stroke:none"
         d="m 174.734,293.477 c 2.301,-4.395 4.68,-8.711 7.164,-12.926 v 0 L 303.289,401.945 287.09,405.832 174.734,293.477 v 0" /><path
         id="path66"
         style="fill:#231f20;fill-opacity:1;fill-rule:nonzero;stroke:none"
         d="m 187.984,270.617 c 2.59,-4.07 5.325,-8.066 8.102,-11.988 v 0 l 66.164,66.168 v 0 c -0.574,1.406 -1.012,2.812 -1.367,4.141 -0.254,0.898 -0.574,2.378 -0.973,4.394 -0.105,0.574 -0.219,0.965 -0.254,1.188 v 0 l -1.293,6.41 28.188,8.168 65.051,65.054 v 0 c -0.973,1.293 -2.016,2.371 -3.098,3.309 -2.699,2.266 -5.793,3.742 -9.25,4.426 v 0 l -151.27,-151.27 v 0" /><path
         id="path68"
         style="fill:#231f20;fill-opacity:1;fill-rule:nonzero;stroke:none"
         d="m 361.465,387.906 c -0.25,1.442 -0.504,2.848 -0.793,4.25 -0.824,3.918 -1.977,7.778 -3.488,11.555 v 0 l -48.243,-48.242 2.196,-6.156 v 0 c 0.758,-2.125 1.332,-3.598 1.695,-4.43 0.574,-1.258 1.258,-2.445 2.016,-3.598 v 0 l 46.617,46.621 v 0" /><path
         id="path70"
         style="fill:#231f20;fill-opacity:1;fill-rule:nonzero;stroke:none"
         d="m 342.098,332.461 15.086,15.09 v 0 c 1.652,3.672 2.953,7.918 3.851,12.812 0.789,4.141 1.227,8.321 1.367,12.496 v 0 l -39.023,-39.027 v 0 c 3.383,-1.801 7.019,-2.699 10.836,-2.699 0.18,0 0.359,0 0.5,0 2.594,0.07 5.047,0.504 7.383,1.328 v 0" /><path
         id="path72"
         style="fill:#231f20;fill-opacity:1;fill-rule:nonzero;stroke:none"
         d="m 238.055,212.402 c 3.566,-3.129 7.238,-6.152 10.984,-9.105 v 0 l 74.305,74.301 v 0 c -5.293,0.832 -10.621,2.199 -15.914,4.179 v 0 l -69.375,-69.375 v 0" /><path
         id="path74"
         style="fill:#231f20;fill-opacity:1;fill-rule:nonzero;stroke:none"
         d="m 258.184,196.422 c 3.921,-2.774 7.879,-5.508 11.953,-8.141 v 0 l 95.039,95.043 v 0 c -0.973,-0.394 -1.946,-0.793 -2.914,-1.183 -7.961,-3.098 -15.84,-4.864 -23.653,-5.293 v 0 l -80.425,-80.426 v 0" /><path
         id="path76"
         style="fill:#231f20;fill-opacity:1;fill-rule:nonzero;stroke:none"
         d="m 509.535,567.238 c -5.234,0 -10.808,-1.168 -15.844,-2.57 -12.933,-3.629 -24.023,-12.527 -32.066,-23.305 -6.777,-9.039 -11.602,-20.054 -14.957,-30.765 -3.184,-10.032 -5.539,-20.91 -7.355,-31.211 -2.02,-11.739 -3.594,-24.059 -4.075,-35.969 -0.511,-11.637 0.035,-24.609 0.856,-36.172 0.859,-11.738 2.054,-24.226 3.902,-35.867 2.121,-13.348 5.34,-26.797 10.027,-39.426 4.895,-13.242 12.594,-27.82 23.684,-36.547 10.266,-8.109 23.203,-12.082 36.242,-11.566 13.86,0.441 27.039,5.918 37.199,15.297 9.106,8.351 15.707,20.84 20.262,32.371 5.031,12.801 8.555,26.523 11.016,40.074 2.16,11.848 3.629,23.75 4.488,35.801 0.856,12.832 0.992,25.734 0.582,38.566 -0.375,11.121 -1.234,22.551 -2.875,33.539 -1.609,10.711 -3.973,21.391 -7.394,31.657 -3.524,10.679 -8.485,21.453 -15.297,30.425 -7.805,10.266 -18.379,19.028 -30.766,22.758 -5.644,1.707 -11.738,2.91 -17.629,2.91 v 0" /><path
         id="path78"
         style="fill:#231f20;fill-opacity:1;fill-rule:nonzero;stroke:none"
         d="m 202.961,249.484 c 2.914,-3.742 5.934,-7.414 9.07,-11.015 v 0 l 64.297,64.297 v 0 c -2.922,3.308 -5.687,6.98 -8.281,11.015 -0.109,0.145 -0.215,0.321 -0.324,0.469 v 0 l -64.762,-64.766 v 0" /><path
         id="path80"
         style="fill:#231f20;fill-opacity:1;fill-rule:nonzero;stroke:none"
         d="m 219.629,230.117 c 3.269,-3.457 6.621,-6.804 10.043,-10.078 v 0 l 66.703,66.711 v 0 c -4.355,2.371 -8.348,5.074 -11.984,8.133 v 0 l -64.762,-64.766 v 0" /><path
         id="path82"
         style="fill:#231f20;fill-opacity:1;fill-rule:nonzero;stroke:none"
         d="m 280.035,182.199 c 4.246,-2.48 8.528,-4.855 12.926,-7.16 v 0 L 444.48,326.598 v 0 c -0.359,0.933 -0.753,1.91 -1.117,2.882 -1.433,3.918 -2.769,7.918 -3.992,12.055 v 0 L 280.035,182.199 v 0" /><path
         id="path84"
         style="fill:#231f20;fill-opacity:1;fill-rule:nonzero;stroke:none"
         d="m 570.086,668.781 c -4.211,2.481 -8.496,4.891 -12.852,7.196 v 0 L 406.324,525.066 v -5.617 h -5.617 l -44.82,-44.82 v 0 c 1.98,-0.574 3.961,-1.223 5.906,-1.941 2.914,-1.118 5.723,-2.344 8.457,-3.747 v 0 l 199.836,199.84 v 0" /><path
         id="path86"
         style="fill:#231f20;fill-opacity:1;fill-rule:nonzero;stroke:none"
         d="m 591.863,654.449 c -3.886,2.809 -7.843,5.543 -11.879,8.168 v 0 l -92.519,-92.519 v 0 c 1.441,0.543 2.848,0.976 4.32,1.406 6.735,1.875 12.637,2.809 17.75,2.809 0.719,0 1.442,0 2.16,-0.036 v 0 l 80.168,80.172 v 0" /><path
         id="path88"
         style="fill:#231f20;fill-opacity:1;fill-rule:nonzero;stroke:none"
         d="m 611.953,638.395 c -3.566,3.128 -7.238,6.191 -10.941,9.144 v 0 L 525.59,572.121 v 0 c 1.187,-0.293 2.414,-0.656 3.637,-1.012 3.742,-1.152 7.378,-2.625 10.91,-4.535 v 0 l 71.816,71.821 v 0" /><path
         id="path90"
         style="fill:#231f20;fill-opacity:1;fill-rule:nonzero;stroke:none"
         d="m 675.672,557.754 c -2.305,4.355 -4.715,8.641 -7.234,12.851 v 0 l -82.153,-82.152 v 0 c 0.508,-2.594 0.938,-5.219 1.332,-7.922 0.469,-3.093 0.903,-6.261 1.258,-9.574 v 0 l 86.797,86.797 v 0" /><path
         id="path92"
         style="fill:#231f20;fill-opacity:1;fill-rule:nonzero;stroke:none"
         d="m 662.281,580.469 c -2.629,3.996 -5.363,7.961 -8.211,11.847 v 0 l -75.343,-75.351 v 0 c 0.394,-1.188 0.828,-2.375 1.222,-3.602 1.262,-3.812 2.414,-7.738 3.457,-11.769 v 0 l 78.875,78.875 v 0" /><path
         id="path94"
         style="fill:#231f20;fill-opacity:1;fill-rule:nonzero;stroke:none"
         d="m 647.129,601.422 c -2.918,3.707 -5.977,7.379 -9.113,10.941 v 0 l -71.172,-71.172 v 0 c 2.629,-3.925 5.008,-8.207 7.203,-12.89 v 0 l 73.082,73.121 v 0" /><path
         id="path96"
         style="fill:#231f20;fill-opacity:1;fill-rule:nonzero;stroke:none"
         d="m 630.352,620.754 c -3.278,3.418 -6.586,6.766 -10.043,10.008 v 0 l -70.563,-70.563 v 0 c 3.563,-2.844 6.981,-6.117 10.192,-9.863 v 0 l 70.414,70.418 v 0" /><path
         id="path98"
         style="fill:#231f20;fill-opacity:1;fill-rule:nonzero;stroke:none"
         d="m 436.02,498.57 c 1.191,5.004 2.484,9.723 3.89,14.145 1.801,5.723 3.817,11.015 6.086,15.914 v 0 l -65.812,-65.805 v 0 c 2.199,-1.554 4.289,-3.242 6.339,-5.078 1.508,-1.367 3.024,-2.773 4.43,-4.25 v 0 l 45.067,45.074 v 0" /><path
         id="path100"
         style="fill:#231f20;fill-opacity:1;fill-rule:nonzero;stroke:none"
         d="m 428.93,455.406 c 0.683,7.344 1.691,15.043 3.023,23.078 v 0 l -33.695,-33.699 v 0 c 2.23,-3.133 4.246,-6.445 6.047,-9.902 0.468,-0.899 0.937,-1.797 1.367,-2.774 v 0 l 23.258,23.297 v 0" /><path
         id="path102"
         style="fill:#231f20;fill-opacity:1;fill-rule:nonzero;stroke:none"
         d="m 428.32,418.723 c -0.254,5.293 -0.359,10.332 -0.359,15.082 0,1.586 0,3.129 0.031,4.644 v 0 l -17.816,-17.824 v 0 c 1.472,-4.531 2.769,-9.461 3.887,-14.754 0.074,-0.402 0.179,-0.793 0.253,-1.191 v 0 l 14.004,14.043 v 0" /><path
         id="path104"
         style="fill:#231f20;fill-opacity:1;fill-rule:nonzero;stroke:none"
         d="m 416.547,390.895 c 0.578,-4.899 0.863,-9.54 0.863,-13.899 0,-0.324 0,-0.68 0,-1.043 -0.039,-1.441 -0.07,-2.914 -0.144,-4.43 v 0 l 13.714,13.715 v 0 c -0.644,5.731 -1.218,11.848 -1.726,18.367 v 0 l -12.707,-12.71 v 0" /><path
         id="path106"
         style="fill:#231f20;fill-opacity:1;fill-rule:nonzero;stroke:none"
         d="m 432.855,371.094 -17.929,-17.93 v 0 c -0.574,-2.879 -1.227,-5.828 -1.981,-8.855 -1.906,-7.379 -4.101,-14.004 -6.695,-19.907 v 0 l 29.844,29.848 v 0 c -1.188,5.145 -2.231,10.508 -3.098,16.016 -0.031,0.285 -0.07,0.574 -0.141,0.828 v 0" /><path
         id="path108"
         style="fill:#ffffff;fill-opacity:1;fill-rule:nonzero;stroke:none"
         d="m 509.793,526.465 c 3.184,0.109 6.301,-0.574 9.074,-2.086 2.735,-1.438 4.926,-4.004 6.602,-6.496 2.703,-4.25 4.625,-10.235 5.886,-15.129 2.161,-8.281 3.836,-16.805 5.133,-25.328 1.305,-8.762 2.262,-17.66 2.875,-26.52 0.582,-9.105 0.957,-18.211 0.891,-27.343 -0.035,-10.27 -0.481,-20.571 -1.402,-30.872 -0.887,-10.296 -2.364,-21.043 -4.586,-31.109 -1.543,-6.98 -3.625,-14.102 -6.332,-20.738 -1.403,-3.422 -3.219,-7.051 -5.407,-10.063 -1.437,-2.015 -3.25,-3.965 -5.375,-5.406 -2.254,-1.437 -4.925,-2.355 -7.699,-2.492 -3.219,-0.207 -6.535,0.547 -9.203,2.426 -1.922,1.304 -3.699,3.457 -4.996,5.406 -2.055,3.148 -3.832,6.57 -5.274,10.098 -2.738,6.464 -4.585,13.925 -5.917,20.839 -1.782,9.825 -3.012,21.629 -3.801,31.551 -0.754,9.789 -1.473,21.121 -1.473,30.871 0,9.004 0.547,18.172 1.473,27.172 0.89,8.93 2.187,17.902 3.765,26.762 1.403,8.043 3.18,16.496 5.336,24.367 1.403,5.137 3.563,11.258 6.539,15.605 1.711,2.465 3.938,4.93 6.602,6.333 2.226,1.16 4.726,2.015 7.289,2.152 v 0" /><path
         id="path110"
         style="fill:#231f20;fill-opacity:1;fill-rule:nonzero;stroke:none"
         d="m 489.629,371.738 43.414,43.379 v 0 c 0.07,2.813 0.105,5.621 0.145,8.469 0,0.57 0,1.148 0,1.723 0,3.238 -0.075,6.519 -0.145,9.898 v 0 l -45.398,-45.391 v 0 c 0.578,-6.625 1.226,-12.636 1.984,-18.078 v 0" /><path
         id="path112"
         style="fill:#231f20;fill-opacity:1;fill-rule:nonzero;stroke:none"
         d="m 508.738,519.199 -9.211,-9.219 v 0 c -1.187,-2.593 -2.304,-5.722 -3.312,-9.468 -1.512,-5.434 -2.879,-11.449 -4.18,-18.071 v 0 l 28.945,28.907 v 0 c -0.468,1.047 -0.972,1.91 -1.441,2.668 -1.328,2.011 -2.66,3.382 -4.027,4.101 -1.547,0.863 -3.242,1.297 -4.969,1.297 -0.145,0 -0.289,-0.039 -0.469,-0.039 -0.398,0 -0.863,-0.066 -1.336,-0.176 v 0" /><path
         id="path114"
         style="fill:#231f20;fill-opacity:1;fill-rule:nonzero;stroke:none"
         d="m 524.941,499.289 -36.109,-36.105 v 0 c -0.609,-4.325 -1.113,-8.536 -1.508,-12.637 -0.363,-3.348 -0.613,-6.625 -0.832,-9.793 v 0 l 41.942,41.976 v 0 c -0.973,5.688 -2.161,11.196 -3.493,16.559 v 0" /><path
         id="path116"
         style="fill:#231f20;fill-opacity:1;fill-rule:nonzero;stroke:none"
         d="m 530.523,468.762 -44.64,-44.641 v 0 c 0,-0.039 0,-0.039 0,-0.039 0,-5.398 0.215,-11.84 0.683,-19.363 v 0 l 45.719,45.75 v 0 c -0.394,6.086 -0.972,12.207 -1.762,18.293 v 0" /></g></g></svg>