<?xml version="1.0" encoding="UTF-8" standalone="no"?>
<svg
   xmlns:dc="http://purl.org/dc/elements/1.1/"
   xmlns:cc="http://creativecommons.org/ns#"
   xmlns:rdf="http://www.w3.org/1999/02/22-rdf-syntax-ns#"
   xmlns:svg="http://www.w3.org/2000/svg"
   xmlns="http://www.w3.org/2000/svg"
   viewBox="0 0 113.76 113.76"
   height="113.76"
   width="113.76"
   xml:space="preserve"
   id="svg2"
   version="1.1"><metadata
     id="metadata8"><rdf:RDF><cc:Work
         rdf:about=""><dc:format>image/svg+xml</dc:format><dc:type
           rdf:resource="http://purl.org/dc/dcmitype/StillImage" /></cc:Work></rdf:RDF></metadata><defs
     id="defs6" /><g
     transform="matrix(1.3333333,0,0,-1.3333333,0,113.76)"
     id="g10"><g
       transform="scale(0.1)"
       id="g12"><path
         id="path14"
         style="fill:#ffffff;fill-opacity:1;fill-rule:nonzero;stroke:none"
         d="m 426.617,851.809 c 234.789,0 425.192,-190.407 425.192,-425.2 C 851.809,191.816 661.406,1.41797 426.617,1.41797 191.82,1.41797 1.41797,191.816 1.41797,426.609 c 0,234.793 190.40203,425.2 425.19903,425.2 v 0" /><path
         id="path16"
         style="fill:none;stroke:#231f20;stroke-width:2.83500004;stroke-linecap:butt;stroke-linejoin:round;stroke-miterlimit:4;stroke-dasharray:none;stroke-opacity:1"
         d="m 426.617,851.809 c 234.789,0 425.192,-190.407 425.192,-425.2 C 851.809,191.816 661.406,1.41797 426.617,1.41797 191.82,1.41797 1.41797,191.816 1.41797,426.609 c 0,234.793 190.40203,425.2 425.19903,425.2 v 0" /><path
         id="path18"
         style="fill:#ee2c30;fill-opacity:1;fill-rule:nonzero;stroke:none"
         d="m 162.445,111.719 579.059,579.062 v 0 c -15.223,18.141 -31.961,34.918 -50.078,50.18 v 0 L 112.262,161.758 v 0 c 15.261,-18.067 32.039,-34.813 50.183,-50.039 v 0" /><path
         id="path20"
         style="fill:#1a67bb;fill-opacity:1;fill-rule:nonzero;stroke:none"
         d="m 597.688,536.953 -75.247,-75.242 v 0 c -0.496,-3.781 -0.925,-7.527 -1.328,-11.266 -1.406,-13.468 -2.265,-27.183 -2.265,-40.683 0,-14.614 1.074,-31.574 2.265,-46.188 1.262,-14.863 3.137,-32.578 5.938,-47.265 2.051,-10.332 4.933,-21.454 9.179,-31.18 2.278,-5.285 5.012,-10.402 8.215,-15.078 2.051,-2.949 4.785,-6.192 7.774,-8.137 4.14,-2.812 9.285,-3.926 14.324,-3.641 4.289,0.254 8.469,1.59 11.953,3.778 3.313,2.129 6.125,5.051 8.391,8.066 3.386,4.539 6.191,9.942 8.386,15.086 4.211,9.934 7.454,20.559 9.864,31.027 3.457,15.09 5.722,31.141 7.129,46.59 1.406,15.368 2.121,30.813 2.199,46.188 0.066,13.644 -0.469,27.285 -1.406,40.93 -0.938,13.25 -2.454,26.605 -4.465,39.71 -2.051,12.747 -4.649,25.45 -7.989,37.907 -0.789,2.953 -1.765,6.191 -2.917,9.398 v 0" /><path
         id="path22"
         style="fill:#1a67bb;fill-opacity:1;fill-rule:nonzero;stroke:none"
         d="m 216.52,276.055 -15.122,9.406 -29.589,-52.707 v 0 c 0.246,-0.145 0.535,-0.32 0.863,-0.547 v 0 l -64.906,-64.902 v 0 c -24.4496,29.992 -44.2855,63 -59.5472,99.035 -21.5274,50.906 -32.2891,104.219 -32.2891,159.984 0,55.762 10.7617,109.082 32.2891,159.985 20.8046,49.14 50.1835,92.699 88.0902,130.644 37.945,37.906 81.504,67.281 130.644,88.09 50.902,21.527 104.219,32.293 159.985,32.293 55.769,0 109.078,-10.766 159.988,-32.293 35.996,-15.262 69.012,-35.102 99.031,-59.547 v 0 L 564.602,624.141 v 0 c -7.52,-0.25 -15.411,-1.871 -22.571,-3.813 -20.125,-5.402 -37.336,-18.758 -49.863,-34.883 -10.508,-13.468 -18.035,-29.992 -23.25,-46.047 -1.699,-5.078 -3.203,-10.257 -4.609,-15.55 v 0 L 358.07,417.613 v 0 c -3.851,3.778 -8.136,7.27 -12.742,10.078 -4.789,3.024 -12.422,6.407 -17.676,8.602 5.254,2.848 12.778,7.023 17.567,10.406 5.039,3.457 9.719,7.453 13.859,11.848 4.61,4.965 8.641,10.293 12.133,16.086 9.035,15.125 13.644,32.332 13.859,49.793 0.106,15.226 -3.058,30.344 -9.824,44.094 -8.43,16.925 -21.711,31.109 -38.308,40.972 -16.055,9.574 -34.594,14.723 -53.497,15.227 -15.91,0.433 -31.644,-2.414 -46.257,-8.387 -16.383,-6.73 -31.969,-17.461 -40.719,-32.473 -1.188,-2.086 -2.735,-5.254 -3.813,-7.453 v 0 l 44.637,-41.074 v 0 c 1.082,2.125 2.734,5.039 4.035,7.055 4.461,7.129 10.688,13.965 18.211,17.965 8.86,4.609 19.445,5.433 29.383,3.996 7.52,-1.188 15.043,-3.887 20.73,-8.641 7.961,-6.699 11.989,-16.703 12.676,-26.676 0.645,-9.539 -1.98,-19.008 -6.551,-27.394 -3.925,-7.274 -9.402,-13.864 -16.382,-18.723 -7.418,-5.254 -17.571,-8.496 -26.641,-10.476 -7.738,-1.797 -15.695,-3.059 -23.687,-3.708 -1.942,-0.074 -4.571,-0.289 -6.411,-0.394 v 0 l 0.114,-63.434 v 0 c 1.613,-0.324 3.918,-0.648 5.539,-0.972 7.847,-1.258 16.164,-3.563 23.797,-5.977 6.66,-2.086 14.074,-4.93 20.199,-8.207 8.168,-4.25 15.406,-9.789 21.597,-16.308 v 0 L 216.52,276.055 v 0" /><path
         id="path24"
         style="fill:#1a67bb;fill-opacity:1;fill-rule:nonzero;stroke:none"
         d="m 260.441,199.707 c 3.489,-0.144 6.981,-0.144 10.473,-0.039 18.649,0.508 36.973,4.824 53.781,12.598 16.383,7.558 30.891,18.254 42.59,31.613 9.254,10.508 16.672,22.461 21.817,35.273 6.011,14.727 9.074,30.243 9.179,46.012 0.035,3.957 -0.105,7.949 -0.468,11.914 v 0 l 54.218,54.184 v 0 c 0.11,-2.199 0.285,-4.399 0.43,-6.555 1.328,-17.566 3.203,-36.25 6.086,-53.672 3.308,-19.98 8.32,-40.066 15.586,-59.004 7.597,-19.804 19.59,-41.66 36.824,-54.726 15.957,-12.129 36.074,-18.067 56.379,-17.313 21.531,0.684 42.051,8.895 57.852,22.899 14.187,12.531 24.441,31.211 31.503,48.457 7.813,19.148 13.282,39.707 17.137,60.011 3.352,17.672 5.656,35.567 6.945,53.563 1.336,19.223 1.582,38.519 0.977,57.711 -0.656,16.664 -1.984,33.765 -4.465,50.219 -2.519,16.019 -6.191,32.003 -11.523,47.375 -5.106,14.976 -12.274,30.062 -21.817,42.949 v 0 l 102.168,102.168 v 0 c 24.446,-29.989 44.278,-63 59.543,-99.035 21.532,-50.903 32.293,-104.223 32.293,-159.985 0,-55.765 -10.761,-109.078 -32.293,-159.984 C 784.855,217.199 755.48,173.645 717.57,135.695 679.621,97.7852 636.066,68.4102 586.926,47.6094 536.016,26.0742 482.707,15.3125 426.938,15.3125 c -55.766,0 -109.083,10.7617 -159.985,32.2969 -36.035,15.2617 -69.047,35.0976 -99.031,59.5386 v 0 l 92.519,92.559 v 0" /></g></g></svg>