<?xml version="1.0" encoding="UTF-8" standalone="no"?>
<svg
   xmlns:dc="http://purl.org/dc/elements/1.1/"
   xmlns:cc="http://creativecommons.org/ns#"
   xmlns:rdf="http://www.w3.org/1999/02/22-rdf-syntax-ns#"
   xmlns:svg="http://www.w3.org/2000/svg"
   xmlns="http://www.w3.org/2000/svg"
   viewBox="0 0 113.76 113.76"
   height="113.76"
   width="113.76"
   xml:space="preserve"
   id="svg2"
   version="1.1"><metadata
     id="metadata8"><rdf:RDF><cc:Work
         rdf:about=""><dc:format>image/svg+xml</dc:format><dc:type
           rdf:resource="http://purl.org/dc/dcmitype/StillImage" /></cc:Work></rdf:RDF></metadata><defs
     id="defs6" /><g
     transform="matrix(1.3333333,0,0,-1.3333333,0,113.76)"
     id="g10"><g
       transform="scale(0.1)"
       id="g12"><path
         id="path14"
         style="fill:#ffffff;fill-opacity:1;fill-rule:nonzero;stroke:none"
         d="M 426.617,851.809 C 191.855,851.809 1.41797,661.367 1.41797,426.609 1.41797,191.855 191.855,1.41797 426.617,1.41797 c 234.75,0 425.192,190.43703 425.192,425.19103 0,234.758 -190.442,425.2 -425.192,425.2 v 0" /><path
         id="path16"
         style="fill:none;stroke:#231f20;stroke-width:2.83500004;stroke-linecap:butt;stroke-linejoin:round;stroke-miterlimit:4;stroke-dasharray:none;stroke-opacity:1"
         d="M 426.617,851.809 C 191.855,851.809 1.41797,661.367 1.41797,426.609 1.41797,191.855 191.855,1.41797 426.617,1.41797 c 234.75,0 425.192,190.43703 425.192,425.19103 0,234.758 -190.442,425.2 -425.192,425.2 v 0" /><path
         id="path18"
         style="fill:#231f20;fill-opacity:1;fill-rule:nonzero;stroke:none"
         d="m 107.477,167.559 c 4.175,-5.118 8.496,-10.196 12.957,-15.125 v 0 l 65.484,65.488 -0.18,27.898 -78.261,-78.261 v 0" /><path
         id="path20"
         style="fill:#231f20;fill-opacity:1;fill-rule:nonzero;stroke:none"
         d="m 87.7461,193.867 c 3.7773,-5.508 7.7031,-10.906 11.7695,-16.269 v 0 l 86.1874,86.183 v 0 c 0.07,1.043 0.141,2.09 0.25,3.203 0.289,3.563 0.758,6.524 1.481,8.856 v 0 l 5.648,23.371 L 87.7461,193.867 v 0" /><path
         id="path22"
         style="fill:#231f20;fill-opacity:1;fill-rule:nonzero;stroke:none"
         d="m 129.07,143.078 c 2.274,-2.375 4.614,-4.719 6.95,-7.062 2.339,-2.371 4.718,-4.676 7.097,-6.981 v 0 l 55.149,55.156 v 0 c -2.664,0.575 -5.145,1.903 -7.414,4.032 v 0 l -0.145,0.175 -0.18,0.188 v 0 c -2.918,3.125 -4.429,6.902 -4.535,11.406 v 0 L 129.07,143.078 v 0" /><path
         id="path24"
         style="fill:#231f20;fill-opacity:1;fill-rule:nonzero;stroke:none"
         d="m 152.477,120.391 c 4.964,-4.461 10.003,-8.782 15.117,-12.957 v 0 l 68.617,68.621 v 0 c -1.012,2.59 -1.727,5.293 -2.164,8.097 v 0 l -17.922,-0.148 -63.648,-63.613 v 0" /><path
         id="path26"
         style="fill:#231f20;fill-opacity:1;fill-rule:nonzero;stroke:none"
         d="m 177.637,99.5117 c 5.328,-4.0625 10.765,-7.9883 16.273,-11.8047 v 0 l 65.27,65.273 v 0 c -5.043,1.942 -9.614,5 -13.754,9.18 -0.863,0.86 -1.692,1.758 -2.485,2.656 v 0 L 177.637,99.5117 v 0" /><path
         id="path28"
         style="fill:#231f20;fill-opacity:1;fill-rule:nonzero;stroke:none"
         d="m 69.9258,222.168 c 3.3867,-5.906 6.9492,-11.738 10.6211,-17.461 v 0 l 118.2581,118.262 4.429,18.32 v 0 c 1.118,5.012 4.246,8.75 9.36,11.27 4.14,2.011 8.066,3.027 11.738,3.027 v 0 h 7.09 l 28.512,28.512 H 231.855 L 69.9258,222.168 v 0" /><path
         id="path30"
         style="fill:#231f20;fill-opacity:1;fill-rule:nonzero;stroke:none"
         d="m 204.711,80.5078 c 5.758,-3.6719 11.555,-7.1953 17.496,-10.5859 v 0 l 114.41,114.4141 -22.933,0.031 v 0 c -1.262,-8.418 -5.039,-15.801 -11.305,-22.101 -7.707,-7.813 -16.992,-11.778 -27.867,-11.953 v 0 L 204.711,80.5078 v 0" /><path
         id="path32"
         style="fill:#231f20;fill-opacity:1;fill-rule:nonzero;stroke:none"
         d="m 648.516,772.68 c -5.723,3.672 -11.512,7.199 -17.422,10.621 v 0 l -66.278,-66.278 28.114,0.071 55.586,55.586 v 0" /><path
         id="path34"
         style="fill:#231f20;fill-opacity:1;fill-rule:nonzero;stroke:none"
         d="m 675.625,753.707 c -5.332,4.066 -10.762,7.992 -16.27,11.773 v 0 l -48.386,-48.386 28.113,0.074 36.543,36.539 v 0" /><path
         id="path36"
         style="fill:#231f20;fill-opacity:1;fill-rule:nonzero;stroke:none"
         d="m 700.793,732.793 c -4.934,4.465 -9.973,8.746 -15.117,12.922 v 0 l -42.922,-42.91 v -28.043 l 58.039,58.031 v 0" /><path
         id="path38"
         style="fill:#231f20;fill-opacity:1;fill-rule:nonzero;stroke:none"
         d="m 724.191,710.113 c -2.304,2.371 -4.609,4.75 -6.984,7.09 -2.305,2.336 -4.676,4.645 -7.059,6.914 v 0 l -67.394,-67.394 v -28.047 l 81.437,81.437 v 0" /><path
         id="path40"
         style="fill:#231f20;fill-opacity:1;fill-rule:nonzero;stroke:none"
         d="m 745.793,685.629 c -4.18,5.113 -8.496,10.152 -12.93,15.125 v 0 l -90.109,-90.109 v -28.047 l 103.039,103.031 v 0" /><path
         id="path42"
         style="fill:#231f20;fill-opacity:1;fill-rule:nonzero;stroke:none"
         d="m 765.52,659.316 c -3.782,5.508 -7.747,10.911 -11.809,16.235 v 0 L 637.609,559.453 v -2.558 l -3.996,-1.442 -86.367,-86.328 h 28.086 L 765.52,659.316 v 0" /><path
         id="path44"
         style="fill:#231f20;fill-opacity:1;fill-rule:nonzero;stroke:none"
         d="m 17.082,391.188 h 819.07 v 0 c 1.008,11.699 1.477,23.507 1.477,35.421 0,11.918 -0.469,23.727 -1.477,35.426 v 0 H 17.082 v 0 c -1.0117,-11.699 -1.4804,-23.508 -1.4804,-35.426 0,-11.914 0.4687,-23.722 1.4804,-35.421 v 0" /><path
         id="path46"
         style="fill:#231f20;fill-opacity:1;fill-rule:nonzero;stroke:none"
         d="m 783.301,631.02 c -3.379,5.937 -6.914,11.734 -10.586,17.457 v 0 L 593.332,469.125 h 28.074 L 783.301,631.02 v 0" /><path
         id="path48"
         style="fill:#231f20;fill-opacity:1;fill-rule:nonzero;stroke:none"
         d="m 542.07,578.605 c -20.527,0 -36.972,-17.246 -36.472,-37.585 0.535,-20.34 16.953,-36 37.011,-36 19.512,0 35.926,15.66 36.461,35.492 0.512,20.847 -16.453,38.093 -37,38.093 v 0" /><path
         id="path50"
         style="fill:#231f20;fill-opacity:1;fill-rule:nonzero;stroke:none"
         d="m 635.664,583.281 v 126.793 l -294.84,-0.539 -1.004,-126.793 165.387,-0.5 -6.164,-6.808 -164.879,0.543 0.504,91.836 H 284.34 v 0 c -8.742,0 -19.008,-7.309 -22.102,-13.575 v 0 l -15.406,-33.41 -6.156,-0.5 v 0 c -0.504,0 -4.61,-1.047 -6.66,-3.133 -1.551,-1.586 -2.594,-4.175 -2.594,-6.261 v 0 l -5.113,-50.618 h -5.145 v 0 c -1.047,0 -2.559,0 -3.098,-1.043 -0.503,-0.543 -0.503,-3.136 -0.503,-3.671 v 0 -4.684 0 c 0,-0.535 0,-2.086 1.042,-3.129 1.008,-1.047 2.055,-1.047 2.559,-1.59 v 0 l -0.504,-5.219 h 21.563 v 0 c 0,0.543 0,1.59 0,2.633 1.004,23.473 20.554,42.262 43.668,42.262 23.617,0 44.172,-18.254 43.632,-42.262 0,-0.543 0,-1.586 0,-2.09 v 0 l 166.934,-0.543 v 0 c 0.535,0.543 0.535,1.59 0.535,2.633 2.051,24.008 21.563,44.352 45.684,43.848 24.16,0 42.668,-20.883 44.719,-45.434 0,0 0,-1.047 0,-1.547 v 0 h 9.207 v 0 c 0,0.5 -0.497,8.352 -0.497,8.856 v 0 l 34.415,12.527 v 13.571 l -47.266,1.046 -5.117,6.801 h 57.527 v 0" /><path
         id="path52"
         style="fill:#231f20;fill-opacity:1;fill-rule:nonzero;stroke:none"
         d="m 601.387,348.621 c 2.793,0 5.754,-0.379 8.164,-1.519 2.16,-1.086 3.984,-2.872 5.324,-4.825 v 0 l 43.867,-67.929 v 0 c 0.477,-0.813 0.906,-1.848 1.18,-2.766 0.43,-1.191 0.43,-5.918 0.43,-7.168 v 0 l 0.109,-63.476 v 0 c 0,-2.762 -0.813,-5.801 -2.902,-7.598 -2.313,-1.953 -5.704,-2.332 -8.653,-2.332 v 0 h -69.883 v 0 c 0.059,1.355 0.11,3.367 0,4.773 -1.289,20.735 -19.082,36.086 -39.668,36.36 -21.015,0.214 -39.558,-15.09 -40.957,-36.25 -0.058,-1.36 -0.058,-3.313 -0.058,-4.661 v 0 l -184.746,0.215 v 0 c 0,0.977 0,2.383 -0.106,3.418 -1.343,20.676 -19.246,35.813 -39.777,35.86 -20.535,0 -37.949,-15.301 -40.102,-35.86 -0.109,-1.035 -0.214,-2.547 -0.214,-3.633 v 0 l -31.93,-0.222 v 0 c -2.094,-0.11 -4.188,0.926 -5.75,2.39 -1.719,1.848 -2.633,4.504 -2.633,7.004 v 0 l -0.324,61.356 v 0 c 0,1.465 0.109,3.144 0.269,4.562 0.161,2.164 0.645,5.75 1.235,7.645 v 0 l 15.859,65.703 v 0 c 0.645,2.883 3.008,5.266 5.586,6.516 2.852,1.406 5.574,2.312 8.633,2.312 v 0 l 377.047,0.125 v 0" /><path
         id="path54"
         style="fill:#231f20;fill-opacity:1;fill-rule:nonzero;stroke:none"
         d="m 273.91,224.523 c 18.332,0 33.164,-15.031 33.164,-33.539 0,-18.55 -14.886,-33.582 -33.215,-33.582 -18.277,0 -33.113,14.864 -33.218,33.313 -0.11,18.672 14.832,33.808 33.269,33.808 v 0" /><path
         id="path56"
         style="fill:#231f20;fill-opacity:1;fill-rule:nonzero;stroke:none"
         d="m 539.336,225.039 c 18.547,-0.156 33.105,-15.84 32.844,-34.559 -0.274,-18.332 -15.051,-33.144 -33.274,-33.203 -18.437,-0.05 -33.543,14.813 -33.758,33.368 -0.273,19.152 15.215,34.621 34.188,34.394 v 0" /><path
         id="path58"
         style="fill:#231f20;fill-opacity:1;fill-rule:nonzero;stroke:none"
         d="m 285.781,578.676 c -19.511,0 -35.961,-16.703 -35.961,-36.504 0,-20.883 15.907,-37.586 35.961,-37.586 20.524,0 36.469,17.211 35.93,37.586 0,19.801 -15.914,36.504 -35.93,36.504 v 0" /><path
         id="path60"
         style="fill:#231f20;fill-opacity:1;fill-rule:nonzero;stroke:none"
         d="m 536.379,384.098 h -28.047 l -28.437,-28.446 28.074,0.043 28.41,28.403" /><path
         id="path62"
         style="fill:#231f20;fill-opacity:1;fill-rule:nonzero;stroke:none"
         d="m 490.293,384.098 h -28.035 l -28.477,-28.446 h 28.074 l 28.438,28.446" /><path
         id="path64"
         style="fill:#231f20;fill-opacity:1;fill-rule:nonzero;stroke:none"
         d="m 593.547,533.391 h -8.098 v 0 c -0.761,-4.399 -2.195,-8.536 -4.285,-12.391 v 0 l 12.383,12.391 v 0" /><path
         id="path66"
         style="fill:#231f20;fill-opacity:1;fill-rule:nonzero;stroke:none"
         d="m 501.203,469.125 h 28.086 l 33.875,33.879 v 0 c -6.191,-3.387 -13.035,-5.078 -20.555,-5.078 -3.964,0 -7.668,0.433 -11.23,1.332 v 0 l -30.176,-30.133 v 0" /><path
         id="path68"
         style="fill:#231f20;fill-opacity:1;fill-rule:nonzero;stroke:none"
         d="m 444.258,384.098 h -28.047 l -28.477,-28.446 h 28.082 l 28.442,28.446" /><path
         id="path70"
         style="fill:#231f20;fill-opacity:1;fill-rule:nonzero;stroke:none"
         d="m 518.809,504.73 c -2.45,1.583 -4.746,3.418 -6.942,5.583 -2.773,2.628 -5.078,5.507 -6.992,8.531 v 0 l -49.746,-49.719 h 28.074 l 35.606,35.605 v 0" /><path
         id="path72"
         style="fill:#231f20;fill-opacity:1;fill-rule:nonzero;stroke:none"
         d="m 398.176,384.098 h -28.043 l -28.477,-28.485 h 28.039 l 28.481,28.485" /><path
         id="path74"
         style="fill:#231f20;fill-opacity:1;fill-rule:nonzero;stroke:none"
         d="m 499.621,531.621 c -0.137,0.758 -0.285,1.516 -0.43,2.27 v 0 L 473.918,534 409.047,469.125 h 28.082 l 62.492,62.496 v 0" /><path
         id="path76"
         style="fill:#231f20;fill-opacity:1;fill-rule:nonzero;stroke:none"
         d="m 352.094,384.098 h -28.047 l -28.508,-28.485 h 28.078 l 28.477,28.485" /><path
         id="path78"
         style="fill:#231f20;fill-opacity:1;fill-rule:nonzero;stroke:none"
         d="m 455.957,534.031 -27.973,0.11 -65.019,-65.016 h 28.082 l 64.91,64.906" /><path
         id="path80"
         style="fill:#231f20;fill-opacity:1;fill-rule:nonzero;stroke:none"
         d="m 306.016,384.098 h -28.047 l -28.512,-28.512 28.082,0.027 28.477,28.485" /><path
         id="path82"
         style="fill:#231f20;fill-opacity:1;fill-rule:nonzero;stroke:none"
         d="m 410.02,534.18 -27.973,0.105 -65.16,-65.16 h 28.078 l 65.055,65.055" /><path
         id="path84"
         style="fill:#ffffff;fill-opacity:1;fill-rule:nonzero;stroke:none"
         d="m 285.816,556.68 c 8.207,0 14.907,-6.77 14.907,-14.617 0,-8.856 -6.192,-15.661 -14.399,-15.661 -8.75,-0.504 -15.41,6.805 -15.41,15.157 0,8.351 6.66,15.121 14.902,15.121 v 0" /><path
         id="path86"
         style="fill:#ffffff;fill-opacity:1;fill-rule:nonzero;stroke:none"
         d="m 542.609,557.219 c 8.75,0 14.903,-7.809 14.395,-16.707 0,-7.809 -6.691,-14.071 -14.395,-14.071 -8.214,0 -14.875,5.723 -15.414,14.071 -0.504,8.898 6.703,16.707 15.414,16.707 v 0" /><path
         id="path88"
         style="fill:#ffffff;fill-opacity:1;fill-rule:nonzero;stroke:none"
         d="m 288.879,653.734 26.211,-0.539 v -32.867 l -41.617,0.5 15.406,32.906 v 0" /><path
         id="path90"
         style="fill:#ffffff;fill-opacity:1;fill-rule:nonzero;stroke:none"
         d="m 267.785,653.734 h 11.301 l -14.867,-33.406 h -10.801 l 14.367,33.406 v 0" /><path
         id="path92"
         style="fill:#ffffff;fill-opacity:1;fill-rule:nonzero;stroke:none"
         d="m 218.102,333.926 13.867,0.105 -15.696,-64.019 h -13.757 l 15.586,63.914 v 0" /><path
         id="path94"
         style="fill:#ffffff;fill-opacity:1;fill-rule:nonzero;stroke:none"
         d="m 242.203,334.07 42.52,0.215 0.429,-64.234 -58.48,-0.215 15.531,64.234 v 0" /><path
         id="path96"
         style="fill:#ffffff;fill-opacity:1;fill-rule:nonzero;stroke:none"
         d="m 293.988,334.309 h 47.629 l -0.375,-64.297 h -47.039 l -0.215,64.297 v 0" /><path
         id="path98"
         style="fill:#ffffff;fill-opacity:1;fill-rule:nonzero;stroke:none"
         d="m 350.508,334.309 h 46.875 l 0.109,-64.297 h -46.984 v 64.297 0" /><path
         id="path100"
         style="fill:#ffffff;fill-opacity:1;fill-rule:nonzero;stroke:none"
         d="m 407.066,334.285 47.731,-0.215 0.594,-64.234 h -48.055 l -0.27,64.449 v 0" /><path
         id="path102"
         style="fill:#ffffff;fill-opacity:1;fill-rule:nonzero;stroke:none"
         d="m 464.121,334.094 48.918,0.215 0.645,-64.621 -48.801,0.167 -0.762,64.239 v 0" /><path
         id="path104"
         style="fill:#ffffff;fill-opacity:1;fill-rule:nonzero;stroke:none"
         d="m 522.441,334.285 h 47.844 l 0.43,-64.019 -47.629,-0.43 -0.645,64.449 v 0" /><path
         id="path106"
         style="fill:#ffffff;fill-opacity:1;fill-rule:nonzero;stroke:none"
         d="m 580.078,334.316 h 29.192 l 39.941,-64.011 h -68.965 l -0.168,64.011 v 0" /><path
         id="path108"
         style="fill:#ffffff;fill-opacity:1;fill-rule:nonzero;stroke:none"
         d="m 273.859,205.43 c 7.793,0 13.973,-6.563 13.813,-14.422 -0.109,-7.551 -6.184,-13.672 -13.652,-13.672 -7.477,-0.059 -13.598,5.965 -13.872,13.504 -0.214,7.871 5.911,14.543 13.711,14.59 v 0" /><path
         id="path110"
         style="fill:#ffffff;fill-opacity:1;fill-rule:nonzero;stroke:none"
         d="m 539.25,205.559 c 8.008,-0.051 14.297,-6.887 13.758,-14.973 -0.43,-7.215 -6.61,-12.586 -13.817,-12.645 -7.316,-0.05 -13.652,5.321 -14.191,12.645 -0.535,8.195 6.074,15.031 14.25,14.973 v 0" /></g></g></svg>