<?xml version="1.0" encoding="UTF-8" standalone="no"?>
<svg
   xmlns:dc="http://purl.org/dc/elements/1.1/"
   xmlns:cc="http://creativecommons.org/ns#"
   xmlns:rdf="http://www.w3.org/1999/02/22-rdf-syntax-ns#"
   xmlns:svg="http://www.w3.org/2000/svg"
   xmlns="http://www.w3.org/2000/svg"
   viewBox="0 0 113.76 113.76"
   height="113.76"
   width="113.76"
   xml:space="preserve"
   id="svg2"
   version="1.1"><metadata
     id="metadata8"><rdf:RDF><cc:Work
         rdf:about=""><dc:format>image/svg+xml</dc:format><dc:type
           rdf:resource="http://purl.org/dc/dcmitype/StillImage" /></cc:Work></rdf:RDF></metadata><defs
     id="defs6" /><g
     transform="matrix(1.3333333,0,0,-1.3333333,0,113.76)"
     id="g10"><g
       transform="scale(0.1)"
       id="g12"><path
         id="path14"
         style="fill:#ffffff;fill-opacity:1;fill-rule:nonzero;stroke:none"
         d="M 426.617,851.809 C 191.855,851.809 1.41797,661.367 1.41797,426.609 1.41797,191.855 191.855,1.41797 426.617,1.41797 c 234.75,0 425.192,190.43703 425.192,425.19103 0,234.758 -190.442,425.2 -425.192,425.2 v 0" /><path
         id="path16"
         style="fill:none;stroke:#231f20;stroke-width:2.83500004;stroke-linecap:butt;stroke-linejoin:round;stroke-miterlimit:4;stroke-dasharray:none;stroke-opacity:1"
         d="M 426.617,851.809 C 191.855,851.809 1.41797,661.367 1.41797,426.609 1.41797,191.855 191.855,1.41797 426.617,1.41797 c 234.75,0 425.192,190.43703 425.192,425.19103 0,234.758 -190.442,425.2 -425.192,425.2 v 0" /><path
         id="path18"
         style="fill:#231f20;fill-opacity:1;fill-rule:nonzero;stroke:none"
         d="m 477.375,288.535 -35.195,-0.066 -0.129,-10.676 h 312.5 l 0.207,10.43 -40.938,-0.008 v 0 c 1.075,0.816 2.578,2.039 3.301,3.164 0.926,1.426 1.238,3.301 1.238,4.988 v 0 l -0.039,40.75 8.313,-0.105 v 0 c 0.312,1.433 0.781,3.586 0.906,5.058 0.149,1.496 0.129,3.703 0.09,5.196 -0.012,0.449 -0.012,0.886 -0.012,1.328 -0.019,0.437 -0.019,0.89 -0.019,1.308 0,0.227 0,0.457 0.019,0.672 0,0.227 0,0.422 0.012,0.656 0.156,3.301 0.859,6.711 1.766,9.891 0.5,1.731 1.25,4.231 1.769,5.957 0.203,0.656 0.43,1.391 0.613,2.043 0.207,0.676 0.411,1.348 0.618,2.024 0.144,0.527 0.312,1.058 0.457,1.585 0.148,0.528 0.293,1.036 0.461,1.567 0.906,3.203 1.582,6.465 1.96,9.781 0.168,1.418 0.286,2.84 0.325,4.262 0.027,1.422 0,2.844 -0.098,4.262 -0.207,2.804 -0.949,5.539 -2.187,8.066 -0.723,1.461 -1.575,2.863 -2.512,4.191 -0.965,1.332 -2.039,2.586 -3.203,3.754 -2.266,2.242 -4.942,4.168 -7.93,5.301 -2.664,1.02 -5.957,1.824 -8.75,2.406 v 0 l -27.754,55.719 v 0 c -1.18,2.387 -2.684,4.645 -4.324,6.738 -1.731,2.192 -4.094,4.973 -6.281,6.743 -2.313,1.875 -5.125,3.058 -8.086,3.55 -2.129,0.348 -4.559,0.602 -6.707,0.785 -0.274,0.016 -0.645,0.051 -0.918,0.09 -0.391,0.035 -0.762,0.075 -1.172,0.09 -0.371,0.039 -0.762,0.074 -1.145,0.094 -0.164,0.019 -0.351,0.019 -0.515,0.031 -0.168,0 -0.344,0 -0.52,0 v 0 l -129.902,0.207 v 0 c -2.813,0.016 -5.555,-0.969 -7.899,-2.5 -2.617,-1.695 -4.777,-3.988 -6.3,-6.683 -0.997,-1.77 -2.215,-4.192 -3.125,-6.012 v 0 l -28.79,-58.379 v 0 c -2.421,-0.566 -5.273,-1.328 -7.585,-2.223 -2.043,-0.785 -3.95,-1.875 -5.645,-3.242 -1.055,-0.84 -2.082,-1.765 -3.039,-2.734 -0.945,-0.981 -1.836,-2 -2.664,-3.074 -2.246,-2.957 -4.024,-6.286 -4.942,-9.856 -0.851,-3.301 -1.132,-6.723 -0.675,-10.094 0.304,-2.257 0.879,-5.554 1.281,-7.797 0.078,-0.402 0.144,-0.82 0.223,-1.218 0.078,-0.438 0.129,-0.801 0.207,-1.223 0.039,-0.199 0.066,-0.422 0.105,-0.621 0.039,-0.215 0.078,-0.379 0.117,-0.602 0.371,-2.238 0.852,-5.535 1.164,-7.789 0.059,-0.441 0.145,-1.007 0.203,-1.457 0.071,-0.527 0.129,-0.925 0.208,-1.465 0.039,-0.234 0.066,-0.468 0.105,-0.722 0.039,-0.227 0.078,-0.496 0.109,-0.711 0.098,-0.637 1.727,-11.457 1.727,-12.082 -0.02,-1.231 -0.164,-12.09 0.644,-13.035 0.618,-0.696 1.504,-1.094 2.442,-1.114 1.777,-0.019 3.555,0.055 5.332,0.211 1.758,0.188 3.516,0.442 5.266,0.793 v 0 l 0.371,-39.199 v 0 c 0.007,-1.894 0.332,-4.719 1.738,-5.976 v 0 l 3.23,-2.969 v -0.02 -0.019 l -0.007,-0.02 h -0.02 v 0" /><path
         id="path20"
         style="fill:#231f20;fill-opacity:1;fill-rule:nonzero;stroke:none"
         d="m 388.93,289.602 -24.446,-0.188 -0.097,-0.027 v 0 c 6.508,0.84 6.508,4.168 6.625,8.926 v 0 l 0.117,5.054 v 50.879 h 17.742 v 276.215 0 c 0,8.852 -7.355,15.816 -16.18,15.816 v 0 l -260.304,-0.125 v 0 c -6.68,0 -13.8987,-1.55 -13.8597,-13.902 v 0 L 98.7344,354.246 H 116.5 l -0.094,-53.672 v 0 c 0.035,-3.367 0.903,-11.187 7.739,-11.187 v 0 H 98.5273 l 0.0196,-11.582 290.5161,-0.024 -0.133,11.821 v 0" /><path
         id="path22"
         style="fill:#231f20;fill-opacity:1;fill-rule:nonzero;stroke:none"
         d="m 204.746,80.5078 c 5.723,-3.6719 11.52,-7.1953 17.461,-10.5859 v 0 l 212.832,212.8321 0.149,12.781 12.664,0.031 17.355,17.356 -0.148,15.808 v 0 c -1.114,-0.078 -2.305,-0.078 -3.594,-0.078 -2.449,0 -4.61,0.723 -6.414,2.2 v 0 l -58.821,-58.86 v -1.297 h -1.296 L 204.746,80.5078 v 0" /><path
         id="path24"
         style="fill:#231f20;fill-opacity:1;fill-rule:nonzero;stroke:none"
         d="m 69.9258,222.168 c 3.3867,-5.906 6.9492,-11.738 10.6211,-17.461 v 0 l 66.0191,66.027 H 118.492 L 69.9258,222.168 v 0" /><path
         id="path26"
         style="fill:#231f20;fill-opacity:1;fill-rule:nonzero;stroke:none"
         d="m 87.7109,193.867 c 3.8125,-5.508 7.7383,-10.906 11.8047,-16.269 v 0 l 93.0974,93.097 -28.043,0.039 -76.8591,-76.867 v 0" /><path
         id="path28"
         style="fill:#231f20;fill-opacity:1;fill-rule:nonzero;stroke:none"
         d="m 107.477,167.559 c 4.175,-5.157 8.496,-10.196 12.957,-15.125 v 0 L 238.691,270.695 H 210.648 L 107.477,167.559 v 0" /><path
         id="path30"
         style="fill:#231f20;fill-opacity:1;fill-rule:nonzero;stroke:none"
         d="m 129.07,143.078 c 2.309,-2.375 4.614,-4.758 6.95,-7.062 2.339,-2.371 4.718,-4.676 7.097,-6.981 v 0 l 141.66,141.66 H 256.73 L 129.07,143.078 v 0" /><path
         id="path32"
         style="fill:#231f20;fill-opacity:1;fill-rule:nonzero;stroke:none"
         d="m 152.477,120.391 c 4.964,-4.461 10.003,-8.782 15.117,-12.957 v 0 L 330.855,270.695 H 302.809 L 152.477,120.391 v 0" /><path
         id="path34"
         style="fill:#231f20;fill-opacity:1;fill-rule:nonzero;stroke:none"
         d="m 177.637,99.5117 c 5.328,-4.0625 10.765,-8.0273 16.273,-11.8047 v 0 L 376.898,270.695 H 348.852 L 177.637,99.5117 v 0" /><path
         id="path36"
         style="fill:#231f20;fill-opacity:1;fill-rule:nonzero;stroke:none"
         d="m 648.516,772.68 c -5.723,3.672 -11.512,7.199 -17.461,10.621 v 0 L 395.941,548.184 V 520.102 L 648.516,772.68 v 0" /><path
         id="path38"
         style="fill:#231f20;fill-opacity:1;fill-rule:nonzero;stroke:none"
         d="m 675.625,753.707 c -5.332,4.066 -10.762,7.992 -16.27,11.773 v 0 L 395.941,502.105 v -28.082 l 279.684,279.684 v 0" /><path
         id="path40"
         style="fill:#231f20;fill-opacity:1;fill-rule:nonzero;stroke:none"
         d="m 700.793,732.793 c -4.934,4.465 -9.973,8.785 -15.117,12.961 v 0 L 395.941,456.02 v -28.075 l 304.852,304.848 v 0" /><path
         id="path42"
         style="fill:#231f20;fill-opacity:1;fill-rule:nonzero;stroke:none"
         d="m 724.191,710.113 c -2.304,2.371 -4.609,4.75 -6.984,7.09 -2.305,2.336 -4.676,4.645 -7.059,6.914 v 0 L 395.941,409.941 v -28.078 l 328.25,328.25 v 0" /><path
         id="path44"
         style="fill:#231f20;fill-opacity:1;fill-rule:nonzero;stroke:none"
         d="m 745.793,685.629 c -4.18,5.113 -8.496,10.152 -12.961,15.125 v 0 l -203.289,-203.293 28.008,-0.074 188.242,188.242 v 0" /><path
         id="path46"
         style="fill:#231f20;fill-opacity:1;fill-rule:nonzero;stroke:none"
         d="m 765.52,659.316 c -3.782,5.508 -7.747,10.942 -11.809,16.27 v 0 l -178.203,-178.199 28.008,-0.071 162.004,162 v 0" /><path
         id="path48"
         style="fill:#231f20;fill-opacity:1;fill-rule:nonzero;stroke:none"
         d="m 783.301,631.02 c -3.379,5.937 -6.914,11.734 -10.586,17.457 v 0 L 621.516,497.316 649.523,497.242 783.301,631.02 v 0" /><path
         id="path50"
         style="fill:#ffffff;fill-opacity:1;fill-rule:nonzero;stroke:none"
         d="m 497.648,336.77 71.875,0.078 v 0 c 2.188,-2.246 4.766,-4.668 7.254,-6.567 2.024,-1.511 4.258,-2.691 6.668,-3.511 1.469,-0.493 2.961,-0.872 4.504,-1.184 1.516,-0.293 3.047,-0.488 4.61,-0.606 3.586,-0.214 7.199,0.079 10.695,0.879 1.406,0.332 2.793,0.762 4.109,1.348 1.34,0.566 2.61,1.238 3.821,2.039 2.664,1.77 5.976,5.285 8.125,7.668 v 0 l 73.73,0.227 0.254,-40.821 v 0 c 0,-1.742 0.691,-3.39 1.777,-4.757 0.907,-1.114 2,-2.208 3.055,-3.172 v 0 l -204.48,-0.051 v 0 c 0.82,0.676 1.648,1.418 2.332,2.219 1.367,1.558 2.089,3.574 2.07,5.625 v 0 l -0.399,40.586 v 0" /><path
         id="path52"
         style="fill:#ffffff;fill-opacity:1;fill-rule:nonzero;stroke:none"
         d="m 689.738,421.277 c -5.879,0.875 -14.582,2.118 -20.488,2.789 -7.023,0.801 -14.055,1.403 -21.105,1.77 -11.446,0.617 -22.899,1.019 -34.356,1.199 -19.863,0.313 -40.32,0.129 -60.144,-0.851 -12.688,-0.641 -26.418,-1.696 -38.965,-3.536 -4.766,-0.695 -11.7,-1.894 -16.426,-2.73 v 0 l 21.883,46.156 v 0 c 1.093,2.293 2.715,4.278 4.699,5.883 1.668,1.348 3.516,2.496 5.496,3.371 0.613,0.274 1.238,0.473 1.914,0.617 0.645,0.129 1.309,0.203 1.992,0.203 v 0 l 118.887,-0.546 v 0 c 2.98,-0.02 6.074,-0.602 8.684,-2.024 1.445,-0.801 2.754,-1.82 3.886,-3.043 0.614,-0.672 1.16,-1.383 1.68,-2.152 0.508,-0.742 0.945,-1.547 1.336,-2.363 v 0 l 21.027,-44.743 v 0" /><path
         id="path54"
         style="fill:#ffffff;fill-opacity:1;fill-rule:nonzero;stroke:none"
         d="m 324.293,354.246 -0.039,-54.168 v 0 c 0.156,-3.144 -0.348,-10.691 8.941,-10.691 v 0 H 158.434 v 0 c 5.574,0 5.289,10.144 5.308,13.086 v 0 l 0.196,51.773 h 52.015 v 0 c 1,-1.93 2.067,-3.855 3.203,-5.738 0.641,-1.074 1.391,-2.102 2.262,-3.039 10.402,-11.172 28.461,-13.457 40.605,-3.524 1.411,1.153 2.645,2.481 3.684,3.961 1.895,2.688 3.652,5.492 5.254,8.34 v 0 h 53.332 v 0" /><path
         id="path56"
         style="fill:#231f20;fill-opacity:1;fill-rule:nonzero;stroke:none"
         d="m 451.27,345.07 c 0,0.543 0,1.121 0,1.7 0,0.71 0,1.582 0,2.546 0,0.11 0,0.188 0,0.254 -0.137,1.297 -0.684,5.078 -1.61,11.336 0,0.078 -0.039,0.215 -0.078,0.442 -0.039,0.105 -0.039,0.175 -0.039,0.246 -0.07,0.332 -0.109,0.574 -0.109,0.789 -0.106,0.613 -0.176,1.125 -0.243,1.555 0,0.144 -0.039,0.425 -0.109,0.789 -0.039,0.293 -0.078,0.507 -0.078,0.617 -0.254,1.726 -0.469,3.344 -0.684,4.816 v 0 L 378.121,300 l -0.035,-1.875 v 0 c 0,0 0,-0.066 0,-0.145 0,-0.46 -0.035,-0.929 -0.035,-1.371 v 0 l 17.89,0.11 0.075,-6.903 55.254,55.254 v 0" /><path
         id="path58"
         style="fill:#231f20;fill-opacity:1;fill-rule:nonzero;stroke:none"
         d="m 445.801,385.645 c -0.106,1.039 -0.176,2.125 -0.176,3.203 0,2.882 0.363,5.722 1.113,8.601 1.114,4.324 3.164,8.465 6.153,12.352 1.015,1.332 2.089,2.554 3.242,3.746 1.113,1.148 2.344,2.266 3.672,3.308 2.304,1.836 4.824,3.278 7.531,4.321 1.504,0.578 3.269,1.152 5.254,1.691 v 0 l 17.098,34.742 -93.747,-93.742 v -16.711 h -16.668 l -1.046,-1.043 v -28.047 l 67.574,67.579 v 0" /></g></g></svg>