<?xml version="1.0" encoding="UTF-8" standalone="no"?>
<svg
   xmlns:dc="http://purl.org/dc/elements/1.1/"
   xmlns:cc="http://creativecommons.org/ns#"
   xmlns:rdf="http://www.w3.org/1999/02/22-rdf-syntax-ns#"
   xmlns:svg="http://www.w3.org/2000/svg"
   xmlns="http://www.w3.org/2000/svg"
   viewBox="0 0 113.77333 113.77333"
   height="113.77333"
   width="113.77333"
   xml:space="preserve"
   id="svg2"
   version="1.1"><metadata
     id="metadata8"><rdf:RDF><cc:Work
         rdf:about=""><dc:format>image/svg+xml</dc:format><dc:type
           rdf:resource="http://purl.org/dc/dcmitype/StillImage" /></cc:Work></rdf:RDF></metadata><defs
     id="defs6" /><g
     transform="matrix(1.3333333,0,0,-1.3333333,0,113.77333)"
     id="g10"><g
       transform="scale(0.1)"
       id="g12"><path
         id="path14"
         style="fill:#ffffff;fill-opacity:1;fill-rule:nonzero;stroke:none"
         d="m 851.879,426.648 c 0,234.868 -190.371,425.231 -425.231,425.231 C 191.781,851.879 1.41797,661.516 1.41797,426.648 1.41797,191.785 191.781,1.41797 426.648,1.41797 c 234.86,0 425.231,190.36703 425.231,425.23003 v 0" /><path
         id="path16"
         style="fill:none;stroke:#231f20;stroke-width:2.83500004;stroke-linecap:butt;stroke-linejoin:round;stroke-miterlimit:4;stroke-dasharray:none;stroke-opacity:1"
         d="m 851.879,426.648 c 0,234.868 -190.371,425.231 -425.231,425.231 C 191.781,851.879 1.41797,661.516 1.41797,426.648 1.41797,191.785 191.781,1.41797 426.648,1.41797 c 234.86,0 425.231,190.36703 425.231,425.23003 v 0" /><path
         id="path18"
         style="fill:#1a67bb;fill-opacity:1;fill-rule:nonzero;stroke:none"
         d="m 231.168,291.289 c -0.074,0.293 -0.145,0.574 -0.215,0.828 -2.519,10.188 -6.769,27.793 -8.281,39.348 0,0.183 -0.035,0.32 -0.035,0.469 -0.789,1.046 -1.621,2.16 -1.836,2.453 -2.164,2.84 -3.531,5.867 -4.356,8.75 -0.578,1.972 -0.937,4.207 -0.937,6.582 0,2.515 0.433,5.437 1.695,8.386 -0.18,1.004 -0.289,2.2 -0.289,3.387 0,0.754 0.035,1.731 0.215,2.805 0.105,0.578 0.215,1.113 0.359,1.621 -2.3,9.039 -2.554,21.527 -2.554,29.703 0,3.129 0.031,6.012 0.105,8.317 0.074,3.093 0.074,7.015 0.074,10.941 0,3.203 0,6.371 -0.035,9 0,1.836 -0.039,3.926 -0.039,6.082 0,5.613 0.074,12.027 0.215,16.918 0.039,1.984 0.144,4.504 0.254,6.883 -2.41,3.523 -4.356,8.058 -4.789,13.097 -0.071,0.797 -0.11,1.547 -0.11,2.344 0,5.184 1.516,10.332 4.469,14.797 0.684,1.004 1.367,1.977 2.086,2.914 3.711,32.906 10.297,71.32 21.891,103.684 -0.469,2.336 -0.832,4.929 -0.832,7.59 0,2.519 0.289,5.332 1.117,8.21 2.16,7.524 5.832,11.415 8.785,13.895 1.477,5.039 4.465,8.785 7.27,11.379 18.687,33.012 45.972,76.859 90.253,86.648 0.469,0.11 1.008,0.219 1.797,0.434 1.731,0.469 5.477,1.476 9.543,1.551 v 0 l 131.543,1.547 H 489 v 0 c 6.23,0 15.801,-1.442 18.758,-1.911 34.777,-5.543 62.676,-31.175 83.879,-68.183 v 0 l 94.316,94.281 v 0 c -70.703,57.457 -160.84,91.91 -259.055,91.91 -227.015,0 -411.0425,-184.066 -411.0425,-411.086 0,-98.172 34.414,-188.308 91.8715,-259.019 v 0 l 123.441,123.445 v 0" /><path
         id="path20"
         style="fill:#1a67bb;fill-opacity:1;fill-rule:nonzero;stroke:none"
         d="m 625.152,565.465 c 11.953,-46.402 17.821,-98.027 17.821,-147.059 0,-115.093 -31.68,-237.383 -111.348,-277.633 -3.496,-1.757 -10.652,-5.253 -17.5,-6.835 -0.965,-0.215 -5,-1.196 -8.457,-1.223 v 0 l -128.41,-0.613 h -0.215 v 0 c -3.457,0 -6.875,0.359 -9.328,0.613 -0.61,0.066 -1.188,0.137 -1.731,0.176 -10.183,0.976 -20.804,3.496 -30.668,8.425 -10.906,5.434 -21.168,13.821 -29.015,20.95 -10.801,9.824 -21.422,21.172 -29.988,33.664 -2.485,3.633 -5.368,8.242 -7.958,12.593 v 0 L 167.734,107.832 v 0 c 70.707,-57.5273 160.922,-92.0117 259.164,-92.0117 227.012,0 411.086,184.0347 411.086,411.0427 0,98.356 -34.523,188.606 -92.121,259.383 v 0 L 625.152,565.465 v 0" /><path
         id="path22"
         style="fill:#ee2c30;fill-opacity:1;fill-rule:nonzero;stroke:none"
         d="M 162.047,112.156 741.176,691.57 v 0 c -15.332,18.254 -31.895,34.243 -50.106,49.578 v 0 L 112.047,162.156 v 0 c 15.223,-18.074 31.969,-34.84 50,-50 v 0" /><path
         id="path24"
         style="fill:#1a67bb;fill-opacity:1;fill-rule:nonzero;stroke:none"
         d="m 479.027,419.273 -24.375,-24.375 v 0 c 4.18,-34.019 10.911,-54.175 13.293,-54.175 3.672,0 11.981,33.222 11.082,78.55 v 0" /><path
         id="path26"
         style="fill:#231f20;fill-opacity:1;fill-rule:nonzero;stroke:none"
         d="m 555.961,496.238 c 0.031,-0.218 0.07,-0.398 0.109,-0.574 0.215,-1.117 0.496,-3.027 0.067,-4.031 -0.176,-0.328 -0.684,-0.543 -1.043,-0.653 -0.391,-0.179 -0.938,-0.289 -1.399,-0.105 -0.613,0.254 -1.23,0.758 -1.726,1.367 v 0 l -7.168,-7.164 v 0 c 0.574,-0.359 1.406,-0.758 1.941,-1.008 -0.644,-0.933 -1.367,-1.98 -2.051,-2.984 -0.867,-1.375 -2.234,-3.641 -2.625,-5.223 -0.722,-3.133 0,-9.039 0.43,-12.238 0.613,-4.109 1.219,-8.969 1.66,-13.074 0.282,-3.383 0.789,-6.906 1.582,-10.153 0.614,-2.515 1.758,-5 3.379,-7.085 0.762,-0.938 1.59,-1.911 2.41,-2.809 -0.82,-0.832 -2.156,-2.27 -2.8,-3.242 -1.34,-2.16 -2.051,-5.004 -2.375,-7.489 -1.043,-7.808 0,-20.05 0.82,-27.863 0.215,-1.762 0.578,-4.176 1.23,-5.832 0.43,-0.969 1.438,-2.484 2.082,-3.422 -0.644,-0.793 -1.543,-2.086 -2.187,-2.949 -0.832,-1.152 -2.199,-3.098 -2.707,-4.465 -0.43,-1.371 -0.535,-3.637 -0.535,-5.074 v 0 l -0.723,-21.281 v 0 c 0,-1.731 0.039,-3.953 0.43,-5.684 0.293,-1.473 0.976,-2.922 1.765,-4.211 0.539,-1.012 1.223,-1.98 1.797,-2.918 -0.574,-0.359 -1.394,-0.832 -1.972,-1.301 -1.082,-0.855 -1.914,-1.968 -2.598,-3.164 -0.859,-1.836 -1.688,-3.738 -2.41,-5.691 v 0 l -7.707,-27.285 v 0 c -0.282,-1.367 -0.645,-3.457 -0.965,-4.863 -0.188,-0.86 -0.578,-2.442 -0.508,-3.34 0.039,-0.762 0.399,-1.985 0.613,-2.703 -0.613,-0.039 -1.765,-0.149 -2.382,-0.254 -1.688,-0.395 -3.739,-1.399 -5.215,-2.231 -4.207,-2.234 -8.172,-5.113 -11.739,-8.172 -1.902,-1.621 -3.738,-3.496 -5.429,-5.293 -0.723,-0.793 -1.981,-2.199 -2.449,-3.132 -0.254,-0.579 -0.43,-1.731 -0.54,-2.266 -2.812,2.266 -6.16,3.75 -9.687,4.246 -3.563,0.469 -7.273,0 -10.625,-1.367 -0.066,0.32 -0.281,1.301 -0.391,1.621 -0.937,2.59 -2.519,5 -4.285,7.051 -2.414,2.883 -5.109,5.73 -7.668,8.359 -1.258,1.223 -2.949,2.695 -4.422,3.484 -0.722,0.364 -2.09,0.832 -2.882,1.047 0.39,0.938 0.929,2.305 1.222,3.243 0.723,2.695 0.86,5.441 0.535,8.203 -0.39,2.922 -1.043,6.339 -1.648,9.257 -1.699,7.918 -3.859,15.735 -6.484,23.36 -0.5,1.515 -1.262,3.535 -2.09,4.863 -0.938,1.438 -2.336,2.813 -3.633,3.926 -0.723,0.578 -1.438,1.183 -2.16,1.726 0.07,1.516 0.07,3.704 0.07,5.188 0,2.414 -0.285,5.937 -0.5,8.391 -0.105,1.152 -0.223,2.734 -0.332,3.882 -0.391,5.434 -0.926,11.125 -1.648,16.52 -0.325,2.269 -0.938,5.047 -2.024,7.203 v 0 l -9.031,-9 v 0 c 0.293,-1.836 0.469,-3.777 0.574,-5.508 0.324,-4.574 1.008,-9.039 1.875,-13.5 0.606,-2.922 1.223,-6.445 1.438,-9.394 0.105,-1.367 -0.286,-2.813 -1.153,-3.926 -1.008,-1.191 -2.773,-1.477 -3.926,-0.469 -1.035,0.789 -1.582,3.137 -1.867,4.434 -0.359,1.719 -0.937,3.957 -1.367,5.617 -0.332,1.394 -0.762,3.199 -1.043,4.637 -0.543,2.519 -1.441,6.269 -2.09,8.855 -0.109,0.434 -0.215,0.867 -0.324,1.336 v 0 l -29.594,-29.598 22.25,15.266 v 0 c 0.43,-1.98 1.149,-4.824 1.766,-6.687 0.934,-3.137 2.195,-6.196 3.598,-9.153 0.683,-1.328 1.656,-3.242 2.378,-4.57 -0.253,-0.613 -0.617,-1.438 -0.832,-2.051 -0.539,-1.582 -0.718,-3.457 -0.718,-5.144 -0.039,-2.668 0.359,-5.254 1.047,-7.707 0.25,-0.723 5.898,-16.602 6.191,-17.286 0.535,-1.504 2.734,-7.695 3.457,-9.101 0.32,-0.723 1.543,-2.52 1.973,-3.172 v 0 l -30.16,-29.406 v 0 c -2.2,0.715 -5.114,1.613 -7.418,1.758 -2.2,0.109 -4.75,-0.391 -6.875,-1.043 -1.153,-0.325 -2.454,-0.715 -3.606,-1.157 -0.355,1.02 -0.934,2.492 -1.293,3.457 -1.152,2.993 -2.914,7.348 -4.141,10.305 -0.433,1.035 -1.117,2.656 -1.546,3.699 -2.704,6.594 -5.508,13.789 -7.813,20.559 -1.117,3.176 -2.594,7.773 -3.566,10.984 2.449,2.016 4.933,4.321 7.129,6.692 2.668,2.882 4.644,6.3 5.507,10.078 0.075,0.363 0.145,0.793 0.215,1.23 v 0 l -24.551,-24.551 v 0 c 0.543,-2.414 1.188,-5.476 1.731,-7.636 1.762,-6.77 4.461,-14.043 7.164,-20.555 2.41,-5.871 5.039,-11.66 7.844,-17.387 1.152,-2.41 2.918,-5.867 4.14,-8.25 -0.937,0.11 -2.304,0.254 -3.203,0.332 -1.511,0.071 -3.742,-0.222 -5.218,-0.507 v 0 l -29.993,-3.348 v 0 c -1.109,-0.434 -2.586,-0.942 -3.812,-0.754 -0.039,0.027 -0.32,0.105 -0.32,0.105 -0.508,0.364 -1.047,0.832 -1.555,1.157 -1.797,1.367 -3.887,2.476 -6.153,2.91 -2.699,0.547 -6.015,0.547 -8.75,0.437 v 0 l -15.55,-0.222 -10.407,-10.403 19.266,0.071 v 0 c 2.66,0.039 4.856,-2.051 4.856,-4.68 0,-2.41 -1.872,-4.461 -4.282,-4.68 v 0 l -28.91,0.18 -11.051,-11.047 v 0 c 2.989,-5.012 6.516,-10.84 9.328,-14.98 7.805,-11.336 17.602,-21.883 27.86,-31.211 7.523,-6.875 16.672,-14.18 25.808,-18.758 7.961,-3.957 16.852,-6.152 25.711,-6.985 3.164,-0.324 6.586,-0.539 9.825,-0.71 v 0 l 128.418,0.605 v 0 c 1.503,0 3.847,0.547 5.39,0.867 4.942,1.153 10.731,3.848 14.227,5.684 100.469,50.722 123.078,254.883 88.234,400.465 v 0 l -8.926,-8.926 v 0 c 0.36,-1.406 0.684,-2.735 1.004,-3.961 -1.433,-0.863 -2.918,-1.875 -4.285,-2.809 -2.773,-1.91 -5.109,-4.246 -7.09,-6.984 -1.328,-1.836 -2.668,-4.137 -3.097,-6.336 -0.282,-1.117 -0.321,-2.809 -0.321,-3.887 v 0 l -21.855,-11.664 -12.922,-12.961 v 0" /><path
         id="path28"
         style="fill:#231f20;fill-opacity:1;fill-rule:nonzero;stroke:none"
         d="m 251.902,312.023 c -0.285,1.192 -0.574,2.411 -0.828,3.641 -1.113,5.109 -2.41,12.703 -3.308,17.891 1.007,-0.614 2.445,-1.438 3.422,-1.875 1.472,-0.645 3.812,-1.328 5.328,-1.692 v 0 l 10.109,-3.238 7.383,7.383 -25.059,7.051 v 0 c -0.824,0.437 -1.582,1.043 -2.191,1.699 -0.613,0.711 -0.758,1.582 -0.649,2.476 0.141,0.832 0.829,1.555 1.657,1.77 0.433,0.105 0.933,0.137 1.406,0.137 v 0 l 32.32,-5.684 8.68,8.711 -23.547,4.285 20.02,12.817 v 0 c 0.578,0.253 1.402,0.828 1.73,1.367 0.141,0.285 0.32,0.863 0.355,1.222 1.227,-0.359 2.7,-0.683 3.926,-0.789 1.762,-0.215 3.532,0 5.219,0.61 1.984,0.758 3.961,1.836 5.797,2.914 v 0 l 29.844,20.886 23.652,23.653 v 0 c -0.074,1.726 -0.141,3.597 -0.18,5 0.684,-0.11 1.332,-0.215 1.981,-0.324 0.758,-0.11 1.551,-0.289 2.34,-0.536 v 0 l 7.597,7.59 v 0 c -2.195,1.657 -4.718,3.098 -7.383,3.711 -1.546,0.399 -3.347,0.684 -4.929,0.824 0.031,2.051 0.144,5.082 0.215,7.098 0.359,9.535 1.078,19.402 1.906,28.906 0.215,2.809 0.609,6.875 0.898,9.684 0.328,3.957 0.867,9.754 1.192,13.715 0.179,1.98 0.394,4.824 0.578,6.804 1.258,0.071 3.055,0.18 4.316,0.25 2.449,0.149 4.864,0.543 7.168,1.153 1.656,0.433 3.238,1.301 4.571,2.414 0.824,0.723 1.761,1.691 2.41,2.519 v 0 l 32.757,-20.339 v 0 c -0.425,-0.829 -1.332,-2.485 -1.546,-3.383 -0.649,-2.196 -0.825,-5.653 -0.825,-7.918 -0.039,-1.375 -0.039,-2.742 0,-4.071 v 0 l 9.973,9.934 v 0 c 0.07,0.613 0.141,1.227 0.246,1.766 0.328,2.015 1.192,4.175 2.738,5.508 1.372,1.152 3.278,1.261 4.934,0.683 v 0 l 14.145,14.113 v 0 c 0.363,1.227 0.683,2.485 0.937,3.637 v 0 l 6.34,28.692 v 0 c 0.281,1.078 0.605,2.414 0.723,3.566 0.136,1.762 -0.118,3.523 -0.911,5.109 -0.468,1.039 -1.152,2.086 -1.796,3.098 0.753,0.215 1.66,0.535 2.414,0.824 1.257,0.504 2.664,1.192 3.523,2.199 0.617,0.61 1.23,1.762 1.582,2.52 1.621,2.984 3.281,6.187 4.797,9.211 1.941,3.64 4.246,8.355 5.613,12.207 0.899,2.305 1.875,5.797 2.559,8.137 1.047,0.394 2.082,0.789 3.125,1.222 1.875,0.758 4.004,1.91 5.441,3.418 1.543,1.59 2.918,4.215 3.926,6.266 5.039,-2.809 11.121,-3.457 16.668,-2.051 1.113,-1.258 2.266,-2.559 3.34,-3.851 2.09,-2.415 4.687,-5.145 7.168,-7.239 1.008,-0.894 2.59,-2.051 3.672,-2.879 -0.039,-0.718 -0.106,-1.472 -0.145,-2.195 -0.031,-0.898 -0.07,-1.906 0.039,-2.879 v 0 l 21.199,21.203 v 0 c -1.074,2.121 -2.8,4.715 -3.632,5.903 -2.45,3.636 -5.547,6.878 -8.895,9.687 -1.543,1.262 -3.918,3.059 -5.832,3.672 -1.043,0.32 -3.164,0.32 -4.316,0.32 0.722,8.102 -5.614,16.129 -13.789,17.176 v 0 l 0.363,45.32 v 0 c 5.293,3.493 10.398,8.86 10.183,15.231 -0.039,2.195 6.731,-0.758 9.036,-1.442 7.742,-2.125 15.593,-7.597 21.746,-12.816 5.617,-4.785 10.871,-10.184 15.695,-15.801 6.082,-7.094 11.668,-14.691 16.492,-22.719 0.82,-1.367 1.758,-3.058 2.735,-4.75 v 0 l 8.886,8.891 v 0 c -19.726,35.641 -45.176,59.727 -75.633,64.582 -3.136,0.473 -11.984,1.406 -16.847,1.695 v 0 l -131.508,-1.546 v 0 c -2.809,-0.508 -5.723,-0.977 -8.496,-1.661 -38.125,-8.347 -62.856,-47.66 -82.223,-82.043 -2.125,-1.546 -4.215,-3.816 -4.824,-6.55 -0.18,-0.61 -0.684,-3.024 -1.117,-3.532 -2.305,-2.914 -5.543,-3.019 -7.524,-9.863 -1.152,-4.101 -0.324,-8.781 0.938,-12.527 -12.496,-32.977 -19.442,-74.047 -23.117,-108.938 -1.403,-1.472 -2.805,-3.129 -3.918,-4.855 -1.59,-2.34 -2.305,-5.223 -2.051,-8.063 0.176,-2.269 1.109,-4.539 2.445,-6.414 0.828,-1.183 1.688,-2.445 2.625,-3.562 -0.14,-3.344 -0.429,-8.317 -0.504,-11.625 -0.214,-6.52 -0.214,-15.989 -0.144,-22.5 0.039,-5.871 0.039,-14.473 -0.07,-20.375 -0.219,-9.219 -0.325,-27.071 2.484,-35.86 0.285,-0.824 0.723,-2.375 0.539,-3.234 -0.031,-0.293 -0.359,-0.906 -0.469,-1.121 -0.25,-0.363 -0.574,-0.969 -0.609,-1.367 -0.18,-0.969 0.14,-2.485 0.43,-3.418 0.218,-0.832 0.542,-2.199 0.394,-3.028 -0.066,-0.429 -0.609,-1.261 -0.898,-1.652 -0.215,-0.254 -0.536,-0.762 -0.715,-1.152 -0.867,-1.77 -0.832,-3.887 -0.254,-5.762 0.359,-1.445 1.043,-2.812 1.98,-4.031 0.141,-0.215 3.633,-4.824 3.743,-5.11 0.464,-1.125 0.828,-3.347 0.937,-4.582 1.117,-8.269 3.777,-20.332 6.117,-30.164 v 0 l 9.035,9.035 v 0" /><path
         id="path30"
         style="fill:#231f20;fill-opacity:1;fill-rule:nonzero;stroke:none"
         d="m 498.715,439 -11.914,-11.922 v 0 c 0.402,-7.484 0.578,-15.008 0.508,-22.531 -0.106,-14.258 -0.868,-29.844 -3.172,-43.922 -1.035,-6.367 -2.657,-12.703 -4.785,-18.828 -1.301,-3.457 -2.883,-6.875 -4.864,-10.012 -0.929,-1.512 -2.48,-3.633 -3.527,-5.066 v 0 l 5.586,-26.864 v 0 c 1.476,1.875 3.672,4.688 5.109,6.661 4.5,6.589 7.852,13.867 10.078,21.57 3.282,11.621 5.477,23.898 7.02,35.891 1.516,12.093 2.375,24.367 2.305,36.535 0,12.816 -0.899,25.777 -2.344,38.488 v 0" /><path
         id="path32"
         style="fill:#231f20;fill-opacity:1;fill-rule:nonzero;stroke:none"
         d="m 464.488,524.605 10.977,10.981 v 0 c -1.301,3.062 -2.695,6.086 -4.074,8.57 -1.395,2.594 -3.739,6.332 -5.36,8.817 -1.73,-2.66 -3.164,-5.473 -4.25,-8.387 -1.258,-3.168 -2.156,-6.555 -2.586,-9.898 1.543,-2.879 3.485,-6.551 5.293,-10.083 v 0" /><path
         id="path34"
         style="fill:#ffffff;fill-opacity:1;fill-rule:nonzero;stroke:none"
         d="m 493.93,240.742 c -6.016,-0.281 -10.586,5.227 -9.141,11.055 1.477,6.047 8.645,8.75 13.82,5.187 1.551,-1.117 2.625,-2.589 3.243,-4.355 0.644,-1.77 0.722,-3.637 0.183,-5.441 -0.508,-1.836 -1.551,-3.379 -3.027,-4.532 -1.512,-1.152 -3.203,-1.804 -5.078,-1.914 v 0" /><path
         id="path36"
         style="fill:#ffffff;fill-opacity:1;fill-rule:nonzero;stroke:none"
         d="m 511.969,255.215 c 0.105,1.23 0.215,2.414 0.429,3.644 0.321,2.301 1.153,4.571 2.383,6.551 2.117,3.313 5.43,5.645 9.102,6.906 1.406,0.504 4.969,1.727 6.406,1.512 1.297,-0.281 2.305,-1.262 2.813,-2.558 0.429,-1.258 0.144,-2.657 -0.684,-3.743 -0.832,-1.043 -3.996,-3.882 -4.934,-4.785 -2.703,-2.41 -5.722,-4.324 -9.07,-5.586 -1.984,-0.789 -4.465,-1.433 -6.445,-1.941 v 0" /><path
         id="path38"
         style="fill:#ffffff;fill-opacity:1;fill-rule:nonzero;stroke:none"
         d="m 548.148,291.582 c -0.722,-1.594 -2.488,-4.687 -4.179,-4.465 -1.219,0.11 -1.864,1.762 -1.981,3.02 -0.39,3.75 0.762,8.32 1.914,11.953 0.828,2.414 1.621,5.91 2.157,8.43 0.402,1.863 1.007,4.57 1.554,6.472 0.711,2.383 2.012,6.301 3.887,7.996 1.289,1.117 3.164,1.223 4.531,0.18 1.043,-0.832 1.258,-2.559 1.153,-3.852 -0.286,-2.273 -1.223,-5.261 -1.985,-7.378 -1.472,-4.321 -2.801,-8.821 -3.953,-13.286 -0.793,-3.023 -1.836,-6.226 -3.098,-9.07 v 0" /><path
         id="path40"
         style="fill:#ffffff;fill-opacity:1;fill-rule:nonzero;stroke:none"
         d="m 558.871,338.738 c -0.75,0.071 -1.543,0.395 -2.078,0.942 -0.938,1.043 -1.484,2.476 -1.699,3.914 -0.469,3.75 -0.324,7.851 0,11.711 0.105,1.863 0.215,4.57 0.215,6.433 0.039,2.168 0.144,5.227 0.398,7.383 0.148,1.984 0.684,4.246 1.797,5.942 0.762,1.222 2.199,1.945 3.672,1.691 1.445,-0.215 2.492,-1.477 2.988,-2.844 0.871,-2.379 1.047,-5.183 0.871,-7.699 -0.039,-1.121 -0.148,-2.773 -0.215,-3.856 -0.109,-2.265 -0.332,-5.507 -0.617,-7.777 -0.144,-1.512 -1.082,-9.363 -1.367,-10.867 -0.215,-1.445 -0.762,-3.106 -1.688,-4.219 -0.546,-0.574 -1.484,-0.754 -2.277,-0.754 v 0" /><path
         id="path42"
         style="fill:#ffffff;fill-opacity:1;fill-rule:nonzero;stroke:none"
         d="m 565.316,393.168 c -0.136,-1.152 -0.535,-2.84 -1.406,-3.633 -0.898,-0.758 -2.441,-0.574 -3.594,-0.144 -1.191,0.504 -2.128,1.547 -2.519,2.804 -0.762,2.703 -0.867,5.946 -0.723,8.75 0,0.719 -0.828,14.543 -0.859,15.227 -0.184,2.812 -0.293,7.562 1.074,10.082 0.723,1.441 2.375,2.086 3.965,1.945 1.543,-0.109 2.91,-1.336 3.742,-2.668 1.367,-2.011 2.09,-4.461 2.195,-6.875 0.176,-4.355 -0.32,-10.293 -0.75,-14.578 -0.117,-1.113 -0.226,-2.594 -0.332,-3.633 -0.214,-2.414 -0.5,-4.898 -0.793,-7.277 v 0" /><path
         id="path44"
         style="fill:#ffffff;fill-opacity:1;fill-rule:nonzero;stroke:none"
         d="m 561.684,439.574 c -0.75,-0.394 -1.981,-0.07 -2.735,0.215 -1.765,0.652 -3.172,1.984 -3.855,3.672 -1.543,3.855 -2.266,8.711 -2.656,12.777 -0.149,1.77 -0.618,4.36 -0.872,6.051 -0.398,2.484 -0.898,6.012 -0.937,8.496 0,2.02 0.43,4.215 1.66,5.762 0.938,1.152 2.52,1.582 3.996,1.441 1.153,-0.113 2.371,-0.543 3.094,-1.48 1.047,-1.508 1.555,-3.488 1.769,-5.254 0.137,-0.973 1.649,-12.492 1.797,-13.465 0.899,-4.465 1.543,-9.644 1.114,-14.219 -0.176,-1.582 -0.899,-3.351 -2.375,-3.996 v 0" /><path
         id="path46"
         style="fill:#ffffff;fill-opacity:1;fill-rule:nonzero;stroke:none"
         d="m 516.285,584.004 c -0.39,-0.356 -2.187,1.301 -2.656,1.695 -1.875,1.656 -3.496,3.563 -4.824,5.723 -0.832,1.437 -1.016,3.133 -0.547,4.715 0.437,1.621 1.914,2.703 3.601,2.703 4.102,-0.145 7.454,-3.891 10.188,-6.985 0.937,-1.042 2.266,-2.484 3.203,-3.457 -1.867,-0.179 -6.945,-2.699 -8.965,-4.394 v 0" /><path
         id="path48"
         style="fill:#ffffff;fill-opacity:1;fill-rule:nonzero;stroke:none"
         d="m 488.961,599.02 c -6.731,1.152 -10.227,8.531 -6.945,14.472 3.527,6.297 12.453,6.727 16.593,0.824 1.082,-1.582 1.7,-3.418 1.727,-5.398 0.078,-1.906 -0.43,-3.781 -1.473,-5.438 -1.047,-1.656 -2.519,-2.914 -4.289,-3.746 -1.758,-0.75 -3.672,-1.039 -5.613,-0.714 v 0" /><path
         id="path50"
         style="fill:#ffffff;fill-opacity:1;fill-rule:nonzero;stroke:none"
         d="m 475.57,598.047 c -2.156,-1.762 -4.785,-3.168 -7.488,-4.031 -0.605,2.515 -1.906,4.855 -3.742,6.66 1.875,1.004 4.785,2.41 6.945,3.308 1.082,-2.086 2.52,-4.175 4.285,-5.937 v 0" /><path
         id="path52"
         style="fill:#ffffff;fill-opacity:1;fill-rule:nonzero;stroke:none"
         d="m 460.523,584.043 c -1.261,-2.305 -3.351,-6.98 -4.425,-9.434 -2.664,-5.976 -5.653,-11.914 -8.965,-17.64 -0.867,-1.617 -2.344,-3.742 -3.965,-4.531 -1.152,-0.543 -2.52,-0.254 -3.633,0.281 -0.859,0.433 -1.765,1.152 -1.98,2.09 -0.254,1.367 0.32,3.351 0.789,4.683 1.699,4.965 3.75,10.078 5.976,14.793 v 0 l 7.598,15.805 v 0 c 1.262,1.547 3.312,2.195 5.363,2.09 0.977,-0.035 2.09,-0.867 2.852,-1.551 1.152,-1.078 1.758,-2.734 1.367,-4.32 -0.148,-0.719 -0.656,-1.618 -0.977,-2.266 v 0" /><path
         id="path54"
         style="fill:#ffffff;fill-opacity:1;fill-rule:nonzero;stroke:none"
         d="m 439.391,533.496 c -0.5,-2.012 -1.047,-5 -1.438,-7.09 -0.144,-0.863 -0.43,-2.156 -0.574,-3.023 -0.617,-3.094 -1.621,-7.488 -2.344,-10.586 -0.578,-2.52 -1.406,-6.266 -1.984,-8.856 -0.242,-1.187 -0.75,-3.238 -1.582,-4.211 -0.715,-0.828 -1.867,-1.117 -2.949,-1.007 -0.79,0.07 -1.622,0.433 -2.051,1.152 -1.043,1.617 -1.227,3.742 -1.043,5.613 0.429,4.973 1.222,10.082 2.015,14.977 0.579,3.101 1.223,7.203 1.547,10.223 0.215,1.945 0.793,6.628 1.621,8.281 0.579,1.187 1.797,2.015 3.059,2.519 1.445,0.543 3.094,0.328 4.285,-0.609 1.223,-0.863 1.945,-2.195 1.945,-3.672 0,-1.227 -0.214,-2.559 -0.507,-3.711 v 0" /><path
         id="path56"
         style="fill:#ffffff;fill-opacity:1;fill-rule:nonzero;stroke:none"
         d="m 456.676,299.68 c 0.176,-1.223 0.105,-2.414 -0.149,-3.528 -0.32,-1.257 -1.152,-2.519 -2.41,-2.839 -1.222,-0.293 -2.375,0.574 -3.097,1.582 -1.661,2.371 -2.813,5.789 -3.563,8.562 -0.723,2.703 -2.266,6.301 -3.418,8.816 -0.617,1.372 -1.516,3.313 -2.051,4.692 -1.445,3.738 -3.312,9.285 -3.027,13.277 0.105,1.367 0.937,2.668 1.941,3.676 0.938,0.855 2.2,1.324 3.391,0.965 1.836,-0.535 3.094,-2.305 3.738,-4.063 0.793,-2.09 1.731,-6.191 2.16,-8.32 0.868,-3.848 2.52,-9.07 3.778,-12.812 1.086,-3.133 2.16,-6.766 2.707,-10.008 v 0" /><path
         id="path58"
         style="fill:#ffffff;fill-opacity:1;fill-rule:nonzero;stroke:none"
         d="m 473.344,261.984 c -1.336,-1.332 -3.321,-2.082 -5.008,-1.437 -1.113,0.469 -2.481,1.516 -3.418,2.266 -3.527,2.921 -6.77,6.335 -9.367,10.117 -0.535,0.832 -2.625,3.925 -2.84,4.89 -0.324,1.125 0.039,2.348 0.867,3.176 1.008,0.969 2.59,1.262 3.957,1.184 1.981,-0.032 3.926,-0.864 5.399,-2.192 1.152,-1.043 2.48,-2.633 3.418,-3.922 0.937,-1.156 2.304,-2.773 3.351,-3.886 1.152,-1.157 4.5,-4.692 5.078,-6.235 0.43,-1.367 -0.402,-2.945 -1.437,-3.961 v 0" /><path
         id="path60"
         style="fill:#ffffff;fill-opacity:1;fill-rule:nonzero;stroke:none"
         d="m 473.844,248.34 c -0.539,-4.895 1.004,-9.785 4.316,-13.43 2.742,-3.055 6.59,-5.035 10.77,-5.535 v 0 l 3.203,-40.574 v 0 c -1.153,-0.539 -2.918,-1.367 -3.965,-2.09 -2.41,-1.762 -4.141,-4.785 -5.215,-7.52 -1.512,-3.644 -2.449,-7.492 -2.918,-11.347 -0.215,-2.051 -0.469,-4.172 -0.605,-6.223 -5.84,2.41 -14.367,6.113 -19.66,9.395 -5.293,3.308 -10.625,7.882 -15.196,12.168 -6.445,6.125 -12.488,12.597 -18.035,19.55 -4.137,5.071 -8.531,10.938 -11.844,16.551 -1.547,2.602 -3.562,6.555 -5.004,9.262 3.672,2.769 6.446,6.621 7.848,11.016 1.516,4.57 1.441,9.5 -0.105,14.148 v 0 l 26.312,25.945 v 0 c -0.109,-1.07 -0.215,-2.222 -0.137,-3.34 0,-1.765 0.43,-3.535 1.258,-5.046 0.754,-1.504 1.797,-2.977 2.805,-4.317 v 0 l 13.25,-13.75 v 0 c 1.047,-0.937 2.16,-1.875 3.234,-2.703 1.727,-1.262 3.75,-2.266 5.907,-2.414 1.113,-0.106 2.707,0.117 3.781,0.254 v 0" /><path
         id="path62"
         style="fill:#ffffff;fill-opacity:1;fill-rule:nonzero;stroke:none"
         d="m 416.316,495.375 -33.765,20.914 v 0 c 0,1.152 0,2.914 -0.215,4.066 -0.398,2.594 -1.551,5.114 -2.988,7.278 -1.875,2.84 -4.25,5.328 -7.168,7.09 -1.367,0.828 -2.918,1.656 -4.36,2.379 0.578,2.3 1.336,5.718 1.95,8.027 2.195,8.926 4.82,17.961 7.921,26.641 2.875,7.918 6.227,15.796 9.864,23.429 0.968,2.164 2.48,5.262 3.523,7.383 2.305,-0.937 5.152,-1.98 7.633,-2.305 2.773,-0.433 5.613,0.184 8.207,1.332 0.832,0.36 1.695,0.758 2.52,1.188 v 0 l 24.335,-27.504 v 0 c -0.281,-0.719 -0.722,-1.836 -1.003,-2.52 -0.977,-2.773 -2.016,-5.617 -2.848,-8.386 -1.039,-3.239 -1.692,-6.805 -1.547,-10.227 0,-0.933 0.18,-2.375 0.289,-3.344 -0.398,-0.109 -0.934,-0.253 -1.328,-0.394 -1.77,-0.652 -3.211,-2.059 -4.074,-3.711 -1.328,-2.555 -2.157,-5.473 -2.696,-8.352 -1.117,-5.437 -2.089,-11.125 -2.812,-16.629 -0.215,-1.589 -0.535,-3.679 -0.824,-5.261 -0.723,-3.926 -1.188,-7.844 -1.477,-11.805 -0.07,-1.516 -0.219,-4.394 -0.07,-5.941 0.105,-0.758 0.715,-2.594 0.933,-3.348 v 0" /><path
         id="path64"
         style="fill:#ffffff;fill-opacity:1;fill-rule:nonzero;stroke:none"
         d="m 437.555,585.484 -22.965,24.731 v 0 c 0.394,0.973 0.793,2.086 1.113,3.129 0.723,2.344 0.863,4.824 0.543,7.238 -0.394,2.773 -1.441,5.398 -3.027,7.738 -1.328,1.985 -5.399,3.352 -6.985,5.153 14.657,20.664 38.633,39.418 60.879,51.586 3.672,-6.297 11.34,-11.305 18.535,-11.629 v 0 l -0.066,-43.813 v 0 c -6.484,-0.933 -11.887,-6.441 -12.707,-13.031 -1.59,-0.609 -3.965,-1.473 -5.398,-2.375 -2.454,-1.441 -4.649,-3.313 -6.485,-5.512 -0.429,-0.535 -1.769,-2.121 -2.304,-2.59 -0.54,-0.355 -1.477,-0.754 -2.09,-0.972 -0.5,-0.18 -1.223,-0.43 -1.653,-0.719 -0.547,-0.324 -1.23,-0.938 -1.66,-1.367 -0.32,-0.285 -0.937,-0.903 -1.328,-1.117 -0.254,-0.215 -4.324,-1.801 -4.609,-1.911 -2.703,-1.039 -4.649,-3.492 -5.614,-6.222 -1.046,-2.778 -2.199,-5.547 -3.566,-8.211 v 0 l -0.105,-0.145 -0.188,-0.07 h -0.176 l -0.144,0.109 v 0" /><path
         id="path66"
         style="fill:#ffffff;fill-opacity:1;fill-rule:nonzero;stroke:none"
         d="m 566.109,496.742 26.856,14.723 v 0 c 1.699,-3.098 4.14,-5.688 7.098,-7.559 3.808,-2.379 8.203,-3.418 12.667,-2.953 0.43,-3.492 1.043,-8.387 1.473,-11.844 0.793,-6.336 1.875,-15.625 2.199,-22.066 0.293,-5.328 0.215,-13.215 0.106,-18.613 -3.848,-0.285 -7.598,-1.551 -10.828,-3.672 -3.137,-2.086 -5.657,-4.969 -7.383,-8.317 v 0 l -27.793,-0.503 v 0 c 0.32,0.324 0.828,0.863 1.152,1.226 0.899,1.188 1.66,2.555 1.942,3.992 0.324,2.051 0.215,4.973 0.039,6.989 -0.215,2.914 -0.684,7.23 -1.082,10.183 -0.215,1.766 -0.539,4.36 -0.723,6.16 -0.539,5.075 -1.437,10.512 -2.805,15.446 -0.507,1.796 -1.328,3.562 -2.48,5.039 -0.652,0.933 -1.551,1.941 -2.305,2.769 0.324,0.578 1.008,1.871 1.223,2.59 0.535,1.875 0.644,4.43 0.644,6.41 v 0" /><path
         id="path68"
         style="fill:#ffffff;fill-opacity:1;fill-rule:nonzero;stroke:none"
         d="m 574.32,425.645 23.223,0.898 v 0 c 1.152,-4.246 3.527,-7.918 6.945,-10.691 3.457,-2.809 7.742,-4.465 12.207,-4.614 -0.109,-3.738 -0.215,-9.211 -0.402,-12.883 -0.215,-7.558 -0.605,-16.238 -1.18,-23.792 -0.363,-4.54 -1.047,-11.204 -1.554,-15.774 -1.473,-0.066 -3.094,-0.176 -4.649,-0.359 -2.91,-0.364 -5.828,-1.262 -8.347,-2.778 -1.368,-0.894 -2.805,-1.863 -4.141,-2.879 v 0 l -21.672,13.211 v 0 c 0.215,1.809 0.402,3.75 0.539,5.547 0.184,2.563 0.106,5.262 -0.324,7.707 -0.391,2.09 -1.219,4.68 -1.863,6.735 0.32,0.824 1.003,2.699 1.218,3.562 0.645,2.875 1.047,8.82 1.262,11.735 0.039,1.695 0.039,4.175 0,5.835 -0.07,2.985 -0.07,7.165 0.613,10.079 0.352,1.761 0.645,4.609 -0.574,5.937 v 0 l -1.484,2.195 -0.032,0.11 0.032,0.105 0.078,0.074 0.105,0.04 v 0" /><path
         id="path70"
         style="fill:#ffffff;fill-opacity:1;fill-rule:nonzero;stroke:none"
         d="m 573.238,353.605 18.25,-10.617 v 0 c 0.078,-1.875 0.188,-3.965 0.442,-5.832 0.457,-2.879 1.609,-5.797 3.699,-7.808 3.781,-3.75 9.582,-6.418 14.582,-8.215 -0.539,-3.133 -1.438,-7.774 -2.09,-10.906 -1.437,-6.582 -3.234,-13.325 -5.215,-19.766 -1.875,-5.871 -4.211,-12.641 -6.23,-18.469 -1.113,-3.015 -2.629,-7.449 -3.742,-10.476 -1.446,0.398 -3.418,0.933 -4.864,1.375 -3.054,0.898 -7.488,1.945 -10.652,1.543 -2.305,-0.254 -4.758,-1.582 -6.66,-2.95 -0.539,-0.398 -1.113,-0.832 -1.66,-1.23 v 0 l -19.153,14.875 v 0 c 0.762,0.75 2.414,2.371 3.098,3.164 2.559,3.172 4.715,7.781 6.297,11.453 1.984,4.934 3.859,10.149 5.48,15.156 1.473,4.602 3.016,9.973 4.063,14.688 0.652,3.203 0.762,6.515 0.215,9.648 -0.325,1.582 -0.754,3.45 -1.262,5 0.937,0.723 2.812,2.129 3.566,3.028 1.942,2.199 2.305,5.429 1.875,8.347 -0.429,2.485 -0.644,5.078 -0.644,7.602 v 0 l 0.027,0.215 0.11,0.175 0.214,0.04 0.254,-0.04 v 0" /><path
         id="path72"
         style="fill:#ffffff;fill-opacity:1;fill-rule:nonzero;stroke:none"
         d="m 546.234,265.84 19.7,-14.617 v 0 c -0.215,-0.864 -0.43,-1.907 -0.539,-2.844 -0.399,-3.027 0.214,-6.121 1.757,-8.75 0.977,-1.758 2.2,-3.418 3.567,-4.863 2.41,-2.52 5.183,-5.039 7.812,-7.411 -1.543,-2.992 -3.136,-6.156 -4.679,-9.14 -3.243,-6.164 -6.836,-12.102 -10.84,-17.785 -4.571,-6.485 -9.864,-12.532 -15.692,-18.035 -5,-4.68 -10.617,-9.075 -16.562,-12.493 -3.098,-1.765 -7.774,-3.925 -11.016,-5.398 -0.429,2.156 -0.969,4.383 -1.476,6.473 -1.004,3.925 -2.52,7.668 -4.676,11.093 -1.367,2.305 -3.352,4.571 -5.723,5.828 -1.262,0.727 -3.457,1.293 -4.902,1.653 v 0 l -3.918,39.707 v 0 c 4.023,1.015 7.558,3.43 9.933,6.847 1.981,2.801 3.055,6.231 3.028,9.688 1.367,0.32 4.316,1.004 5.644,1.473 2.528,0.937 6.016,2.882 8.36,4.25 1.433,0.82 3.593,2.05 5.066,2.8 2.774,1.368 9.649,4.864 11.887,6.954 0.937,0.859 2.586,3.457 3.269,4.57 v 0" /><path
         id="path74"
         style="fill:#ffffff;fill-opacity:1;fill-rule:nonzero;stroke:none"
         d="m 508.297,159.746 c -1.192,-2.09 -6.914,-1.66 -9.289,-1.328 -2.703,0.391 -5.438,0.82 -8.133,1.398 0.105,2.743 0.215,5.614 0.32,8.282 0.149,3.172 0.86,6.336 2.414,9.109 1.114,1.984 3.133,3.527 5.438,3.527 2.91,0.039 5.617,-1.73 6.769,-4.355 0.789,-1.731 1.114,-3.598 1.289,-5.473 0.04,-1.043 0.145,-2.664 0.36,-3.777 0.187,-0.828 1.23,-6.66 0.832,-7.383 v 0" /><path
         id="path76"
         style="fill:#ffffff;fill-opacity:1;fill-rule:nonzero;stroke:none"
         d="m 405.66,236.492 -0.539,0.078 -0.433,0.434 v 0 c -1.403,2.305 -2.661,4.82 -3.708,7.383 -0.863,2.304 -2.23,4.676 -3.531,6.765 1.012,0.215 2.055,0.364 3.063,0.539 1.73,0.293 3.566,0.106 5.218,-0.539 1.766,-0.722 2.958,-2.382 3.567,-4.14 0.719,-2.305 0.289,-4.864 -1.043,-6.875 -0.109,-0.215 -2.309,-3.645 -2.594,-3.645 v 0" /><path
         id="path78"
         style="fill:#ffffff;fill-opacity:1;fill-rule:nonzero;stroke:none"
         d="m 362.461,508.477 c -0.609,0.683 1.977,7.738 2.305,8.601 0.824,2.309 1.152,5.188 1.257,7.633 2.27,-1.039 4.645,-2.41 6.336,-4.207 1.621,-1.656 2.375,-3.961 1.661,-6.125 -0.832,-2.586 -3.028,-4.496 -5.622,-5.285 -1.152,-0.364 -5.113,-1.481 -5.937,-0.617 v 0" /><path
         id="path80"
         style="fill:#ffffff;fill-opacity:1;fill-rule:nonzero;stroke:none"
         d="m 396.301,611.656 c -0.719,1.043 2.304,5.434 3.023,6.481 1.438,2.051 2.703,4.535 3.742,6.765 1.043,-1.043 2.09,-2.23 2.918,-3.531 1.262,-1.902 1.871,-4.496 0.829,-6.586 -1.153,-2.41 -3.672,-3.777 -6.333,-3.777 -0.832,-0.074 -3.746,-0.074 -4.179,0.648 v 0" /><path
         id="path82"
         style="fill:#ffffff;fill-opacity:1;fill-rule:nonzero;stroke:none"
         d="m 477.582,688.91 1.555,1.871 v 0 c 5.574,1.801 11.883,1.762 18.035,1.516 -0.867,-2.453 -2.305,-5.871 -4.18,-7.633 -4.168,-3.926 -16.015,-1.336 -15.41,4.246 v 0" /><path
         id="path84"
         style="fill:#ffffff;fill-opacity:1;fill-rule:nonzero;stroke:none"
         d="m 607.875,531.125 0.605,-0.363 0.293,-0.684 v 0 c 0.54,-3.168 0.86,-6.555 0.938,-9.828 0.031,-2.914 0.43,-6.156 0.859,-9.035 -2.05,0.324 -4.179,0.863 -6.043,1.765 -2.382,1.114 -4.074,3.204 -4.464,5.719 -0.438,2.629 0.285,5.328 1.796,7.492 1.114,1.547 4.211,5.508 6.016,4.934 v 0" /><path
         id="path86"
         style="fill:#ffffff;fill-opacity:1;fill-rule:nonzero;stroke:none"
         d="m 617.164,438.891 c 3.418,-2.45 -0.254,-13.106 0,-17.352 -2.238,0.106 -4.797,0.504 -6.809,1.441 -1.66,0.754 -2.878,2.336 -3.496,4.067 -0.75,1.98 -0.82,4.246 0.079,6.156 0.859,1.945 2.48,3.457 4.386,4.356 1.231,0.609 4.688,2.16 5.84,1.332 v 0" /><path
         id="path88"
         style="fill:#ffffff;fill-opacity:1;fill-rule:nonzero;stroke:none"
         d="m 611.078,331.465 c -0.652,-0.281 -3.457,1.047 -4.109,1.367 -2.121,0.977 -3.957,2.598 -5.149,4.609 -1.074,1.946 -0.859,4.317 0.293,6.192 1.262,2.09 3.418,3.496 5.793,4.101 1.766,0.508 3.75,0.801 5.547,1.016 -0.508,-2.883 -0.937,-6.055 -0.871,-8.965 0,-1.551 0,-7.742 -1.504,-8.32 v 0" /><path
         id="path90"
         style="fill:#ffffff;fill-opacity:1;fill-rule:nonzero;stroke:none"
         d="m 590.414,251.758 c -1.23,-2.481 -2.488,-4.961 -3.75,-7.371 -1.043,-1.946 -2.09,-3.86 -3.203,-5.727 -1.473,0.93 -3.055,1.977 -4.422,3.125 -2.023,1.594 -3.281,3.93 -3.644,6.379 -0.282,1.731 0.148,3.484 1.3,4.746 1.043,1.153 2.559,1.914 4.071,1.914 3.273,-0.039 6.769,-1.511 9.648,-3.066 v 0" /><path
         id="path92"
         style="fill:#ffffff;fill-opacity:1;fill-rule:nonzero;stroke:none"
         d="m 452.965,160.148 -84.172,-1.046 v 0 c 0.437,0.5 1.48,1.582 1.875,2.16 0.863,1.187 2.699,4.715 3.418,6.043 0.937,1.875 9.578,15.73 10.66,17.5 1.442,2.265 3.313,5.722 4.645,8.093 1.441,2.739 3.632,6.665 5.289,9.29 1.371,2.089 3.996,6.335 4.715,8.71 0.507,1.77 0.543,5.008 0.543,6.805 1.042,-2.012 2.664,-4.89 3.812,-6.805 0.613,-1.043 12.891,-16.699 13.574,-17.636 5.078,-6.407 12.383,-15.008 19.293,-19.473 5.762,-3.777 11.485,-7.961 16.778,-12.383 v 0 l 0.214,-0.359 v -0.473 l -0.285,-0.32 -0.359,-0.106 v 0" /><path
         id="path94"
         style="fill:#ffffff;fill-opacity:1;fill-rule:nonzero;stroke:none"
         d="m 361.738,167.559 c -1.367,-2.305 -4.281,-3.418 -6.66,-2.09 -1.262,0.656 -2.156,1.914 -2.519,3.347 -0.469,1.477 -0.684,3.313 -0.071,4.789 0.793,1.915 2.055,3.778 3.348,5.438 v 0 l 25.883,30.996 v 0 c 0.328,0.645 0.832,1.262 1.367,1.691 0.648,0.614 1.66,0.719 2.484,0.293 0.653,-0.332 1.047,-1.085 0.938,-1.875 -0.07,-0.832 -0.434,-1.664 -0.899,-2.375 v 0 l -23.871,-40.214 v 0" /><path
         id="path96"
         style="fill:#ffffff;fill-opacity:1;fill-rule:nonzero;stroke:none"
         d="m 342.086,166.875 -0.469,-0.215 -0.469,0.11 v 0 c -1.761,1.113 -3.492,2.41 -4.964,3.816 -3.032,2.844 -6.661,5.723 -9.977,8.164 -1.293,1.016 -2.914,2.234 -4.176,3.281 -4.25,3.606 -8.965,8.86 -12.597,13.067 -3.746,4.355 -8.102,10.078 -11.45,14.648 -2.015,2.813 -5.004,6.887 -7.054,9.688 v 0 l 40.859,-0.149 v 0 c 1.149,0.039 2.41,0.11 3.563,0.219 1.257,0.144 2.558,0.547 3.597,1.187 0.653,0.469 1.371,1.047 1.91,1.625 v 0 l 38.914,-1.554 v 0 c -0.648,-0.43 -1.976,-1.328 -2.589,-1.836 -1.692,-1.367 -3.633,-3.485 -5.004,-5.149 v 0 l -25.524,-31.746 v 0 c -1.152,-1.621 -3.097,-4.211 -3.746,-6.086 -0.574,-1.687 -0.609,-4.675 -0.574,-6.48 0,-0.395 0,-2.27 -0.25,-2.59 v 0" /><path
         id="path98"
         style="fill:#ffffff;fill-opacity:1;fill-rule:nonzero;stroke:none"
         d="m 344.316,230.234 c -0.035,0.938 -0.105,1.875 -0.144,2.813 -0.109,1.367 -0.18,2.805 -0.215,4.25 v 0 l 33.086,2.437 v 0 c 1.508,0.188 3.742,0.188 5.109,-0.535 1.293,-0.722 1.981,-2.48 2.125,-3.965 0.18,-1.433 0,-3.203 -0.937,-4.25 -0.684,-0.75 -2.305,-1.367 -3.277,-1.687 v 0 l -35.747,0.937 v 0" /><path
         id="path100"
         style="fill:#ffffff;fill-opacity:1;fill-rule:nonzero;stroke:none"
         d="m 360.984,301.152 -39.203,-39.199 v 0 c 1.153,0.32 2.235,0.86 3.239,1.582 1.043,0.789 2.089,1.653 3.062,2.559 v 0 l 27.539,26.64 v 0 c 0.719,0.711 1.981,2.012 2.52,2.84 0.609,0.942 1.941,3.637 2.379,4.641 0.14,0.293 0.285,0.613 0.464,0.937 v 0" /><path
         id="path102"
         style="fill:#ffffff;fill-opacity:1;fill-rule:nonzero;stroke:none"
         d="m 244.199,356.125 c -0.648,1.016 -1.113,2.234 -1.113,3.426 0.066,1.113 0.578,2.187 1.328,3.015 0.828,0.942 1.836,1.836 2.809,2.602 v 0 l 26.465,14.434 v 0 c 1.292,0.214 2.875,0.32 4.027,-0.11 1.047,-0.359 1.836,-1.301 2.199,-2.344 0.395,-1.078 0.5,-2.445 -0.144,-3.492 -0.508,-0.898 -1.407,-1.652 -2.165,-2.34 v 0 l -21.558,-14.402 v 0 c -1.656,-1.113 -3.492,-2.187 -5.367,-2.871 -1.367,-0.547 -2.914,-0.547 -4.211,0 -0.938,0.461 -1.727,1.262 -2.27,2.082 v 0" /><path
         id="path104"
         style="fill:#ffffff;fill-opacity:1;fill-rule:nonzero;stroke:none"
         d="m 295.898,384.566 c -0.543,1.442 -0.976,3.383 -0.144,4.645 0.754,1.187 2.625,2.121 3.887,2.699 v 0 l 28.582,16.055 v 0 c 0.543,0.508 1.332,1.043 2.054,1.332 0.793,0.328 1.727,0.039 2.45,-0.504 1.113,-0.863 1.332,-2.375 0.609,-3.563 -0.43,-0.683 -1.078,-1.261 -1.766,-1.761 v 0 l -26.961,-18.797 v 0 c -0.722,-0.645 -1.546,-1.258 -2.379,-1.727 -1.257,-0.793 -2.804,-1.007 -4.171,-0.578 -0.973,0.399 -1.696,1.262 -2.161,2.199 v 0" /><path
         id="path106"
         style="fill:#ffffff;fill-opacity:1;fill-rule:nonzero;stroke:none"
         d="m 243.191,372.941 c -0.039,1.547 -0.105,3.778 -0.179,5.399 -0.106,2.699 -0.254,6.66 -0.434,9.359 -0.105,3.164 -0.32,7.922 -0.504,11.16 -0.105,4.172 -0.32,10.188 -0.429,14.438 -0.04,2.016 -0.106,5.109 -0.145,7.125 -0.184,5.578 -0.504,16.019 -0.289,21.527 0.105,3.422 0.434,8.387 0.723,11.774 0.289,-0.325 0.757,-0.934 1.078,-1.188 0.937,-0.683 2.375,-1.117 3.492,-1.367 v 0 l 28.332,-12.961 v 0 c 0.902,-0.434 2.16,-1.082 3.133,-1.371 0.937,-0.289 2.445,-0.504 3.418,-0.535 0.394,-0.727 1.011,-1.731 1.441,-2.379 1.332,-1.797 2.914,-3.418 4.789,-4.606 1.332,-0.902 2.735,-1.726 4.141,-2.453 v 0 l 30.422,-12.816 v 0 c -0.867,-0.215 -2.742,-0.645 -3.641,-0.934 -2.953,-0.933 -7.269,-3.093 -10.078,-4.5 -1.801,-0.937 -4.32,-2.375 -6.082,-3.418 -1.984,-1.152 -4.863,-2.773 -6.84,-3.816 -3.316,-1.621 -6.66,-3.602 -9.578,-5.938 -0.938,-0.757 -1.875,-1.875 -2.16,-3.062 -0.145,-0.719 0,-1.981 0.105,-2.774 -0.972,0 -2.011,0 -3.023,0 -1.762,0 -4.281,-0.109 -5.938,-0.644 -1.152,-0.328 -2.699,-1.152 -3.746,-1.695 v 0 l -28.008,-14.325 v 0" /><path
         id="path108"
         style="fill:#ffffff;fill-opacity:1;fill-rule:nonzero;stroke:none"
         d="m 334.125,421.176 -3.738,-0.715 -33.879,15.402 v 0 c -1.727,0.832 -3.742,2.059 -5.039,3.457 -0.969,1.188 -1.371,2.809 -1.371,4.356 0.074,1.226 0.402,2.484 1.226,3.426 0.758,0.824 1.906,1.218 3.094,1.113 1.262,-0.145 2.52,-0.504 3.672,-1.008 11.055,-6.266 22.359,-13.031 32.906,-20.16 1.227,-0.758 2.914,-2.125 3.313,-3.567 0.105,-0.535 -0.071,-1.761 -0.184,-2.304 v 0" /><path
         id="path110"
         style="fill:#ffffff;fill-opacity:1;fill-rule:nonzero;stroke:none"
         d="m 279.301,449.402 -6.082,-0.504 -25.996,11.739 v 0 c -0.825,0.246 -2.266,0.824 -2.809,1.398 -1.152,1.192 -1.656,3.387 -1.797,4.973 -0.144,1.258 -0.144,3.094 0.535,4.176 0.618,0.894 1.77,1.257 2.848,1.152 1.113,-0.109 2.199,-0.613 3.203,-1.082 v 0 l 29.16,-18.399 v 0 c 0.504,-0.535 1.262,-1.472 1.332,-2.265 0,-0.324 -0.215,-0.938 -0.394,-1.188 v 0" /><path
         id="path112"
         style="fill:#ffffff;fill-opacity:1;fill-rule:nonzero;stroke:none"
         d="m 342.301,431.617 -42.406,25.164 v 0 c -1.411,0.867 -3.313,1.981 -4.86,2.52 -1.805,0.609 -4.074,0.648 -6.051,0.543 -0.898,-0.11 -1.761,-0.149 -2.668,-0.254 v 0 l -32.683,20.953 29.195,8.387 v 0 c 3.961,1.082 8.891,2.734 12.527,4.609 1.008,0.504 2.989,1.797 3.926,2.414 v 0 l 38.59,7.344 v 0 c 2.125,0.535 4.899,1.293 6.988,2.125 0.575,0.285 1.903,0.93 2.52,1.219 -0.543,-2.989 -1.371,-7.305 -1.805,-10.293 -1.078,-6.989 -1.726,-18.399 -2.051,-25.418 -0.394,-7.059 -1.007,-19.946 -1.117,-27.032 -0.105,-3.531 -0.105,-8.718 -0.105,-12.281 v 0" /><path
         id="path114"
         style="fill:#ffffff;fill-opacity:1;fill-rule:nonzero;stroke:none"
         d="m 245.605,487.813 h -0.218 l -0.035,0.074 -0.075,0.105 -0.214,1.875 v 0 c -0.075,1.262 0.437,2.449 1.367,3.348 0.937,0.863 2.379,1.691 3.457,2.269 v 0 l 29.843,10.762 v 0 c 2.051,0.828 4.395,1.442 6.625,1.258 1.403,-0.031 2.665,-0.754 3.348,-2.016 0.434,-0.824 0.434,-1.941 0.254,-2.875 -0.144,-0.863 -0.648,-1.695 -1.367,-2.238 -1.078,-0.824 -2.414,-1.434 -3.672,-1.836 v 0 l -39.313,-10.726 v 0" /><path
         id="path116"
         style="fill:#ffffff;fill-opacity:1;fill-rule:nonzero;stroke:none"
         d="m 302.52,505.094 c -0.106,1.011 -0.325,1.98 -0.61,2.914 -0.328,1.152 -0.722,2.269 -1.152,3.316 2.086,0.61 5.109,1.547 7.195,2.121 2.059,0.688 5.078,1.551 7.129,2.086 4.106,1.192 9.832,2.883 13.789,4.43 4.109,1.547 8.606,2.809 12.961,3.062 1.801,0.075 3.852,-0.363 5.039,-1.761 1.012,-1.196 1.227,-2.957 0.359,-4.289 -1.222,-1.797 -3.273,-2.95 -5.359,-3.528 -2.633,-0.754 -5.441,-1.367 -8.207,-1.875 v 0 l -31.144,-6.476 v 0" /><path
         id="path118"
         style="fill:#ffffff;fill-opacity:1;fill-rule:nonzero;stroke:none"
         d="m 244.563,501.133 h -0.29 l -0.214,0.105 -0.149,0.223 -0.07,0.289 v 0 c 0.398,3.309 1.008,6.586 1.836,9.789 0.359,1.473 3.457,21.668 3.672,23.219 1.261,8.097 4.285,19.008 6.66,26.82 1.836,6.082 4.789,14.906 6.879,20.918 0.32,-0.504 0.898,-1.406 1.258,-1.836 0.898,-0.937 2.339,-1.801 3.418,-2.414 v 0 l 25.058,-16.562 v 0 c 0.539,-0.215 1.367,-0.575 1.906,-0.684 0.684,-0.105 1.661,0.074 2.27,0.109 0.18,-0.539 0.43,-1.691 0.648,-2.191 0.899,-2.094 2.375,-3.895 3.961,-5.441 1.836,-1.762 3.813,-3.528 5.723,-5.114 v 0 l 26.93,-17.601 v 0 c -1.875,-0.395 -4.504,-0.938 -6.371,-1.332 -9,-2.051 -17.786,-4.86 -26.321,-8.496 -1.219,-0.469 -2.988,-1.262 -4.176,-1.797 v 0 l -0.289,-0.11 v 0 c -0.828,-0.398 -2.089,-0.937 -2.914,-1.257 -0.863,0.035 -2.09,0.14 -2.988,0.14 -2.625,0.074 -5.219,-0.32 -7.738,-1.152 -1.227,-0.43 -2.664,-0.973 -3.852,-1.477 v 0 L 249.633,504.16 v 0 c -1.113,-0.508 -2.266,-1.086 -3.235,-1.765 -0.148,-0.036 -0.578,-0.43 -0.722,-0.54 -0.11,-0.074 -0.934,-0.722 -1.113,-0.722 v 0" /><path
         id="path120"
         style="fill:#ffffff;fill-opacity:1;fill-rule:nonzero;stroke:none"
         d="m 349.898,536.129 -5.976,-0.438 -34.274,22.575 v 0 c -1.441,0.937 -3.023,2.199 -3.96,3.636 -0.79,1.082 -0.938,2.59 -0.723,3.961 0.289,1.692 1.152,3.313 2.633,4.25 1.039,0.645 2.34,1.078 3.527,0.789 1.043,-0.144 2.16,-0.574 3.094,-1.078 v 0 l 32.297,-23.691 v 0 c 1.761,-1.367 3.488,-3.024 4.535,-5.004 0.574,-1.149 0.644,-2.555 0.035,-3.781 -0.254,-0.395 -0.867,-0.93 -1.188,-1.219 v 0" /><path
         id="path122"
         style="fill:#ffffff;fill-opacity:1;fill-rule:nonzero;stroke:none"
         d="m 356.848,547.211 c -0.11,0.074 -0.399,0.543 -0.438,0.648 -0.215,0.399 -0.719,1.411 -1.004,1.731 v 0 l -4.105,3.887 v 0 c -8.746,8.281 -18.828,16.812 -29.016,23.183 -2.988,1.875 -6.371,3.672 -9.797,4.61 -1.218,0.394 -4.461,0.683 -5.687,0.722 v 0 l -21.02,19.473 v 0 c 3.098,0.578 7.664,1.406 10.762,1.941 4.289,0.832 13.789,2.594 18.145,3.242 2.519,0.399 6.265,0.903 8.859,1.227 2.082,-1.227 4.566,-2.305 7.16,-2.16 12.926,0.683 34.129,4.066 47.273,6.765 1.868,0.329 -0.222,-6.695 -1.046,-8.785 -1.875,-4.89 -5.219,-12.343 -7.418,-17.058 -1.332,-2.809 -6.336,-18.219 -7.27,-21.133 -1.047,-3.098 -3.746,-11.41 -4.285,-14.621 v 0 l -0.828,-3.488 -0.07,-0.071 -0.036,-0.039 -0.113,-0.074 h -0.066 v 0" /><path
         id="path124"
         style="fill:#ffffff;fill-opacity:1;fill-rule:nonzero;stroke:none"
         d="m 294.238,572.055 -25.593,16.558 v 0 c -0.719,1.117 -1.657,2.664 -1.872,3.961 -0.179,1.153 0.321,2.375 0.938,3.383 0.609,1.047 2.086,3.457 3.309,3.777 0.683,0.289 2.089,0.11 2.843,0 v 0 l 24.555,-21.125 v 0 c -1.117,-0.757 -1.98,-1.769 -2.699,-2.882 -0.723,-1.153 -1.227,-2.344 -1.481,-3.672 v 0" /><path
         id="path126"
         style="fill:#ffffff;fill-opacity:1;fill-rule:nonzero;stroke:none"
         d="m 277.141,609.855 c 0,2.59 0.648,5.184 1.8,7.524 0.789,1.547 1.762,2.988 2.989,4.246 v 0 l 30.922,2.051 v 0 c 1.257,-0.18 2.593,-0.395 3.82,-0.824 1.078,-0.434 2.016,-1.258 2.41,-2.379 0.215,-0.715 0,-1.547 -0.328,-2.196 -0.395,-0.718 -1.043,-1.328 -1.836,-1.582 -0.535,-0.289 -1.188,-0.468 -1.797,-0.578 v 0 l -37.98,-6.262 v 0" /><path
         id="path128"
         style="fill:#ffffff;fill-opacity:1;fill-rule:nonzero;stroke:none"
         d="m 286.355,630.375 c 13.215,21.242 32.583,42.367 52.344,56.375 0,-6.84 1.188,-13.57 6.875,-19.293 v 0 l 30.602,-30.707 -89.821,-6.375 v 0" /><path
         id="path130"
         style="fill:#ffffff;fill-opacity:1;fill-rule:nonzero;stroke:none"
         d="m 328.297,620.582 c 0,0.648 0,1.981 0.289,2.559 0.5,1.078 1.801,1.726 2.984,1.976 1.621,0.395 3.387,0.617 5.039,0.684 v 0 l 35.969,2.484 v 0 c 2.809,0 6.547,0.43 6.481,-3.383 0,-1.761 -1.875,-2.808 -3.422,-3.242 v 0 l -38.918,-5.508 v 0 c -1.367,-0.324 -2.84,-0.539 -4.207,-0.429 -1.442,0.179 -2.778,0.937 -3.492,2.199 -0.434,0.715 -0.653,1.473 -0.653,2.297 0,0.113 0,0.254 0,0.289 v 0 l -0.07,0.074 v 0" /><path
         id="path132"
         style="fill:#ffffff;fill-opacity:1;fill-rule:nonzero;stroke:none"
         d="m 399.145,645.133 -36.832,49.246 96.335,0.402 v 0 C 437.809,684.59 412.211,664.285 399.145,645.133 v 0" /><path
         id="path134"
         style="fill:#ffffff;fill-opacity:1;fill-rule:nonzero;stroke:none"
         d="m 385.859,644.883 c -0.937,-0.828 -2.734,-0.074 -3.777,0.648 v 0 l -33.484,35.387 v 0 c -0.43,3.203 2.379,5.941 5.582,5.473 v 0 l 32.008,-40.536 v 0 c 0.066,-0.363 -0.04,-0.757 -0.329,-0.972 v 0" /></g></g></svg>