<?xml version="1.0" encoding="UTF-8" standalone="no"?>
<svg
   xmlns:dc="http://purl.org/dc/elements/1.1/"
   xmlns:cc="http://creativecommons.org/ns#"
   xmlns:rdf="http://www.w3.org/1999/02/22-rdf-syntax-ns#"
   xmlns:svg="http://www.w3.org/2000/svg"
   xmlns="http://www.w3.org/2000/svg"
   viewBox="0 0 113.76 113.76"
   height="113.76"
   width="113.76"
   xml:space="preserve"
   id="svg2"
   version="1.1"><metadata
     id="metadata8"><rdf:RDF><cc:Work
         rdf:about=""><dc:format>image/svg+xml</dc:format><dc:type
           rdf:resource="http://purl.org/dc/dcmitype/StillImage" /></cc:Work></rdf:RDF></metadata><defs
     id="defs6" /><g
     transform="matrix(1.3333333,0,0,-1.3333333,0,113.76)"
     id="g10"><g
       transform="scale(0.1)"
       id="g12"><path
         id="path14"
         style="fill:#ffffff;fill-opacity:1;fill-rule:nonzero;stroke:none"
         d="M 426.617,851.809 C 191.895,851.809 1.41797,661.332 1.41797,426.609 1.41797,191.895 191.895,1.41797 426.617,1.41797 c 234.723,0 425.192,190.47703 425.192,425.19103 0,234.723 -190.469,425.2 -425.192,425.2 v 0" /><path
         id="path16"
         style="fill:none;stroke:#231f20;stroke-width:2.83500004;stroke-linecap:butt;stroke-linejoin:round;stroke-miterlimit:4;stroke-dasharray:none;stroke-opacity:1"
         d="M 426.617,851.809 C 191.895,851.809 1.41797,661.332 1.41797,426.609 1.41797,191.895 191.895,1.41797 426.617,1.41797 c 234.723,0 425.192,190.47703 425.192,425.19103 0,234.723 -190.469,425.2 -425.192,425.2 v 0" /><path
         id="path18"
         style="fill:#231f20;fill-opacity:1;fill-rule:nonzero;stroke:none"
         d="M 220.98,70.6836 782.551,632.242 v 0 c -36.074,62.281 -88.028,114.196 -150.266,150.262 v 0 L 70.7188,220.91 v 0 C 106.793,158.664 158.742,106.75 220.98,70.6836 v 0" /></g></g></svg>