<?xml version="1.0" encoding="UTF-8" standalone="no"?>
<svg
   xmlns:dc="http://purl.org/dc/elements/1.1/"
   xmlns:cc="http://creativecommons.org/ns#"
   xmlns:rdf="http://www.w3.org/1999/02/22-rdf-syntax-ns#"
   xmlns:svg="http://www.w3.org/2000/svg"
   xmlns="http://www.w3.org/2000/svg"
   viewBox="0 0 94.866669 132.66667"
   height="132.66667"
   width="94.866669"
   xml:space="preserve"
   id="svg2"
   version="1.1"><metadata
     id="metadata8"><rdf:RDF><cc:Work
         rdf:about=""><dc:format>image/svg+xml</dc:format><dc:type
           rdf:resource="http://purl.org/dc/dcmitype/StillImage" /></cc:Work></rdf:RDF></metadata><defs
     id="defs6" /><g
     transform="matrix(1.3333333,0,0,-1.3333333,0,132.66667)"
     id="g10"><g
       transform="scale(0.1)"
       id="g12"><path
         id="path14"
         style="fill:#ffffff;fill-opacity:1;fill-rule:nonzero;stroke:none"
         d="m 1.41797,1.41797 h 708.66 v 992.121 h -708.66 z" /><path
         id="path16"
         style="fill:none;stroke:#231f20;stroke-width:2.83500004;stroke-linecap:butt;stroke-linejoin:round;stroke-miterlimit:4;stroke-dasharray:none;stroke-opacity:1"
         d="M 1.41797,1.41797 H 710.078 V 993.539 H 1.41797 V 1.41797" /><path
         id="path18"
         style="fill:#231f20;fill-opacity:1;fill-rule:nonzero;stroke:none"
         d="m 15.6016,43.9297 c 0,-7.8125 2.7734,-14.5039 8.2812,-20.0469 5.543,-5.5078 12.2422,-8.2812 20.0469,-8.2812 v 0 H 667.559 v 0 c 7.812,0 14.511,2.7734 20.054,8.2812 5.508,5.543 8.282,12.2344 8.282,20.0469 v 0 907.0933 0 c 0,7.817 -2.774,14.508 -8.282,20.051 -5.543,5.508 -12.242,8.281 -20.054,8.281 v 0 H 43.9297 v 0 c -7.8047,0 -14.5039,-2.773 -20.0469,-8.281 -5.5078,-5.543 -8.2812,-12.234 -8.2812,-20.051 v 0 -907.0933 0" /><path
         id="path20"
         style="fill:#ffffff;fill-opacity:1;fill-rule:nonzero;stroke:none"
         d="m 29.75,951.023 c 0,3.922 1.4023,7.239 4.1758,10.008 2.7734,2.774 6.0859,4.18 10.0039,4.18 v 0 H 633.219 l -48.555,-69.922 9.547,-11.101 56.25,81.023 h 8.641 l -60.118,-86.574 9.555,-11.11 66.402,95.625 v 0 c 0.938,-0.574 1.801,-1.293 2.629,-2.121 0.969,-0.933 1.762,-1.976 2.375,-3.058 v 0 l -66.644,-95.981 9.57,-11.129 58.871,84.789 V 923.23 l -54.101,-77.91 9.562,-11.109 44.539,64.144 v -854.4253 0 c 0,-3.918 -1.398,-7.2344 -4.172,-10.0039 -2.773,-2.7735 -6.086,-4.1797 -10.011,-4.1797 v 0 H 78.5977 L 144.609,124.809 135.805,137.012 61.3242,29.7461 H 52.7148 L 131.422,143.09 122.602,155.309 36.7695,31.6953 v 0 c -1.0078,0.5742 -1.9804,1.3281 -2.8437,2.2305 -0.9024,0.8633 -1.6563,1.8359 -2.2305,2.8437 v 0 L 118.219,161.383 109.41,173.594 29.75,58.8711 V 71.2539 L 105.023,179.668 96.2109,191.879 29.75,96.168 v 854.855 0" /><path
         id="path22"
         style="fill:#918f90;fill-opacity:1;fill-rule:nonzero;stroke:none"
         d="m 355.766,780.961 c -156.528,0 -283.4652,-126.938 -283.4652,-283.465 0,-156.527 126.9372,-283.465 283.4652,-283.465 156.531,0 283.464,126.938 283.464,283.465 0,156.527 -126.933,283.465 -283.464,283.465 v 0" /><path
         id="path24"
         style="fill:#ffffff;fill-opacity:1;fill-rule:nonzero;stroke:none"
         d="m 355.742,686.449 c -104.355,0 -188.98,-84.625 -188.98,-188.976 0,-104.352 84.625,-188.977 188.98,-188.977 104.352,0 188.977,84.625 188.977,188.977 0,104.351 -84.625,188.976 -188.977,188.976 v 0" /><path
         id="path26"
         style="fill:#231f20;fill-opacity:1;fill-rule:nonzero;stroke:none"
         d="m 275.375,557.797 -19.758,18.898 v 0 c 0.461,1.012 1.145,2.485 1.688,3.457 3.851,6.914 10.761,11.844 18.039,14.942 6.476,2.734 13.426,4.031 20.48,3.851 8.391,-0.254 16.598,-2.593 23.727,-7.019 7.344,-4.539 13.246,-11.051 16.953,-18.863 3.027,-6.34 4.43,-13.29 4.355,-20.309 -0.105,-8.027 -2.125,-15.945 -6.117,-22.895 -1.547,-2.664 -3.351,-5.148 -5.402,-7.414 -1.836,-2.015 -3.887,-3.851 -6.117,-5.472 -2.125,-1.547 -5.473,-3.493 -7.813,-4.789 2.34,-1.008 5.723,-2.555 7.848,-3.961 2.125,-1.368 4.101,-3.055 5.902,-4.891 2.379,-2.348 4.535,-5.223 6.445,-7.961 3.418,-5.004 6.407,-10.512 8.317,-16.199 1.976,-5.797 2.84,-11.988 2.808,-18.141 -0.074,-7.277 -1.402,-14.406 -4.07,-21.172 -2.269,-5.902 -5.578,-11.414 -9.68,-16.269 -5.187,-6.125 -11.593,-11.055 -18.867,-14.547 -7.453,-3.563 -15.554,-5.582 -23.828,-5.797 -6.844,-0.246 -13.609,0.723 -20.094,2.809 -7.054,2.304 -15.226,6.988 -21.523,10.91 -0.508,0.359 -1.77,1.148 -2.305,1.512 v 0 l 13.102,24.261 10.945,-7.054 v 0 c 2.231,-1.403 4.57,-2.7 7.055,-3.707 1.797,-0.754 3.672,-1.258 5.652,-1.547 3.422,-0.543 7.02,-0.289 10.438,0.429 6.304,1.407 12.062,4.575 16.562,9.145 4.789,4.859 8.102,11.125 8.785,17.93 0.575,6.3 -1.261,12.671 -4.394,18.179 -3.492,6.157 -8.496,11.266 -14.758,14.649 -2.699,1.511 -5.977,2.812 -8.93,3.785 -3.382,1.113 -7.054,2.156 -10.547,2.734 -0.722,0.141 -1.761,0.321 -2.484,0.469 v 0 l -0.035,29.191 v 0 c 0.824,0.039 1.976,0.149 2.844,0.184 3.527,0.289 7.054,0.863 10.511,1.691 3.993,0.934 8.496,2.414 11.805,4.86 3.098,2.199 5.508,5.254 7.238,8.605 2.016,3.852 3.203,8.207 2.914,12.598 -0.281,4.609 -2.086,9.219 -5.613,12.312 -2.519,2.161 -5.867,3.418 -9.18,3.961 -4.429,0.684 -9.109,0.289 -13.035,-1.836 -3.343,-1.836 -6.082,-5.003 -8.058,-8.281 -0.578,-0.933 -1.301,-2.265 -1.805,-3.238 v 0" /><path
         id="path28"
         style="fill:#231f20;fill-opacity:1;fill-rule:nonzero;stroke:none"
         d="m 413.848,598.688 c 4.062,0 8.261,-0.836 12.144,-2.012 8.539,-2.571 15.824,-8.606 21.207,-15.684 4.68,-6.179 8.117,-13.605 10.547,-20.957 2.363,-7.082 3.992,-14.433 5.102,-21.828 1.113,-7.562 1.699,-15.437 1.976,-23.105 0.278,-8.848 0.176,-17.727 -0.414,-26.579 -0.59,-8.289 -1.597,-16.515 -3.09,-24.668 -1.699,-9.332 -4.129,-18.804 -7.597,-27.621 -3.125,-7.941 -7.672,-16.546 -13.953,-22.308 -7.012,-6.449 -16.102,-10.235 -25.645,-10.547 -8.988,-0.348 -17.902,2.394 -24.984,7.976 -7.637,6.008 -12.946,16.067 -16.309,25.192 -3.227,8.711 -5.449,17.976 -6.91,27.168 -1.281,8.019 -2.113,16.621 -2.703,24.707 -0.559,7.98 -0.938,16.93 -0.59,24.945 0.344,8.192 1.426,16.692 2.812,24.774 1.25,7.113 2.879,14.609 5.063,21.511 2.328,7.391 5.66,14.993 10.309,21.203 5.55,7.422 13.187,13.563 22.101,16.063 3.473,0.973 7.324,1.77 10.934,1.77 v 0" /><path
         id="path30"
         style="fill:#ffffff;fill-opacity:1;fill-rule:nonzero;stroke:none"
         d="m 414.043,570.559 c 2.184,0.066 4.336,-0.418 6.246,-1.461 1.875,-0.973 3.399,-2.743 4.547,-4.473 1.875,-2.914 3.191,-7.047 4.055,-10.41 1.496,-5.723 2.644,-11.586 3.543,-17.453 0.902,-6.039 1.562,-12.176 1.976,-18.285 0.418,-6.282 0.66,-12.559 0.625,-18.844 -0.035,-7.074 -0.347,-14.188 -0.972,-21.266 -0.625,-7.113 -1.629,-14.504 -3.153,-21.441 -1.082,-4.824 -2.5,-9.715 -4.375,-14.293 -0.972,-2.363 -2.222,-4.86 -3.711,-6.945 -1.008,-1.387 -2.258,-2.739 -3.719,-3.711 -1.562,-1.004 -3.398,-1.629 -5.304,-1.735 -2.223,-0.14 -4.512,0.383 -6.356,1.668 -1.316,0.903 -2.527,2.391 -3.429,3.742 -1.426,2.157 -2.637,4.516 -3.645,6.942 -1.875,4.476 -3.16,9.613 -4.062,14.363 -1.25,6.77 -2.079,14.922 -2.637,21.758 -0.524,6.73 -1.004,14.539 -1.004,21.269 0,6.207 0.379,12.528 1.004,18.739 0.625,6.136 1.527,12.312 2.601,18.422 0.973,5.55 2.188,11.378 3.68,16.793 0.969,3.539 2.465,7.773 4.512,10.753 1.18,1.7 2.703,3.399 4.543,4.372 1.531,0.8 3.262,1.39 5.035,1.496 v 0" /><path
         id="path32"
         style="fill:#231f20;fill-opacity:1;fill-rule:nonzero;stroke:none"
         d="m 135.805,137.012 491.836,708.308 9.562,-11.109 -492.594,-709.402 -8.804,12.203" /><path
         id="path34"
         style="fill:#231f20;fill-opacity:1;fill-rule:nonzero;stroke:none"
         d="m 122.602,155.309 490.699,706.683 9.57,-11.129 -491.449,-707.773 -8.82,12.219" /><path
         id="path36"
         style="fill:#231f20;fill-opacity:1;fill-rule:nonzero;stroke:none"
         d="m 109.41,173.594 489.574,705.043 9.555,-11.11 -490.32,-706.144 -8.809,12.211" /><path
         id="path38"
         style="fill:#231f20;fill-opacity:1;fill-rule:nonzero;stroke:none"
         d="m 96.2109,191.879 488.4531,703.41 9.547,-11.101 -489.188,-704.52 -8.8121,12.211" /><path
         id="path40"
         style="fill:#231f20;fill-opacity:1;fill-rule:nonzero;stroke:none"
         d="m 276.441,827.766 c 3.422,-4.25 7.418,-7.383 12.094,-9.508 4.535,-2.235 9.543,-3.238 14.801,-3.238 5.543,0 10.652,1.003 15.332,3.093 4.684,2.125 8.676,5.254 12.098,9.504 3.386,4.141 6.086,9.539 8.101,15.946 1.836,6.375 2.844,14.042 2.844,22.722 v 0 0 0 c 0,8.387 -1.008,15.656 -2.844,21.883 -2.015,6.266 -4.715,11.523 -8.101,15.809 -3.422,4.097 -7.414,7.375 -11.953,9.5 -4.68,2.125 -9.649,3.132 -14.938,3.132 -5.543,0 -10.516,-1.007 -15.191,-3.132 -4.684,-2.125 -8.821,-5.254 -12.243,-9.395 -3.382,-4.246 -6.086,-9.648 -7.953,-16.055 -1.984,-6.371 -2.988,-14.078 -2.988,-22.714 0,-8.387 1.004,-15.665 2.988,-21.891 1.867,-6.266 4.571,-11.52 7.953,-15.656 v 0" /><path
         id="path42"
         style="fill:#231f20;fill-opacity:1;fill-rule:nonzero;stroke:none"
         d="m 357.805,816.133 h 14.183 v 79.312 h 0.289 l 35.098,-79.312 h 18.645 v 99.18 H 411.801 V 835.43 h -0.285 l -35.106,79.883 h -18.605 v -99.18 0" /><path
         id="path44"
         style="fill:#231f20;fill-opacity:1;fill-rule:nonzero;stroke:none"
         d="m 436.855,816.133 h 15.375 l 7.52,24.844 h 35.969 l 7.523,-24.844 h 15.914 l -32.258,99.18 h -16.773 l -33.27,-99.18 v 0" /><path
         id="path46"
         style="fill:#231f20;fill-opacity:1;fill-rule:nonzero;stroke:none"
         d="m 198.105,816.133 h 58.575 v 12.637 h -41.367 l 40.644,73.625 v 12.918 H 199.398 V 902.68 h 38.524 l -39.817,-72.653 v -13.894 0" /><path
         id="path48"
         style="fill:#ffffff;fill-opacity:1;fill-rule:nonzero;stroke:none"
         d="m 287.133,837.305 c -3.852,6.8 -5.688,16.195 -5.688,28.008 0,7.238 0.543,13.355 1.836,18.32 1.153,4.972 2.699,9.109 4.824,12.207 1.977,2.988 4.43,5.293 7.129,6.695 2.7,1.297 5.688,1.981 8.641,1.981 7.125,0 12.527,-3.383 16.34,-10.223 3.711,-6.809 5.547,-16.203 5.547,-28.008 v 0 0 0 c 0,-7.238 -0.543,-13.359 -1.696,-18.324 -1.257,-4.973 -2.839,-9.109 -4.824,-12.098 -2.121,-3.133 -4.535,-5.398 -7.269,-6.66 -2.7,-1.437 -5.649,-2.121 -8.637,-2.121 -7.129,0 -12.531,3.383 -16.203,10.223 v 0" /><path
         id="path50"
         style="fill:#ffffff;fill-opacity:1;fill-rule:nonzero;stroke:none"
         d="m 463.461,853.359 14.617,47.914 h 0.285 l 13.789,-47.914 h -28.691 v 0" /></g></g></svg>