<?xml version="1.0" encoding="UTF-8" standalone="no"?>
<svg
   xmlns:dc="http://purl.org/dc/elements/1.1/"
   xmlns:cc="http://creativecommons.org/ns#"
   xmlns:rdf="http://www.w3.org/1999/02/22-rdf-syntax-ns#"
   xmlns:svg="http://www.w3.org/2000/svg"
   xmlns="http://www.w3.org/2000/svg"
   viewBox="0 0 94.866669 132.66667"
   height="132.66667"
   width="94.866669"
   xml:space="preserve"
   id="svg2"
   version="1.1"><metadata
     id="metadata8"><rdf:RDF><cc:Work
         rdf:about=""><dc:format>image/svg+xml</dc:format><dc:type
           rdf:resource="http://purl.org/dc/dcmitype/StillImage" /></cc:Work></rdf:RDF></metadata><defs
     id="defs6" /><g
     transform="matrix(1.3333333,0,0,-1.3333333,0,132.66667)"
     id="g10"><g
       transform="scale(0.1)"
       id="g12"><path
         id="path14"
         style="fill:#ffffff;fill-opacity:1;fill-rule:nonzero;stroke:none"
         d="m 1.41797,1.41797 h 708.66 v 992.121 h -708.66 z" /><path
         id="path16"
         style="fill:none;stroke:#231f20;stroke-width:2.83500004;stroke-linecap:butt;stroke-linejoin:round;stroke-miterlimit:4;stroke-dasharray:none;stroke-opacity:1"
         d="M 1.41797,1.41797 H 710.078 V 993.539 H 1.41797 V 1.41797" /><path
         id="path18"
         style="fill:#231f20;fill-opacity:1;fill-rule:nonzero;stroke:none"
         d="m 15.6016,951.023 c 0,7.817 2.7734,14.508 8.2812,20.051 5.543,5.508 12.2422,8.281 20.0469,8.281 v 0 H 667.559 v 0 c 7.812,0 14.511,-2.773 20.054,-8.281 5.508,-5.543 8.282,-12.234 8.282,-20.051 v 0 -907.0933 0 c 0,-7.8125 -2.774,-14.5039 -8.282,-20.0469 -5.543,-5.5078 -12.242,-8.2812 -20.054,-8.2812 v 0 H 43.9297 v 0 c -7.8047,0 -14.5039,2.7734 -20.0469,8.2812 -5.5078,5.543 -8.2812,12.2344 -8.2812,20.0469 v 0 907.0933 0" /><path
         id="path20"
         style="fill:#ffffff;fill-opacity:1;fill-rule:nonzero;stroke:none"
         d="M 29.75,96.168 89.1758,181.75 99.4727,171.676 29.75,71.2539 V 58.8711 L 104.602,166.664 114.895,156.594 31.6953,36.7695 v 0 c 0.5742,-1.0078 1.3281,-1.9804 2.2305,-2.8437 0.8633,-0.9024 1.8359,-1.6563 2.8437,-2.2305 v 0 L 120.016,151.582 130.316,141.504 52.7148,29.7461 h 8.6055 L 135.441,136.488 145.734,126.426 78.5977,29.7461 H 667.559 v 0 c 3.925,0 7.238,1.4062 10.011,4.1797 2.774,2.7695 4.172,6.0859 4.172,10.0039 v 0 854.4253 l -53.918,-77.656 -9.64,10.996 63.558,91.535 v 12.422 l -68.371,-98.468 -9.648,11.007 76.222,109.782 v 0 c -0.613,1.082 -1.406,2.125 -2.375,3.058 -0.828,0.828 -1.691,1.547 -2.629,2.121 v 0 l -76.023,-109.48 -9.637,10.992 69.821,100.547 h -8.641 l -65.996,-95.051 -9.625,10.977 58.379,84.074 H 43.9297 v 0 c -3.918,0 -7.2344,-1.406 -10.0039,-4.18 -2.7735,-2.769 -4.1758,-6.086 -4.1758,-10.008 v 0 -854.855 0" /><path
         id="path22"
         style="fill:#231f20;fill-opacity:1;fill-rule:nonzero;stroke:none"
         d="m 284.414,828.012 c 3.418,-4.246 7.379,-7.383 12.094,-9.504 4.539,-2.235 9.504,-3.238 14.762,-3.238 5.543,0 10.656,1.003 15.371,3.093 4.679,2.125 8.636,5.254 12.062,9.504 3.418,4.141 6.117,9.539 8.098,15.949 1.871,6.375 2.844,14.039 2.844,22.715 v 0 0 0 c 0,8.391 -0.973,15.66 -2.844,21.887 -1.981,6.266 -4.68,11.523 -8.098,15.805 -3.426,4.109 -7.383,7.382 -11.914,9.507 -4.719,2.125 -9.687,3.129 -14.941,3.129 -5.547,0 -10.516,-1.004 -15.231,-3.129 -4.679,-2.125 -8.785,-5.257 -12.203,-9.398 -3.422,-4.25 -6.121,-9.648 -7.957,-16.055 -1.98,-6.375 -2.988,-14.078 -2.988,-22.714 0,-8.391 1.008,-15.661 2.988,-21.891 1.836,-6.266 4.535,-11.52 7.957,-15.66 v 0" /><path
         id="path24"
         style="fill:#231f20;fill-opacity:1;fill-rule:nonzero;stroke:none"
         d="m 365.738,816.383 h 14.219 v 79.308 h 0.289 l 35.102,-79.308 h 18.609 v 99.183 H 419.738 V 835.68 h -0.289 l -35.097,79.886 h -18.614 v -99.183 0" /><path
         id="path26"
         style="fill:#231f20;fill-opacity:1;fill-rule:nonzero;stroke:none"
         d="m 454.66,816.383 h 50.723 v 12.637 h -35.387 v 32.253 h 32.145 v 12.676 h -32.145 v 28.981 h 33.836 v 12.636 H 454.66 v -99.183 0" /><path
         id="path28"
         style="fill:#231f20;fill-opacity:1;fill-rule:nonzero;stroke:none"
         d="m 206.078,816.383 h 58.57 v 12.637 h -41.363 l 40.645,73.621 v 12.925 H 207.34 V 902.93 h 38.515 l -39.777,-72.653 v -13.894 0" /><path
         id="path30"
         style="fill:#ffffff;fill-opacity:1;fill-rule:nonzero;stroke:none"
         d="m 295.07,837.555 c -3.855,6.8 -5.691,16.195 -5.691,28.008 0,7.234 0.578,13.355 1.836,18.32 1.152,4.969 2.703,9.109 4.863,12.207 1.981,2.988 4.391,5.293 7.09,6.691 2.703,1.301 5.691,1.985 8.68,1.985 7.09,0 12.488,-3.383 16.34,-10.223 3.707,-6.809 5.542,-16.203 5.542,-28.012 v 0 0 0 c 0,-7.234 -0.574,-13.355 -1.687,-18.324 -1.297,-4.965 -2.848,-9.105 -4.859,-12.094 -2.125,-3.133 -4.536,-5.398 -7.239,-6.66 -2.699,-1.441 -5.687,-2.125 -8.675,-2.125 -7.094,0 -12.497,3.387 -16.2,10.227 v 0" /><path
         id="path32"
         style="fill:#918f90;fill-opacity:1;fill-rule:nonzero;stroke:none"
         d="m 556.223,697.922 c 110.695,-110.699 110.703,-290.184 0,-400.879 -110.7,-110.703 -290.184,-110.703 -400.879,0 -110.6995,110.695 -110.6995,290.18 0,400.879 110.695,110.695 290.179,110.695 400.879,0 v 0" /><path
         id="path34"
         style="fill:#ffffff;fill-opacity:1;fill-rule:nonzero;stroke:none"
         d="M 243.695,649.703 508.008,385.391 v 0 c 9.336,12.629 16.992,26.254 22.945,40.964 9.219,22.731 13.824,46.442 13.824,71.165 0,24.699 -4.582,48.41 -13.824,71.164 -9.527,23.468 -23.351,44.3 -41.519,62.445 -18.145,18.144 -38.973,31.992 -62.446,41.519 -22.754,9.243 -46.465,13.844 -71.187,13.844 -24.696,-0.015 -48.406,-4.629 -71.16,-13.82 -14.688,-5.977 -28.34,-13.609 -40.946,-22.969 v 0" /><path
         id="path36"
         style="fill:#ffffff;fill-opacity:1;fill-rule:nonzero;stroke:none"
         d="m 467.953,345.273 -264.308,264.34 v 0 c -9.364,-12.625 -16.993,-26.258 -22.969,-40.968 -9.196,-22.727 -13.824,-46.461 -13.824,-71.133 0,-24.723 4.605,-48.457 13.847,-71.188 9.5,-23.472 23.348,-44.301 41.492,-62.445 18.172,-18.172 38.977,-31.992 62.473,-41.543 22.754,-9.223 46.441,-13.828 71.16,-13.828 24.723,0 48.434,4.633 71.164,13.828 14.711,5.969 28.34,13.625 40.965,22.937 v 0" /><path
         id="path38"
         style="fill:#656263;fill-opacity:1;fill-rule:nonzero;stroke:none"
         d="m 252.445,648.957 c 10.715,7.348 22.16,13.492 34.336,18.426 22.051,8.933 45.067,13.41 69.035,13.418 23.942,0.012 46.954,-4.469 69.039,-13.434 22.786,-9.246 42.977,-22.664 60.575,-40.262 17.601,-17.601 31.031,-37.796 40.285,-60.597 8.945,-22.028 13.41,-45.031 13.41,-69.024 0,-23.949 -4.465,-46.957 -13.41,-69.027 -4.93,-12.156 -11.07,-23.609 -18.426,-34.348 v 0 L 252.445,648.957 v 0" /><path
         id="path40"
         style="fill:#656263;fill-opacity:1;fill-rule:nonzero;stroke:none"
         d="m 459.176,346.031 c -10.742,-7.359 -22.192,-13.496 -34.352,-18.426 -22.07,-8.941 -45.078,-13.417 -69.027,-13.417 -23.988,0 -46.996,4.476 -69.024,13.417 -22.793,9.254 -42.992,22.684 -60.589,40.286 -17.598,17.593 -31.024,37.789 -40.27,60.57 -8.961,22.09 -13.437,45.102 -13.434,69.043 0.008,23.973 4.485,46.984 13.418,69.027 4.938,12.184 11.079,23.629 18.434,34.344 v 0 L 459.176,346.031 v 0" /><path
         id="path42"
         style="fill:#231f20;fill-opacity:1;fill-rule:nonzero;stroke:none"
         d="m 146.352,94.082 c 1.367,-2.6328 3.171,-4.6445 5.367,-6.1211 2.16,-1.4414 4.785,-2.1601 7.953,-2.1601 3.172,0 5.832,0.7187 8.027,2.2656 2.199,1.4414 3.996,3.4961 5.367,6.082 1.368,2.5938 2.34,5.6914 2.914,9.1836 0.579,3.492 0.899,7.309 0.899,11.449 v 0 0 0 c 0,4.141 -0.32,7.953 -0.899,11.52 -0.574,3.488 -1.546,6.586 -2.914,9.179 -1.371,2.59 -3.168,4.641 -5.367,6.192 -2.195,1.437 -4.855,2.195 -8.027,2.195 -3.168,0 -5.867,-0.758 -8.067,-2.195 -2.191,-1.551 -3.886,-3.602 -5.253,-6.192 -1.399,-2.593 -2.375,-5.691 -2.954,-9.179 -0.535,-3.567 -0.859,-7.379 -0.859,-11.52 0,-4.14 0.324,-7.957 0.859,-11.449 0.579,-3.5625 1.555,-6.6601 2.954,-9.25 v 0" /><path
         id="path44"
         style="fill:#231f20;fill-opacity:1;fill-rule:nonzero;stroke:none"
         d="m 181.457,86.4492 h 9.574 l 17.207,48.7808 v 7.879 h -30.996 v -7.195 h 22.715 l -18.5,-49.4648 v 0" /><path
         id="path46"
         style="fill:#231f20;fill-opacity:1;fill-rule:nonzero;stroke:none"
         d="m 212.594,86.4492 h 8.75 v 9.7891 h -8.75 v -9.7891 0" /><path
         id="path48"
         style="fill:#231f20;fill-opacity:1;fill-rule:nonzero;stroke:none"
         d="m 232.18,94.082 c 1.367,-2.6328 3.168,-4.6445 5.359,-6.1211 2.164,-1.4414 4.789,-2.1601 7.961,-2.1601 3.168,0 5.828,0.7187 8.027,2.2656 2.196,1.4414 3.993,3.4961 5.36,6.082 1.371,2.5938 2.343,5.6914 2.922,9.1836 0.574,3.492 0.898,7.309 0.898,11.449 v 0 0 0 c 0,4.141 -0.324,7.953 -0.898,11.52 -0.579,3.488 -1.551,6.586 -2.922,9.179 -1.367,2.59 -3.164,4.641 -5.36,6.192 -2.199,1.437 -4.859,2.195 -8.027,2.195 -3.172,0 -5.871,-0.758 -8.066,-2.195 -2.2,-1.551 -3.887,-3.602 -5.254,-6.192 -1.407,-2.593 -2.379,-5.691 -2.957,-9.179 -0.535,-3.567 -0.864,-7.379 -0.864,-11.52 0,-4.14 0.329,-7.957 0.864,-11.449 0.578,-3.5625 1.55,-6.6601 2.957,-9.25 v 0" /><path
         id="path50"
         style="fill:#231f20;fill-opacity:1;fill-rule:nonzero;stroke:none"
         d="m 272.027,94.082 c 1.371,-2.6328 3.168,-4.6445 5.368,-6.1211 2.156,-1.4414 4.789,-2.1601 7.953,-2.1601 3.168,0 5.836,0.7187 8.031,2.2656 2.191,1.4414 3.996,3.4961 5.359,6.082 1.371,2.5938 2.34,5.6914 2.918,9.1836 0.574,3.492 0.903,7.309 0.903,11.449 v 0 0 0 c 0,4.141 -0.329,7.953 -0.903,11.52 -0.578,3.488 -1.547,6.586 -2.918,9.179 -1.363,2.59 -3.168,4.641 -5.359,6.192 -2.195,1.437 -4.863,2.195 -8.031,2.195 -3.164,0 -5.864,-0.758 -8.063,-2.195 -2.195,-1.551 -3.887,-3.602 -5.258,-6.192 -1.402,-2.593 -2.375,-5.691 -2.949,-9.179 -0.543,-3.567 -0.863,-7.379 -0.863,-11.52 0,-4.14 0.32,-7.957 0.863,-11.449 0.574,-3.5625 1.547,-6.6601 2.949,-9.25 v 0" /><path
         id="path52"
         style="fill:#231f20;fill-opacity:1;fill-rule:nonzero;stroke:none"
         d="m 322.18,105.855 h 18.175 v 7.055 H 322.18 v -7.055 0" /><path
         id="path54"
         style="fill:#231f20;fill-opacity:1;fill-rule:nonzero;stroke:none"
         d="m 368.832,86.4492 h 8.606 v 56.6598 h -7.524 l -12.672,-11.515 4.215,-6.086 7.375,7.558 v -46.6168 0" /><path
         id="path56"
         style="fill:#231f20;fill-opacity:1;fill-rule:nonzero;stroke:none"
         d="m 386.039,87.5625 c 1.121,-0.3945 2.488,-0.7891 4.215,-1.1836 1.691,-0.3984 3.566,-0.5781 5.758,-0.5781 4,0 7.308,0.7187 10.082,2.2656 2.66,1.5156 4.933,3.6367 6.66,6.4102 1.691,2.7695 2.914,6.0864 3.633,9.9724 0.758,3.813 1.152,8.133 1.152,12.852 v 0 0 0 c 0,3.887 -0.32,7.449 -0.898,10.726 -0.575,3.243 -1.547,6.082 -2.914,8.422 -1.368,2.379 -3.168,4.141 -5.368,5.442 -2.265,1.328 -5.039,1.976 -8.347,1.976 -5.039,0 -9.039,-1.656 -12.028,-4.898 -3.023,-3.239 -4.464,-7.879 -4.464,-13.781 0,-2.704 0.398,-5.114 1.121,-7.313 0.714,-2.195 1.722,-4.141 3.093,-5.687 1.293,-1.547 2.844,-2.774 4.711,-3.672 1.77,-0.899 3.821,-1.368 6.016,-1.368 2.664,0 4.934,0.579 6.73,1.762 1.696,1.153 3.102,2.699 4.071,4.574 v 0 l 0.144,-0.07 v 0 c -0.074,-2.519 -0.324,-5.039 -0.793,-7.492 -0.504,-2.52 -1.297,-4.715 -2.379,-6.6603 -1.113,-1.9414 -2.589,-3.4883 -4.281,-4.7148 -1.726,-1.2227 -3.926,-1.8711 -6.445,-1.8711 -1.836,0 -3.563,0.2539 -5.113,0.832 -1.547,0.461 -2.84,1.0391 -3.887,1.6133 v 0 l -0.469,-7.5586 v 0" /><path
         id="path58"
         style="fill:#231f20;fill-opacity:1;fill-rule:nonzero;stroke:none"
         d="m 443.965,94.082 c 1.367,-2.6328 3.168,-4.6445 5.367,-6.1211 2.156,-1.4414 4.785,-2.1601 7.953,-2.1601 3.168,0 5.828,0.7187 8.028,2.2656 2.199,1.4414 3.996,3.4961 5.367,6.082 1.367,2.5938 2.34,5.6914 2.914,9.1836 0.578,3.492 0.898,7.309 0.898,11.449 v 0 0 0 c 0,4.141 -0.32,7.953 -0.898,11.52 -0.574,3.488 -1.547,6.586 -2.914,9.179 -1.371,2.59 -3.168,4.641 -5.367,6.192 -2.2,1.437 -4.86,2.195 -8.028,2.195 -3.168,0 -5.867,-0.758 -8.066,-2.195 -2.192,-1.551 -3.887,-3.602 -5.254,-6.192 -1.406,-2.593 -2.379,-5.691 -2.953,-9.179 -0.539,-3.567 -0.864,-7.379 -0.864,-11.52 0,-4.14 0.325,-7.957 0.864,-11.449 0.574,-3.5625 1.547,-6.6601 2.953,-9.25 v 0" /><path
         id="path60"
         style="fill:#231f20;fill-opacity:1;fill-rule:nonzero;stroke:none"
         d="m 483.82,94.082 c 1.368,-2.6328 3.164,-4.6445 5.36,-6.1211 2.164,-1.4414 4.789,-2.1601 7.961,-2.1601 3.164,0 5.828,0.7187 8.027,2.2656 2.191,1.4414 3.992,3.4961 5.359,6.082 1.368,2.5938 2.344,5.6914 2.914,9.1836 0.579,3.492 0.907,7.309 0.907,11.449 v 0 0 0 c 0,4.141 -0.328,7.953 -0.907,11.52 -0.57,3.488 -1.546,6.586 -2.914,9.179 -1.367,2.59 -3.168,4.641 -5.359,6.192 -2.199,1.437 -4.863,2.195 -8.027,2.195 -3.172,0 -5.871,-0.758 -8.067,-2.195 -2.199,-1.551 -3.886,-3.602 -5.254,-6.192 -1.406,-2.593 -2.379,-5.691 -2.957,-9.179 -0.535,-3.567 -0.863,-7.379 -0.863,-11.52 0,-4.14 0.328,-7.957 0.863,-11.449 0.578,-3.5625 1.551,-6.6601 2.957,-9.25 v 0" /><path
         id="path62"
         style="fill:#231f20;fill-opacity:1;fill-rule:nonzero;stroke:none"
         d="m 537.816,86.4492 h 8.422 v 24.6598 c 0,3.278 0.653,5.868 2.055,7.739 1.297,1.871 3.242,2.734 5.902,2.734 2.196,0 3.746,-0.719 4.789,-2.156 1.012,-1.477 1.477,-3.856 1.477,-7.09 v 0 -25.8868 h 8.461 v 27.8278 0 c 0,4.391 -0.973,7.879 -2.953,10.473 -1.946,2.629 -5,3.926 -9.25,3.926 -2.739,0 -4.93,-0.649 -6.485,-1.875 -1.617,-1.293 -2.914,-2.696 -3.812,-4.246 v 0 h -0.184 v 24.804 h -8.422 v -60.9098 0" /><path
         id="path64"
         style="fill:#ffffff;fill-opacity:1;fill-rule:nonzero;stroke:none"
         d="m 238.84,98.3633 c -1.227,3.8167 -1.875,9.3637 -1.875,16.4177 0,7.055 0.648,12.598 1.875,16.489 1.183,3.886 3.488,5.832 6.66,5.832 3.234,0 5.508,-1.946 6.727,-5.762 1.226,-3.891 1.875,-9.43 1.875,-16.559 v 0 0 0 c 0,-7.054 -0.649,-12.601 -1.875,-16.4177 -1.293,-3.8867 -3.559,-5.8281 -6.727,-5.8281 -3.172,0 -5.477,1.9414 -6.66,5.8281 v 0" /><path
         id="path66"
         style="fill:#ffffff;fill-opacity:1;fill-rule:nonzero;stroke:none"
         d="m 278.688,98.3633 c -1.223,3.8167 -1.872,9.3637 -1.872,16.4177 0,7.055 0.649,12.598 1.872,16.489 1.191,3.886 3.496,5.832 6.66,5.832 3.242,0 5.507,-1.946 6.734,-5.762 1.223,-3.891 1.875,-9.43 1.875,-16.559 v 0 0 0 c 0,-7.054 -0.652,-12.601 -1.875,-16.4177 -1.297,-3.8867 -3.566,-5.8281 -6.734,-5.8281 -3.164,0 -5.469,1.9414 -6.66,5.8281 v 0" /><path
         id="path68"
         style="fill:#ffffff;fill-opacity:1;fill-rule:nonzero;stroke:none"
         d="m 396.586,115.035 c -1.078,0.535 -1.867,1.434 -2.52,2.52 -0.644,1.039 -1.152,2.265 -1.472,3.633 -0.324,1.367 -0.469,2.773 -0.469,4.32 0,1.621 0.145,3.168 0.469,4.535 0.32,1.367 0.828,2.699 1.547,3.746 0.648,1.047 1.472,1.871 2.519,2.445 0.973,0.543 2.199,0.868 3.567,0.868 1.406,0 2.625,-0.325 3.671,-0.868 1.043,-0.574 1.868,-1.398 2.52,-2.445 0.648,-1.047 1.117,-2.379 1.437,-3.746 0.325,-1.367 0.504,-2.914 0.504,-4.535 v 0 0 0 c 0,-1.547 -0.179,-3.024 -0.504,-4.391 -0.32,-1.371 -0.789,-2.594 -1.437,-3.672 -0.719,-1.043 -1.551,-1.945 -2.594,-2.523 -1.078,-0.535 -2.191,-0.859 -3.597,-0.859 -1.368,0 -2.594,0.324 -3.641,0.972 v 0" /><path
         id="path70"
         style="fill:#ffffff;fill-opacity:1;fill-rule:nonzero;stroke:none"
         d="m 424.379,86.4492 h 8.75 v 9.7891 h -8.75 v -9.7891 0" /><path
         id="path72"
         style="fill:#ffffff;fill-opacity:1;fill-rule:nonzero;stroke:none"
         d="m 450.625,98.3633 c -1.227,3.8167 -1.871,9.3637 -1.871,16.4177 0,7.055 0.644,12.598 1.871,16.489 1.188,3.886 3.492,5.832 6.66,5.832 3.238,0 5.508,-1.946 6.735,-5.762 1.218,-3.891 1.871,-9.43 1.871,-16.559 v 0 0 0 c 0,-7.054 -0.653,-12.601 -1.871,-16.4177 -1.301,-3.8867 -3.567,-5.8281 -6.735,-5.8281 -3.168,0 -5.472,1.9414 -6.66,5.8281 v 0" /><path
         id="path74"
         style="fill:#ffffff;fill-opacity:1;fill-rule:nonzero;stroke:none"
         d="m 490.48,98.3633 c -1.226,3.8167 -1.875,9.3637 -1.875,16.4177 0,7.055 0.649,12.598 1.875,16.489 1.184,3.886 3.489,5.832 6.661,5.832 3.234,0 5.507,-1.946 6.726,-5.762 1.227,-3.891 1.875,-9.43 1.875,-16.559 v 0 0 0 c 0,-7.054 -0.648,-12.601 -1.875,-16.4177 -1.293,-3.8867 -3.562,-5.8281 -6.726,-5.8281 -3.172,0 -5.477,1.9414 -6.661,5.8281 v 0" /><path
         id="path76"
         style="fill:#ffffff;fill-opacity:1;fill-rule:nonzero;stroke:none"
         d="m 153.012,98.3633 c -1.223,3.8167 -1.867,9.3637 -1.867,16.4177 0,7.055 0.644,12.598 1.867,16.489 1.187,3.886 3.492,5.832 6.66,5.832 3.242,0 5.508,-1.946 6.734,-5.762 1.223,-3.891 1.871,-9.43 1.871,-16.559 v 0 0 0 c 0,-7.054 -0.648,-12.601 -1.871,-16.4177 -1.297,-3.8867 -3.562,-5.8281 -6.734,-5.8281 -3.168,0 -5.473,1.9414 -6.66,5.8281 v 0" /><path
         id="path78"
         style="fill:#231f20;fill-opacity:1;fill-rule:nonzero;stroke:none"
         d="m 135.441,136.488 482.743,695.207 9.64,-10.996 -482.09,-694.273 -10.293,10.062" /><path
         id="path80"
         style="fill:#231f20;fill-opacity:1;fill-rule:nonzero;stroke:none"
         d="m 120.016,151.582 483.707,696.609 9.648,-11.007 -483.055,-695.68 -10.3,10.078" /><path
         id="path82"
         style="fill:#231f20;fill-opacity:1;fill-rule:nonzero;stroke:none"
         d="m 104.602,166.664 484.679,698 9.637,-10.992 -484.023,-697.078 -10.293,10.07" /><path
         id="path84"
         style="fill:#231f20;fill-opacity:1;fill-rule:nonzero;stroke:none"
         d="M 89.1758,181.75 574.84,881.137 584.465,870.16 99.4727,171.676 89.1758,181.75" /></g></g></svg>