<?xml version="1.0" encoding="UTF-8" standalone="no"?>
<svg
   xmlns:dc="http://purl.org/dc/elements/1.1/"
   xmlns:cc="http://creativecommons.org/ns#"
   xmlns:rdf="http://www.w3.org/1999/02/22-rdf-syntax-ns#"
   xmlns:svg="http://www.w3.org/2000/svg"
   xmlns="http://www.w3.org/2000/svg"
   viewBox="0 0 94.866669 132.66667"
   height="132.66667"
   width="94.866669"
   xml:space="preserve"
   id="svg2"
   version="1.1"><metadata
     id="metadata8"><rdf:RDF><cc:Work
         rdf:about=""><dc:format>image/svg+xml</dc:format><dc:type
           rdf:resource="http://purl.org/dc/dcmitype/StillImage" /></cc:Work></rdf:RDF></metadata><defs
     id="defs6" /><g
     transform="matrix(1.3333333,0,0,-1.3333333,0,132.66667)"
     id="g10"><g
       transform="scale(0.1)"
       id="g12"><path
         id="path14"
         style="fill:#ffffff;fill-opacity:1;fill-rule:nonzero;stroke:none"
         d="m 1.41797,1.41797 h 708.66 v 992.121 h -708.66 z" /><path
         id="path16"
         style="fill:none;stroke:#231f20;stroke-width:2.83500004;stroke-linecap:butt;stroke-linejoin:miter;stroke-miterlimit:4;stroke-dasharray:none;stroke-opacity:1"
         d="M 1.41797,1.41797 H 710.078 V 993.539 H 1.41797 V 1.41797" /><path
         id="path18"
         style="fill:#231f20;fill-opacity:1;fill-rule:nonzero;stroke:none"
         d="M 15.5859,43.9375 V 951.023 c 0,7.825 2.7696,14.504 8.3047,20.04 5.5391,5.539 12.2188,8.308 20.0391,8.308 v 0 H 667.559 v 0 c 7.824,0 14.504,-2.769 20.039,-8.308 5.539,-5.536 8.3,-12.215 8.3,-20.04 v 0 -907.0855 0 c 0,-7.8242 -2.761,-14.5039 -8.3,-20.0391 -5.535,-5.539 -12.215,-8.3007 -20.039,-8.3007 v 0 H 43.9297 v 0 c -7.8203,0 -14.5,2.7617 -20.0391,8.3007 -5.5351,5.5352 -8.3047,12.2149 -8.3047,20.0391 v 0" /><path
         id="path20"
         style="fill:#ffffff;fill-opacity:1;fill-rule:nonzero;stroke:none"
         d="M 29.7617,43.9375 V 951.023 c 0,3.915 1.3867,7.25 4.1563,10.016 2.7656,2.774 6.1054,4.156 10.0117,4.156 v 0 H 667.559 v 0 c 3.906,0 7.246,-1.382 10.019,-4.156 2.766,-2.766 4.152,-6.101 4.152,-10.016 v 0 -907.0855 0 c 0,-3.9102 -1.386,-7.25 -4.152,-10.0195 -2.773,-2.7657 -6.113,-4.1524 -10.019,-4.1524 v 0 H 43.9297 v 0 c -3.9063,0 -7.2461,1.3867 -10.0117,4.1524 -2.7696,2.7695 -4.1563,6.1093 -4.1563,10.0195 v 0" /><path
         id="path22"
         style="fill:#231f20;fill-opacity:1;fill-rule:nonzero;stroke:none"
         d="m 195.207,816.387 h 58.566 v 12.636 H 212.41 l 40.649,73.618 v 12.925 H 196.5 V 902.93 h 38.52 l -39.813,-72.649 v -13.894 0" /><path
         id="path24"
         style="fill:#231f20;fill-opacity:1;fill-rule:nonzero;stroke:none"
         d="m 273.539,828.012 c 3.418,-4.246 7.418,-7.375 12.098,-9.5 4.535,-2.235 9.539,-3.242 14.793,-3.242 5.547,0 10.66,1.007 15.336,3.093 4.679,2.125 8.679,5.262 12.097,9.508 3.383,4.141 6.082,9.543 8.098,15.945 1.836,6.375 2.848,14.039 2.848,22.715 v 0 0 0 c 0,8.391 -1.012,15.66 -2.848,21.891 -2.016,6.266 -4.715,11.519 -8.098,15.808 -3.418,4.102 -7.418,7.375 -11.949,9.5 -4.684,2.125 -9.648,3.129 -14.941,3.129 -5.547,0 -10.512,-1.004 -15.196,-3.129 -4.679,-2.125 -8.82,-5.253 -12.238,-9.394 -3.383,-4.246 -6.082,-9.648 -7.957,-16.059 -1.977,-6.375 -2.988,-14.074 -2.988,-22.714 0,-8.391 1.011,-15.661 2.988,-21.891 1.875,-6.258 4.574,-11.52 7.957,-15.66 v 0" /><path
         id="path26"
         style="fill:#231f20;fill-opacity:1;fill-rule:nonzero;stroke:none"
         d="m 354.898,816.387 h 14.184 v 79.304 h 0.293 l 35.098,-79.304 h 18.644 v 99.179 h -14.219 v -79.882 h -0.285 l -35.105,79.882 h -18.61 v -99.179 0" /><path
         id="path28"
         style="fill:#231f20;fill-opacity:1;fill-rule:nonzero;stroke:none"
         d="m 433.957,816.387 h 15.371 l 7.527,24.84 h 35.958 l 7.531,-24.84 h 15.906 l -32.254,99.179 h -16.777 l -33.262,-99.179 v 0" /><path
         id="path30"
         style="fill:#ffffff;fill-opacity:1;fill-rule:nonzero;stroke:none"
         d="m 284.23,837.555 c -3.847,6.804 -5.683,16.199 -5.683,28.008 0,7.234 0.535,13.355 1.836,18.324 1.144,4.965 2.699,9.105 4.824,12.203 1.977,2.988 4.422,5.293 7.121,6.699 2.703,1.293 5.692,1.977 8.645,1.977 7.129,0 12.527,-3.383 16.343,-10.223 3.704,-6.805 5.539,-16.203 5.539,-28.012 v 0 0 0 c 0,-7.234 -0.535,-13.351 -1.687,-18.324 -1.262,-4.965 -2.848,-9.105 -4.824,-12.094 -2.125,-3.129 -4.535,-5.398 -7.27,-6.66 -2.703,-1.441 -5.656,-2.125 -8.644,-2.125 -7.129,0 -12.528,3.387 -16.2,10.227 v 0" /><path
         id="path32"
         style="fill:#ffffff;fill-opacity:1;fill-rule:nonzero;stroke:none"
         d="m 460.559,853.609 14.617,47.918 h 0.285 l 13.789,-47.918 h -28.691 v 0" /><path
         id="path34"
         style="fill:#1a67bb;fill-opacity:1;fill-rule:nonzero;stroke:none"
         d="M 107.727,745.539 H 603.84 V 249.465 H 107.727 v 496.074 0" /><path
         id="path36"
         style="fill:#ffffff;fill-opacity:1;fill-rule:nonzero;stroke:none"
         d="m 314.074,311.887 h -62.422 v 351.75 h 175.899 v 0 c 14.5,0 30.234,-5.688 39.707,-18.285 12.597,-16.383 11.98,-32.149 11.98,-32.149 v 0 -117.867 0 c 0,-8.207 -2.519,-25.844 -15.117,-38.481 -11.375,-11.343 -23.328,-15.73 -36.57,-15.73 v 0 H 314.074 v -129.238 0" /><path
         id="path38"
         style="fill:#1a67bb;fill-opacity:1;fill-rule:nonzero;stroke:none"
         d="m 314.004,495.336 v 112.828 h 89.531 v 0 c 3.781,0 8.176,0 10.695,-2.519 2.52,-2.524 3.165,-5.043 3.165,-10.696 v 0 -86.363 0 c 0,-4.426 -1.262,-8.211 -3.782,-10.078 -2.519,-2.524 -5.039,-3.172 -9.461,-3.172 v 0 h -90.148 v 0" /></g></g></svg>