<?xml version="1.0" encoding="UTF-8" standalone="no"?>
<svg
   xmlns:dc="http://purl.org/dc/elements/1.1/"
   xmlns:cc="http://creativecommons.org/ns#"
   xmlns:rdf="http://www.w3.org/1999/02/22-rdf-syntax-ns#"
   xmlns:svg="http://www.w3.org/2000/svg"
   xmlns="http://www.w3.org/2000/svg"
   viewBox="0 0 94.866669 132.66667"
   height="132.66667"
   width="94.866669"
   xml:space="preserve"
   id="svg2"
   version="1.1"><metadata
     id="metadata8"><rdf:RDF><cc:Work
         rdf:about=""><dc:format>image/svg+xml</dc:format><dc:type
           rdf:resource="http://purl.org/dc/dcmitype/StillImage" /></cc:Work></rdf:RDF></metadata><defs
     id="defs6" /><g
     transform="matrix(1.3333333,0,0,-1.3333333,0,132.66667)"
     id="g10"><g
       transform="scale(0.1)"
       id="g12"><path
         id="path14"
         style="fill:#ffffff;fill-opacity:1;fill-rule:nonzero;stroke:none"
         d="m 1.41797,1.41797 h 708.66 v 992.121 h -708.66 z" /><path
         id="path16"
         style="fill:none;stroke:#231f20;stroke-width:2.83500004;stroke-linecap:butt;stroke-linejoin:round;stroke-miterlimit:4;stroke-dasharray:none;stroke-opacity:1"
         d="M 1.41797,1.41797 H 710.078 V 993.539 H 1.41797 V 1.41797" /><path
         id="path18"
         style="fill:#231f20;fill-opacity:1;fill-rule:nonzero;stroke:none"
         d="m 15.6016,43.9375 c 0,-7.8125 2.7734,-14.5117 8.2812,-20.0547 5.543,-5.5078 12.2422,-8.2812 20.0469,-8.2812 v 0 H 667.559 v 0 c 7.812,0 14.511,2.7734 20.054,8.2812 5.508,5.543 8.282,12.2422 8.282,20.0547 v 0 907.0855 0 c 0,7.817 -2.774,14.508 -8.282,20.055 -5.543,5.508 -12.242,8.277 -20.054,8.277 v 0 H 43.9297 v 0 c -7.8047,0 -14.5039,-2.769 -20.0469,-8.277 -5.5078,-5.547 -8.2812,-12.238 -8.2812,-20.055 v 0 -907.0855 0" /><path
         id="path20"
         style="fill:#ffffff;fill-opacity:1;fill-rule:nonzero;stroke:none"
         d="m 29.75,951.023 c 0,3.926 1.4023,7.239 4.1758,10.012 2.7734,2.77 6.0859,4.176 10.0039,4.176 v 0 H 633.219 l -48.555,-69.922 9.547,-11.094 56.25,81.016 h 8.641 l -60.118,-86.574 9.555,-11.11 66.402,95.633 v 0 c 0.938,-0.578 1.801,-1.301 2.629,-2.125 0.969,-0.937 1.762,-1.98 2.375,-3.062 v 0 l -66.644,-95.977 9.57,-11.129 58.871,84.785 V 923.23 l -54.101,-77.91 9.562,-11.109 44.539,64.148 v -854.4215 0 c 0,-3.9258 -1.398,-7.2383 -4.172,-10.0117 -2.773,-2.7735 -6.086,-4.1758 -10.011,-4.1758 v 0 H 78.5977 l 66.0113,95.063 -8.804,12.203 L 61.3242,29.75 h -8.6094 l 78.7072,113.348 -8.82,12.211 L 36.7695,31.6953 v 0 c -1.0078,0.5742 -1.9804,1.332 -2.8437,2.2305 -0.9024,0.8633 -1.6563,1.8359 -2.2305,2.8437 v 0 L 118.219,161.383 109.41,173.594 29.75,58.8711 V 71.2617 L 105.023,179.668 96.2109,191.879 29.75,96.1719 v 854.8511 0" /><path
         id="path22"
         style="fill:#231f20;fill-opacity:1;fill-rule:nonzero;stroke:none"
         d="m 284.414,828.012 c 3.418,-4.246 7.379,-7.375 12.094,-9.5 4.539,-2.235 9.504,-3.242 14.762,-3.242 5.543,0 10.656,1.007 15.371,3.093 4.683,2.125 8.644,5.262 12.062,9.508 3.418,4.141 6.117,9.535 8.098,15.945 1.871,6.375 2.844,14.039 2.844,22.715 v 0 0 0 c 0,8.391 -0.973,15.66 -2.844,21.891 -1.981,6.266 -4.68,11.519 -8.098,15.801 -3.418,4.109 -7.379,7.382 -11.914,9.507 -4.719,2.125 -9.687,3.129 -14.941,3.129 -5.547,0 -10.516,-1.004 -15.231,-3.129 -4.679,-2.125 -8.785,-5.257 -12.203,-9.394 -3.422,-4.246 -6.121,-9.648 -7.957,-16.059 -1.98,-6.375 -2.988,-14.078 -2.988,-22.714 0,-8.391 1.008,-15.661 2.988,-21.891 1.836,-6.266 4.535,-11.52 7.957,-15.66 v 0" /><path
         id="path24"
         style="fill:#231f20;fill-opacity:1;fill-rule:nonzero;stroke:none"
         d="m 365.738,816.387 h 14.219 v 79.304 h 0.289 l 35.102,-79.304 h 18.609 v 99.179 h -14.219 v -79.882 h -0.289 l -35.097,79.882 h -18.614 v -99.179 0" /><path
         id="path26"
         style="fill:#231f20;fill-opacity:1;fill-rule:nonzero;stroke:none"
         d="m 454.66,816.387 h 50.723 v 12.636 h -35.387 v 32.254 h 32.145 v 12.672 h -32.145 v 28.981 h 33.836 v 12.636 H 454.66 v -99.179 0" /><path
         id="path28"
         style="fill:#231f20;fill-opacity:1;fill-rule:nonzero;stroke:none"
         d="m 206.078,816.387 h 58.57 v 12.636 h -41.363 l 40.645,73.618 v 12.925 H 207.34 V 902.93 h 38.515 l -39.777,-72.649 v -13.894 0" /><path
         id="path30"
         style="fill:#ffffff;fill-opacity:1;fill-rule:nonzero;stroke:none"
         d="m 295.07,837.555 c -3.855,6.8 -5.691,16.199 -5.691,28.008 0,7.234 0.578,13.355 1.836,18.324 1.152,4.965 2.703,9.105 4.863,12.203 1.981,2.988 4.391,5.293 7.09,6.691 2.703,1.301 5.691,1.985 8.68,1.985 7.09,0 12.488,-3.383 16.34,-10.223 3.707,-6.805 5.542,-16.203 5.542,-28.012 v 0 0 0 c 0,-7.234 -0.57,-13.351 -1.687,-18.324 -1.293,-4.965 -2.844,-9.105 -4.859,-12.094 -2.125,-3.129 -4.536,-5.398 -7.239,-6.66 -2.699,-1.441 -5.687,-2.125 -8.675,-2.125 -7.094,0 -12.497,3.387 -16.2,10.227 v 0" /><path
         id="path32"
         style="fill:#918f90;fill-opacity:1;fill-rule:nonzero;stroke:none"
         d="M 355.766,780.961 C 199.238,780.961 72.3008,654.023 72.3008,497.5 c 0,-156.527 126.9372,-283.469 283.4652,-283.469 156.531,0 283.464,126.942 283.464,283.469 0,156.523 -126.933,283.461 -283.464,283.461 v 0" /><path
         id="path34"
         style="fill:#ffffff;fill-opacity:1;fill-rule:nonzero;stroke:none"
         d="m 355.742,686.449 c -104.355,0 -188.98,-84.625 -188.98,-188.972 0,-104.356 84.625,-188.981 188.98,-188.981 104.352,0 188.977,84.625 188.977,188.981 0,104.347 -84.625,188.972 -188.977,188.972 v 0" /><path
         id="path36"
         style="fill:#231f20;fill-opacity:1;fill-rule:nonzero;stroke:none"
         d="m 275.375,557.797 -19.758,18.902 v 0 c 0.461,1.008 1.145,2.481 1.688,3.453 3.851,6.914 10.761,11.844 18.039,14.942 6.476,2.738 13.426,4.031 20.48,3.851 8.391,-0.254 16.598,-2.593 23.727,-7.019 7.344,-4.539 13.246,-11.051 16.953,-18.863 3.027,-6.34 4.43,-13.29 4.355,-20.305 -0.105,-8.028 -2.125,-15.945 -6.117,-22.895 -1.547,-2.668 -3.351,-5.152 -5.402,-7.418 -1.836,-2.015 -3.887,-3.851 -6.117,-5.472 -2.125,-1.547 -5.473,-3.493 -7.813,-4.785 2.34,-1.012 5.723,-2.559 7.848,-3.961 2.125,-1.372 4.101,-3.059 5.902,-4.895 2.379,-2.34 4.535,-5.223 6.445,-7.957 3.418,-5.004 6.407,-10.512 8.317,-16.199 1.976,-5.797 2.84,-11.988 2.808,-18.145 -0.074,-7.269 -1.402,-14.398 -4.07,-21.168 -2.269,-5.902 -5.578,-11.41 -9.68,-16.273 -5.187,-6.117 -11.593,-11.051 -18.867,-14.543 -7.453,-3.563 -15.554,-5.578 -23.828,-5.793 -6.844,-0.254 -13.609,0.715 -20.094,2.805 -7.054,2.304 -15.226,6.984 -21.523,10.91 -0.508,0.355 -1.77,1.152 -2.305,1.508 v 0 l 13.102,24.265 10.945,-7.058 v 0 c 2.231,-1.403 4.57,-2.7 7.055,-3.707 1.797,-0.754 3.672,-1.258 5.652,-1.547 3.422,-0.543 7.02,-0.289 10.438,0.433 6.304,1.403 12.062,4.571 16.562,9.141 4.789,4.863 8.102,11.125 8.785,17.93 0.575,6.3 -1.261,12.671 -4.394,18.179 -3.492,6.157 -8.496,11.27 -14.758,14.653 -2.699,1.507 -5.977,2.808 -8.93,3.781 -3.382,1.113 -7.054,2.156 -10.547,2.734 -0.722,0.145 -1.761,0.324 -2.484,0.469 v 0 l -0.035,29.191 v 0 c 0.824,0.039 1.976,0.149 2.844,0.184 3.527,0.289 7.054,0.863 10.511,1.691 3.993,0.942 8.496,2.414 11.805,4.86 3.098,2.199 5.508,5.262 7.238,8.605 2.016,3.852 3.203,8.207 2.914,12.602 -0.281,4.605 -2.086,9.215 -5.613,12.308 -2.519,2.164 -5.867,3.422 -9.18,3.961 -4.429,0.684 -9.109,0.289 -13.035,-1.836 -3.343,-1.836 -6.082,-5.003 -8.058,-8.277 -0.578,-0.937 -1.301,-2.269 -1.805,-3.242 v 0" /><path
         id="path38"
         style="fill:#231f20;fill-opacity:1;fill-rule:nonzero;stroke:none"
         d="m 413.848,598.688 c 4.062,0 8.261,-0.833 12.144,-2.012 8.539,-2.571 15.824,-8.606 21.207,-15.684 4.68,-6.179 8.117,-13.597 10.547,-20.957 2.363,-7.074 3.992,-14.433 5.102,-21.82 1.113,-7.567 1.699,-15.442 1.976,-23.113 0.278,-8.848 0.176,-17.727 -0.414,-26.579 -0.59,-8.289 -1.597,-16.511 -3.09,-24.668 -1.699,-9.332 -4.129,-18.8 -7.597,-27.617 -3.125,-7.945 -7.672,-16.55 -13.953,-22.308 -7.012,-6.453 -16.102,-10.239 -25.645,-10.551 -8.988,-0.348 -17.902,2.398 -24.984,7.984 -7.637,6 -12.946,16.063 -16.309,25.192 -3.227,8.703 -5.449,17.968 -6.91,27.16 -1.281,8.019 -2.113,16.621 -2.703,24.707 -0.559,7.98 -0.938,16.93 -0.59,24.945 0.344,8.192 1.426,16.692 2.812,24.778 1.25,7.109 2.879,14.605 5.063,21.507 2.328,7.395 5.66,14.993 10.309,21.203 5.55,7.422 13.187,13.563 22.101,16.063 3.473,0.973 7.324,1.77 10.934,1.77 v 0" /><path
         id="path40"
         style="fill:#ffffff;fill-opacity:1;fill-rule:nonzero;stroke:none"
         d="m 414.043,570.559 c 2.184,0.066 4.336,-0.418 6.246,-1.457 1.875,-0.973 3.399,-2.747 4.547,-4.477 1.875,-2.914 3.191,-7.043 4.055,-10.41 1.496,-5.723 2.644,-11.586 3.543,-17.453 0.902,-6.035 1.562,-12.176 1.976,-18.285 0.418,-6.282 0.66,-12.559 0.625,-18.836 -0.035,-7.082 -0.347,-14.192 -0.972,-21.274 -0.625,-7.113 -1.629,-14.5 -3.153,-21.437 -1.082,-4.825 -2.5,-9.719 -4.375,-14.297 -0.972,-2.36 -2.222,-4.86 -3.711,-6.942 -1.008,-1.39 -2.258,-2.742 -3.719,-3.714 -1.562,-1.004 -3.398,-1.629 -5.304,-1.735 -2.223,-0.137 -4.512,0.383 -6.356,1.668 -1.316,0.903 -2.527,2.391 -3.429,3.75 -1.426,2.149 -2.637,4.508 -3.645,6.938 -1.875,4.472 -3.16,9.609 -4.062,14.367 -1.25,6.762 -2.079,14.914 -2.637,21.75 -0.524,6.734 -1.004,14.539 -1.004,21.269 0,6.211 0.379,12.528 1.004,18.739 0.625,6.14 1.527,12.316 2.601,18.422 0.973,5.55 2.188,11.378 3.68,16.793 0.969,3.539 2.465,7.773 4.512,10.753 1.18,1.7 2.703,3.407 4.543,4.375 1.531,0.797 3.262,1.387 5.035,1.493 v 0" /><path
         id="path42"
         style="fill:#231f20;fill-opacity:1;fill-rule:nonzero;stroke:none"
         d="m 135.805,137.016 491.836,708.304 9.562,-11.109 -492.594,-709.398 -8.804,12.203" /><path
         id="path44"
         style="fill:#231f20;fill-opacity:1;fill-rule:nonzero;stroke:none"
         d="m 122.602,155.309 490.699,706.687 9.57,-11.129 -491.449,-707.769 -8.82,12.211" /><path
         id="path46"
         style="fill:#231f20;fill-opacity:1;fill-rule:nonzero;stroke:none"
         d="m 109.41,173.594 489.574,705.043 9.555,-11.11 -490.32,-706.144 -8.809,12.211" /><path
         id="path48"
         style="fill:#231f20;fill-opacity:1;fill-rule:nonzero;stroke:none"
         d="m 96.2109,191.879 488.4531,703.41 9.547,-11.094 -489.188,-704.527 -8.8121,12.211" /></g></g></svg>