<?xml version="1.0" encoding="UTF-8" standalone="no"?>
<svg
   xmlns:dc="http://purl.org/dc/elements/1.1/"
   xmlns:cc="http://creativecommons.org/ns#"
   xmlns:rdf="http://www.w3.org/1999/02/22-rdf-syntax-ns#"
   xmlns:svg="http://www.w3.org/2000/svg"
   xmlns="http://www.w3.org/2000/svg"
   viewBox="0 0 94.866669 132.66667"
   height="132.66667"
   width="94.866669"
   xml:space="preserve"
   id="svg2"
   version="1.1"><metadata
     id="metadata8"><rdf:RDF><cc:Work
         rdf:about=""><dc:format>image/svg+xml</dc:format><dc:type
           rdf:resource="http://purl.org/dc/dcmitype/StillImage" /></cc:Work></rdf:RDF></metadata><defs
     id="defs6" /><g
     transform="matrix(1.3333333,0,0,-1.3333333,0,132.66667)"
     id="g10"><g
       transform="scale(0.1)"
       id="g12"><path
         id="path14"
         style="fill:#ffffff;fill-opacity:1;fill-rule:nonzero;stroke:none"
         d="m 1.41797,1.41797 h 708.66 v 992.121 h -708.66 z" /><path
         id="path16"
         style="fill:none;stroke:#231f20;stroke-width:2.83500004;stroke-linecap:butt;stroke-linejoin:round;stroke-miterlimit:4;stroke-dasharray:none;stroke-opacity:1"
         d="M 1.41797,1.41797 H 710.078 V 993.539 H 1.41797 V 1.41797" /><path
         id="path18"
         style="fill:#231f20;fill-opacity:1;fill-rule:nonzero;stroke:none"
         d="m 15.6016,43.9297 c 0,-7.8125 2.7734,-14.5039 8.2812,-20.0469 5.543,-5.5078 12.2422,-8.2812 20.0469,-8.2812 v 0 H 667.563 v 0 c 7.808,0 14.507,2.7734 20.05,8.2812 5.508,5.543 8.282,12.2344 8.282,20.0469 v 0 907.0933 0 c 0,7.817 -2.774,14.508 -8.282,20.051 -5.543,5.508 -12.242,8.281 -20.05,8.281 v 0 H 43.9297 v 0 c -7.8047,0 -14.5039,-2.773 -20.0469,-8.281 -5.5078,-5.543 -8.2812,-12.234 -8.2812,-20.051 v 0 -907.0933 0" /><path
         id="path20"
         style="fill:#ffffff;fill-opacity:1;fill-rule:nonzero;stroke:none"
         d="M 29.75,96.168 89.2031,181.793 99.4688,171.664 29.75,71.2539 V 58.8711 L 104.57,166.621 114.828,156.492 31.6953,36.7695 v 0 c 0.5742,-1.0078 1.332,-1.9804 2.2305,-2.8437 0.8633,-0.9024 1.8359,-1.6563 2.8437,-2.2305 v 0 L 119.934,151.461 130.195,141.328 52.7148,29.7461 h 8.6094 L 135.297,136.285 145.551,126.168 78.5977,29.7461 H 667.563 v 0 c 3.921,0 7.234,1.4062 10.007,4.1797 2.774,2.7695 4.172,6.0859 4.172,10.0039 v 0 854.4253 l -50.609,-72.886 -9.43,11.293 60.039,86.468 v 12.422 l -64.746,-93.25 -9.441,11.321 72.39,104.25 v 0 c -0.613,1.082 -1.406,2.125 -2.375,3.058 -0.828,0.828 -1.691,1.547 -2.629,2.121 v 0 l -72.078,-103.804 -9.429,11.293 65.668,94.57 h -8.641 l -61.738,-88.922 -9.414,11.285 53.91,77.637 H 43.9297 v 0 c -3.918,0 -7.2305,-1.406 -10.0039,-4.18 -2.7735,-2.769 -4.1758,-6.086 -4.1758,-10.008 v 0 -854.855 0" /><path
         id="path22"
         style="fill:#656263;fill-opacity:1;fill-rule:nonzero;stroke:none"
         d="M 107.727,745.539 H 603.844 V 249.457 H 107.727 v 496.082 0" /><path
         id="path24"
         style="fill:#ffffff;fill-opacity:1;fill-rule:nonzero;stroke:none"
         d="m 314.078,311.879 h -62.422 v 351.758 h 175.895 v 0 c 14.504,0 30.238,-5.688 39.707,-18.289 12.601,-16.379 11.984,-32.149 11.984,-32.149 v 0 -117.863 0 c 0,-8.207 -2.519,-25.848 -15.117,-38.484 -11.375,-11.34 -23.328,-15.735 -36.574,-15.735 v 0 H 314.078 v -129.238 0" /><path
         id="path26"
         style="fill:#656263;fill-opacity:1;fill-rule:nonzero;stroke:none"
         d="M 314.004,495.336 V 608.16 h 89.531 v 0 c 3.785,0 8.176,0 10.695,-2.519 2.52,-2.52 3.168,-5.039 3.168,-10.696 v 0 -86.359 0 c 0,-4.43 -1.261,-8.211 -3.781,-10.078 -2.519,-2.524 -5.039,-3.172 -9.465,-3.172 v 0 h -90.148 v 0" /><path
         id="path28"
         style="fill:#231f20;fill-opacity:1;fill-rule:nonzero;stroke:none"
         d="m 135.297,136.285 486.406,700.477 9.43,-11.293 -485.582,-699.301 -10.254,10.117" /><path
         id="path30"
         style="fill:#231f20;fill-opacity:1;fill-rule:nonzero;stroke:none"
         d="m 119.934,151.461 487.621,702.262 9.441,-11.321 -486.801,-701.074 -10.261,10.133" /><path
         id="path32"
         style="fill:#231f20;fill-opacity:1;fill-rule:nonzero;stroke:none"
         d="m 104.57,166.621 488.864,704.02 9.429,-11.293 -488.035,-702.856 -10.258,10.129" /><path
         id="path34"
         style="fill:#231f20;fill-opacity:1;fill-rule:nonzero;stroke:none"
         d="M 89.2031,181.793 579.309,887.574 588.723,876.289 99.4688,171.664 89.2031,181.793" /><path
         id="path36"
         style="fill:#231f20;fill-opacity:1;fill-rule:nonzero;stroke:none"
         d="m 273.383,827.797 c 3.418,-4.246 7.418,-7.383 12.097,-9.504 4.536,-2.234 9.54,-3.238 14.793,-3.238 5.547,0 10.661,1.004 15.336,3.093 4.684,2.125 8.68,5.254 12.098,9.504 3.383,4.141 6.082,9.539 8.098,15.946 1.836,6.375 2.847,14.043 2.847,22.718 v 0 0 0 c 0,8.391 -1.011,15.661 -2.847,21.887 -2.016,6.266 -4.715,11.524 -8.098,15.805 -3.418,4.101 -7.414,7.379 -11.949,9.504 -4.684,2.125 -9.649,3.133 -14.942,3.133 -5.546,0 -10.511,-1.008 -15.191,-3.133 -4.684,-2.125 -8.824,-5.254 -12.242,-9.395 -3.383,-4.25 -6.082,-9.648 -7.957,-16.054 -1.977,-6.375 -2.988,-14.079 -2.988,-22.715 0,-8.391 1.011,-15.664 2.988,-21.891 1.875,-6.266 4.574,-11.519 7.957,-15.66 v 0" /><path
         id="path38"
         style="fill:#231f20;fill-opacity:1;fill-rule:nonzero;stroke:none"
         d="m 354.742,816.168 h 14.184 v 79.312 h 0.289 l 35.101,-79.312 h 18.649 v 99.18 h -14.219 v -79.883 h -0.289 l -35.102,79.883 h -18.613 v -99.18 0" /><path
         id="path40"
         style="fill:#231f20;fill-opacity:1;fill-rule:nonzero;stroke:none"
         d="m 433.801,816.168 h 15.371 l 7.523,24.844 h 35.965 l 7.52,-24.844 h 15.914 l -32.254,99.18 h -16.777 l -33.262,-99.18 v 0" /><path
         id="path42"
         style="fill:#231f20;fill-opacity:1;fill-rule:nonzero;stroke:none"
         d="m 195.051,816.168 h 58.566 v 12.637 h -41.359 l 40.644,73.621 v 12.922 h -56.558 v -12.633 h 38.519 l -39.812,-72.652 v -13.895 0" /><path
         id="path44"
         style="fill:#ffffff;fill-opacity:1;fill-rule:nonzero;stroke:none"
         d="m 284.078,837.34 c -3.851,6.801 -5.687,16.195 -5.687,28.008 0,7.234 0.535,13.351 1.836,18.32 1.152,4.969 2.699,9.109 4.824,12.207 1.976,2.988 4.422,5.293 7.121,6.691 2.703,1.297 5.691,1.985 8.644,1.985 7.129,0 12.528,-3.383 16.34,-10.227 3.715,-6.804 5.551,-16.199 5.551,-28.008 v 0 0 0 c 0,-7.234 -0.543,-13.355 -1.695,-18.324 -1.262,-4.969 -2.844,-9.105 -4.824,-12.094 -2.125,-3.132 -4.536,-5.398 -7.27,-6.66 -2.703,-1.441 -5.656,-2.125 -8.645,-2.125 -7.128,0 -12.523,3.387 -16.195,10.227 v 0" /><path
         id="path46"
         style="fill:#ffffff;fill-opacity:1;fill-rule:nonzero;stroke:none"
         d="m 460.406,853.395 14.614,47.914 h 0.289 l 13.789,-47.914 h -28.692 v 0" /></g></g></svg>