<?xml version="1.0" encoding="UTF-8" standalone="no"?>
<svg
   xmlns:dc="http://purl.org/dc/elements/1.1/"
   xmlns:cc="http://creativecommons.org/ns#"
   xmlns:rdf="http://www.w3.org/1999/02/22-rdf-syntax-ns#"
   xmlns:svg="http://www.w3.org/2000/svg"
   xmlns="http://www.w3.org/2000/svg"
   viewBox="0 0 132.66667 94.866669"
   height="94.866669"
   width="132.66667"
   xml:space="preserve"
   id="svg2"
   version="1.1"><metadata
     id="metadata8"><rdf:RDF><cc:Work
         rdf:about=""><dc:format>image/svg+xml</dc:format><dc:type
           rdf:resource="http://purl.org/dc/dcmitype/StillImage" /></cc:Work></rdf:RDF></metadata><defs
     id="defs6" /><g
     transform="matrix(1.3333333,0,0,-1.3333333,0,94.866667)"
     id="g10"><g
       transform="scale(0.1)"
       id="g12"><path
         id="path14"
         style="fill:#ffffff;fill-opacity:1;fill-rule:nonzero;stroke:none"
         d="M 993.547,1.41797 H 1.41797 V 710.078 H 993.547 V 1.41797" /><path
         id="path16"
         style="fill:none;stroke:#231f20;stroke-width:2.83500004;stroke-linecap:butt;stroke-linejoin:round;stroke-miterlimit:4;stroke-dasharray:none;stroke-opacity:1"
         d="M 993.547,1.41797 H 1.41797 V 710.078 H 993.547 Z" /><path
         id="path18"
         style="fill:#231f20;fill-opacity:1;fill-rule:nonzero;stroke:none"
         d="m 15.5664,44 c 0,-15.6953 12.6758,-28.3633 28.3711,-28.3633 v 0 H 950.992 v 0 c 15.66,0 28.367,12.668 28.367,28.3633 v 0 623.594 0 c 0,15.66 -12.707,28.367 -28.367,28.367 v 0 H 43.9375 v 0 c -15.6953,0 -28.3711,-12.707 -28.3711,-28.367 v 0 V 44 44" /><path
         id="path20"
         style="fill:#ffffff;fill-opacity:1;fill-rule:nonzero;stroke:none"
         d="m 29.75,667.594 c 0,7.847 6.3398,14.219 14.1523,14.219 v 0 H 902.863 l -82.238,-57.067 10.762,-9.746 96.281,66.813 h 12.523 l -103.375,-71.739 10.758,-9.746 112.598,78.141 v 0 c 1.801,-1.551 3.203,-3.531 4.066,-5.797 v 0 l -111.277,-77.227 10.75,-9.746 101.465,70.41 v -8.605 l -96.09,-66.68 10.758,-9.746 85.332,59.219 v -586.3322 0 c 0,-7.8125 -6.336,-14.1445 -14.145,-14.1445 v 0 H 99.8789 L 147.992,63.207 138.688,73.9609 75.0781,29.8203 H 62.6914 L 134.039,79.332 124.742,90.0664 39.1133,30.6445 v 0 C 36.6641,31.543 34.5742,33.0586 32.957,35 v 0 l 87.117,60.4609 -9.32,10.7661 L 29.75,50.0156 v 8.6758 L 106.059,111.645 96.7383,122.418 29.75,75.9336 v 591.6604 0" /><path
         id="path22"
         style="fill:#656263;fill-opacity:1;fill-rule:nonzero;stroke:none"
         d="M 821.715,108.113 V 72.2969 H 173.141 V 497.242 h 648.574 l 0.113,-257.867 v 0 c -26.75,27.754 -67.648,36.504 -103.394,22.105 -35.786,-14.406 -59.184,-49.109 -59.184,-87.628 0,-38.555 23.398,-73.223 59.184,-87.6606 35.746,-14.3984 76.531,-5.8633 103.281,21.9216 v 0" /><path
         id="path24"
         style="fill:#ffffff;fill-opacity:1;fill-rule:nonzero;stroke:none"
         d="m 273.867,331.715 c 12.817,0 23.223,-10.406 23.223,-23.223 0,-12.812 -10.406,-23.219 -23.223,-23.219 -12.816,0 -23.219,10.407 -23.219,23.219 0,12.817 10.403,23.223 23.219,23.223 v 0" /><path
         id="path26"
         style="fill:#ffffff;fill-opacity:1;fill-rule:nonzero;stroke:none"
         d="m 551.5,424.922 c 5.34,0 9.688,-4.352 9.688,-9.688 0,-5.339 -4.348,-9.687 -9.688,-9.687 -5.336,0 -9.687,4.348 -9.687,9.687 0,5.336 4.351,9.688 9.687,9.688 v 0" /><path
         id="path28"
         style="fill:#ffffff;fill-opacity:1;fill-rule:nonzero;stroke:none"
         d="m 519.281,212.156 c 9.25,0 16.813,-7.562 16.813,-16.808 0,-9.254 -7.563,-16.813 -16.813,-16.813 -9.25,0 -16.816,7.559 -16.816,16.813 0,9.246 7.566,16.808 16.816,16.808 v 0" /><path
         id="path30"
         style="fill:#ffffff;fill-opacity:1;fill-rule:nonzero;stroke:none"
         d="m 239.594,233.324 c -4.75,-8.816 -7.918,-15.984 -13.281,-24.656 -2.989,-6.914 -5.219,-14.582 -8.497,-20.664 -2.121,-4.395 -6.371,-8.496 -11.449,-7.457 -3.203,1.191 -2.625,3.101 -3.492,4.898 1.871,33.91 23.004,64.223 33.625,82.332 5.328,3.278 18.973,14.797 23.941,14.688 6.946,-0.145 13.641,-1.621 20.59,-1.762 v 0 l 11.344,-13.754 10.473,-25.777 v 0 c 0.863,-2.555 3.89,-6.442 6.156,-7.813 5.902,-7.847 21.957,-14.039 29.234,-23.109 5.145,-6.406 -4.355,-12.887 -9.687,-9.758 v 0 h -0.071 v 0 c -15.011,5.543 -31.066,12.852 -43.886,23.762 -0.969,0.828 -1.906,1.691 -2.879,2.559 -4.785,-19.192 12.676,-43.708 19.945,-58.395 9.723,-19.656 19.477,-39.352 29.195,-59.004 4.032,-0.434 8.387,-1.367 12.458,-1.367 3.347,-0.508 0.648,-3.098 -0.614,-3.961 -3.886,-2.738 -7.375,-6.0157 -11.625,-8.1719 v 0 l -16.851,-8.5313 v 0 c -10.727,17.6012 -12.383,25.0902 -18.575,37.6562 -10.261,21.742 -20.48,43.453 -30.707,65.195 v 0 l -4.105,0.036 -29.879,-79.348 -4.176,-13.3126 7.668,-7.5274 v 0 c 0.938,-0.9023 2.34,-3.3125 -0.469,-3.4218 v 0 l -4.964,0.3632 v 0 c -6.414,-0.289 -9.328,1.293 -13.938,2.1563 -4.281,1.7266 -9.824,0.9023 -13.965,2.9531 -3.133,1.2969 0.758,7.0235 1.871,10.3672 0.938,2.809 2.625,5.328 3.563,8.137 9.902,30.168 19.836,60.336 29.738,90.508 3.238,9.863 3.309,21.847 3.309,32.179 v 0" /><path
         id="path32"
         style="fill:#ffffff;fill-opacity:1;fill-rule:nonzero;stroke:none"
         d="m 546.031,163.234 c 0,-9.578 -0.722,-19.511 2.34,-28.66 v 0 l 2.481,-3.273 v 0 c 1.332,-1.766 3.496,-2.235 6.046,-2.375 9.618,0.289 16.524,6.91 25.957,10.078 1.083,0.359 1.227,0.758 3.172,1.226 3.672,-5.761 4.028,-8.75 6.692,-14.437 -0.141,-1.551 -0.5,-3.023 -1.399,-4.426 -0.289,-0.574 -1.66,-0.508 -2.304,0.11 v 0 l -4.289,3.992 v 0 c -0.43,0.433 -1.114,0.683 -1.657,0.289 -7.812,-5.871 -15.586,-11.953 -23.722,-17.391 -10.508,3.492 -20.774,10.91 -29.953,17.028 -19.297,-8.059 -38.407,-21.239 -55.114,-33.7622 v 0 l -4.465,-2.4883 -7.378,7.7422 v 0 c -1.516,1.5821 -3.637,4.5353 -2.594,6.5153 -0.141,1.477 0.832,2.914 3.168,1.981 v 0 l 7.09,-2.844 v 0 c 14.332,12.383 28.765,23.762 44.105,34.738 -0.109,2.411 -0.398,3.563 -0.719,5.504 -1.769,3.567 -2.738,14.871 -2.988,16.746 -6.844,0 -13.574,-3.457 -20.27,-3.457 -9.253,-0.433 -16.417,-6.121 -24.804,-6.48 -2.668,-0.469 -4.824,-0.758 -7.238,-0.899 -3.887,-0.253 -5.473,3.164 -2.625,5.434 2.371,1.91 4.75,3.922 7.664,4.898 7.742,2.586 15.191,5.723 23.113,8.094 16.957,5.512 45.433,10.481 55.871,8.391 5.113,0 9.109,-0.356 15.23,1.586 v 0 l 14.868,17.676 3.601,3.277 h 0.031 v 0 c 7.997,5.039 11.883,-4.285 9.403,-5.797 v 0 l -15.989,-21.238 -4.32,-4.574 v 0 c -2.629,-2.77 -6.371,-4.071 -10.152,-4.071 -3.055,0 -5.867,0.11 -8.852,0.867 v 0" /><path
         id="path34"
         style="fill:#ffffff;fill-opacity:1;fill-rule:nonzero;stroke:none"
         d="m 550.313,338.949 c 0,-8.601 -0.036,-17.172 -0.036,-25.773 -1.222,-4.176 -5.832,-3.457 -7.382,-0.328 -0.938,5.8 -0.141,19.402 -0.141,26.031 v 0 l 7.559,0.07 v 0" /><path
         id="path36"
         style="fill:#ffffff;fill-opacity:1;fill-rule:nonzero;stroke:none"
         d="m 560.141,338.91 c 0,-10.941 -0.106,-21.922 -0.106,-32.863 -0.113,-2.844 -5.726,-4.391 -7.418,0.144 0,10.903 -0.074,21.778 -0.074,32.688 v 0 l 7.598,0.031 v 0" /><path
         id="path38"
         style="fill:#ffffff;fill-opacity:1;fill-rule:nonzero;stroke:none"
         d="m 604.059,341.035 10.156,-12.203 v 0 c 1.367,0.938 1.547,2.594 2.265,3.996 0.321,1.727 0.29,3.027 -0.648,4.215 -5.723,5.723 -10.402,12.383 -15.621,18.57 -9.867,-4.89 -15.914,2.922 -22.145,10.16 0.184,0.282 1.547,1.942 0.797,3.704 -4.789,10.984 -13.898,40.968 -35.715,29.699 -10.148,-6.371 -8.75,-18.899 -8.75,-29.121 0.036,-1.188 0.614,-1.477 2.09,-2.848 -5.793,-7.269 -8.531,-17.816 -8.531,-26.926 v 0 l 46.981,-0.179 v 0 c 0,13.609 -5.723,27.144 -16.418,35.601 v 0 l 0.074,13.141 v 0 c 0.754,1.511 1.656,0.758 2.265,0.144 5.079,-6.73 7.922,-16.129 11.485,-23.289 0.254,-1.48 -0.574,-2.015 1.515,-4.824 3.094,-6.191 8.852,-10.082 13.246,-15.84 -1.187,-13.359 -3.492,-26.64 -3.492,-40.07 0,-3.957 5.543,-4.61 6.555,-0.754 v 0 l 1.613,19.766 3.926,0.031 v 0 c 0.543,-6.047 1.625,-12.094 1.625,-18.18 0.68,-3.238 5.613,-3.926 6.477,-0.035 v 0 0.793 0 c 0,5.832 -1.118,11.555 -1.657,17.352 v 0 h 4.5 l -2.593,17.097 v 0" /><path
         id="path40"
         style="fill:#ffffff;fill-opacity:1;fill-rule:nonzero;stroke:none"
         d="m 756.625,416.027 v -93.461 c -42.512,0 -85.027,-0.031 -127.543,-0.14 v 0 93.453 0 c -1.766,-1.328 -3.926,-3.383 -6.336,-3.383 -5.113,-0.793 -9.394,3.383 -6.48,9.07 0.214,0.684 1.113,1.481 1.656,1.911 24.945,18.687 49.894,37.402 74.844,56.089 25.019,-18.648 50.004,-37.296 75.023,-55.945 1.188,-0.863 1.91,-2.269 2.41,-3.562 1.621,-7.957 -7.234,-9.114 -10.617,-6.192 -1.008,0.25 -2.234,1.438 -2.957,2.16 v 0" /><path
         id="path42"
         style="fill:#ffffff;fill-opacity:1;fill-rule:nonzero;stroke:none"
         d="m 593.98,374.879 c 4.79,0 8.676,-3.887 8.676,-8.68 0,-4.789 -3.886,-8.676 -8.676,-8.676 -4.789,0 -8.675,3.887 -8.675,8.676 0,4.793 3.886,8.68 8.675,8.68 v 0" /><path
         id="path44"
         style="fill:#ffffff;fill-opacity:1;fill-rule:nonzero;stroke:none"
         d="m 419.086,253.398 c 24.539,0 49.309,1.782 54.719,4.957 0,-9.335 -2.844,-26.89 12.929,-21.632 7.403,2.449 4.442,18.187 4.442,21.812 10.332,5.164 7.554,11.695 7.824,23.266 0.453,19.879 -3.715,39.726 -14.02,44.351 v 0 l 0.333,0.118 v 0 c 5.468,0.91 11.152,0.82 15.988,0.453 1.203,-0.086 2.172,0.547 2.293,2.386 v 0 l -0.574,7.461 v 0 c 0,1.516 -1.055,2.028 -2.239,1.938 v 0 l -8.367,0.301 v 0 c -2.867,0.214 -4.863,0.363 -6.676,-1.661 v 0 l -3.898,-7.402 v 0 c -3.383,13.262 -5.258,24.445 -10,37.649 -3.172,8.851 -30.09,10.3 -52.754,10.085 -22.656,0.215 -49.602,-1.234 -52.777,-10.085 -4.743,-13.204 -6.618,-24.387 -10,-37.649 v 0 l -3.895,7.402 v 0 c -1.812,2.024 -3.809,1.875 -6.68,1.661 v 0 l -8.371,-0.301 v 0 c -1.175,0.09 -2.23,-0.422 -2.23,-1.938 v 0 l -0.578,-7.461 v 0 c 0.125,-1.839 1.09,-2.472 2.297,-2.386 4.832,0.367 10.511,0.457 15.98,-0.453 v 0 l 0.332,-0.118 v 0 c -10.297,-4.625 -14.469,-24.472 -14.019,-44.351 0.273,-11.571 -2.504,-18.102 7.828,-23.266 0,-3.625 -2.957,-19.363 4.445,-21.812 15.766,-5.258 12.93,12.297 12.93,21.632 5.402,-3.175 30.207,-4.957 54.738,-4.957 v 0" /><path
         id="path46"
         style="fill:#656263;fill-opacity:1;fill-rule:nonzero;stroke:none"
         d="m 747.23,334.918 -39.273,0.145 v 35.421 h -30.062 v -35.421 h -39.02 v 87.226 l 53.566,38.879 54.789,-41.758 v -84.492" /><path
         id="path48"
         style="fill:#656263;fill-opacity:1;fill-rule:nonzero;stroke:none"
         d="m 541.672,373.328 c 0,5.039 0,10.078 0,15.117 0.144,1.664 2.664,1.731 2.664,-0.031 0,-4.281 0.035,-8.531 0.035,-12.816 -1.187,-1.008 -1.293,0.07 -2.699,-2.27 v 0" /><path
         id="path50"
         style="fill:#656263;fill-opacity:1;fill-rule:nonzero;stroke:none"
         d="m 419.074,266.238 c -23.543,-0.027 -47.074,1.032 -70.613,3.176 -1.84,0.152 -3.348,1.781 -3.348,3.656 v 0 2.207 0 c 0,1.871 1.508,3.235 3.348,3.047 23.539,-2.14 47.105,-3.195 70.641,-3.136 23.535,-0.059 47.07,0.996 70.605,3.136 1.84,0.188 3.356,-1.176 3.356,-3.047 v 0 -2.207 0 c 0,-1.875 -1.516,-3.504 -3.356,-3.656 -23.535,-2.144 -47.098,-3.203 -70.633,-3.176 v 0" /><path
         id="path52"
         style="fill:#656263;fill-opacity:1;fill-rule:nonzero;stroke:none"
         d="m 419.082,285.094 h -36.586 v 0 c -2.836,0 -4.836,2.086 -3.867,4.015 v 0 l 9.398,19.188 v 0 c 0.571,1.211 2.145,1.992 3.864,1.992 v 0 h 27.222 27.192 v 0 c 1.722,0 3.297,-0.781 3.867,-1.992 v 0 l 9.394,-19.188 v 0 c 0.965,-1.929 -1.027,-4.015 -3.867,-4.015 v 0 h -36.617 v 0" /><path
         id="path54"
         style="fill:#656263;fill-opacity:1;fill-rule:nonzero;stroke:none"
         d="m 477.965,314.816 c 6.074,0 11.023,-4.953 11.023,-11.027 0,-6.074 -4.949,-11.031 -11.023,-11.031 -6.074,0 -11.031,4.957 -11.031,11.031 0,6.074 4.957,11.027 11.031,11.027 v 0" /><path
         id="path56"
         style="fill:#656263;fill-opacity:1;fill-rule:nonzero;stroke:none"
         d="m 360.188,314.816 c -6.075,0 -11.032,-4.953 -11.032,-11.027 0,-6.074 4.957,-11.031 11.032,-11.031 6.066,0 11.023,4.957 11.023,11.031 0,6.074 -4.957,11.027 -11.023,11.027 v 0" /><path
         id="path58"
         style="fill:#656263;fill-opacity:1;fill-rule:nonzero;stroke:none"
         d="m 419.328,330.512 c 20.547,-0.086 38.43,-1.356 55.172,-2.684 -1.633,6.676 -5.805,28.852 -8.371,34.227 -1.328,3.625 -2.266,6.89 -9.395,7.675 -5.316,2.571 -21.031,3.473 -37.406,3.262 -16.371,0.211 -32.57,-0.691 -37.887,-3.262 -7.128,-0.785 -8.066,-4.05 -9.394,-7.675 -2.57,-5.375 -6.738,-27.551 -8.371,-34.227 16.738,1.328 35.109,2.598 55.652,2.684 v 0" /><path
         id="path60"
         style="fill:#231f20;fill-opacity:1;fill-rule:nonzero;stroke:none"
         d="m 715.082,140.773 h 33.738 v -12.675 h -49.718 v 0 c -0.075,31.14 18.898,41.472 34.593,66.386 8.93,14.184 -20.445,28.254 -20.445,1.114 v 0 l -14.078,-0.035 v 0 c -2.879,44.531 62.715,32.289 48.242,-5.258 -6.59,-17.063 -30.027,-30.348 -32.332,-49.532 v 0" /><path
         id="path62"
         style="fill:#231f20;fill-opacity:1;fill-rule:nonzero;stroke:none"
         d="m 782.91,224.508 c 41.438,0 29.985,-119.992 -10.621,-94.973 -21.492,13.215 -22.5,94.973 10.621,94.973 v 0" /><path
         id="path64"
         style="fill:#ffffff;fill-opacity:1;fill-rule:nonzero;stroke:none"
         d="m 678.078,384.816 h 29.8438 v 29.9141 H 678.078 Z" /><path
         id="path66"
         style="fill:#918f90;fill-opacity:1;fill-rule:nonzero;stroke:none"
         d="m 821.754,298.34 0.035,-58.824 v 0 c -26.75,27.761 -67.644,36.504 -103.394,22.105 -35.782,-14.398 -59.18,-49.105 -59.18,-87.621 0,-38.559 23.398,-73.227 59.18,-87.6602 35.75,-14.4023 76.539,-5.871 103.285,21.9222 v 0 -35.8206 L 654.895,72.4063 v 0 c -50.836,49.4257 -57.317,128.8047 -15.192,185.7967 42.117,57.024 119.879,74.16 182.051,40.137 v 0" /><path
         id="path68"
         style="fill:#ffffff;fill-opacity:1;fill-rule:nonzero;stroke:none"
         d="m 783.234,210.43 c 16.704,0 11.625,-85.571 -4.285,-68.727 -8.172,8.645 -10.043,68.727 4.285,68.727 v 0" /><path
         id="path70"
         style="fill:#231f20;fill-opacity:1;fill-rule:nonzero;stroke:none"
         d="M 138.688,73.9609 869.086,580.824 879.844,571.078 147.992,63.207 138.688,73.9609" /><path
         id="path72"
         style="fill:#231f20;fill-opacity:1;fill-rule:nonzero;stroke:none"
         d="M 124.742,90.0664 852.961,595.445 863.711,585.699 134.039,79.332 124.742,90.0664" /><path
         id="path74"
         style="fill:#231f20;fill-opacity:1;fill-rule:nonzero;stroke:none"
         d="m 110.754,106.227 726.062,503.847 10.758,-9.746 -727.5,-504.8671 -9.32,10.7661" /><path
         id="path76"
         style="fill:#231f20;fill-opacity:1;fill-rule:nonzero;stroke:none"
         d="M 96.7383,122.418 820.625,624.746 831.387,615 106.059,111.645 96.7383,122.418" /><path
         id="path78"
         style="fill:#231f20;fill-opacity:1;fill-rule:nonzero;stroke:none"
         d="m 347.934,546.684 v 13.898 l 39.781,72.645 h -38.52 v 12.636 h 56.59 V 632.941 L 365.148,559.32 h 41.36 v -12.636 h -58.574" /><path
         id="path80"
         style="fill:#231f20;fill-opacity:1;fill-rule:nonzero;stroke:none"
         d="m 426.273,558.316 c 3.418,-4.25 7.379,-7.382 12.098,-9.507 4.535,-2.231 9.5,-3.239 14.758,-3.239 5.543,0 10.656,1.008 15.371,3.098 4.68,2.125 8.641,5.254 12.063,9.5 3.417,4.141 6.117,9.543 8.101,15.949 1.867,6.371 2.84,14.043 2.84,22.715 v 0 0 0 c 0,8.387 -0.973,15.664 -2.84,21.891 -1.984,6.261 -4.684,11.515 -8.101,15.804 -3.422,4.102 -7.383,7.375 -11.918,9.5 -4.719,2.125 -9.684,3.137 -14.938,3.137 -5.547,0 -10.512,-1.012 -15.23,-3.137 -4.684,-2.125 -8.786,-5.254 -12.204,-9.394 -3.421,-4.246 -6.121,-9.649 -7.957,-16.055 -1.976,-6.371 -2.988,-14.074 -2.988,-22.719 0,-8.382 1.012,-15.66 2.988,-21.882 1.836,-6.266 4.536,-11.528 7.957,-15.661 v 0" /><path
         id="path82"
         style="fill:#231f20;fill-opacity:1;fill-rule:nonzero;stroke:none"
         d="m 507.598,546.684 h 14.218 v 79.308 h 0.289 l 35.098,-79.308 h 18.613 v 99.179 H 561.598 V 565.98 h -0.289 l -35.102,79.883 h -18.609 v -99.179" /><path
         id="path84"
         style="fill:#231f20;fill-opacity:1;fill-rule:nonzero;stroke:none"
         d="m 596.516,546.684 h 50.726 v 12.636 h -35.39 v 32.258 H 644 v 12.668 h -32.148 v 28.981 h 33.843 v 12.636 h -49.179 v -99.179" /><path
         id="path86"
         style="fill:#ffffff;fill-opacity:1;fill-rule:nonzero;stroke:none"
         d="m 436.93,567.852 v 0 c 3.707,-6.836 9.105,-10.219 16.199,-10.219 2.988,0 5.976,0.683 8.672,2.125 2.703,1.258 5.113,3.523 7.238,6.652 2.016,2.988 3.563,7.129 4.863,12.102 1.114,4.965 1.688,11.09 1.688,18.32 v 0 0 0 c 0,11.813 -1.836,21.203 -5.539,28.012 -3.856,6.836 -9.254,10.219 -16.344,10.219 -2.988,0 -5.977,-0.684 -8.676,-1.977 -2.699,-1.406 -5.113,-3.711 -7.097,-6.695 -2.157,-3.098 -3.704,-7.235 -4.856,-12.207 -1.262,-4.965 -1.836,-11.086 -1.836,-18.325 0,-11.804 1.836,-21.203 5.688,-28.007" /></g></g></svg>