<?xml version="1.0" encoding="UTF-8" standalone="no"?>
<svg
   xmlns:dc="http://purl.org/dc/elements/1.1/"
   xmlns:cc="http://creativecommons.org/ns#"
   xmlns:rdf="http://www.w3.org/1999/02/22-rdf-syntax-ns#"
   xmlns:svg="http://www.w3.org/2000/svg"
   xmlns="http://www.w3.org/2000/svg"
   viewBox="0 0 94.866669 132.66667"
   height="132.66667"
   width="94.866669"
   xml:space="preserve"
   id="svg2"
   version="1.1"><metadata
     id="metadata8"><rdf:RDF><cc:Work
         rdf:about=""><dc:format>image/svg+xml</dc:format><dc:type
           rdf:resource="http://purl.org/dc/dcmitype/StillImage" /></cc:Work></rdf:RDF></metadata><defs
     id="defs6" /><g
     transform="matrix(1.3333333,0,0,-1.3333333,0,132.66667)"
     id="g10"><g
       transform="scale(0.1)"
       id="g12"><path
         id="path14"
         style="fill:#ffffff;fill-opacity:1;fill-rule:nonzero;stroke:none"
         d="m 1.41797,1.41797 h 708.66 v 992.121 h -708.66 z" /><path
         id="path16"
         style="fill:none;stroke:#231f20;stroke-width:2.83500004;stroke-linecap:butt;stroke-linejoin:miter;stroke-miterlimit:4;stroke-dasharray:none;stroke-opacity:1"
         d="M 1.41797,1.41797 H 710.078 V 993.539 H 1.41797 V 1.41797" /><path
         id="path18"
         style="fill:#231f20;fill-opacity:1;fill-rule:nonzero;stroke:none"
         d="m 667.559,15.6016 c 7.812,0 14.511,2.7734 20.054,8.2812 5.508,5.543 8.282,12.2344 8.282,20.0469 v 0 907.0933 0 c 0,7.817 -2.774,14.508 -8.282,20.051 -5.543,5.508 -12.242,8.281 -20.054,8.281 v 0 H 43.9297 v 0 c -7.8047,0 -14.5039,-2.773 -20.0469,-8.281 -5.5078,-5.543 -8.2812,-12.234 -8.2812,-20.051 v 0 -907.0933 0 c 0,-7.8125 2.7734,-14.5039 8.2812,-20.0469 5.543,-5.5078 12.2422,-8.2812 20.0469,-8.2812 v 0 H 667.559 v 0" /><path
         id="path20"
         style="fill:#ffffff;fill-opacity:1;fill-rule:nonzero;stroke:none"
         d="M 78.5977,29.7461 154.199,138.617 144.574,149.645 61.3203,29.7461 H 52.7148 L 139.781,155.133 130.141,166.168 36.7695,31.6953 v 0 c -1.0078,0.5742 -1.9804,1.3281 -2.8437,2.2305 -0.9024,0.8633 -1.6563,1.8359 -2.2305,2.8437 v 0 L 125.352,171.656 115.723,182.688 29.75,58.8711 V 71.2539 L 110.93,188.176 101.301,199.203 29.75,96.168 v 854.855 0 c 0,3.922 1.4023,7.239 4.1758,10.008 2.7695,2.774 6.0859,4.18 10.0039,4.18 v 0 H 633.219 l -64.84,-93.375 10.746,-9.363 71.336,102.738 h 8.641 l -74.598,-107.43 10.754,-9.379 79.683,114.75 v 0 c 0.938,-0.574 1.797,-1.293 2.629,-2.121 0.969,-0.933 1.762,-1.976 2.375,-3.058 v 0 l -79.324,-114.243 10.777,-9.39 70.344,101.312 V 923.23 l -64.972,-93.574 10.761,-9.379 54.211,78.078 v -854.4253 0 c 0,-3.918 -1.398,-7.2344 -4.172,-10.0039 -2.773,-2.7735 -6.086,-4.1797 -10.011,-4.1797 v 0 H 78.5977 v 0" /><path
         id="path22"
         style="fill:#656263;fill-opacity:1;fill-rule:nonzero;stroke:none"
         d="m 355.766,780.961 c 156.543,0 283.464,-126.922 283.464,-283.465 0,-156.543 -126.921,-283.465 -283.464,-283.465 -156.543,0 -283.4652,126.922 -283.4652,283.465 0,156.543 126.9222,283.465 283.4652,283.465 v 0" /><path
         id="path24"
         style="fill:#ffffff;fill-opacity:1;fill-rule:nonzero;stroke:none"
         d="m 263.129,416.469 25.269,0.176 0.071,-83.625 v 0 c -0.211,-6.825 -5.742,-12.254 -12.567,-12.321 -7.097,-0.109 -12.91,5.668 -12.839,12.77 v 0 l 0.066,83 v 0" /><path
         id="path26"
         style="fill:#ffffff;fill-opacity:1;fill-rule:nonzero;stroke:none"
         d="m 295.793,416.465 25.363,0.105 -0.031,-106.355 v 0 c 0,-6.922 -5.535,-12.563 -12.457,-12.664 -7.031,-0.145 -12.809,5.531 -12.875,12.562 v 0 106.352 0" /><path
         id="path28"
         style="fill:#ffffff;fill-opacity:1;fill-rule:nonzero;stroke:none"
         d="m 370.426,420.57 c 0.211,25.684 -6.055,51.055 -18.235,73.711 -9.187,17.157 -21.574,32.399 -36.472,44.93 v 0 42.004 0 c -0.137,1.672 0.836,3.238 2.367,3.898 2.016,0.867 4.352,-0.07 5.219,-2.086 v 0 l 38.527,-77.089 v 0 c -0.383,-2.715 -0.211,-5.5 0.523,-8.145 0.903,-3.199 2.571,-6.09 4.872,-8.492 v 0 l 43.812,-52.336 -11.691,-133.258 v 0 c -0.559,-5.918 3.687,-11.207 9.609,-11.937 5.91,-0.735 11.309,3.335 12.211,9.187 v 0 l 5.43,65.879 13.05,0.137 5.43,-60.071 v 0 c 0.625,-6.261 6.367,-10.679 12.563,-9.672 5.675,0.938 9.675,6.125 9.082,11.868 v 0 l -5.598,57.562 15.102,0.07 -8.668,57.004 33.761,-40.785 v 0 c 3.93,3.375 6.61,8.035 7.512,13.156 1.012,5.672 -0.172,11.485 -3.34,16.29 v 0 l -50.808,59.855 v 0 c -8.946,-5.395 -19.629,-7.238 -29.895,-5.082 -6.648,1.355 -12.84,4.352 -18.027,8.699 v 0 l -25.824,30.281 v 0 c 1.39,1.493 2.367,3.34 2.89,5.329 0.727,2.953 0.313,6.121 -1.152,8.8 v 0 l -36.891,73.606 v 0 c -10.437,19.457 -30.902,31.465 -53,31.113 -30.383,-0.488 -55.406,-23.906 -57.945,-54.152 v 0 l 0.379,-48.688 v 0 c 0.074,-3.062 1.222,-6.019 3.273,-8.316 1.078,-1.219 2.332,-2.231 3.758,-2.961 -8.633,-12.356 -15.414,-25.856 -20.219,-40.125 -5.359,-15.973 -8.109,-32.711 -8.179,-49.559 v 0 l 156.574,-0.625 v 0" /><path
         id="path30"
         style="fill:#ffffff;fill-opacity:1;fill-rule:nonzero;stroke:none"
         d="m 425.227,480.559 c 20.531,-5.778 39.984,12.109 35.949,33.058 -3.828,19.977 -26.625,29.758 -43.75,18.762 -4.696,-3.027 -8.313,-7.203 -10.649,-12.32 -2.293,-5.082 -3.062,-10.582 -2.226,-16.114 0.836,-5.531 3.168,-10.547 6.89,-14.757 3.692,-4.176 8.387,-7.133 13.786,-8.629 v 0" /><path
         id="path32"
         style="fill:#ffffff;fill-opacity:1;fill-rule:nonzero;stroke:none"
         d="m 292.477,638.219 c 22.168,0.414 37.308,22.547 29.687,43.363 -7.973,21.715 -35.539,28.223 -52.379,12.387 -4.805,-4.528 -8.008,-10.16 -9.433,-16.602 -1.391,-6.472 -0.836,-12.941 1.636,-19.07 2.504,-6.09 6.61,-11.133 12.149,-14.758 5.496,-3.617 11.726,-5.43 18.34,-5.32 v 0" /><path
         id="path34"
         style="fill:#656263;fill-opacity:1;fill-rule:nonzero;stroke:none"
         d="m 259.57,531.371 v 49.977 c 0.141,2.539 2.368,4.418 4.907,4.175 2.195,-0.246 3.902,-2.05 3.972,-4.277 v 0 l 0.137,-42.285 v 0 c -1.395,-0.664 -2.75,-1.5 -4,-2.438 -1.914,-1.46 -3.617,-3.203 -5.016,-5.152 v 0" /><path
         id="path36"
         style="fill:#231f20;fill-opacity:1;fill-rule:nonzero;stroke:none"
         d="m 144.574,149.645 472.196,680.011 10.761,-9.379 -473.332,-681.66 -9.625,11.028" /><path
         id="path38"
         style="fill:#231f20;fill-opacity:1;fill-rule:nonzero;stroke:none"
         d="m 130.141,166.168 470.48,677.562 10.777,-9.39 -471.617,-679.207 -9.64,11.035" /><path
         id="path40"
         style="fill:#231f20;fill-opacity:1;fill-rule:nonzero;stroke:none"
         d="m 115.723,182.688 468.781,675.093 10.754,-9.379 -469.906,-676.746 -9.629,11.032" /><path
         id="path42"
         style="fill:#231f20;fill-opacity:1;fill-rule:nonzero;stroke:none"
         d="m 101.301,199.203 467.078,672.633 10.746,-9.363 -468.195,-674.297 -9.629,11.027" /><path
         id="path44"
         style="fill:#231f20;fill-opacity:1;fill-rule:nonzero;stroke:none"
         d="m 273.801,828.012 c 3.418,-4.246 7.414,-7.375 12.094,-9.5 4.535,-2.239 9.539,-3.242 14.8,-3.242 5.539,0 10.653,1.003 15.332,3.093 4.68,2.125 8.676,5.254 12.098,9.504 3.383,4.141 6.086,9.539 8.102,15.949 1.836,6.375 2.839,14.039 2.839,22.715 v 0 0 0 c 0,8.391 -1.003,15.66 -2.839,21.891 -2.016,6.262 -4.719,11.519 -8.102,15.801 -3.422,4.109 -7.418,7.382 -11.953,9.507 -4.684,2.125 -9.649,3.129 -14.942,3.129 -5.542,0 -10.511,-1.004 -15.191,-3.129 -4.68,-2.125 -8.82,-5.257 -12.238,-9.398 -3.387,-4.25 -6.086,-9.648 -7.957,-16.055 -1.981,-6.375 -2.989,-14.078 -2.989,-22.714 0,-8.391 1.008,-15.661 2.989,-21.891 1.871,-6.266 4.57,-11.52 7.957,-15.66 v 0" /><path
         id="path46"
         style="fill:#231f20;fill-opacity:1;fill-rule:nonzero;stroke:none"
         d="m 355.16,816.387 h 14.18 v 79.304 h 0.289 l 35.101,-79.304 h 18.649 v 99.179 H 409.16 V 835.68 h -0.289 l -35.101,79.886 h -18.61 v -99.179 0" /><path
         id="path48"
         style="fill:#231f20;fill-opacity:1;fill-rule:nonzero;stroke:none"
         d="m 434.215,816.387 h 15.371 l 7.523,24.84 h 35.969 l 7.524,-24.84 h 15.906 l -32.254,99.179 H 467.48 l -33.265,-99.179 v 0" /><path
         id="path50"
         style="fill:#231f20;fill-opacity:1;fill-rule:nonzero;stroke:none"
         d="m 195.465,816.387 h 58.57 v 12.633 h -41.363 l 40.644,73.621 v 12.925 H 196.758 V 902.93 h 38.519 l -39.812,-72.653 v -13.89 0" /><path
         id="path52"
         style="fill:#ffffff;fill-opacity:1;fill-rule:nonzero;stroke:none"
         d="m 284.492,837.555 c -3.851,6.8 -5.687,16.199 -5.687,28.008 0,7.234 0.535,13.355 1.836,18.324 1.152,4.965 2.699,9.105 4.824,12.203 1.976,2.988 4.43,5.293 7.129,6.691 2.699,1.301 5.687,1.985 8.636,1.985 7.129,0 12.532,-3.383 16.344,-10.223 3.711,-6.809 5.547,-16.203 5.547,-28.012 v 0 0 0 c 0,-7.234 -0.543,-13.351 -1.695,-18.324 -1.258,-4.965 -2.84,-9.105 -4.824,-12.094 -2.125,-3.133 -4.536,-5.398 -7.27,-6.66 -2.699,-1.441 -5.656,-2.125 -8.637,-2.125 -7.129,0 -12.531,3.387 -16.203,10.227 v 0" /><path
         id="path54"
         style="fill:#ffffff;fill-opacity:1;fill-rule:nonzero;stroke:none"
         d="m 460.82,853.609 14.614,47.914 h 0.289 l 13.789,-47.914 H 460.82 v 0" /></g></g></svg>