<?xml version="1.0" encoding="UTF-8" standalone="no"?>
<svg
   xmlns:dc="http://purl.org/dc/elements/1.1/"
   xmlns:cc="http://creativecommons.org/ns#"
   xmlns:rdf="http://www.w3.org/1999/02/22-rdf-syntax-ns#"
   xmlns:svg="http://www.w3.org/2000/svg"
   xmlns="http://www.w3.org/2000/svg"
   viewBox="0 0 94.866669 132.66667"
   height="132.66667"
   width="94.866669"
   xml:space="preserve"
   id="svg2"
   version="1.1"><metadata
     id="metadata8"><rdf:RDF><cc:Work
         rdf:about=""><dc:format>image/svg+xml</dc:format><dc:type
           rdf:resource="http://purl.org/dc/dcmitype/StillImage" /></cc:Work></rdf:RDF></metadata><defs
     id="defs6" /><g
     transform="matrix(1.3333333,0,0,-1.3333333,0,132.66667)"
     id="g10"><g
       transform="scale(0.1)"
       id="g12"><path
         id="path14"
         style="fill:#ffffff;fill-opacity:1;fill-rule:nonzero;stroke:none"
         d="m 1.41797,1.41797 h 708.656 v 992.121 H 1.41797 Z" /><path
         id="path16"
         style="fill:none;stroke:#231f20;stroke-width:2.83500004;stroke-linecap:butt;stroke-linejoin:round;stroke-miterlimit:4;stroke-dasharray:none;stroke-opacity:1"
         d="M 1.41797,1.41797 H 710.074 V 993.539 H 1.41797 V 1.41797" /><path
         id="path18"
         style="fill:#231f20;fill-opacity:1;fill-rule:nonzero;stroke:none"
         d="m 15.5977,43.9375 c 0,-7.8125 2.7734,-14.5117 8.2812,-20.0547 5.5469,-5.5078 12.2383,-8.2812 20.0508,-8.2812 v 0 H 667.559 v 0 c 7.812,0 14.507,2.7734 20.054,8.2812 5.508,5.543 8.278,12.2422 8.278,20.0547 v 0 907.0855 0 c 0,7.817 -2.77,14.508 -8.278,20.055 -5.547,5.508 -12.242,8.277 -20.054,8.277 v 0 H 43.9297 v 0 c -7.8125,0 -14.5039,-2.769 -20.0508,-8.277 -5.5078,-5.547 -8.2812,-12.238 -8.2812,-20.055 v 0 -907.0855 0" /><path
         id="path20"
         style="fill:#ffffff;fill-opacity:1;fill-rule:nonzero;stroke:none"
         d="M 29.7461,96.168 89.2031,181.793 99.4648,171.664 29.7461,71.2539 V 58.8711 L 104.566,166.625 114.824,156.5 31.6914,36.7695 v 0 c 0.5742,-1.0078 1.332,-1.9804 2.2305,-2.8437 0.8633,-0.8985 1.8359,-1.6563 2.8476,-2.2305 v 0 L 119.926,151.461 130.191,141.328 52.7148,29.75 h 8.6055 L 135.297,136.289 145.547,126.168 78.5977,29.75 H 667.559 v 0 c 3.925,0 7.238,1.4023 10.011,4.1758 2.766,2.7734 4.172,6.0859 4.172,10.0117 v 0 854.4215 l -50.613,-72.89 -9.43,11.301 60.043,86.46 v 12.422 l -64.75,-93.246 -9.437,11.317 72.386,104.25 v 0 c -0.609,1.082 -1.402,2.125 -2.371,3.062 -0.832,0.824 -1.695,1.547 -2.632,2.125 v 0 l -72.083,-103.812 -9.421,11.293 65.664,94.57 h -8.637 l -61.746,-88.922 -9.414,11.285 53.914,77.637 H 43.9297 v 0 c -3.9258,0 -7.2344,-1.406 -10.0078,-4.176 -2.7696,-2.773 -4.1758,-6.086 -4.1758,-10.012 v 0 -854.855 0" /><path
         id="path22"
         style="fill:#231f20;fill-opacity:1;fill-rule:nonzero;stroke:none"
         d="m 284.41,828.012 c 3.422,-4.246 7.383,-7.375 12.094,-9.5 4.535,-2.235 9.508,-3.242 14.762,-3.242 5.547,0 10.66,1.007 15.371,3.093 4.683,2.125 8.64,5.262 12.058,9.508 3.426,4.137 6.125,9.535 8.102,15.945 1.875,6.375 2.848,14.039 2.848,22.715 v 0 0 0 c 0,8.391 -0.973,15.66 -2.848,21.891 -1.977,6.266 -4.676,11.519 -8.102,15.801 -3.418,4.109 -7.375,7.382 -11.914,9.507 -4.715,2.125 -9.679,3.129 -14.941,3.129 -5.539,0 -10.512,-1.004 -15.223,-3.129 -4.683,-2.125 -8.785,-5.257 -12.207,-9.398 -3.418,-4.25 -6.117,-9.644 -7.953,-16.055 -1.984,-6.375 -2.988,-14.078 -2.988,-22.714 0,-8.391 1.004,-15.661 2.988,-21.891 1.836,-6.266 4.535,-11.52 7.953,-15.66 v 0" /><path
         id="path24"
         style="fill:#231f20;fill-opacity:1;fill-rule:nonzero;stroke:none"
         d="m 365.734,816.387 h 14.223 v 79.304 h 0.289 l 35.098,-79.304 h 18.613 v 99.179 H 419.734 V 835.68 h -0.285 l -35.101,79.886 h -18.614 v -99.179 0" /><path
         id="path26"
         style="fill:#231f20;fill-opacity:1;fill-rule:nonzero;stroke:none"
         d="m 454.652,816.387 h 50.723 v 12.636 h -35.383 v 32.254 h 32.149 v 12.672 h -32.149 v 28.981 h 33.836 v 12.636 h -49.176 v -99.179 0" /><path
         id="path28"
         style="fill:#231f20;fill-opacity:1;fill-rule:nonzero;stroke:none"
         d="m 206.074,816.387 h 58.574 v 12.636 h -41.367 l 40.645,73.618 v 12.925 h -56.59 V 902.93 h 38.519 l -39.781,-72.649 v -13.894 0" /><path
         id="path30"
         style="fill:#ffffff;fill-opacity:1;fill-rule:nonzero;stroke:none"
         d="m 295.07,837.555 c -3.855,6.8 -5.691,16.199 -5.691,28.008 0,7.234 0.578,13.355 1.836,18.324 1.152,4.965 2.703,9.105 4.859,12.203 1.977,2.988 4.391,5.293 7.09,6.691 2.699,1.301 5.688,1.985 8.676,1.985 7.098,0 12.496,-3.383 16.348,-10.223 3.707,-6.805 5.542,-16.203 5.542,-28.012 v 0 0 0 c 0,-7.234 -0.574,-13.351 -1.695,-18.324 -1.293,-4.965 -2.84,-9.105 -4.855,-12.094 -2.125,-3.129 -4.539,-5.398 -7.239,-6.66 -2.699,-1.441 -5.687,-2.125 -8.675,-2.125 -7.09,0 -12.493,3.387 -16.196,10.227 v 0" /><path
         id="path32"
         style="fill:#656263;fill-opacity:1;fill-rule:nonzero;stroke:none"
         d="M 107.719,745.539 H 603.84 V 249.457 H 107.719 v 496.082 0" /><path
         id="path34"
         style="fill:#ffffff;fill-opacity:1;fill-rule:nonzero;stroke:none"
         d="m 314.074,311.879 h -62.422 v 351.758 h 175.891 v 0 c 14.512,0 30.246,-5.688 39.715,-18.285 12.597,-16.383 11.984,-32.149 11.984,-32.149 v 0 -117.867 0 c 0,-8.207 -2.519,-25.848 -15.121,-38.481 -11.375,-11.343 -23.324,-15.73 -36.578,-15.73 v 0 H 314.074 v -129.246 0" /><path
         id="path36"
         style="fill:#656263;fill-opacity:1;fill-rule:nonzero;stroke:none"
         d="M 314.004,495.336 V 608.16 h 89.531 v 0 c 3.781,0 8.168,0 10.695,-2.519 2.52,-2.52 3.165,-5.039 3.165,-10.692 v 0 -86.363 0 c 0,-4.43 -1.262,-8.211 -3.782,-10.078 -2.519,-2.524 -5.039,-3.172 -9.468,-3.172 v 0 h -90.141 v 0" /><path
         id="path38"
         style="fill:#231f20;fill-opacity:1;fill-rule:nonzero;stroke:none"
         d="m 135.297,136.289 486.402,700.481 9.43,-11.301 -485.582,-699.301 -10.25,10.121" /><path
         id="path40"
         style="fill:#231f20;fill-opacity:1;fill-rule:nonzero;stroke:none"
         d="m 119.926,151.461 487.629,702.262 9.437,-11.317 -486.801,-701.078 -10.265,10.133" /><path
         id="path42"
         style="fill:#231f20;fill-opacity:1;fill-rule:nonzero;stroke:none"
         d="M 104.566,166.625 593.434,870.641 602.855,859.348 114.824,156.5 104.566,166.625" /><path
         id="path44"
         style="fill:#231f20;fill-opacity:1;fill-rule:nonzero;stroke:none"
         d="M 89.2031,181.793 579.301,887.574 588.715,876.289 99.4648,171.664 89.2031,181.793" /></g></g></svg>