<?xml version="1.0" encoding="UTF-8" standalone="no"?>
<svg
   xmlns:dc="http://purl.org/dc/elements/1.1/"
   xmlns:cc="http://creativecommons.org/ns#"
   xmlns:rdf="http://www.w3.org/1999/02/22-rdf-syntax-ns#"
   xmlns:svg="http://www.w3.org/2000/svg"
   xmlns="http://www.w3.org/2000/svg"
   viewBox="0 0 113.76 113.76"
   height="113.76"
   width="113.76"
   xml:space="preserve"
   id="svg2"
   version="1.1"><metadata
     id="metadata8"><rdf:RDF><cc:Work
         rdf:about=""><dc:format>image/svg+xml</dc:format><dc:type
           rdf:resource="http://purl.org/dc/dcmitype/StillImage" /></cc:Work></rdf:RDF></metadata><defs
     id="defs6" /><g
     transform="matrix(1.3333333,0,0,-1.3333333,0,113.76)"
     id="g10"><g
       transform="scale(0.1)"
       id="g12"><path
         id="path14"
         style="fill:#ffffff;fill-opacity:1;fill-rule:nonzero;stroke:none"
         d="M 426.617,851.809 C 191.82,851.809 1.41797,661.402 1.41797,426.609 1.41797,191.816 191.82,1.41797 426.617,1.41797 c 234.789,0 425.192,190.39803 425.192,425.19103 0,234.793 -190.403,425.2 -425.192,425.2 v 0" /><path
         id="path16"
         style="fill:none;stroke:#231f20;stroke-width:2.83500004;stroke-linecap:butt;stroke-linejoin:round;stroke-miterlimit:4;stroke-dasharray:none;stroke-opacity:1"
         d="M 426.617,851.809 C 191.82,851.809 1.41797,661.402 1.41797,426.609 1.41797,191.816 191.82,1.41797 426.617,1.41797 c 234.789,0 425.192,190.39803 425.192,425.19103 0,234.793 -190.403,425.2 -425.192,425.2 v 0" /><path
         id="path18"
         style="fill:#1a67bb;fill-opacity:1;fill-rule:nonzero;stroke:none"
         d="M 212.016,272.168 107.477,167.629 v 0 c -57.4223,70.703 -91.8754,160.848 -91.8754,259.016 0,226.984 184.0664,411.05 411.0504,411.05 98.172,0 188.309,-34.453 259.024,-91.871 v 0 L 541.816,601.93 v 0 c -3.203,0.039 -9.578,0.074 -11.093,-0.176 -1.797,-0.254 -4.278,-0.938 -5.36,-2.379 -2.453,-3.277 -0.109,-7.922 3.242,-10.652 v 0 l -24.082,-24.09 -168.125,0.289 19.692,32.543 -33.879,0.504 5.91,14.258 28.727,8.242 14.183,-5.614 9.106,12.672 -20.449,11.664 -45.036,-14.363 -19.007,-42.012 30.89,-1.043 -56.594,-89.894 v 0 c -38.339,19.473 -85.859,17.066 -121.316,-7.383 -30.312,-20.949 -49.3555,-55.652 -47.883,-92.84 2.414,-63.258 49.176,-117.547 111.274,-119.488 v 0" /><path
         id="path20"
         style="fill:#1a67bb;fill-opacity:1;fill-rule:nonzero;stroke:none"
         d="m 582.707,522.59 163.125,163.078 v 0 c 57.41,-70.707 91.863,-160.848 91.863,-259.023 0,-226.977 -184.062,-411.0473 -411.043,-411.0473 -98.175,0 -188.316,34.4531 -259.019,91.8753 v 0 l 259.305,259.343 v 0 c 8.464,-7.421 20.308,-10.222 31.539,-8.211 v 0 l 4.25,-16.632 -8.536,-2.625 2.305,-7.309 24.442,6.77 -1.688,7.343 -9.258,-2.238 -4.492,17.102 v 0 c 1.328,0.617 3.23,1.621 4.492,2.382 3.309,2.082 6.055,5.075 8.281,8.313 2.157,3.238 3.711,6.984 5.04,10.617 v 0 l 41.542,-0.289 v 0 c 0.293,-3.598 0.723,-8.781 1.153,-12.414 1.551,-11.844 5.078,-23.324 10.117,-34.129 5.977,-12.82 14.219,-24.629 24.48,-34.305 21.094,-19.871 49.036,-30.535 77.833,-30.418 31.105,0.106 60.988,12.848 82.589,35.704 20.77,22.039 32.254,51.519 31.571,82.007 -0.684,28.371 -11.953,55.301 -31.035,76.032 -18.719,20.379 -43.887,33.41 -71.172,37.047 -17.606,2.378 -37.547,-1.043 -54.141,-7.633 v 0 l -13.543,28.66 v 0" /><path
         id="path22"
         style="fill:#1a67bb;fill-opacity:1;fill-rule:nonzero;stroke:none"
         d="M 377.582,437.734 331.613,391.73 v 0 c 0.395,34.848 -19.48,67.856 -46.73,89.747 v 0 l 12.707,18.613 79.992,-62.356 v 0" /><path
         id="path24"
         style="fill:#1a67bb;fill-opacity:1;fill-rule:nonzero;stroke:none"
         d="m 230.129,290.242 80.711,80.75 v 0 c 1.367,6.156 2.191,12.488 2.519,18.934 1.508,30.387 -12.601,58.789 -37.546,78.015 v 0 l -50.547,-79.921 -3.453,-5.723 v 0 c -3.317,-2.918 -8.176,-3.172 -11.774,-0.578 -2.773,1.98 -4.215,5.472 -3.457,8.816 0.035,0.289 3.352,5.442 3.457,5.692 v 0 l 51.516,81 v 0 c -11.016,7.343 -26.067,11.089 -39.348,11.519 -22.754,0.649 -45.613,-5 -64.332,-18.18 -26.137,-18.464 -42.625,-48.707 -41.039,-81.035 2.629,-55.183 45.504,-101.054 99.934,-100.398 4.535,0.027 9.003,0.43 13.359,1.109 v 0" /><path
         id="path26"
         style="fill:#1a67bb;fill-opacity:1;fill-rule:nonzero;stroke:none"
         d="m 639.297,407.965 c 11.379,-1.117 20.234,-11.055 19.805,-22.395 -0.43,-10.98 -8.782,-19.867 -19.551,-20.804 -10.078,-0.899 -19.11,7.414 -22.391,17.058 v 0 l -77.648,-1.004 v 0 c 0.176,-1.586 0.429,-3.851 0.644,-5.437 7.063,-51.406 49.465,-91.113 100.586,-89.961 53.606,1.219 94.395,47.558 96.125,101.949 1.074,33.266 -16.992,63.863 -44.531,81.863 -25.996,16.993 -58.723,20.375 -88.457,10.946 v 0 l 35.418,-72.215 v 0" /><path
         id="path28"
         style="fill:#1a67bb;fill-opacity:1;fill-rule:nonzero;stroke:none"
         d="m 388.996,449.145 97.664,97.632 -160.738,0.254 -20.555,-33.625 83.629,-64.261" /><path
         id="path30"
         style="fill:#1a67bb;fill-opacity:1;fill-rule:nonzero;stroke:none"
         d="m 570.539,510.383 -94.601,-94.57 v 0 c 2.082,-2.235 4.171,-5.223 5.578,-7.922 1.621,-3.239 2.949,-7.524 3.601,-11.051 v 0 l 39.524,0.539 v 0 c 5.8,35.965 25.703,73.047 57.527,89.242 v 0 l -11.629,23.762 v 0" /><path
         id="path32"
         style="fill:#1a67bb;fill-opacity:1;fill-rule:nonzero;stroke:none"
         d="m 589.98,473.375 c -26.023,-15.949 -48.417,-44.746 -49.285,-75.957 v 0 l 79.453,0.863 v 0 c 0.868,1.617 2.559,3.742 3.965,4.965 v 0 l -34.133,70.129 v 0" /><path
         id="path34"
         style="fill:#1a67bb;fill-opacity:1;fill-rule:nonzero;stroke:none"
         d="m 445.734,385.605 -11.418,-11.41 v 0 c 5.801,-5.004 13.614,-7.484 21.711,-5.722 v 0 l -3.312,12.203 -6.981,4.929 v 0" /><path
         id="path36"
         style="fill:#1a67bb;fill-opacity:1;fill-rule:nonzero;stroke:none"
         d="m 463.664,398.316 11.805,-0.074 v 0 c -0.547,3.203 -5.508,10.621 -5.293,10.91 v 0 l -6.512,-10.836 v 0" /><path
         id="path38"
         style="fill:#1a67bb;fill-opacity:1;fill-rule:nonzero;stroke:none"
         d="m 460.598,381.145 3.203,-11.235 v 0 c 1.082,0.828 2.597,2.055 3.562,2.918 2.52,2.266 4.825,5.539 6.485,8.422 v 0 l -13.25,-0.105 v 0" /><path
         id="path40"
         style="fill:#ee2c30;fill-opacity:1;fill-rule:nonzero;stroke:none"
         d="M 691.145,741.25 112.012,162.121 v 0 c 15.226,-18.105 32.004,-34.887 50.113,-50.109 v 0 L 741.25,691.137 v 0 c -15.223,18.109 -32,34.883 -50.105,50.113 v 0" /></g></g></svg>