<?xml version="1.0" encoding="UTF-8" standalone="no"?>
<svg
   xmlns:dc="http://purl.org/dc/elements/1.1/"
   xmlns:cc="http://creativecommons.org/ns#"
   xmlns:rdf="http://www.w3.org/1999/02/22-rdf-syntax-ns#"
   xmlns:svg="http://www.w3.org/2000/svg"
   xmlns="http://www.w3.org/2000/svg"
   viewBox="0 0 396.85333 113.38667"
   height="113.38667"
   width="396.85333"
   xml:space="preserve"
   id="svg2"
   version="1.1"><metadata
     id="metadata8"><rdf:RDF><cc:Work
         rdf:about=""><dc:format>image/svg+xml</dc:format><dc:type
           rdf:resource="http://purl.org/dc/dcmitype/StillImage" /></cc:Work></rdf:RDF></metadata><defs
     id="defs6" /><g
     transform="matrix(1.3333333,0,0,-1.3333333,0,113.38667)"
     id="g10"><g
       transform="scale(0.1)"
       id="g12"><path
         id="path14"
         style="fill:#231f20;fill-opacity:1;fill-rule:nonzero;stroke:none"
         d="m 2125.98,0 h 850.391 V 850.391 H 2125.98 Z" /><path
         id="path16"
         style="fill:#231f20;fill-opacity:1;fill-rule:nonzero;stroke:none"
         d="m 1062.99,0 h 850.391 V 850.391 H 1062.99 Z" /><path
         id="path18"
         style="fill:#231f20;fill-opacity:1;fill-rule:nonzero;stroke:none"
         d="M 0,0 H 850.391 V 850.391 H 0 Z" /><path
         id="path20"
         style="fill:#ee2c30;fill-opacity:1;fill-rule:nonzero;stroke:none"
         d="M 152.656,51.5156 414.395,313.254 314.332,413.691 51.8398,152.336 152.656,51.5156" /><path
         id="path22"
         style="fill:#ee2c30;fill-opacity:1;fill-rule:nonzero;stroke:none"
         d="M 414.02,536.438 152.281,798.176 51.8398,698.109 313.199,435.613 414.02,536.438" /><path
         id="path24"
         style="fill:#ee2c30;fill-opacity:1;fill-rule:nonzero;stroke:none"
         d="M 696.273,799.957 434.535,538.219 534.598,437.777 797.094,699.137 696.273,799.957" /><path
         id="path26"
         style="fill:#ee2c30;fill-opacity:1;fill-rule:nonzero;stroke:none"
         d="M 434.535,316.113 696.273,54.375 796.715,154.445 535.355,416.934 434.535,316.113" /><path
         id="path28"
         style="fill:#007f46;fill-opacity:1;fill-rule:nonzero;stroke:none"
         d="m 1411.45,442.477 h 146.56 l -0.75,351.375 -145.81,0.378 V 442.477" /><path
         id="path30"
         style="fill:#007f46;fill-opacity:1;fill-rule:nonzero;stroke:none"
         d="M 1239.41,511.27 1136.05,407.594 1488.18,55.4609 1840.32,407.594 1736.96,511.27 1488.18,263.195 1239.41,511.27" /><path
         id="path32"
         style="fill:#fcd213;fill-opacity:1;fill-rule:nonzero;stroke:none"
         d="m 2566.62,287.715 103.68,103.676 -373.36,372.277 -103.3,-102.98 372.98,-372.973" /><path
         id="path34"
         style="fill:#fcd213;fill-opacity:1;fill-rule:nonzero;stroke:none"
         d="M 2395.98,214.648 V 68.0977 h 498.26 V 566.352 H 2747.68 V 214.648 h -351.7" /></g></g></svg>