<?xml version="1.0" encoding="UTF-8" standalone="no"?>
<svg
   xmlns:dc="http://purl.org/dc/elements/1.1/"
   xmlns:cc="http://creativecommons.org/ns#"
   xmlns:rdf="http://www.w3.org/1999/02/22-rdf-syntax-ns#"
   xmlns:svg="http://www.w3.org/2000/svg"
   xmlns="http://www.w3.org/2000/svg"
   viewBox="0 0 160.41333 140.67999"
   height="140.67999"
   width="160.41333"
   xml:space="preserve"
   id="svg2"
   version="1.1"><metadata
     id="metadata8"><rdf:RDF><cc:Work
         rdf:about=""><dc:format>image/svg+xml</dc:format><dc:type
           rdf:resource="http://purl.org/dc/dcmitype/StillImage" /></cc:Work></rdf:RDF></metadata><defs
     id="defs6" /><g
     transform="matrix(1.3333333,0,0,-1.3333333,0,140.68)"
     id="g10"><g
       transform="scale(0.1)"
       id="g12"><path
         id="path14"
         style="fill:#ee2c30;fill-opacity:1;fill-rule:nonzero;stroke:none"
         d="M 1153.45,0 H 49.6875 V 0 C 11.4922,0 -12.3789,41.3281 6.70313,74.4141 v 0 L 558.617,1030.29 v 0 c 19.082,33.08 66.817,33.08 85.899,0 v 0 L 1196.43,74.4141 v 0 C 1215.51,41.3281 1191.64,0 1153.45,0 v 0" /><path
         id="path16"
         style="fill:#ffffff;fill-opacity:1;fill-rule:nonzero;stroke:none"
         d="M 1067.55,99.2188 H 135.586 L 601.566,906.262 1067.55,99.2188" /><path
         id="path18"
         style="fill:#231f20;fill-opacity:1;fill-rule:nonzero;stroke:none"
         d="m 385.785,245.02 61.379,-35.457 83.445,144.5 V 184.25 l 85.032,85.027 85.039,-85.027 V 623.633 L 615.641,708.66 530.609,623.633 V 495.789 L 385.785,245.02" /></g></g></svg>