<?xml version="1.0" encoding="UTF-8" standalone="no"?>
<svg
   xmlns:dc="http://purl.org/dc/elements/1.1/"
   xmlns:cc="http://creativecommons.org/ns#"
   xmlns:rdf="http://www.w3.org/1999/02/22-rdf-syntax-ns#"
   xmlns:svg="http://www.w3.org/2000/svg"
   xmlns="http://www.w3.org/2000/svg"
   viewBox="0 0 102.05333 78.58667"
   height="78.58667"
   width="102.05333"
   xml:space="preserve"
   id="svg2"
   version="1.1"><metadata
     id="metadata8"><rdf:RDF><cc:Work
         rdf:about=""><dc:format>image/svg+xml</dc:format><dc:type
           rdf:resource="http://purl.org/dc/dcmitype/StillImage" /></cc:Work></rdf:RDF></metadata><defs
     id="defs6" /><g
     transform="matrix(1.3333333,0,0,-1.3333333,0,78.586667)"
     id="g10"><g
       transform="scale(0.1)"
       id="g12"><path
         id="path14"
         style="fill:#ee2c30;fill-opacity:1;fill-rule:nonzero;stroke:none"
         d="M 382.672,444.703 72.375,589.379 0,563.031 26.332,490.629 253.746,384.594 26.332,278.555 0,206.152 72.375,179.785 382.672,324.469 692.977,179.785 l 72.375,26.367 -26.329,72.403 -227.414,106.039 227.414,106.035 26.329,72.402 -72.375,26.348 -310.305,-144.676" /><path
         id="path16"
         style="fill:#ee2c30;fill-opacity:1;fill-rule:nonzero;stroke:none"
         d="M 382.695,144.688 692.949,0 765.344,26.3789 739.004,98.7695 382.672,264.914 26.3477,98.7695 0,26.3789 72.3984,0 382.695,144.688" /><path
         id="path18"
         style="fill:#ffffff;fill-opacity:1;fill-rule:nonzero;stroke:none"
         d="M 460.02,384.566 697.645,273.754 670.039,214.512 382.672,348.508 95.3047,214.512 67.6797,273.754 305.344,384.566 67.6797,495.391 95.3047,554.633 382.672,420.625 670.039,554.633 697.645,495.391 460.02,384.566" /><path
         id="path20"
         style="fill:#ffffff;fill-opacity:1;fill-rule:nonzero;stroke:none"
         d="M 697.645,93.9766 670.039,34.7344 382.672,168.723 95.3047,34.7344 67.6797,93.9766 382.672,240.844 697.645,93.9766" /></g></g></svg>