<?xml version="1.0" encoding="UTF-8" standalone="no"?>
<svg
   xmlns:dc="http://purl.org/dc/elements/1.1/"
   xmlns:cc="http://creativecommons.org/ns#"
   xmlns:rdf="http://www.w3.org/1999/02/22-rdf-syntax-ns#"
   xmlns:svg="http://www.w3.org/2000/svg"
   xmlns="http://www.w3.org/2000/svg"
   viewBox="0 0 54.613335 102.04"
   height="102.04"
   width="54.613335"
   xml:space="preserve"
   id="svg2"
   version="1.1"><metadata
     id="metadata8"><rdf:RDF><cc:Work
         rdf:about=""><dc:format>image/svg+xml</dc:format><dc:type
           rdf:resource="http://purl.org/dc/dcmitype/StillImage" /></cc:Work></rdf:RDF></metadata><defs
     id="defs6" /><g
     transform="matrix(1.3333333,0,0,-1.3333333,0,102.04)"
     id="g10"><g
       transform="scale(0.1)"
       id="g12"><path
         id="path14"
         style="fill:#ee2c30;fill-opacity:1;fill-rule:nonzero;stroke:none"
         d="M 144.688,382.668 0,72.375 26.332,0 98.7344,26.3477 204.785,253.762 310.809,26.3477 383.223,0 409.598,72.375 264.922,382.668 409.598,692.965 383.223,765.336 310.809,739.004 204.762,511.605 98.7344,739.004 26.332,765.336 0,692.965 144.688,382.668" /><path
         id="path16"
         style="fill:#ffffff;fill-opacity:1;fill-rule:nonzero;stroke:none"
         d="M 204.813,460.035 315.625,697.656 374.863,670.035 240.848,382.641 374.863,95.3047 315.613,67.6758 204.801,305.344 93.9883,67.6758 34.7227,95.3047 168.738,382.641 34.7227,670.035 93.9883,697.656 204.813,460.035" /></g></g></svg>