<?xml version="1.0" encoding="UTF-8" standalone="no"?>
<svg
   xmlns:dc="http://purl.org/dc/elements/1.1/"
   xmlns:cc="http://creativecommons.org/ns#"
   xmlns:rdf="http://www.w3.org/1999/02/22-rdf-syntax-ns#"
   xmlns:svg="http://www.w3.org/2000/svg"
   xmlns="http://www.w3.org/2000/svg"
   viewBox="0 0 94.866669 132.66667"
   height="132.66667"
   width="94.866669"
   xml:space="preserve"
   id="svg2"
   version="1.1"><metadata
     id="metadata8"><rdf:RDF><cc:Work
         rdf:about=""><dc:format>image/svg+xml</dc:format><dc:type
           rdf:resource="http://purl.org/dc/dcmitype/StillImage" /></cc:Work></rdf:RDF></metadata><defs
     id="defs6" /><g
     transform="matrix(1.3333333,0,0,-1.3333333,0,132.66667)"
     id="g10"><g
       transform="scale(0.1)"
       id="g12"><path
         id="path14"
         style="fill:#ffffff;fill-opacity:1;fill-rule:nonzero;stroke:none"
         d="m 1.41797,1.41797 h 708.66 v 992.121 h -708.66 z" /><path
         id="path16"
         style="fill:none;stroke:#231f20;stroke-width:2.83500004;stroke-linecap:butt;stroke-linejoin:miter;stroke-miterlimit:4;stroke-dasharray:none;stroke-opacity:1"
         d="M 1.41797,1.41797 V 993.539 H 710.078 V 1.41797 H 1.41797" /><path
         id="path18"
         style="fill:#1a67bb;fill-opacity:1;fill-rule:nonzero;stroke:none"
         d="m 15.6016,15.6055 h 680.289 v 963.754 H 15.6016 Z" /><path
         id="path20"
         style="fill:#ffffff;fill-opacity:1;fill-rule:nonzero;stroke:none"
         d="m 117.621,133.176 c 4.07,-1.504 8.75,-2.988 14.293,-4.067 5.328,-1.218 11.305,-1.875 17.461,-1.875 15.805,0 27.934,4.653 36.469,13.829 8.531,9.398 12.812,21.957 12.812,37.941 v 0 0 0 c 0,7.273 -1.078,13.867 -3.203,19.402 -2.336,5.766 -5.324,10.442 -8.965,14.301 -3.633,3.848 -8.097,6.617 -12.992,8.523 -5.113,1.915 -10.476,2.989 -16.019,2.989 -3.383,0 -6.586,-0.215 -9.36,-0.645 -2.988,-0.215 -5.547,-0.859 -7.453,-1.472 v 0 37.507 h 50.938 v 18.106 h -71.856 v -75.891 0 c 3.637,1.086 7.453,2.133 11.305,3.215 3.851,1.035 8.316,1.477 13.211,1.477 10.261,0 17.929,-2.778 23.258,-8.11 5.113,-5.32 7.668,-12.554 7.668,-21.304 0,-9.18 -2.555,-16.633 -7.883,-22.395 -5.332,-5.977 -12.602,-8.965 -21.746,-8.965 -5.329,0 -10.223,0.86 -14.723,2.371 -4.465,1.477 -8.531,3.176 -11.914,5.117 v 0 l -1.301,-20.054 v 0" /><path
         id="path22"
         style="fill:#ffffff;fill-opacity:1;fill-rule:nonzero;stroke:none"
         d="m 221.484,148.945 c 3.633,-6.804 8.317,-12.129 14.075,-15.984 5.761,-3.852 12.601,-5.727 20.918,-5.727 8.312,0 15.336,1.875 21.093,5.942 5.762,3.855 10.442,9.179 14.075,15.984 3.64,6.848 6.191,14.942 7.671,24.082 1.477,9.18 2.34,19.192 2.34,30.071 v 0 0 0 c 0,10.867 -0.863,20.906 -2.34,30.273 -1.48,9.18 -4.031,17.273 -7.671,24.121 -3.633,6.797 -8.313,12.129 -14.075,16.199 -5.757,3.809 -12.781,5.75 -21.093,5.75 -8.317,0 -15.372,-1.941 -21.133,-5.75 -5.758,-4.07 -10.227,-9.402 -13.86,-16.199 -3.601,-6.848 -6.156,-14.941 -7.671,-24.121 -1.473,-9.367 -2.336,-19.406 -2.336,-30.273 0,-10.879 0.863,-20.891 2.336,-30.071 1.515,-9.355 4.07,-17.449 7.671,-24.297 v 0" /><path
         id="path24"
         style="fill:#ffffff;fill-opacity:1;fill-rule:nonzero;stroke:none"
         d="m 326.066,148.945 c 3.633,-6.804 8.313,-12.129 14.071,-15.984 5.761,-3.852 12.601,-5.727 20.879,-5.727 8.32,0 15.343,1.875 21.105,5.942 5.75,3.855 10.438,9.179 14.07,15.984 3.633,6.848 6.192,14.942 7.668,24.082 1.473,9.18 2.344,19.192 2.344,30.071 v 0 0 0 c 0,10.867 -0.871,20.906 -2.344,30.273 -1.476,9.18 -4.035,17.273 -7.668,24.121 -3.632,6.797 -8.32,12.129 -14.07,16.199 -5.762,3.809 -12.785,5.75 -21.105,5.75 -8.278,0 -15.332,-1.941 -21.094,-5.75 -5.758,-4.07 -10.223,-9.402 -13.856,-16.199 -3.605,-6.848 -6.16,-14.941 -7.671,-24.121 -1.477,-9.367 -2.34,-19.406 -2.34,-30.273 0,-10.879 0.863,-20.891 2.34,-30.071 1.511,-9.355 4.066,-17.449 7.671,-24.297 v 0" /><path
         id="path26"
         style="fill:#ffffff;fill-opacity:1;fill-rule:nonzero;stroke:none"
         d="m 458.254,128.926 h 22.176 v 66.926 c 0,8.105 1.691,14.296 4.894,18.757 3.211,4.5 8.106,6.621 14.297,6.621 10.223,0 15.332,-6.835 15.332,-20.261 v 0 -72.043 h 22.176 v 66.926 0 c 0,8.105 1.691,14.296 4.902,18.757 3.203,4.5 8.098,6.621 14.289,6.621 10.223,0 15.332,-6.835 15.332,-20.261 v 0 -72.043 h 22.176 v 71.613 0 c 0,12.813 -2.547,22.606 -7.668,29.227 -5.328,6.589 -13.211,10.007 -23.863,10.007 -7.063,0 -12.813,-1.687 -17.277,-5.117 -4.473,-3.633 -7.891,-7.664 -10.665,-12.168 -1.074,2.168 -2.332,4.289 -3.847,6.418 -1.473,1.907 -3.387,3.848 -5.547,5.535 -2.117,1.516 -4.676,2.778 -7.449,3.86 -2.774,1.047 -6.192,1.472 -9.797,1.472 -6.836,0 -12.383,-1.687 -16.844,-5.117 -4.504,-3.633 -8.098,-7.879 -10.441,-13.199 v 0 H 480 v 0 c 0,0.645 0,1.902 0,3.633 -0.215,1.473 -0.215,3.164 -0.215,4.89 -0.215,1.692 -0.215,3.387 -0.215,4.903 -0.215,1.472 -0.215,2.765 -0.215,3.418 v 0 h -21.96 v 0 c 0.214,-2.988 0.429,-6.192 0.64,-9.617 0.219,-3.418 0.219,-7.012 0.219,-11.086 v 0 -88.672 0" /><path
         id="path28"
         style="fill:#ffffff;fill-opacity:1;fill-rule:nonzero;stroke:none"
         d="M 107.727,391.191 H 603.77 V 887.234 H 107.727 Z" /><path
         id="path30"
         style="fill:#1a67bb;fill-opacity:1;fill-rule:nonzero;stroke:none"
         d="m 238.98,160.254 v 0 c 3.204,-10.227 9.18,-15.34 17.497,-15.34 8.312,0 14.257,5.113 17.675,15.34 3.203,10 4.895,24.512 4.895,43.059 v 0 0 0 c 0,18.789 -1.692,33.257 -4.895,43.511 -3.203,10.012 -9.148,15.129 -17.675,15.129 -8.317,0 -14.293,-5.117 -17.497,-15.344 -3.203,-10.254 -4.898,-24.722 -4.898,-43.296 0,-18.547 1.695,-33.059 4.898,-43.059" /><path
         id="path32"
         style="fill:#1a67bb;fill-opacity:1;fill-rule:nonzero;stroke:none"
         d="m 343.559,160.254 v 0 c 3.203,-10.227 9.179,-15.34 17.457,-15.34 8.32,0 14.257,5.113 17.675,15.34 3.204,10 4.903,24.512 4.903,43.059 v 0 0 0 c 0,18.789 -1.699,33.257 -4.903,43.511 -3.203,10.012 -9.14,15.129 -17.675,15.129 -8.278,0 -14.254,-5.117 -17.457,-15.344 -3.204,-10.254 -4.899,-24.722 -4.899,-43.296 0,-18.547 1.695,-33.059 4.899,-43.059" /><path
         id="path34"
         style="fill:#231f20;fill-opacity:1;fill-rule:nonzero;stroke:none"
         d="m 178.57,504.555 v 0 h 354.352 v 206.242 l -89.531,91.406 H 271.848 L 178.57,709.289 V 504.555" /><path
         id="path36"
         style="fill:#ffffff;fill-opacity:1;fill-rule:nonzero;stroke:none"
         d="m 189.766,516.617 h 60.1953 v 35.4922 H 189.766 Z" /><path
         id="path38"
         style="fill:#ffffff;fill-opacity:1;fill-rule:nonzero;stroke:none"
         d="m 189.766,565 h 60.1953 v 35.4922 H 189.766 Z" /><path
         id="path40"
         style="fill:#ffffff;fill-opacity:1;fill-rule:nonzero;stroke:none"
         d="m 462.18,516.617 h 60.1953 v 35.4922 H 462.18 Z" /><path
         id="path42"
         style="fill:#ffffff;fill-opacity:1;fill-rule:nonzero;stroke:none"
         d="m 462.18,565 h 60.1953 v 35.4922 H 462.18 Z" /><path
         id="path44"
         style="fill:#ffffff;fill-opacity:1;fill-rule:nonzero;stroke:none"
         d="m 462.18,611.797 h 60.1953 v 36.2539 H 462.18 Z" /><path
         id="path46"
         style="fill:#ffffff;fill-opacity:1;fill-rule:nonzero;stroke:none"
         d="m 189.766,611.797 h 60.1953 v 36.2539 H 189.766 Z" /><path
         id="path48"
         style="fill:#ffffff;fill-opacity:1;fill-rule:nonzero;stroke:none"
         d="m 253.305,660.18 c 0.617,2.125 1.3,4.25 1.945,6.34 v 0 l -65.484,28.437 V 660.18 h 63.539 v 0" /><path
         id="path50"
         style="fill:#ffffff;fill-opacity:1;fill-rule:nonzero;stroke:none"
         d="m 260.074,678.039 c 3.563,7.274 7.852,14.074 12.817,20.34 v 0 l -44.711,44.894 -38.414,-36.218 70.308,-29.016 v 0" /><path
         id="path52"
         style="fill:#ffffff;fill-opacity:1;fill-rule:nonzero;stroke:none"
         d="m 281.496,707.813 c 5.184,5.148 10.906,9.753 17.063,13.675 v 0 l -27.469,64.043 -34.629,-33.945 45.035,-43.773 v 0" /><path
         id="path54"
         style="fill:#ffffff;fill-opacity:1;fill-rule:nonzero;stroke:none"
         d="m 308.926,727.395 c 6.625,3.242 13.644,5.902 20.953,7.703 v 0 l -7.707,55.726 h -40.645 l 27.399,-63.429 v 0" /><path
         id="path56"
         style="fill:#ffffff;fill-opacity:1;fill-rule:nonzero;stroke:none"
         d="m 342.77,737.543 c 4.39,0.578 8.816,0.832 13.355,0.832 5.469,0 10.906,-0.395 16.16,-1.227 v 0 l 7.168,53.676 h -44.43 l 7.747,-53.281 v 0" /><path
         id="path58"
         style="fill:#ffffff;fill-opacity:1;fill-rule:nonzero;stroke:none"
         d="m 383.66,734.809 c 6.77,-1.911 13.324,-4.321 19.516,-7.414 v 0 l 25.887,63.429 h -38.418 l -6.985,-56.015 v 0" /><path
         id="path60"
         style="fill:#ffffff;fill-opacity:1;fill-rule:nonzero;stroke:none"
         d="m 456.457,667.742 c 0.898,-2.484 1.66,-5.004 2.41,-7.562 v 0 h 63.469 v 37.047 l -65.879,-29.485 v 0" /><path
         id="path62"
         style="fill:#ffffff;fill-opacity:1;fill-rule:nonzero;stroke:none"
         d="m 438.926,698.809 c 4.894,-6.118 9.179,-12.778 12.707,-19.801 v 0 l 70.703,28.805 -38.301,36.214 -45.109,-45.218 v 0" /><path
         id="path64"
         style="fill:#ffffff;fill-opacity:1;fill-rule:nonzero;stroke:none"
         d="m 413.078,721.816 c 6.336,-4 12.274,-8.675 17.527,-13.894 v 0 l 45.04,45.215 -35.321,37.726 -27.246,-69.047 v 0" /></g></g></svg>