<?xml version="1.0" encoding="UTF-8" standalone="no"?>
<svg
   xmlns:dc="http://purl.org/dc/elements/1.1/"
   xmlns:cc="http://creativecommons.org/ns#"
   xmlns:rdf="http://www.w3.org/1999/02/22-rdf-syntax-ns#"
   xmlns:svg="http://www.w3.org/2000/svg"
   xmlns="http://www.w3.org/2000/svg"
   viewBox="0 0 94.866669 132.66667"
   height="132.66667"
   width="94.866669"
   xml:space="preserve"
   id="svg2"
   version="1.1"><metadata
     id="metadata8"><rdf:RDF><cc:Work
         rdf:about=""><dc:format>image/svg+xml</dc:format><dc:type
           rdf:resource="http://purl.org/dc/dcmitype/StillImage" /></cc:Work></rdf:RDF></metadata><defs
     id="defs6" /><g
     transform="matrix(1.3333333,0,0,-1.3333333,0,132.66667)"
     id="g10"><g
       transform="scale(0.1)"
       id="g12"><path
         id="path14"
         style="fill:#ffffff;fill-opacity:1;fill-rule:nonzero;stroke:none"
         d="m 1.41797,1.41797 h 708.66 v 992.121 h -708.66 z" /><path
         id="path16"
         style="fill:none;stroke:#231f20;stroke-width:2.83500004;stroke-linecap:butt;stroke-linejoin:miter;stroke-miterlimit:4;stroke-dasharray:none;stroke-opacity:1"
         d="M 1.41797,1.41797 H 710.078 V 993.539 H 1.41797 V 1.41797" /><path
         id="path18"
         style="fill:#1a67bb;fill-opacity:1;fill-rule:nonzero;stroke:none"
         d="m 15.6016,15.6055 h 680.289 v 963.754 H 15.6016 Z" /><path
         id="path20"
         style="fill:#ffffff;fill-opacity:1;fill-rule:nonzero;stroke:none"
         d="M 107.727,391.191 H 603.77 V 887.234 H 107.727 Z" /><path
         id="path22"
         style="fill:#ffffff;fill-opacity:1;fill-rule:nonzero;stroke:none"
         d="m 635.48,86.6719 -11.152,159.1211 32.07,-8 v 0 c 1.258,-0.32 2.52,0.145 3.387,1.223 0.899,1.226 0.969,2.988 0.11,4.39 v 0 l -45.469,74.524 v 0 c -0.832,1.445 -2.375,2.375 -3.86,2.375 -1.687,0 -3.23,-0.93 -4.128,-2.446 v 0 l -44.653,-75.132 v 0 c -0.75,-1.262 -0.68,-2.954 0.149,-4.172 0.793,-1.231 2.129,-1.766 3.457,-1.407 v 0 l 32.402,8.094 -9.043,-158.785 46.73,0.2149 v 0" /><path
         id="path24"
         style="fill:#ffffff;fill-opacity:1;fill-rule:nonzero;stroke:none"
         d="m 125.254,86.7383 -11.156,159.1207 32.074,-7.988 v 0 c 1.262,-0.332 2.519,0.137 3.383,1.223 0.898,1.219 0.972,2.988 0.109,4.39 v 0 L 104.195,318 v 0 c -0.824,1.441 -2.379,2.383 -3.851,2.383 -1.6917,0 -3.2385,-0.942 -4.1409,-2.453 v 0 L 51.5625,242.805 v 0 c -0.7578,-1.262 -0.6836,-2.961 0.1484,-4.18 0.7891,-1.223 2.1211,-1.77 3.4493,-1.406 v 0 l 32.4023,8.101 -9.0352,-158.7966 46.7267,0.2149 v 0" /><path
         id="path26"
         style="fill:#ffffff;fill-opacity:1;fill-rule:nonzero;stroke:none"
         d="m 185.699,128.898 h 74.664 v 18.973 h -51.336 l 5.075,5.938 v 0 c 6.086,7.265 11.953,14.726 17.461,22.39 5.292,7.485 9.972,15.156 14.113,22.61 4.105,7.453 7.234,14.726 9.574,21.953 2.379,7.058 3.531,13.867 3.531,20.273 0,5.332 -0.793,10.227 -2.16,14.903 -1.551,4.714 -3.926,8.75 -6.84,12.382 -3.136,3.418 -7.054,6.192 -11.558,8.321 -4.715,1.906 -10.188,2.988 -16.45,2.988 -6.48,0 -12.562,-0.867 -17.855,-2.344 -5.477,-1.726 -10.586,-3.847 -15.086,-6.406 v 0 l 2.16,-21.746 v 0 c 3.129,2.769 7.055,5.547 11.559,7.89 4.496,2.332 9.609,3.629 15.297,3.629 6.05,0 10.941,-2.156 14.293,-6.621 3.308,-4.461 5.078,-10.008 5.078,-17.066 0,-4.895 -0.973,-10.227 -2.922,-15.981 -2.156,-5.757 -4.891,-11.953 -8.637,-18.113 -3.707,-6.406 -8.027,-13.027 -12.926,-20.051 -5.074,-7.058 -10.586,-14.285 -16.629,-21.746 v 0 l -10.406,-12.988 v -19.188 0" /><path
         id="path28"
         style="fill:#ffffff;fill-opacity:1;fill-rule:nonzero;stroke:none"
         d="m 307.238,128.898 h 20.375 v 54.141 h 0.395 l 33.476,-54.141 h 24.309 l -40.723,60.118 37.188,49.246 h -22.535 l -32.11,-44.356 v 94.864 h -20.375 v -159.872 0" /><path
         id="path30"
         style="fill:#ffffff;fill-opacity:1;fill-rule:nonzero;stroke:none"
         d="m 401.23,128.898 h 20.383 v 66.922 c 0,8.098 1.543,14.285 4.492,18.75 2.958,4.5 7.45,6.629 13.145,6.629 9.395,0 14.109,-6.844 14.109,-20.269 v 0 -72.032 h 20.371 v 66.922 0 c 0,8.098 1.555,14.285 4.504,18.75 2.918,4.5 7.45,6.629 13.106,6.629 9.433,0 14.109,-6.844 14.109,-20.269 v 0 -72.032 h 20.383 v 71.602 0 c 0,12.813 -2.344,22.605 -7.062,29.227 -4.891,6.589 -12.129,10.007 -21.922,10.007 -6.477,0 -11.77,-1.687 -15.879,-5.105 -4.102,-3.645 -7.239,-7.664 -9.785,-12.168 -0.977,2.156 -2.161,4.277 -3.536,6.406 -1.367,1.906 -3.125,3.848 -5.109,5.547 -1.941,1.504 -4.285,2.766 -6.836,3.848 -2.558,1.047 -5.691,1.472 -9.043,1.472 -6.258,0 -11.336,-1.687 -15.437,-5.105 -4.141,-3.645 -7.453,-7.891 -9.61,-13.211 v 0 h -0.402 v 0 c 0,0.645 0,1.902 0,3.633 -0.176,1.472 -0.176,3.172 -0.176,4.898 -0.222,1.692 -0.222,3.383 -0.222,4.895 -0.176,1.472 -0.176,2.773 -0.176,3.418 v 0 h -20.196 v 0 c 0.176,-2.989 0.391,-6.192 0.575,-9.61 0.214,-3.418 0.214,-7.019 0.214,-11.093 v 0 -88.661 0" /><path
         id="path32"
         style="fill:#231f20;fill-opacity:1;fill-rule:nonzero;stroke:none"
         d="m 187.609,668.785 h 38.051 v 0 c -1.91,3.637 -4.75,6.371 -6.66,10.043 -6.66,10.043 -10.48,21.926 -12.383,33.805 -1.875,11.879 0,23.765 3.813,34.742 5.722,14.617 15.23,27.43 28.55,37.473 15.231,10.984 32.329,18.293 50.399,22.863 21.887,5.473 45.684,7.309 68.508,7.309 17.133,-0.938 34.234,-2.774 51.371,-6.411 15.226,-3.671 29.484,-8.242 42.805,-15.55 12.351,-7.305 23.796,-16.454 32.332,-27.395 7.628,-10.043 13.32,-21.965 15.226,-34.742 0.965,-12.777 -0.937,-25.594 -4.758,-37.477 -1.902,-5.472 -4.746,-10.043 -7.586,-14.617 -1.914,-2.734 -4.757,-7.305 -7.636,-10.043 v 0 h 35.203 v -17.387 h -58.028 v 0 c -3.816,-2.734 -7.597,-4.539 -11.414,-6.375 -8.566,-4.57 -21.886,-8.242 -31.386,-10.976 -16.164,-3.637 -33.301,-5.473 -49.465,-6.41 -15.235,-0.899 -29.488,0 -44.715,0.937 -15.231,1.836 -29.484,4.571 -43.777,9.145 -9.504,2.734 -21.848,6.375 -29.485,13.679 v 0 h -58.965 v 17.387 0" /><path
         id="path34"
         style="fill:#231f20;fill-opacity:1;fill-rule:nonzero;stroke:none"
         d="m 478.918,564.672 c -0.969,0 -2.199,0.902 -2.16,2.957 v 0 l 0.039,14.324 h -7.598 v 9.145 h -12.383 -86.582 v 0 c -2.839,-6.407 -10.472,-10.078 -17.132,-9.145 -6.661,0.902 -11.418,4.574 -14.258,9.145 v 0 H 235.16 v -9.145 h -7.59 v -12.816 0 c 0,-1.797 0,-3.633 -0.937,-4.532 -0.973,-0.937 -1.91,-0.937 -3.82,-0.937 v 0 h -13.317 v 0 c -0.937,0 -2.844,0 -3.816,0.937 -0.938,0.899 -0.938,2.735 -0.938,4.532 v 0 23.761 0 c -3.812,0 -6.66,2.77 -6.66,6.411 0,4.57 2.848,7.308 6.66,7.308 v 0 26.492 0 c 0,0.938 0,1.836 0,1.836 0,1.836 0,2.735 0.938,3.641 0.972,0.93 3.816,0.93 5.722,0.93 v 0 h 9.508 v 0 c 1.903,0 4.75,0 5.723,-0.93 0.937,-0.906 0.937,-1.805 0.937,-2.742 0,-0.899 0,-1.797 0,-2.735 v 0 -17.351 0 c 0.93,0 5.723,0 5.723,0 1.867,0 1.867,0 1.867,-1.836 v 0 -7.305 0 0 h 103.684 v 0 c 2.84,5.469 9.5,10.043 16.16,10.043 7.633,0 13.328,-4.574 16.168,-10.945 v 0 h 83.73 14.297 v 10.043 h 7.598 v 15.515 0 c 0,0.938 0,4.571 4.746,4.571 v 0 h 11.418 v 0 c 4.754,0 4.754,-3.633 4.754,-5.469 v 0 -26.496 0 c 3.808,0 6.66,-2.734 6.66,-6.406 0,-3.641 -2.852,-6.375 -6.66,-6.375 v 0 -21.024 0 c 0,-0.937 0,-1.836 0,-2.734 0,-0.938 0,-2.735 -2.852,-2.735 v 0 l -15.945,0.067 v 0" /><path
         id="path36"
         style="fill:#231f20;fill-opacity:1;fill-rule:nonzero;stroke:none"
         d="m 510.098,460.453 c -8.535,-1.801 -17.098,-2.734 -23.758,-3.637 -25.703,-1.836 -47.559,-1.836 -77.082,4.575 -5.684,0.898 -31.387,6.375 -37.078,7.304 -13.321,1.836 -26.645,1.836 -39.961,0 -10.477,-1.836 -20.914,-3.672 -31.395,-5.507 -7.59,-1.797 -22.82,-4.536 -30.453,-5.469 -12.348,-1.836 -25.668,-1.836 -38.988,-0.903 -10.473,0 -20.914,1.836 -30.453,3.637 -9.508,1.836 -18.075,4.57 -25.672,6.406 v 0 14.621 0 c 6.66,-2.742 17.137,-5.472 23.797,-7.308 9.504,-1.836 18.074,-2.734 27.578,-3.641 10.472,-0.929 20.918,-0.929 31.39,-0.929 9.5,0.929 20.918,1.836 30.418,4.57 19.043,5.473 38.055,9.144 58.036,9.144 10.476,0 20.945,0 31.394,-1.836 7.629,-0.906 17.129,-2.742 24.727,-4.578 19.98,-4.566 43.781,-8.207 63.761,-8.207 12.344,0 24.727,0.907 36.141,2.743 11.406,2.734 22.824,4.57 34.238,8.207 v 0 -13.684 0 c -7.597,-1.836 -17.097,-3.672 -26.64,-5.508 v 0" /><path
         id="path38"
         style="fill:#231f20;fill-opacity:1;fill-rule:nonzero;stroke:none"
         d="m 509.59,487.129 c -8.535,-1.797 -17.098,-2.734 -23.758,-3.633 -25.703,-1.836 -47.559,-1.836 -77.082,4.57 -5.684,0.899 -31.387,6.372 -37.078,7.309 -13.317,1.836 -26.637,1.836 -39.957,0 -10.473,-1.836 -20.914,-3.672 -31.391,-5.508 -7.597,-1.801 -22.824,-4.535 -30.457,-5.472 -12.347,-1.836 -25.668,-1.836 -38.988,-0.899 -10.477,0 -20.918,1.836 -30.453,3.633 -9.508,1.836 -18.078,4.574 -25.668,6.41 v 0 14.613 0 c 6.66,-2.73 17.133,-5.472 23.793,-7.308 9.508,-1.836 18.07,-2.735 27.578,-3.633 10.473,-0.938 20.914,-0.938 31.391,-0.938 9.503,0.938 20.914,1.836 30.421,4.571 19.043,5.472 38.051,9.144 58.032,9.144 10.472,0 20.953,0 31.39,-1.836 7.629,-0.894 17.141,-2.73 24.727,-4.566 19.98,-4.578 43.781,-8.211 63.762,-8.211 12.351,0 24.734,0.898 36.14,2.734 11.418,2.735 22.824,4.571 34.238,8.207 v 0 -13.679 0 c -7.597,-1.836 -17.097,-3.672 -26.64,-5.508 v 0" /></g></g></svg>