<?xml version="1.0" encoding="UTF-8" standalone="no"?>
<svg
   xmlns:dc="http://purl.org/dc/elements/1.1/"
   xmlns:cc="http://creativecommons.org/ns#"
   xmlns:rdf="http://www.w3.org/1999/02/22-rdf-syntax-ns#"
   xmlns:svg="http://www.w3.org/2000/svg"
   xmlns="http://www.w3.org/2000/svg"
   viewBox="0 0 94.866669 132.66667"
   height="132.66667"
   width="94.866669"
   xml:space="preserve"
   id="svg2"
   version="1.1"><metadata
     id="metadata8"><rdf:RDF><cc:Work
         rdf:about=""><dc:format>image/svg+xml</dc:format><dc:type
           rdf:resource="http://purl.org/dc/dcmitype/StillImage" /></cc:Work></rdf:RDF></metadata><defs
     id="defs6" /><g
     transform="matrix(1.3333333,0,0,-1.3333333,0,132.66667)"
     id="g10"><g
       transform="scale(0.1)"
       id="g12"><path
         id="path14"
         style="fill:#ffffff;fill-opacity:1;fill-rule:nonzero;stroke:none"
         d="m 1.41797,1.41797 h 708.66 v 992.121 h -708.66 z" /><path
         id="path16"
         style="fill:none;stroke:#231f20;stroke-width:2.83500004;stroke-linecap:butt;stroke-linejoin:miter;stroke-miterlimit:4;stroke-dasharray:none;stroke-opacity:1"
         d="M 1.41797,1.41797 H 710.078 V 993.539 H 1.41797 V 1.41797" /><path
         id="path18"
         style="fill:#1a67bb;fill-opacity:1;fill-rule:nonzero;stroke:none"
         d="m 15.5859,15.5977 h 680.313 v 963.773 H 15.5859 Z" /><path
         id="path20"
         style="fill:#ffffff;fill-opacity:1;fill-rule:nonzero;stroke:none"
         d="M 58.1172,426.609 H 653.41 L 355.727,936.879 58.1172,426.609" /><path
         id="path22"
         style="fill:#231f20;fill-opacity:1;fill-rule:nonzero;stroke:none"
         d="m 128.965,463.012 39.555,83.426 27.199,0.046 -34.231,-83.691 -32.523,0.219" /><path
         id="path24"
         style="fill:#231f20;fill-opacity:1;fill-rule:nonzero;stroke:none"
         d="m 198.121,462.898 27.676,83.645 25.469,0.051 -22.973,-83.524 -30.172,-0.172" /><path
         id="path26"
         style="fill:#231f20;fill-opacity:1;fill-rule:nonzero;stroke:none"
         d="m 267.238,462.938 16.203,83.566 24.989,0.144 -11.207,-83.71 h -29.985" /><path
         id="path28"
         style="fill:#231f20;fill-opacity:1;fill-rule:nonzero;stroke:none"
         d="m 332.613,462.688 6.27,14.359 7.293,0.512 20.379,68.988 4.375,-0.07 -6.633,-83.766 -31.684,-0.023" /><path
         id="path30"
         style="fill:#231f20;fill-opacity:1;fill-rule:nonzero;stroke:none"
         d="m 410.605,462.473 -8.906,79.812 31.114,-49.73 -6.415,-3.461 v 0 c -3.859,-2.102 -4.152,-10.047 -3.554,-12.41 v 0 l 13.086,0.125 2.019,-14.289 -27.344,-0.047 v 0" /><path
         id="path32"
         style="fill:#231f20;fill-opacity:1;fill-rule:nonzero;stroke:none"
         d="m 482.832,462.438 -21.98,84.394 25.652,0.121 26.836,-84.301 -30.508,-0.214" /><path
         id="path34"
         style="fill:#231f20;fill-opacity:1;fill-rule:nonzero;stroke:none"
         d="m 549.453,462.035 -33.562,84.817 27.031,0.214 39.433,-84.445 -32.902,-0.586" /><path
         id="path36"
         style="fill:#231f20;fill-opacity:1;fill-rule:nonzero;stroke:none"
         d="m 438.77,640.996 -4.793,-0.293 0.476,-1.199 v 0 c 0.195,-0.586 0.578,-1.473 0.988,-1.938 v 0 l 1.485,-1.296 v 0 c 0.984,-1.172 1.054,-2.79 0.957,-4.477 -0.137,-2.453 -0.383,-5.684 -2.129,-6.859 -3.41,-2.254 -10.137,0.418 -11.504,4.429 -0.762,2.082 -0.41,5.168 -0.332,6.93 v 0 l 0.43,4.266 -3.43,-0.149 -4.707,43.246 -18.176,17.242 1.977,-47.046 15.523,-32.836 -6.844,-4.192 17.813,-47.234 38.027,-67.586 -2.832,-1.77 3.43,-4.136 v 0 c 1.348,-1.493 1.414,-6.512 1.414,-8.399 v 0 l -16.797,-6.488 -18.484,-0.023 -0.117,3.546 v 0 c 0.136,1.985 2.039,3.774 3.984,4.559 v 0 l 4.168,1.344 v 0 c 3.605,1.152 3.586,2.644 4.277,4.75 v 0 l -3.476,-1.125 -37.305,59.777 -25.859,54.047 -34.395,-113.043 -1.969,0.52 -3.332,-14.7 -32.359,9.356 v 0 c -0.387,0.761 -0.336,1.863 0.023,2.574 0.645,1.469 2.161,2.473 3.649,2.914 v 0 l 11.375,0.758 v 0 c 3.172,0.195 4.562,2.402 5.262,4.605 v 0 l -8.907,3.793 26.094,108.903 -4.156,1.738 6.551,39.625 -10.372,28.527 -8.636,-12.195 -33.106,-26.543 -1.843,2.199 -0.625,-2.742 -0.7,-3.402 v 0 c -0.265,-0.465 -0.793,-0.832 -1.222,-1.098 -0.551,-0.348 -1.223,-0.641 -1.875,-0.691 v 0 l -2.832,-0.414 v 0 c -0.715,-0.368 -1.489,-1.004 -2.063,-1.618 v 0 l -1.75,-1.785 v 0 c -1.683,-1.715 -4.898,-1.64 -5.808,0.465 -1.946,4.527 0.07,10.578 2.542,14.203 0.239,0.34 0.766,0.856 1.176,1.199 v 0 l 5.426,4.188 -1.754,2.84 30.367,27.207 12.743,49.785 1.105,4.238 v 0 c 0.145,0.367 0.312,0.758 0.508,1.098 0.355,0.738 0.863,1.398 1.441,1.988 0.285,0.27 0.617,0.512 0.93,0.758 1.277,0.906 2.98,1.613 4.445,2.031 v 0 l 15.074,4.606 v 0 c 0.145,1.636 -0.144,3.55 -1.871,4.285 -0.863,0.344 -4.132,0.883 -5.019,1.273 -1.176,0.246 -2.594,0.809 -3.336,1.617 -0.887,0.903 -1.012,2.325 -0.961,3.575 0,0.172 0.098,2.574 0.098,2.941 -0.051,1.102 -0.602,1.711 -0.864,1.883 v 0 l -0.89,0.414 v 0 c -0.766,0.344 -0.961,1.398 -0.766,2.207 0.141,0.465 0.527,1.027 0.789,1.422 v 0 l 1.442,2.055 0.863,1.421 v 0 c -0.262,0.782 -0.336,2.348 -0.336,3.235 v 0 l 0.238,3.914 -8.566,0.738 0.746,3.965 8.398,0.27 2.039,7.617 v 0 c 0.528,1.32 1.633,4.113 2.43,5.285 0.313,0.445 0.715,0.887 1.176,1.18 0.504,0.316 1.148,0.488 1.722,0.511 0.747,0.047 1.973,-0.172 2.692,-0.343 v 0 l 7.945,-1.86 v 0 c 1.586,0 4.18,0.758 5.742,0.906 2.157,0.172 5.184,0.442 6.934,-0.957 1.465,-1.222 1.941,-3.425 2.305,-5.285 v 0 l 1.035,-4.531 5.351,-0.539 -0.246,-5.293 -6.601,-0.438 v 0 c 0.703,0.024 0.722,-7.128 -1.055,-10.777 v 0 l -2.59,-5.266 v 0 c -0.672,-1.371 -1.031,-2.863 -0.719,-4.382 0.332,-1.641 1.2,-3.161 2.372,-4.36 0.078,-0.074 0.792,-0.683 0.792,-0.683 v 0 l 7.254,0.437 v 0 c 1.465,-0.144 3.02,-0.902 4.051,-1.859 v 0 l 47.004,-48.488 v 0 c 2.785,-2.887 5.09,-7 5.547,-11.262 v 0 l 5.684,-53.805 v 0" /></g></g></svg>