<?xml version="1.0" encoding="UTF-8" standalone="no"?>
<svg
   xmlns:dc="http://purl.org/dc/elements/1.1/"
   xmlns:cc="http://creativecommons.org/ns#"
   xmlns:rdf="http://www.w3.org/1999/02/22-rdf-syntax-ns#"
   xmlns:svg="http://www.w3.org/2000/svg"
   xmlns="http://www.w3.org/2000/svg"
   viewBox="0 0 94.866669 132.66667"
   height="132.66667"
   width="94.866669"
   xml:space="preserve"
   id="svg2"
   version="1.1"><metadata
     id="metadata8"><rdf:RDF><cc:Work
         rdf:about=""><dc:format>image/svg+xml</dc:format><dc:type
           rdf:resource="http://purl.org/dc/dcmitype/StillImage" /></cc:Work></rdf:RDF></metadata><defs
     id="defs6" /><g
     transform="matrix(1.3333333,0,0,-1.3333333,0,132.66667)"
     id="g10"><g
       transform="scale(0.1)"
       id="g12"><path
         id="path14"
         style="fill:#ffffff;fill-opacity:1;fill-rule:nonzero;stroke:none"
         d="m 1.41406,1.41797 h 708.664 v 992.129 H 1.41406 Z" /><path
         id="path16"
         style="fill:none;stroke:#231f20;stroke-width:2.83500004;stroke-linecap:butt;stroke-linejoin:miter;stroke-miterlimit:4;stroke-dasharray:none;stroke-opacity:1"
         d="M 1.41406,1.41797 H 710.078 V 993.547 H 1.41406 V 1.41797" /><path
         id="path18"
         style="fill:#1a67bb;fill-opacity:1;fill-rule:nonzero;stroke:none"
         d="m 15.5898,15.5977 h 680.316 v 963.773 H 15.5898 Z" /><path
         id="path20"
         style="fill:#ffffff;fill-opacity:1;fill-rule:nonzero;stroke:none"
         d="M 653.379,426.613 H 58.082 L 355.766,936.879 653.379,426.613" /><path
         id="path22"
         style="fill:#231f20;fill-opacity:1;fill-rule:nonzero;stroke:none"
         d="m 582.527,463.012 -39.558,83.426 -27.199,0.046 34.23,-83.687 32.527,0.215" /><path
         id="path24"
         style="fill:#231f20;fill-opacity:1;fill-rule:nonzero;stroke:none"
         d="m 513.367,462.906 -27.676,83.637 -25.468,0.051 22.98,-83.52 30.164,-0.168" /><path
         id="path26"
         style="fill:#231f20;fill-opacity:1;fill-rule:nonzero;stroke:none"
         d="m 444.258,462.941 -16.211,83.567 -24.981,0.148 11.2,-83.715 h 29.992" /><path
         id="path28"
         style="fill:#231f20;fill-opacity:1;fill-rule:nonzero;stroke:none"
         d="m 378.875,462.688 -6.27,14.359 -7.292,0.512 -20.375,68.988 -4.372,-0.07 6.625,-83.766 31.684,-0.023" /><path
         id="path30"
         style="fill:#231f20;fill-opacity:1;fill-rule:nonzero;stroke:none"
         d="m 300.887,462.473 8.906,79.812 -31.113,-49.73 6.414,-3.461 v 0 c 3.859,-2.098 4.148,-10.047 3.554,-12.41 v 0 l -13.085,0.125 -2.02,-14.289 27.344,-0.047 v 0" /><path
         id="path32"
         style="fill:#231f20;fill-opacity:1;fill-rule:nonzero;stroke:none"
         d="m 228.656,462.438 21.989,84.394 -25.661,0.121 -26.836,-84.297 30.508,-0.218" /><path
         id="path34"
         style="fill:#231f20;fill-opacity:1;fill-rule:nonzero;stroke:none"
         d="m 162.039,462.039 33.563,84.813 -27.028,0.218 -39.437,-84.445 32.902,-0.586" /><path
         id="path36"
         style="fill:#231f20;fill-opacity:1;fill-rule:nonzero;stroke:none"
         d="m 272.719,641 4.801,-0.297 -0.481,-1.195 v 0 c -0.195,-0.594 -0.574,-1.473 -0.984,-1.938 v 0 l -1.489,-1.297 v 0 c -0.98,-1.175 -1.054,-2.793 -0.957,-4.48 0.141,-2.453 0.379,-5.684 2.133,-6.855 3.406,-2.258 10.133,0.414 11.5,4.425 0.766,2.086 0.41,5.172 0.336,6.938 v 0 l -0.433,4.258 3.429,-0.149 4.707,43.246 18.172,17.242 -1.969,-47.039 -15.527,-32.843 6.84,-4.184 -17.813,-47.242 -38.023,-67.59 2.832,-1.762 -3.43,-4.14 v 0 c -1.343,-1.493 -1.418,-6.512 -1.418,-8.399 v 0 l 16.801,-6.488 18.488,-0.023 0.118,3.55 v 0 c -0.141,1.981 -2.043,3.77 -3.985,4.555 v 0 l -4.176,1.348 v 0 c -3.601,1.144 -3.578,2.64 -4.273,4.75 v 0 l 3.477,-1.129 37.304,59.777 25.856,54.047 34.398,-113.035 1.965,0.512 3.34,-14.696 32.351,9.36 v 0 c 0.391,0.753 0.344,1.859 -0.019,2.566 -0.645,1.469 -2.156,2.477 -3.652,2.914 v 0 l -11.375,0.758 v 0 c -3.165,0.199 -4.563,2.402 -5.254,4.605 v 0 l 8.906,3.797 -26.094,108.903 4.149,1.738 -6.551,39.617 10.371,28.531 8.64,-12.191 33.106,-26.547 1.848,2.199 0.625,-2.738 0.691,-3.402 v 0 c 0.266,-0.469 0.793,-0.836 1.223,-1.106 0.554,-0.34 1.23,-0.637 1.875,-0.687 v 0 l 2.832,-0.414 v 0 c 0.722,-0.368 1.492,-1 2.07,-1.618 v 0 l 1.746,-1.785 v 0 c 1.68,-1.715 4.895,-1.64 5.813,0.461 1.941,4.535 -0.079,10.582 -2.551,14.207 -0.235,0.34 -0.762,0.86 -1.172,1.199 v 0 l -5.43,4.192 1.758,2.836 -30.371,27.207 -12.742,49.785 -1.106,4.238 v 0 c -0.144,0.367 -0.312,0.762 -0.507,1.106 -0.352,0.73 -0.86,1.394 -1.434,1.98 -0.293,0.27 -0.625,0.512 -0.938,0.758 -1.269,0.906 -2.98,1.613 -4.445,2.035 v 0 l -15.066,4.606 v 0 c -0.149,1.64 0.136,3.55 1.863,4.281 0.871,0.344 4.133,0.883 5.02,1.273 1.183,0.246 2.597,0.813 3.339,1.617 0.891,0.911 1.008,2.329 0.957,3.575 0,0.172 -0.097,2.574 -0.097,2.937 0.051,1.106 0.605,1.715 0.871,1.887 v 0 l 0.887,0.422 v 0 c 0.761,0.34 0.957,1.39 0.761,2.199 -0.136,0.465 -0.527,1.031 -0.789,1.422 v 0 l -1.437,2.055 -0.867,1.421 v 0 c 0.261,0.782 0.339,2.348 0.339,3.235 v 0 l -0.242,3.914 8.574,0.738 -0.754,3.965 -8.394,0.273 -2.043,7.614 v 0 c -0.527,1.32 -1.633,4.113 -2.422,5.293 -0.312,0.437 -0.723,0.879 -1.172,1.172 -0.508,0.32 -1.152,0.492 -1.73,0.515 -0.75,0.047 -1.973,-0.172 -2.696,-0.347 v 0 l -7.941,-1.86 v 0 c -1.582,0 -4.176,0.762 -5.738,0.91 -2.16,0.168 -5.188,0.438 -6.934,-0.957 -1.465,-1.222 -1.949,-3.429 -2.305,-5.289 v 0 l -1.035,-4.531 -5.351,-0.539 0.238,-5.285 6.602,-0.446 v 0 c -0.7,0.024 -0.719,-7.125 1.054,-10.773 v 0 l 2.594,-5.266 v 0 c 0.672,-1.375 1.035,-2.867 0.723,-4.386 -0.336,-1.641 -1.203,-3.153 -2.379,-4.356 -0.074,-0.074 -0.789,-0.687 -0.789,-0.687 v 0 l -7.254,0.441 v 0 c -1.465,-0.144 -3.02,-0.906 -4.055,-1.863 v 0 l -47,-48.485 v 0 c -2.785,-2.89 -5.09,-7.003 -5.547,-11.265 v 0 L 272.719,641 v 0" /></g></g></svg>