<?xml version="1.0" encoding="UTF-8" standalone="no"?>
<svg
   xmlns:dc="http://purl.org/dc/elements/1.1/"
   xmlns:cc="http://creativecommons.org/ns#"
   xmlns:rdf="http://www.w3.org/1999/02/22-rdf-syntax-ns#"
   xmlns:svg="http://www.w3.org/2000/svg"
   xmlns="http://www.w3.org/2000/svg"
   viewBox="0 0 94.866669 132.65334"
   height="132.65334"
   width="94.866669"
   xml:space="preserve"
   id="svg2"
   version="1.1"><metadata
     id="metadata8"><rdf:RDF><cc:Work
         rdf:about=""><dc:format>image/svg+xml</dc:format><dc:type
           rdf:resource="http://purl.org/dc/dcmitype/StillImage" /></cc:Work></rdf:RDF></metadata><defs
     id="defs6" /><g
     transform="matrix(1.3333333,0,0,-1.3333333,0,132.65333)"
     id="g10"><g
       transform="scale(0.1)"
       id="g12"><path
         id="path14"
         style="fill:#ffffff;fill-opacity:1;fill-rule:nonzero;stroke:none"
         d="m 1.41406,1.41797 h 708.621 v 992.09 H 1.41406 Z" /><path
         id="path16"
         style="fill:none;stroke:#231f20;stroke-width:2.83500004;stroke-linecap:butt;stroke-linejoin:miter;stroke-miterlimit:4;stroke-dasharray:none;stroke-opacity:1"
         d="M 1.41406,1.41797 H 710.035 V 993.508 H 1.41406 V 1.41797" /><path
         id="path18"
         style="fill:#1a67bb;fill-opacity:1;fill-rule:nonzero;stroke:none"
         d="m 15.5859,15.5977 h 680.316 v 963.773 H 15.5859 Z" /><path
         id="path20"
         style="fill:#ffffff;fill-opacity:1;fill-rule:nonzero;stroke:none"
         d="m 403.648,318.078 v -45.976 l 78.836,-0.032 v -46.765 l 142.559,0.039 v -46.77 H 440.797 v 46.77 h -80.172 v 46.726 h -79.164 v 46.758 l -78.625,0.078 v 46.692 H 100.598 v 46.757 h 130.39 v -46.691 l 93.926,0.039 v -46.902 l 25.844,0.027 v 0 c 0,3.176 0.039,7.422 0.254,12.383 0.074,0.832 0.32,1.555 0.789,2.129 0.398,0.617 0.906,1.262 1.441,1.797 1.262,1.261 2.699,2.558 3.531,4.035 1.04,1.836 0.864,3.848 -0.039,6.043 -0.757,1.875 -3.129,4.324 -2.769,7.316 v 0 l 26.742,76.817 v 0 c 0.977,2.343 1.875,4.715 2.629,7.129 0.828,3.062 0.762,6.265 0.359,9.429 -1.726,11.199 -2.011,22.864 -4.636,33.34 -0.762,2.879 -1.914,6.301 -4.719,5.832 -2.051,-0.359 -2.051,-3.348 -2.235,-5.293 -0.644,-5.582 -0.832,-11.305 -2.265,-16.449 -1.477,-4.609 -6.152,-7.992 -10.301,-11.988 v 0 l -58.172,-46.223 v 0 c -0.937,-0.508 -1.98,-1.043 -3.203,-1.043 -1.766,0 -1.875,0.606 -2.625,0.859 -1.984,0.539 -4.43,-0.363 -4.43,-2.16 0,-1.187 0.61,-2.261 1.293,-3.242 3.383,-4.246 6.012,-8.199 8.711,-12.129 1.731,-2.41 4.719,-7.09 6.305,-8.922 2.555,-2.992 3.492,-9.297 0.105,-11.418 -5.507,-3.386 -13.714,0.539 -16.093,2.813 v 0 l -10.473,11.515 v 0 c -1.66,1.336 -6.805,7.809 -8.172,10.184 -1.226,2.129 -2.414,7.813 -3.277,9.297 -0.578,0.715 -2.379,1.328 -2.445,1.328 -0.223,0.039 -3.497,0.613 -4.399,0.969 v 0 l -13.426,12.137 v 0 c 1.047,1.542 2.34,3.671 4.067,5.402 0.578,0.574 1.261,1.07 2.019,1.473 0.684,0.285 1.692,0.722 2.485,0.937 1.043,0.363 2.195,0.684 3.168,0.859 2.011,0.618 3.886,1.692 5.039,3.204 0.863,0.976 1.73,2.453 2.519,3.601 v 0 l 62.067,54.793 v 0 c -0.364,11.523 -4.864,25.199 -7.993,37.945 -1.656,6.981 -2.847,14.043 -3.062,21.203 -0.109,6.086 2.558,11.95 1.656,18.106 -0.504,3.566 -3.707,5.945 -5.328,8.176 v 0 l 17.137,85.429 v 0 c 0.07,1.004 -0.145,2.051 -0.903,2.735 -1.402,1.043 -3.023,-0.61 -3.961,-1.985 -2.589,-4.027 -4.785,-8.851 -6.8,-12.234 -8.102,-13.609 -11.375,-28.875 -15.047,-44.066 -1.082,-4.43 -1.406,-9.215 -3.133,-13.036 -0.574,-1.328 -2.16,-1.941 -3.637,-2.265 -1.656,-0.32 -3.383,-0.395 -4.968,-0.32 -1.043,-1.911 -2.161,-4.25 -1.797,-5.946 1.293,-5.758 1.437,-8.996 -0.938,-12.418 -2.734,-3.922 -6.121,-7.273 -9.898,-10.293 -2.239,-1.875 -5.403,-2.883 -8.321,-2.09 -1.617,0.465 -3.238,1.512 -3.527,3.059 -0.609,3.457 -1.184,6.91 -1.801,10.367 -0.574,3.961 0.617,8.067 4.574,10.696 1.297,0.824 2.555,1.835 2.989,3.168 0.465,1.796 -0.793,4.246 -1.438,6.007 -2.558,6.95 0.141,14.723 1.867,22.535 3.856,17.825 5.149,36.29 12.493,53.43 5.726,13.496 15.23,25.524 24.086,37.797 6.406,8.785 13.14,17.461 20.558,25.668 6.551,7.273 14.793,13.176 24.516,16.449 7.879,2.274 17.637,2.379 23.719,7.239 4.972,4.035 4.757,10.941 2.773,16.449 -0.898,2.668 -2.664,5.152 -4.715,7.129 -3.242,3.64 -5.578,7.886 -6.769,12.422 -1.329,4.503 -1.582,9.144 -2.481,13.644 -0.359,2.195 -1.66,4.285 -3.816,5.473 -2.051,1.226 -4.571,1.187 -7.524,0.718 -1.836,-0.539 -4.644,-1.187 -6.191,-0.429 -3.856,1.332 -2.02,6.082 3.383,6.73 3.961,0.504 7.304,0.973 9.824,2.809 2.773,2.265 2.195,7.019 2.664,10.582 0.402,3.062 2.023,5.976 4.434,8.176 3.312,2.914 8.457,3.382 13.242,3.382 3.457,0.18 7.168,-0.179 10.547,0.575 6.23,1.582 14.582,5.433 19.191,2.882 3.027,-1.656 4.5,-4.574 5.438,-7.453 1.183,-4.031 1.652,-8.64 4.824,-11.808 2.375,-2.235 6.152,-1.836 9.543,-1.442 2.187,0.289 4.746,0.395 6.687,-0.644 1.153,-0.543 1.516,-1.945 1.231,-3.137 -0.469,-1.941 -2.813,-3.308 -5.047,-3.851 -2.481,-0.719 -4.785,-0.864 -6.945,-1.473 -3.672,-1.402 -4.247,-5.582 -3.458,-8.859 0.645,-2.34 1.661,-4.606 3.098,-6.731 1.297,-1.98 2.52,-3.926 3.75,-5.973 0.574,-1.156 1.219,-2.453 0.496,-3.855 -0.683,-1.762 -2.91,-2.41 -3.594,-3.996 -0.691,-1.801 -0.613,-3.742 -0.292,-5.543 v 0 l -3.887,-0.758 2.051,-1.332 v 0 c 1.476,-1.262 0.539,-3.098 0.402,-4.645 -0.227,-1.906 0.105,-4.101 -0.762,-6.011 -0.644,-1.399 -1.758,-1.867 -2.883,-2.266 -2.839,-0.969 -5.722,-1.117 -8.281,-2.234 -1.863,-0.754 -2.988,-2.59 -3.379,-4.426 -0.254,-0.902 -0.32,-1.875 -0.293,-2.773 0.11,-4.969 2.453,-9.575 5.801,-13.426 2.336,-2.274 4.863,-4.504 7.051,-6.809 1.621,-1.687 2.812,-3.707 3.566,-5.828 0.653,-1.977 1.153,-3.996 1.446,-6.051 0.281,-1.976 0.605,-4.027 0.789,-6.117 0.468,-4.141 0.898,-8.316 1.261,-12.422 0.282,-3.418 0.535,-6.801 0.723,-10.258 0.105,-2.554 0.215,-5.113 0.215,-7.707 0,-0.355 0,-0.75 0,-1.113 -0.039,-1.047 -0.11,-2.484 -0.11,-3.531 -0.039,-0.758 -0.039,-1.547 -0.078,-2.305 -0.027,-2.051 -0.066,-4.101 -0.105,-6.117 0,-1.047 0,-2.051 0,-3.098 0.039,-1.652 0.105,-3.347 0.183,-5.039 0.137,-1.511 0.286,-3.023 0.5,-4.574 0.215,-1.613 0.547,-3.27 1.016,-4.891 0.43,-1.441 0.965,-2.847 1.609,-4.25 0.547,-1.117 1.153,-2.269 1.809,-3.382 1.043,-1.801 2.195,-3.567 3.348,-5.258 v 0 l 39.386,-55.477 -1.339,-5.652 v 0 c 0.539,-0.934 1.086,-1.871 1.66,-2.735 0.324,-0.433 0.605,-0.863 0.937,-1.332 0.071,-0.109 0.176,-0.214 0.246,-0.324 0.254,-0.289 0.575,-0.683 0.828,-0.937 0.188,-0.215 0.403,-0.43 0.579,-0.649 0.683,-0.793 1.367,-1.582 1.98,-2.375 0.324,-0.433 0.578,-0.863 0.832,-1.332 0.574,-1.117 0.926,-2.304 1.074,-3.531 0.184,-1.547 0.145,-3.129 -0.148,-4.676 -0.391,-2.125 -1.141,-4.176 -2.266,-6.086 -1.043,-1.8 -2.41,-3.383 -4.101,-4.75 -1.551,-1.258 -3.348,-2.304 -5.293,-3.058 -1.582,-0.614 -3.309,-0.942 -5.039,-0.973 -1.192,0 -2.305,0.215 -3.387,0.5 -0.754,0.219 -1.477,0.543 -2.082,1.012 -0.469,0.355 -0.867,0.793 -1.152,1.297 -0.399,0.679 -0.684,1.406 -0.938,2.121 -0.254,0.937 -0.398,1.871 -0.32,2.847 0.066,0.899 0.242,1.762 0.644,2.661 0.067,0.148 0.145,0.289 0.215,0.433 0.145,0.324 0.32,0.688 0.508,0.973 0.105,0.183 0.176,0.429 0.32,0.609 0.215,0.363 0.391,0.758 0.617,1.188 0.137,0.183 0.215,0.394 0.282,0.617 0.293,0.683 0.468,1.367 0.468,2.086 0,0.648 -0.105,1.297 -0.359,1.906 -0.215,0.543 -0.617,1.078 -1.074,1.441 -0.617,0.43 -1.262,0.758 -1.985,0.938 -0.722,0.215 -1.511,0.289 -2.265,0.25 -0.828,-0.074 -1.66,-0.215 -2.41,-0.469 -0.364,-0.109 -0.723,-0.25 -1.047,-0.355 -0.438,-0.184 -0.828,-0.364 -1.258,-0.543 v 0 l -24.27,32.402 v 0 c -0.32,0.395 -0.722,0.789 -1.082,1.113 -0.246,0.254 -0.578,0.504 -0.859,0.723 -0.402,0.215 -0.754,0.356 -1.223,0.43 -0.437,0.07 -0.828,0.035 -1.23,-0.074 -0.254,-0.071 -0.496,-0.18 -0.645,-0.325 -0.293,-0.179 -0.535,-0.394 -0.75,-0.609 -0.226,-0.254 -0.402,-0.574 -0.546,-0.863 -0.149,-0.289 -0.215,-0.614 -0.254,-0.938 -0.071,-0.359 -0.071,-0.758 -0.137,-1.187 0,-0.539 0,-1.043 0.066,-1.547 v 0 l 2.305,-37.836 v 0 c -0.039,-0.469 -0.105,-0.973 -0.176,-1.477 -0.039,-0.359 -0.144,-0.722 -0.254,-1.082 -0.144,-0.539 -0.429,-1.113 -0.789,-1.617 -0.254,-0.394 -0.656,-0.723 -1.086,-0.973 -0.828,-0.507 -1.765,-0.902 -2.734,-1.117 -1.582,-0.289 -3.203,-0.469 -4.785,-0.469 -0.977,0 -1.942,0 -2.879,-0.035 -1.731,-0.039 -3.457,-0.074 -5.188,-0.144 -0.039,-0.215 -0.144,-0.469 -0.183,-0.684 -0.031,-0.18 -0.071,-0.363 -0.11,-0.539 -0.066,-0.324 -0.105,-0.613 -0.105,-0.902 -0.031,-0.215 0,-0.43 0,-0.684 0.039,-0.394 0.144,-0.758 0.215,-1.187 0.222,-0.684 0.398,-1.368 0.652,-2.016 0.07,-0.254 0.109,-0.504 0.176,-0.719 0.215,-0.613 0.43,-1.476 0.617,-2.125 0.145,-0.465 0.281,-0.902 0.359,-1.371 0.254,-0.824 0.469,-1.652 0.684,-2.445 0.109,-0.395 0.254,-0.828 0.363,-1.227 0.106,-0.394 0.243,-0.75 0.352,-1.113 0.359,-1.012 0.867,-2.449 1.191,-3.457 0.254,-0.758 0.508,-1.473 0.789,-2.266 0.762,-2.089 1.477,-4.14 2.161,-6.261 0.359,-1.086 0.683,-2.125 0.976,-3.211 0.359,-1.293 0.723,-2.66 1.004,-3.992 0.723,-3.278 1.34,-6.555 1.945,-9.829 0.215,-1.082 0.43,-2.125 0.653,-3.203 0.351,-2.125 0.793,-4.25 1.152,-6.336 v 0 l 4.211,-43.812 v 0 c 0.43,-4.789 1.406,-9.684 1.152,-14.578 -0.109,-1.797 -0.402,-3.711 -0.793,-5.364 v 0 l -27.039,-86.367 v 0 c -0.578,-1.902 -3.097,-2.625 -3.164,-2.695 -1.222,-0.801 -3.672,-1.375 -3.926,-3.211 -0.644,-3.312 5.039,-5.402 9.141,-7.16 8.145,-3.281 22.645,-3.633 19.297,-12.059 -1.582,-4.035 -8.633,-2.558 -13.457,-3.351 v 0 l -6.192,0.148 v 0" /></g></g></svg>