<?xml version="1.0" encoding="UTF-8" standalone="no"?>
<svg
   xmlns:dc="http://purl.org/dc/elements/1.1/"
   xmlns:cc="http://creativecommons.org/ns#"
   xmlns:rdf="http://www.w3.org/1999/02/22-rdf-syntax-ns#"
   xmlns:svg="http://www.w3.org/2000/svg"
   xmlns="http://www.w3.org/2000/svg"
   viewBox="0 0 94.866669 132.65334"
   height="132.65334"
   width="94.866669"
   xml:space="preserve"
   id="svg2"
   version="1.1"><metadata
     id="metadata8"><rdf:RDF><cc:Work
         rdf:about=""><dc:format>image/svg+xml</dc:format><dc:type
           rdf:resource="http://purl.org/dc/dcmitype/StillImage" /></cc:Work></rdf:RDF></metadata><defs
     id="defs6" /><g
     transform="matrix(1.3333333,0,0,-1.3333333,0,132.65333)"
     id="g10"><g
       transform="scale(0.1)"
       id="g12"><path
         id="path14"
         style="fill:#ffffff;fill-opacity:1;fill-rule:nonzero;stroke:none"
         d="m 1.41797,1.41797 h 708.66 v 992.09 h -708.66 z" /><path
         id="path16"
         style="fill:none;stroke:#231f20;stroke-width:2.83500004;stroke-linecap:butt;stroke-linejoin:miter;stroke-miterlimit:4;stroke-dasharray:none;stroke-opacity:1"
         d="M 1.41797,1.41797 H 710.078 V 993.508 H 1.41797 V 1.41797" /><path
         id="path18"
         style="fill:#1a67bb;fill-opacity:1;fill-rule:nonzero;stroke:none"
         d="m 15.5859,15.5977 h 680.313 v 963.773 H 15.5859 Z" /><path
         id="path20"
         style="fill:#ffffff;fill-opacity:1;fill-rule:nonzero;stroke:none"
         d="m 326.633,335.684 c 0,0 -1.754,-3.602 -4.231,-2.664 -2.39,0.859 -19.3,10.359 -19.3,10.359 0,0 -1.754,2.363 -0.559,5.969 1.199,3.535 4.465,11.308 6.301,13.672 0,0 -6.938,2.039 -5.102,6.824 1.75,4.797 15.711,48.445 17.465,57.636 1.836,9.192 5.742,32.668 0,56.766 -5.742,24.109 -11.168,73.109 -9.648,88.891 0,0 -0.879,1.726 -3.274,1.726 -2.472,0 -6.379,-0.863 -6.937,5.34 -0.641,6.281 -3.91,30.465 11.722,63.606 6.063,12.796 4.864,43.105 6.383,51.429 0,0 0,3.532 -2.793,0.313 -2.711,-3.293 -15.633,-11.934 -20.5,-32.977 -4.781,-21.125 -9.969,-44.289 -9.969,-47.586 0,-3.218 -1.757,-4.476 -4.226,-4.476 -2.395,0 -5.426,-0.864 -3.59,-5.024 1.836,-4.16 5.102,-10.367 2.07,-18.14 -2.949,-7.696 -9.332,-8.321 -15.074,-6.2 -5.742,2.04 -12.047,7.696 -7.578,16.332 4.547,8.637 9.73,12.797 7.023,15.704 -2.714,2.984 -6.382,-0.235 -4.23,8.636 2.074,8.953 8.137,53.785 12.363,65.094 4.231,11.309 8.457,16.332 15.395,23.477 6.941,7.148 27.437,30.625 33.183,38.007 5.743,7.457 19.938,15.153 28.711,18.454 8.7,3.296 12.047,7.461 11.727,15.156 -0.313,7.687 -4.781,7.144 -7.813,8.949 -3.035,1.731 -9.972,9.184 -12.125,15.391 0,0 -0.562,2.75 -2.714,1.254 -2.071,-1.493 -8.692,1.73 -4.786,4.714 3.911,2.981 2.391,2.352 0.879,8.325 -1.515,5.964 -3.59,14.601 3.907,20.492 7.578,5.969 21.46,8.949 26.566,13.43 5.187,4.39 14.512,2.664 17.226,-1.262 2.715,-3.848 6.954,-10.16 9.348,-13.145 2.402,-2.984 3.367,-5.066 6.25,-3.793 3.027,0 6.66,2.707 7.957,-0.98 0.781,-2.555 -3.066,-3.676 -5.125,-4.93 -2.101,-1.074 -6.25,-0.586 -4.18,-4.746 2.45,-4.285 -0.488,-4.406 3.18,-12.609 1.594,-3.309 3.676,-7.102 0.617,-8.692 -3.066,-0.492 -0.242,-13.961 -5.359,-17.613 -4.23,-2.121 -8.457,-0.941 -8.145,-5.648 0.321,-4.793 -1.191,-6.52 4.227,-9.504 5.43,-2.985 21.699,-12.797 27.121,-19.082 5.508,-6.2 9.969,-19.317 11.172,-30.547 1.277,-11.305 4.227,-36.586 6.699,-44.047 2.391,-7.383 1.512,-13.352 16.914,-26.383 15.391,-13.113 26.239,-28.586 28.309,-30.937 2.16,-2.36 2.715,-4.477 1.281,-7.461 -1.516,-2.907 0,-4.082 1.434,-5.34 1.515,-1.18 13,-9.188 13.957,-13.977 0.879,-4.711 4.472,-16.566 -0.957,-18.375 -5.422,-1.804 -10.207,-5.652 -19.297,3.848 -9.094,9.504 -2.395,18.453 -8.457,17.512 -6.067,-0.864 -7.824,-1.497 -13.321,5.101 -5.429,6.52 -25.285,22.301 -30.714,29.371 -5.496,7.145 -13.953,17.821 -20.899,36.59 0,0 -7.812,-35.414 -5.976,-41.934 1.75,-6.515 3.906,-31.488 4.785,-35.96 0.957,-4.399 -1.758,-2.672 -3.27,-3.219 -1.515,-0.629 -4.551,-2.121 0,-6.598 4.461,-4.398 35.574,-32.664 43.153,-40.672 7.492,-8.011 17.461,-17.273 13.242,-31.488 -4.227,-14.293 -15.957,-66.59 -16.914,-74.906 -0.879,-8.321 -5.985,-38.012 -12.684,-37.461 -6.621,0.633 -12.922,-1.485 -6.621,-5.332 6.387,-3.852 17.793,-9.504 25.047,-11.313 7.258,-1.726 16.973,-3.562 16.652,-13.375 v 0 l 17.938,0.008 v 46.691 h 130.39 V 365.598 H 508.625 v -46.692 l -78.633,-0.078 V 272.07 h -79.16 V 225.344 H 270.66 v -46.77 H 86.4102 v 46.77 l 142.5588,-0.039 v 46.765 l 78.844,0.032 v 45.976 l 44.238,-0.07 v 0 c 0.765,-0.77 -20.235,12.344 -25.418,17.676 v 0" /><path
         id="path22"
         style="fill:#1a67bb;fill-opacity:1;fill-rule:nonzero;stroke:none"
         d="m 406.242,372.012 -0.644,-4.324 -16.504,3.687 0.429,2.746 v 0 c 0.321,1.895 -0.957,2.637 -0.851,4.746 -0.535,3.899 4.738,12.442 1.387,12.766 -3.348,0.312 -2.039,2.234 -2.352,8.75 -0.324,6.512 8.25,38.387 20.938,83.617 0,0 1.511,4.164 -4.551,9.5 -6.067,5.344 -26.242,22.852 -29.278,24.344 -3.031,1.492 -4.23,-1.18 -3.906,-3.531 0.32,-2.438 4.785,-21.125 4.227,-43.422 -0.633,-22.301 -9.09,-68.946 -12.364,-78.45 -3.347,-9.5 -7.937,-34.953 -8.816,-37.304 -0.879,-2.356 -2.316,-4.735 -4.074,-3.797 -1.832,0.867 -5.512,-1.215 -1.606,-5.059 3.911,-3.926 7.653,-6.105 13.395,-7.597 5.738,-1.496 17.605,-4.903 16.961,-18.254 v 0 l -0.34,-1.727 8.328,0.008 -0.078,46.152 33.195,-0.031 v 0 c -7.148,2.617 -8.476,2.746 -11.465,4.856 v 0 l -2.031,2.324 v 0" /></g></g></svg>