<?xml version="1.0" encoding="UTF-8" standalone="no"?>
<svg
   xmlns:dc="http://purl.org/dc/elements/1.1/"
   xmlns:cc="http://creativecommons.org/ns#"
   xmlns:rdf="http://www.w3.org/1999/02/22-rdf-syntax-ns#"
   xmlns:svg="http://www.w3.org/2000/svg"
   xmlns="http://www.w3.org/2000/svg"
   viewBox="0 0 94.866669 132.66667"
   height="132.66667"
   width="94.866669"
   xml:space="preserve"
   id="svg2"
   version="1.1"><metadata
     id="metadata8"><rdf:RDF><cc:Work
         rdf:about=""><dc:format>image/svg+xml</dc:format><dc:type
           rdf:resource="http://purl.org/dc/dcmitype/StillImage" /></cc:Work></rdf:RDF></metadata><defs
     id="defs6" /><g
     transform="matrix(1.3333333,0,0,-1.3333333,0,132.66667)"
     id="g10"><g
       transform="scale(0.1)"
       id="g12"><path
         id="path14"
         style="fill:#ffffff;fill-opacity:1;fill-rule:nonzero;stroke:none"
         d="m 1.41797,1.41797 h 708.66 v 992.121 h -708.66 z" /><path
         id="path16"
         style="fill:none;stroke:#231f20;stroke-width:2.83500004;stroke-linecap:butt;stroke-linejoin:miter;stroke-miterlimit:4;stroke-dasharray:none;stroke-opacity:1"
         d="M 1.41797,1.41797 H 710.078 V 993.539 H 1.41797 V 1.41797" /><path
         id="path18"
         style="fill:#1a67bb;fill-opacity:1;fill-rule:nonzero;stroke:none"
         d="m 356.418,15.6445 338.875,-0.0468 0.598,963.0353 -339.473,0.359 V 836.969 L 610.793,690.398 610.781,304.512 356.418,157.273 V 15.6445" /><path
         id="path20"
         style="fill:#1a67bb;fill-opacity:1;fill-rule:nonzero;stroke:none"
         d="M 100.988,979.27 16.2305,979.355 15.5859,15.6914 100.988,15.6758 V 979.27" /><path
         id="path22"
         style="fill:#231f20;fill-opacity:1;fill-rule:nonzero;stroke:none"
         d="m 355.977,210.398 h 21.2813 v 63.7891 H 355.977 Z" /><path
         id="path24"
         style="fill:#231f20;fill-opacity:1;fill-rule:nonzero;stroke:none"
         d="m 355.977,337.98 h 21.2813 v 63.7969 H 355.977 Z" /><path
         id="path26"
         style="fill:#231f20;fill-opacity:1;fill-rule:nonzero;stroke:none"
         d="m 355.977,465.566 h 21.2813 v 63.793 H 355.977 Z" /><path
         id="path28"
         style="fill:#231f20;fill-opacity:1;fill-rule:nonzero;stroke:none"
         d="m 355.977,593.148 h 21.2813 v 63.793 H 355.977 Z" /><path
         id="path30"
         style="fill:#231f20;fill-opacity:1;fill-rule:nonzero;stroke:none"
         d="m 355.977,720.73 h 21.2813 v 63.7969 H 355.977 Z" /><path
         id="path32"
         style="fill:#231f20;fill-opacity:1;fill-rule:nonzero;stroke:none"
         d="m 440.207,680.43 -6.457,-19.457 v 0 c -0.508,-1.426 -1.902,-2.387 -3.418,-2.344 -1.445,-0.024 -2.676,0.879 -3.203,2.266 v 0 l -23.613,62.914 v 0 c -0.438,1.027 -0.293,2.171 0.312,3.125 0.567,0.882 1.563,1.5 2.61,1.574 v 0 l 67.246,6.726 v 0 c 1.296,0.137 2.578,-0.476 3.261,-1.617 0.86,-1.359 0.653,-3.117 -0.5,-4.269 v 0 l -14.726,-14.551 78.203,-44.477 -0.02,-76.414 -42.539,-0.019 v 49.164 l -57.156,37.379 v 0" /><path
         id="path34"
         style="fill:#231f20;fill-opacity:1;fill-rule:nonzero;stroke:none"
         d="m 497.383,402.234 42.519,0.293 0.02,-76.968 -117.176,-67.786 -20.156,40.165 94.715,54.757 0.078,49.539 v 0" /><path
         id="path36"
         style="fill:#231f20;fill-opacity:1;fill-rule:nonzero;stroke:none"
         d="m 497.422,416.75 h 42.5195 v 21.2773 H 497.422 Z" /><path
         id="path38"
         style="fill:#231f20;fill-opacity:1;fill-rule:nonzero;stroke:none"
         d="m 497.422,452.211 h 42.5195 v 21.2734 H 497.422 Z" /><path
         id="path40"
         style="fill:#231f20;fill-opacity:1;fill-rule:nonzero;stroke:none"
         d="m 497.422,487.672 h 42.5195 v 21.2734 H 497.422 Z" /><path
         id="path42"
         style="fill:#231f20;fill-opacity:1;fill-rule:nonzero;stroke:none"
         d="m 497.422,523.129 h 42.5195 v 21.2734 H 497.422 Z" /><path
         id="path44"
         style="fill:#231f20;fill-opacity:1;fill-rule:nonzero;stroke:none"
         d="m 497.422,558.59 h 42.5195 v 21.2773 H 497.422 Z" /></g></g></svg>