<?xml version="1.0" encoding="UTF-8" standalone="no"?>
<svg
   xmlns:dc="http://purl.org/dc/elements/1.1/"
   xmlns:cc="http://creativecommons.org/ns#"
   xmlns:rdf="http://www.w3.org/1999/02/22-rdf-syntax-ns#"
   xmlns:svg="http://www.w3.org/2000/svg"
   xmlns="http://www.w3.org/2000/svg"
   viewBox="0 0 94.866669 132.66667"
   height="132.66667"
   width="94.866669"
   xml:space="preserve"
   id="svg2"
   version="1.1"><metadata
     id="metadata8"><rdf:RDF><cc:Work
         rdf:about=""><dc:format>image/svg+xml</dc:format><dc:type
           rdf:resource="http://purl.org/dc/dcmitype/StillImage" /></cc:Work></rdf:RDF></metadata><defs
     id="defs6" /><g
     transform="matrix(1.3333333,0,0,-1.3333333,0,132.66667)"
     id="g10"><g
       transform="scale(0.1)"
       id="g12"><path
         id="path14"
         style="fill:#ffffff;fill-opacity:1;fill-rule:nonzero;stroke:none"
         d="m 1.41797,1.41797 h 708.66 v 992.121 h -708.66 z" /><path
         id="path16"
         style="fill:none;stroke:#231f20;stroke-width:2.83500004;stroke-linecap:butt;stroke-linejoin:miter;stroke-miterlimit:4;stroke-dasharray:none;stroke-opacity:1"
         d="M 1.41797,1.41797 H 710.078 V 993.539 H 1.41797 V 1.41797" /><path
         id="path18"
         style="fill:#231f20;fill-opacity:1;fill-rule:nonzero;stroke:none"
         d="m 86.4453,242.363 h 538.613 V 780.976 H 86.4453 Z" /><path
         id="path20"
         style="fill:#ffffff;fill-opacity:1;fill-rule:nonzero;stroke:none"
         d="m 186.488,350.371 c 2.52,-2.664 5.367,-5.437 7.996,-7.996 v 0 l -85.789,-85.793 h -7.992 v 8.035 l 85.785,85.754 v 0" /><path
         id="path22"
         style="fill:#ffffff;fill-opacity:1;fill-rule:nonzero;stroke:none"
         d="m 177.023,360.918 c -2.449,2.91 -4.968,6.047 -7.273,9.07 v 0 L 100.703,300.613 V 284.59 l 76.32,76.328 v 0" /><path
         id="path24"
         style="fill:#ffffff;fill-opacity:1;fill-rule:nonzero;stroke:none"
         d="m 525.148,672.965 c -2.519,2.66 -5.117,5.254 -7.785,7.812 v 0 l 85.578,86 7.989,0.075 -0.032,-8.028 -85.75,-85.859 v 0" /><path
         id="path26"
         style="fill:#ffffff;fill-opacity:1;fill-rule:nonzero;stroke:none"
         d="M 258.781,314.551 419.336,475 527.668,412.473 v 0 c 16.914,29.187 26.562,63.066 26.562,99.207 0,28.73 -6.113,56.054 -17.167,80.715 v 0 l 16.015,15.91 v 0 c 14.363,-29.16 22.391,-61.953 22.391,-96.625 0,-121.36 -98.348,-219.707 -219.707,-219.707 -34.848,0 -67.821,8.132 -96.981,22.578 v 0" /><path
         id="path28"
         style="fill:#ffffff;fill-opacity:1;fill-rule:nonzero;stroke:none"
         d="m 530.5,605.754 c -0.891,1.726 -1.848,3.441 -2.871,5.141 v 0 l -20.051,-11.586 32.473,32.015 v 0 c 2.117,-3.211 4.129,-6.48 6.004,-9.804 v 0 L 530.5,605.754 v 0" /><path
         id="path30"
         style="fill:#ffffff;fill-opacity:1;fill-rule:nonzero;stroke:none"
         d="M 422.188,549.984 524.57,652.336 v 0 c 2.442,-2.957 4.856,-5.981 7.129,-9.039 v 0 l -71.57,-71.422 -37.941,-21.891 v 0" /><path
         id="path32"
         style="fill:#ffffff;fill-opacity:1;fill-rule:nonzero;stroke:none"
         d="m 556.32,632.031 c -1.984,3.383 -3.957,6.516 -6.191,9.789 v 0 l 60.801,60.84 v -16.019 l -54.61,-54.61 v 0" /><path
         id="path34"
         style="fill:#ffffff;fill-opacity:1;fill-rule:nonzero;stroke:none"
         d="m 541.809,653.414 c -2.266,3.027 -4.68,6.012 -7.121,8.93 v 0 l 76.242,76.39 v -16.019 l -69.121,-69.301 v 0" /><path
         id="path36"
         style="fill:#ffffff;fill-opacity:1;fill-rule:nonzero;stroke:none"
         d="m 100.703,766.816 h 410.039 l -47.304,-47.484 v 0 c -32.149,16.777 -68.758,26.242 -107.637,26.242 -129.137,0 -233.856,-104.722 -233.856,-233.855 0,-38.699 9.539,-75.379 26.172,-107.531 v 0 l -47.414,-47.411 v 410.039 0" /><path
         id="path38"
         style="fill:#ffffff;fill-opacity:1;fill-rule:nonzero;stroke:none"
         d="m 476.25,712.129 54.512,54.687 h 16.015 L 486.23,705.797 v 0 c -3.203,2.191 -6.523,4.316 -9.98,6.332 v 0" /><path
         id="path40"
         style="fill:#ffffff;fill-opacity:1;fill-rule:nonzero;stroke:none"
         d="m 506.75,690.313 c -2.883,2.453 -5.832,4.863 -8.898,7.167 v 0 l 68.976,69.336 16.024,-0.039 -76.102,-76.464 v 0" /><path
         id="path42"
         style="fill:#ffffff;fill-opacity:1;fill-rule:nonzero;stroke:none"
         d="m 292.262,548.363 160.523,160.489 v 0 c -29.16,14.441 -62.14,22.539 -96.984,22.539 -121.356,0 -219.711,-98.352 -219.711,-219.672 0,-34.707 8.172,-67.821 22.539,-96.985 v 0 l 15.98,15.989 v 0 c -11.05,24.652 -17.207,52.23 -17.207,80.957 0,36.148 9.575,70.023 26.536,99.218 v 0 l 108.324,-62.535 v 0" /><path
         id="path44"
         style="fill:#ffffff;fill-opacity:1;fill-rule:nonzero;stroke:none"
         d="M 304.965,541.059 465.957,701.73 v 0 c 3.391,-1.91 6.621,-3.925 9.758,-6.015 v 0 L 299.672,519.781 v 0 c 1.047,7.309 3.457,14.149 7.023,20.27 v 0 l -1.73,1.008 v 0" /><path
         id="path46"
         style="fill:#ffffff;fill-opacity:1;fill-rule:nonzero;stroke:none"
         d="m 300.25,500.27 187.457,187.093 v 0 c 3.094,-2.304 6.082,-4.683 8.992,-7.129 v 0 L 304.211,488.176 v 0 c -1.766,3.816 -3.098,7.883 -3.961,12.094 v 0" /><path
         id="path48"
         style="fill:#ffffff;fill-opacity:1;fill-rule:nonzero;stroke:none"
         d="m 289.379,473.34 -37.91,-21.883 -71.602,-71.359 v 0 c 2.266,-3.094 4.68,-6.082 7.129,-9.035 v 0 L 289.379,473.34 v 0" /><path
         id="path50"
         style="fill:#ffffff;fill-opacity:1;fill-rule:nonzero;stroke:none"
         d="M 407.422,535.191 214.895,343.098 v 0 c 2.918,-2.453 5.941,-4.825 9.003,-7.129 v 0 l 187.489,187.129 v 0 c -0.867,4.207 -2.196,8.273 -3.965,12.093 v 0" /><path
         id="path52"
         style="fill:#ffffff;fill-opacity:1;fill-rule:nonzero;stroke:none"
         d="m 204.039,424.031 -20.078,-11.558 v 0 c -1.02,1.687 -1.801,3.125 -2.691,4.851 v 0 l -15.622,-15.625 v 0 c 1.883,-3.32 3.782,-6.472 5.899,-9.676 v 0 l 32.492,32.008 v 0" /><path
         id="path54"
         style="fill:#ffffff;fill-opacity:1;fill-rule:nonzero;stroke:none"
         d="m 200.891,256.582 47.41,47.41 v 0 c 32.148,-16.765 68.617,-26.172 107.5,-26.172 129.133,0 233.859,104.731 233.859,233.86 0,38.668 -9.367,75.136 -26.035,107.281 v 0 l 47.273,47.633 0.032,-410.012 H 200.891 v 0" /><path
         id="path56"
         style="fill:#ffffff;fill-opacity:1;fill-rule:nonzero;stroke:none"
         d="m 128.711,256.582 76.32,76.328 v 0 c 2.914,-2.449 5.867,-4.824 8.891,-7.129 v 0 L 144.73,256.582 h -16.019 v 0" /><path
         id="path58"
         style="fill:#ffffff;fill-opacity:1;fill-rule:nonzero;stroke:none"
         d="m 164.82,256.582 60.84,60.84 v 0 c 3.203,-2.188 6.371,-4.207 9.828,-6.223 v 0 L 180.875,256.582 H 164.82 v 0" /><path
         id="path60"
         style="fill:#ffffff;fill-opacity:1;fill-rule:nonzero;stroke:none"
         d="m 411.926,503.617 -176.113,-176 v 0 c 3.167,-2.09 6.625,-4.179 10.007,-6.086 v 0 l 161.282,161.207 -2.2,0.614 v 0 c 3.567,6.117 5.977,12.957 7.024,20.265 v 0" /><path
         id="path62"
         style="fill:#ffffff;fill-opacity:1;fill-rule:nonzero;stroke:none"
         d="m 161.543,381.543 c -2.23,3.27 -4.246,6.445 -6.23,9.824 v 0 l -54.61,-54.609 v -16.055 l 60.84,60.84 v 0" /><path
         id="path64"
         style="fill:#ffffff;fill-opacity:1;fill-rule:nonzero;stroke:none"
         d="m 196.5,360.371 c 2.555,-2.695 5.293,-5.43 7.992,-7.988 v 0 l 310.645,310.5 v 0 c -2.559,2.699 -5.145,5.324 -7.852,7.883 v 0 L 196.5,360.371 v 0" /></g></g></svg>