<?xml version="1.0" encoding="UTF-8" standalone="no"?>
<svg
   xmlns:dc="http://purl.org/dc/elements/1.1/"
   xmlns:cc="http://creativecommons.org/ns#"
   xmlns:rdf="http://www.w3.org/1999/02/22-rdf-syntax-ns#"
   xmlns:svg="http://www.w3.org/2000/svg"
   xmlns="http://www.w3.org/2000/svg"
   viewBox="0 0 94.866669 132.66667"
   height="132.66667"
   width="94.866669"
   xml:space="preserve"
   id="svg2"
   version="1.1"><metadata
     id="metadata8"><rdf:RDF><cc:Work
         rdf:about=""><dc:format>image/svg+xml</dc:format><dc:type
           rdf:resource="http://purl.org/dc/dcmitype/StillImage" /></cc:Work></rdf:RDF></metadata><defs
     id="defs6" /><g
     transform="matrix(1.3333333,0,0,-1.3333333,0,132.66667)"
     id="g10"><g
       transform="scale(0.1)"
       id="g12"><path
         id="path14"
         style="fill:#ffffff;fill-opacity:1;fill-rule:nonzero;stroke:none"
         d="m 1.41797,1.41797 h 708.66 v 992.121 h -708.66 z" /><path
         id="path16"
         style="fill:none;stroke:#231f20;stroke-width:2.83500004;stroke-linecap:butt;stroke-linejoin:miter;stroke-miterlimit:4;stroke-dasharray:none;stroke-opacity:1"
         d="M 1.41797,1.41797 H 710.078 V 993.539 H 1.41797 V 1.41797" /><path
         id="path18"
         style="fill:#1a67bb;fill-opacity:1;fill-rule:nonzero;stroke:none"
         d="M 696.035,15.6055 H 15.6016 V 979.395 H 696.035 v -963.7895 0" /><path
         id="path20"
         style="fill:#ffffff;fill-opacity:1;fill-rule:nonzero;stroke:none"
         d="m 235.27,462.035 v 439.348 h 218.843 v 0 c 21.317,0 36.473,-7.922 47.664,-19.801 10.84,-11.16 16.953,-24.477 16.953,-42.117 v 0 -156.676 0 c -0.351,-15.84 -7.558,-30.598 -18.75,-41.758 -11.199,-10.801 -28.195,-17.64 -44.062,-17.64 v 0 H 315.445 V 462.035 H 235.27 v 0" /><path
         id="path22"
         style="fill:#ffffff;fill-opacity:1;fill-rule:nonzero;stroke:none"
         d="m 588.469,79.3555 v 97.2075 c 0,1.796 -0.364,7.199 -0.723,8.632 -2.16,20.879 -8.281,41.043 -18,59.407 -8.281,15.836 -18.719,30.593 -31.68,43.203 -12.234,12.234 -26.64,22.675 -42.117,30.957 -19.804,10.801 -40.683,18.355 -66.965,18.355 v 0 h -58.679 l 20.527,60.52 v 0 c 0,8.633 -0.363,9.718 -3.965,12.597 -3.957,2.879 -11.164,3.954 -13.32,-0.359 v 0 L 240.668,314.797 v 0 c -5.039,-2.524 -5.398,-6.477 -5.398,-9.719 0.359,-3.242 3.242,-6.836 6.121,-9.719 v 0 l 131.433,-93.242 v 0 c 3.961,-2.879 9.364,-3.965 13.321,-0.719 3.242,2.52 3.964,7.559 3.964,11.524 v 0 l -19.804,60.84 h 51.843 v 0 c 14.043,0 27.715,-4.68 40.325,-10.442 11.152,-5.039 21.59,-12.246 30.593,-20.879 9.719,-9.367 17.286,-20.168 22.676,-32.402 4.328,-10.437 7.207,-21.965 8.645,-33.125 0,-1.074 0.359,-5.75 0.359,-6.836 v 0 -90.7225 h 63.723 v 0" /><path
         id="path24"
         style="fill:#1a67bb;fill-opacity:1;fill-rule:nonzero;stroke:none"
         d="m 315.406,689.273 v 145.473 h 97.848 v 0 c 6.523,0 15.555,-1.801 19.871,-6.48 4.719,-4.321 7.238,-10.438 6.875,-16.918 v 0 l -0.715,-97.598 v 0 c 0,-6.48 -2.918,-12.957 -7.594,-17.641 -4.687,-4.679 -11.562,-6.836 -18.437,-6.836 v 0 h -97.848 v 0" /><path
         id="path26"
         style="fill:#ffffff;fill-opacity:1;fill-rule:nonzero;stroke:none"
         d="m 86.4453,82.168 c 2.6992,-0.9766 5.7969,-1.9805 9.5078,-2.7032 3.5625,-0.7929 7.5239,-1.2226 11.6599,-1.2226 10.512,0 18.614,3.0976 24.301,9.2187 5.688,6.2227 8.531,14.6091 8.531,25.2731 v 0 0 0 c 0,4.856 -0.718,9.246 -2.125,12.957 -1.582,3.813 -3.558,6.946 -5.972,9.504 -2.41,2.559 -5.399,4.422 -8.676,5.684 -3.422,1.301 -6.949,1.98 -10.66,1.98 -2.266,0 -4.387,-0.144 -6.258,-0.386 -1.984,-0.149 -3.672,-0.578 -4.973,-1.016 v 0 25.02 h 33.985 v 12.058 H 87.8516 v -50.574 0 c 2.414,0.723 4.9648,1.402 7.5234,2.117 2.5547,0.723 5.543,1.016 8.82,1.016 6.84,0 11.953,-1.875 15.477,-5.403 3.426,-3.562 5.152,-8.386 5.152,-14.214 0,-6.125 -1.726,-11.094 -5.258,-14.9457 -3.566,-3.9649 -8.39,-5.9727 -14.507,-5.9727 -3.563,0 -6.8402,0.5742 -9.8285,1.582 -2.9883,0.9649 -5.6875,2.1172 -7.9532,3.418 v 0 L 86.4453,82.168 v 0" /><path
         id="path28"
         style="fill:#ffffff;fill-opacity:1;fill-rule:nonzero;stroke:none"
         d="m 159.672,92.7148 c 2.414,-4.5703 5.543,-8.0976 9.394,-10.6523 3.817,-2.5977 8.391,-3.8203 13.934,-3.8203 5.547,0 10.223,1.2226 14.074,3.9258 3.817,2.5898 6.949,6.125 9.364,10.6914 2.41,4.5351 4.14,9.9336 5.109,16.0586 1.008,6.121 1.582,12.77 1.582,20.008 v 0 0 0 c 0,7.273 -0.574,13.933 -1.582,20.207 -0.969,6.109 -2.699,11.512 -5.109,16.055 -2.415,4.57 -5.547,8.093 -9.364,10.796 -3.851,2.551 -8.527,3.852 -14.074,3.852 -5.543,0 -10.262,-1.301 -14.078,-3.852 -3.852,-2.703 -6.836,-6.226 -9.25,-10.796 -2.41,-4.543 -4.106,-9.946 -5.109,-16.055 -1.012,-6.274 -1.551,-12.934 -1.551,-20.207 0,-7.238 0.539,-13.887 1.551,-20.008 1.003,-6.27 2.699,-11.6719 5.109,-16.2032 v 0" /><path
         id="path30"
         style="fill:#ffffff;fill-opacity:1;fill-rule:nonzero;stroke:none"
         d="m 296.254,79.3555 h 14.797 v 44.6095 c 0,5.398 1.152,9.543 3.277,12.527 2.121,2.988 5.399,4.387 9.504,4.387 6.836,0 10.262,-4.531 10.262,-13.496 v 0 -48.0275 h 14.758 v 44.6095 0 c 0,5.398 1.152,9.543 3.277,12.527 2.125,2.988 5.394,4.387 9.543,4.387 6.797,0 10.223,-4.531 10.223,-13.496 v 0 -48.0275 h 14.757 v 47.7345 0 c 0,8.535 -1.691,15.09 -5.109,19.48 -3.535,4.399 -8.789,6.692 -15.918,6.692 -4.676,0 -8.531,-1.145 -11.52,-3.418 -2.988,-2.41 -5.253,-5.11 -7.089,-8.094 -0.723,1.402 -1.586,2.84 -2.559,4.246 -1.004,1.301 -2.266,2.559 -3.703,3.711 -1.406,1.008 -3.137,1.836 -4.973,2.551 -1.836,0.722 -4.14,1.004 -6.551,1.004 -4.539,0 -8.242,-1.145 -11.23,-3.418 -2.949,-2.41 -5.402,-5.254 -6.949,-8.821 v 0 h -0.289 v 0 c 0,0.434 0,1.301 0,2.415 -0.141,1.003 -0.141,2.128 -0.141,3.281 -0.148,1.152 -0.148,2.265 -0.148,3.269 -0.141,0.981 -0.141,1.836 -0.141,2.27 v 0 h -14.617 v 0 c 0.144,-1.977 0.254,-4.145 0.394,-6.406 0.145,-2.266 0.145,-4.68 0.145,-7.383 v 0 -59.1135 0" /><path
         id="path32"
         style="fill:#1a67bb;fill-opacity:1;fill-rule:nonzero;stroke:none"
         d="m 171.332,100.234 c -2.121,6.661 -3.273,16.348 -3.273,28.692 0,12.39 1.152,22.043 3.273,28.879 2.125,6.804 6.125,10.222 11.668,10.222 5.688,0 9.648,-3.418 11.77,-10.078 2.16,-6.844 3.277,-16.492 3.277,-29.023 v 0 0 0 c 0,-12.344 -1.117,-22.031 -3.277,-28.692 -2.266,-6.8356 -6.223,-10.2223 -11.77,-10.2223 -5.543,0 -9.543,3.3867 -11.668,10.2223 v 0" /></g></g></svg>