<?xml version="1.0" encoding="UTF-8" standalone="no"?>
<svg
   xmlns:dc="http://purl.org/dc/elements/1.1/"
   xmlns:cc="http://creativecommons.org/ns#"
   xmlns:rdf="http://www.w3.org/1999/02/22-rdf-syntax-ns#"
   xmlns:svg="http://www.w3.org/2000/svg"
   xmlns="http://www.w3.org/2000/svg"
   viewBox="0 0 94.866669 54.066666"
   height="54.066666"
   width="94.866669"
   xml:space="preserve"
   id="svg2"
   version="1.1"><metadata
     id="metadata8"><rdf:RDF><cc:Work
         rdf:about=""><dc:format>image/svg+xml</dc:format><dc:type
           rdf:resource="http://purl.org/dc/dcmitype/StillImage" /></cc:Work></rdf:RDF></metadata><defs
     id="defs6" /><g
     transform="matrix(1.3333333,0,0,-1.3333333,0,54.066667)"
     id="g10"><g
       transform="scale(0.1)"
       id="g12"><path
         id="path14"
         style="fill:#ffffff;fill-opacity:1;fill-rule:nonzero;stroke:none"
         d="M 710.078,387.516 V 1.41797 H 1.41797 V 340.277 l 229.46103,58 67.824,-30.312 90.899,36.074 73.582,-25.996 49.074,20.234 115.449,-51.949 82.371,41.188" /><path
         id="path16"
         style="fill:none;stroke:#231f20;stroke-width:2.83500004;stroke-linecap:butt;stroke-linejoin:round;stroke-miterlimit:4;stroke-dasharray:none;stroke-opacity:1"
         d="M 710.078,387.516 V 1.41797 H 1.41797 V 340.277 l 229.46103,58 67.824,-30.312 90.899,36.074 73.582,-25.996 49.074,20.234 115.449,-51.949 82.371,41.188" /><path
         id="path18"
         style="fill:#1a67bb;fill-opacity:1;fill-rule:nonzero;stroke:none"
         d="M 695.891,380.422 V 15.5977 H 15.6016 V 343.883 l 215.2774,54.394 67.824,-30.312 90.899,36.074 73.582,-25.996 49.074,20.234 115.449,-51.949 68.184,34.094" /><path
         id="path20"
         style="fill:#ffffff;fill-opacity:1;fill-rule:nonzero;stroke:none"
         d="m 483.313,99.0039 v 80.7971 h -48.079 v 0 c -1.355,0 -2.675,0 -3.992,1.355 -1.359,1.324 -1.359,2.684 -1.359,4.004 v 0 63.465 0 c 0,1.316 0,2.641 1.359,3.996 1.317,1.324 1.981,1.324 3.301,1.324 v 0 h 48.105 v 10.688 H 269.613 v 0 c -4.004,-0.664 -7.343,-1.324 -10.683,-3.34 -3.344,-2.68 -6.024,-6.023 -7.344,-10.027 v 0 l -22.734,-85.457 v 0 c -0.657,-3.344 -0.657,-4.036 -0.657,-6.024 v 0 -52.773 0 c 0,-1.985 1.321,-4.004 2.68,-5.324 1.98,-1.356 4.004,-2.6841 6.684,-2.6841 v 0 h 96.836 v 0 c 2.648,0 5.328,0.6641 7.347,2.0191 1.321,1.329 2.645,3.313 2.645,5.989 -1.324,28.718 22.734,52.773 51.445,50.758 25.379,-1.325 46.055,-22.04 46.055,-48.071 0,-2.687 0.703,-5.363 2.683,-7.347 2.012,-2.02 4.7,-3.3481 7.344,-3.3481 v 0 h 31.399 v 0" /><path
         id="path22"
         style="fill:#ffffff;fill-opacity:1;fill-rule:nonzero;stroke:none"
         d="m 395.148,72.2969 c 24.051,2.0195 40.067,24.7148 33.387,48.0741 -7.351,26.07 -40.73,35.399 -60.781,16.711 -5.984,-5.332 -9.332,-12.016 -11.348,-20.051 -1.324,-7.351 -0.66,-14.695 2.68,-22.0388 2.684,-7.3477 8.004,-12.668 14.695,-17.3633 6.68,-4.0039 14.024,-5.332 21.367,-5.332 v 0" /><path
         id="path24"
         style="fill:#1a67bb;fill-opacity:1;fill-rule:nonzero;stroke:none"
         d="m 419.16,184.469 v 62.797 c 0,1.324 0,3.343 -0.664,4.668 -1.355,1.359 -2.676,2.015 -4.668,2.015 v 0 h -62.793 v 0 c -1.98,0 -4.004,0.664 -6.019,-1.355 -1.325,-1.324 -1.325,-3.34 -1.325,-4.664 v 0 -62.762 0 c 0,-1.359 0.664,-2.684 2.024,-4.004 1.316,-1.359 2.64,-1.359 4.66,-1.359 v 0 h 64.117 v 0 c 1.328,0 2.649,0.664 3.34,1.359 0.664,0.664 1.328,1.984 1.328,3.305 v 0" /><path
         id="path26"
         style="fill:#1a67bb;fill-opacity:1;fill-rule:nonzero;stroke:none"
         d="m 333.754,166.523 v 78.813 c 0,5.324 -4.004,9.328 -8.703,9.328 -4.664,-0.66 -8.004,-4.004 -8.668,-8.668 v 0 l 0.664,-80.133 v 0 c -0.664,-4.695 3.34,-9.363 8.699,-9.363 4.664,0.664 8.668,4.668 8.008,10.023 v 0" /><path
         id="path28"
         style="fill:#1a67bb;fill-opacity:1;fill-rule:nonzero;stroke:none"
         d="m 306.332,165.168 -0.656,80.168 v 0 c 0.656,5.324 -3.34,9.328 -8.008,9.328 -4.699,0 -8.703,-4.004 -8.703,-8.668 v 0 -79.473 0 c -0.66,-5.355 3.34,-10.023 8.703,-10.023 4.668,0 8.008,4.004 8.664,8.668 v 0" /><path
         id="path30"
         style="fill:#1a67bb;fill-opacity:1;fill-rule:nonzero;stroke:none"
         d="m 279.625,163.785 -0.664,82.113 v 0 c 0,4.04 -2.68,6.684 -6.68,8.043 -4.004,0.657 -8.008,-0.664 -10.031,-4.703 v 0 l -22.695,-84.133 v 0 c 0,-0.664 -1.356,-3.343 0,-5.324 1.324,-2.023 3.347,-2.023 4.668,-2.023 v 0 h 30.734 v 0 c 1.324,0 1.988,0.664 2.645,1.324 1.359,1.356 2.023,2.68 2.023,4.703 v 0" /><path
         id="path32"
         style="fill:#1a67bb;fill-opacity:1;fill-rule:nonzero;stroke:none"
         d="m 393.242,130.938 c 11.621,0 21.094,-9.465 21.094,-21.094 0,-11.6213 -9.473,-21.094 -21.094,-21.094 -11.629,0 -21.094,9.4727 -21.094,21.094 0,11.629 9.465,21.094 21.094,21.094 v 0" /></g></g></svg>