<?xml version="1.0" encoding="UTF-8" standalone="no"?>
<svg
   xmlns:dc="http://purl.org/dc/elements/1.1/"
   xmlns:cc="http://creativecommons.org/ns#"
   xmlns:rdf="http://www.w3.org/1999/02/22-rdf-syntax-ns#"
   xmlns:svg="http://www.w3.org/2000/svg"
   xmlns="http://www.w3.org/2000/svg"
   viewBox="0 0 94.866669 94.866669"
   height="94.866669"
   width="94.866669"
   xml:space="preserve"
   id="svg2"
   version="1.1"><metadata
     id="metadata8"><rdf:RDF><cc:Work
         rdf:about=""><dc:format>image/svg+xml</dc:format><dc:type
           rdf:resource="http://purl.org/dc/dcmitype/StillImage" /></cc:Work></rdf:RDF></metadata><defs
     id="defs6" /><g
     transform="matrix(1.3333333,0,0,-1.3333333,0,94.866667)"
     id="g10"><g
       transform="scale(0.1)"
       id="g12"><path
         id="path14"
         style="fill:#ffffff;fill-opacity:1;fill-rule:nonzero;stroke:none"
         d="m 1.41406,1.41797 h 708.664 v 708.656 H 1.41406 Z" /><path
         id="path16"
         style="fill:none;stroke:#231f20;stroke-width:2.83500004;stroke-linecap:butt;stroke-linejoin:miter;stroke-miterlimit:4;stroke-dasharray:none;stroke-opacity:1"
         d="M 1.41406,1.41797 H 710.078 V 710.074 H 1.41406 V 1.41797" /><path
         id="path18"
         style="fill:#1a67bb;fill-opacity:1;fill-rule:nonzero;stroke:none"
         d="M 15.6016,695.926 H 695.926 V 15.5938 H 15.6016 v 680.3322 0" /><path
         id="path20"
         style="fill:#ffffff;fill-opacity:1;fill-rule:nonzero;stroke:none"
         d="M 72.2656,506.281 272.32,603.766 639.188,504.477 V 462.031 L 272.32,560.418 72.2656,462.031 v 44.25 0" /><path
         id="path22"
         style="fill:#ffffff;fill-opacity:1;fill-rule:nonzero;stroke:none"
         d="m 235.273,107.723 v 354.343 h 158.575 v 0 c 2.734,0 5.957,-0.316 8.691,-0.64 8.066,-0.988 15.899,-3.481 23.074,-7.258 6.887,-3.625 13.106,-8.363 18.313,-14.109 4.637,-5.051 8.437,-10.832 11.375,-17.043 2.57,-5.485 4.492,-11.293 5.539,-17.274 0.515,-3.019 1.199,-7.402 1.199,-10.48 v 0 l -0.223,-86.547 v 0 c 0,-2.352 -0.753,-6.617 -1.183,-8.91 -1.387,-7.285 -4.063,-14.258 -7.774,-20.645 -3.75,-6.359 -8.464,-12.109 -14.031,-16.953 -5.039,-4.383 -10.656,-8.019 -16.64,-10.801 -6.516,-3.019 -13.508,-5.109 -20.657,-5.812 -2.703,-0.262 -5.41,-0.399 -8.113,-0.399 v 0 H 294.773 V 107.723 h -59.5 v 0" /><path
         id="path24"
         style="fill:#ffffff;fill-opacity:1;fill-rule:nonzero;stroke:none"
         d="m 532.859,214.004 h -70.82 v -35.43 h 70.82 v -70.851 h 35.43 v 70.851 h 70.879 v 35.43 h -70.879 v 70.879 h -35.43 v -70.879" /><path
         id="path26"
         style="fill:#1a67bb;fill-opacity:1;fill-rule:nonzero;stroke:none"
         d="M 294.746,300.684 V 405.98 h 99.531 v 0 c 0.809,0 1.7,-0.082 2.45,-0.347 0.519,-0.176 1.183,-0.551 1.64,-0.809 0.488,-0.324 1.184,-0.758 1.613,-1.133 0.43,-0.441 0.86,-1.015 1.211,-1.539 0.372,-0.578 0.75,-1.25 0.946,-1.89 0.234,-0.637 0.429,-1.418 0.429,-2.117 v 0 l -0.281,-88.813 v 0 c 0,-0.723 -0.058,-1.539 -0.265,-2.262 -0.137,-0.609 -0.457,-1.277 -0.743,-1.824 -0.351,-0.617 -0.75,-1.281 -1.211,-1.781 -0.429,-0.516 -1.003,-0.985 -1.582,-1.395 -0.515,-0.371 -1.148,-0.754 -1.757,-0.988 -0.926,-0.34 -2.188,-0.398 -3.231,-0.398 v 0 h -98.75 v 0" /></g></g></svg>