<?xml version="1.0" encoding="UTF-8" standalone="no"?>
<svg
   xmlns:dc="http://purl.org/dc/elements/1.1/"
   xmlns:cc="http://creativecommons.org/ns#"
   xmlns:rdf="http://www.w3.org/1999/02/22-rdf-syntax-ns#"
   xmlns:svg="http://www.w3.org/2000/svg"
   xmlns="http://www.w3.org/2000/svg"
   viewBox="0 0 94.866669 132.66667"
   height="132.66667"
   width="94.866669"
   xml:space="preserve"
   id="svg2"
   version="1.1"><metadata
     id="metadata8"><rdf:RDF><cc:Work
         rdf:about=""><dc:format>image/svg+xml</dc:format><dc:type
           rdf:resource="http://purl.org/dc/dcmitype/StillImage" /></cc:Work></rdf:RDF></metadata><defs
     id="defs6" /><g
     transform="matrix(1.3333333,0,0,-1.3333333,0,132.66667)"
     id="g10"><g
       transform="scale(0.1)"
       id="g12"><path
         id="path14"
         style="fill:#ffffff;fill-opacity:1;fill-rule:nonzero;stroke:none"
         d="m 1.41797,1.41797 h 708.66 v 992.121 h -708.66 z" /><path
         id="path16"
         style="fill:none;stroke:#231f20;stroke-width:2.83500004;stroke-linecap:butt;stroke-linejoin:miter;stroke-miterlimit:4;stroke-dasharray:none;stroke-opacity:1"
         d="M 1.41797,1.41797 H 710.078 V 993.539 H 1.41797 V 1.41797" /><path
         id="path18"
         style="fill:#1a67bb;fill-opacity:1;fill-rule:nonzero;stroke:none"
         d="m 15.6016,15.6055 h 680.289 v 963.754 H 15.6016 Z" /><path
         id="path20"
         style="fill:#ffffff;fill-opacity:1;fill-rule:nonzero;stroke:none"
         d="m 185.445,419.523 h -77.718 v 439.344 h 219.054 v 0 c 18.074,0 37.692,-7.054 49.469,-22.828 15.695,-20.48 14.941,-40.137 14.941,-40.137 v 0 -147.238 0 c 0,-10.262 -3.171,-32.293 -18.867,-48.062 -14.148,-14.145 -29.051,-19.657 -45.543,-19.657 v 0 H 185.445 v -161.422 0" /><path
         id="path22"
         style="fill:#ffffff;fill-opacity:1;fill-rule:nonzero;stroke:none"
         d="m 516.574,506.063 h 87.227 v 38.562 h -87.227 v 87.48 h -37.98 v -87.48 l -87.403,-0.039 v -38.449 l 87.403,-0.074 v -86.54 h 37.98 v 86.54" /><path
         id="path24"
         style="fill:#ffffff;fill-opacity:1;fill-rule:nonzero;stroke:none"
         d="m 229.152,321.531 h 254.16 v 5.07813 h -254.16 z" /><path
         id="path26"
         style="fill:#ffffff;fill-opacity:1;fill-rule:nonzero;stroke:none"
         d="m 356.195,227.355 c -0.254,1.661 2.266,5.118 5.075,5.118 v 0 l 122.043,0.027 v 10.227 H 361.27 v 0 c -2.809,0 -5.075,2.261 -5.075,5.078 0,2.8 2.266,5.105 5.075,5.105 v 0 l 122.043,0.039 v 10.227 h -99.141 l 29.336,20.34 -57.278,33.117 -57.242,-33.117 29.27,-20.34 h -65.09 v 0 c -7.699,0 -14.07,-5.942 -15.117,-13.363 v 0 l -13.86,-98.668 h 249.122 v 50.828 l -122.043,0.293 v 0 c -2.809,0 -5.075,2.265 -5.075,5.07 0,2.812 2.266,4.715 5.075,4.715 v 0 h 122.043 v 10.222 H 361.27 v 0 c -2.809,0 -5.075,2.278 -5.075,5.082 v 0" /><path
         id="path28"
         style="fill:#ffffff;fill-opacity:1;fill-rule:nonzero;stroke:none"
         d="m 228.215,108.828 4.535,32.09 h 54.828 v -37.871 h -54.32 v 0 c -2.813,0 -5.078,2.273 -5.078,5.078 0,0.234 0,0.469 0.035,0.703 v 0" /><path
         id="path30"
         style="fill:#ffffff;fill-opacity:1;fill-rule:nonzero;stroke:none"
         d="m 297.73,115.645 c 0,14.738 11.954,26.679 26.715,26.679 14.719,0 26.672,-11.941 26.672,-26.679 0,-14.727 -11.953,-26.6684 -26.672,-26.6684 -14.761,0 -26.715,11.9414 -26.715,26.6684 v 0" /><path
         id="path32"
         style="fill:#ffffff;fill-opacity:1;fill-rule:nonzero;stroke:none"
         d="m 361.309,115.645 c 0,14.738 11.953,26.679 26.711,26.679 14.726,0 26.679,-11.941 26.679,-26.679 0,-14.727 -11.953,-26.6684 -26.679,-26.6684 -14.758,0 -26.711,11.9414 -26.711,26.6684 v 0" /><path
         id="path34"
         style="fill:#ffffff;fill-opacity:1;fill-rule:nonzero;stroke:none"
         d="M 229.098,72.375 H 483.313 V 82.5391 H 229.098 Z" /><path
         id="path36"
         style="fill:#ffffff;fill-opacity:1;fill-rule:nonzero;stroke:none"
         d="m 424.844,103.047 h 58.4688 v 38.1172 H 424.844 Z" /><path
         id="path38"
         style="fill:#1a67bb;fill-opacity:1;fill-rule:nonzero;stroke:none"
         d="m 289.273,207.336 c 0,-2.805 -2.277,-5.07 -5.089,-5.07 v 0 h -26.668 v 0 c -2.813,0 -5.153,2.265 -5.153,5.07 0,0.254 0.016,0.469 0.047,0.723 v 0 l 5.719,40.386 v 0 c 0.613,4.36 2.531,4.504 5.098,4.504 v 0 h 21.007 v 0 c 2.809,0 5.039,-2.117 5.039,-4.929 v 0 -40.684 0" /><path
         id="path40"
         style="fill:#1a67bb;fill-opacity:1;fill-rule:nonzero;stroke:none"
         d="m 366.348,263.176 h -20.27 l -28.113,19.578 38.265,22.043 38.274,-22.09 v 0 l -28.156,-19.531" /><path
         id="path42"
         style="fill:#1a67bb;fill-opacity:1;fill-rule:nonzero;stroke:none"
         d="m 185.375,648.695 v 140.946 h 111.492 v 0 c 4.715,0 10.223,0 13.36,-3.137 3.128,-3.164 3.918,-6.297 3.918,-13.391 v 0 -107.894 0 c 0,-5.508 -1.582,-10.219 -4.715,-12.598 -3.129,-3.129 -6.262,-3.926 -11.774,-3.926 v 0 H 185.375 v 0" /></g></g></svg>