<?xml version="1.0" encoding="UTF-8" standalone="no"?>
<svg
   xmlns:dc="http://purl.org/dc/elements/1.1/"
   xmlns:cc="http://creativecommons.org/ns#"
   xmlns:rdf="http://www.w3.org/1999/02/22-rdf-syntax-ns#"
   xmlns:svg="http://www.w3.org/2000/svg"
   xmlns="http://www.w3.org/2000/svg"
   viewBox="0 0 94.866669 54.066666"
   height="54.066666"
   width="94.866669"
   xml:space="preserve"
   id="svg2"
   version="1.1"><metadata
     id="metadata8"><rdf:RDF><cc:Work
         rdf:about=""><dc:format>image/svg+xml</dc:format><dc:type
           rdf:resource="http://purl.org/dc/dcmitype/StillImage" /></cc:Work></rdf:RDF></metadata><defs
     id="defs6" /><g
     transform="matrix(1.3333333,0,0,-1.3333333,0,54.066667)"
     id="g10"><g
       transform="scale(0.1)"
       id="g12"><path
         id="path14"
         style="fill:#ffffff;fill-opacity:1;fill-rule:nonzero;stroke:none"
         d="M 710.078,387.516 V 1.41797 H 1.41797 V 340.281 l 229.46103,58 67.828,-30.312 90.898,36.07 73.583,-25.992 49.07,20.234 115.453,-51.949 82.367,41.184" /><path
         id="path16"
         style="fill:none;stroke:#231f20;stroke-width:2.83500004;stroke-linecap:butt;stroke-linejoin:round;stroke-miterlimit:4;stroke-dasharray:none;stroke-opacity:1"
         d="M 710.078,387.516 V 1.41797 H 1.41797 V 340.281 l 229.46103,58 67.828,-30.312 90.898,36.07 73.583,-25.992 49.07,20.234 115.453,-51.949 82.367,41.184" /><path
         id="path18"
         style="fill:#1a67bb;fill-opacity:1;fill-rule:nonzero;stroke:none"
         d="M 695.895,380.426 V 15.6016 H 15.6016 V 343.883 l 215.2774,54.398 67.828,-30.312 90.898,36.07 73.583,-25.992 49.07,20.234 115.453,-51.949 68.184,34.094" /><path
         id="path20"
         style="fill:#ffffff;fill-opacity:1;fill-rule:nonzero;stroke:none"
         d="m 228.18,72.3008 h 255.098 v 9.64844 H 228.18 Z" /><path
         id="path22"
         style="fill:#ffffff;fill-opacity:1;fill-rule:nonzero;stroke:none"
         d="m 297.406,104.52 h 53.102 v 0 c -4.031,-10.477 -15.297,-17.7114 -27.36,-17.7114 -11.269,0 -21.742,7.2344 -25.742,17.7114 v 0" /><path
         id="path24"
         style="fill:#ffffff;fill-opacity:1;fill-rule:nonzero;stroke:none"
         d="m 360.988,104.52 52.305,0.793 v 0 c -4.031,-11.27 -13.68,-17.7153 -25.738,-18.5044 -11.27,0 -22.539,7.2344 -26.567,17.7114 v 0" /><path
         id="path26"
         style="fill:#ffffff;fill-opacity:1;fill-rule:nonzero;stroke:none"
         d="m 232.211,115.785 c -0.824,0 -1.621,0 -2.41,0.793 -0.824,0.828 -0.824,1.621 -0.824,3.242 v 0 36.215 0 c 0,0.789 0,1.582 0,1.582 0,0.828 0,1.621 0,2.449 v 0 L 256.332,251 v 0 c 1.621,3.211 4.035,6.414 7.273,8.031 3.204,1.617 6.411,2.414 9.649,2.414 v 0 h 43.449 l 56.344,55.547 v 0 c 2.414,1.582 4.824,1.582 6.441,-0.828 1.586,-1.582 1.586,-3.203 0,-4.824 v 0 l -49.101,-49.895 h 152.097 v -9.648 h -52.308 v 0 c -0.789,0 -1.621,0 -2.41,-0.797 -1.621,-1.613 -2.414,-3.234 -2.414,-4.855 v 0 l 0.793,-63.579 v 0 c -0.793,-1.586 0,-2.41 0.828,-3.996 0.793,-0.824 2.414,-0.824 3.996,-0.824 v 0 h 51.515 V 115.785 H 232.211 v 0" /><path
         id="path28"
         style="fill:#ffffff;fill-opacity:1;fill-rule:nonzero;stroke:none"
         d="m 228.977,320.984 h 253.508 v 4.82813 H 228.977 Z" /><path
         id="path30"
         style="fill:#1a67bb;fill-opacity:1;fill-rule:nonzero;stroke:none"
         d="M 411.711,177.707 H 347.34 v 0 c -1.617,-0.793 -3.238,0 -4.027,1.617 -0.833,0.793 -1.622,2.414 -1.622,4.035 v 0 64.371 0 c 0.789,0.825 0.789,1.618 1.622,2.411 0.789,0.828 2.41,1.617 4.027,1.617 v 0 h 64.371 v 0 c 0.789,0 2.41,-0.789 3.199,-1.617 0.832,-0.793 1.625,-2.411 1.625,-3.996 v 0 -62.786 0 c 0,-0.832 -0.793,-2.414 -1.625,-4.035 -0.789,-0.789 -1.578,-1.617 -3.199,-1.617 v 0" /><path
         id="path32"
         style="fill:#1a67bb;fill-opacity:1;fill-rule:nonzero;stroke:none"
         d="m 332.832,163.238 c 0,-3.242 -2.41,-6.445 -6.445,-7.277 -4.824,-0.789 -8.852,2.414 -8.852,7.277 v 0 l -0.793,82.078 v 0 c 0.793,4.825 4.821,8.028 8.856,7.235 4.031,0 7.234,-3.203 7.234,-7.235 v 0 -82.078 0" /><path
         id="path34"
         style="fill:#1a67bb;fill-opacity:1;fill-rule:nonzero;stroke:none"
         d="m 307.094,162.406 c 0,-4.031 -4.031,-7.234 -8.067,-7.234 -3.992,0.789 -7.234,4.031 -7.234,8.066 v 0 82.078 0 c 0,4.825 4.031,8.028 8.855,8.028 4.036,-0.793 6.446,-3.996 6.446,-8.028 v 0 -82.91 0" /><path
         id="path36"
         style="fill:#1a67bb;fill-opacity:1;fill-rule:nonzero;stroke:none"
         d="m 282.109,162.375 c 0,-1.59 0,-3.211 -1.621,-4 -0.789,-0.824 -1.582,-1.621 -3.203,-1.621 v 0 h -33.012 v 0 c -0.793,0 -2.414,0 -3.203,0.797 -1.621,1.613 -1.621,3.234 -1.621,4.027 v 0 l 27.36,86.113 v 0 c 1.621,4.032 5.652,5.653 9.687,4.825 3.203,-0.793 5.613,-4.036 5.613,-8.028 v 0 -82.113 0" /></g></g></svg>