<?xml version="1.0" encoding="UTF-8" standalone="no"?>
<svg
   xmlns:dc="http://purl.org/dc/elements/1.1/"
   xmlns:cc="http://creativecommons.org/ns#"
   xmlns:rdf="http://www.w3.org/1999/02/22-rdf-syntax-ns#"
   xmlns:svg="http://www.w3.org/2000/svg"
   xmlns="http://www.w3.org/2000/svg"
   viewBox="0 0 106.2 75.973335"
   height="75.973335"
   width="106.2"
   xml:space="preserve"
   id="svg2"
   version="1.1"><metadata
     id="metadata8"><rdf:RDF><cc:Work
         rdf:about=""><dc:format>image/svg+xml</dc:format><dc:type
           rdf:resource="http://purl.org/dc/dcmitype/StillImage" /></cc:Work></rdf:RDF></metadata><defs
     id="defs6" /><g
     transform="matrix(1.3333333,0,0,-1.3333333,0,75.973333)"
     id="g10"><g
       transform="scale(0.1)"
       id="g12"><path
         id="path14"
         style="fill:#ffffff;fill-opacity:1;fill-rule:nonzero;stroke:none"
         d="m 1.41797,1.41797 h 793.695 v 566.926 H 1.41797 Z" /><path
         id="path16"
         style="fill:none;stroke:#231f20;stroke-width:2.83500004;stroke-linecap:butt;stroke-linejoin:miter;stroke-miterlimit:4;stroke-dasharray:none;stroke-opacity:1"
         d="M 1.41797,1.41797 H 795.113 V 568.344 H 1.41797 V 1.41797" /><path
         id="path18"
         style="fill:#1a67bb;fill-opacity:1;fill-rule:nonzero;stroke:none"
         d="m 12.7578,12.7539 h 771.016 v 544.254 H 12.7578 Z" /><path
         id="path20"
         style="fill:#ffffff;fill-opacity:1;fill-rule:nonzero;stroke:none"
         d="m 348.285,52.4531 h 21.602 v 0 c 3.968,0 7.515,0.5469 10.566,1.6953 3.082,1.0079 5.586,2.6172 7.75,4.5547 2.156,1.9297 3.746,4.3125 4.867,7.0274 1.035,2.6172 1.614,5.5859 1.614,8.75 v 0 0 0 c 0,3.0859 -0.461,5.7031 -1.27,8.0976 -0.891,2.2735 -2.043,4.1992 -3.398,5.793 -1.496,1.4648 -3.082,2.7305 -4.782,3.6484 -1.812,0.9024 -3.629,1.4766 -5.468,1.8203 v 0 0.2227 0 c 1.73,0.5586 3.312,1.2383 4.894,2.2773 1.496,0.8946 2.852,2.0469 4.09,3.5118 1.266,1.4764 2.16,3.1754 2.965,5.2464 0.808,1.933 1.152,4.316 1.152,6.914 0,6.386 -1.844,11.258 -5.469,14.687 -3.746,3.399 -9.566,5.098 -17.511,5.098 v 0 h -21.602 v -79.3439 0" /><path
         id="path22"
         style="fill:#ffffff;fill-opacity:1;fill-rule:nonzero;stroke:none"
         d="m 408.941,52.4531 h 40.575 v 10.1055 h -28.309 v 25.8125 h 25.723 v 10.1367 h -25.723 v 23.1802 h 27.07 v 10.109 h -39.336 v -79.3439 0" /><path
         id="path24"
         style="fill:#ffffff;fill-opacity:1;fill-rule:nonzero;stroke:none"
         d="m 271.074,381.258 h 32.399 v 0 c 5.992,0 11.257,0.836 15.867,2.535 4.609,1.559 8.355,3.945 11.605,6.828 3.231,2.91 5.618,6.477 7.348,10.57 1.527,3.946 2.359,8.379 2.359,13.129 v 0 0 0 c 0,4.61 -0.664,8.555 -1.875,12.129 -1.351,3.399 -3.05,6.305 -5.093,8.696 -2.219,2.218 -4.606,4.089 -7.168,5.468 -2.743,1.36 -5.477,2.196 -8.18,2.711 v 0 0.348 0 c 2.535,0.863 4.922,1.871 7.312,3.426 2.219,1.355 4.266,3.054 6.133,5.269 1.903,2.219 3.258,4.781 4.434,7.863 1.211,2.879 1.73,6.481 1.73,10.395 0,9.566 -2.734,16.879 -8.211,22.008 -5.613,5.125 -14.308,7.66 -26.261,7.66 v 0 h -32.399 v -119.035 0" /><path
         id="path26"
         style="fill:#ffffff;fill-opacity:1;fill-rule:nonzero;stroke:none"
         d="m 361.91,381.258 h 17.738 v 87.496 H 361.91 v -87.496 0" /><path
         id="path28"
         style="fill:#ffffff;fill-opacity:1;fill-rule:nonzero;stroke:none"
         d="m 361.391,486.324 h 18.777 v 18.922 h -18.777 v -18.922 0" /><path
         id="path30"
         style="fill:#ffffff;fill-opacity:1;fill-rule:nonzero;stroke:none"
         d="m 417.809,419.965 h 49.968 v 5.961 c 0,7.691 -0.839,14.172 -2.39,19.789 -1.524,5.648 -3.742,10.25 -6.653,13.828 -2.879,3.566 -6.484,6.133 -10.398,7.832 -4.094,1.727 -8.527,2.563 -13.301,2.563 -5.449,0 -10.402,-1.012 -14.66,-3.227 -4.441,-2.219 -8.184,-5.473 -11.094,-9.391 -2.91,-4.09 -5.301,-8.867 -6.824,-14.511 -1.523,-5.618 -2.391,-11.754 -2.391,-18.407 0,-6.308 0.868,-12.297 2.391,-17.742 1.523,-5.469 3.75,-10.051 7,-13.992 3.047,-3.918 6.992,-7 11.75,-9.223 4.785,-2.328 10.43,-3.367 16.738,-3.367 5.438,0 10.391,0.524 14.657,1.672 4.257,1.211 7.687,2.391 10.566,3.602 v 0 l -0.84,14.828 v 0 c -2.215,-1.524 -5.125,-3.082 -8.523,-4.602 -3.594,-1.531 -7.864,-2.394 -12.961,-2.394 -8.203,0 -13.992,2.214 -17.567,6.824 -3.593,4.433 -5.468,11.09 -5.468,19.957 v 0" /><path
         id="path32"
         style="fill:#ffffff;fill-opacity:1;fill-rule:nonzero;stroke:none"
         d="m 489.176,381.258 h 17.742 V 509.16 h -17.742 v -127.902 0" /><path
         id="path34"
         style="fill:#ffffff;fill-opacity:1;fill-rule:nonzero;stroke:none"
         d="m 158.926,199.852 h 32.398 v 0 c 5.989,0 11.266,0.863 15.867,2.562 4.61,1.551 8.356,3.941 11.61,6.824 3.226,2.91 5.617,6.485 7.344,10.567 1.527,3.945 2.363,8.383 2.363,13.133 v 0 0 0 c 0,4.613 -0.664,8.558 -1.871,12.125 -1.36,3.398 -3.059,6.308 -5.098,8.703 -2.219,2.214 -4.609,4.086 -7.176,5.468 -2.73,1.356 -5.472,2.192 -8.175,2.707 v 0 0.348 0 c 2.535,0.859 4.925,1.871 7.312,3.426 2.219,1.355 4.266,3.055 6.133,5.269 1.906,2.219 3.258,4.782 4.437,7.864 1.207,2.879 1.731,6.48 1.731,10.394 0,9.567 -2.738,16.883 -8.207,22.008 -5.621,5.121 -14.317,7.66 -26.27,7.66 v 0 h -32.398 v -119.058 0" /><path
         id="path36"
         style="fill:#ffffff;fill-opacity:1;fill-rule:nonzero;stroke:none"
         d="M 249.762,199.852 H 267.5 v 87.523 h -17.738 v -87.523 0" /><path
         id="path38"
         style="fill:#ffffff;fill-opacity:1;fill-rule:nonzero;stroke:none"
         d="m 249.242,304.941 h 18.778 v 18.922 h -18.778 v -18.922 0" /><path
         id="path40"
         style="fill:#ffffff;fill-opacity:1;fill-rule:nonzero;stroke:none"
         d="m 305.688,238.586 h 49.972 v 5.961 c 0,7.687 -0.836,14.168 -2.394,19.785 -1.524,5.645 -3.746,10.254 -6.649,13.828 -2.883,3.567 -6.48,6.133 -10.402,7.832 -4.086,1.727 -8.52,2.563 -13.305,2.563 -5.437,0 -10.394,-1.012 -14.656,-3.227 -4.438,-2.219 -8.18,-5.469 -11.09,-9.39 -2.906,-4.086 -5.301,-8.868 -6.82,-14.512 -1.531,-5.621 -2.395,-11.754 -2.395,-18.403 0,-6.308 0.864,-12.3 2.395,-17.742 1.519,-5.476 3.738,-10.058 6.996,-14.004 3.051,-3.914 6.996,-6.988 11.746,-9.207 4.781,-2.363 10.43,-3.398 16.734,-3.398 5.446,0 10.395,0.516 14.657,1.699 4.265,1.211 7.691,2.383 10.574,3.594 v 0 l -0.836,14.836 v 0 c -2.215,-1.528 -5.125,-3.078 -8.527,-4.613 -3.598,-1.52 -7.86,-2.391 -12.958,-2.391 -8.207,0 -14,2.226 -17.566,6.828 -3.601,4.441 -5.476,11.09 -5.476,19.961 v 0" /><path
         id="path42"
         style="fill:#ffffff;fill-opacity:1;fill-rule:nonzero;stroke:none"
         d="m 376.656,199.852 h 17.707 v 51.867 c 0,6.828 1.356,12.269 4.266,16.215 2.734,3.918 6.824,5.785 12.441,5.785 4.61,0 7.86,-1.524 10.078,-4.61 2.051,-3.078 3.055,-8 3.055,-14.828 v 0 -54.429 h 17.735 v 58.519 0 c 0,9.219 -2.04,16.531 -6.133,22.004 -4.09,5.441 -10.567,8.18 -19.434,8.18 -5.125,0 -9.558,-1.18 -13.48,-3.746 -3.914,-2.563 -6.996,-6.133 -9.219,-10.743 v 0 h -0.34 v 0 c 0,0.52 0,1.528 0,2.735 -0.18,1.183 -0.18,2.535 -0.348,3.918 -0.171,1.355 -0.171,2.707 -0.171,3.918 -0.176,1.179 -0.176,2.218 -0.176,2.738 v 0 h -16.676 v 0 c 0.172,-2.566 0.348,-5.301 0.519,-8.039 0.176,-2.875 0.176,-5.785 0.176,-8.695 v 0 -70.789 0" /><path
         id="path44"
         style="fill:#ffffff;fill-opacity:1;fill-rule:nonzero;stroke:none"
         d="m 466.363,199.852 h 17.742 v 51.867 c 0,6.828 1.36,12.269 4.258,16.215 2.746,3.918 6.828,5.785 12.442,5.785 4.609,0 7.871,-1.524 10.09,-4.61 2.039,-3.078 3.046,-8 3.046,-14.828 v 0 -54.429 h 17.743 v 58.519 0 c 0,9.219 -2.039,16.531 -6.133,22.004 -4.09,5.441 -10.574,8.18 -19.442,8.18 -5.129,0 -9.562,-1.18 -13.476,-3.746 -3.918,-2.563 -7.004,-6.133 -9.219,-10.743 v 0 h -0.344 v 0 c 0,0.52 0,1.528 0,2.735 -0.175,1.183 -0.175,2.535 -0.351,3.918 -0.164,1.355 -0.164,2.707 -0.164,3.918 -0.176,1.179 -0.176,2.218 -0.176,2.738 v 0 H 465.68 v 0 c 0.164,-2.566 0.34,-5.301 0.515,-8.039 0.168,-2.875 0.168,-5.785 0.168,-8.695 v 0 -70.789 0" /><path
         id="path46"
         style="fill:#ffffff;fill-opacity:1;fill-rule:nonzero;stroke:none"
         d="m 569.125,238.586 h 49.961 v 5.961 c 0,7.687 -0.828,14.168 -2.383,19.785 -1.531,5.645 -3.75,10.254 -6.66,13.828 -2.871,3.567 -6.473,6.133 -10.391,7.832 -4.089,1.727 -8.523,2.563 -13.308,2.563 -5.442,0 -10.391,-1.012 -14.66,-3.227 -4.434,-2.219 -8.172,-5.469 -11.082,-9.39 -2.911,-4.086 -5.305,-8.868 -6.829,-14.512 -1.523,-5.621 -2.39,-11.754 -2.39,-18.403 0,-6.308 0.867,-12.3 2.39,-17.742 1.524,-5.476 3.743,-10.058 7.004,-14.004 3.047,-3.914 6.993,-6.988 11.746,-9.207 4.778,-2.363 10.422,-3.398 16.731,-3.398 5.449,0 10.398,0.516 14.656,1.699 4.27,1.211 7.695,2.383 10.578,3.594 v 0 l -0.84,14.836 v 0 c -2.218,-1.528 -5.128,-3.078 -8.527,-4.613 -3.594,-1.52 -7.859,-2.391 -12.957,-2.391 -8.203,0 -13.996,2.226 -17.57,6.828 -3.602,4.441 -5.469,11.09 -5.469,19.961 v 0" /><path
         id="path48"
         style="fill:#1a67bb;fill-opacity:1;fill-rule:nonzero;stroke:none"
         d="m 360.32,98.0391 v 24.3359 h 7.407 v 0 c 4.433,0 7.718,-1.035 9.875,-3.195 2.164,-2.16 3.199,-5.008 3.199,-8.41 v 0 0 0 c 0,-3.739 -1.121,-6.825 -3.399,-9.219 -2.39,-2.3908 -5.816,-3.5119 -10.367,-3.5119 v 0 h -6.715 v 0" /><path
         id="path50"
         style="fill:#1a67bb;fill-opacity:1;fill-rule:nonzero;stroke:none"
         d="m 360.32,62.0977 v 26.4961 h 8.645 v 0 c 2.387,0 4.32,-0.3399 6.047,-1.004 1.699,-0.6953 3.054,-1.6132 4.207,-2.8554 1.008,-1.2696 1.812,-2.6133 2.386,-4.2071 0.547,-1.6093 0.778,-3.3125 0.778,-5.2343 v 0 0 0 c 0,-3.75 -1.121,-6.9453 -3.399,-9.4532 -2.273,-2.4687 -5.699,-3.7421 -10.336,-3.7421 v 0 h -8.328 v 0" /><path
         id="path52"
         style="fill:#1a67bb;fill-opacity:1;fill-rule:nonzero;stroke:none"
         d="m 289.16,449.633 v 36.519 h 11.09 v 0 c 6.648,0 11.605,-1.558 14.828,-4.785 3.258,-3.254 4.781,-7.515 4.781,-12.613 v 0 0 0 c 0,-5.645 -1.699,-10.254 -5.129,-13.824 -3.566,-3.567 -8.695,-5.297 -15.519,-5.297 v 0 H 289.16 v 0" /><path
         id="path54"
         style="fill:#1a67bb;fill-opacity:1;fill-rule:nonzero;stroke:none"
         d="m 289.16,395.746 v 39.746 h 12.961 v 0 c 3.567,0 6.477,-0.523 9.043,-1.527 2.563,-1.035 4.606,-2.395 6.309,-4.293 1.523,-1.871 2.734,-3.914 3.566,-6.309 0.863,-2.386 1.211,-4.922 1.211,-7.832 v 0 0 0 c 0,-5.644 -1.699,-10.394 -5.125,-14.168 -3.398,-3.746 -8.527,-5.617 -15.523,-5.617 v 0 H 289.16 v 0" /><path
         id="path56"
         style="fill:#1a67bb;fill-opacity:1;fill-rule:nonzero;stroke:none"
         d="m 417.809,432.066 c 0.175,8.032 1.699,14.34 4.609,18.774 2.91,4.262 7,6.48 12.098,6.48 10.597,0 15.871,-8.351 15.871,-25.254 v 0 h -32.578 v 0" /><path
         id="path58"
         style="fill:#1a67bb;fill-opacity:1;fill-rule:nonzero;stroke:none"
         d="m 177.012,268.246 v 36.52 h 11.09 v 0 c 6.648,0 11.605,-1.551 14.828,-4.782 3.258,-3.25 4.785,-7.515 4.785,-12.609 v 0 0 0 c 0,-5.648 -1.699,-10.254 -5.125,-13.824 -3.574,-3.574 -8.703,-5.305 -15.531,-5.305 v 0 h -10.047 v 0" /><path
         id="path60"
         style="fill:#1a67bb;fill-opacity:1;fill-rule:nonzero;stroke:none"
         d="m 177.012,214.363 v 39.742 h 12.961 v 0 c 3.574,0 6.476,-0.515 9.043,-1.523 2.562,-1.035 4.609,-2.391 6.304,-4.289 1.532,-1.871 2.739,-3.918 3.571,-6.313 0.867,-2.386 1.211,-4.921 1.211,-7.832 v 0 0 0 c 0,-5.64 -1.7,-10.398 -5.125,-14.168 -3.399,-3.742 -8.528,-5.617 -15.524,-5.617 v 0 h -12.441 v 0" /><path
         id="path62"
         style="fill:#1a67bb;fill-opacity:1;fill-rule:nonzero;stroke:none"
         d="m 305.688,250.684 c 0.175,8.031 1.699,14.339 4.609,18.773 2.91,4.262 7,6.481 12.098,6.481 10.597,0 15.867,-8.348 15.867,-25.254 v 0 h -32.574 v 0" /><path
         id="path64"
         style="fill:#1a67bb;fill-opacity:1;fill-rule:nonzero;stroke:none"
         d="m 569.125,250.684 c 0.168,8.031 1.699,14.339 4.609,18.773 2.903,4.262 6.993,6.481 12.09,6.481 10.606,0 15.871,-8.348 15.871,-25.254 v 0 h -32.57 v 0" /></g></g></svg>