<?xml version="1.0" encoding="UTF-8" standalone="no"?>
<svg
   xmlns:dc="http://purl.org/dc/elements/1.1/"
   xmlns:cc="http://creativecommons.org/ns#"
   xmlns:rdf="http://www.w3.org/1999/02/22-rdf-syntax-ns#"
   xmlns:svg="http://www.w3.org/2000/svg"
   xmlns="http://www.w3.org/2000/svg"
   viewBox="0 0 106.2 75.973335"
   height="75.973335"
   width="106.2"
   xml:space="preserve"
   id="svg2"
   version="1.1"><metadata
     id="metadata8"><rdf:RDF><cc:Work
         rdf:about=""><dc:format>image/svg+xml</dc:format><dc:type
           rdf:resource="http://purl.org/dc/dcmitype/StillImage" /></cc:Work></rdf:RDF></metadata><defs
     id="defs6" /><g
     transform="matrix(1.3333333,0,0,-1.3333333,0,75.973333)"
     id="g10"><g
       transform="scale(0.1)"
       id="g12"><path
         id="path14"
         style="fill:#ffffff;fill-opacity:1;fill-rule:nonzero;stroke:none"
         d="m 1.41797,1.41797 h 793.695 v 566.926 H 1.41797 Z" /><path
         id="path16"
         style="fill:none;stroke:#231f20;stroke-width:2.83500004;stroke-linecap:butt;stroke-linejoin:miter;stroke-miterlimit:4;stroke-dasharray:none;stroke-opacity:1"
         d="M 1.41797,1.41797 H 795.113 V 568.344 H 1.41797 V 1.41797" /><path
         id="path18"
         style="fill:#1a67bb;fill-opacity:1;fill-rule:nonzero;stroke:none"
         d="m 12.7656,426.621 h 771 v 130.395 h -771 z" /><path
         id="path20"
         style="fill:#1a67bb;fill-opacity:1;fill-rule:nonzero;stroke:none"
         d="m 12.7656,12.7617 h 771 v 345.832 h -771 z" /><path
         id="path22"
         style="fill:#ffffff;fill-opacity:1;fill-rule:nonzero;stroke:none"
         d="m 310.527,460.516 h 38.336 v 10.109 h -26.035 v 69.238 h -12.301 v -79.347 0" /><path
         id="path24"
         style="fill:#ffffff;fill-opacity:1;fill-rule:nonzero;stroke:none"
         d="m 346.328,446.09 -0.547,-9.68 v 0 c 1.008,-0.316 2.157,-0.547 3.512,-0.777 1.238,-0.227 2.738,-0.344 4.203,-0.344 4.211,0 7.633,1.121 9.996,3.399 2.391,2.39 4.235,5.82 5.473,10.371 v 0 l 20.707,69.781 h -11.606 l -11.605,-45.824 h -0.234 l -12.383,45.824 h -12.297 l 18.891,-58.988 -1.7,-6.938 v 0 c -0.804,-3.078 -1.726,-5.125 -2.73,-6.25 -1.156,-1.152 -2.625,-1.699 -4.324,-1.699 -1.036,0 -2.043,0.117 -2.852,0.316 -0.894,0.231 -1.699,0.461 -2.504,0.809 v 0" /><path
         id="path26"
         style="fill:#ffffff;fill-opacity:1;fill-rule:nonzero;stroke:none"
         d="m 399.465,462.762 c 1.844,-0.774 4.113,-1.582 6.937,-2.157 2.735,-0.515 5.821,-0.863 9.102,-0.863 6.601,0 11.609,1.551 15.117,4.867 3.426,3.282 5.125,7.485 5.125,12.731 v 0 0 0 c 0,3.508 -1.035,6.363 -2.957,8.523 -2.051,2.16 -4.785,4.317 -8.301,6.25 v 0 l -5.129,2.848 v 0 c -2.586,1.469 -4.55,2.738 -6.015,3.973 -1.465,1.156 -2.156,2.742 -2.156,4.668 0,2.046 0.691,3.746 2.156,5.011 1.465,1.239 3.633,1.817 6.594,1.817 2.39,0 4.667,-0.231 6.601,-0.696 1.922,-0.574 3.738,-1.121 5.352,-1.808 v 0 l 0.547,9.558 v 0 c -1.243,0.43 -2.942,0.895 -5.215,1.473 -2.383,0.457 -5.118,0.688 -8.176,0.688 -2.969,0 -5.586,-0.461 -7.977,-1.383 -2.394,-0.895 -4.433,-2.16 -6.132,-3.629 -1.7,-1.582 -3.083,-3.426 -3.977,-5.356 -0.922,-2.047 -1.379,-4.203 -1.379,-6.367 0,-2.039 0.34,-3.859 0.918,-5.441 0.574,-1.614 1.355,-2.965 2.391,-4.207 1.011,-1.266 2.164,-2.278 3.629,-3.196 1.492,-1.007 3.085,-1.925 4.89,-2.851 v 0 l 6.145,-3.051 v 0 c 2.617,-1.269 4.433,-2.621 5.468,-3.973 0.887,-1.382 1.348,-2.851 1.348,-4.32 0,-2.277 -0.891,-4.008 -2.734,-5.129 -1.809,-1.265 -4.317,-1.816 -7.375,-1.816 -2.852,0 -5.586,0.433 -7.977,1.469 -2.383,0.921 -4.43,1.816 -6.129,2.621 v 0 l -0.691,-10.254 v 0" /><path
         id="path28"
         style="fill:#ffffff;fill-opacity:1;fill-rule:nonzero;stroke:none"
         d="m 449.691,462.762 c 1.848,-0.774 4.114,-1.582 6.946,-2.157 2.734,-0.515 5.808,-0.863 9.09,-0.863 6.601,0 11.613,1.551 15.128,4.867 3.426,3.282 5.125,7.485 5.125,12.731 v 0 0 0 c 0,3.508 -1.042,6.363 -2.968,8.523 -2.039,2.16 -4.785,4.317 -8.289,6.25 v 0 l -5.129,2.848 v 0 c -2.598,1.469 -4.551,2.738 -6.024,3.973 -1.465,1.156 -2.16,2.742 -2.16,4.668 0,2.046 0.695,3.746 2.16,5.011 1.473,1.239 3.633,1.817 6.602,1.817 2.383,0 4.656,-0.231 6.59,-0.696 1.933,-0.574 3.742,-1.121 5.351,-1.808 v 0 l 0.559,9.558 v 0 c -1.242,0.43 -2.942,0.895 -5.215,1.473 -2.394,0.457 -5.129,0.688 -8.184,0.688 -2.968,0 -5.585,-0.461 -7.98,-1.383 -2.391,-0.895 -4.434,-2.16 -6.133,-3.629 -1.699,-1.582 -3.074,-3.426 -3.972,-5.356 -0.918,-2.047 -1.379,-4.203 -1.379,-6.367 0,-2.039 0.343,-3.859 0.918,-5.441 0.578,-1.614 1.359,-2.965 2.394,-4.207 1.004,-1.266 2.156,-2.278 3.621,-3.196 1.504,-1.007 3.086,-1.925 4.903,-2.851 v 0 l 6.132,-3.051 v 0 c 2.618,-1.269 4.434,-2.621 5.469,-3.973 0.899,-1.382 1.359,-2.851 1.359,-4.32 0,-2.277 -0.898,-4.008 -2.734,-5.129 -1.816,-1.265 -4.328,-1.816 -7.375,-1.816 -2.851,0 -5.594,0.433 -7.976,1.469 -2.395,0.921 -4.434,1.816 -6.133,2.621 v 0 l -0.696,-10.254 v 0" /><path
         id="path30"
         style="fill:#ffffff;fill-opacity:1;fill-rule:nonzero;stroke:none"
         d="m 204.055,176.551 h 43.23 v 0 c 7.949,0 15.004,1.156 21.137,3.429 6.133,2.04 11.148,5.235 15.465,9.102 4.32,3.856 7.519,8.633 9.797,14.082 2.043,5.234 3.168,11.141 3.168,17.512 v 0 0 0 c 0,6.16 -0.895,11.371 -2.512,16.156 -1.813,4.547 -4.086,8.406 -6.82,11.602 -2.938,2.937 -6.137,5.445 -9.536,7.289 -3.656,1.812 -7.285,2.933 -10.914,3.629 v 0 0.457 0 c 3.399,1.125 6.594,2.504 9.762,4.55 2.969,1.817 5.703,4.094 8.207,7.028 2.481,2.968 4.32,6.367 5.902,10.484 1.586,3.859 2.278,8.641 2.278,13.852 0,12.757 -3.66,22.523 -10.914,29.351 -7.516,6.824 -19.121,10.223 -35.02,10.223 v 0 h -43.23 v -158.746 0" /><path
         id="path32"
         style="fill:#ffffff;fill-opacity:1;fill-rule:nonzero;stroke:none"
         d="m 342.207,228.188 h 66.586 v 7.949 c 0,10.254 -1.121,18.89 -3.164,26.383 -2.051,7.515 -5.016,13.648 -8.848,18.433 -3.855,4.777 -8.636,8.18 -13.875,10.453 -5.445,2.274 -11.379,3.43 -17.746,3.43 -7.285,0 -13.883,-1.391 -19.555,-4.324 -5.902,-2.969 -10.914,-7.285 -14.769,-12.528 -3.863,-5.445 -7.063,-11.808 -9.102,-19.328 -2.046,-7.484 -3.199,-15.691 -3.199,-24.566 0,-8.406 1.153,-16.356 3.199,-23.641 2.039,-7.285 5.008,-13.418 9.329,-18.633 4.089,-5.246 9.304,-9.336 15.695,-12.296 6.367,-3.172 13.851,-4.551 22.265,-4.551 7.286,0 13.883,0.683 19.551,2.277 5.703,1.582 10.227,3.192 14.086,4.774 v 0 l -1.121,19.785 v 0 c -2.969,-2.039 -6.797,-4.09 -11.348,-6.129 -4.781,-2.043 -10.457,-3.196 -17.281,-3.196 -10.918,0 -18.66,2.958 -23.441,9.102 -4.781,5.898 -7.262,14.766 -7.262,26.606 v 0" /><path
         id="path34"
         style="fill:#ffffff;fill-opacity:1;fill-rule:nonzero;stroke:none"
         d="m 432.152,176.551 h 23.645 v 62.785 c 0,5.902 0.691,10.914 2.039,15.234 1.387,4.321 3.203,7.743 5.48,10.453 2.274,2.504 4.981,4.551 7.95,5.934 2.957,1.125 5.898,1.813 9.324,1.813 1.359,0 2.734,0 3.859,-0.231 1.153,-0.23 2.508,-0.457 3.633,-0.687 v 0 22.746 0 c -0.43,0 -0.898,0 -1.125,0.238 -0.234,0 -0.691,0 -1.121,0 -4.348,0 -8.215,-0.465 -11.613,-1.617 -3.426,-1.125 -6.133,-2.707 -8.633,-4.754 -2.508,-2.043 -4.785,-4.32 -6.602,-6.824 -1.804,-2.504 -3.425,-5.239 -4.55,-8.207 v 0 h -0.458 v 0 c 0,0.921 0,2.273 0,4.121 -0.226,1.808 -0.226,3.855 -0.46,5.902 -0.235,2.047 -0.235,3.856 -0.235,5.676 -0.222,1.808 -0.222,3.191 -0.222,4.086 v 0 h -21.836 v 0 c 0.234,-3.399 0.468,-7.028 0.691,-10.684 0.234,-3.859 0.234,-7.722 0.234,-11.578 v 0 -94.406 0" /><path
         id="path36"
         style="fill:#ffffff;fill-opacity:1;fill-rule:nonzero;stroke:none"
         d="m 505.387,176.551 h 23.652 v 69.148 c 0,9.102 1.805,16.387 5.703,21.602 3.621,5.238 9.063,7.742 16.582,7.742 6.133,0 10.457,-2.039 13.418,-6.133 2.742,-4.113 4.09,-10.711 4.09,-19.785 v 0 -72.574 h 23.645 v 78.019 0 c 0,12.266 -2.707,22.063 -8.176,29.348 -5.438,7.258 -14.11,10.918 -25.918,10.918 -6.824,0 -12.735,-1.617 -17.977,-5.016 -5.234,-3.398 -9.328,-8.179 -12.265,-14.312 v 0 h -0.461 v 0 c 0,0.66 0,2.047 0,3.629 -0.235,1.582 -0.235,3.398 -0.457,5.215 -0.235,1.839 -0.235,3.656 -0.235,5.238 -0.226,1.586 -0.226,2.969 -0.226,3.629 v 0 h -22.293 v 0 c 0.234,-3.399 0.457,-7.028 0.691,-10.684 0.227,-3.859 0.227,-7.722 0.227,-11.578 v 0 -94.406 0" /><path
         id="path38"
         style="fill:#ffffff;fill-opacity:1;fill-rule:nonzero;stroke:none"
         d="m 270.211,41.9922 h 43.312 v 10.1445 h -29.777 l 2.965,3.1641 v 0 c 3.516,3.8867 6.914,7.8633 10.109,11.957 3.082,3.9727 5.785,8.0625 8.18,12.0703 2.387,3.9727 4.203,7.8282 5.586,11.6875 1.352,3.7696 2.047,7.4024 2.047,10.8004 0,2.852 -0.465,5.469 -1.27,7.981 -0.894,2.5 -2.277,4.656 -3.976,6.59 -1.809,1.816 -4.086,3.281 -6.707,4.433 -2.735,1.008 -5.907,1.582 -9.532,1.582 -3.773,0 -7.293,-0.461 -10.371,-1.23 -3.164,-0.926 -6.132,-2.082 -8.757,-3.426 v 0 l 1.273,-11.613 v 0 c 1.809,1.504 4.086,2.969 6.707,4.207 2.594,1.269 5.559,1.957 8.871,1.957 3.512,0 6.363,-1.156 8.293,-3.539 1.934,-2.391 2.969,-5.332 2.969,-9.1017 0,-2.625 -0.578,-5.4454 -1.731,-8.5235 -1.238,-3.0547 -2.82,-6.3672 -4.98,-9.6484 -2.16,-3.4297 -4.668,-6.9414 -7.52,-10.7149 -2.964,-3.75 -6.132,-7.6054 -9.675,-11.582 v 0 l -6.016,-6.9414 v -10.2539 0" /><path
         id="path40"
         style="fill:#ffffff;fill-opacity:1;fill-rule:nonzero;stroke:none"
         d="m 335.5,41.9922 h 12.035 v 79.3748 h -10.566 l -17.742,-16.121 5.906,-8.5272 10.367,10.5662 v -65.2928 0" /><path
         id="path42"
         style="fill:#ffffff;fill-opacity:1;fill-rule:nonzero;stroke:none"
         d="M 397.188,41.9922 H 409 v 28.8867 h 0.223 L 428.668,41.9922 H 442.75 L 419.105,74.082 440.707,100.34 H 427.633 L 409,76.6992 v 50.6058 h -11.812 v -85.3128 0" /><path
         id="path44"
         style="fill:#ffffff;fill-opacity:1;fill-rule:nonzero;stroke:none"
         d="m 454.008,41.9922 h 11.836 V 77.707 c 0,4.3243 0.898,7.6328 2.597,10.0274 1.731,2.3828 4.317,3.5039 7.629,3.5039 5.45,0 8.184,-3.6211 8.184,-10.7891 v 0 -38.457 h 11.836 v 35.7148 0 c 0,4.3243 0.887,7.6328 2.617,10.0274 1.699,2.3828 4.324,3.5039 7.606,3.5039 5.468,0 8.175,-3.6211 8.175,-10.7891 v 0 -38.457 h 11.836 v 38.2226 0 c 0,6.8282 -1.347,12.0704 -4.082,15.5782 -2.851,3.5117 -7.062,5.359 -12.734,5.359 -3.77,0 -6.828,-0.918 -9.219,-2.734 -2.383,-1.9336 -4.199,-4.0899 -5.703,-6.4844 -0.547,1.1211 -1.231,2.2773 -2.043,3.3984 -0.781,1.0352 -1.816,2.0508 -2.938,2.9688 -1.152,0.8086 -2.5,1.4648 -3.976,2.0392 -1.492,0.578 -3.309,0.812 -5.234,0.812 -3.633,0 -6.602,-0.918 -8.993,-2.734 -2.382,-1.9336 -4.316,-4.2071 -5.558,-7.0625 v 0 h -0.223 v 0 c 0,0.3554 0,1.0351 0,1.9375 -0.117,0.7968 -0.117,1.6953 -0.117,2.6133 -0.117,0.9296 -0.117,1.8164 -0.117,2.6289 -0.117,0.7695 -0.117,1.4648 -0.117,1.8048 v 0 h -11.719 v 0 c 0.117,-1.5822 0.234,-3.3087 0.34,-5.1252 0.117,-1.8085 0.117,-3.7421 0.117,-5.8984 v 0 -47.3242 0" /><path
         id="path46"
         style="fill:#1a67bb;fill-opacity:1;fill-rule:nonzero;stroke:none"
         d="m 228.16,267.758 v 48.672 h 14.805 v 0 c 8.871,0 15.465,-2.047 19.785,-6.364 4.32,-4.32 6.367,-10.023 6.367,-16.847 v 0 0 0 c 0,-7.489 -2.277,-13.625 -6.828,-18.406 -4.777,-4.778 -11.605,-7.055 -20.707,-7.055 v 0 H 228.16 v 0" /><path
         id="path48"
         style="fill:#1a67bb;fill-opacity:1;fill-rule:nonzero;stroke:none"
         d="m 228.16,195.906 v 52.989 h 17.309 v 0 c 4.75,0 8.64,-0.692 12.043,-2.043 3.398,-1.383 6.133,-3.2 8.406,-5.704 2.047,-2.507 3.656,-5.21 4.781,-8.41 1.153,-3.195 1.582,-6.597 1.582,-10.453 v 0 0 0 c 0,-7.519 -2.277,-13.887 -6.82,-18.898 -4.551,-4.981 -11.352,-7.481 -20.68,-7.481 v 0 H 228.16 v 0" /><path
         id="path50"
         style="fill:#1a67bb;fill-opacity:1;fill-rule:nonzero;stroke:none"
         d="m 342.207,244.344 c 0.207,10.683 2.273,19.097 6.137,25 3.859,5.699 9.332,8.64 16.129,8.64 14.113,0 21.168,-11.148 21.168,-33.64 v 0 h -43.434 v 0" /></g></g></svg>