<?xml version="1.0" encoding="UTF-8" standalone="no"?>
<svg
   xmlns:dc="http://purl.org/dc/elements/1.1/"
   xmlns:cc="http://creativecommons.org/ns#"
   xmlns:rdf="http://www.w3.org/1999/02/22-rdf-syntax-ns#"
   xmlns:svg="http://www.w3.org/2000/svg"
   xmlns="http://www.w3.org/2000/svg"
   viewBox="0 0 107.16 76.919998"
   height="76.919998"
   width="107.16"
   xml:space="preserve"
   id="svg2"
   version="1.1"><metadata
     id="metadata8"><rdf:RDF><cc:Work
         rdf:about=""><dc:format>image/svg+xml</dc:format><dc:type
           rdf:resource="http://purl.org/dc/dcmitype/StillImage" /></cc:Work></rdf:RDF></metadata><defs
     id="defs6" /><g
     transform="matrix(1.3333333,0,0,-1.3333333,0,76.92)"
     id="g10"><g
       transform="scale(0.1)"
       id="g12"><path
         id="path14"
         style="fill:#231f20;fill-opacity:1;fill-rule:nonzero;stroke:none"
         d="M 5,5 H 798.695 V 571.93 H 5 Z" /><path
         id="path16"
         style="fill:none;stroke:#ffffff;stroke-width:10;stroke-linecap:butt;stroke-linejoin:miter;stroke-miterlimit:4;stroke-dasharray:none;stroke-opacity:1"
         d="M 5,5 H 798.695 V 571.93 H 5 V 5" /><path
         id="path18"
         style="fill:#ffffff;fill-opacity:1;fill-rule:nonzero;stroke:none"
         d="m 16.3477,16.3164 h 771.039 v 544.266 H 16.3477 Z" /><path
         id="path20"
         style="fill:#231f20;fill-opacity:1;fill-rule:nonzero;stroke:none"
         d="m 107.789,202.598 h 28.426 v 168.281 h 0.578 L 187.68,202.598 h 21.89 l 53.164,168.281 h 0.547 V 202.598 h 28.422 V 401 H 246.52 L 200.18,248.07 h -0.575 L 154.418,401 h -46.629 v -198.402 0" /><path
         id="path22"
         style="fill:#231f20;fill-opacity:1;fill-rule:nonzero;stroke:none"
         d="m 411.137,202.598 h 26.73 v 0 c -0.293,2.539 -0.871,6.25 -1.152,10.515 -0.266,4.262 -0.547,8.813 -0.547,13.645 v 0 69.644 0 c 0,9.649 -0.871,17.621 -2.852,23.871 -1.984,6.25 -5.128,11.375 -8.808,15.641 -3.145,3.684 -8.242,7.113 -15.07,10.223 -6.821,2.851 -15.606,4.261 -26.692,4.261 -9.391,0 -17.629,-1.121 -24.742,-3.394 -7.113,-2.277 -13.652,-4.84 -19.039,-7.981 v 0 l 2.273,-25.289 v 0 c 3.688,3.688 9.106,7.114 16.188,10.227 6.828,2.852 14.23,4.262 22.469,4.262 10.511,0 17.914,-2.825 22.433,-8.528 2.274,-2.82 3.973,-5.961 4.836,-9.359 0.84,-3.711 1.121,-7.684 1.121,-12.234 v 0 -5.965 h -10.476 v 0 c -23.59,0 -41.793,-3.973 -54.004,-11.664 -12.239,-7.95 -18.489,-20.477 -18.489,-37.524 0,-6.824 1.153,-12.793 3.43,-18.203 2.246,-5.391 5.387,-9.648 9.356,-13.359 3.714,-3.692 8.265,-6.25 13.363,-7.949 5.129,-1.965 10.512,-2.825 16.504,-2.825 10.801,0 19.328,2.246 25.863,6.801 6.246,4.258 11.344,9.383 15.031,15.055 v 0 h 0.575 v 0 c 0,-0.836 0,-2.274 0.292,-4.254 0,-1.996 0,-3.977 0.286,-5.969 0.261,-1.984 0.261,-3.976 0.547,-5.676 0.292,-1.98 0.292,-3.132 0.574,-3.972 v 0" /><path
         id="path24"
         style="fill:#231f20;fill-opacity:1;fill-rule:nonzero;stroke:none"
         d="M 556.148,202.598 H 584 v 0 c -0.293,4.265 -0.578,8.789 -0.871,13.621 -0.254,4.551 -0.254,9.386 -0.254,14.23 v 0 117.965 h -29.578 v -85.566 0 c 0,-11.379 -2.277,-20.473 -6.535,-27.274 -4.266,-6.824 -11.375,-10.254 -20.77,-10.254 -7.656,0 -13.078,2.563 -16.758,7.692 -3.691,5.097 -5.675,13.359 -5.675,24.707 v 0 90.695 H 473.98 v -97.492 0 c 0,-15.348 3.426,-27.59 10.223,-36.684 6.828,-9.101 17.629,-13.625 32.434,-13.625 9.929,0 17.91,2.246 23.875,7.082 5.676,4.551 10.226,10.254 13.906,17.051 v 0 h 0.578 l 1.152,-22.148 v 0" /><path
         id="path26"
         style="fill:#231f20;fill-opacity:1;fill-rule:nonzero;stroke:none"
         d="m 625.992,202.598 h 29.539 v 78.453 c 0,7.371 0.871,13.652 2.571,19.039 1.699,5.414 3.972,9.672 6.824,13.07 2.851,3.141 6.25,5.703 9.933,7.403 3.719,1.41 7.403,2.273 11.668,2.273 1.7,0 3.399,0 4.836,-0.285 1.414,-0.289 3.114,-0.578 4.551,-0.867 v 0 28.429 0 c -0.578,0 -1.152,0 -1.437,0.285 -0.262,0 -0.84,0 -1.414,0 -5.383,0 -10.227,-0.546 -14.485,-1.984 -4.265,-1.41 -7.695,-3.398 -10.801,-5.965 -3.144,-2.562 -5.996,-5.414 -8.269,-8.523 -2.278,-3.141 -4.258,-6.539 -5.676,-10.254 v 0 h -0.574 v 0 c 0,1.152 0,2.851 0,5.129 -0.285,2.273 -0.285,4.836 -0.578,7.398 -0.254,2.567 -0.254,4.84 -0.254,7.117 -0.293,2.247 -0.293,3.973 -0.293,5.098 v 0 H 624.84 v 0 c 0.281,-4.266 0.574,-8.816 0.859,-13.363 0.293,-4.84 0.293,-9.653 0.293,-14.488 v 0 -117.965 0" /><path
         id="path28"
         style="fill:#ffffff;fill-opacity:1;fill-rule:nonzero;stroke:none"
         d="m 408.285,273.934 v -13.075 c 0,-11.664 -2.558,-21.019 -7.633,-28.136 -5.406,-7.403 -13.07,-11.09 -23.582,-11.09 -7.691,0 -13.363,2.273 -17.367,6.543 -3.976,4.262 -5.965,10.222 -5.965,17.336 0,9.672 3.688,16.758 11.379,21.597 7.66,4.84 18.75,7.114 33.266,7.114 1.695,0 3.394,0 5.355,0 1.989,0 3.719,0 4.547,-0.289 v 0" /></g></g></svg>