<?xml version="1.0" encoding="UTF-8" standalone="no"?>
<svg
   xmlns:dc="http://purl.org/dc/elements/1.1/"
   xmlns:cc="http://creativecommons.org/ns#"
   xmlns:rdf="http://www.w3.org/1999/02/22-rdf-syntax-ns#"
   xmlns:svg="http://www.w3.org/2000/svg"
   xmlns="http://www.w3.org/2000/svg"
   viewBox="0 0 105.82667 75.58667"
   height="75.58667"
   width="105.82667"
   xml:space="preserve"
   id="svg2"
   version="1.1"><metadata
     id="metadata8"><rdf:RDF><cc:Work
         rdf:about=""><dc:format>image/svg+xml</dc:format><dc:type
           rdf:resource="http://purl.org/dc/dcmitype/StillImage" /></cc:Work></rdf:RDF></metadata><defs
     id="defs6" /><g
     transform="matrix(1.3333333,0,0,-1.3333333,0,75.586667)"
     id="g10"><g
       transform="scale(0.1)"
       id="g12"><path
         id="path14"
         style="fill:#231f20;fill-opacity:1;fill-rule:nonzero;stroke:none"
         d="M 0,0 H 793.695 V 566.93 H 0 Z" /><path
         id="path16"
         style="fill:#ffffff;fill-opacity:1;fill-rule:nonzero;stroke:none"
         d="m 11.3477,425.207 h 771 v 130.395 h -771 z" /><path
         id="path18"
         style="fill:#ffffff;fill-opacity:1;fill-rule:nonzero;stroke:none"
         d="m 11.3477,11.3477 h 771 v 345.828 h -771 z" /><path
         id="path20"
         style="fill:#231f20;fill-opacity:1;fill-rule:nonzero;stroke:none"
         d="m 111.777,459.102 h 11.371 v 67.304 h 0.231 l 20.336,-67.304 h 8.758 l 21.281,67.304 h 0.23 v -67.304 h 11.375 v 79.343 H 167.27 l -18.543,-61.172 h -0.231 l -18.086,61.172 h -18.633 v -79.343 0" /><path
         id="path22"
         style="fill:#231f20;fill-opacity:1;fill-rule:nonzero;stroke:none"
         d="m 207.711,528.336 h 10.019 v 11.953 h -10.019 v -11.953 0" /><path
         id="path24"
         style="fill:#231f20;fill-opacity:1;fill-rule:nonzero;stroke:none"
         d="m 226.371,528.336 h 9.992 v 11.953 h -9.992 v -11.953 0" /><path
         id="path26"
         style="fill:#231f20;fill-opacity:1;fill-rule:nonzero;stroke:none"
         d="m 204.543,465.352 c 2.156,-2.387 4.777,-4.204 7.832,-5.356 2.969,-1.094 6.133,-1.672 9.559,-1.672 3.398,0 6.597,0.578 9.648,1.672 2.969,1.152 5.586,2.969 7.75,5.356 2.156,2.394 3.973,5.445 5.238,9.191 1.243,3.766 1.93,8.434 1.93,13.762 v 0 0 0 c 0,5.242 -0.687,9.789 -1.93,13.535 -1.265,3.746 -3.082,6.945 -5.238,9.332 -2.164,2.391 -4.781,4.203 -7.75,5.328 -3.051,1.152 -6.25,1.727 -9.648,1.727 -3.426,0 -6.59,-0.575 -9.559,-1.727 -3.055,-1.125 -5.676,-2.937 -7.832,-5.328 -2.164,-2.387 -3.977,-5.586 -5.246,-9.332 -1.234,-3.746 -1.93,-8.293 -1.93,-13.535 0,-5.328 0.696,-9.996 1.93,-13.762 1.269,-3.746 3.082,-6.797 5.246,-9.191 v 0" /><path
         id="path28"
         style="fill:#231f20;fill-opacity:1;fill-rule:nonzero;stroke:none"
         d="m 260.094,459.102 h 11.808 v 34.562 c 0,4.551 0.918,8.176 2.856,10.801 1.808,2.621 4.551,3.855 8.289,3.855 3.082,0 5.246,-1.007 6.715,-3.05 1.383,-2.079 2.039,-5.356 2.039,-9.911 v 0 -36.257 h 11.844 v 38.992 0 c 0,6.14 -1.36,11.031 -4.094,14.664 -2.735,3.629 -7.055,5.469 -12.957,5.469 -3.43,0 -6.367,-0.805 -8.989,-2.504 -2.621,-1.7 -4.667,-4.086 -6.136,-7.172 v 0 h -0.231 v 0 c 0,0.344 0,1.039 0,1.816 -0.113,0.805 -0.113,1.699 -0.226,2.621 -0.117,0.922 -0.117,1.813 -0.117,2.621 -0.114,0.778 -0.114,1.465 -0.114,1.813 v 0 h -11.148 v 0 c 0.117,-1.699 0.23,-3.512 0.347,-5.356 0.114,-1.929 0.114,-3.859 0.114,-5.793 v 0 -47.171 0" /><path
         id="path30"
         style="fill:#231f20;fill-opacity:1;fill-rule:nonzero;stroke:none"
         d="m 356.23,460.688 -0.691,9.992 v 0 c -1.238,-0.778 -2.937,-1.469 -4.894,-2.047 -1.934,-0.57 -3.973,-0.887 -5.911,-0.887 -5.125,0 -8.98,1.809 -11.714,5.438 -2.825,3.632 -4.207,8.527 -4.207,14.664 0,7.168 1.382,12.41 4.117,15.808 2.711,3.43 6.597,5.129 11.578,5.129 2.164,0 4.09,-0.234 5.82,-0.812 1.699,-0.547 3.164,-1.121 4.66,-1.926 v 0 l 0.551,9.906 v 0 c -1.473,0.547 -3.172,1.121 -5.328,1.586 -2.16,0.461 -4.32,0.688 -6.481,0.688 -4.433,0 -8.437,-0.688 -11.835,-2.157 -3.399,-1.5 -6.25,-3.656 -8.524,-6.281 -2.277,-2.703 -3.976,-5.902 -5.129,-9.648 -1.121,-3.746 -1.699,-7.743 -1.699,-12.18 0,-4.09 0.578,-7.953 1.582,-11.578 1.039,-3.66 2.738,-6.828 4.898,-9.449 2.157,-2.618 4.899,-4.782 8.293,-6.246 3.313,-1.586 7.286,-2.364 11.836,-2.364 2.508,0 4.899,0.231 7.286,0.688 2.367,0.523 4.324,1.101 5.792,1.676 v 0" /><path
         id="path32"
         style="fill:#231f20;fill-opacity:1;fill-rule:nonzero;stroke:none"
         d="m 367.461,459.102 h 11.836 v 34.562 c 0,4.551 0.894,8.176 2.824,10.801 1.817,2.621 4.551,3.855 8.324,3.855 3.051,0 5.207,-1.007 6.649,-3.05 1.383,-2.079 2.078,-5.356 2.078,-9.911 v 0 -36.257 h 11.808 v 38.992 0 c 0,6.14 -1.355,11.031 -4.089,14.664 -2.735,3.629 -7.055,5.469 -12.934,5.469 -3.859,0 -6.941,-0.918 -9.098,-2.618 -2.277,-1.816 -4.093,-3.746 -5.355,-5.937 v 0 h -0.207 v 34.707 h -11.836 v -85.277 0" /><path
         id="path34"
         style="fill:#231f20;fill-opacity:1;fill-rule:nonzero;stroke:none"
         d="m 459.078,459.102 h 10.711 v 0 c -0.117,1.011 -0.351,2.476 -0.457,4.203 -0.117,1.699 -0.234,3.515 -0.234,5.445 v 0 27.852 0 c 0,3.886 -0.344,7.054 -1.153,9.562 -0.781,2.504 -2.043,4.551 -3.515,6.25 -1.242,1.496 -3.313,2.848 -6.016,4.086 -2.734,1.152 -6.25,1.727 -10.684,1.727 -3.781,0 -7.062,-0.457 -9.914,-1.383 -2.851,-0.891 -5.437,-1.926 -7.625,-3.168 v 0 l 0.918,-10.137 v 0 c 1.465,1.5 3.633,2.852 6.485,4.094 2.734,1.152 5.703,1.726 8.984,1.726 4.199,0 7.168,-1.152 8.985,-3.425 0.917,-1.125 1.582,-2.395 1.921,-3.746 0.352,-1.469 0.469,-3.083 0.469,-4.899 v 0 -2.387 h -4.207 v 0 c -9.445,0 -16.73,-1.586 -21.601,-4.668 -4.895,-3.168 -7.403,-8.179 -7.403,-15.004 0,-2.734 0.457,-5.128 1.356,-7.285 0.918,-2.16 2.16,-3.859 3.769,-5.328 1.477,-1.469 3.281,-2.504 5.332,-3.199 2.043,-0.746 4.199,-1.094 6.594,-1.094 4.324,0 7.754,0.864 10.371,2.707 2.469,1.699 4.52,3.742 6.016,6.02 v 0 h 0.234 v 0 c 0,-0.348 0,-0.922 0.117,-1.699 0,-0.805 0,-1.614 0.106,-2.387 0.117,-0.813 0.117,-1.617 0.207,-2.277 0.117,-0.809 0.117,-1.27 0.234,-1.586 v 0" /><path
         id="path36"
         style="fill:#231f20;fill-opacity:1;fill-rule:nonzero;stroke:none"
         d="m 485.426,459.102 h 11.836 v 85.277 h -11.836 v -85.277 0" /><path
         id="path38"
         style="fill:#231f20;fill-opacity:1;fill-rule:nonzero;stroke:none"
         d="m 540.004,459.996 v 8.871 c -0.809,-0.347 -1.582,-0.691 -2.508,-0.922 -0.891,-0.316 -1.926,-0.437 -3.164,-0.437 -2.16,0 -3.664,0.668 -4.668,1.933 -1.035,1.239 -1.496,3.399 -1.496,6.594 v 0 32.285 h 11.836 v 9.102 h -11.836 v 15.465 l -11.816,-3.512 v -11.953 h -9.325 v -9.102 h 9.325 v -34.672 0 c 0,-5.585 1.242,-9.562 3.867,-11.835 2.617,-2.395 6.25,-3.489 11.027,-3.489 1.699,0 3.399,0.114 4.902,0.461 1.465,0.403 2.821,0.75 3.856,1.211 v 0" /><path
         id="path40"
         style="fill:#231f20;fill-opacity:1;fill-rule:nonzero;stroke:none"
         d="m 556.48,465.352 c 2.157,-2.387 4.774,-4.204 7.833,-5.356 2.968,-1.094 6.132,-1.672 9.558,-1.672 3.399,0 6.594,0.578 9.649,1.672 2.968,1.152 5.585,2.969 7.746,5.356 2.156,2.394 3.972,5.445 5.242,9.191 1.242,3.766 1.926,8.434 1.926,13.762 v 0 0 0 c 0,5.242 -0.684,9.789 -1.926,13.535 -1.27,3.746 -3.086,6.945 -5.242,9.332 -2.161,2.391 -4.778,4.203 -7.746,5.328 -3.055,1.152 -6.25,1.727 -9.649,1.727 -3.426,0 -6.59,-0.575 -9.558,-1.727 -3.059,-1.125 -5.676,-2.937 -7.833,-5.328 -2.167,-2.387 -3.976,-5.586 -5.246,-9.332 -1.238,-3.746 -1.933,-8.293 -1.933,-13.535 0,-5.328 0.695,-9.996 1.933,-13.762 1.27,-3.746 3.079,-6.797 5.246,-9.191 v 0" /><path
         id="path42"
         style="fill:#231f20;fill-opacity:1;fill-rule:nonzero;stroke:none"
         d="m 611.566,459.102 h 11.809 v 31.363 c 0,2.969 0.352,5.473 1.043,7.629 0.684,2.164 1.582,3.863 2.734,5.215 1.125,1.265 2.5,2.277 3.977,2.964 1.465,0.579 2.957,0.922 4.656,0.922 0.664,0 1.36,0 1.934,-0.109 0.578,-0.117 1.242,-0.234 1.816,-0.348 v 0 11.375 0 c -0.234,0 -0.457,0 -0.574,0.114 -0.117,0 -0.352,0 -0.547,0 -2.16,0 -4.121,-0.227 -5.82,-0.805 -1.699,-0.578 -3.047,-1.352 -4.317,-2.387 -1.242,-1.012 -2.394,-2.164 -3.281,-3.398 -0.93,-1.27 -1.73,-2.625 -2.277,-4.121 v 0 h -0.235 v 0 c 0,0.457 0,1.152 0,2.074 -0.117,0.894 -0.117,1.93 -0.234,2.933 -0.105,1.04 -0.105,1.934 -0.105,2.852 -0.118,0.895 -0.118,1.59 -0.118,2.047 v 0 h -10.918 v 0 c 0.118,-1.699 0.235,-3.512 0.34,-5.356 0.117,-1.929 0.117,-3.859 0.117,-5.793 v 0 -47.171 0" /><path
         id="path44"
         style="fill:#231f20;fill-opacity:1;fill-rule:nonzero;stroke:none"
         d="m 657.797,459.102 h 11.808 v 49.218 h 10.567 v 9.102 h -10.567 v 11.148 0 c 0,2.618 0.575,4.551 1.61,5.903 1.008,1.382 2.824,2.047 5.215,2.047 0.683,0 1.582,-0.118 2.617,-0.348 1.008,-0.199 2.043,-0.434 2.851,-0.777 v 0 9.097 0 c -1.269,0.348 -2.734,0.664 -4.433,0.895 -1.727,0.226 -3.086,0.343 -4.09,0.343 -2.852,0 -5.352,-0.457 -7.285,-1.238 -1.934,-0.804 -3.547,-1.929 -4.785,-3.422 -1.231,-1.472 -2.16,-3.058 -2.735,-5.015 -0.547,-1.93 -0.773,-4.086 -0.773,-6.25 v 0 -12.383 h -9.57 v -9.102 h 9.57 v -49.218 0" /><path
         id="path46"
         style="fill:#231f20;fill-opacity:1;fill-rule:nonzero;stroke:none"
         d="m 230.977,175.137 h 24.57 v 70.07 h 7.746 v 0 c 6.594,0 11.574,-1.156 15.23,-3.66 3.403,-2.504 6.372,-7.027 8.415,-13.621 v 0 l 17.046,-52.789 h 26.153 l -21.371,62.09 v 0 c -2.043,5.933 -4.547,10.023 -7.286,12.531 -2.933,2.273 -6.363,3.855 -10.226,4.547 v 0 0.429 0 c 10.457,2.047 18.203,6.368 23.418,13.196 5.242,6.82 7.746,15.004 7.746,24.566 0,7.285 -1.152,13.418 -3.43,18.66 -2.273,5.211 -5.437,9.532 -9.531,12.961 -4.113,3.399 -8.871,5.903 -14.57,7.488 -5.672,1.614 -12.039,2.278 -18.867,2.278 v 0 h -45.043 v -158.746 0" /><path
         id="path48"
         style="fill:#231f20;fill-opacity:1;fill-rule:nonzero;stroke:none"
         d="m 362.305,313.664 h 20.019 v 23.875 h -20.019 v -23.875 0" /><path
         id="path50"
         style="fill:#231f20;fill-opacity:1;fill-rule:nonzero;stroke:none"
         d="m 399.602,313.664 h 19.984 v 23.875 h -19.984 v -23.875 0" /><path
         id="path52"
         style="fill:#231f20;fill-opacity:1;fill-rule:nonzero;stroke:none"
         d="m 412.992,175.137 h 22.297 v 0 c -0.234,3.426 -0.461,7.051 -0.664,10.937 -0.234,3.633 -0.234,7.489 -0.234,11.348 v 0 94.379 h -23.672 v -68.422 0 c 0,-9.102 -1.817,-16.399 -5.215,-21.836 -3.43,-5.469 -9.066,-8.203 -16.586,-8.203 -6.137,0 -10.457,2.043 -13.418,6.133 -2.941,4.113 -4.523,10.711 -4.523,19.785 v 0 72.543 h -23.676 v -77.992 0 c 0,-12.266 2.738,-22.059 8.207,-29.344 5.445,-7.258 14.086,-10.91 25.922,-10.91 7.949,0 14.312,1.804 19.062,5.695 4.551,3.633 8.184,8.18 11.145,13.621 v 0 h 0.468 l 0.887,-17.734 v 0" /><path
         id="path54"
         style="fill:#231f20;fill-opacity:1;fill-rule:nonzero;stroke:none"
         d="m 516.305,176.98 v 17.735 c -1.594,-0.692 -3.176,-1.375 -4.992,-1.844 -1.836,-0.656 -3.887,-0.891 -6.387,-0.891 -4.324,0 -7.266,1.36 -9.305,3.86 -2.043,2.508 -2.969,6.828 -2.969,13.191 v 0 64.598 h 23.653 v 18.172 h -23.653 v 30.933 l -23.644,-7.027 v -23.906 h -18.66 v -18.172 h 18.66 v -69.379 0 c 0,-11.145 2.512,-19.094 7.715,-23.645 5.246,-4.773 12.531,-7.05 22.07,-7.05 3.418,0 6.816,0.222 9.785,0.918 2.942,0.886 5.676,1.582 7.727,2.507 v 0" /><path
         id="path56"
         style="fill:#231f20;fill-opacity:1;fill-rule:nonzero;stroke:none"
         d="m 538.395,175.137 h 23.64 v 116.664 h -23.64 v -116.664 0" /><path
         id="path58"
         style="fill:#231f20;fill-opacity:1;fill-rule:nonzero;stroke:none"
         d="m 537.699,315.246 h 25.031 v 25.227 h -25.031 v -25.227 0" /><path
         id="path60"
         style="fill:#231f20;fill-opacity:1;fill-rule:nonzero;stroke:none"
         d="m 282.707,40.5742 h 12.035 v 79.3748 h -10.57 l -17.742,-16.121 5.906,-8.5272 10.371,10.5702 v -65.2968 0" /><path
         id="path62"
         style="fill:#231f20;fill-opacity:1;fill-rule:nonzero;stroke:none"
         d="M 302.027,57.8906 H 332.73 V 40.5742 h 11.375 v 17.3164 h 8.754 v 9.4141 h -8.754 V 119.949 H 329.988 L 302.027,69.2383 v -11.3477 0" /><path
         id="path64"
         style="fill:#231f20;fill-opacity:1;fill-rule:nonzero;stroke:none"
         d="m 398.105,40.5742 h 11.833 v 28.8906 h 0.234 l 19.441,-28.8906 h 14.082 l -23.64,32.0938 21.59,26.2578 h -13.067 l -18.64,-23.6445 v 50.6057 h -11.833 v -85.3128 0" /><path
         id="path66"
         style="fill:#231f20;fill-opacity:1;fill-rule:nonzero;stroke:none"
         d="m 454.957,40.5742 h 11.836 v 35.7149 c 0,4.3242 0.887,7.6367 2.586,10.0273 1.73,2.3828 4.328,3.5078 7.637,3.5078 5.441,0 8.183,-3.625 8.183,-10.7929 v 0 -38.4571 h 11.836 v 35.7149 0 c 0,4.3242 0.891,7.6367 2.617,10.0273 1.7,2.3828 4.317,3.5078 7.61,3.5078 5.468,0 8.172,-3.625 8.172,-10.7929 v 0 -38.4571 h 11.836 v 38.2266 0 c 0,6.8242 -1.348,12.0703 -4.09,15.5742 -2.852,3.5156 -7.051,5.3594 -12.727,5.3594 -3.769,0 -6.824,-0.918 -9.219,-2.7305 -2.39,-1.9375 -4.199,-4.0937 -5.671,-6.4883 -0.579,1.125 -1.27,2.2774 -2.071,3.4024 -0.781,1.0312 -1.816,2.0468 -2.941,2.9648 -1.153,0.8125 -2.5,1.4649 -3.973,2.043 -1.496,0.5781 -3.312,0.8086 -5.246,0.8086 -3.621,0 -6.59,-0.918 -8.984,-2.7305 -2.391,-1.9375 -4.317,-4.2109 -5.555,-7.0625 v 0 h -0.234 v 0 c 0,0.3516 0,1.0352 0,1.9336 -0.11,0.8008 -0.11,1.6992 -0.11,2.6172 -0.117,0.9297 -0.117,1.8164 -0.117,2.6289 -0.117,0.7695 -0.117,1.4648 -0.117,1.8047 v 0 h -11.719 v 0 c 0.117,-1.582 0.227,-3.3125 0.344,-5.125 0.117,-1.8086 0.117,-3.7422 0.117,-5.9024 v 0 -47.3242 0" /><path
         id="path68"
         style="fill:#ffffff;fill-opacity:1;fill-rule:nonzero;stroke:none"
         d="m 212.375,473.184 c -1.008,1.933 -1.699,4.089 -2.047,6.714 -0.461,2.618 -0.687,5.356 -0.687,8.407 0,3.082 0.226,5.816 0.687,8.41 0.348,2.621 1.039,4.781 2.047,6.711 1.031,1.844 2.273,3.312 3.855,4.32 1.5,1.039 3.426,1.613 5.704,1.613 2.277,0 4.203,-0.574 5.793,-1.613 1.468,-1.008 2.734,-2.476 3.742,-4.32 1.035,-1.93 1.722,-4.09 2.16,-6.711 0.348,-2.594 0.574,-5.328 0.574,-8.41 v 0 0 0 c 0,-3.051 -0.226,-5.789 -0.574,-8.407 -0.438,-2.625 -1.125,-4.781 -2.16,-6.714 -1.008,-1.93 -2.274,-3.399 -3.742,-4.434 -1.59,-1.004 -3.516,-1.582 -5.793,-1.582 -2.278,0 -4.204,0.578 -5.704,1.582 -1.582,1.035 -2.824,2.504 -3.855,4.434 v 0" /><path
         id="path70"
         style="fill:#ffffff;fill-opacity:1;fill-rule:nonzero;stroke:none"
         d="m 457.953,487.641 v -5.239 c 0,-4.668 -1.035,-8.406 -3.086,-11.261 -2.156,-2.965 -5.215,-4.438 -9.414,-4.438 -3.086,0 -5.359,0.926 -6.941,2.621 -1.614,1.699 -2.395,4.094 -2.395,6.942 0,3.863 1.477,6.711 4.551,8.64 3.059,1.93 7.492,2.824 13.312,2.824 0.653,0 1.348,0 2.157,0 0.781,0 1.465,0 1.816,-0.089 v 0" /><path
         id="path72"
         style="fill:#ffffff;fill-opacity:1;fill-rule:nonzero;stroke:none"
         d="m 564.313,473.184 c -1.008,1.933 -1.7,4.089 -2.051,6.714 -0.461,2.618 -0.684,5.356 -0.684,8.407 0,3.082 0.223,5.816 0.684,8.41 0.351,2.621 1.043,4.781 2.051,6.711 1.035,1.844 2.273,3.312 3.855,4.32 1.496,1.039 3.43,1.613 5.703,1.613 2.277,0 4.199,-0.574 5.793,-1.613 1.465,-1.008 2.734,-2.476 3.738,-4.32 1.036,-1.93 1.731,-4.09 2.161,-6.711 0.351,-2.594 0.574,-5.328 0.574,-8.41 v 0 0 0 c 0,-3.051 -0.223,-5.789 -0.574,-8.407 -0.43,-2.625 -1.125,-4.781 -2.161,-6.714 -1.004,-1.93 -2.273,-3.399 -3.738,-4.434 -1.594,-1.004 -3.516,-1.582 -5.793,-1.582 -2.273,0 -4.207,0.578 -5.703,1.582 -1.582,1.035 -2.82,2.504 -3.855,4.434 v 0" /><path
         id="path74"
         style="fill:#ffffff;fill-opacity:1;fill-rule:nonzero;stroke:none"
         d="m 255.547,264.066 v 50.489 h 13.879 v 0 c 8.41,0 15.238,-1.817 20.246,-5.446 4.754,-3.656 7.258,-10.023 7.258,-18.89 v 0 0 0 c 0,-7.489 -2.278,-13.879 -6.828,-18.633 -4.75,-5.016 -11.579,-7.52 -20.907,-7.52 v 0 h -13.648 v 0" /><path
         id="path76"
         style="fill:#ffffff;fill-opacity:1;fill-rule:nonzero;stroke:none"
         d="M 311.477,67.3047 332.5,107.684 h 0.23 V 67.3047 h -21.253 v 0" /></g></g></svg>