<?xml version="1.0" encoding="UTF-8" standalone="no"?>
<svg
   xmlns:dc="http://purl.org/dc/elements/1.1/"
   xmlns:cc="http://creativecommons.org/ns#"
   xmlns:rdf="http://www.w3.org/1999/02/22-rdf-syntax-ns#"
   xmlns:svg="http://www.w3.org/2000/svg"
   xmlns="http://www.w3.org/2000/svg"
   viewBox="0 0 192.75999 47.240002"
   height="47.240002"
   width="192.75999"
   xml:space="preserve"
   id="svg2"
   version="1.1"><metadata
     id="metadata8"><rdf:RDF><cc:Work
         rdf:about=""><dc:format>image/svg+xml</dc:format><dc:type
           rdf:resource="http://purl.org/dc/dcmitype/StillImage" /></cc:Work></rdf:RDF></metadata><defs
     id="defs6" /><g
     transform="matrix(1.3333333,0,0,-1.3333333,0,47.24)"
     id="g10"><g
       transform="scale(0.1)"
       id="g12"><path
         id="path14"
         style="fill:#231f20;fill-opacity:1;fill-rule:nonzero;stroke:none"
         d="m 0,0 h 1133.86 l 311.8,177.082 -311.8,177.262 H 0 V 0 0" /><path
         id="path16"
         style="fill:#ffffff;fill-opacity:1;fill-rule:nonzero;stroke:none"
         d="M 21.2422,21.2773 H 1128.2 L 1289.74,177.117 1128.2,333.07 H 21.2422 V 21.2773" /><path
         id="path18"
         style="fill:#231f20;fill-opacity:1;fill-rule:nonzero;stroke:none"
         d="m 302.043,92.1563 h 30.707 v 89.2457 h 60.84 v 25.309 h -60.84 v 58.57 h 63.68 v 25.274 h -94.387 v -198.3987 0" /><path
         id="path20"
         style="fill:#231f20;fill-opacity:1;fill-rule:nonzero;stroke:none"
         d="m 423.539,92.1563 h 29.59 V 305.352 h -29.59 v -213.1957 0" /><path
         id="path22"
         style="fill:#231f20;fill-opacity:1;fill-rule:nonzero;stroke:none"
         d="m 494.316,92.1563 h 29.555 V 237.961 h -29.555 v -145.8047 0" /><path
         id="path24"
         style="fill:#231f20;fill-opacity:1;fill-rule:nonzero;stroke:none"
         d="m 493.453,267.262 h 31.285 v 31.539 h -31.285 v -31.539 0" /><path
         id="path26"
         style="fill:#231f20;fill-opacity:1;fill-rule:nonzero;stroke:none"
         d="m 565.234,92.1563 h 29.524 v 89.2457 c 0,10.801 2.265,19.043 6.551,25.02 4.25,5.976 10.796,8.82 19.043,8.82 13.644,0 20.449,-9.109 20.449,-27 v 0 -96.0857 h 29.59 v 89.2457 0 c 0,10.801 2.269,19.043 6.519,25.02 4.281,5.976 10.797,8.82 19.043,8.82 13.641,0 20.485,-9.109 20.485,-27 v 0 -96.0857 h 29.55 v 95.5117 0 c 0,17.062 -3.418,30.129 -10.215,38.949 -7.101,8.781 -17.648,13.36 -31.832,13.36 -9.394,0 -17.062,-2.27 -23.039,-6.84 -5.976,-4.828 -10.511,-10.227 -14.218,-16.203 -1.407,2.847 -3.133,5.687 -5.11,8.535 -1.984,2.554 -4.539,5.105 -7.383,7.379 -2.843,2.015 -6.265,3.703 -9.972,5.113 -3.672,1.437 -8.242,2.016 -13.067,2.016 -9.109,0 -16.488,-2.27 -22.464,-6.84 -5.977,-4.828 -10.801,-10.516 -13.93,-17.606 v 0 h -0.578 v 0 c 0,0.824 0,2.555 0,4.824 -0.254,1.981 -0.254,4.25 -0.254,6.516 -0.289,2.305 -0.289,4.57 -0.289,6.551 -0.285,1.976 -0.285,3.707 -0.285,4.539 v 0 h -29.27 v 0 c 0.289,-3.961 0.574,-8.242 0.863,-12.781 0.289,-4.535 0.289,-9.36 0.289,-14.797 v 0 -118.2267 0" /><path
         id="path28"
         style="fill:#231f20;fill-opacity:1;fill-rule:nonzero;stroke:none"
         d="m 783.469,97.8125 c 4.57,-1.9805 10.261,-3.9648 17.351,-5.4023 6.836,-1.3633 14.504,-2.2344 22.754,-2.2344 16.485,0 28.977,3.9648 37.793,12.2072 8.535,8.242 12.785,18.754 12.785,31.82 v 0 0 0 c 0,8.824 -2.558,15.914 -7.382,21.313 -5.11,5.402 -11.954,10.836 -20.735,15.66 v 0 l -12.812,7.094 v 0 c -6.524,3.707 -11.375,6.843 -15.047,9.972 -3.711,2.844 -5.403,6.809 -5.403,11.625 0,5.113 1.692,9.399 5.403,12.531 3.672,3.133 9.07,4.536 16.48,4.536 5.981,0 11.664,-0.579 16.489,-1.692 4.824,-1.437 9.363,-2.844 13.359,-4.574 v 0 l 1.402,23.906 v 0 c -3.093,1.114 -7.379,2.266 -13.062,3.672 -5.977,1.152 -12.785,1.731 -20.449,1.731 -7.422,0 -13.938,-1.153 -19.915,-3.426 -5.976,-2.266 -11.082,-5.399 -15.371,-9.106 -4.246,-3.961 -7.664,-8.527 -9.929,-13.351 -2.278,-5.114 -3.43,-10.516 -3.43,-15.914 0,-5.114 0.871,-9.684 2.277,-13.645 1.434,-4 3.418,-7.383 5.977,-10.512 2.547,-3.136 5.398,-5.687 9.101,-7.96 3.711,-2.551 7.676,-4.856 12.247,-7.122 v 0 l 15.332,-7.671 v 0 c 6.55,-3.129 11.093,-6.551 13.64,-9.938 2.266,-3.418 3.418,-7.129 3.418,-10.801 0,-5.683 -2.265,-9.968 -6.836,-12.816 -4.531,-3.125 -10.801,-4.531 -18.465,-4.531 -7.089,0 -13.937,1.113 -19.914,3.711 -5.976,2.265 -11.082,4.531 -15.332,6.511 v 0 l -1.726,-25.5935 v 0" /></g></g></svg>