<?xml version="1.0" encoding="UTF-8" standalone="no"?>
<svg
   xmlns:dc="http://purl.org/dc/elements/1.1/"
   xmlns:cc="http://creativecommons.org/ns#"
   xmlns:rdf="http://www.w3.org/1999/02/22-rdf-syntax-ns#"
   xmlns:svg="http://www.w3.org/2000/svg"
   xmlns="http://www.w3.org/2000/svg"
   viewBox="0 0 144 121.32"
   height="121.32"
   width="144"
   xml:space="preserve"
   id="svg2"
   version="1.1"><metadata
     id="metadata8"><rdf:RDF><cc:Work
         rdf:about=""><dc:format>image/svg+xml</dc:format><dc:type
           rdf:resource="http://purl.org/dc/dcmitype/StillImage" /></cc:Work></rdf:RDF></metadata><defs
     id="defs6" /><g
     transform="matrix(1.3333333,0,0,-1.3333333,0,121.32)"
     id="g10"><g
       transform="scale(0.1)"
       id="g12"><path
         id="path14"
         style="fill:#ffffff;fill-opacity:1;fill-rule:nonzero;stroke:none"
         d="M 1.41406,1.41797 H 1078.5741 v 907.082 H 1.41406 Z" /><path
         id="path16"
         style="fill:none;stroke:#231f20;stroke-width:2.83500004;stroke-linecap:butt;stroke-linejoin:miter;stroke-miterlimit:4;stroke-dasharray:none;stroke-opacity:1"
         d="M 1.41406,1.41797 H 1078.58 V 908.5 H 1.41406 V 1.41797" /><path
         id="path18"
         style="fill:#1a67bb;fill-opacity:1;fill-rule:nonzero;stroke:none"
         d="m 12.8125,12.8242 h 1054.38 v 884.289 H 12.8125 Z" /><path
         id="path20"
         style="fill:#ffffff;fill-opacity:1;fill-rule:nonzero;stroke:none"
         d="m 806.215,272.609 c -1.543,-4.316 -7.383,-4.004 -8.613,0 v 0 L 785.59,313.234 760.961,299.074 540,171.34 V 58.0586 H 483.379 V 171.34 l -264.363,264.387 -36.321,36.32 -20.007,20.008 -22.161,-35.703 v 0 c -2.148,-4.004 -8,-2.461 -8.308,1.847 v 0 l -5.539,105.262 v 0 c 0,2.773 2.16,4.922 4.922,4.621 v 0 l 104.953,-5.539 v 0 c 4.617,0 5.847,-5.848 2.144,-8.309 v 0 l -36.004,-21.855 20.012,-20.324 36.309,-36.317 254.519,-254.222 219.125,126.492 24.61,14.16 -29.239,30.781 v 0 c -3.066,3.078 0,8.305 4.317,7.379 v 0 l 103.105,-21.851 v 0 c 2.461,-0.614 4.004,-3.075 3.379,-5.84 v 0 L 806.215,272.609 v 0" /><path
         id="path22"
         style="fill:#ffffff;fill-opacity:1;fill-rule:nonzero;stroke:none"
         d="m 55.2813,622.25 h 453.637 V 854.645 H 55.2813 Z" /><path
         id="path24"
         style="fill:#007f46;fill-opacity:1;fill-rule:nonzero;stroke:none"
         d="m 66.6719,633.637 h 430.855 V 843.258 H 66.6719 Z" /><path
         id="path26"
         style="fill:#ffffff;fill-opacity:1;fill-rule:nonzero;stroke:none"
         d="M 125.938,690.258 H 153 v 0 c 4.98,0 9.395,0.703 13.25,2.14 3.84,1.27 6.98,3.282 9.688,5.692 2.714,2.422 4.707,5.41 6.132,8.84 1.27,3.269 1.993,6.98 1.993,10.965 v 0 0 0 c 0,3.859 -0.579,7.14 -1.575,10.128 -1.14,2.86 -2.554,5.274 -4.273,7.274 -1.848,1.855 -3.84,3.43 -5.988,4.57 -2.266,1.125 -4.551,1.848 -6.829,2.266 v 0 0.285 0 c 2.141,0.723 4.133,1.582 6.125,2.859 1.844,1.145 3.567,2.559 5.118,4.426 1.574,1.844 2.714,3.985 3.711,6.551 0.996,2.414 1.433,5.422 1.433,8.691 0,7.989 -2.281,14.114 -6.844,18.391 -4.707,4.277 -11.961,6.414 -21.941,6.414 v 0 h -27.062 v -99.492 0" /><path
         id="path28"
         style="fill:#ffffff;fill-opacity:1;fill-rule:nonzero;stroke:none"
         d="m 245.441,690.258 h 13.399 v 0 c -0.149,1.269 -0.422,3.137 -0.567,5.273 -0.148,2.141 -0.285,4.414 -0.285,6.848 v 0 34.91 0 c 0,4.844 -0.437,8.848 -1.433,11.973 -0.996,3.136 -2.551,5.715 -4.414,7.843 -1.567,1.856 -4.133,3.575 -7.551,5.125 -3.418,1.438 -7.84,2.141 -13.399,2.141 -4.687,0 -8.828,-0.558 -12.382,-1.699 -3.567,-1.145 -6.844,-2.434 -9.559,-4.004 v 0 l 1.141,-12.676 v 0 c 1.867,1.844 4.558,3.563 8.125,5.125 3.425,1.426 7.121,2.141 11.257,2.141 5.278,0 8.989,-1.418 11.25,-4.278 1.145,-1.417 2.004,-2.988 2.422,-4.699 0.434,-1.863 0.578,-3.855 0.578,-6.133 v 0 -2.988 h -5.261 v 0 c -11.836,0 -20.949,-1.992 -27.082,-5.847 -6.121,-3.985 -9.258,-10.274 -9.258,-18.821 0,-3.426 0.566,-6.414 1.711,-9.129 1.133,-2.695 2.691,-4.836 4.707,-6.699 1.844,-1.848 4.121,-3.137 6.687,-3.984 2.559,-0.989 5.274,-1.418 8.262,-1.418 5.41,0 9.688,1.125 12.961,3.41 3.133,2.137 5.699,4.707 7.547,7.547 v 0 h 0.293 v 0 c 0,-0.41 0,-1.133 0.144,-2.129 0,-1.004 0,-2 0.141,-2.996 0.145,-0.996 0.145,-1.992 0.293,-2.844 0.145,-0.996 0.145,-1.57 0.273,-1.992 v 0" /><path
         id="path30"
         style="fill:#ffffff;fill-opacity:1;fill-rule:nonzero;stroke:none"
         d="m 280.781,693.102 c 2.266,-0.997 5.117,-1.993 8.684,-2.715 3.426,-0.696 7.265,-1.125 11.394,-1.125 8.274,0 14.532,1.992 18.946,6.125 4.277,4.129 6.418,9.402 6.418,15.957 v 0 0 0 c 0,4.422 -1.289,7.988 -3.703,10.703 -2.571,2.695 -5.989,5.41 -10.403,7.84 v 0 l -6.414,3.554 v 0 c -3.269,1.856 -5.703,3.418 -7.551,4.993 -1.851,1.433 -2.711,3.425 -2.711,5.847 0,2.559 0.86,4.699 2.711,6.27 1.848,1.562 4.563,2.285 8.266,2.285 2.996,0 5.84,-0.293 8.27,-0.859 2.421,-0.723 4.687,-1.426 6.699,-2.274 v 0 l 0.703,11.973 v 0 c -1.57,0.554 -3.711,1.14 -6.555,1.844 -2.984,0.578 -6.402,0.851 -10.262,0.851 -3.691,0 -6.972,-0.558 -9.968,-1.699 -2.989,-1.145 -5.571,-2.715 -7.7,-4.57 -2.136,-1.993 -3.835,-4.27 -4.976,-6.7 -1.145,-2.57 -1.723,-5.265 -1.723,-7.98 0,-2.559 0.434,-4.844 1.145,-6.844 0.722,-2.004 1.719,-3.703 3,-5.273 1.265,-1.563 2.691,-2.852 4.551,-3.985 1.855,-1.289 3.843,-2.433 6.128,-3.574 v 0 l 7.7,-3.84 v 0 c 3.269,-1.57 5.554,-3.281 6.836,-5 1.14,-1.699 1.707,-3.562 1.707,-5.41 0,-2.851 -1.141,-4.98 -3.426,-6.414 -2.277,-1.574 -5.41,-2.277 -9.25,-2.277 -3.567,0 -6.981,0.558 -9.973,1.847 -3.008,1.141 -5.554,2.274 -7.691,3.27 v 0 l -0.852,-12.82 v 0" /><path
         id="path32"
         style="fill:#ffffff;fill-opacity:1;fill-rule:nonzero;stroke:none"
         d="m 359.824,722.602 h 41.746 v 5 c 0,6.418 -0.711,11.828 -1.988,16.535 -1.289,4.695 -3.137,8.554 -5.559,11.543 -2.429,2.988 -5.418,5.136 -8.691,6.55 -3.43,1.438 -7.129,2.141 -11.113,2.141 -4.563,0 -8.692,-0.851 -12.254,-2.695 -3.711,-1.867 -6.848,-4.571 -9.258,-7.844 -2.426,-3.426 -4.414,-7.41 -5.703,-12.117 -1.281,-4.707 -1.992,-9.836 -1.992,-15.391 0,-5.273 0.711,-10.273 1.992,-14.836 1.289,-4.558 3.133,-8.406 5.828,-11.679 2.578,-3.282 5.852,-5.848 9.836,-7.704 4.004,-1.972 8.699,-2.843 13.973,-2.843 4.558,0 8.691,0.429 12.257,1.418 3.543,0.996 6.407,1.992 8.829,2.988 v 0 l -0.715,12.402 v 0 c -1.856,-1.281 -4.278,-2.57 -7.117,-3.84 -3.008,-1.289 -6.555,-2.011 -10.832,-2.011 -6.836,0 -11.688,1.867 -14.676,5.703 -2.989,3.723 -4.563,9.277 -4.563,16.68 v 0" /><path
         id="path34"
         style="fill:#ffffff;fill-opacity:1;fill-rule:nonzero;stroke:none"
         d="m 423.445,690.258 h 14.817 v 106.914 h -14.817 v -106.914 0" /><path
         id="path36"
         style="fill:#ffffff;fill-opacity:1;fill-rule:nonzero;stroke:none"
         d="m 634.105,468.941 h 58.692 v 12.684 h -41.445 l 40.742,73.84 v 12.969 h -56.719 v -12.688 h 38.613 l -39.883,-72.84 v -13.965 0" /><path
         id="path38"
         style="fill:#ffffff;fill-opacity:1;fill-rule:nonzero;stroke:none"
         d="m 716.879,555.746 h 12.539 v 14.961 h -12.539 v -14.961 0" /><path
         id="path40"
         style="fill:#ffffff;fill-opacity:1;fill-rule:nonzero;stroke:none"
         d="m 740.258,555.746 h 12.519 v 14.961 h -12.519 v -14.961 0" /><path
         id="path42"
         style="fill:#ffffff;fill-opacity:1;fill-rule:nonzero;stroke:none"
         d="m 748.656,468.941 h 13.946 v 0 c -0.118,2.137 -0.274,4.403 -0.411,6.836 -0.136,2.274 -0.136,4.707 -0.136,7.129 v 0 59.149 H 747.23 v -42.899 0 c 0,-5.703 -1.152,-10.273 -3.281,-13.683 -2.148,-3.418 -5.683,-5.137 -10.39,-5.137 -3.868,0 -6.563,1.289 -8.418,3.859 -1.856,2.559 -2.852,6.7 -2.852,12.391 v 0 45.469 h -14.805 v -48.875 0 c 0,-7.707 1.7,-13.84 5.118,-18.399 3.418,-4.57 8.847,-6.836 16.25,-6.836 4.98,0 8.964,1.121 11.953,3.555 2.871,2.285 5.156,5.137 6.992,8.543 v 0 h 0.293 l 0.566,-11.102 v 0" /><path
         id="path44"
         style="fill:#ffffff;fill-opacity:1;fill-rule:nonzero;stroke:none"
         d="m 787.777,468.941 h 14.825 v 39.344 c 0,3.692 0.429,6.836 1.269,9.543 0.879,2.715 2.012,4.852 3.438,6.551 1.425,1.582 3.125,2.863 4.98,3.711 1.856,0.715 3.711,1.144 5.84,1.144 0.859,0 1.719,0 2.422,-0.148 0.722,-0.137 1.582,-0.281 2.285,-0.43 v 0 14.258 0 c -0.293,0 -0.566,0 -0.703,0.137 -0.156,0 -0.449,0 -0.723,0 -2.715,0 -5.137,-0.274 -7.265,-0.996 -2.129,-0.703 -3.848,-1.7 -5.411,-2.989 -1.582,-1.277 -2.988,-2.714 -4.14,-4.265 -1.133,-1.582 -2.129,-3.281 -2.852,-5.149 v 0 h -0.273 v 0 c 0,0.578 0,1.426 0,2.571 -0.137,1.14 -0.137,2.429 -0.293,3.711 -0.137,1.289 -0.137,2.429 -0.137,3.574 -0.156,1.121 -0.156,1.992 -0.156,2.547 v 0 H 787.23 v 0 c 0.118,-2.129 0.274,-4.414 0.411,-6.7 0.136,-2.421 0.136,-4.832 0.136,-7.265 v 0 -59.149 0" /><path
         id="path46"
         style="fill:#ffffff;fill-opacity:1;fill-rule:nonzero;stroke:none"
         d="m 836.801,468.941 h 14.824 v 73.114 h -14.824 v -73.114 0" /><path
         id="path48"
         style="fill:#ffffff;fill-opacity:1;fill-rule:nonzero;stroke:none"
         d="m 836.371,556.742 h 15.664 v 15.832 h -15.664 v -15.832 0" /><path
         id="path50"
         style="fill:#ffffff;fill-opacity:1;fill-rule:nonzero;stroke:none"
         d="m 921.605,470.934 -0.859,12.539 v 0 c -1.562,-0.996 -3.691,-1.848 -6.113,-2.559 -2.442,-0.723 -5,-1.144 -7.422,-1.144 -6.406,0 -11.25,2.285 -14.668,6.835 -3.574,4.563 -5.273,10.704 -5.273,18.399 0,8.984 1.699,15.539 5.117,19.816 3.437,4.266 8.261,6.407 14.551,6.407 2.695,0 5.117,-0.286 7.246,-0.997 2.148,-0.703 3.984,-1.425 5.859,-2.421 v 0 l 0.703,12.402 v 0 c -1.855,0.711 -3.984,1.434 -6.699,1.992 -2.695,0.574 -5.41,0.848 -8.106,0.848 -5.566,0 -10.566,-0.848 -14.824,-2.696 -4.277,-1.863 -7.851,-4.558 -10.683,-7.839 -2.871,-3.43 -5,-7.414 -6.407,-12.121 -1.445,-4.707 -2.148,-9.688 -2.148,-15.243 0,-5.148 0.703,-9.98 1.992,-14.55 1.289,-4.563 3.418,-8.547 6.133,-11.829 2.715,-3.269 6.133,-5.984 10.391,-7.839 4.14,-1.993 9.121,-2.989 14.824,-2.989 3.125,0 6.133,0.293 9.121,0.868 2.988,0.695 5.41,1.398 7.265,2.121 v 0" /><path
         id="path52"
         style="fill:#ffffff;fill-opacity:1;fill-rule:nonzero;stroke:none"
         d="m 938.539,468.941 h 14.805 v 43.329 c 0,5.703 1.133,10.265 3.554,13.546 2.286,3.27 5.704,4.852 10.391,4.852 3.867,0 6.563,-1.289 8.418,-3.855 1.719,-2.571 2.559,-6.7 2.559,-12.415 v 0 -45.457 h 14.824 v 48.887 0 c 0,7.695 -1.699,13.836 -5.117,18.387 -3.418,4.562 -8.848,6.836 -16.25,6.836 -4.844,0 -8.692,-1.133 -11.407,-3.27 -2.851,-2.285 -5.136,-4.699 -6.679,-7.414 v 0 h -0.293 v 43.488 h -14.805 v -106.914 0" /><path
         id="path54"
         style="fill:#007f46;fill-opacity:1;fill-rule:nonzero;stroke:none"
         d="m 141.035,747.418 v 30.496 h 9.246 v 0 c 5.559,0 9.707,-1.277 12.407,-3.984 2.71,-2.715 3.992,-6.278 3.992,-10.555 v 0 0 0 c 0,-4.707 -1.426,-8.547 -4.285,-11.535 -2.993,-3.008 -7.258,-4.422 -12.961,-4.422 v 0 h -8.399 v 0" /><path
         id="path56"
         style="fill:#007f46;fill-opacity:1;fill-rule:nonzero;stroke:none"
         d="m 141.035,702.379 v 33.191 h 10.82 v 0 c 2.989,0 5.418,-0.41 7.547,-1.269 2.141,-0.86 3.86,-2 5.278,-3.563 1.277,-1.574 2.273,-3.281 2.996,-5.273 0.715,-2.004 0.996,-4.141 0.996,-6.555 v 0 0 0 c 0,-4.707 -1.426,-8.711 -4.27,-11.844 -2.859,-3.136 -7.129,-4.687 -12.976,-4.687 v 0 h -10.391 v 0" /><path
         id="path58"
         style="fill:#007f46;fill-opacity:1;fill-rule:nonzero;stroke:none"
         d="m 244.023,726.031 v -6.554 c 0,-5.848 -1.281,-10.547 -3.847,-14.11 -2.703,-3.711 -6.551,-5.558 -11.824,-5.558 -3.86,0 -6.704,1.132 -8.696,3.273 -1.988,2.137 -2.984,5.125 -2.984,8.691 0,4.852 1.844,8.407 5.691,10.829 3.848,2.433 9.407,3.574 16.668,3.574 0.852,0 1.723,0 2.719,0 0.992,0 1.844,0 2.273,-0.145 v 0" /><path
         id="path60"
         style="fill:#007f46;fill-opacity:1;fill-rule:nonzero;stroke:none"
         d="m 359.824,732.73 c 0.149,6.7 1.426,11.973 3.86,15.684 2.402,3.563 5.828,5.418 10.093,5.418 8.84,0 13.254,-6.992 13.254,-21.102 v 0 h -27.207 v 0" /></g></g></svg>