<?xml version="1.0" encoding="UTF-8" standalone="no"?>
<svg
   xmlns:dc="http://purl.org/dc/elements/1.1/"
   xmlns:cc="http://creativecommons.org/ns#"
   xmlns:rdf="http://www.w3.org/1999/02/22-rdf-syntax-ns#"
   xmlns:svg="http://www.w3.org/2000/svg"
   xmlns="http://www.w3.org/2000/svg"
   viewBox="0 0 166.67999 106.2"
   height="106.2"
   width="166.67999"
   xml:space="preserve"
   id="svg2"
   version="1.1"><metadata
     id="metadata8"><rdf:RDF><cc:Work
         rdf:about=""><dc:format>image/svg+xml</dc:format><dc:type
           rdf:resource="http://purl.org/dc/dcmitype/StillImage" /></cc:Work></rdf:RDF></metadata><defs
     id="defs6" /><g
     transform="matrix(1.3333333,0,0,-1.3333333,0,106.2)"
     id="g10"><g
       transform="scale(0.1)"
       id="g12"><path
         id="path14"
         style="fill:#ffffff;fill-opacity:1;fill-rule:nonzero;stroke:none"
         d="M 1.41797,1.41797 H 1248.658 v 793.699 H 1.41797 Z" /><path
         id="path16"
         style="fill:none;stroke:#231f20;stroke-width:2.83500004;stroke-linecap:butt;stroke-linejoin:miter;stroke-miterlimit:4;stroke-dasharray:none;stroke-opacity:1"
         d="M 1.41797,1.41797 H 1248.66 V 795.117 H 1.41797 V 1.41797" /><path
         id="path18"
         style="fill:#403d40;fill-opacity:1;fill-rule:nonzero;stroke:none"
         d="M 1231.74,721.566 V 75.2813 c 0,-31.3907 -25.54,-56.9336 -56.63,-56.9336 v 0 H 74.9805 v 0 c -31.3946,0 -56.6407,25.5429 -56.6407,56.9336 v 0 646.2847 0 c 0,31.086 25.2461,56.625 56.6407,56.625 v 0 H 1175.11 v 0 c 31.09,0 56.63,-25.539 56.63,-56.625 v 0" /><path
         id="path20"
         style="fill:#ffffff;fill-opacity:1;fill-rule:nonzero;stroke:none"
         d="m 1214.81,721.566 c 0,21.852 -17.85,39.704 -39.7,39.395 v 0 H 74.9805 v 0 C 53.125,761.27 35.2695,743.418 35.2695,721.566 v 0 -646.2847 0 c 0,-22.1563 17.8555,-39.6993 39.711,-39.6993 v 0 H 1175.11 v 0 c 21.85,0 39.7,17.543 39.7,39.6993 v 0 646.2847 0" /><path
         id="path22"
         style="fill:#231f20;fill-opacity:1;fill-rule:nonzero;stroke:none"
         d="m 876.527,457.82 c -0.925,-3.074 -5.543,-3.074 -6.464,0 v 0 L 861.137,488.293 842.664,477.52 646.285,364.262 V 80.8203 h -42.48 V 364.262 L 407.418,477.52 388.949,488.293 380.023,457.82 v 0 c -0.921,-3.074 -5.543,-3.074 -6.464,0 v 0 l -24.625,75.094 v 0 c -0.618,1.848 0.617,4 2.769,4.309 v 0 l 76.953,16.621 v 0 c 3.383,0.613 5.543,-3.391 3.383,-5.852 v 0 l -21.848,-22.773 18.465,-10.77 196.387,-113.254 196.387,113.254 18.468,10.77 -21.855,22.773 v 0 c -2.156,2.461 0,6.465 3.074,5.852 v 0 l 77.266,-16.621 v 0 c 2.152,-0.309 3.078,-2.461 2.461,-4.309 v 0 L 876.527,457.82 v 0" /><path
         id="path24"
         style="fill:#231f20;fill-opacity:1;fill-rule:nonzero;stroke:none"
         d="m 69.3828,636.301 h 21.6485 v 0 c 3.9882,0 7.5156,0.558 10.5937,1.699 3.07,1.031 5.59,2.633 7.75,4.563 2.156,1.945 3.758,4.332 4.91,7.07 1.024,2.633 1.582,5.586 1.582,8.785 v 0 0 0 c 0,3.094 -0.441,5.703 -1.25,8.105 -0.922,2.278 -2.058,4.219 -3.41,5.821 -1.484,1.48 -3.086,2.734 -4.797,3.656 -1.816,0.902 -3.648,1.465 -5.457,1.813 v 0 0.23 0 c 1.699,0.574 3.293,1.27 4.883,2.289 1.492,0.906 2.859,2.047 4.113,3.531 1.258,1.485 2.16,3.196 2.957,5.254 0.789,1.93 1.153,4.336 1.153,6.957 0,6.391 -1.832,11.289 -5.473,14.719 -3.777,3.426 -9.5782,5.125 -17.5547,5.125 v 0 H 69.3828 v -79.617 0" /><path
         id="path26"
         style="fill:#231f20;fill-opacity:1;fill-rule:nonzero;stroke:none"
         d="m 142.996,662.188 h 33.383 v 3.988 c 0,5.14 -0.563,9.476 -1.598,13.238 -1.023,3.77 -2.508,6.836 -4.433,9.242 -1.946,2.391 -4.336,4.102 -6.961,5.239 -2.735,1.14 -5.703,1.714 -8.895,1.714 -3.629,0 -6.945,-0.687 -9.797,-2.156 -2.949,-1.484 -5.468,-3.656 -7.398,-6.281 -1.93,-2.734 -3.543,-5.934 -4.563,-9.707 -1.023,-3.754 -1.586,-7.86 -1.586,-12.309 0,-4.218 0.563,-8.207 1.586,-11.863 1.02,-3.66 2.52,-6.742 4.676,-9.348 2.047,-2.636 4.684,-4.683 7.863,-6.175 3.2,-1.575 6.942,-2.262 11.176,-2.262 3.629,0 6.938,0.34 9.789,1.125 2.852,0.789 5.129,1.594 7.059,2.398 v 0 l -0.563,9.926 v 0 c -1.48,-1.023 -3.414,-2.062 -5.699,-3.082 -2.39,-1.023 -5.242,-1.598 -8.656,-1.598 -5.473,0 -9.348,1.481 -11.75,4.567 -2.375,2.961 -3.633,7.41 -3.633,13.344 v 0" /><path
         id="path28"
         style="fill:#231f20;fill-opacity:1;fill-rule:nonzero;stroke:none"
         d="m 224.766,636.301 h 10.711 v 0 c -0.118,1.019 -0.344,2.504 -0.461,4.215 -0.114,1.699 -0.231,3.527 -0.231,5.476 v 0 27.949 0 c 0,3.872 -0.344,7.071 -1.137,9.59 -0.793,2.489 -2.043,4.563 -3.543,6.266 -1.238,1.48 -3.3,2.848 -6.019,4.098 -2.75,1.14 -6.266,1.714 -10.711,1.714 -3.777,0 -7.07,-0.457 -9.91,-1.367 -2.863,-0.906 -5.473,-1.929 -7.645,-3.195 v 0 l 0.922,-10.152 v 0 c 1.465,1.484 3.629,2.851 6.496,4.105 2.719,1.137 5.688,1.715 8.996,1.715 4.207,0 7.176,-1.141 8.985,-3.414 0.926,-1.153 1.601,-2.406 1.945,-3.774 0.348,-1.484 0.465,-3.082 0.465,-4.898 v 0 -2.402 h -4.219 v 0 c -9.449,0 -16.765,-1.598 -21.648,-4.684 -4.91,-3.191 -7.403,-8.207 -7.403,-15.043 0,-2.754 0.45,-5.141 1.356,-7.32 0.906,-2.157 2.164,-3.871 3.758,-5.356 1.5,-1.48 3.312,-2.504 5.355,-3.191 2.047,-0.785 4.219,-1.125 6.613,-1.125 4.336,0 7.743,0.887 10.379,2.719 2.493,1.714 4.539,3.761 6.035,6.05 v 0 h 0.231 v 0 c 0,-0.332 0,-0.906 0.117,-1.714 0,-0.79 0,-1.602 0.113,-2.391 0.118,-0.793 0.118,-1.598 0.215,-2.289 0.117,-0.793 0.117,-1.25 0.235,-1.582 v 0" /><path
         id="path30"
         style="fill:#231f20;fill-opacity:1;fill-rule:nonzero;stroke:none"
         d="m 281.645,637.207 v 8.895 c -0.805,-0.344 -1.602,-0.688 -2.504,-0.922 -0.911,-0.328 -1.946,-0.446 -3.2,-0.446 -2.156,0 -3.64,0.68 -4.675,1.93 -1.028,1.27 -1.485,3.43 -1.485,6.629 v 0 32.395 h 11.864 v 9.117 h -11.864 v 15.523 l -11.836,-3.527 v -11.996 h -9.347 v -9.117 h 9.347 v -34.805 0 c 0,-5.586 1.25,-9.574 3.871,-11.852 2.606,-2.398 6.266,-3.523 11.043,-3.523 1.715,0 3.414,0.113 4.899,0.457 1.496,0.43 2.851,0.777 3.887,1.242 v 0" /><path
         id="path32"
         style="fill:#231f20;fill-opacity:1;fill-rule:nonzero;stroke:none"
         d="m 306.238,662.188 h 33.367 v 3.988 c 0,5.14 -0.562,9.476 -1.582,13.238 -1.027,3.77 -2.507,6.836 -4.441,9.242 -1.941,2.391 -4.328,4.102 -6.953,5.239 -2.734,1.14 -5.703,1.714 -8.899,1.714 -3.628,0 -6.941,-0.687 -9.792,-2.156 -2.969,-1.484 -5.473,-3.656 -7.403,-6.281 -1.941,-2.734 -3.539,-5.934 -4.562,-9.707 -1.024,-3.754 -1.582,-7.86 -1.582,-12.309 0,-4.218 0.558,-8.207 1.582,-11.863 1.023,-3.66 2.504,-6.742 4.679,-9.348 2.047,-2.636 4.664,-4.683 7.864,-6.175 3.183,-1.575 6.937,-2.262 11.175,-2.262 3.629,0 6.938,0.34 9.789,1.125 2.84,0.789 5.129,1.594 7.059,2.398 v 0 l -0.562,9.926 v 0 c -1.485,-1.023 -3.43,-2.062 -5.704,-3.082 -2.386,-1.023 -5.238,-1.598 -8.652,-1.598 -5.473,0 -9.359,1.481 -11.754,4.567 -2.371,2.961 -3.629,7.41 -3.629,13.344 v 0" /><path
         id="path34"
         style="fill:#231f20;fill-opacity:1;fill-rule:nonzero;stroke:none"
         d="m 356.973,636.301 h 11.851 v 34.672 c 0,4.566 0.922,8.222 2.852,10.828 1.816,2.637 4.562,3.887 8.308,3.887 3.082,0 5.239,-1.02 6.723,-3.067 1.383,-2.07 2.063,-5.387 2.063,-9.937 v 0 -36.383 h 11.835 v 39.125 0 c 0,6.144 -1.351,11.058 -4.093,14.715 -2.735,3.644 -7.055,5.468 -12.989,5.468 -3.425,0 -6.375,-0.804 -8.996,-2.504 -2.625,-1.699 -4.683,-4.101 -6.148,-7.183 v 0 h -0.234 v 0 c 0,0.328 0,1.019 0,1.828 -0.114,0.789 -0.114,1.699 -0.231,2.605 -0.113,0.922 -0.113,1.84 -0.113,2.637 -0.117,0.793 -0.117,1.481 -0.117,1.813 v 0 h -11.161 v 0 c 0.102,-1.7 0.219,-3.528 0.332,-5.356 0.118,-1.929 0.118,-3.875 0.118,-5.801 v 0 -47.347 0" /><path
         id="path36"
         style="fill:#231f20;fill-opacity:1;fill-rule:nonzero;stroke:none"
         d="m 419.785,636.301 h 11.16 v 0 c 0,0.211 0,0.672 0.114,1.469 0.117,0.804 0.117,1.609 0.234,2.628 0,0.911 0,1.817 0.113,2.743 0,0.902 0,1.593 0,2.039 v 0 h 0.231 v 0 c 0.558,-1.235 1.367,-2.387 2.273,-3.524 0.793,-1.14 1.832,-2.16 3.082,-3.082 1.254,-0.922 2.621,-1.601 4.321,-2.179 1.714,-0.657 3.656,-0.887 5.82,-0.887 3.312,0 6.265,0.687 8.769,2.144 2.504,1.379 4.664,3.426 6.379,6.063 1.711,2.601 2.969,5.699 3.871,9.461 0.809,3.656 1.254,7.762 1.254,12.328 v 0 0 0 c 0,9.922 -1.816,17.332 -5.472,22.473 -3.629,5.128 -8.536,7.632 -14.688,7.632 -3.762,0 -6.84,-0.804 -9.117,-2.504 -2.387,-1.699 -4.332,-3.871 -5.816,-6.507 v 0 h -0.227 v 35.254 h -11.852 v -75.188 0 c 0,-1.93 0,-3.871 -0.117,-5.586 -0.117,-1.699 -0.23,-3.308 -0.332,-4.777 v 0" /><path
         id="path38"
         style="fill:#231f20;fill-opacity:1;fill-rule:nonzero;stroke:none"
         d="m 495.141,662.188 h 33.379 v 3.988 c 0,5.14 -0.563,9.476 -1.582,13.238 -1.024,3.77 -2.52,6.836 -4.45,9.242 -1.933,2.391 -4.32,4.102 -6.957,5.239 -2.718,1.14 -5.703,1.714 -8.886,1.714 -3.641,0 -6.938,-0.687 -9.805,-2.156 -2.949,-1.484 -5.457,-3.656 -7.402,-6.281 -1.93,-2.734 -3.524,-5.934 -4.551,-9.707 -1.02,-3.754 -1.598,-7.86 -1.598,-12.309 0,-4.218 0.578,-8.207 1.598,-11.863 1.027,-3.66 2.504,-6.742 4.668,-9.348 2.062,-2.636 4.679,-4.683 7.875,-6.175 3.183,-1.575 6.945,-2.262 11.164,-2.262 3.64,0 6.937,0.34 9.804,1.125 2.836,0.789 5.114,1.594 7.055,2.398 v 0 l -0.562,9.926 v 0 c -1.496,-1.023 -3.426,-2.062 -5.703,-3.082 -2.403,-1.023 -5.239,-1.598 -8.665,-1.598 -5.46,0 -9.347,1.481 -11.738,4.567 -2.39,2.961 -3.644,7.41 -3.644,13.344 v 0" /><path
         id="path40"
         style="fill:#231f20;fill-opacity:1;fill-rule:nonzero;stroke:none"
         d="m 545.887,636.301 h 11.836 v 31.476 c 0,2.965 0.347,5.469 1.027,7.649 0.703,2.156 1.609,3.887 2.75,5.238 1.137,1.254 2.504,2.289 3.973,2.984 1.5,0.563 2.98,0.903 4.679,0.903 0.676,0 1.368,0 1.926,-0.113 0.594,-0.118 1.27,-0.227 1.848,-0.348 v 0 11.41 0 c -0.231,0 -0.461,0 -0.578,0.109 -0.118,0 -0.344,0 -0.559,0 -2.176,0 -4.117,-0.226 -5.816,-0.804 -1.715,-0.563 -3.086,-1.352 -4.336,-2.375 -1.254,-1.024 -2.395,-2.176 -3.301,-3.426 -0.918,-1.254 -1.723,-2.637 -2.285,-4.121 v 0 h -0.235 v 0 c 0,0.465 0,1.137 0,2.058 -0.113,0.926 -0.113,1.946 -0.23,2.965 -0.113,1.028 -0.113,1.949 -0.113,2.852 -0.102,0.91 -0.102,1.601 -0.102,2.047 v 0 h -10.926 v 0 c 0.098,-1.7 0.215,-3.528 0.325,-5.356 0.117,-1.929 0.117,-3.875 0.117,-5.801 v 0 -47.347 0" /><path
         id="path42"
         style="fill:#231f20;fill-opacity:1;fill-rule:nonzero;stroke:none"
         d="m 584.578,625.699 -0.672,-11.074 v 0 c 1.93,-0.793 4.676,-1.582 8.09,-2.391 3.43,-0.804 6.945,-1.269 10.484,-1.269 8.657,0 15.153,2.41 19.481,7.086 4.336,4.683 6.512,11.406 6.512,20.058 v 0 46.774 0 c 0,1.715 0.101,3.308 0.218,5.023 0.114,1.715 0.114,3.317 0.231,4.899 v 0 h -10.949 v 0 c 0,-0.332 0,-1.02 0,-1.813 -0.114,-0.797 -0.114,-1.715 -0.231,-2.637 -0.109,-0.906 -0.109,-1.699 -0.109,-2.488 -0.106,-0.808 -0.106,-1.5 -0.106,-1.847 v 0 h -0.343 v 0 c -1.485,2.636 -3.414,4.914 -5.817,6.855 -2.394,1.832 -5.355,2.734 -9,2.734 -3.543,0 -6.726,-0.687 -9.344,-2.156 -2.625,-1.484 -4.898,-3.43 -6.597,-6.051 -1.731,-2.617 -3.082,-5.832 -3.887,-9.472 -0.91,-3.758 -1.359,-7.864 -1.359,-12.426 0,-5.488 0.562,-10.055 1.816,-13.816 1.141,-3.754 2.609,-6.836 4.567,-9.125 1.929,-2.391 4.085,-3.989 6.496,-5.028 2.386,-1.023 4.882,-1.57 7.402,-1.57 3.973,0 7.18,0.894 9.559,2.84 2.394,1.828 4.335,4.117 5.816,6.953 v 0 h 0.234 v -7.301 0 c 0,-2.371 -0.234,-4.781 -0.679,-6.937 -0.575,-2.18 -1.368,-4.004 -2.504,-5.594 -1.27,-1.61 -2.867,-2.86 -4.914,-3.883 -2.043,-0.91 -4.66,-1.367 -7.743,-1.367 -3.199,0 -6.265,0.574 -9.347,1.594 -3.07,1.136 -5.457,2.277 -7.305,3.429 v 0" /><path
         id="path44"
         style="fill:#231f20;fill-opacity:1;fill-rule:nonzero;stroke:none"
         d="m 881.5,636.301 h 10.711 v 0 c -0.113,1.019 -0.34,2.504 -0.457,4.215 -0.117,1.699 -0.231,3.527 -0.231,5.476 v 0 27.949 0 c 0,3.872 -0.347,7.071 -1.136,9.59 -0.793,2.489 -2.047,4.563 -3.532,6.266 -1.253,1.48 -3.308,2.848 -6.031,4.098 -2.754,1.14 -6.265,1.714 -10.719,1.714 -3.753,0 -7.07,-0.457 -9.906,-1.367 -2.867,-0.906 -5.469,-1.929 -7.633,-3.195 v 0 l 0.911,-10.152 v 0 c 1.468,1.484 3.628,2.851 6.492,4.105 2.722,1.137 5.703,1.715 9,1.715 4.219,0 7.172,-1.141 8.988,-3.414 0.922,-1.153 1.613,-2.406 1.961,-3.774 0.332,-1.484 0.441,-3.082 0.441,-4.898 v 0 -2.402 h -4.218 v 0 c -9.446,0 -16.746,-1.598 -21.645,-4.684 -4.906,-3.191 -7.402,-8.207 -7.402,-15.043 0,-2.754 0.449,-5.141 1.359,-7.32 0.906,-2.157 2.156,-3.871 3.77,-5.356 1.484,-1.48 3.3,-2.504 5.34,-3.191 2.062,-0.785 4.222,-1.125 6.613,-1.125 4.336,0 7.746,0.887 10.383,2.719 2.492,1.714 4.539,3.761 6.031,6.05 v 0 h 0.234 v 0 c 0,-0.332 0,-0.906 0.114,-1.714 0,-0.79 0,-1.602 0.117,-2.391 0.113,-0.793 0.113,-1.598 0.215,-2.289 0.113,-0.793 0.113,-1.25 0.23,-1.582 v 0" /><path
         id="path46"
         style="fill:#231f20;fill-opacity:1;fill-rule:nonzero;stroke:none"
         d="m 910.805,636.301 h 11.156 v 0 c 0,0.211 0,0.672 0.117,1.469 0.113,0.804 0.113,1.609 0.231,2.628 0,0.911 0,1.817 0.117,2.743 0,0.902 0,1.593 0,2.039 v 0 h 0.23 v 0 c 0.563,-1.235 1.367,-2.387 2.274,-3.524 0.793,-1.14 1.812,-2.16 3.082,-3.082 1.25,-0.922 2.621,-1.601 4.32,-2.179 1.715,-0.657 3.66,-0.887 5.816,-0.887 3.313,0 6.266,0.687 8.77,2.144 2.504,1.379 4.668,3.426 6.379,6.063 1.719,2.601 2.969,5.699 3.875,9.461 0.805,3.656 1.25,7.762 1.25,12.328 v 0 0 0 c 0,9.922 -1.813,17.332 -5.469,22.473 -3.629,5.128 -8.539,7.632 -14.687,7.632 -3.758,0 -6.84,-0.804 -9.118,-2.504 -2.406,-1.699 -4.335,-3.871 -5.82,-6.507 v 0 h -0.226 v 35.254 H 911.25 v -75.188 0 c 0,-1.93 0,-3.871 -0.113,-5.586 -0.117,-1.699 -0.235,-3.308 -0.332,-4.777 v 0" /><path
         id="path48"
         style="fill:#231f20;fill-opacity:1;fill-rule:nonzero;stroke:none"
         d="m 969.141,636.301 h 11.836 v 28.972 h 0.23 l 19.483,-28.972 h 14.12 l -23.681,32.152 21.641,26.352 H 999.668 L 980.977,671.09 v 50.762 h -11.836 v -85.551 0" /><path
         id="path50"
         style="fill:#231f20;fill-opacity:1;fill-rule:nonzero;stroke:none"
         d="m 1037.77,662.188 h 33.38 v 3.988 c 0,5.14 -0.58,9.476 -1.6,13.238 -1.02,3.77 -2.5,6.836 -4.43,9.242 -1.95,2.391 -4.34,4.102 -6.96,5.239 -2.73,1.14 -5.7,1.714 -8.9,1.714 -3.63,0 -6.94,-0.687 -9.79,-2.156 -2.97,-1.484 -5.47,-3.656 -7.4,-6.281 -1.93,-2.734 -3.55,-5.934 -4.57,-9.707 -1.02,-3.754 -1.58,-7.86 -1.58,-12.309 0,-4.218 0.56,-8.207 1.58,-11.863 1.02,-3.66 2.52,-6.742 4.68,-9.348 2.05,-2.636 4.68,-4.683 7.86,-6.175 3.19,-1.575 6.95,-2.262 11.18,-2.262 3.63,0 6.94,0.34 9.79,1.125 2.84,0.789 5.13,1.594 7.06,2.398 v 0 l -0.57,9.926 v 0 c -1.48,-1.023 -3.4,-2.062 -5.7,-3.082 -2.39,-1.023 -5.24,-1.598 -8.65,-1.598 -5.47,0 -9.35,1.481 -11.75,4.567 -2.38,2.961 -3.63,7.41 -3.63,13.344 v 0" /><path
         id="path52"
         style="fill:#231f20;fill-opacity:1;fill-rule:nonzero;stroke:none"
         d="m 1088.5,636.301 h 11.85 v 31.476 c 0,2.965 0.35,5.469 1.03,7.649 0.69,2.156 1.59,3.887 2.73,5.238 1.15,1.254 2.52,2.289 3.99,2.984 1.49,0.563 2.97,0.903 4.68,0.903 0.68,0 1.37,0 1.93,-0.113 0.58,-0.118 1.25,-0.227 1.83,-0.348 v 0 11.41 0 c -0.23,0 -0.46,0 -0.58,0.109 -0.11,0 -0.34,0 -0.56,0 -2.16,0 -4.11,-0.226 -5.81,-0.804 -1.7,-0.563 -3.07,-1.352 -4.33,-2.375 -1.26,-1.024 -2.4,-2.176 -3.31,-3.426 -0.9,-1.254 -1.71,-2.637 -2.27,-4.121 v 0 h -0.23 v 0 c 0,0.465 0,1.137 0,2.058 -0.12,0.926 -0.12,1.946 -0.24,2.965 -0.11,1.028 -0.11,1.949 -0.11,2.852 -0.1,0.91 -0.1,1.601 -0.1,2.047 v 0 h -10.95 v 0 c 0.11,-1.7 0.22,-3.528 0.34,-5.356 0.11,-1.929 0.11,-3.875 0.11,-5.801 v 0 -47.347 0" /><path
         id="path54"
         style="fill:#231f20;fill-opacity:1;fill-rule:nonzero;stroke:none"
         d="m 1128.38,636.301 h 11.85 v 34.672 c 0,4.566 0.92,8.222 2.85,10.828 1.81,2.637 4.56,3.887 8.31,3.887 3.08,0 5.24,-1.02 6.72,-3.067 1.37,-2.07 2.06,-5.387 2.06,-9.937 v 0 -36.383 h 11.84 v 39.125 0 c 0,6.144 -1.36,11.058 -4.09,14.715 -2.74,3.644 -7.06,5.468 -12.99,5.468 -3.43,0 -6.38,-0.804 -9.02,-2.504 -2.6,-1.699 -4.66,-4.101 -6.13,-7.183 v 0 h -0.23 v 0 c 0,0.328 0,1.019 0,1.828 -0.11,0.789 -0.11,1.699 -0.25,2.605 -0.11,0.922 -0.11,1.84 -0.11,2.637 -0.11,0.793 -0.11,1.481 -0.11,1.813 v 0 h -11.15 v 0 c 0.1,-1.7 0.21,-3.528 0.33,-5.356 0.12,-1.929 0.12,-3.875 0.12,-5.801 v 0 -47.347 0" /><path
         id="path56"
         style="fill:#231f20;fill-opacity:1;fill-rule:nonzero;stroke:none"
         d="m 779.891,636.301 h 12.297 v 36.043 h 25.648 v -36.043 h 12.297 v 79.617 h -12.297 v -33.195 h -25.648 v 33.195 h -12.297 v -79.617 0" /><path
         id="path58"
         style="fill:#ffffff;fill-opacity:1;fill-rule:nonzero;stroke:none"
         d="m 81.4688,645.992 v 26.582 h 8.6523 v 0 c 2.3945,0 4.3359,-0.347 6.0352,-1.027 1.7148,-0.688 3.0664,-1.598 4.2187,-2.867 1.02,-1.25 1.828,-2.602 2.387,-4.215 0.578,-1.598 0.797,-3.297 0.797,-5.242 v 0 0 0 c 0,-3.774 -1.121,-6.957 -3.414,-9.477 -2.2739,-2.504 -5.688,-3.754 -10.3716,-3.754 v 0 h -8.3046 v 0" /><path
         id="path60"
         style="fill:#ffffff;fill-opacity:1;fill-rule:nonzero;stroke:none"
         d="m 142.996,670.297 c 0.117,5.355 1.141,9.578 3.074,12.539 1.926,2.852 4.676,4.336 8.09,4.336 7.055,0 10.602,-5.602 10.602,-16.875 v 0 h -21.766 v 0" /><path
         id="path62"
         style="fill:#ffffff;fill-opacity:1;fill-rule:nonzero;stroke:none"
         d="m 223.629,664.926 v -5.258 c 0,-4.664 -1.043,-8.438 -3.082,-11.273 -2.164,-2.981 -5.246,-4.45 -9.449,-4.45 -3.094,0 -5.356,0.907 -6.957,2.606 -1.614,1.73 -2.403,4.101 -2.403,6.969 0,3.871 1.5,6.726 4.567,8.668 3.066,1.933 7.511,2.851 13.332,2.851 0.676,0 1.367,0 2.16,0 0.789,0 1.484,0 1.832,-0.113 v 0" /><path
         id="path64"
         style="fill:#ffffff;fill-opacity:1;fill-rule:nonzero;stroke:none"
         d="m 306.238,670.297 c 0.117,5.355 1.141,9.578 3.067,12.539 1.929,2.852 4.683,4.336 8.097,4.336 7.055,0 10.594,-5.602 10.594,-16.875 v 0 h -21.758 v 0" /><path
         id="path66"
         style="fill:#ffffff;fill-opacity:1;fill-rule:nonzero;stroke:none"
         d="m 434.938,650.32 c -1.934,3.762 -2.852,8.903 -2.852,15.293 0,6.496 0.918,11.621 2.852,15.399 1.941,3.773 4.89,5.586 9.011,5.586 4.203,0 7.172,-1.813 8.985,-5.36 1.714,-3.656 2.621,-8.781 2.621,-15.394 v 0 0 0 c 0,-7.196 -0.789,-12.442 -2.504,-15.981 -1.699,-3.547 -4.781,-5.355 -9.004,-5.355 -4.219,0 -7.285,1.926 -9.109,5.812 v 0" /><path
         id="path68"
         style="fill:#ffffff;fill-opacity:1;fill-rule:nonzero;stroke:none"
         d="m 495.141,670.297 c 0.117,5.355 1.136,9.578 3.082,12.539 1.929,2.852 4.668,4.336 8.093,4.336 7.059,0 10.582,-5.602 10.582,-16.875 v 0 h -21.757 v 0" /><path
         id="path70"
         style="fill:#ffffff;fill-opacity:1;fill-rule:nonzero;stroke:none"
         d="m 596.215,650.094 c -1.93,3.308 -2.949,8.554 -2.949,15.75 0,6.73 0.91,11.738 2.718,15.281 1.715,3.426 4.684,5.125 8.77,5.242 3.887,0 6.844,-1.699 9.016,-5.129 2.046,-3.425 3.066,-8.554 3.066,-15.277 v 0 0 0 c 0,-7.082 -1.02,-12.324 -2.949,-15.75 -1.946,-3.547 -5.141,-5.246 -9.574,-5.246 -3.415,0 -6.168,1.699 -8.098,5.129 v 0" /><path
         id="path72"
         style="fill:#ffffff;fill-opacity:1;fill-rule:nonzero;stroke:none"
         d="m 81.4688,682.031 v 24.426 h 7.3984 v 0 c 4.4375,0 7.75,-1.023 9.9062,-3.199 2.1796,-2.16 3.1996,-5.028 3.1996,-8.453 v 0 0 0 c 0,-3.758 -1.137,-6.828 -3.4261,-9.231 -2.3906,-2.39 -5.8164,-3.543 -10.3672,-3.543 v 0 h -6.7109 v 0" /><path
         id="path74"
         style="fill:#ffffff;fill-opacity:1;fill-rule:nonzero;stroke:none"
         d="m 880.359,664.926 v -5.258 c 0,-4.664 -1.019,-8.438 -3.078,-11.273 -2.16,-2.981 -5.246,-4.45 -9.449,-4.45 -3.098,0 -5.355,0.907 -6.953,2.606 -1.598,1.73 -2.406,4.101 -2.406,6.969 0,3.871 1.496,6.726 4.562,8.668 3.082,1.933 7.52,2.851 13.336,2.851 0.68,0 1.367,0 2.16,0 0.809,0 1.496,0 1.828,-0.113 v 0" /><path
         id="path76"
         style="fill:#ffffff;fill-opacity:1;fill-rule:nonzero;stroke:none"
         d="m 925.953,650.32 c -1.93,3.762 -2.851,8.903 -2.851,15.293 0,6.496 0.921,11.621 2.851,15.399 1.942,3.773 4.895,5.586 9.012,5.586 4.211,0 7.172,-1.813 8.984,-5.36 1.719,-3.656 2.621,-8.781 2.621,-15.394 v 0 0 0 c 0,-7.196 -0.789,-12.442 -2.504,-15.981 -1.699,-3.547 -4.781,-5.355 -9,-5.355 -4.218,0 -7.285,1.926 -9.113,5.812 v 0" /><path
         id="path78"
         style="fill:#ffffff;fill-opacity:1;fill-rule:nonzero;stroke:none"
         d="m 1037.77,670.297 c 0.12,5.355 1.14,9.578 3.07,12.539 1.93,2.852 4.68,4.336 8.09,4.336 7.05,0 10.6,-5.602 10.6,-16.875 v 0 h -21.76 v 0" /></g></g></svg>