<?xml version="1.0" encoding="UTF-8" standalone="no"?>
<svg
   xmlns:dc="http://purl.org/dc/elements/1.1/"
   xmlns:cc="http://creativecommons.org/ns#"
   xmlns:rdf="http://www.w3.org/1999/02/22-rdf-syntax-ns#"
   xmlns:svg="http://www.w3.org/2000/svg"
   xmlns="http://www.w3.org/2000/svg"
   viewBox="0 0 166.67999 196.90668"
   height="196.90668"
   width="166.67999"
   xml:space="preserve"
   id="svg2"
   version="1.1"><metadata
     id="metadata8"><rdf:RDF><cc:Work
         rdf:about=""><dc:format>image/svg+xml</dc:format><dc:type
           rdf:resource="http://purl.org/dc/dcmitype/StillImage" /></cc:Work></rdf:RDF></metadata><defs
     id="defs6" /><g
     transform="matrix(1.3333333,0,0,-1.3333333,0,196.90667)"
     id="g10"><g
       transform="scale(0.1)"
       id="g12"><path
         id="path14"
         style="fill:#ffffff;fill-opacity:1;fill-rule:nonzero;stroke:none"
         d="M 1.41797,1.41797 H 1248.658 V 1475.438 H 1.41797 Z" /><path
         id="path16"
         style="fill:none;stroke:#231f20;stroke-width:2.83500004;stroke-linecap:butt;stroke-linejoin:miter;stroke-miterlimit:4;stroke-dasharray:none;stroke-opacity:1"
         d="M 1.41797,1.41797 H 1248.66 V 1475.43 H 1.41797 V 1.41797" /><path
         id="path18"
         style="fill:#1a67bb;fill-opacity:1;fill-rule:nonzero;stroke:none"
         d="m 12.7539,12.7539 h 1224.57 v 1451.35 H 12.7539 Z" /><path
         id="path20"
         style="fill:#ffffff;fill-opacity:1;fill-rule:nonzero;stroke:none"
         d="m 71.9414,1189.2 h 555.828 v 232.52 H 71.9414 Z" /><path
         id="path22"
         style="fill:#ffffff;fill-opacity:1;fill-rule:nonzero;stroke:none"
         d="m 381.344,887.008 c 2.937,-3.36 0,-8.399 -4.621,-7.559 v 0 L 336,889.52 V 860.98 69.4141 H 278.91 V 860.98 889.52 l -40.722,-10.071 v 0 c -4.618,-0.84 -7.559,4.199 -4.618,7.559 v 0 l 70.528,78.058 v 0 c 1.679,2.102 5.039,2.102 6.718,0 v 0 l 70.528,-78.058 v 0" /><path
         id="path24"
         style="fill:#ffffff;fill-opacity:1;fill-rule:nonzero;stroke:none"
         d="m 620.211,527.313 c -0.414,-4.188 -6.297,-5.868 -8.395,-2.098 v 0 L 589.566,561.309 569.414,541.172 449.352,421.133 V 69.4141 H 392.676 V 444.219 l 136.855,137.238 20.153,19.723 -36.106,22.246 v 0 c -3.777,2.101 -2.519,7.98 2.102,8.398 v 0 l 104.949,5.449 v 0 c 2.941,0 5.039,-2.089 5.039,-4.605 v 0 l -5.457,-105.355 v 0" /><path
         id="path26"
         style="fill:#ffffff;fill-opacity:1;fill-rule:nonzero;stroke:none"
         d="m 55.1445,1033.05 h 47.8905 v 12.64 H 70.4922 v 86.56 H 55.1445 v -99.2 0" /><path
         id="path28"
         style="fill:#ffffff;fill-opacity:1;fill-rule:nonzero;stroke:none"
         d="m 156.117,1033.05 h 13.363 v 0 c -0.144,1.27 -0.417,3.13 -0.558,5.25 -0.149,2.14 -0.289,4.41 -0.289,6.83 v 0 34.82 0 c 0,4.82 -0.434,8.82 -1.426,11.94 -0.996,3.13 -2.551,5.69 -4.41,7.82 -1.551,1.84 -4.117,3.56 -7.527,5.11 -3.415,1.43 -7.825,2.13 -13.368,2.13 -4.675,0 -8.812,-0.56 -12.351,-1.7 -3.559,-1.13 -6.828,-2.42 -9.535,-3.98 v 0 l 1.136,-12.64 v 0 c 1.86,1.83 4.551,3.55 8.11,5.1 3.414,1.43 7.101,2.13 11.23,2.13 5.254,0 8.957,-1.41 11.219,-4.26 1.137,-1.41 2,-2.97 2.418,-4.67 0.43,-1.87 0.578,-3.86 0.578,-6.13 v 0 -2.98 h -5.258 v 0 c -11.808,0 -20.894,-1.98 -27.011,-5.83 -6.11,-3.98 -9.235,-10.24 -9.235,-18.76 0,-3.42 0.563,-6.4 1.699,-9.1 1.137,-2.7 2.696,-4.83 4.696,-6.69 1.843,-1.84 4.117,-3.12 6.679,-3.97 2.551,-0.98 5.262,-1.42 8.239,-1.42 5.402,0 9.664,1.13 12.929,3.4 3.125,2.14 5.688,4.7 7.535,7.54 v 0 h 0.29 v 0 c 0,-0.42 0,-1.14 0.14,-2.13 0,-1 0,-1.99 0.145,-2.98 0.144,-1 0.144,-1.99 0.289,-2.84 0.14,-1 0.14,-1.57 0.273,-1.99 v 0" /><path
         id="path30"
         style="fill:#ffffff;fill-opacity:1;fill-rule:nonzero;stroke:none"
         d="m 232.738,1033.05 h 13.926 v 0 c -0.133,2.13 -0.273,4.39 -0.418,6.81 -0.144,2.28 -0.144,4.69 -0.144,7.12 v 0 58.98 h -14.789 v -42.78 0 c 0,-5.7 -1.137,-10.24 -3.266,-13.64 -2.133,-3.41 -5.676,-5.13 -10.371,-5.13 -3.844,0 -6.539,1.28 -8.395,3.85 -1.843,2.54 -2.836,6.68 -2.836,12.35 v 0 45.35 h -14.773 v -48.75 0 c 0,-7.67 1.695,-13.79 5.109,-18.34 3.414,-4.55 8.813,-6.82 16.203,-6.82 4.981,0 8.954,1.13 11.938,3.55 2.851,2.28 5.121,5.13 6.969,8.53 v 0 h 0.285 l 0.562,-11.08 v 0" /><path
         id="path32"
         style="fill:#ffffff;fill-opacity:1;fill-rule:nonzero;stroke:none"
         d="m 269.82,1035.89 c 2.258,-1 5.11,-1.99 8.664,-2.71 3.414,-0.69 7.246,-1.13 11.364,-1.13 8.254,0 14.504,1.99 18.906,6.11 4.262,4.12 6.398,9.38 6.398,15.92 v 0 0 0 c 0,4.4 -1.285,7.96 -3.687,10.67 -2.563,2.69 -5.977,5.39 -10.387,7.81 v 0 l -6.39,3.55 v 0 c -3.266,1.85 -5.688,3.41 -7.532,4.98 -1.859,1.43 -2.707,3.41 -2.707,5.84 0,2.54 0.848,4.67 2.707,6.24 1.844,1.56 4.551,2.28 8.239,2.28 2.992,0 5.832,-0.29 8.246,-0.86 2.422,-0.71 4.683,-1.42 6.687,-2.27 v 0 l 0.703,11.94 v 0 c -1.57,0.56 -3.703,1.13 -6.539,1.84 -2.98,0.58 -6.39,0.85 -10.234,0.85 -3.688,0 -6.957,-0.56 -9.953,-1.7 -2.981,-1.13 -5.547,-2.71 -7.676,-4.55 -2.133,-1.99 -3.832,-4.26 -4.969,-6.68 -1.137,-2.56 -1.715,-5.25 -1.715,-7.96 0,-2.55 0.434,-4.83 1.137,-6.83 0.723,-1.98 1.715,-3.68 3,-5.26 1.266,-1.55 2.691,-2.83 4.535,-3.97 1.856,-1.28 3.844,-2.42 6.117,-3.55 v 0 l 7.676,-3.84 v 0 c 3.274,-1.56 5.543,-3.27 6.828,-4.98 1.137,-1.7 1.7,-3.55 1.7,-5.4 0,-2.84 -1.137,-4.96 -3.415,-6.39 -2.273,-1.57 -5.398,-2.28 -9.226,-2.28 -3.563,0 -6.973,0.57 -9.953,1.85 -2.996,1.13 -5.547,2.27 -7.676,3.27 v 0 l -0.848,-12.79 v 0" /><path
         id="path34"
         style="fill:#ffffff;fill-opacity:1;fill-rule:nonzero;stroke:none"
         d="m 376.059,1033.05 h 13.363 v 0 c -0.141,1.27 -0.414,3.13 -0.559,5.25 -0.144,2.14 -0.289,4.41 -0.289,6.83 v 0 34.82 0 c 0,4.82 -0.429,8.82 -1.426,11.94 -0.992,3.13 -2.55,5.69 -4.406,7.82 -1.554,1.84 -4.121,3.56 -7.531,5.11 -3.41,1.43 -7.82,2.13 -13.359,2.13 -4.684,0 -8.817,-0.56 -12.36,-1.7 -3.554,-1.13 -6.828,-2.42 -9.531,-3.98 v 0 l 1.137,-12.64 v 0 c 1.855,1.83 4.55,3.55 8.105,5.1 3.414,1.43 7.102,2.13 11.235,2.13 5.253,0 8.957,-1.41 11.218,-4.26 1.137,-1.41 2,-2.97 2.414,-4.67 0.438,-1.87 0.578,-3.86 0.578,-6.13 v 0 -2.98 h -5.253 v 0 c -11.809,0 -20.895,-1.98 -27.016,-5.83 -6.106,-3.98 -9.231,-10.24 -9.231,-18.76 0,-3.42 0.563,-6.4 1.7,-9.1 1.136,-2.7 2.695,-4.83 4.699,-6.69 1.84,-1.84 4.113,-3.12 6.68,-3.97 2.546,-0.98 5.253,-1.42 8.234,-1.42 5.402,0 9.664,1.13 12.93,3.4 3.125,2.14 5.691,4.7 7.531,7.54 v 0 h 0.289 v 0 c 0,-0.42 0,-1.14 0.144,-2.13 0,-1 0,-1.99 0.141,-2.98 0.149,-1 0.149,-1.99 0.289,-2.84 0.149,-1 0.149,-1.57 0.274,-1.99 v 0" /><path
         id="path36"
         style="fill:#ffffff;fill-opacity:1;fill-rule:nonzero;stroke:none"
         d="m 413.125,1033.05 h 14.789 v 43.2 c 0,5.69 1.137,10.24 3.547,13.51 2.273,3.27 5.687,4.83 10.379,4.83 3.828,0 6.539,-1.27 8.379,-3.84 1.715,-2.56 2.562,-6.68 2.562,-12.37 v 0 -45.33 h 14.778 v 48.75 0 c 0,7.67 -1.7,13.79 -5.114,18.33 -3.414,4.55 -8.812,6.82 -16.199,6.82 -4.258,0 -7.961,-0.99 -11.23,-3.12 -3.27,-2.13 -5.832,-5.12 -7.676,-8.96 v 0 h -0.289 v 0 c 0,0.43 0,1.28 0,2.27 -0.141,1 -0.141,2.14 -0.274,3.27 -0.14,1.14 -0.14,2.28 -0.14,3.27 -0.149,1 -0.149,1.86 -0.149,2.28 v 0 h -13.925 v 0 c 0.132,-2.13 0.273,-4.41 0.421,-6.68 0.141,-2.42 0.141,-4.83 0.141,-7.25 v 0 -58.98 0" /><path
         id="path38"
         style="fill:#ffffff;fill-opacity:1;fill-rule:nonzero;stroke:none"
         d="m 491.996,1033.05 h 14.789 v 43.2 c 0,5.69 1.137,10.24 3.543,13.51 2.274,3.27 5.688,4.83 10.379,4.83 3.832,0 6.539,-1.27 8.383,-3.84 1.715,-2.56 2.566,-6.68 2.566,-12.37 v 0 -45.33 h 14.77 v 48.75 0 c 0,7.67 -1.699,13.79 -5.113,18.33 -3.407,4.55 -8.809,6.82 -16.196,6.82 -4.262,0 -7.965,-0.99 -11.234,-3.12 -3.27,-2.13 -5.832,-5.12 -7.672,-8.96 v 0 h -0.289 v 0 c 0,0.43 0,1.28 0,2.27 -0.145,1 -0.145,2.14 -0.274,3.27 -0.144,1.14 -0.144,2.28 -0.144,3.27 -0.145,1 -0.145,1.86 -0.145,2.28 v 0 h -13.925 v 0 c 0.129,-2.13 0.273,-4.41 0.418,-6.68 0.144,-2.42 0.144,-4.83 0.144,-7.25 v 0 -58.98 0" /><path
         id="path40"
         style="fill:#ffffff;fill-opacity:1;fill-rule:nonzero;stroke:none"
         d="m 581.316,1065.31 h 41.649 v 4.98 c 0,6.39 -0.711,11.8 -1.988,16.49 -1.286,4.68 -3.125,8.52 -5.543,11.5 -2.422,2.99 -5.399,5.13 -8.672,6.54 -3.414,1.43 -7.114,2.13 -11.09,2.13 -4.551,0 -8.664,-0.85 -12.219,-2.69 -3.703,-1.86 -6.828,-4.55 -9.234,-7.82 -2.418,-3.41 -4.406,-7.39 -5.688,-12.08 -1.281,-4.7 -1.988,-9.81 -1.988,-15.35 0,-5.26 0.707,-10.24 1.988,-14.79 1.282,-4.55 3.125,-8.38 5.821,-11.65 2.562,-3.27 5.828,-5.83 9.804,-7.68 3.989,-1.97 8.68,-2.84 13.938,-2.84 4.551,0 8.668,0.44 12.226,1.42 3.543,0.99 6.395,1.98 8.809,2.98 v 0 l -0.715,12.37 v 0 c -1.844,-1.28 -4.266,-2.57 -7.101,-3.83 -2.993,-1.28 -6.54,-2 -10.801,-2 -6.824,0 -11.664,1.85 -14.645,5.69 -2.976,3.7 -4.551,9.24 -4.551,16.63 v 0" /><path
         id="path42"
         style="fill:#ffffff;fill-opacity:1;fill-rule:nonzero;stroke:none"
         d="m 722.816,693.082 h 15.344 v 40.508 l 29.422,58.691 h -16.629 l -20.195,-41.789 -20.606,41.789 h -16.906 l 29.57,-58.418 v -40.781 0" /><path
         id="path44"
         style="fill:#ffffff;fill-opacity:1;fill-rule:nonzero;stroke:none"
         d="m 788.969,693.082 h 17.48 l 22.031,72.902 H 813.707 L 798.07,707.422 h -0.293 l -15.351,58.562 h -15.625 l 22.168,-72.902 v 0" /><path
         id="path46"
         style="fill:#ffffff;fill-opacity:1;fill-rule:nonzero;stroke:none"
         d="m 854.313,725.336 h 41.648 v 4.98 c 0,6.399 -0.711,11.797 -1.992,16.489 -1.278,4.683 -3.125,8.527 -5.547,11.504 -2.41,2.984 -5.399,5.129 -8.66,6.539 -3.418,1.425 -7.121,2.132 -11.094,2.132 -4.551,0 -8.664,-0.847 -12.227,-2.695 -3.703,-1.855 -6.828,-4.551 -9.23,-7.816 -2.422,-3.414 -4.402,-7.387 -5.684,-12.078 -1.277,-4.7 -1.992,-9.809 -1.992,-15.352 0,-5.254 0.715,-10.238 1.992,-14.789 1.282,-4.555 3.125,-8.383 5.813,-11.652 2.566,-3.266 5.84,-5.832 9.812,-7.672 3.985,-1.973 8.684,-2.84 13.938,-2.84 4.551,0 8.672,0.434 12.226,1.414 3.543,0.992 6.395,1.984 8.809,2.98 v 0 l -0.715,12.368 v 0 c -1.844,-1.282 -4.265,-2.563 -7.097,-3.828 -3,-1.286 -6.543,-2.004 -10.801,-2.004 -6.828,0 -11.672,1.859 -14.649,5.691 -2.98,3.699 -4.55,9.242 -4.55,16.629 v 0" /><path
         id="path48"
         style="fill:#ffffff;fill-opacity:1;fill-rule:nonzero;stroke:none"
         d="m 917.613,693.082 h 14.793 v 39.223 c 0,3.687 0.41,6.828 1.262,9.519 0.867,2.707 2,4.84 3.418,6.539 1.426,1.567 3.125,2.852 4.98,3.703 1.844,0.704 3.692,1.137 5.821,1.137 0.859,0 1.707,0 2.422,-0.148 0.711,-0.141 1.562,-0.285 2.273,-0.426 v 0 14.207 0 c -0.293,0 -0.566,0 -0.711,0.144 -0.137,0 -0.43,0 -0.715,0 -2.695,0 -5.117,-0.269 -7.246,-0.996 -2.129,-0.703 -3.828,-1.699 -5.398,-2.976 -1.574,-1.285 -2.981,-2.711 -4.121,-4.262 -1.133,-1.57 -2.129,-3.269 -2.852,-5.129 v 0 h -0.273 v 0 c 0,0.578 0,1.426 0,2.563 -0.149,1.14 -0.149,2.418 -0.286,3.703 -0.144,1.277 -0.144,2.418 -0.144,3.555 -0.148,1.121 -0.148,1.988 -0.148,2.546 v 0 h -13.633 v 0 c 0.129,-2.129 0.273,-4.402 0.422,-6.679 0.136,-2.414 0.136,-4.825 0.136,-7.239 v 0 -58.984 0" /><path
         id="path50"
         style="fill:#ffffff;fill-opacity:1;fill-rule:nonzero;stroke:none"
         d="m 1009.55,693.082 h 14.08 v 0 c -0.15,1.844 -0.27,3.828 -0.42,5.961 -0.15,2.129 -0.15,4.551 -0.15,6.969 v 0 93.672 h -14.78 v -43.93 H 1008 v 0 c -1.85,3.277 -4.27,5.969 -7.25,8.101 -2.98,2.129 -6.828,3.125 -11.508,3.125 -7.676,0 -13.797,-3.125 -18.347,-9.519 -4.551,-6.391 -6.809,-15.637 -6.809,-28.008 0,-5.668 0.559,-10.797 1.699,-15.348 0.988,-4.679 2.688,-8.523 4.836,-11.796 2.129,-3.266 4.824,-5.829 7.949,-7.528 3.125,-1.828 6.825,-2.695 10.946,-2.695 2.707,0 5.129,0.293 7.257,1.121 1.981,0.723 3.827,1.574 5.397,2.711 1.56,1.137 2.83,2.418 3.83,3.828 1,1.426 2,2.852 2.71,4.41 v 0 h 0.43 v 0 c 0,-0.711 0,-1.558 0.13,-2.695 0,-1.141 0,-2.277 0.15,-3.414 0,-1.137 0,-2.129 0.13,-3.121 0,-0.996 0,-1.571 0,-1.844 v 0" /><path
         id="path52"
         style="fill:#ffffff;fill-opacity:1;fill-rule:nonzero;stroke:none"
         d="m 1053,700.883 c 2.71,-2.977 5.98,-5.254 9.81,-6.68 3.7,-1.394 7.67,-2.117 11.95,-2.117 4.27,0 8.24,0.723 12.08,2.117 3.69,1.426 6.95,3.703 9.67,6.68 2.69,3 4.96,6.828 6.53,11.523 1.55,4.692 2.42,10.508 2.42,17.192 v 0 0 0 c 0,6.539 -0.87,12.226 -2.42,16.922 -1.57,4.695 -3.84,8.671 -6.53,11.648 -2.72,2.992 -5.98,5.27 -9.67,6.68 -3.84,1.425 -7.81,2.132 -12.08,2.132 -4.28,0 -8.25,-0.707 -11.95,-2.132 -3.83,-1.41 -7.1,-3.688 -9.81,-6.68 -2.69,-2.977 -4.97,-6.953 -6.53,-11.648 -1.56,-4.696 -2.41,-10.383 -2.41,-16.922 0,-6.684 0.85,-12.5 2.41,-17.192 1.56,-4.695 3.84,-8.523 6.53,-11.523 v 0" /><path
         id="path54"
         style="fill:#ffffff;fill-opacity:1;fill-rule:nonzero;stroke:none"
         d="m 1125.65,693.082 h 14.8 v 43.195 c 0,5.692 1.13,10.243 3.53,13.512 2.27,3.266 5.69,4.84 10.38,4.84 3.84,0 6.54,-1.285 8.39,-3.848 1.71,-2.562 2.56,-6.679 2.56,-12.367 v 0 -45.332 h 14.77 v 48.742 0 c 0,7.68 -1.7,13.797 -5.1,18.332 -3.42,4.551 -8.82,6.824 -16.21,6.824 -4.26,0 -7.97,-0.996 -11.23,-3.125 -3.27,-2.132 -5.84,-5.109 -7.67,-8.953 v 0 h -0.3 v 0 c 0,0.43 0,1.278 0,2.274 -0.14,0.992 -0.14,2.129 -0.27,3.269 -0.14,1.137 -0.14,2.274 -0.14,3.266 -0.14,0.996 -0.14,1.859 -0.14,2.273 v 0 h -13.93 v 0 c 0.13,-2.129 0.28,-4.402 0.41,-6.679 0.15,-2.414 0.15,-4.825 0.15,-7.239 v 0 -58.984 0" /><path
         id="path56"
         style="fill:#ffffff;fill-opacity:1;fill-rule:nonzero;stroke:none"
         d="m 693.246,536.953 h 15.352 v 40.223 h 9.23 v 0 c 10.379,0 18.328,2.558 23.75,7.824 5.254,5.105 7.949,12.488 7.949,22.031 v 0 0 0 c 0,9.512 -2.695,16.77 -8.097,21.739 -5.399,4.968 -12.801,7.39 -22.032,7.39 v 0 h -26.152 v -99.207 0" /><path
         id="path58"
         style="fill:#ffffff;fill-opacity:1;fill-rule:nonzero;stroke:none"
         d="m 763.102,536.953 h 14.793 v 39.227 c 0,3.695 0.41,6.828 1.261,9.523 0.867,2.703 2,4.832 3.418,6.531 1.426,1.575 3.125,2.856 4.981,3.704 1.843,0.703 3.691,1.144 5.82,1.144 0.859,0 1.707,0 2.422,-0.148 0.711,-0.149 1.562,-0.293 2.273,-0.43 v 0 14.211 0 c -0.293,0 -0.566,0 -0.711,0.144 -0.136,0 -0.429,0 -0.714,0 -2.696,0 -5.118,-0.273 -7.247,-0.996 -2.128,-0.703 -3.828,-1.699 -5.398,-2.976 -1.574,-1.282 -2.98,-2.707 -4.121,-4.27 -1.133,-1.562 -2.129,-3.262 -2.852,-5.129 v 0 h -0.273 v 0 c 0,0.578 0,1.43 0,2.571 -0.149,1.132 -0.149,2.421 -0.285,3.703 -0.145,1.277 -0.145,2.418 -0.145,3.551 -0.148,1.125 -0.148,1.992 -0.148,2.55 v 0 h -13.633 v 0 c 0.129,-2.129 0.273,-4.402 0.422,-6.679 0.137,-2.422 0.137,-4.825 0.137,-7.246 v 0 -58.985 0" /><path
         id="path60"
         style="fill:#ffffff;fill-opacity:1;fill-rule:nonzero;stroke:none"
         d="m 811.988,536.953 h 14.793 v 72.91 h -14.793 v -72.91 0" /><path
         id="path62"
         style="fill:#ffffff;fill-opacity:1;fill-rule:nonzero;stroke:none"
         d="m 811.578,624.512 h 15.625 v 15.781 h -15.625 v -15.781 0" /><path
         id="path64"
         style="fill:#ffffff;fill-opacity:1;fill-rule:nonzero;stroke:none"
         d="m 851.539,536.953 h 14.766 v 106.61 h -14.766 v -106.61 0" /><path
         id="path66"
         style="fill:#ffffff;fill-opacity:1;fill-rule:nonzero;stroke:none"
         d="m 891.168,536.953 h 14.766 v 106.61 h -14.766 v -106.61 0" /><path
         id="path68"
         style="fill:#ffffff;fill-opacity:1;fill-rule:nonzero;stroke:none"
         d="m 927.438,518.918 -0.704,-12.082 v 0 c 1.278,-0.441 2.684,-0.711 4.403,-0.996 1.554,-0.293 3.41,-0.43 5.254,-0.43 5.254,0 9.523,1.426 12.519,4.258 2.981,3 5.254,7.258 6.809,12.949 v 0 l 25.879,87.246 h -14.504 l -14.5,-57.285 h -0.285 l -15.489,57.285 h -15.351 l 23.594,-73.761 -2.129,-8.661 v 0 c -0.996,-3.839 -2.137,-6.394 -3.418,-7.824 -1.426,-1.414 -3.27,-2.129 -5.399,-2.129 -1.281,0 -2.558,0.149 -3.554,0.434 -1.145,0.281 -2.129,0.555 -3.125,0.996 v 0" /><path
         id="path70"
         style="fill:#007f46;fill-opacity:1;fill-rule:nonzero;stroke:none"
         d="m 83.2813,1200.53 h 533.148 v 209.855 H 83.2813 Z" /><path
         id="path72"
         style="fill:#1a67bb;fill-opacity:1;fill-rule:nonzero;stroke:none"
         d="m 154.707,1068.72 v -6.54 c 0,-5.83 -1.285,-10.51 -3.848,-14.07 -2.691,-3.7 -6.539,-5.54 -11.793,-5.54 -3.843,0 -6.679,1.14 -8.668,3.27 -1.984,2.13 -2.98,5.11 -2.98,8.67 0,4.83 1.844,8.38 5.672,10.8 3.848,2.41 9.39,3.55 16.633,3.55 0.847,0 1.711,0 2.707,0 0.992,0 1.843,0 2.277,-0.14 v 0" /><path
         id="path74"
         style="fill:#1a67bb;fill-opacity:1;fill-rule:nonzero;stroke:none"
         d="m 374.648,1068.72 v -6.54 c 0,-5.83 -1.281,-10.51 -3.843,-14.07 -2.692,-3.7 -6.539,-5.54 -11.793,-5.54 -3.848,0 -6.684,1.14 -8.672,3.27 -1.985,2.13 -2.977,5.11 -2.977,8.67 0,4.83 1.84,8.38 5.672,10.8 3.844,2.41 9.391,3.55 16.633,3.55 0.848,0 1.715,0 2.703,0 0.996,0 1.848,0 2.277,-0.14 v 0" /><path
         id="path76"
         style="fill:#1a67bb;fill-opacity:1;fill-rule:nonzero;stroke:none"
         d="m 581.316,1075.4 c 0.149,6.69 1.426,11.94 3.848,15.64 2.402,3.55 5.816,5.4 10.078,5.4 8.817,0 13.219,-6.97 13.219,-21.04 v 0 h -27.145 v 0" /><path
         id="path78"
         style="fill:#1a67bb;fill-opacity:1;fill-rule:nonzero;stroke:none"
         d="m 854.313,735.43 c 0.144,6.683 1.425,11.937 3.847,15.64 2.403,3.559 5.82,5.399 10.078,5.399 8.809,0 13.223,-6.965 13.223,-21.039 v 0 h -27.148 v 0" /><path
         id="path80"
         style="fill:#1a67bb;fill-opacity:1;fill-rule:nonzero;stroke:none"
         d="m 982.125,709.984 c -2.129,4.411 -3.262,11.09 -3.262,19.903 0,8.379 1.133,14.789 3.407,19.195 2.277,4.41 5.976,6.672 11.23,6.672 5.254,0 8.96,-2.262 11.37,-6.961 2.27,-4.691 3.41,-11.086 3.41,-19.195 v 0 0 0 c 0,-8.09 -1.14,-14.5 -3.41,-19.176 -2.41,-4.699 -6.253,-7.117 -11.515,-7.117 -5.39,0 -9.093,2.277 -11.23,6.679 v 0" /><path
         id="path82"
         style="fill:#1a67bb;fill-opacity:1;fill-rule:nonzero;stroke:none"
         d="m 1062.81,710.691 c -1.27,2.418 -2.13,5.129 -2.55,8.395 -0.58,3.273 -0.85,6.68 -0.85,10.512 0,3.843 0.27,7.257 0.85,10.531 0.42,3.266 1.28,5.961 2.55,8.379 1.28,2.273 2.85,4.121 4.84,5.398 1.84,1.285 4.26,1.989 7.11,1.989 2.84,0 5.26,-0.704 7.25,-1.989 1.84,-1.277 3.4,-3.125 4.69,-5.398 1.28,-2.418 2.13,-5.113 2.69,-8.379 0.44,-3.274 0.72,-6.688 0.72,-10.531 v 0 0 0 c 0,-3.832 -0.28,-7.239 -0.72,-10.512 -0.56,-3.266 -1.41,-5.977 -2.69,-8.395 -1.29,-2.406 -2.85,-4.261 -4.69,-5.531 -1.99,-1.277 -4.41,-2 -7.25,-2 -2.85,0 -5.27,0.723 -7.11,2 -1.99,1.27 -3.56,3.125 -4.84,5.531 v 0" /><path
         id="path84"
         style="fill:#1a67bb;fill-opacity:1;fill-rule:nonzero;stroke:none"
         d="m 708.598,589.258 v 34.812 h 6.953 v 0 c 6.125,0 10.676,-1.402 13.801,-4.109 2.976,-2.844 4.55,-7.395 4.55,-13.504 v 0 0 0 c 0,-5.551 -1.425,-9.672 -4.277,-12.648 -2.844,-2.977 -7.531,-4.551 -14.211,-4.551 v 0 h -6.816 v 0" /><path
         id="path86"
         style="fill:#ffffff;fill-opacity:1;fill-rule:nonzero;stroke:none"
         d="m 186.313,1270.95 c -1.426,-0.7 -3.125,-1.28 -5.254,-1.7 -2.149,-0.43 -4.137,-0.57 -6.262,-0.57 -4.973,0 -9.375,0.99 -13.227,2.83 -3.828,1.87 -6.953,4.55 -9.367,7.97 -2.566,3.41 -4.41,7.53 -5.691,12.51 -1.282,4.83 -1.985,10.24 -1.985,16.2 0,5.54 0.703,10.66 2.274,15.21 1.554,4.55 3.687,8.39 6.39,11.66 2.696,3.13 5.832,5.55 9.52,7.39 3.699,1.7 7.82,2.57 12.227,2.57 4.121,0 8.25,-0.58 12.226,-1.58 3.828,-1.14 7.527,-2.7 10.801,-4.55 v 0 l 0.43,14.36 v 0 c -2.707,1.28 -6.122,2.42 -10.094,3.27 -4.117,0.71 -8.668,1.14 -13.653,1.14 -7.242,0 -13.636,-1.28 -19.32,-3.7 -5.836,-2.41 -10.66,-5.97 -14.648,-10.37 -3.977,-4.41 -6.953,-9.81 -9.09,-16.06 -2.141,-6.26 -3.266,-13.09 -3.266,-20.62 0,-6.95 0.992,-13.64 2.836,-19.76 1.844,-6.25 4.84,-11.65 8.668,-16.2 3.848,-4.69 8.813,-8.25 14.649,-10.94 5.816,-2.71 12.785,-3.96 20.605,-3.96 5.543,0 10.512,0.56 14.918,1.68 4.402,1 8.105,2.14 10.816,3.42 v 0 51.16 h -30.429 v -12.35 h 15.926 v -29.01 0" /><path
         id="path88"
         style="fill:#ffffff;fill-opacity:1;fill-rule:nonzero;stroke:none"
         d="m 234.453,1289.43 h 41.645 v 4.98 c 0,6.39 -0.707,11.8 -1.989,16.49 -1.281,4.68 -3.125,8.53 -5.546,11.51 -2.415,2.98 -5.399,5.12 -8.665,6.53 -3.414,1.43 -7.117,2.13 -11.089,2.13 -4.551,0 -8.668,-0.85 -12.227,-2.69 -3.703,-1.86 -6.82,-4.55 -9.23,-7.82 -2.414,-3.41 -4.403,-7.38 -5.688,-12.08 -1.277,-4.69 -1.988,-9.81 -1.988,-15.35 0,-5.25 0.711,-10.24 1.988,-14.79 1.285,-4.55 3.125,-8.38 5.82,-11.65 2.559,-3.27 5.832,-5.83 9.805,-7.67 3.988,-1.97 8.684,-2.84 13.941,-2.84 4.551,0 8.668,0.43 12.223,1.41 3.543,1 6.395,1.99 8.813,2.98 v 0 l -0.719,12.37 v 0 c -1.844,-1.28 -4.262,-2.56 -7.098,-3.83 -2.996,-1.28 -6.539,-2 -10.801,-2 -6.828,0 -11.668,1.85 -14.644,5.69 -2.984,3.7 -4.551,9.24 -4.551,16.63 v 0" /><path
         id="path90"
         style="fill:#ffffff;fill-opacity:1;fill-rule:nonzero;stroke:none"
         d="m 297.754,1257.17 h 14.789 v 43.2 c 0,5.69 1.137,10.24 3.539,13.51 2.277,3.27 5.691,4.84 10.387,4.84 3.828,0 6.539,-1.28 8.379,-3.84 1.715,-2.57 2.562,-6.69 2.562,-12.38 v 0 -45.33 h 14.778 v 48.75 0 c 0,7.67 -1.7,13.79 -5.114,18.33 -3.414,4.55 -8.812,6.82 -16.199,6.82 -4.266,0 -7.965,-0.99 -11.23,-3.12 -3.274,-2.13 -5.836,-5.11 -7.676,-8.96 v 0 h -0.289 v 0 c 0,0.44 0,1.28 0,2.28 -0.141,0.99 -0.141,2.13 -0.274,3.27 -0.148,1.14 -0.148,2.27 -0.148,3.26 -0.141,1 -0.141,1.86 -0.141,2.28 v 0 h -13.926 v 0 c 0.133,-2.13 0.274,-4.4 0.422,-6.68 0.141,-2.42 0.141,-4.83 0.141,-7.24 v 0 -58.99 0" /><path
         id="path92"
         style="fill:#ffffff;fill-opacity:1;fill-rule:nonzero;stroke:none"
         d="m 398.496,1339.04 h 10.098 l -9.25,20.6 h -15.352 l 14.504,-20.6 v 0" /><path
         id="path94"
         style="fill:#ffffff;fill-opacity:1;fill-rule:nonzero;stroke:none"
         d="m 387.555,1289.43 h 41.644 v 4.98 c 0,6.39 -0.707,11.8 -1.988,16.49 -1.285,4.68 -3.125,8.53 -5.547,11.51 -2.418,2.98 -5.398,5.12 -8.668,6.53 -3.41,1.43 -7.113,2.13 -11.086,2.13 -4.551,0 -8.668,-0.85 -12.226,-2.69 -3.704,-1.86 -6.829,-4.55 -9.231,-7.82 -2.422,-3.41 -4.402,-7.38 -5.687,-12.08 -1.282,-4.69 -1.989,-9.81 -1.989,-15.35 0,-5.25 0.707,-10.24 1.989,-14.79 1.285,-4.55 3.125,-8.38 5.816,-11.65 2.563,-3.27 5.832,-5.83 9.809,-7.67 3.988,-1.97 8.679,-2.84 13.941,-2.84 4.543,0 8.664,0.43 12.219,1.41 3.547,1 6.398,1.99 8.816,2.98 v 0 l -0.719,12.37 v 0 c -1.847,-1.28 -4.261,-2.56 -7.101,-3.83 -2.996,-1.28 -6.535,-2 -10.801,-2 -6.824,0 -11.664,1.85 -14.641,5.69 -2.984,3.7 -4.55,9.24 -4.55,16.63 v 0" /><path
         id="path96"
         style="fill:#ffffff;fill-opacity:1;fill-rule:nonzero;stroke:none"
         d="m 464.402,1257.17 h 17.481 l 22.039,72.91 h -14.777 l -15.641,-58.57 h -0.285 l -15.352,58.57 h -15.621 l 22.156,-72.91 v 0" /><path
         id="path98"
         style="fill:#ffffff;fill-opacity:1;fill-rule:nonzero;stroke:none"
         d="m 529.75,1289.43 h 41.645 v 4.98 c 0,6.39 -0.704,11.8 -1.985,16.49 -1.281,4.68 -3.125,8.53 -5.543,11.51 -2.422,2.98 -5.402,5.12 -8.672,6.53 -3.414,1.43 -7.109,2.13 -11.086,2.13 -4.55,0 -8.671,-0.85 -12.226,-2.69 -3.699,-1.86 -6.824,-4.55 -9.231,-7.82 -2.418,-3.41 -4.406,-7.38 -5.683,-12.08 -1.285,-4.69 -1.989,-9.81 -1.989,-15.35 0,-5.25 0.704,-10.24 1.989,-14.79 1.277,-4.55 3.117,-8.38 5.812,-11.65 2.567,-3.27 5.832,-5.83 9.805,-7.67 3.992,-1.97 8.687,-2.84 13.941,-2.84 4.551,0 8.668,0.43 12.227,1.41 3.543,1 6.391,1.99 8.812,2.98 v 0 l -0.722,12.37 v 0 c -1.84,-1.28 -4.262,-2.56 -7.098,-3.83 -2.992,-1.28 -6.539,-2 -10.801,-2 -6.82,0 -11.66,1.85 -14.644,5.69 -2.977,3.7 -4.551,9.24 -4.551,16.63 v 0" /><path
         id="path100"
         style="fill:#007f46;fill-opacity:1;fill-rule:nonzero;stroke:none"
         d="m 234.453,1299.52 c 0.141,6.69 1.426,11.94 3.844,15.64 2.406,3.56 5.82,5.4 10.082,5.4 8.812,0 13.219,-6.97 13.219,-21.04 v 0 h -27.145 v 0" /><path
         id="path102"
         style="fill:#007f46;fill-opacity:1;fill-rule:nonzero;stroke:none"
         d="m 387.555,1299.52 c 0.14,6.69 1.425,11.94 3.84,15.64 2.41,3.56 5.82,5.4 10.085,5.4 8.813,0 13.215,-6.97 13.215,-21.04 v 0 h -27.14 v 0" /><path
         id="path104"
         style="fill:#007f46;fill-opacity:1;fill-rule:nonzero;stroke:none"
         d="m 529.75,1299.52 c 0.148,6.69 1.426,11.94 3.848,15.64 2.402,3.56 5.816,5.4 10.078,5.4 8.812,0 13.219,-6.97 13.219,-21.04 v 0 H 529.75 v 0" /></g></g></svg>