<?xml version="1.0" encoding="UTF-8" standalone="no"?>
<svg
   xmlns:dc="http://purl.org/dc/elements/1.1/"
   xmlns:cc="http://creativecommons.org/ns#"
   xmlns:rdf="http://www.w3.org/1999/02/22-rdf-syntax-ns#"
   xmlns:svg="http://www.w3.org/2000/svg"
   xmlns="http://www.w3.org/2000/svg"
   viewBox="0 0 181.8 144"
   height="144"
   width="181.8"
   xml:space="preserve"
   id="svg2"
   version="1.1"><metadata
     id="metadata8"><rdf:RDF><cc:Work
         rdf:about=""><dc:format>image/svg+xml</dc:format><dc:type
           rdf:resource="http://purl.org/dc/dcmitype/StillImage" /></cc:Work></rdf:RDF></metadata><defs
     id="defs6" /><g
     transform="matrix(1.3333333,0,0,-1.3333333,0,144)"
     id="g10"><g
       transform="scale(0.1)"
       id="g12"><path
         id="path14"
         style="fill:#ffffff;fill-opacity:1;fill-rule:nonzero;stroke:none"
         d="M 1.41797,1.41797 H 1362.048 V 1078.578 H 1.41797 Z" /><path
         id="path16"
         style="fill:none;stroke:#231f20;stroke-width:2.83500004;stroke-linecap:butt;stroke-linejoin:miter;stroke-miterlimit:4;stroke-dasharray:none;stroke-opacity:1"
         d="M 1.41797,1.41797 H 1362.05 V 1078.58 H 1.41797 V 1.41797" /><path
         id="path18"
         style="fill:#231f20;fill-opacity:1;fill-rule:nonzero;stroke:none"
         d="m 1344.82,1005.03 c -0.01,31.08 -25.23,56.63 -56.63,56.63 v 0 H 74.9766 v 0 c -31.3907,0 -56.6328,-25.55 -56.6328,-56.63 v 0 -929.7566 0 c 0,-31.3867 25.2421,-56.9336 56.6328,-56.9336 v 0 H 1288.19 v 0 c 31.4,0 56.63,25.5469 56.63,56.9336 v 0 929.7566 0" /><path
         id="path20"
         style="fill:#ffffff;fill-opacity:1;fill-rule:nonzero;stroke:none"
         d="M 1327.89,1005.03 V 75.2734 c 0,-22.1601 -17.84,-39.6992 -39.7,-39.6992 v 0 H 74.9766 v 0 c -21.8516,0 -39.7032,17.5391 -39.7032,39.6992 v 0 929.7566 0 c 0,21.85 17.8516,39.7 39.7032,39.4 v 0 H 1288.19 v 0 c 21.86,0.3 39.7,-17.55 39.7,-39.4 v 0" /><path
         id="path22"
         style="fill:#231f20;fill-opacity:1;fill-rule:nonzero;stroke:none"
         d="m 517.234,520.918 c 3.075,-0.934 3.079,-5.543 -0.304,-6.465 v 0 l -30.164,-8.926 10.464,-18.468 71.094,-122.793 V 80.8086 H 525.855 V 352.883 l -65.25,112.949 -10.773,18.461 -22.773,-21.852 v 0 c -2.461,-2.461 -6.465,0 -5.848,3.075 v 0 l 16.621,77.254 v 0 c 0.309,1.843 2.461,3.074 4.313,2.46 v 0 l 75.089,-24.312 v 0" /><path
         id="path24"
         style="fill:#231f20;fill-opacity:1;fill-rule:nonzero;stroke:none"
         d="m 1012.74,588.316 c 0.62,-3.386 -3.07,-5.539 -5.54,-3.078 v 0 L 984.121,606.781 973.652,588.625 837.617,352.883 V 80.8086 H 795.145 V 364.266 l 141.574,245.593 10.769,18.465 -30.468,8.926 v 0 c -3.075,0.926 -3.379,5.234 0,6.465 v 0 l 75.097,24.312 v 0 c 1.848,0.614 3.692,-0.617 4.309,-2.461 v 0 l 16.314,-77.25 v 0" /><path
         id="path26"
         style="fill:#231f20;fill-opacity:1;fill-rule:nonzero;stroke:none"
         d="M 69.4297,608.008 H 116.27 v 10.105 H 83.1797 l 32.5193,58.907 v 10.343 H 70.4492 V 677.242 H 101.254 L 69.4297,619.137 v -11.129 0" /><path
         id="path28"
         style="fill:#231f20;fill-opacity:1;fill-rule:nonzero;stroke:none"
         d="m 129.797,608.008 h 11.82 v 58.316 h -11.82 v -58.316 0" /><path
         id="path30"
         style="fill:#231f20;fill-opacity:1;fill-rule:nonzero;stroke:none"
         d="m 129.461,678.047 h 12.5 v 12.613 h -12.5 v -12.613 0" /><path
         id="path32"
         style="fill:#231f20;fill-opacity:1;fill-rule:nonzero;stroke:none"
         d="m 161.461,608.008 h 11.82 v 35.691 c 0,4.324 0.907,7.617 2.621,10.012 1.7,2.387 4.321,3.523 7.618,3.523 5.46,0 8.195,-3.64 8.195,-10.808 v 0 -38.418 h 11.82 v 35.691 0 c 0,4.324 0.906,7.617 2.606,10.012 1.714,2.387 4.324,3.523 7.617,3.523 5.461,0 8.195,-3.64 8.195,-10.808 v 0 -38.418 h 11.82 v 38.199 0 c 0,6.809 -1.367,12.055 -4.085,15.566 -2.852,3.532 -7.055,5.356 -12.731,5.356 -3.758,0 -6.824,-0.918 -9.219,-2.734 -2.386,-1.93 -4.203,-4.086 -5.687,-6.481 -0.563,1.141 -1.25,2.277 -2.043,3.414 -0.793,1.02 -1.817,2.047 -2.953,2.953 -1.137,0.793 -2.504,1.481 -3.989,2.043 -1.468,0.574 -3.296,0.805 -5.226,0.805 -3.641,0 -6.594,-0.918 -8.988,-2.734 -2.387,-1.93 -4.317,-4.204 -5.571,-7.043 v 0 h -0.215 v 0 c 0,0.332 0,1.023 0,1.929 -0.117,0.793 -0.117,1.699 -0.117,2.61 -0.113,0.922 -0.113,1.828 -0.113,2.621 -0.117,0.793 -0.117,1.484 -0.117,1.812 v 0 h -11.707 v 0 c 0.101,-1.582 0.218,-3.297 0.332,-5.113 0.117,-1.813 0.117,-3.754 0.117,-5.918 v 0 -47.285 0" /><path
         id="path34"
         style="fill:#231f20;fill-opacity:1;fill-rule:nonzero;stroke:none"
         d="m 253.316,608.008 h 11.825 v 35.691 c 0,4.324 0.906,7.617 2.617,10.012 1.699,2.387 4.32,3.523 7.617,3.523 5.461,0 8.195,-3.64 8.195,-10.808 v 0 -38.418 h 11.825 v 35.691 0 c 0,4.324 0.902,7.617 2.601,10.012 1.715,2.387 4.324,3.523 7.625,3.523 5.453,0 8.192,-3.64 8.192,-10.808 v 0 -38.418 h 11.82 v 38.199 0 c 0,6.809 -1.367,12.055 -4.09,15.566 -2.852,3.532 -7.055,5.356 -12.73,5.356 -3.754,0 -6.825,-0.918 -9.215,-2.734 -2.391,-1.93 -4.203,-4.086 -5.688,-6.481 -0.562,1.141 -1.254,2.277 -2.047,3.414 -0.789,1.02 -1.808,2.047 -2.949,2.953 -1.137,0.793 -2.508,1.481 -3.988,2.043 -1.469,0.574 -3.301,0.805 -5.231,0.805 -3.64,0 -6.593,-0.918 -8.984,-2.734 -2.391,-1.93 -4.32,-4.204 -5.57,-7.043 v 0 h -0.219 v 0 c 0,0.332 0,1.023 0,1.929 -0.113,0.793 -0.113,1.699 -0.113,2.61 -0.118,0.922 -0.118,1.828 -0.118,2.621 -0.113,0.793 -0.113,1.484 -0.113,1.812 v 0 h -11.707 v 0 c 0.102,-1.582 0.215,-3.297 0.332,-5.113 0.113,-1.813 0.113,-3.754 0.113,-5.918 v 0 -47.285 0" /><path
         id="path36"
         style="fill:#231f20;fill-opacity:1;fill-rule:nonzero;stroke:none"
         d="m 353.539,633.809 h 33.313 v 3.972 c 0,5.129 -0.563,9.449 -1.59,13.196 -1.02,3.753 -2.504,6.82 -4.434,9.214 -1.926,2.391 -4.32,4.09 -6.941,5.231 -2.719,1.137 -5.688,1.707 -8.867,1.707 -3.629,0 -6.93,-0.688 -9.782,-2.16 -2.949,-1.485 -5.453,-3.641 -7.386,-6.262 -1.93,-2.723 -3.528,-5.902 -4.551,-9.664 -1.02,-3.738 -1.582,-7.848 -1.582,-12.281 0,-4.203 0.562,-8.176 1.582,-11.821 1.023,-3.64 2.508,-6.714 4.668,-9.316 2.047,-2.621 4.664,-4.668 7.847,-6.152 3.184,-1.567 6.926,-2.262 11.133,-2.262 3.641,0 6.938,0.348 9.789,1.125 2.836,0.797 5.114,1.602 7.039,2.391 v 0 l -0.558,9.894 v 0 c -1.481,-1.023 -3.414,-2.047 -5.692,-3.066 -2.386,-1.028 -5.222,-1.602 -8.636,-1.602 -5.457,0 -9.332,1.485 -11.723,4.551 -2.371,2.953 -3.629,7.387 -3.629,13.305 v 0" /><path
         id="path38"
         style="fill:#231f20;fill-opacity:1;fill-rule:nonzero;stroke:none"
         d="m 404.172,608.008 h 11.824 v 31.379 c 0,2.949 0.34,5.453 1.02,7.617 0.695,2.156 1.597,3.855 2.734,5.223 1.137,1.253 2.504,2.277 3.977,2.953 1.484,0.578 2.968,0.918 4.668,0.918 0.671,0 1.367,0 1.925,-0.114 0.578,-0.117 1.258,-0.226 1.832,-0.343 v 0 11.375 0 c -0.234,0 -0.464,0 -0.574,0.113 -0.117,0 -0.348,0 -0.562,0 -2.164,0 -4.106,-0.231 -5.805,-0.805 -1.715,-0.562 -3.066,-1.355 -4.324,-2.375 -1.25,-1.039 -2.387,-2.176 -3.293,-3.414 -0.91,-1.254 -1.715,-2.621 -2.278,-4.105 v 0 h -0.23 v 0 c 0,0.465 0,1.136 0,2.047 -0.117,0.921 -0.117,1.945 -0.227,2.968 -0.117,1.02 -0.117,1.93 -0.117,2.836 -0.105,0.903 -0.105,1.598 -0.105,2.043 v 0 h -10.91 v 0 c 0.101,-1.699 0.214,-3.511 0.332,-5.344 0.113,-1.925 0.113,-3.855 0.113,-5.8 v 0 -47.172 0" /><path
         id="path40"
         style="fill:#231f20;fill-opacity:1;fill-rule:nonzero;stroke:none"
         d="m 458.129,608.008 h 13.187 l 10.7,47.285 h 0.218 l 11.375,-47.285 h 13.075 l 15.351,58.316 h -11.59 l -10.125,-47.07 h -0.226 l -10.574,47.07 h -13.77 l -10.453,-47.07 h -0.231 l -10.238,47.07 h -12.265 l 15.566,-58.316 v 0" /><path
         id="path42"
         style="fill:#231f20;fill-opacity:1;fill-rule:nonzero;stroke:none"
         d="m 566.258,608.008 h 10.683 v 0 c -0.101,1.019 -0.332,2.492 -0.441,4.203 -0.117,1.699 -0.234,3.512 -0.234,5.457 v 0 27.848 0 c 0,3.875 -0.344,7.058 -1.141,9.562 -0.789,2.488 -2.039,4.535 -3.523,6.25 -1.254,1.485 -3.297,2.836 -6.02,4.094 -2.734,1.137 -6.25,1.707 -10.684,1.707 -3.761,0 -7.058,-0.457 -9.894,-1.367 -2.852,-0.903 -5.457,-1.93 -7.617,-3.18 v 0 l 0.91,-10.125 v 0 c 1.465,1.484 3.625,2.836 6.476,4.09 2.723,1.137 5.692,1.715 8.985,1.715 4.207,0 7.16,-1.137 8.972,-3.414 0.922,-1.137 1.602,-2.391 1.942,-3.758 0.332,-1.473 0.449,-3.067 0.449,-4.883 v 0 -2.391 h -4.203 v 0 c -9.434,0 -16.719,-1.593 -21.602,-4.668 -4.898,-3.175 -7.386,-8.175 -7.386,-15.003 0,-2.735 0.441,-5.122 1.351,-7.286 0.907,-2.156 2.164,-3.855 3.758,-5.339 1.473,-1.469 3.297,-2.493 5.344,-3.184 2.047,-0.777 4.203,-1.125 6.597,-1.125 4.321,0 7.727,0.894 10.352,2.727 2.488,1.699 4.535,3.738 6.02,6.015 v 0 h 0.23 v 0 c 0,-0.328 0,-0.902 0.117,-1.699 0,-0.793 0,-1.598 0.11,-2.391 0.117,-0.789 0.117,-1.593 0.222,-2.273 0.11,-0.789 0.11,-1.254 0.227,-1.582 v 0" /><path
         id="path44"
         style="fill:#231f20;fill-opacity:1;fill-rule:nonzero;stroke:none"
         d="m 595.777,608.008 h 11.825 v 85.273 h -11.825 v -85.273 0" /><path
         id="path46"
         style="fill:#231f20;fill-opacity:1;fill-rule:nonzero;stroke:none"
         d="m 654.156,608.008 h 11.258 v 0 c -0.113,1.465 -0.23,3.066 -0.34,4.765 -0.117,1.715 -0.117,3.645 -0.117,5.571 v 0 74.937 h -11.824 v -35.136 h -0.227 v 0 c -1.472,2.609 -3.398,4.765 -5.793,6.48 -2.386,1.699 -5.457,2.504 -9.215,2.504 -6.136,0 -11.027,-2.504 -14.66,-7.617 -3.644,-5.121 -5.457,-12.508 -5.457,-22.403 0,-4.55 0.446,-8.64 1.356,-12.285 0.804,-3.746 2.156,-6.824 3.871,-9.433 1.699,-2.618 3.863,-4.664 6.367,-6.032 2.504,-1.453 5.453,-2.148 8.754,-2.148 2.16,0 4.086,0.23 5.801,0.894 1.586,0.575 3.07,1.254 4.32,2.165 1.258,0.918 2.277,1.941 3.066,3.078 0.793,1.14 1.59,2.277 2.164,3.511 v 0 h 0.344 v 0 c 0,-0.558 0,-1.234 0.117,-2.156 0,-0.91 0,-1.816 0.102,-2.726 0,-0.903 0,-1.707 0.113,-2.504 0,-0.793 0,-1.25 0,-1.465 v 0" /><path
         id="path48"
         style="fill:#231f20;fill-opacity:1;fill-rule:nonzero;stroke:none"
         d="m 854.551,727.105 h 12.265 v 37.86 h 0.34 l 25.703,-37.86 h 15.352 l -30.586,41.95 28.195,37.41 h -14.328 l -24.336,-34 h -0.34 v 34 h -12.265 v -79.36 0" /><path
         id="path50"
         style="fill:#231f20;fill-opacity:1;fill-rule:nonzero;stroke:none"
         d="m 925.086,752.91 h 33.312 v 3.977 c 0,5.125 -0.558,9.445 -1.582,13.187 -1.027,3.758 -2.511,6.824 -4.433,9.219 -1.934,2.387 -4.328,4.086 -6.945,5.223 -2.723,1.136 -5.684,1.714 -8.868,1.714 -3.632,0 -6.933,-0.687 -9.785,-2.16 -2.949,-1.48 -5.449,-3.64 -7.383,-6.261 -1.933,-2.719 -3.523,-5.907 -4.55,-9.664 -1.024,-3.743 -1.582,-7.848 -1.582,-12.282 0,-4.203 0.558,-8.179 1.582,-11.82 1.027,-3.648 2.511,-6.715 4.668,-9.32 2.043,-2.618 4.668,-4.664 7.843,-6.149 3.184,-1.566 6.934,-2.261 11.153,-2.261 3.621,0 6.922,0.347 9.773,1.125 2.832,0.789 5.109,1.601 7.043,2.39 v 0 l -0.566,9.895 v 0 c -1.477,-1.028 -3.411,-2.047 -5.684,-3.067 -2.394,-1.027 -5.227,-1.601 -8.644,-1.601 -5.458,0 -9.325,1.484 -11.719,4.55 -2.371,2.954 -3.633,7.387 -3.633,13.305 v 0" /><path
         id="path52"
         style="fill:#231f20;fill-opacity:1;fill-rule:nonzero;stroke:none"
         d="m 975.867,727.105 h 11.817 v 34.559 c 0,4.551 0.91,8.195 2.843,10.801 1.825,2.625 4.551,3.875 8.309,3.875 3.064,0 5.224,-1.024 6.714,-3.07 1.34,-2.059 2.04,-5.356 2.04,-9.891 v 0 -36.274 h 11.82 v 38.997 0 c 0,6.132 -1.36,11.031 -4.09,14.675 -2.73,3.625 -7.06,5.453 -12.98,5.453 -3.856,0 -6.918,-0.902 -9.078,-2.617 -2.278,-1.816 -4.102,-3.746 -5.34,-5.918 v 0 h -0.238 v 34.688 h -11.817 v -85.278 0" /><path
         id="path54"
         style="fill:#231f20;fill-opacity:1;fill-rule:nonzero;stroke:none"
         d="m 1039.84,727.105 h 11.83 v 31.375 c 0,2.954 0.34,5.461 1.03,7.622 0.68,2.16 1.59,3.875 2.73,5.226 1.13,1.254 2.5,2.274 3.97,2.969 1.49,0.562 2.96,0.902 4.66,0.902 0.69,0 1.38,0 1.94,-0.109 0.57,-0.121 1.25,-0.231 1.82,-0.348 v 0 11.375 0 c -0.22,0 -0.46,0 -0.57,0.113 -0.12,0 -0.35,0 -0.56,0 -2.16,0 -4.1,-0.23 -5.8,-0.804 -1.7,-0.563 -3.08,-1.356 -4.33,-2.375 -1.25,-1.024 -2.39,-2.164 -3.3,-3.414 -0.9,-1.254 -1.71,-2.621 -2.26,-4.106 v 0 h -0.24 v 0 c 0,0.465 0,1.141 0,2.063 -0.12,0.906 -0.12,1.926 -0.23,2.949 -0.11,1.023 -0.11,1.934 -0.11,2.836 -0.11,0.906 -0.11,1.601 -0.11,2.047 v 0 h -10.92 v 0 c 0.11,-1.699 0.23,-3.512 0.34,-5.344 0.11,-1.93 0.11,-3.855 0.11,-5.785 v 0 -47.192 0" /><path
         id="path56"
         style="fill:#231f20;fill-opacity:1;fill-rule:nonzero;stroke:none"
         d="m 1078.05,729.363 c 1.81,-0.789 4.09,-1.582 6.92,-2.156 2.74,-0.547 5.81,-0.894 9.1,-0.894 6.6,0 11.59,1.585 15.13,4.882 3.41,3.297 5.12,7.5 5.12,12.731 v 0 0 0 c 0,3.523 -1.04,6.363 -2.96,8.523 -2.06,2.16 -4.77,4.332 -8.29,6.266 v 0 l -5.13,2.84 v 0 c -2.61,1.476 -4.54,2.73 -6.03,3.988 -1.48,1.137 -2.16,2.719 -2.16,4.648 0,2.043 0.68,3.758 2.16,5.008 1.49,1.258 3.64,1.817 6.61,1.817 2.38,0 4.65,-0.231 6.59,-0.676 1.93,-0.578 3.74,-1.141 5.34,-1.828 v 0 l 0.57,9.558 v 0 c -1.25,0.446 -2.97,0.91 -5.24,1.473 -2.39,0.457 -5.11,0.687 -8.17,0.687 -2.97,0 -5.58,-0.46 -7.97,-1.367 -2.39,-0.906 -4.44,-2.156 -6.14,-3.644 -1.7,-1.582 -3.07,-3.41 -3.98,-5.34 -0.91,-2.047 -1.37,-4.203 -1.37,-6.367 0,-2.043 0.35,-3.871 0.92,-5.453 0.56,-1.602 1.36,-2.957 2.38,-4.207 1.02,-1.254 2.15,-2.274 3.64,-3.18 1.48,-1.024 3.06,-1.945 4.9,-2.856 v 0 l 6.13,-3.062 v 0 c 2.62,-1.258 4.43,-2.625 5.46,-3.977 0.91,-1.367 1.37,-2.851 1.37,-4.32 0,-2.277 -0.91,-3.988 -2.74,-5.129 -1.81,-1.25 -4.32,-1.812 -7.39,-1.812 -2.83,0 -5.57,0.445 -7.96,1.48 -2.39,0.91 -4.43,1.817 -6.13,2.609 v 0 l -0.68,-10.242 v 0" /><path
         id="path58"
         style="fill:#231f20;fill-opacity:1;fill-rule:nonzero;stroke:none"
         d="m 1163.04,727.105 h 10.7 v 0 c -0.12,1.024 -0.35,2.493 -0.46,4.208 -0.12,1.699 -0.23,3.511 -0.23,5.453 v 0 27.851 0 c 0,3.875 -0.35,7.059 -1.15,9.563 -0.79,2.492 -2.04,4.55 -3.52,6.25 -1.24,1.484 -3.3,2.836 -6.02,4.086 -2.73,1.136 -6.25,1.714 -10.68,1.714 -3.76,0 -7.06,-0.46 -9.89,-1.367 -2.86,-0.906 -5.46,-1.929 -7.62,-3.183 v 0 l 0.9,-10.121 v 0 c 1.47,1.484 3.63,2.836 6.48,4.089 2.73,1.137 5.68,1.715 8.99,1.715 4.21,0 7.16,-1.136 8.97,-3.414 0.92,-1.136 1.59,-2.39 1.94,-3.758 0.34,-1.472 0.45,-3.066 0.45,-4.882 v 0 -2.387 h -4.2 v 0 c -9.44,0 -16.72,-1.606 -21.61,-4.668 -4.89,-3.18 -7.38,-8.18 -7.38,-15.008 0,-2.734 0.44,-5.125 1.35,-7.285 0.9,-2.156 2.17,-3.856 3.76,-5.34 1.48,-1.473 3.3,-2.492 5.34,-3.183 2.05,-0.778 4.21,-1.125 6.6,-1.125 4.32,0 7.72,0.894 10.35,2.726 2.49,1.699 4.53,3.738 6.02,6.016 v 0 h 0.23 v 0 c 0,-0.332 0,-0.907 0.12,-1.7 0,-0.792 0,-1.597 0.11,-2.386 0.11,-0.793 0.11,-1.606 0.21,-2.278 0.12,-0.793 0.12,-1.253 0.24,-1.586 v 0" /><path
         id="path60"
         style="fill:#231f20;fill-opacity:1;fill-rule:nonzero;stroke:none"
         d="m 1219.8,728.012 v 8.875 c -0.81,-0.348 -1.6,-0.696 -2.5,-0.926 -0.91,-0.332 -1.93,-0.445 -3.19,-0.445 -2.16,0 -3.64,0.675 -4.66,1.929 -1.02,1.25 -1.48,3.414 -1.48,6.598 v 0 32.297 h 11.83 v 9.086 h -11.83 v 15.469 l -11.83,-3.516 v -11.953 h -9.32 v -9.086 h 9.32 v -34.692 0 c 0,-5.57 1.25,-9.543 3.88,-11.82 2.61,-2.39 6.25,-3.515 11.02,-3.515 1.7,0 3.4,0.117 4.89,0.464 1.48,0.43 2.84,0.778 3.87,1.235 v 0" /><path
         id="path62"
         style="fill:#231f20;fill-opacity:1;fill-rule:nonzero;stroke:none"
         d="m 1233.74,727.105 h 38.53 v 9.434 h -26.37 l 25.7,38.551 v 10.336 h -37.07 v -9.43 h 25.13 l -25.92,-38.437 v -10.454 0" /><path
         id="path64"
         style="fill:#1a67bb;fill-opacity:1;fill-rule:nonzero;stroke:none"
         d="m 933.953,840.375 h 288.996 V 999.18 H 933.953 Z" /><path
         id="path66"
         style="fill:#ffffff;fill-opacity:1;fill-rule:nonzero;stroke:none"
         d="m 353.539,641.891 c 0.117,5.339 1.137,9.543 3.066,12.5 1.934,2.843 4.668,4.316 8.083,4.316 7.039,0 10.57,-5.57 10.57,-16.816 v 0 h -21.719 v 0" /><path
         id="path68"
         style="fill:#ffffff;fill-opacity:1;fill-rule:nonzero;stroke:none"
         d="m 565.121,636.531 v -5.226 c 0,-4.649 -1.023,-8.41 -3.066,-11.246 -2.164,-2.969 -5.231,-4.434 -9.434,-4.434 -3.082,0 -5.34,0.902 -6.941,2.602 -1.598,1.714 -2.391,4.093 -2.391,6.945 0,3.855 1.484,6.707 4.551,8.637 3.066,1.929 7.5,2.836 13.308,2.836 0.672,0 1.368,0 2.157,0 0.793,0 1.484,0 1.816,-0.114 v 0" /><path
         id="path70"
         style="fill:#ffffff;fill-opacity:1;fill-rule:nonzero;stroke:none"
         d="m 632.211,621.527 c -1.699,3.528 -2.606,8.868 -2.606,15.922 0,6.715 0.907,11.828 2.719,15.356 1.832,3.511 4.781,5.34 8.989,5.34 4.203,0 7.167,-1.829 9.097,-5.571 1.817,-3.761 2.723,-8.875 2.723,-15.351 v 0 0 0 c 0,-6.481 -0.906,-11.61 -2.723,-15.348 -1.93,-3.762 -5.012,-5.687 -9.215,-5.687 -4.32,0 -7.269,1.812 -8.984,5.339 v 0" /><path
         id="path72"
         style="fill:#ffffff;fill-opacity:1;fill-rule:nonzero;stroke:none"
         d="m 925.086,760.992 c 0.117,5.34 1.144,9.543 3.078,12.492 1.922,2.856 4.656,4.325 8.074,4.325 7.043,0 10.567,-5.575 10.567,-16.817 v 0 h -21.719 v 0" /><path
         id="path74"
         style="fill:#ffffff;fill-opacity:1;fill-rule:nonzero;stroke:none"
         d="m 1161.9,755.648 v -5.242 c 0,-4.652 -1.02,-8.41 -3.06,-11.246 -2.17,-2.969 -5.24,-4.437 -9.44,-4.437 -3.08,0 -5.34,0.906 -6.94,2.605 -1.6,1.715 -2.39,4.094 -2.39,6.945 0,3.856 1.48,6.707 4.55,8.637 3.06,1.93 7.5,2.836 13.31,2.836 0.67,0 1.37,0 2.16,0 0.79,0 1.48,0 1.81,-0.098 v 0" /><path
         id="path76"
         style="fill:#ffffff;fill-opacity:1;fill-rule:nonzero;stroke:none"
         d="m 974.727,885.922 h 21.601 v 0 c 3.972,0 7.502,0.562 10.562,1.699 3.07,1.02 5.58,2.621 7.74,4.551 2.16,1.93 3.76,4.32 4.9,7.043 1.02,2.621 1.58,5.57 1.58,8.754 v 0 0 0 c 0,3.082 -0.45,5.687 -1.26,8.078 -0.9,2.273 -2.04,4.207 -3.39,5.805 -1.48,1.468 -3.08,2.718 -4.78,3.64 -1.82,0.91 -3.64,1.473 -5.46,1.817 v 0 0.23 0 c 1.7,0.563 3.3,1.25 4.88,2.274 1.49,0.91 2.85,2.042 4.1,3.511 1.26,1.485 2.16,3.184 2.96,5.246 0.79,1.93 1.14,4.317 1.14,6.922 0,6.383 -1.82,11.262 -5.46,14.676 -3.76,3.41 -9.55,5.109 -17.512,5.109 v 0 h -21.601 v -79.355 0" /><path
         id="path78"
         style="fill:#ffffff;fill-opacity:1;fill-rule:nonzero;stroke:none"
         d="m 1048.18,911.727 h 33.31 v 3.976 c 0,5.129 -0.56,9.442 -1.59,13.188 -1.01,3.761 -2.5,6.828 -4.43,9.214 -1.92,2.395 -4.32,4.09 -6.93,5.231 -2.73,1.137 -5.7,1.715 -8.88,1.715 -3.62,0 -6.93,-0.696 -9.78,-2.164 -2.95,-1.481 -5.46,-3.645 -7.38,-6.262 -1.93,-2.723 -3.54,-5.902 -4.55,-9.66 -1.03,-3.746 -1.59,-7.848 -1.59,-12.285 0,-4.207 0.56,-8.18 1.59,-11.825 1.01,-3.64 2.5,-6.707 4.66,-9.316 2.05,-2.621 4.66,-4.668 7.85,-6.148 3.18,-1.571 6.92,-2.258 11.14,-2.258 3.63,0 6.94,0.34 9.78,1.121 2.84,0.793 5.11,1.598 7.05,2.387 v 0 l -0.57,9.894 v 0 c -1.48,-1.019 -3.41,-2.043 -5.68,-3.066 -2.39,-1.02 -5.24,-1.598 -8.64,-1.598 -5.47,0 -9.34,1.484 -11.72,4.551 -2.39,2.949 -3.64,7.387 -3.64,13.305 v 0" /><path
         id="path80"
         style="fill:#ffffff;fill-opacity:1;fill-rule:nonzero;stroke:none"
         d="m 1098.82,885.922 h 11.81 v 31.379 c 0,2.953 0.35,5.457 1.03,7.617 0.69,2.156 1.6,3.871 2.73,5.227 1.15,1.25 2.51,2.277 3.98,2.964 1.48,0.563 2.97,0.911 4.67,0.911 0.67,0 1.36,0 1.92,-0.118 0.58,-0.113 1.26,-0.23 1.84,-0.347 v 0 11.375 0 c -0.24,0 -0.47,0 -0.58,0.121 -0.12,0 -0.35,0 -0.57,0 -2.15,0 -4.1,-0.231 -5.8,-0.809 -1.7,-0.562 -3.06,-1.355 -4.31,-2.379 -1.26,-1.019 -2.4,-2.156 -3.31,-3.41 -0.9,-1.25 -1.71,-2.621 -2.27,-4.101 v 0 h -0.23 v 0 c 0,0.457 0,1.136 0,2.054 -0.12,0.907 -0.12,1.934 -0.23,2.953 -0.12,1.024 -0.12,1.93 -0.12,2.836 -0.09,0.91 -0.09,1.598 -0.09,2.047 v 0 h -10.92 v 0 c 0.09,-1.699 0.21,-3.515 0.33,-5.34 0.12,-1.933 0.12,-3.863 0.12,-5.793 v 0 -47.187 0" /><path
         id="path82"
         style="fill:#ffffff;fill-opacity:1;fill-rule:nonzero;stroke:none"
         d="m 1138.6,885.922 h 11.82 v 34.562 c 0,4.551 0.93,8.192 2.85,10.801 1.82,2.617 4.55,3.871 8.3,3.871 3.07,0 5.23,-1.023 6.71,-3.066 1.37,-2.063 2.04,-5.356 2.04,-9.895 v 0 -36.273 h 11.83 v 38.996 0 c 0,6.133 -1.36,11.027 -4.1,14.672 -2.72,3.629 -7.03,5.461 -12.95,5.461 -3.42,0 -6.37,-0.809 -8.99,-2.508 -2.61,-1.699 -4.66,-4.09 -6.13,-7.156 v 0 h -0.23 v 0 c 0,0.332 0,1.019 0,1.816 -0.12,0.789 -0.12,1.699 -0.24,2.602 -0.11,0.922 -0.11,1.832 -0.11,2.621 -0.11,0.793 -0.11,1.484 -0.11,1.816 v 0 h -11.14 v 0 c 0.1,-1.699 0.22,-3.515 0.33,-5.34 0.12,-1.933 0.12,-3.863 0.12,-5.793 v 0 -47.187 0" /><path
         id="path84"
         style="fill:#1a67bb;fill-opacity:1;fill-rule:nonzero;stroke:none"
         d="m 986.777,931.512 v 24.336 h 7.395 v 0 c 4.43,0 7.728,-1.024 9.888,-3.18 2.16,-2.16 3.19,-5.012 3.19,-8.426 v 0 0 0 c 0,-3.742 -1.15,-6.812 -3.42,-9.203 -2.38,-2.387 -5.803,-3.527 -10.353,-3.527 v 0 h -6.7 v 0" /><path
         id="path86"
         style="fill:#1a67bb;fill-opacity:1;fill-rule:nonzero;stroke:none"
         d="m 986.777,895.586 v 26.496 h 8.645 v 0 c 2.391,0 4.324,-0.348 6.028,-1.023 1.7,-0.692 3.06,-1.602 4.19,-2.852 1.03,-1.254 1.83,-2.605 2.4,-4.203 0.57,-1.602 0.79,-3.301 0.79,-5.231 v 0 0 0 c 0,-3.757 -1.13,-6.937 -3.4,-9.449 -2.28,-2.488 -5.684,-3.738 -10.352,-3.738 v 0 h -8.301 v 0" /><path
         id="path88"
         style="fill:#1a67bb;fill-opacity:1;fill-rule:nonzero;stroke:none"
         d="m 1048.18,919.805 c 0.12,5.34 1.14,9.547 3.07,12.5 1.93,2.851 4.67,4.32 8.07,4.32 7.05,0 10.58,-5.574 10.58,-16.82 v 0 h -21.72 v 0" /></g></g></svg>