<?xml version="1.0" encoding="UTF-8" standalone="no"?>
<svg
   xmlns:dc="http://purl.org/dc/elements/1.1/"
   xmlns:cc="http://creativecommons.org/ns#"
   xmlns:rdf="http://www.w3.org/1999/02/22-rdf-syntax-ns#"
   xmlns:svg="http://www.w3.org/2000/svg"
   xmlns="http://www.w3.org/2000/svg"
   viewBox="0 0 136.44 106.2"
   height="106.2"
   width="136.44"
   xml:space="preserve"
   id="svg2"
   version="1.1"><metadata
     id="metadata8"><rdf:RDF><cc:Work
         rdf:about=""><dc:format>image/svg+xml</dc:format><dc:type
           rdf:resource="http://purl.org/dc/dcmitype/StillImage" /></cc:Work></rdf:RDF></metadata><defs
     id="defs6" /><g
     transform="matrix(1.3333333,0,0,-1.3333333,0,106.2)"
     id="g10"><g
       transform="scale(0.1)"
       id="g12"><path
         id="path14"
         style="fill:#ffffff;fill-opacity:1;fill-rule:nonzero;stroke:none"
         d="M 1.41797,1.41797 H 1021.888 v 793.699 H 1.41797 Z" /><path
         id="path16"
         style="fill:none;stroke:#231f20;stroke-width:2.83500004;stroke-linecap:butt;stroke-linejoin:miter;stroke-miterlimit:4;stroke-dasharray:none;stroke-opacity:1"
         d="M 1.41797,1.41797 H 1021.89 V 795.117 H 1.41797 V 1.41797" /><path
         id="path18"
         style="fill:#1a67bb;fill-opacity:1;fill-rule:nonzero;stroke:none"
         d="m 12.8125,12.8242 h 997.695 v 770.91 H 12.8125 Z" /><path
         id="path20"
         style="fill:#ffffff;fill-opacity:1;fill-rule:nonzero;stroke:none"
         d="m 414.414,320.566 c -9.75,-16.484 -23.363,-30.613 -39.824,-40.382 v 0 L 483.352,171.309 V 58.0586 h 56.621 V 171.309 l 220.957,127.714 24.617,14.161 12.004,-40.625 v 0 c 1.23,-3.996 7.078,-4.305 8.621,0 v 0 l 32.617,100.019 v 0 c 0.617,2.774 -0.93,5.235 -3.387,5.852 v 0 l -103.086,21.847 v 0 C 728,401.203 724.922,395.969 728,392.891 v 0 l 29.234,-30.77 -24.617,-14.16 -219.109,-126.488 -99.094,99.093 v 0" /><path
         id="path22"
         style="fill:#ffffff;fill-opacity:1;fill-rule:nonzero;stroke:none"
         d="m 58.0391,630.449 h 15.3906 l 7.5469,24.949 h 36.0504 l 7.547,-24.949 h 15.969 l -32.355,99.528 H 91.3711 l -33.332,-99.528 v 0" /><path
         id="path24"
         style="fill:#ffffff;fill-opacity:1;fill-rule:nonzero;stroke:none"
         d="m 156.164,630.449 h 14.828 v 39.356 c 0,3.695 0.418,6.843 1.27,9.55 0.867,2.715 2.008,4.856 3.422,6.559 1.429,1.57 3.129,2.859 4.996,3.711 1.843,0.707 3.695,1.141 5.828,1.141 0.871,0 1.719,0 2.43,-0.145 0.722,-0.144 1.57,-0.289 2.277,-0.43 v 0 14.258 0 c -0.285,0 -0.559,0 -0.707,0.145 -0.141,0 -0.43,0 -0.719,0 -2.699,0 -5.125,-0.278 -7.266,-1 -2.132,-0.707 -3.835,-1.703 -5.41,-2.989 -1.574,-1.285 -2.988,-2.714 -4.129,-4.277 -1.144,-1.57 -2.14,-3.277 -2.855,-5.14 v 0 h -0.281 v 0 c 0,0.574 0,1.429 0,2.574 -0.141,1.136 -0.141,2.426 -0.285,3.711 -0.145,1.281 -0.145,2.425 -0.145,3.566 -0.145,1.129 -0.145,1.992 -0.145,2.555 v 0 h -13.671 v 0 c 0.132,-2.133 0.273,-4.418 0.418,-6.699 0.144,-2.43 0.144,-4.844 0.144,-7.27 v 0 -59.176 0" /><path
         id="path26"
         style="fill:#ffffff;fill-opacity:1;fill-rule:nonzero;stroke:none"
         d="m 209.047,638.281 c 2.715,-2.992 5.992,-5.273 9.832,-6.703 3.711,-1.402 7.695,-2.125 11.98,-2.125 4.274,0 8.262,0.723 12.114,2.125 3.699,1.43 6.972,3.711 9.687,6.703 2.699,3.004 4.981,6.848 6.555,11.559 1.562,4.707 2.426,10.547 2.426,17.25 v 0 0 0 c 0,6.558 -0.864,12.265 -2.426,16.973 -1.574,4.71 -3.856,8.695 -6.555,11.691 -2.715,3 -5.988,5.285 -9.687,6.703 -3.852,1.43 -7.84,2.137 -12.114,2.137 -4.285,0 -8.269,-0.707 -11.98,-2.137 -3.84,-1.418 -7.117,-3.703 -9.832,-6.703 -2.699,-2.996 -4.981,-6.981 -6.555,-11.691 -1.558,-4.708 -2.41,-10.415 -2.41,-16.973 0,-6.703 0.852,-12.543 2.41,-17.25 1.574,-4.711 3.856,-8.555 6.555,-11.559 v 0" /><path
         id="path28"
         style="fill:#ffffff;fill-opacity:1;fill-rule:nonzero;stroke:none"
         d="m 279.297,633.297 c 2.266,-0.996 5.129,-1.992 8.691,-2.715 3.422,-0.695 7.262,-1.129 11.391,-1.129 8.273,0 14.539,1.992 18.957,6.125 4.273,4.133 6.41,9.406 6.41,15.965 v 0 0 0 c 0,4.418 -1.289,7.988 -3.695,10.703 -2.574,2.707 -5.992,5.422 -10.41,7.848 v 0 l -6.411,3.554 v 0 c -3.277,1.864 -5.703,3.422 -7.55,5 -1.864,1.43 -2.715,3.422 -2.715,5.848 0,2.559 0.851,4.699 2.715,6.27 1.847,1.562 4.562,2.285 8.258,2.285 3.003,0 5.843,-0.293 8.269,-0.852 2.43,-0.726 4.695,-1.433 6.699,-2.285 v 0 l 0.711,11.977 v 0 c -1.574,0.566 -3.711,1.14 -6.554,1.851 -2.989,0.574 -6.411,0.852 -10.27,0.852 -3.691,0 -6.973,-0.567 -9.973,-1.707 -2.988,-1.137 -5.558,-2.715 -7.695,-4.567 -2.137,-1.992 -3.84,-4.273 -4.98,-6.699 -1.141,-2.574 -1.715,-5.273 -1.715,-7.992 0,-2.555 0.429,-4.84 1.136,-6.848 0.723,-1.992 1.719,-3.695 3.004,-5.273 1.27,-1.563 2.7,-2.844 4.547,-3.988 1.863,-1.286 3.856,-2.426 6.137,-3.563 v 0 l 7.695,-3.852 v 0 c 3.278,-1.57 5.555,-3.273 6.84,-4.992 1.145,-1.703 1.703,-3.57 1.703,-5.422 0,-2.843 -1.137,-4.984 -3.418,-6.41 -2.285,-1.578 -5.414,-2.285 -9.258,-2.285 -3.562,0 -6.984,0.563 -9.972,1.852 -3.004,1.136 -5.559,2.281 -7.696,3.277 v 0 l -0.851,-12.828 v 0" /><path
         id="path30"
         style="fill:#ffffff;fill-opacity:1;fill-rule:nonzero;stroke:none"
         d="m 385.813,630.449 h 13.398 v 0 c -0.145,1.27 -0.422,3.137 -0.563,5.274 -0.148,2.136 -0.289,4.418 -0.289,6.851 v 0 34.93 0 c 0,4.84 -0.433,8.844 -1.429,11.976 -0.996,3.137 -2.555,5.704 -4.418,7.844 -1.559,1.852 -4.129,3.571 -7.551,5.133 -3.422,1.43 -7.84,2.137 -13.398,2.137 -4.692,0 -8.833,-0.567 -12.387,-1.707 -3.567,-1.137 -6.84,-2.426 -9.555,-4 v 0 l 1.141,-12.684 v 0 c 1.859,1.848 4.562,3.567 8.125,5.125 3.422,1.43 7.121,2.141 11.261,2.141 5.274,0 8.977,-1.418 11.25,-4.274 1.137,-1.418 2.004,-2.992 2.422,-4.699 0.434,-1.863 0.578,-3.855 0.578,-6.141 v 0 -2.988 h -5.273 v 0 c -11.836,0 -20.945,-1.992 -27.078,-5.851 -6.125,-3.989 -9.258,-10.274 -9.258,-18.828 0,-3.422 0.566,-6.411 1.703,-9.129 1.145,-2.704 2.699,-4.84 4.707,-6.7 1.852,-1.851 4.133,-3.14 6.699,-3.988 2.555,-0.984 5.27,-1.418 8.258,-1.418 5.414,0 9.688,1.129 12.965,3.406 3.133,2.141 5.703,4.715 7.551,7.563 v 0 h 0.289 v 0 c 0,-0.422 0,-1.145 0.141,-2.141 0,-0.996 0,-1.996 0.148,-2.992 0.145,-0.996 0.145,-1.992 0.289,-2.848 0.145,-0.996 0.145,-1.57 0.274,-1.992 v 0" /><path
         id="path32"
         style="fill:#ffffff;fill-opacity:1;fill-rule:nonzero;stroke:none"
         d="m 684.355,468.871 h 13.958 v 0 c -0.129,2.141 -0.274,4.406 -0.422,6.836 -0.137,2.281 -0.137,4.707 -0.137,7.137 v 0 59.172 h -14.832 v -42.918 0 c 0,-5.707 -1.133,-10.274 -3.274,-13.684 -2.136,-3.422 -5.691,-5.141 -10.398,-5.141 -3.848,0 -6.555,1.286 -8.41,3.86 -1.856,2.551 -2.852,6.699 -2.852,12.39 v 0 45.493 h -14.804 v -48.899 0 c 0,-7.703 1.699,-13.844 5.117,-18.41 3.429,-4.566 8.84,-6.832 16.242,-6.832 5,0 8.984,1.129 11.973,3.555 2.859,2.281 5.136,5.144 6.992,8.55 v 0 h 0.281 l 0.566,-11.109 v 0" /><path
         id="path34"
         style="fill:#ffffff;fill-opacity:1;fill-rule:nonzero;stroke:none"
         d="M 723.184,468.871 H 738 v 106.953 h -14.816 v -106.953 0" /><path
         id="path36"
         style="fill:#ffffff;fill-opacity:1;fill-rule:nonzero;stroke:none"
         d="m 762.715,468.871 h 14.824 v 73.145 h -14.824 v -73.145 0" /><path
         id="path38"
         style="fill:#ffffff;fill-opacity:1;fill-rule:nonzero;stroke:none"
         d="m 762.297,556.711 h 15.664 v 15.832 h -15.664 v -15.832 0" /><path
         id="path40"
         style="fill:#ffffff;fill-opacity:1;fill-rule:nonzero;stroke:none"
         d="m 813.086,501.234 h 41.75 v 4.996 c 0,6.415 -0.703,11.836 -1.992,16.543 -1.281,4.7 -3.125,8.555 -5.559,11.543 -2.422,2.993 -5.41,5.149 -8.691,6.563 -3.418,1.43 -7.129,2.137 -11.114,2.137 -4.558,0 -8.691,-0.852 -12.253,-2.703 -3.711,-1.86 -6.848,-4.567 -9.258,-7.84 -2.422,-3.43 -4.414,-7.414 -5.703,-12.125 -1.282,-4.707 -1.993,-9.84 -1.993,-15.403 0,-5.273 0.711,-10.273 1.993,-14.84 1.289,-4.562 3.132,-8.406 5.839,-11.683 2.567,-3.281 5.84,-5.856 9.825,-7.699 4.004,-1.981 8.711,-2.848 13.972,-2.848 4.571,0 8.692,0.434 12.258,1.418 3.555,0.996 6.414,1.992 8.836,2.988 v 0 l -0.723,12.41 v 0 c -1.843,-1.281 -4.265,-2.57 -7.117,-3.843 -3,-1.282 -6.554,-2.004 -10.82,-2.004 -6.848,0 -11.699,1.859 -14.688,5.703 -2.988,3.715 -4.562,9.277 -4.562,16.687 v 0" /><path
         id="path42"
         style="fill:#ffffff;fill-opacity:1;fill-rule:nonzero;stroke:none"
         d="m 876.555,468.871 h 14.824 v 39.356 c 0,3.699 0.418,6.847 1.269,9.55 0.868,2.715 2.012,4.856 3.426,6.559 1.426,1.574 3.125,2.863 4.992,3.711 1.844,0.707 3.7,1.141 5.829,1.141 0.871,0 1.718,0 2.433,-0.145 0.723,-0.141 1.57,-0.289 2.274,-0.43 v 0 14.258 0 c -0.282,0 -0.555,0 -0.704,0.145 -0.144,0 -0.437,0 -0.722,0 -2.703,0 -5.125,-0.278 -7.266,-1 -2.129,-0.707 -3.836,-1.703 -5.41,-2.989 -1.57,-1.281 -2.988,-2.714 -4.129,-4.277 -1.144,-1.57 -2.141,-3.281 -2.863,-5.141 v 0 h -0.274 v 0 c 0,0.575 0,1.43 0,2.571 -0.136,1.14 -0.136,2.429 -0.281,3.715 -0.148,1.285 -0.148,2.425 -0.148,3.57 -0.145,1.121 -0.145,1.992 -0.145,2.551 v 0 h -13.676 v 0 c 0.141,-2.137 0.278,-4.418 0.422,-6.703 0.149,-2.426 0.149,-4.84 0.149,-7.266 v 0 -59.176 0" /><path
         id="path44"
         style="fill:#ffffff;fill-opacity:1;fill-rule:nonzero;stroke:none"
         d="m 585.488,469.434 c 1.563,-0.43 3.555,-0.836 5.696,-1.27 2.129,-0.289 4.14,-0.418 5.984,-0.418 7.121,0 12.824,2.395 16.965,7.395 4.129,4.839 6.269,11.98 6.269,21.382 v 0 71.875 h -15.39 v -71.441 0 c 0,-4.566 -0.852,-8.266 -2.571,-10.98 -1.855,-2.715 -4.843,-4.129 -9.257,-4.129 -1.575,0 -2.996,0.144 -4.286,0.558 -1.269,0.293 -2.414,0.582 -3.41,1.004 v 0 -13.976 0" /><path
         id="path46"
         style="fill:#ffffff;fill-opacity:1;fill-rule:nonzero;stroke:none"
         d="m 258.789,476.016 -36.098,35.976 -20.003,20.313 36.003,21.851 v 0 c 3.696,2.461 2.465,8.305 -2.152,8.305 v 0 l -104.937,5.543 v 0 c -2.774,0.305 -4.926,-1.848 -4.926,-4.621 v 0 l 5.543,-105.246 v 0 c 0.304,-4.309 6.152,-5.852 8.304,-1.848 v 0 L 162.68,491.988 182.688,471.98 219,435.668 v 0 c 9.75,16.52 23.301,30.562 39.789,40.348 v 0" /><path
         id="path48"
         style="fill:#1a67bb;fill-opacity:1;fill-rule:nonzero;stroke:none"
         d="m 218.879,648.121 c -1.27,2.426 -2.137,5.141 -2.555,8.422 -0.578,3.277 -0.855,6.703 -0.855,10.547 0,3.859 0.277,7.281 0.855,10.555 0.418,3.285 1.285,5.984 2.555,8.41 1.281,2.285 2.859,4.136 4.851,5.418 1.848,1.285 4.274,1.996 7.129,1.996 2.848,0 5.274,-0.711 7.266,-1.996 1.848,-1.282 3.418,-3.133 4.703,-5.418 1.289,-2.426 2.137,-5.125 2.699,-8.41 0.434,-3.274 0.723,-6.696 0.723,-10.555 v 0 0 0 c 0,-3.844 -0.289,-7.27 -0.723,-10.547 -0.562,-3.281 -1.41,-5.996 -2.699,-8.422 -1.285,-2.414 -2.855,-4.277 -4.703,-5.547 -1.992,-1.289 -4.418,-2.011 -7.266,-2.011 -2.855,0 -5.281,0.722 -7.129,2.011 -1.992,1.27 -3.57,3.133 -4.851,5.547 v 0" /><path
         id="path50"
         style="fill:#1a67bb;fill-opacity:1;fill-rule:nonzero;stroke:none"
         d="m 384.398,666.234 v -6.554 c 0,-5.856 -1.289,-10.547 -3.855,-14.117 -2.699,-3.711 -6.555,-5.563 -11.82,-5.563 -3.86,0 -6.7,1.141 -8.692,3.281 -1.992,2.133 -2.988,5.129 -2.988,8.696 0,4.855 1.844,8.41 5.687,10.836 3.852,2.425 9.411,3.57 16.676,3.57 0.848,0 1.711,0 2.707,0 0.996,0 1.852,0 2.285,-0.149 v 0" /><path
         id="path52"
         style="fill:#1a67bb;fill-opacity:1;fill-rule:nonzero;stroke:none"
         d="m 84.6719,667.813 14.6836,48.046 h 0.289 L 113.461,667.813 H 84.6719 v 0" /><path
         id="path54"
         style="fill:#1a67bb;fill-opacity:1;fill-rule:nonzero;stroke:none"
         d="m 813.086,511.363 c 0.148,6.703 1.426,11.977 3.859,15.688 2.41,3.57 5.828,5.422 10.106,5.422 8.828,0 13.254,-6.996 13.254,-21.11 v 0 h -27.219 v 0" /><path
         id="path56"
         style="fill:#ee2c30;fill-opacity:1;fill-rule:nonzero;stroke:none"
         d="m 316.68,491.852 c 62.785,0 113.675,-50.934 113.675,-113.762 0,-62.824 -50.89,-113.754 -113.675,-113.754 -62.782,0 -113.676,50.93 -113.676,113.754 0,62.828 50.894,113.762 113.676,113.762 v 0" /><path
         id="path58"
         style="fill:#ffffff;fill-opacity:1;fill-rule:nonzero;stroke:none"
         d="m 316.68,453.93 c 10.297,0 20.129,-1.981 29.488,-5.942 9.062,-3.84 17.094,-9.258 24.102,-16.269 7,-7.012 12.421,-15.047 16.253,-24.117 3.961,-9.372 5.942,-19.207 5.942,-29.512 0,-10.301 -1.981,-20.137 -5.942,-29.504 -3.832,-9.074 -9.253,-17.113 -16.253,-24.121 -7.008,-7.004 -15.04,-12.434 -24.102,-16.274 -9.359,-3.953 -19.191,-5.933 -29.488,-5.933 -10.293,0 -20.121,1.98 -29.489,5.933 -9.062,3.84 -17.093,9.27 -24.101,16.274 -7,7.008 -12.422,15.047 -16.254,24.121 -3.961,9.367 -5.941,19.203 -5.941,29.504 0,10.305 1.98,20.14 5.941,29.512 3.832,9.07 9.254,17.105 16.254,24.117 7.008,7.011 15.039,12.429 24.101,16.269 9.368,3.961 19.196,5.942 29.489,5.942 v 0" /><path
         id="path60"
         style="fill:#231f20;fill-opacity:1;fill-rule:nonzero;stroke:none"
         d="m 245.668,404.645 c -3.176,-8.477 -4.766,-17.317 -4.766,-26.543 0,-9.219 1.59,-18.075 4.766,-26.543 v 0 l 23.66,26.629 -23.66,26.457 v 0" /><path
         id="path62"
         style="fill:#231f20;fill-opacity:1;fill-rule:nonzero;stroke:none"
         d="m 387.719,351.559 c 3.164,8.468 4.754,17.324 4.754,26.543 0,9.226 -1.59,18.066 -4.754,26.543 v 0 l -23.664,-26.457 23.664,-26.629 v 0" /><path
         id="path64"
         style="fill:#231f20;fill-opacity:1;fill-rule:nonzero;stroke:none"
         d="m 269.27,355.277 h 26.054 v 6.09 h -17.91 l 1.777,1.914 v 0 c 2.118,2.336 4.161,4.723 6.075,7.188 1.847,2.398 3.496,4.863 4.925,7.261 1.434,2.387 2.536,4.723 3.348,7.051 0.832,2.25 1.238,4.446 1.238,6.496 0,1.711 -0.273,3.289 -0.754,4.793 -0.55,1.508 -1.367,2.813 -2.398,3.965 -1.086,1.098 -2.465,1.996 -4.031,2.68 -1.645,0.617 -3.559,0.953 -5.739,0.953 -2.25,0 -4.378,-0.27 -6.226,-0.754 -1.914,-0.547 -3.684,-1.23 -5.262,-2.051 v 0 l 0.746,-6.98 v 0 c 1.098,0.883 2.465,1.781 4.043,2.535 1.574,0.75 3.352,1.16 5.332,1.16 2.11,0 3.825,-0.683 4.985,-2.129 1.168,-1.429 1.785,-3.215 1.785,-5.469 0,-1.578 -0.348,-3.285 -1.031,-5.132 -0.754,-1.848 -1.715,-3.832 -3.012,-5.821 -1.289,-2.058 -2.789,-4.179 -4.504,-6.429 -1.781,-2.266 -3.695,-4.594 -5.816,-6.981 v 0 l -3.625,-4.183 v -6.157 0" /><path
         id="path66"
         style="fill:#231f20;fill-opacity:1;fill-rule:nonzero;stroke:none"
         d="m 298.469,348.867 h 4.418 l 3.636,12.321 h -5.433 l -2.621,-12.321 v 0" /><path
         id="path68"
         style="fill:#231f20;fill-opacity:1;fill-rule:nonzero;stroke:none"
         d="m 311.855,356.055 c 1.079,-0.356 2.309,-0.723 3.688,-0.977 1.387,-0.305 2.82,-0.457 4.359,-0.457 1.801,0 3.438,0.258 4.926,0.711 1.485,0.516 2.715,1.231 3.797,2.109 1.078,0.922 1.902,2.051 2.465,3.329 0.566,1.296 0.875,2.726 0.875,4.375 v 0 0 0 c 0,1.328 -0.211,2.515 -0.567,3.539 -0.418,1.027 -0.929,1.843 -1.593,2.566 -0.664,0.715 -1.43,1.285 -2.309,1.699 -0.875,0.399 -1.797,0.715 -2.769,0.864 v 0 0.109 0 c 0.765,0.152 1.539,0.414 2.359,0.769 0.766,0.36 1.539,0.875 2.211,1.539 0.664,0.665 1.172,1.485 1.586,2.516 0.406,0.973 0.617,2.156 0.617,3.594 0,1.433 -0.258,2.773 -0.766,3.902 -0.574,1.133 -1.285,2.051 -2.207,2.821 -0.925,0.773 -2.004,1.335 -3.281,1.695 -1.289,0.367 -2.617,0.566 -4.113,0.566 -1.738,0 -3.281,-0.152 -4.617,-0.414 -1.379,-0.308 -2.551,-0.664 -3.582,-1.074 v 0 l 0.367,-4.879 v 0 c 1.078,0.57 2.242,1.027 3.429,1.391 1.172,0.351 2.309,0.507 3.282,0.507 1.691,0 3.125,-0.464 4.308,-1.386 1.172,-0.926 1.746,-2.254 1.746,-3.949 0,-1.082 -0.214,-1.954 -0.621,-2.668 -0.41,-0.77 -0.972,-1.336 -1.691,-1.848 -0.77,-0.461 -1.649,-0.82 -2.664,-1.031 -1.031,-0.25 -2.16,-0.356 -3.34,-0.356 v 0 h -1.484 v -4.316 0 c 0.308,0 0.711,0 1.23,0.054 0.465,0 1.078,0 1.793,0 2.152,0 3.848,-0.515 5.082,-1.492 1.231,-0.972 1.844,-2.418 1.844,-4.211 0,-1.121 -0.207,-2.105 -0.567,-2.922 -0.355,-0.82 -0.867,-1.496 -1.484,-2.007 -0.672,-0.555 -1.387,-0.973 -2.211,-1.231 -0.863,-0.25 -1.742,-0.406 -2.715,-0.406 -1.386,0 -2.664,0.203 -3.847,0.621 -1.168,0.352 -2.246,0.816 -3.168,1.277 v 0 l -0.368,-4.929 v 0" /><path
         id="path70"
         style="fill:#231f20;fill-opacity:1;fill-rule:nonzero;stroke:none"
         d="m 336.672,381.316 h 4.262 v 12.899 c 0,1.562 0.328,2.754 0.941,3.621 0.617,0.855 1.563,1.269 2.754,1.269 1.973,0 2.953,-1.316 2.953,-3.898 v 0 -13.891 h 4.266 v 12.899 0 c 0,1.562 0.324,2.754 0.941,3.621 0.621,0.855 1.563,1.269 2.742,1.269 1.973,0 2.953,-1.316 2.953,-3.898 v 0 -13.891 h 4.282 v 13.801 0 c 0,2.465 -0.496,4.356 -1.485,5.625 -1.023,1.285 -2.539,1.938 -4.59,1.938 -1.359,0 -2.468,-0.328 -3.332,-0.981 -0.859,-0.703 -1.511,-1.484 -2.05,-2.351 -0.204,0.414 -0.454,0.828 -0.743,1.234 -0.289,0.375 -0.652,0.742 -1.058,1.066 -0.406,0.29 -0.895,0.54 -1.43,0.743 -0.535,0.203 -1.187,0.289 -1.89,0.289 -1.309,0 -2.379,-0.328 -3.243,-0.981 -0.855,-0.703 -1.558,-1.523 -2.011,-2.554 v 0 h -0.079 v 0 c 0,0.128 0,0.375 0,0.703 -0.05,0.281 -0.05,0.617 -0.05,0.945 -0.039,0.324 -0.039,0.652 -0.039,0.941 -0.032,0.293 -0.032,0.532 -0.032,0.657 v 0 h -4.23 v 0 c 0.039,-0.578 0.078,-1.196 0.129,-1.848 0.039,-0.656 0.039,-1.359 0.039,-2.141 v 0 -17.086 0" /></g></g></svg>