<?xml version="1.0" encoding="UTF-8" standalone="no"?>
<svg
   xmlns:dc="http://purl.org/dc/elements/1.1/"
   xmlns:cc="http://creativecommons.org/ns#"
   xmlns:rdf="http://www.w3.org/1999/02/22-rdf-syntax-ns#"
   xmlns:svg="http://www.w3.org/2000/svg"
   xmlns="http://www.w3.org/2000/svg"
   viewBox="0 0 188.97333 173.85333"
   height="173.85333"
   width="188.97333"
   xml:space="preserve"
   id="svg2"
   version="1.1"><metadata
     id="metadata8"><rdf:RDF><cc:Work
         rdf:about=""><dc:format>image/svg+xml</dc:format><dc:type
           rdf:resource="http://purl.org/dc/dcmitype/StillImage" /></cc:Work></rdf:RDF></metadata><defs
     id="defs6" /><g
     transform="matrix(1.3333333,0,0,-1.3333333,0,173.85333)"
     id="g10"><g
       transform="scale(0.1)"
       id="g12"><path
         id="path14"
         style="fill:#1a67bb;fill-opacity:1;fill-rule:nonzero;stroke:none"
         d="M 0,0 H 1417.32 V 1303.94 H 0 Z" /><path
         id="path16"
         style="fill:#ffffff;fill-opacity:1;fill-rule:nonzero;stroke:none"
         d="m 22.6758,90.6641 c 0,-37.7735 30.6406,-67.9883 67.9922,-67.9883 v 0 H 1326.67 v 0 c 37.77,0 67.99,30.2148 67.99,67.9883 v 0 1122.6359 0 c 0,37.35 -30.22,67.99 -67.99,67.99 v 0 H 90.668 v 0 c -37.3516,0 -67.9922,-30.64 -67.9922,-67.99 v 0 -1122.6359 0" /><path
         id="path18"
         style="fill:#1a67bb;fill-opacity:1;fill-rule:nonzero;stroke:none"
         d="m 39.8828,90.6641 c 0,-28.1133 22.668,-51.1993 50.7852,-51.1993 v 0 H 1326.67 v 0 c 28.13,0 51.2,23.086 51.2,51.1993 v 0 1122.6359 0 c 0,28.12 -23.07,50.78 -51.2,50.78 v 0 H 90.668 v 0 c -28.1172,0 -50.7852,-22.66 -50.7852,-50.78 v 0 -1122.6359 0" /><path
         id="path20"
         style="fill:#ffffff;fill-opacity:1;fill-rule:nonzero;stroke:none"
         d="m 215.316,680.313 h 986.703 v 518.719 H 215.316 Z" /><path
         id="path22"
         style="fill:#ffffff;fill-opacity:1;fill-rule:nonzero;stroke:none"
         d="m 838.563,241.328 c 5.46,5.461 0.421,15.11 -7.137,13.43 v 0 l -94.844,-20.559 v 75.117 h -55.82 v -75.535 l -94.012,20.555 v 0 c -7.977,1.68 -13.016,-7.969 -7.137,-13.848 v 0 l 129.27,-121.699 129.68,122.539 v 0" /><path
         id="path24"
         style="fill:#ffffff;fill-opacity:1;fill-rule:nonzero;stroke:none"
         d="m 494.355,453.254 h 21.54 l 10.566,34.91 h 50.48 l 10.575,-34.91 h 22.343 L 564.574,592.52 H 541.031 L 494.355,453.254 v 0" /><path
         id="path26"
         style="fill:#ffffff;fill-opacity:1;fill-rule:nonzero;stroke:none"
         d="m 626.926,453.254 h 20.746 v 102.359 h -20.746 v -102.359 0" /><path
         id="path28"
         style="fill:#ffffff;fill-opacity:1;fill-rule:nonzero;stroke:none"
         d="m 626.332,576.16 h 21.945 v 22.153 h -21.945 v -22.153 0" /><path
         id="path30"
         style="fill:#ffffff;fill-opacity:1;fill-rule:nonzero;stroke:none"
         d="m 682.602,434.699 -1.196,-19.347 v 0 c 3.395,-1.407 8.184,-2.801 14.16,-4.188 5.993,-1.406 12.172,-2.199 18.36,-2.199 15.168,0 26.535,4.191 34.121,12.363 7.578,8.184 11.355,19.953 11.355,35.117 v 0 81.797 0 c 0,2.996 0.207,5.789 0.403,8.781 0.207,2.997 0.207,5.79 0.41,8.59 v 0 h -19.16 v 0 c 0,-0.613 0,-1.804 0,-3.191 -0.207,-1.406 -0.207,-3.008 -0.403,-4.59 -0.191,-1.602 -0.191,-3.008 -0.191,-4.394 -0.199,-1.399 -0.199,-2.598 -0.199,-3.196 v 0 h -0.606 v 0 c -2.586,4.582 -5.976,8.586 -10.164,11.977 -4.199,3.191 -9.387,4.785 -15.762,4.785 -6.195,0 -11.765,-1.203 -16.355,-3.789 -4.594,-2.602 -8.59,-5.988 -11.578,-10.586 -2.988,-4.57 -5.387,-10.168 -6.789,-16.563 -1.586,-6.582 -2.383,-13.761 -2.383,-21.742 0,-9.578 0.996,-17.554 3.195,-24.136 1.993,-6.594 4.575,-11.973 7.969,-15.958 3.391,-4.21 7.188,-6.996 11.375,-8.781 4.184,-1.804 8.574,-2.793 12.961,-2.793 6.984,0 12.57,1.594 16.762,4.981 4.187,3.195 7.578,7.179 10.176,12.16 v 0 h 0.39 v -12.766 0 c 0,-4.172 -0.39,-8.359 -1.183,-12.156 -1.012,-3.781 -2.403,-6.984 -4.391,-9.777 -2.191,-2.782 -4.992,-4.989 -8.586,-6.785 -3.582,-1.583 -8.176,-2.395 -13.555,-2.395 -5.59,0 -10.972,0.996 -16.371,2.805 -5.387,1.992 -9.57,3.984 -12.765,5.976 v 0" /><path
         id="path32"
         style="fill:#ffffff;fill-opacity:1;fill-rule:nonzero;stroke:none"
         d="m 793.992,453.254 h 20.742 v 149.648 h -20.742 v -149.648 0" /><path
         id="path34"
         style="fill:#ffffff;fill-opacity:1;fill-rule:nonzero;stroke:none"
         d="m 864.949,498.535 h 58.449 v 6.985 c 0,8.984 -0.996,16.558 -2.804,23.152 -1.785,6.582 -4.383,11.965 -7.774,16.152 -3.394,4.199 -7.578,7.188 -12.175,9.18 -4.778,2.004 -9.969,3 -15.555,3 -6.391,0 -12.168,-1.203 -17.152,-3.789 -5.184,-2.602 -9.571,-6.379 -12.969,-10.981 -3.387,-4.785 -6.192,-10.379 -7.977,-16.961 -1.797,-6.582 -2.793,-13.757 -2.793,-21.543 0,-7.39 0.996,-14.363 2.793,-20.75 1.785,-6.398 4.387,-11.777 8.184,-16.371 3.574,-4.578 8.172,-8.171 13.758,-10.769 5.586,-2.774 12.168,-3.973 19.543,-3.973 6.398,0 12.168,0.594 17.168,1.981 4.98,1.398 8.972,2.785 12.371,4.179 v 0 l -1.012,17.364 v 0 c -2.578,-1.797 -5.981,-3.582 -9.973,-5.391 -4.187,-1.785 -9.172,-2.781 -15.156,-2.781 -9.57,0 -16.359,2.578 -20.547,7.976 -4.191,5.188 -6.379,12.969 -6.379,23.34 v 0" /><path
         id="path36"
         style="fill:#1a67bb;fill-opacity:1;fill-rule:nonzero;stroke:none"
         d="m 531.66,505.52 20.543,67.246 h 0.402 L 571.949,505.52 H 531.66 v 0" /><path
         id="path38"
         style="fill:#1a67bb;fill-opacity:1;fill-rule:nonzero;stroke:none"
         d="m 702.961,477.395 c -3.395,5.781 -5.199,14.96 -5.199,27.539 0,11.765 1.601,20.546 4.793,26.726 2.988,5.988 8.187,8.977 15.355,9.18 6.785,0 11.973,-2.988 15.77,-8.985 3.578,-5.976 5.383,-14.953 5.383,-26.738 v 0 0 0 c 0,-12.363 -1.805,-21.543 -5.184,-27.539 -3.391,-6.172 -8.977,-9.168 -16.762,-9.168 -5.988,0 -10.765,2.996 -14.156,8.985 v 0" /><path
         id="path40"
         style="fill:#1a67bb;fill-opacity:1;fill-rule:nonzero;stroke:none"
         d="m 864.949,512.715 c 0.188,9.363 1.992,16.75 5.383,21.941 3.387,4.985 8.176,7.578 14.16,7.578 12.371,0 18.555,-9.773 18.555,-29.519 v 0 h -38.098 v 0" /><path
         id="path42"
         style="fill:#007f46;fill-opacity:1;fill-rule:nonzero;stroke:none"
         d="m 226.648,691.645 h 964.043 V 1187.7 H 226.648 Z" /><path
         id="path44"
         style="fill:#ffffff;fill-opacity:1;fill-rule:nonzero;stroke:none"
         d="m 526.91,989.152 h 37.895 v 0 c 6.988,0 13.164,0.996 18.55,2.989 5.383,1.789 9.774,4.589 13.571,7.979 3.797,3.38 6.582,7.58 8.574,12.36 1.805,4.59 2.801,9.78 2.801,15.37 v 0 0 0 c 0,5.4 -0.813,9.97 -2.192,14.18 -1.605,3.98 -3.597,7.37 -5.992,10.16 -2.601,2.6 -5.387,4.8 -8.375,6.4 -3.191,1.59 -6.394,2.58 -9.586,3.19 v 0 0.39 0 c 3.004,0.99 5.789,2.19 8.59,4 2.582,1.59 4.981,3.58 7.176,6.18 2.195,2.6 3.797,5.59 5.183,9.18 1.399,3.4 2.008,7.58 2.008,12.18 0,11.17 -3.211,19.75 -9.59,25.72 -6.582,6 -16.757,8.99 -30.718,8.99 v 0 H 526.91 v -139.268 0" /><path
         id="path46"
         style="fill:#ffffff;fill-opacity:1;fill-rule:nonzero;stroke:none"
         d="m 655.797,1034.43 h 58.453 v 6.99 c 0,8.98 -0.996,16.56 -2.801,23.15 -1.793,6.58 -4.39,11.97 -7.781,16.15 -3.395,4.21 -7.578,7.19 -12.168,9.19 -4.781,1.99 -9.977,2.98 -15.566,2.98 -6.379,0 -12.168,-1.19 -17.149,-3.78 -5.183,-2.59 -9.57,-6.38 -12.965,-10.97 -3.394,-4.8 -6.191,-10.38 -7.984,-16.97 -1.789,-6.58 -2.785,-13.76 -2.785,-21.54 0,-7.4 0.996,-14.36 2.785,-20.75 1.793,-6.4 4.391,-11.78 8.184,-16.38 3.585,-4.57 8.175,-8.164 13.761,-10.766 5.586,-2.773 12.168,-3.968 19.543,-3.968 6.399,0 12.176,0.589 17.168,1.976 4.981,1.403 8.981,2.785 12.371,4.188 v 0 l -1.011,17.36 v 0 c -2.582,-1.79 -5.977,-3.59 -9.977,-5.39 -4.184,-1.79 -9.164,-2.79 -15.156,-2.79 -9.571,0 -16.356,2.59 -20.539,7.99 -4.192,5.18 -6.383,12.96 -6.383,23.33 v 0" /><path
         id="path48"
         style="fill:#ffffff;fill-opacity:1;fill-rule:nonzero;stroke:none"
         d="m 744.637,989.152 h 20.746 v 55.068 c 0,5.18 0.594,9.57 1.785,13.36 1.199,3.8 2.801,6.78 4.797,9.18 1.988,2.19 4.383,3.99 6.988,5.19 2.578,0.99 5.18,1.6 8.164,1.6 1.203,0 2.403,0 3.399,-0.21 0.996,-0.2 2.187,-0.4 3.183,-0.59 v 0 19.96 0 c -0.39,0 -0.789,0 -0.996,0.18 -0.191,0 -0.586,0 -0.992,0 -3.781,0 -7.168,-0.39 -10.18,-1.38 -2.984,-1 -5.379,-2.4 -7.578,-4.2 -2.195,-1.79 -4.187,-3.78 -5.789,-5.98 -1.582,-2.19 -2.988,-4.59 -3.984,-7.19 v 0 h -0.403 v 0 c 0,0.81 0,2.01 0,3.59 -0.183,1.61 -0.183,3.4 -0.39,5.19 -0.203,1.8 -0.203,3.39 -0.203,4.99 -0.196,1.59 -0.196,2.79 -0.196,3.6 v 0 H 743.84 v 0 c 0.191,-3 0.387,-6.19 0.594,-9.38 0.203,-3.4 0.203,-6.79 0.203,-10.18 v 0 -82.798 0" /><path
         id="path50"
         style="fill:#ffffff;fill-opacity:1;fill-rule:nonzero;stroke:none"
         d="m 814.453,989.152 h 20.742 v 60.648 c 0,7.98 1.602,14.36 4.981,18.95 3.203,4.59 7.976,6.79 14.558,6.79 5.395,0 9.192,-1.79 11.789,-5.38 2.383,-3.6 3.575,-9.38 3.575,-17.36 v 0 -63.648 h 20.75 v 68.428 0 c 0,10.78 -2.379,19.36 -7.176,25.74 -4.793,6.39 -12.371,9.57 -22.734,9.57 -5.997,0 -11.18,-1.38 -15.77,-4.38 -4.594,-2.99 -8.188,-7.18 -10.766,-12.57 v 0 h -0.41 v 0 c 0,0.6 0,1.79 0,3.2 -0.191,1.4 -0.191,2.99 -0.398,4.59 -0.188,1.59 -0.188,3.19 -0.188,4.59 -0.203,1.39 -0.203,2.58 -0.203,3.19 v 0 h -19.551 v 0 c 0.196,-3 0.391,-6.19 0.598,-9.38 0.203,-3.4 0.203,-6.79 0.203,-10.18 v 0 -82.798 0" /><path
         id="path52"
         style="fill:#ffffff;fill-opacity:1;fill-rule:nonzero;stroke:none"
         d="m 310.395,770.914 h 67.226 v 17.746 h -45.687 v 121.52 h -21.539 v -139.266 0" /><path
         id="path54"
         style="fill:#ffffff;fill-opacity:1;fill-rule:nonzero;stroke:none"
         d="m 452.145,770.914 h 18.753 v 0 c -0.207,1.789 -0.609,4.391 -0.796,7.383 -0.2,2.988 -0.407,6.176 -0.407,9.57 v 0 48.891 0 c 0,6.789 -0.601,12.375 -1.992,16.762 -1.398,4.39 -3.594,7.972 -6.191,10.976 -2.196,2.582 -5.774,4.981 -10.567,7.176 -4.793,1.996 -10.968,2.992 -18.754,2.992 -6.582,0 -12.371,-0.797 -17.351,-2.383 -4.996,-1.605 -9.586,-3.394 -13.367,-5.59 v 0 l 1.59,-17.761 v 0 c 2.597,2.586 6.394,4.98 11.375,7.179 4.789,1.993 9.976,3 15.761,3 7.379,0 12.559,-2.004 15.754,-5.988 1.602,-2 2.797,-4.191 3.387,-6.59 0.609,-2.593 0.812,-5.383 0.812,-8.57 v 0 -4.207 h -7.394 v 0 c -16.559,0 -29.317,-2.785 -37.895,-8.172 -8.574,-5.586 -12.965,-14.367 -12.965,-26.34 0,-4.789 0.797,-8.976 2.383,-12.777 1.602,-3.785 3.801,-6.774 6.582,-9.371 2.606,-2.598 5.793,-4.391 9.387,-5.586 3.594,-1.387 7.379,-1.977 11.563,-1.977 7.582,0 13.57,1.574 18.164,4.762 4.382,3.004 7.984,6.586 10.566,10.586 v 0 h 0.402 v 0 c 0,-0.606 0,-1.602 0.203,-2.988 0,-1.403 0,-2.805 0.2,-4.203 0.191,-1.387 0.191,-2.786 0.39,-3.989 0.203,-1.398 0.203,-2.191 0.407,-2.785 v 0" /><path
         id="path56"
         style="fill:#ffffff;fill-opacity:1;fill-rule:nonzero;stroke:none"
         d="m 559.68,770.914 h 19.547 v 0 c -0.188,2.992 -0.387,6.18 -0.594,9.574 -0.199,3.196 -0.199,6.582 -0.199,9.977 v 0 82.812 h -20.75 v -60.07 0 c 0,-7.98 -1.598,-14.363 -4.59,-19.144 -2.989,-4.793 -7.981,-7.192 -14.563,-7.192 -5.386,0 -9.168,1.789 -11.769,5.387 -2.598,3.594 -3.985,9.383 -3.985,17.355 v 0 63.664 h -20.742 v -68.441 0 c 0,-10.773 2.383,-19.367 7.176,-25.75 4.793,-6.383 12.371,-9.555 22.738,-9.555 6.985,0 12.571,1.574 16.758,4.965 3.996,3.192 7.191,7.188 9.773,11.969 v 0 h 0.407 l 0.793,-15.551 v 0" /><path
         id="path58"
         style="fill:#ffffff;fill-opacity:1;fill-rule:nonzero;stroke:none"
         d="m 611.711,774.902 c 3.187,-1.402 7.172,-2.8 12.152,-3.797 4.793,-0.984 10.18,-1.574 15.965,-1.574 11.563,0 20.356,2.77 26.535,8.559 5.977,5.793 8.981,13.172 8.981,22.355 v 0 0 0 c 0,6.176 -1.805,11.176 -5.199,14.957 -3.579,3.797 -8.372,7.582 -14.551,10.977 v 0 l -8.977,4.992 v 0 c -4.59,2.582 -7.984,4.781 -10.582,6.973 -2.59,2.008 -3.785,4.797 -3.785,8.187 0,3.598 1.195,6.59 3.785,8.782 2.598,2.191 6.391,3.195 11.578,3.195 4.184,0 8.184,-0.406 11.563,-1.203 3.39,-0.996 6.582,-1.992 9.383,-3.188 v 0 l 0.996,16.762 v 0 c -2.196,0.793 -5.184,1.586 -9.184,2.582 -4.183,0.812 -8.98,1.203 -14.359,1.203 -5.188,0 -9.778,-0.797 -13.961,-2.383 -4.192,-1.605 -7.785,-3.801 -10.774,-6.398 -2.984,-2.785 -5.382,-5.981 -6.984,-9.375 -1.59,-3.594 -2.398,-7.375 -2.398,-11.172 0,-3.598 0.605,-6.785 1.601,-9.574 0.996,-2.801 2.399,-5.199 4.188,-7.395 1.789,-2.195 3.796,-3.98 6.382,-5.586 2.598,-1.789 5.383,-3.379 8.575,-4.984 v 0 l 10.781,-5.387 v 0 c 4.59,-2.191 7.785,-4.59 9.57,-6.984 1.606,-2.399 2.399,-4.981 2.399,-7.582 0,-3.985 -1.602,-6.989 -4.789,-8.981 -3.196,-2.191 -7.586,-3.187 -12.965,-3.187 -4.996,0 -9.778,0.789 -13.961,2.597 -4.203,1.586 -7.781,3.188 -10.785,4.586 v 0 l -1.18,-17.957 v 0" /><path
         id="path60"
         style="fill:#ffffff;fill-opacity:1;fill-rule:nonzero;stroke:none"
         d="m 760.828,770.914 h 18.762 v 0 c -0.203,1.789 -0.606,4.391 -0.801,7.383 -0.195,2.988 -0.402,6.176 -0.402,9.57 v 0 48.891 0 c 0,6.789 -0.606,12.375 -1.992,16.762 -1.395,4.39 -3.59,7.972 -6.192,10.976 -2.195,2.582 -5.777,4.981 -10.566,7.176 -4.793,1.996 -10.977,2.992 -18.758,2.992 -6.582,0 -12.371,-0.797 -17.356,-2.383 -4.988,-1.605 -9.578,-3.394 -13.363,-5.59 v 0 l 1.594,-17.761 v 0 c 2.59,2.586 6.391,4.98 11.371,7.179 4.797,1.993 9.98,3 15.762,3 7.383,0 12.558,-2.004 15.75,-5.988 1.601,-2 2.804,-4.191 3.398,-6.59 0.606,-2.593 0.805,-5.383 0.805,-8.57 v 0 -4.207 h -7.395 v 0 c -16.554,0 -29.316,-2.785 -37.89,-8.172 -8.575,-5.586 -12.965,-14.367 -12.965,-26.34 0,-4.789 0.797,-8.976 2.383,-12.777 1.601,-3.785 3.8,-6.774 6.582,-9.371 2.597,-2.598 5.789,-4.391 9.379,-5.586 3.593,-1.387 7.382,-1.977 11.566,-1.977 7.586,0 13.57,1.574 18.16,4.762 4.395,3.004 7.988,6.586 10.567,10.586 v 0 h 0.41 v 0 c 0,-0.606 0,-1.602 0.199,-2.988 0,-1.403 0,-2.805 0.203,-4.203 0.184,-1.387 0.184,-2.786 0.391,-3.989 0.207,-1.398 0.207,-2.191 0.398,-2.785 v 0" /><path
         id="path62"
         style="fill:#ffffff;fill-opacity:1;fill-rule:nonzero;stroke:none"
         d="m 812.852,770.914 h 20.742 v 60.645 c 0,7.988 1.601,14.371 4.98,18.961 3.203,4.593 7.981,6.785 14.563,6.785 5.386,0 9.187,-1.793 11.785,-5.387 2.383,-3.594 3.574,-9.367 3.574,-17.352 v 0 -63.652 h 20.754 v 68.426 0 c 0,10.789 -2.387,19.367 -7.18,25.75 -4.797,6.379 -12.375,9.574 -22.734,9.574 -5.996,0 -11.184,-1.387 -15.773,-4.391 -4.59,-2.992 -8.18,-7.175 -10.758,-12.562 v 0 h -0.414 v 0 c 0,0.59 0,1.793 0,3.187 -0.203,1.403 -0.203,2.993 -0.399,4.594 -0.187,1.586 -0.187,3.192 -0.187,4.59 -0.203,1.387 -0.203,2.582 -0.203,3.195 v 0 h -19.551 v 0 c 0.183,-3.004 0.39,-6.199 0.594,-9.386 0.207,-3.395 0.207,-6.786 0.207,-10.18 v 0 -82.797 0" /><path
         id="path64"
         style="fill:#ffffff;fill-opacity:1;fill-rule:nonzero;stroke:none"
         d="m 923.547,770.914 h 20.738 v 60.645 c 0,7.988 1.602,14.371 4.981,18.961 3.203,4.593 7.992,6.785 14.574,6.785 5.379,0 9.176,-1.793 11.773,-5.387 2.387,-3.594 3.586,-9.367 3.586,-17.352 v 0 -63.652 h 20.742 v 68.426 0 c 0,10.789 -2.382,19.367 -7.179,25.75 -4.793,6.379 -12.371,9.574 -22.735,9.574 -5.984,0 -11.172,-1.387 -15.761,-4.391 -4.586,-2.992 -8.18,-7.175 -10.77,-12.562 v 0 h -0.402 v 0 c 0,0.59 0,1.793 0,3.187 -0.203,1.403 -0.203,2.993 -0.41,4.594 -0.184,1.586 -0.184,3.192 -0.184,4.59 -0.203,1.387 -0.203,2.582 -0.203,3.195 v 0 h -19.543 v 0 c 0.184,-3.004 0.391,-6.199 0.586,-9.386 0.207,-3.395 0.207,-6.786 0.207,-10.18 v 0 -82.797 0" /><path
         id="path66"
         style="fill:#ffffff;fill-opacity:1;fill-rule:nonzero;stroke:none"
         d="m 1048.91,816.195 h 58.45 v 6.989 c 0,8.984 -0.99,16.562 -2.8,23.148 -1.79,6.582 -4.38,11.969 -7.78,16.156 -3.39,4.203 -7.58,7.192 -12.17,9.184 -4.77,1.996 -9.97,2.992 -15.57,2.992 -6.37,0 -12.16,-1.203 -17.15,-3.785 -5.17,-2.598 -9.57,-6.383 -12.96,-10.977 -3.39,-4.789 -6.19,-10.379 -7.98,-16.961 -1.79,-6.589 -2.79,-13.761 -2.79,-21.543 0,-7.394 1,-14.371 2.79,-20.753 1.79,-6.399 4.39,-11.782 8.18,-16.372 3.58,-4.582 8.17,-8.175 13.76,-10.773 5.59,-2.773 12.17,-3.969 19.55,-3.969 6.4,0 12.17,0.59 17.17,1.977 4.98,1.398 8.98,2.785 12.36,4.187 v 0 l -1,17.356 v 0 c -2.59,-1.789 -5.98,-3.582 -9.99,-5.387 -4.18,-1.789 -9.16,-2.785 -15.15,-2.785 -9.57,0 -16.36,2.582 -20.54,7.98 -4.19,5.188 -6.38,12.969 -6.38,23.336 v 0" /><path
         id="path68"
         style="fill:#007f46;fill-opacity:1;fill-rule:nonzero;stroke:none"
         d="m 548.043,1069.16 v 42.7 h 12.977 v 0 c 7.769,0 13.558,-1.8 17.355,-5.59 3.781,-3.79 5.586,-8.79 5.586,-14.76 v 0 0 0 c 0,-6.58 -1.992,-11.97 -5.992,-16.17 -4.184,-4.19 -10.176,-6.18 -18.145,-6.18 v 0 h -11.781 v 0" /><path
         id="path70"
         style="fill:#007f46;fill-opacity:1;fill-rule:nonzero;stroke:none"
         d="m 548.043,1006.11 v 46.49 h 15.176 v 0 c 4.183,0 7.578,-0.61 10.566,-1.8 2.988,-1.19 5.387,-2.8 7.375,-4.99 1.805,-2.2 3.192,-4.6 4.188,-7.38 1.007,-2.8 1.402,-5.79 1.402,-9.18 v 0 0 0 c 0,-6.59 -1.992,-12.18 -5.98,-16.56 -3.997,-4.39 -9.973,-6.58 -18.157,-6.58 v 0 h -14.57 v 0" /><path
         id="path72"
         style="fill:#007f46;fill-opacity:1;fill-rule:nonzero;stroke:none"
         d="m 655.797,1048.61 c 0.183,9.37 1.992,16.75 5.383,21.95 3.394,4.98 8.172,7.58 14.164,7.58 12.371,0 18.547,-9.78 18.547,-29.53 v 0 h -38.094 v 0" /><path
         id="path74"
         style="fill:#007f46;fill-opacity:1;fill-rule:nonzero;stroke:none"
         d="m 450.152,820.992 v -9.183 c 0,-8.176 -1.808,-14.758 -5.386,-19.754 -3.793,-5.184 -9.18,-7.782 -16.559,-7.782 -5.398,0 -9.383,1.602 -12.168,4.59 -2.801,2.989 -4.203,7.192 -4.203,12.172 0,6.785 2.602,11.77 7.984,15.16 5.383,3.395 13.168,4.996 23.344,4.996 1.195,0 2.399,0 3.801,0 1.379,0 2.582,0 3.187,-0.199 v 0" /><path
         id="path76"
         style="fill:#007f46;fill-opacity:1;fill-rule:nonzero;stroke:none"
         d="m 758.84,820.992 v -9.183 c 0,-8.176 -1.797,-14.758 -5.383,-19.754 -3.801,-5.184 -9.18,-7.782 -16.562,-7.782 -5.403,0 -9.383,1.602 -12.168,4.59 -2.801,2.989 -4.2,7.192 -4.2,12.172 0,6.785 2.598,11.77 7.981,15.16 5.387,3.395 13.172,4.996 23.347,4.996 1.2,0 2.395,0 3.797,0 1.391,0 2.578,0 3.188,-0.199 v 0" /><path
         id="path78"
         style="fill:#007f46;fill-opacity:1;fill-rule:nonzero;stroke:none"
         d="m 1048.91,830.375 c 0.18,9.371 1.99,16.75 5.39,21.949 3.38,4.981 8.16,7.578 14.16,7.578 12.37,0 18.54,-9.773 18.54,-29.527 v 0 h -38.09 v 0" /></g></g></svg>