<?xml version="1.0" encoding="UTF-8" standalone="no"?>
<svg
   xmlns:dc="http://purl.org/dc/elements/1.1/"
   xmlns:cc="http://creativecommons.org/ns#"
   xmlns:rdf="http://www.w3.org/1999/02/22-rdf-syntax-ns#"
   xmlns:svg="http://www.w3.org/2000/svg"
   xmlns="http://www.w3.org/2000/svg"
   viewBox="0 0 174.24001 166.67999"
   height="166.67999"
   width="174.24001"
   xml:space="preserve"
   id="svg2"
   version="1.1"><metadata
     id="metadata8"><rdf:RDF><cc:Work
         rdf:about=""><dc:format>image/svg+xml</dc:format><dc:type
           rdf:resource="http://purl.org/dc/dcmitype/StillImage" /></cc:Work></rdf:RDF></metadata><defs
     id="defs6" /><g
     transform="matrix(1.3333333,0,0,-1.3333333,0,166.68)"
     id="g10"><g
       transform="scale(0.1)"
       id="g12"><path
         id="path14"
         style="fill:#ffffff;fill-opacity:1;fill-rule:nonzero;stroke:none"
         d="M 1.41797,1.41797 H 1305.348 V 1248.668 H 1.41797 Z" /><path
         id="path16"
         style="fill:none;stroke:#231f20;stroke-width:2.83500004;stroke-linecap:butt;stroke-linejoin:miter;stroke-miterlimit:4;stroke-dasharray:none;stroke-opacity:1"
         d="M 1.41797,1.41797 H 1305.35 V 1248.66 H 1.41797 V 1.41797" /><path
         id="path18"
         style="fill:#231f20;fill-opacity:1;fill-rule:nonzero;stroke:none"
         d="m 92.6406,1225.95 c -37.5586,0 -68.0117,-30.45 -68.0117,-68.04 v 0 -1065.8436 0 c 0,-37.5859 30.4531,-68.0273 68.0117,-68.0273 v 0 H 1215.21 v 0 c 37.56,0 68.01,30.4414 68.01,68.0273 v 0 1065.8436 0 c 0,37.59 -30.45,68.04 -68.01,68.04 v 0 H 92.6406 v 0" /><path
         id="path20"
         style="fill:#ffffff;fill-opacity:1;fill-rule:nonzero;stroke:none"
         d="m 92.6289,1203.21 c -25.0742,0 -45.3789,-20.32 -45.3789,-45.37 v 0 -1065.8048 0 c 0,-25.0977 20.3047,-45.375 45.3789,-45.375 v 0 H 1215.11 v 0 c 25.07,0 45.37,20.2773 45.37,45.375 v 0 1065.8048 0 c 0,25.05 -20.3,45.37 -45.37,45.37 v 0 H 92.6289 v 0" /><path
         id="path22"
         style="fill:#231f20;fill-opacity:1;fill-rule:nonzero;stroke:none"
         d="M 505.922,281.727 653.379,142.711 801.523,282.387 v 0 c 2.969,2.793 3.704,7.23 1.801,10.832 -1.898,3.613 -5.976,5.5 -9.949,4.636 v 0 L 685.133,274.223 v 86.172 H 621.641 V 274.223 L 514.07,297.191 v 0 c -3.972,0.879 -8.05,-1.019 -9.949,-4.617 -1.898,-3.621 -1.168,-8.039 1.801,-10.847 v 0" /><path
         id="path24"
         style="fill:#231f20;fill-opacity:1;fill-rule:nonzero;stroke:none"
         d="m 288.336,472.816 h 21.484 v 66.258 h 0.59 l 44.985,-66.258 h 26.855 l -53.52,73.426 49.348,65.461 h -25.07 l -42.598,-59.5 h -0.59 v 59.5 h -21.484 v -138.887 0" /><path
         id="path26"
         style="fill:#231f20;fill-opacity:1;fill-rule:nonzero;stroke:none"
         d="m 411.816,517.973 h 58.305 v 6.972 c 0,8.957 -0.988,16.516 -2.793,23.082 -1.785,6.567 -4.379,11.938 -7.762,16.114 -3.382,4.191 -7.558,7.172 -12.14,9.16 -4.766,1.988 -9.949,2.98 -15.524,2.98 -6.359,0 -12.136,-1.199 -17.101,-3.777 -5.172,-2.586 -9.551,-6.363 -12.938,-10.941 -3.383,-4.782 -6.175,-10.352 -7.961,-16.918 -1.781,-6.567 -2.777,-13.723 -2.777,-21.485 0,-7.375 0.996,-14.328 2.777,-20.695 1.786,-6.375 4.379,-11.746 8.164,-16.328 3.575,-4.563 8.153,-8.153 13.727,-10.742 5.57,-2.77 12.137,-3.965 19.496,-3.965 6.383,0 12.137,0.597 17.125,1.972 4.965,1.403 8.953,2.786 12.336,4.18 v 0 l -1.004,17.309 v 0 c -2.578,-1.786 -5.961,-3.575 -9.953,-5.371 -4.18,-1.786 -9.145,-2.778 -15.121,-2.778 -9.547,0 -16.313,2.574 -20.488,7.961 -4.18,5.172 -6.368,12.934 -6.368,23.27 v 0" /><path
         id="path28"
         style="fill:#231f20;fill-opacity:1;fill-rule:nonzero;stroke:none"
         d="m 500.664,472.816 h 20.691 v 60.481 c 0,7.961 1.583,14.324 4.969,18.906 3.184,4.578 7.965,6.766 14.531,6.766 5.372,0 9.161,-1.781 11.739,-5.371 2.386,-3.582 3.582,-9.344 3.582,-17.305 v 0 -63.477 h 20.695 v 68.243 0 c 0,10.754 -2.394,19.308 -7.16,25.675 -4.777,6.36 -12.336,9.547 -22.695,9.547 -6.766,0 -12.137,-1.582 -15.907,-4.566 -3.988,-3.195 -7.175,-6.563 -9.359,-10.352 v 0 h -0.395 v 60.692 h -20.691 v -149.239 0" /><path
         id="path30"
         style="fill:#231f20;fill-opacity:1;fill-rule:nonzero;stroke:none"
         d="m 612.641,472.816 h 20.691 v 54.922 c 0,5.168 0.59,9.547 1.785,13.321 1.196,3.785 2.793,6.769 4.781,9.156 1.989,2.191 4.379,3.973 6.973,5.172 2.578,0.996 5.164,1.593 8.149,1.593 1.195,0 2.386,0 3.382,-0.199 0.993,-0.199 2.188,-0.398 3.184,-0.59 v 0 19.903 0 c -0.391,0 -0.789,0 -0.996,0.187 -0.199,0 -0.59,0 -0.988,0 -3.778,0 -7.161,-0.386 -10.153,-1.383 -2.984,-0.996 -5.371,-2.394 -7.562,-4.191 -2.192,-1.785 -4.176,-3.773 -5.774,-5.961 -1.586,-2.187 -2.984,-4.578 -3.972,-7.172 v 0 h -0.407 v 0 c 0,0.805 0,2 0,3.582 -0.187,1.602 -0.187,3.391 -0.39,5.172 -0.199,1.801 -0.199,3.383 -0.199,4.985 -0.204,1.582 -0.204,2.777 -0.204,3.585 v 0 h -19.093 v 0 c 0.187,-2.992 0.386,-6.179 0.59,-9.359 0.203,-3.387 0.203,-6.769 0.203,-10.152 v 0 -82.571 0" /><path
         id="path32"
         style="fill:#231f20;fill-opacity:1;fill-rule:nonzero;stroke:none"
         d="m 679.469,476.793 c 3.183,-1.398 7.156,-2.793 12.129,-3.789 4.781,-0.977 10.152,-1.574 15.922,-1.574 11.539,0 20.308,2.769 26.468,8.539 5.965,5.777 8.957,13.136 8.957,22.297 v 0 0 0 c 0,6.16 -1.797,11.144 -5.187,14.918 -3.57,3.789 -8.348,7.558 -14.512,10.941 v 0 l -8.953,4.984 v 0 c -4.582,2.579 -7.969,4.766 -10.559,6.954 -2.578,2.003 -3.773,4.781 -3.773,8.164 0,3.586 1.195,6.566 3.773,8.753 2.59,2.196 6.379,3.188 11.551,3.188 4.172,0 8.16,-0.406 11.531,-1.199 3.383,-0.992 6.567,-1.989 9.36,-3.184 v 0 l 0.996,16.719 v 0 c -2.192,0.797 -5.168,1.586 -9.16,2.578 -4.172,0.813 -8.953,1.199 -14.324,1.199 -5.172,0 -9.754,-0.793 -13.926,-2.379 -4.18,-1.597 -7.766,-3.785 -10.742,-6.379 -2.985,-2.777 -5.372,-5.96 -6.973,-9.343 -1.582,-3.586 -2.387,-7.36 -2.387,-11.145 0,-3.586 0.606,-6.765 1.594,-9.551 0.996,-2.793 2.394,-5.183 4.176,-7.371 1.789,-2.187 3.789,-3.976 6.367,-5.57 2.594,-1.789 5.371,-3.371 8.555,-4.969 v 0 l 10.757,-5.371 v 0 c 4.579,-2.191 7.758,-4.578 9.543,-6.973 1.598,-2.39 2.391,-4.964 2.391,-7.558 0,-3.973 -1.598,-6.973 -4.781,-8.953 -3.18,-2.196 -7.559,-3.184 -12.93,-3.184 -4.98,0 -9.75,0.789 -13.926,2.586 -4.187,1.586 -7.758,3.184 -10.758,4.582 v 0 l -1.179,-17.91 v 0" /><path
         id="path34"
         style="fill:#231f20;fill-opacity:1;fill-rule:nonzero;stroke:none"
         d="m 828.223,472.816 h 18.707 v 0 c -0.207,1.782 -0.606,4.375 -0.793,7.36 -0.203,2.98 -0.407,6.16 -0.407,9.547 v 0 48.757 0 c 0,6.77 -0.601,12.34 -1.984,16.719 -1.398,4.375 -3.586,7.949 -6.18,10.942 -2.183,2.578 -5.757,4.968 -10.539,7.16 -4.781,1.988 -10.941,2.98 -18.707,2.98 -6.566,0 -12.34,-0.793 -17.308,-2.379 -4.981,-1.597 -9.563,-3.379 -13.332,-5.57 v 0 l 1.582,-17.711 v 0 c 2.593,2.578 6.379,4.965 11.347,7.156 4.782,1.985 9.954,2.993 15.723,2.993 7.359,0 12.531,-2 15.715,-5.977 1.598,-1.984 2.793,-4.172 3.383,-6.566 0.605,-2.586 0.804,-5.372 0.804,-8.555 v 0 -4.188 h -7.371 v 0 c -16.519,0 -29.25,-2.777 -37.804,-8.152 -8.547,-5.57 -12.93,-14.324 -12.93,-26.262 0,-4.781 0.793,-8.957 2.379,-12.746 1.597,-3.773 3.785,-6.75 6.566,-9.344 2.59,-2.593 5.774,-4.382 9.356,-5.578 3.59,-1.375 7.363,-1.972 11.539,-1.972 7.558,0 13.535,1.574 18.117,4.758 4.375,2.992 7.961,6.562 10.539,10.554 v 0 h 0.402 v 0 c 0,-0.605 0,-1.601 0.203,-2.984 0,-1.395 0,-2.793 0.204,-4.188 0.183,-1.382 0.183,-2.777 0.382,-3.976 0.207,-1.395 0.207,-2.192 0.407,-2.778 v 0" /><path
         id="path36"
         style="fill:#231f20;fill-opacity:1;fill-rule:nonzero;stroke:none"
         d="m 927.539,474.398 v 15.524 c -1.394,-0.606 -2.777,-1.195 -4.379,-1.598 -1.597,-0.59 -3.379,-0.789 -5.57,-0.789 -3.777,0 -6.363,1.192 -8.164,3.383 -1.789,2.187 -2.578,5.977 -2.578,11.547 v 0 56.504 h 20.691 v 15.929 h -20.691 v 27.059 l -20.696,-6.164 V 574.898 H 869.84 v -15.929 h 16.312 v -60.692 0 c 0,-9.754 2.192,-16.703 6.77,-20.695 4.562,-4.18 10.945,-6.152 19.297,-6.152 2.98,0 5.972,0.207 8.551,0.797 2.593,0.777 4.984,1.382 6.769,2.171 v 0" /><path
         id="path38"
         style="fill:#231f20;fill-opacity:1;fill-rule:nonzero;stroke:none"
         d="m 951.965,472.816 h 67.445 v 16.5 h -46.164 l 44.974,67.465 v 18.117 h -64.876 v -16.519 h 43.976 l -45.355,-67.262 v -18.301 0" /><path
         id="path40"
         style="fill:#ffffff;fill-opacity:1;fill-rule:nonzero;stroke:none"
         d="m 411.816,532.113 c 0.188,9.348 1.989,16.703 5.372,21.891 3.382,4.965 8.148,7.559 14.125,7.559 12.343,0 18.507,-9.75 18.507,-29.45 v 0 h -38.004 v 0" /><path
         id="path42"
         style="fill:#ffffff;fill-opacity:1;fill-rule:nonzero;stroke:none"
         d="m 826.234,522.754 v -9.156 c 0,-8.153 -1.8,-14.715 -5.371,-19.703 -3.789,-5.168 -9.16,-7.758 -16.515,-7.758 -5.387,0 -9.364,1.597 -12.141,4.582 -2.793,2.976 -4.187,7.168 -4.187,12.136 0,6.77 2.589,11.735 7.96,15.118 5.372,3.382 13.137,4.98 23.282,4.98 1.199,0 2.394,0 3.789,0 1.383,0 2.578,0 3.183,-0.199 v 0" /><path
         id="path44"
         style="fill:#1a67bb;fill-opacity:1;fill-rule:nonzero;stroke:none"
         d="m 359.098,766.461 h 589.609 v 317.496 H 359.098 Z" /><path
         id="path46"
         style="fill:#ffffff;fill-opacity:1;fill-rule:nonzero;stroke:none"
         d="m 446.449,856.992 h 43.199 v 0 c 7.965,0 15.02,1.125 21.153,3.399 6.137,2.062 11.148,5.242 15.469,9.101 4.316,3.879 7.5,8.641 9.777,14.098 2.043,5.242 3.18,11.148 3.18,17.512 v 0 0 0 c 0,6.148 -0.907,11.375 -2.504,16.16 -1.817,4.543 -4.09,8.406 -6.809,11.59 -2.973,2.964 -6.148,5.453 -9.562,7.285 -3.633,1.812 -7.274,2.949 -10.918,3.629 v 0 0.457 0 c 3.414,1.14 6.597,2.507 9.781,4.55 2.965,1.817 5.687,4.094 8.191,7.043 2.508,2.969 4.317,6.383 5.918,10.469 1.582,3.863 2.262,8.641 2.262,13.867 0,12.743 -3.629,22.524 -10.918,29.348 -7.5,6.81 -19.09,10.23 -35.02,10.23 v 0 h -43.199 v -158.738 0" /><path
         id="path48"
         style="fill:#ffffff;fill-opacity:1;fill-rule:nonzero;stroke:none"
         d="m 593.391,908.617 h 66.625 v 7.949 c 0,10.239 -1.137,18.879 -3.184,26.383 -2.043,7.516 -4.996,13.649 -8.867,18.434 -3.863,4.765 -8.645,8.176 -13.867,10.453 -5.461,2.277 -11.379,3.414 -17.746,3.414 -7.27,0 -13.868,-1.375 -19.551,-4.324 -5.922,-2.953 -10.918,-7.27 -14.789,-12.512 -3.864,-5.461 -7.039,-11.824 -9.086,-19.328 -2.063,-7.5 -3.184,-15.691 -3.184,-24.566 0,-8.407 1.121,-16.372 3.184,-23.641 2.047,-7.289 4.996,-13.422 9.316,-18.649 4.09,-5.242 9.328,-9.332 15.692,-12.285 6.367,-3.168 13.875,-4.535 22.296,-4.535 7.27,0 13.868,0.68 19.555,2.262 5.688,1.582 10.235,3.183 14.098,4.781 v 0 l -1.137,19.785 v 0 c -2.957,-2.058 -6.828,-4.105 -11.379,-6.148 -4.765,-2.047 -10.453,-3.184 -17.281,-3.184 -10.91,0 -18.648,2.953 -23.426,9.102 -4.765,5.902 -7.269,14.773 -7.269,26.609 v 0" /><path
         id="path50"
         style="fill:#ffffff;fill-opacity:1;fill-rule:nonzero;stroke:none"
         d="m 694.664,856.992 h 23.641 v 62.758 c 0,5.918 0.695,10.93 2.047,15.25 1.367,4.32 3.183,7.73 5.457,10.453 2.277,2.504 5.011,4.551 7.964,5.918 2.95,1.137 5.918,1.817 9.332,1.817 1.352,0 2.719,0 3.86,-0.235 1.137,-0.23 2.504,-0.445 3.64,-0.672 v 0 22.735 0 c -0.46,0 -0.91,0 -1.136,0.234 -0.231,0 -0.692,0 -1.137,0 -4.324,0 -8.195,-0.465 -11.609,-1.602 -3.399,-1.125 -6.133,-2.722 -8.637,-4.765 -2.496,-2.047 -4.77,-4.324 -6.598,-6.828 -1.816,-2.504 -3.41,-5.223 -4.55,-8.192 v 0 h -0.442 v 0 c 0,0.922 0,2.274 0,4.106 -0.23,1.812 -0.23,3.859 -0.465,5.902 -0.23,2.063 -0.23,3.875 -0.23,5.688 -0.215,1.828 -0.215,3.179 -0.215,4.089 v 0 h -21.832 v 0 c 0.215,-3.398 0.445,-7.043 0.676,-10.683 0.234,-3.86 0.234,-7.735 0.234,-11.594 v 0 -94.379 0" /><path
         id="path52"
         style="fill:#ffffff;fill-opacity:1;fill-rule:nonzero;stroke:none"
         d="m 774.238,856.992 h 23.645 v 69.137 c 0,9.086 1.828,16.371 5.687,21.601 3.641,5.223 9.102,7.735 16.602,7.735 6.137,0 10.457,-2.047 13.422,-6.137 2.719,-4.105 4.086,-10.699 4.086,-19.785 v 0 -72.551 h 23.664 V 935 v 0 c 0,12.27 -2.735,22.059 -8.196,29.332 -5.457,7.273 -14.093,10.918 -25.918,10.918 -6.824,0 -12.742,-1.602 -17.972,-5 -5.231,-3.414 -9.332,-8.195 -12.285,-14.328 v 0 h -0.457 v 0 c 0,0.676 0,2.047 0,3.629 -0.215,1.597 -0.215,3.414 -0.446,5.242 -0.234,1.812 -0.234,3.629 -0.234,5.227 -0.231,1.585 -0.231,2.953 -0.231,3.628 v 0 h -22.273 v 0 c 0.215,-3.398 0.441,-7.043 0.676,-10.683 0.23,-3.86 0.23,-7.735 0.23,-11.594 v 0 -94.379 0" /><path
         id="path54"
         style="fill:#1a67bb;fill-opacity:1;fill-rule:nonzero;stroke:none"
         d="m 470.559,948.188 v 48.656 h 14.769 v 0 c 8.871,0 15.469,-2.039 19.785,-6.36 4.321,-4.32 6.367,-10.011 6.367,-16.836 v 0 0 0 c 0,-7.5 -2.277,-13.64 -6.812,-18.418 -4.781,-4.765 -11.605,-7.042 -20.707,-7.042 v 0 h -13.402 v 0" /><path
         id="path56"
         style="fill:#1a67bb;fill-opacity:1;fill-rule:nonzero;stroke:none"
         d="m 470.559,876.316 v 52.997 h 17.273 v 0 c 4.785,0 8.645,-0.696 12.055,-2.047 3.414,-1.368 6.133,-3.184 8.41,-5.688 2.047,-2.504 3.641,-5.226 4.781,-8.422 1.137,-3.187 1.602,-6.597 1.602,-10.457 v 0 0 0 c 0,-7.504 -2.278,-13.867 -6.828,-18.875 -4.551,-5 -11.375,-7.508 -20.692,-7.508 v 0 h -16.601 v 0" /><path
         id="path58"
         style="fill:#1a67bb;fill-opacity:1;fill-rule:nonzero;stroke:none"
         d="m 593.391,924.762 c 0.226,10.683 2.273,19.105 6.129,25.011 3.875,5.692 9.332,8.641 16.16,8.641 14.093,0 21.152,-11.144 21.152,-33.652 v 0 h -43.441 v 0" /></g></g></svg>