<?xml version="1.0" encoding="UTF-8" standalone="no"?>
<svg
   xmlns:dc="http://purl.org/dc/elements/1.1/"
   xmlns:cc="http://creativecommons.org/ns#"
   xmlns:rdf="http://www.w3.org/1999/02/22-rdf-syntax-ns#"
   xmlns:svg="http://www.w3.org/2000/svg"
   xmlns="http://www.w3.org/2000/svg"
   viewBox="0 0 105.82667 69.546669"
   height="69.546669"
   width="105.82667"
   xml:space="preserve"
   id="svg2"
   version="1.1"><metadata
     id="metadata8"><rdf:RDF><cc:Work
         rdf:about=""><dc:format>image/svg+xml</dc:format><dc:type
           rdf:resource="http://purl.org/dc/dcmitype/StillImage" /></cc:Work></rdf:RDF></metadata><defs
     id="defs6" /><g
     transform="matrix(1.3333333,0,0,-1.3333333,0,69.546667)"
     id="g10"><g
       transform="scale(0.1)"
       id="g12"><path
         id="path14"
         style="fill:#231f20;fill-opacity:1;fill-rule:nonzero;stroke:none"
         d="M 0,0 H 793.699 V 521.563 H 0 Z" /><path
         id="path16"
         style="fill:#ffffff;fill-opacity:1;fill-rule:nonzero;stroke:none"
         d="m 170.445,344.215 0.008,170.078 H 7.17188 V 344.215 H 170.445" /><path
         id="path18"
         style="fill:#ffffff;fill-opacity:1;fill-rule:nonzero;stroke:none"
         d="M 7.23047,180.957 H 170.504 l 0.008,158.746 H 7.23047 V 180.957" /><path
         id="path20"
         style="fill:#ffffff;fill-opacity:1;fill-rule:nonzero;stroke:none"
         d="M 170.504,6.52344 170.512,176.602 H 7.23047 V 6.52344 H 170.504" /><path
         id="path22"
         style="fill:#ffffff;fill-opacity:1;fill-rule:nonzero;stroke:none"
         d="M 174.805,6.54297 H 787.09 v 170.086 H 174.805 Z" /><path
         id="path24"
         style="fill:#ffffff;fill-opacity:1;fill-rule:nonzero;stroke:none"
         d="m 174.672,180.957 h 612.293 v 158.75 H 174.672 Z" /><path
         id="path26"
         style="fill:#ffffff;fill-opacity:1;fill-rule:nonzero;stroke:none"
         d="M 174.805,344.215 H 787.09 V 514.293 H 174.805 Z" /><path
         id="path28"
         style="fill:#231f20;fill-opacity:1;fill-rule:nonzero;stroke:none"
         d="m 120.902,470.188 -81.4606,6.261 v 0 c -2.7773,0.219 -5.0781,-2.082 -4.8594,-4.859 v 0 l 6.2578,-81.453 v 0 c 0.1602,-1.973 1.5625,-3.61 3.4766,-4.067 1.9219,-0.449 3.9141,0.391 4.9336,2.086 v 0 l 21,34.985 43.289,-49.707 24.055,24.05 -49.7073,43.301 35.0083,20.992 v 0 c 1.679,1.012 2.519,3.004 2.07,4.926 -0.449,1.926 -2.094,3.332 -4.063,3.485 v 0" /><path
         id="path30"
         style="fill:#231f20;fill-opacity:1;fill-rule:nonzero;stroke:none"
         d="m 141.973,259.902 -53.1644,62.02 v 0 c -1.8125,2.113 -5.082,2.113 -6.8906,0 v 0 l -53.1641,-62.02 v 0 c -1.293,-1.5 -1.4531,-3.66 -0.4141,-5.336 1.0352,-1.679 3.043,-2.496 4.9532,-2.027 v 0 l 39.6015,9.899 -4.5351,-65.758 h 34.0196 l -4.5431,65.758 39.5981,-9.899 v 0 c 1.914,-0.469 3.914,0.348 4.953,2.027 1.035,1.676 0.875,3.836 -0.414,5.336 v 0" /><path
         id="path32"
         style="fill:#231f20;fill-opacity:1;fill-rule:nonzero;stroke:none"
         d="m 132.598,55.9688 6.265,81.4452 v 0 c 0.219,2.774 -2.086,5.078 -4.859,4.871 v 0 l -81.461,-6.269 v 0 c -1.9688,-0.145 -3.6016,-1.555 -4.0664,-3.477 -0.4493,-1.922 0.3945,-3.918 2.0859,-4.93 v 0 l 34.9883,-20.996 -49.711,-43.2927 24.0547,-24.0508 43.2935,49.7071 21,-35 v 0 c 1.011,-1.6914 3.019,-2.5313 4.929,-2.0703 1.922,0.4492 3.328,2.0898 3.481,4.0625 v 0" /><path
         id="path34"
         style="fill:#231f20;fill-opacity:1;fill-rule:nonzero;stroke:none"
         d="m 208.688,401.035 h 11.363 v 67.305 h 0.226 l 20.348,-67.305 h 8.754 l 21.269,67.305 h 0.231 v -67.305 h 11.363 v 79.36 h -18.07 l -18.531,-61.172 h -0.235 l -18.07,61.172 h -18.648 v -79.36 0" /><path
         id="path36"
         style="fill:#231f20;fill-opacity:1;fill-rule:nonzero;stroke:none"
         d="m 303.238,407.285 c 2.157,-2.39 4.782,-4.203 7.848,-5.34 2.953,-1.125 6.137,-1.699 9.551,-1.699 3.406,0 6.59,0.574 9.656,1.699 2.969,1.137 5.574,2.95 7.734,5.34 2.161,2.391 3.989,5.461 5.231,9.203 1.25,3.758 1.941,8.426 1.941,13.766 v 0 0 0 c 0,5.226 -0.691,9.777 -1.941,13.535 -1.242,3.746 -3.07,6.93 -5.231,9.316 -2.16,2.391 -4.765,4.204 -7.734,5.344 -3.066,1.137 -6.25,1.711 -9.656,1.711 -3.414,0 -6.598,-0.574 -9.551,-1.711 -3.066,-1.14 -5.691,-2.953 -7.848,-5.344 -2.16,-2.386 -3.976,-5.57 -5.23,-9.316 -1.25,-3.758 -1.93,-8.309 -1.93,-13.535 0,-5.34 0.68,-10.008 1.93,-13.766 1.254,-3.742 3.07,-6.812 5.23,-9.203 v 0" /><path
         id="path38"
         style="fill:#231f20;fill-opacity:1;fill-rule:nonzero;stroke:none"
         d="m 358.332,401.035 h 11.824 v 34.563 c 0,4.55 0.903,8.191 2.848,10.8 1.816,2.622 4.551,3.872 8.297,3.872 3.062,0 5.226,-1.024 6.707,-3.082 1.371,-2.047 2.047,-5.34 2.047,-9.895 v 0 -36.258 h 11.82 v 38.996 0 c 0,6.137 -1.348,11.028 -4.086,14.672 -2.723,3.633 -7.043,5.457 -12.961,5.457 -3.41,0 -6.367,-0.805 -8.988,-2.504 -2.602,-1.715 -4.664,-4.086 -6.133,-7.172 v 0 h -0.23 v 0 c 0,0.348 0,1.024 0,1.832 -0.118,0.789 -0.118,1.7 -0.227,2.606 -0.117,0.918 -0.117,1.824 -0.117,2.617 -0.113,0.797 -0.113,1.484 -0.113,1.816 v 0 h -11.133 v 0 c 0.101,-1.699 0.215,-3.515 0.332,-5.339 0.113,-1.93 0.113,-3.86 0.113,-5.809 v 0 -47.172 0" /><path
         id="path40"
         style="fill:#231f20;fill-opacity:1;fill-rule:nonzero;stroke:none"
         d="m 417.832,401.035 h 11.133 v 0 c 0,0.215 0,0.68 0.117,1.469 0.106,0.793 0.106,1.598 0.227,2.621 0,0.906 0,1.813 0.117,2.723 0,0.906 0,1.597 0,2.047 v 0 h 0.23 v 0 c 0.559,-1.243 1.352,-2.379 2.278,-3.52 0.793,-1.137 1.804,-2.156 3.066,-3.078 1.25,-0.91 2.605,-1.582 4.316,-2.16 1.7,-0.664 3.645,-0.891 5.801,-0.891 3.301,0 6.25,0.688 8.762,2.141 2.488,1.371 4.644,3.414 6.363,6.035 1.699,2.609 2.949,5.691 3.86,9.433 0.8,3.645 1.25,7.731 1.25,12.282 v 0 0 0 c 0,9.894 -1.817,17.281 -5.457,22.406 -3.645,5.113 -8.528,7.617 -14.661,7.617 -3.757,0 -6.828,-0.805 -9.101,-2.504 -2.395,-1.715 -4.317,-3.871 -5.801,-6.48 v 0 h -0.234 v 35.137 h -11.817 v -74.938 0 c 0,-1.93 0,-3.859 -0.117,-5.574 -0.117,-1.699 -0.234,-3.297 -0.332,-4.766 v 0" /><path
         id="path42"
         style="fill:#231f20;fill-opacity:1;fill-rule:nonzero;stroke:none"
         d="m 474.023,401.035 h 11.817 v 58.32 h -11.817 v -58.32 0" /><path
         id="path44"
         style="fill:#231f20;fill-opacity:1;fill-rule:nonzero;stroke:none"
         d="m 473.691,471.078 h 12.5 v 12.613 h -12.5 v -12.613 0" /><path
         id="path46"
         style="fill:#231f20;fill-opacity:1;fill-rule:nonzero;stroke:none"
         d="m 493.152,385.918 -0.214,-9.203 v 0 c 1.027,-0.231 2.05,-0.461 3.292,-0.695 1.25,-0.11 2.5,-0.215 3.75,-0.215 2.84,0 5.118,0.332 7.063,1.125 1.812,0.804 3.301,1.941 4.434,3.41 1.023,1.605 1.816,3.531 2.273,5.918 0.332,2.394 0.566,5.113 0.566,8.297 v 0 64.8 h -11.828 v -65.359 0 c 0,-1.93 -0.113,-3.414 -0.23,-4.551 -0.227,-1.14 -0.559,-2.047 -0.91,-2.722 -0.457,-0.575 -1.016,-1.039 -1.59,-1.254 -0.688,-0.114 -1.477,-0.231 -2.395,-0.231 -0.793,0 -1.582,0.117 -2.258,0.231 -0.691,0.117 -1.375,0.332 -1.953,0.449 v 0" /><path
         id="path48"
         style="fill:#231f20;fill-opacity:1;fill-rule:nonzero;stroke:none"
         d="m 502.148,471.078 h 12.508 v 12.613 h -12.508 v -12.613 0" /><path
         id="path50"
         style="fill:#231f20;fill-opacity:1;fill-rule:nonzero;stroke:none"
         d="m 535.652,407.285 c 2.161,-2.39 4.778,-4.203 7.856,-5.34 2.949,-1.125 6.133,-1.699 9.539,-1.699 3.418,0 6.594,0.574 9.668,1.699 2.961,1.137 5.566,2.95 7.723,5.34 2.167,2.391 3.996,5.461 5.238,9.203 1.25,3.758 1.941,8.426 1.941,13.766 v 0 0 0 c 0,5.226 -0.691,9.777 -1.941,13.535 -1.242,3.746 -3.071,6.93 -5.238,9.316 -2.157,2.391 -4.762,4.204 -7.723,5.344 -3.074,1.137 -6.25,1.711 -9.668,1.711 -3.406,0 -6.59,-0.574 -9.539,-1.711 -3.078,-1.14 -5.695,-2.953 -7.856,-5.344 -2.156,-2.386 -3.972,-5.57 -5.222,-9.316 -1.258,-3.758 -1.934,-8.309 -1.934,-13.535 0,-5.34 0.676,-10.008 1.934,-13.766 1.25,-3.742 3.066,-6.812 5.222,-9.203 v 0" /><path
         id="path52"
         style="fill:#231f20;fill-opacity:1;fill-rule:nonzero;stroke:none"
         d="m 623.02,401.035 h 11.128 v 0 c -0.117,1.699 -0.21,3.516 -0.332,5.461 -0.117,1.809 -0.117,3.742 -0.117,5.672 v 0 47.187 h -11.812 v -34.214 0 c 0,-4.551 -0.93,-8.192 -2.629,-10.926 -1.699,-2.727 -4.551,-4.094 -8.289,-4.094 -3.086,0 -5.246,1.024 -6.711,3.067 -1.485,2.062 -2.278,5.355 -2.278,9.894 v 0 36.273 h -11.824 v -38.992 0 c 0,-6.148 1.36,-11.031 4.094,-14.675 2.723,-3.625 7.039,-5.442 12.957,-5.442 3.977,0 7.156,0.891 9.551,2.836 2.273,1.813 4.101,4.086 5.566,6.813 v 0 h 0.235 l 0.461,-8.86 v 0" /><path
         id="path54"
         style="fill:#231f20;fill-opacity:1;fill-rule:nonzero;stroke:none"
         d="m 208.688,226.25 h 12.269 v 79.355 h -12.269 v -79.355 0" /><path
         id="path56"
         style="fill:#231f20;fill-opacity:1;fill-rule:nonzero;stroke:none"
         d="m 237.617,226.25 h 11.821 v 34.563 c 0,4.55 0.91,8.191 2.851,10.792 1.816,2.625 4.551,3.879 8.297,3.879 3.066,0 5.227,-1.027 6.711,-3.082 1.367,-2.047 2.043,-5.339 2.043,-9.894 v 0 -36.258 h 11.824 v 38.996 0 c 0,6.129 -1.355,11.027 -4.094,14.672 -2.718,3.625 -7.043,5.457 -12.961,5.457 -3.41,0 -6.359,-0.805 -8.98,-2.504 -2.609,-1.715 -4.668,-4.09 -6.137,-7.172 v 0 h -0.23 v 0 c 0,0.344 0,1.02 0,1.832 -0.114,0.789 -0.114,1.699 -0.231,2.602 -0.113,0.922 -0.113,1.828 -0.113,2.621 -0.117,0.789 -0.117,1.484 -0.117,1.816 v 0 h -11.133 v 0 c 0.102,-1.699 0.219,-3.515 0.332,-5.34 0.117,-1.937 0.117,-3.863 0.117,-5.808 v 0 -47.172 0" /><path
         id="path58"
         style="fill:#231f20;fill-opacity:1;fill-rule:nonzero;stroke:none"
         d="m 296.184,228.512 c 1.816,-0.793 4.086,-1.59 6.921,-2.164 2.739,-0.547 5.805,-0.895 9.102,-0.895 6.598,0 11.594,1.586 15.121,4.883 3.414,3.301 5.113,7.504 5.113,12.73 v 0 0 0 c 0,3.532 -1.023,6.368 -2.953,8.524 -2.047,2.164 -4.781,4.324 -8.293,6.265 v 0 l -5.125,2.84 v 0 c -2.609,1.481 -4.539,2.731 -6.019,3.973 -1.488,1.137 -2.16,2.734 -2.16,4.664 0,2.043 0.672,3.758 2.16,5.016 1.48,1.25 3.64,1.808 6.594,1.808 2.386,0 4.664,-0.23 6.593,-0.672 1.93,-0.578 3.742,-1.136 5.34,-1.832 v 0 l 0.563,9.559 v 0 c -1.235,0.453 -2.95,0.91 -5.223,1.473 -2.395,0.464 -5.113,0.691 -8.18,0.691 -2.968,0 -5.57,-0.461 -7.965,-1.367 -2.39,-0.906 -4.433,-2.16 -6.132,-3.645 -1.715,-1.582 -3.082,-3.41 -3.989,-5.343 -0.91,-2.04 -1.367,-4.204 -1.367,-6.364 0,-2.043 0.34,-3.871 0.918,-5.457 0.563,-1.597 1.356,-2.949 2.379,-4.203 1.02,-1.258 2.156,-2.277 3.641,-3.183 1.484,-1.036 3.066,-1.946 4.898,-2.856 v 0 l 6.133,-3.062 v 0 c 2.621,-1.25 4.434,-2.625 5.457,-3.977 0.91,-1.367 1.367,-2.852 1.367,-4.32 0,-2.278 -0.906,-3.985 -2.734,-5.121 -1.817,-1.258 -4.321,-1.817 -7.387,-1.817 -2.836,0 -5.574,0.442 -7.965,1.469 -2.39,0.922 -4.433,1.824 -6.133,2.621 v 0 l -0.675,-10.238 v 0" /><path
         id="path60"
         style="fill:#231f20;fill-opacity:1;fill-rule:nonzero;stroke:none"
         d="m 356.355,252.055 h 33.313 v 3.972 c 0,5.125 -0.563,9.446 -1.586,13.192 -1.019,3.761 -2.508,6.824 -4.434,9.215 -1.929,2.39 -4.324,4.089 -6.945,5.23 -2.719,1.137 -5.687,1.711 -8.867,1.711 -3.625,0 -6.93,-0.691 -9.777,-2.164 -2.954,-1.477 -5.457,-3.641 -7.391,-6.258 -1.93,-2.723 -3.523,-5.91 -4.551,-9.664 -1.019,-3.746 -1.582,-7.851 -1.582,-12.285 0,-4.203 0.563,-8.176 1.582,-11.82 1.028,-3.645 2.512,-6.707 4.668,-9.317 2.047,-2.621 4.664,-4.668 7.848,-6.148 3.183,-1.571 6.93,-2.266 11.133,-2.266 3.64,0 6.937,0.348 9.789,1.129 2.84,0.789 5.113,1.598 7.043,2.387 v 0 l -0.563,9.894 v 0 c -1.48,-1.023 -3.414,-2.047 -5.683,-3.066 -2.391,-1.02 -5.231,-1.598 -8.641,-1.598 -5.461,0 -9.332,1.481 -11.727,4.551 -2.371,2.949 -3.629,7.383 -3.629,13.305 v 0" /><path
         id="path62"
         style="fill:#231f20;fill-opacity:1;fill-rule:nonzero;stroke:none"
         d="m 403.965,226.25 h 11.828 v 85.273 h -11.828 v -85.273 0" /><path
         id="path64"
         style="fill:#231f20;fill-opacity:1;fill-rule:nonzero;stroke:none"
         d="m 208.688,63.0078 h 38.32 v 10.1094 h -26.051 v 69.2538 h -12.269 v -79.3632 0" /><path
         id="path66"
         style="fill:#231f20;fill-opacity:1;fill-rule:nonzero;stroke:none"
         d="m 263.652,132.246 h 10.004 v 11.934 h -10.004 v -11.934 0" /><path
         id="path68"
         style="fill:#231f20;fill-opacity:1;fill-rule:nonzero;stroke:none"
         d="m 282.301,132.246 h 10.008 v 11.934 h -10.008 v -11.934 0" /><path
         id="path70"
         style="fill:#231f20;fill-opacity:1;fill-rule:nonzero;stroke:none"
         d="m 288.551,63.0078 h 10.683 v 0 c -0.101,1.0274 -0.332,2.4883 -0.445,4.211 -0.117,1.6992 -0.23,3.5156 -0.23,5.457 v 0 27.8442 0 c 0,3.875 -0.344,7.058 -1.137,9.57 -0.797,2.488 -2.047,4.531 -3.531,6.25 -1.254,1.473 -3.293,2.828 -6.02,4.078 -2.734,1.145 -6.25,1.723 -10.683,1.723 -3.758,0 -7.055,-0.461 -9.891,-1.368 -2.856,-0.91 -5.461,-1.937 -7.617,-3.187 v 0 l 0.906,-10.125 v 0 c 1.465,1.484 3.629,2.844 6.48,4.094 2.719,1.133 5.688,1.707 8.985,1.707 4.203,0 7.156,-1.133 8.969,-3.407 0.921,-1.132 1.601,-2.394 1.945,-3.761 0.332,-1.465 0.449,-3.067 0.449,-4.883 v 0 -2.3907 h -4.207 v 0 c -9.434,0 -16.719,-1.5937 -21.602,-4.6601 -4.894,-3.1836 -7.386,-8.1836 -7.386,-15.0079 0,-2.7343 0.449,-5.1289 1.351,-7.2851 0.91,-2.1602 2.164,-3.8594 3.762,-5.3438 1.469,-1.4648 3.297,-2.4882 5.34,-3.1836 2.047,-0.7695 4.207,-1.121 6.598,-1.121 4.32,0 7.734,0.8984 10.351,2.7226 2.496,1.6992 4.535,3.7422 6.02,6.0156 v 0 h 0.23 v 0 c 0,-0.332 0,-0.9062 0.117,-1.6992 0,-0.789 0,-1.5898 0.114,-2.3906 0.117,-0.793 0.117,-1.5938 0.218,-2.2774 0.114,-0.789 0.114,-1.25 0.231,-1.582 v 0" /><path
         id="path72"
         style="fill:#231f20;fill-opacity:1;fill-rule:nonzero;stroke:none"
         d="m 314.977,63.0078 h 11.82 v 34.5625 c 0,4.5507 0.91,8.1917 2.851,10.8007 1.813,2.617 4.551,3.875 8.29,3.875 3.074,0 5.23,-1.023 6.714,-3.086 1.368,-2.039 2.043,-5.34 2.043,-9.8905 v 0 -36.2617 h 11.825 v 38.9962 0 c 0,6.141 -1.356,11.035 -4.09,14.676 -2.719,3.633 -7.043,5.461 -12.961,5.461 -3.41,0 -6.367,-0.813 -8.985,-2.512 -2.605,-1.711 -4.668,-4.09 -6.136,-7.168 v 0 h -0.231 v 0 c 0,0.344 0,1.027 0,1.828 -0.109,0.789 -0.109,1.699 -0.226,2.606 -0.118,0.918 -0.118,1.828 -0.118,2.617 -0.113,0.801 -0.113,1.484 -0.113,1.816 v 0 h -11.133 v 0 c 0.102,-1.699 0.215,-3.515 0.332,-5.34 0.118,-1.925 0.118,-3.859 0.118,-5.8 v 0 -47.1802 0" /><path
         id="path74"
         style="fill:#231f20;fill-opacity:1;fill-rule:nonzero;stroke:none"
         d="m 374.949,52.4414 -0.676,-11.0351 v 0 c 1.926,-0.7891 4.668,-1.5821 8.075,-2.3829 3.414,-0.789 6.929,-1.2382 10.461,-1.2382 8.636,0 15.121,2.3711 19.437,7.039 4.317,4.668 6.477,11.3789 6.477,20 v 0 46.6138 0 c 0,1.718 0.117,3.3 0.234,5.007 0.113,1.7 0.113,3.301 0.231,4.883 v 0 h -10.915 v 0 c 0,-0.332 0,-1.015 0,-1.816 -0.121,-0.789 -0.121,-1.699 -0.234,-2.617 -0.109,-0.907 -0.109,-1.7 -0.109,-2.489 -0.117,-0.812 -0.117,-1.484 -0.117,-1.828 v 0 h -0.333 v 0 c -1.484,2.617 -3.417,4.895 -5.8,6.828 -2.391,1.805 -5.348,2.735 -8.989,2.735 -3.531,0 -6.711,-0.696 -9.316,-2.161 -2.621,-1.484 -4.898,-3.417 -6.598,-6.035 -1.714,-2.625 -3.066,-5.8 -3.871,-9.433 -0.91,-3.758 -1.351,-7.8518 -1.351,-12.4026 0,-5.4571 0.558,-10 1.808,-13.75 1.141,-3.7578 2.61,-6.8242 4.551,-9.1016 1.93,-2.3906 4.094,-3.9844 6.481,-5.0117 2.394,-1.0234 4.882,-1.5703 7.386,-1.5703 3.977,0 7.176,0.8984 9.547,2.8203 2.395,1.8398 4.324,4.0937 5.801,6.9453 v 0 h 0.234 v -7.2734 0 c 0,-2.375 -0.234,-4.7657 -0.691,-6.9258 -0.559,-2.1563 -1.352,-3.9844 -2.492,-5.5664 -1.25,-1.6016 -2.852,-2.8399 -4.891,-3.875 -2.047,-0.9102 -4.672,-1.3594 -7.734,-1.3594 -3.188,0 -6.25,0.5664 -9.321,1.582 -3.062,1.1446 -5.457,2.2774 -7.285,3.418 v 0" /><path
         id="path76"
         style="fill:#231f20;fill-opacity:1;fill-rule:nonzero;stroke:none"
         d="m 435.344,52.4414 -0.676,-11.0351 v 0 c 1.926,-0.7891 4.668,-1.5821 8.074,-2.3829 3.41,-0.789 6.926,-1.2382 10.461,-1.2382 8.633,0 15.117,2.3711 19.434,7.039 4.328,4.668 6.484,11.3789 6.484,20 v 0 46.6138 0 c 0,1.718 0.117,3.3 0.227,5.007 0.117,1.7 0.117,3.301 0.234,4.883 v 0 h -10.918 v 0 c 0,-0.332 0,-1.015 0,-1.816 -0.117,-0.789 -0.117,-1.699 -0.226,-2.617 -0.118,-0.907 -0.118,-1.7 -0.118,-2.489 -0.117,-0.812 -0.117,-1.484 -0.117,-1.828 v 0 h -0.332 v 0 c -1.484,2.617 -3.406,4.895 -5.801,6.828 -2.39,1.805 -5.34,2.735 -8.984,2.735 -3.535,0 -6.707,-0.696 -9.316,-2.161 -2.625,-1.484 -4.903,-3.417 -6.602,-6.035 -1.707,-2.625 -3.066,-5.8 -3.867,-9.433 -0.906,-3.758 -1.36,-7.8518 -1.36,-12.4026 0,-5.4571 0.571,-10 1.821,-13.75 1.133,-3.7578 2.605,-6.8242 4.551,-9.1016 1.921,-2.3906 4.089,-3.9844 6.472,-5.0117 2.395,-1.0234 4.883,-1.5703 7.395,-1.5703 3.972,0 7.168,0.8984 9.539,2.8203 2.39,1.8398 4.328,4.0937 5.808,6.9453 v 0 h 0.227 v -7.2734 0 c 0,-2.375 -0.227,-4.7657 -0.684,-6.9258 -0.566,-2.1563 -1.355,-3.9844 -2.5,-5.5664 -1.25,-1.6016 -2.851,-2.8399 -4.89,-3.875 -2.043,-0.9102 -4.668,-1.3594 -7.739,-1.3594 -3.179,0 -6.25,0.5664 -9.312,1.582 -3.066,1.1446 -5.461,2.2774 -7.285,3.418 v 0" /><path
         id="path78"
         style="fill:#231f20;fill-opacity:1;fill-rule:nonzero;stroke:none"
         d="m 526.699,63.0078 h 10.684 v 0 c -0.098,1.0274 -0.332,2.4883 -0.449,4.211 -0.118,1.6992 -0.223,3.5156 -0.223,5.457 v 0 27.8442 0 c 0,3.875 -0.356,7.058 -1.145,9.57 -0.793,2.488 -2.043,4.531 -3.523,6.25 -1.262,1.473 -3.305,2.828 -6.027,4.078 -2.735,1.145 -6.25,1.723 -10.684,1.723 -3.762,0 -7.051,-0.461 -9.894,-1.368 -2.848,-0.91 -5.458,-1.937 -7.618,-3.187 v 0 l 0.91,-10.125 v 0 c 1.477,1.484 3.633,2.844 6.485,4.094 2.715,1.133 5.683,1.707 8.984,1.707 4.199,0 7.156,-1.133 8.965,-3.407 0.93,-1.132 1.602,-2.394 1.941,-3.761 0.333,-1.465 0.454,-3.067 0.454,-4.883 v 0 -2.3907 h -4.204 v 0 c -9.429,0 -16.714,-1.5937 -21.597,-4.6601 -4.903,-3.1836 -7.395,-8.1836 -7.395,-15.0079 0,-2.7343 0.45,-5.1289 1.36,-7.2851 0.906,-2.1602 2.156,-3.8594 3.757,-5.3438 1.465,-1.4648 3.293,-2.4882 5.34,-3.1836 2.043,-0.7695 4.203,-1.121 6.594,-1.121 4.324,0 7.734,0.8984 10.352,2.7226 2.5,1.6992 4.543,3.7422 6.027,6.0156 v 0 h 0.223 v 0 c 0,-0.332 0,-0.9062 0.117,-1.6992 0,-0.789 0,-1.5898 0.117,-2.3906 0.117,-0.793 0.117,-1.5938 0.215,-2.2774 0.117,-0.789 0.117,-1.25 0.234,-1.582 v 0" /><path
         id="path80"
         style="fill:#231f20;fill-opacity:1;fill-rule:nonzero;stroke:none"
         d="m 551.836,65.2734 c 1.816,-0.789 4.094,-1.582 6.934,-2.1562 2.734,-0.5469 5.8,-0.8984 9.089,-0.8984 6.606,0 11.594,1.582 15.129,4.8828 3.41,3.3007 5.11,7.5 5.11,12.7343 v 0 0 0 c 0,3.5235 -1.016,6.3555 -2.95,8.5157 -2.043,2.1679 -4.789,4.3242 -8.293,6.2695 v 0 l -5.125,2.832 v 0 c -2.609,1.4844 -4.542,2.7419 -6.027,3.9729 -1.484,1.144 -2.156,2.746 -2.156,4.668 0,2.051 0.672,3.761 2.156,5.011 1.485,1.258 3.645,1.817 6.602,1.817 2.383,0 4.66,-0.234 6.593,-0.676 1.934,-0.574 3.739,-1.141 5.34,-1.824 v 0 l 0.567,9.558 v 0 c -1.242,0.438 -2.957,0.911 -5.235,1.465 -2.382,0.461 -5.105,0.696 -8.172,0.696 -2.968,0 -5.578,-0.461 -7.968,-1.368 -2.383,-0.91 -4.438,-2.16 -6.133,-3.644 -1.711,-1.59 -3.078,-3.418 -3.984,-5.34 -0.911,-2.051 -1.372,-4.211 -1.372,-6.367 0,-2.051 0.344,-3.879 0.918,-5.4611 0.559,-1.6015 1.36,-2.9492 2.375,-4.207 1.028,-1.25 2.161,-2.2773 3.645,-3.1758 1.48,-1.0429 3.062,-1.9531 4.898,-2.8515 v 0 l 6.137,-3.0743 v 0 c 2.613,-1.25 4.434,-2.6171 5.457,-3.9765 0.906,-1.3672 1.367,-2.8399 1.367,-4.3164 0,-2.2735 -0.906,-3.9844 -2.734,-5.125 -1.816,-1.25 -4.324,-1.8164 -7.395,-1.8164 -2.832,0 -5.562,0.4492 -7.957,1.4726 -2.39,0.918 -4.433,1.8282 -6.132,2.6172 v 0 l -0.684,-10.2344 v 0" /><path
         id="path82"
         style="fill:#231f20;fill-opacity:1;fill-rule:nonzero;stroke:none"
         d="m 602.082,65.2734 c 1.816,-0.789 4.09,-1.582 6.922,-2.1562 2.734,-0.5469 5.809,-0.8984 9.101,-0.8984 6.602,0 11.59,1.582 15.118,4.8828 3.418,3.3007 5.117,7.5 5.117,12.7343 v 0 0 0 c 0,3.5235 -1.027,6.3555 -2.949,8.5157 -2.051,2.1679 -4.786,4.3242 -8.301,6.2695 v 0 l -5.125,2.832 v 0 c -2.61,1.4844 -4.531,2.7419 -6.02,3.9729 -1.48,1.144 -2.156,2.746 -2.156,4.668 0,2.051 0.676,3.761 2.156,5.011 1.489,1.258 3.645,1.817 6.594,1.817 2.395,0 4.668,-0.234 6.602,-0.676 1.922,-0.574 3.742,-1.141 5.339,-1.824 v 0 l 0.559,9.558 v 0 c -1.238,0.438 -2.949,0.911 -5.226,1.465 -2.391,0.461 -5.106,0.696 -8.18,0.696 -2.961,0 -5.57,-0.461 -7.961,-1.368 -2.395,-0.91 -4.434,-2.16 -6.133,-3.644 -1.719,-1.59 -3.086,-3.418 -3.992,-5.34 -0.899,-2.051 -1.367,-4.211 -1.367,-6.367 0,-2.051 0.347,-3.879 0.925,-5.4611 0.559,-1.6015 1.348,-2.9492 2.375,-4.207 1.024,-1.25 2.157,-2.2773 3.641,-3.1758 1.484,-1.0429 3.067,-1.9531 4.895,-2.8515 v 0 l 6.14,-3.0743 v 0 c 2.617,-1.25 4.434,-2.6171 5.449,-3.9765 0.911,-1.3672 1.375,-2.8399 1.375,-4.3164 0,-2.2735 -0.906,-3.9844 -2.742,-5.125 -1.804,-1.25 -4.316,-1.8164 -7.383,-1.8164 -2.839,0 -5.578,0.4492 -7.968,1.4726 -2.383,0.918 -4.434,1.8282 -6.133,2.6172 v 0 l -0.672,-10.2344 v 0" /><path
         id="path84"
         style="fill:#231f20;fill-opacity:1;fill-rule:nonzero;stroke:none"
         d="m 662.258,88.8203 h 33.308 v 3.9727 c 0,5.1289 -0.566,9.445 -1.582,13.184 -1.023,3.761 -2.507,6.828 -4.441,9.218 -1.926,2.391 -4.316,4.094 -6.938,5.223 -2.722,1.145 -5.691,1.723 -8.875,1.723 -3.625,0 -6.921,-0.696 -9.773,-2.161 -2.949,-1.484 -5.461,-3.64 -7.387,-6.269 -1.929,-2.723 -3.531,-5.898 -4.547,-9.656 -1.027,-3.75 -1.585,-7.8519 -1.585,-12.2855 0,-4.2109 0.558,-8.1836 1.585,-11.8281 1.016,-3.6406 2.5,-6.707 4.665,-9.3164 2.042,-2.6172 4.66,-4.6562 7.843,-6.1406 3.184,-1.5742 6.926,-2.2656 11.133,-2.2656 3.645,0 6.941,0.3515 9.797,1.121 2.832,0.793 5.105,1.6016 7.039,2.3946 v 0 l -0.566,9.8906 v 0 c -1.485,-1.0234 -3.411,-2.0391 -5.684,-3.0664 -2.395,-1.0234 -5.227,-1.6016 -8.645,-1.6016 -5.457,0 -9.324,1.4844 -11.714,4.5508 -2.383,2.9492 -3.633,7.3945 -3.633,13.3125 v 0" /><path
         id="path86"
         style="fill:#ffffff;fill-opacity:1;fill-rule:nonzero;stroke:none"
         d="m 311.086,415.133 c -1.023,1.93 -1.715,4.09 -2.047,6.715 -0.461,2.601 -0.687,5.34 -0.687,8.406 0,3.066 0.226,5.801 0.687,8.41 0.332,2.621 1.024,4.777 2.047,6.707 1.023,1.817 2.273,3.301 3.859,4.32 1.481,1.028 3.414,1.602 5.692,1.602 2.269,0 4.203,-0.574 5.801,-1.602 1.468,-1.019 2.718,-2.503 3.742,-4.32 1.019,-1.93 1.715,-4.086 2.16,-6.707 0.348,-2.609 0.574,-5.344 0.574,-8.41 v 0 0 0 c 0,-3.066 -0.226,-5.805 -0.574,-8.406 -0.445,-2.625 -1.141,-4.785 -2.16,-6.715 -1.024,-1.945 -2.274,-3.414 -3.742,-4.434 -1.598,-1.023 -3.532,-1.597 -5.801,-1.597 -2.278,0 -4.211,0.574 -5.692,1.597 -1.586,1.02 -2.836,2.489 -3.859,4.434 v 0" /><path
         id="path88"
         style="fill:#ffffff;fill-opacity:1;fill-rule:nonzero;stroke:none"
         d="m 432.949,415.02 c -1.941,3.738 -2.851,8.867 -2.851,15.234 0,6.48 0.91,11.594 2.851,15.351 1.934,3.743 4.883,5.571 8.985,5.571 4.211,0 7.16,-1.828 8.972,-5.34 1.723,-3.645 2.617,-8.754 2.617,-15.352 v 0 0 0 c 0,-7.171 -0.789,-12.398 -2.5,-15.929 -1.699,-3.524 -4.761,-5.34 -8.98,-5.34 -4.211,0 -7.277,1.93 -9.094,5.805 v 0" /><path
         id="path90"
         style="fill:#ffffff;fill-opacity:1;fill-rule:nonzero;stroke:none"
         d="m 543.508,415.133 c -1.028,1.93 -1.719,4.09 -2.051,6.715 -0.461,2.601 -0.695,5.34 -0.695,8.406 0,3.066 0.234,5.801 0.695,8.41 0.332,2.621 1.023,4.777 2.051,6.707 1.015,1.817 2.265,3.301 3.855,4.32 1.485,1.028 3.41,1.602 5.684,1.602 2.273,0 4.211,-0.574 5.801,-1.602 1.472,-1.019 2.722,-2.503 3.75,-4.32 1.015,-1.93 1.711,-4.086 2.16,-6.707 0.34,-2.609 0.574,-5.344 0.574,-8.41 v 0 0 0 c 0,-3.066 -0.234,-5.805 -0.574,-8.406 -0.449,-2.625 -1.145,-4.785 -2.16,-6.715 -1.028,-1.945 -2.278,-3.414 -3.75,-4.434 -1.59,-1.023 -3.528,-1.597 -5.801,-1.597 -2.274,0 -4.199,0.574 -5.684,1.597 -1.59,1.02 -2.84,2.489 -3.855,4.434 v 0" /><path
         id="path92"
         style="fill:#ffffff;fill-opacity:1;fill-rule:nonzero;stroke:none"
         d="m 356.355,260.133 c 0.122,5.34 1.141,9.543 3.071,12.5 1.929,2.851 4.668,4.32 8.078,4.32 7.043,0 10.57,-5.578 10.57,-16.82 v 0 h -21.719 v 0" /><path
         id="path94"
         style="fill:#ffffff;fill-opacity:1;fill-rule:nonzero;stroke:none"
         d="m 287.414,91.5352 v -5.2266 c 0,-4.6484 -1.023,-8.4063 -3.066,-11.25 -2.164,-2.957 -5.231,-4.4336 -9.434,-4.4336 -3.082,0 -5.344,0.9102 -6.941,2.6094 -1.602,1.7187 -2.391,4.0898 -2.391,6.9414 0,3.8594 1.484,6.7109 4.551,8.6445 3.066,1.9219 7.5,2.832 13.305,2.832 0.679,0 1.367,0 2.16,0 0.793,0 1.484,0 1.816,-0.1171 v 0" /><path
         id="path96"
         style="fill:#ffffff;fill-opacity:1;fill-rule:nonzero;stroke:none"
         d="m 386.559,76.7578 c -1.934,3.3008 -2.954,8.5274 -2.954,15.7031 0,6.711 0.907,11.7111 2.719,15.2341 1.699,3.41 4.668,5.11 8.754,5.227 3.879,0 6.824,-1.699 8.985,-5.109 2.05,-3.418 3.066,-8.5435 3.066,-15.2349 v 0 0 0 c 0,-7.0586 -1.016,-12.2851 -2.949,-15.7031 -1.922,-3.5234 -5.125,-5.2227 -9.563,-5.2227 -3.394,0 -6.133,1.6993 -8.058,5.1055 v 0" /><path
         id="path98"
         style="fill:#ffffff;fill-opacity:1;fill-rule:nonzero;stroke:none"
         d="m 446.953,76.7578 c -1.933,3.3008 -2.961,8.5274 -2.961,15.7031 0,6.711 0.91,11.7111 2.727,15.2341 1.699,3.41 4.668,5.11 8.761,5.227 3.868,0 6.817,-1.699 8.985,-5.109 2.039,-3.418 3.062,-8.5435 3.062,-15.2349 v 0 0 0 c 0,-7.0586 -1.023,-12.2851 -2.957,-15.7031 -1.922,-3.5234 -5.117,-5.2227 -9.558,-5.2227 -3.403,0 -6.133,1.6993 -8.059,5.1055 v 0" /><path
         id="path100"
         style="fill:#ffffff;fill-opacity:1;fill-rule:nonzero;stroke:none"
         d="m 525.559,91.5352 v -5.2266 c 0,-4.6484 -1.016,-8.4063 -3.071,-11.25 -2.156,-2.957 -5.222,-4.4336 -9.429,-4.4336 -3.079,0 -5.344,0.9102 -6.934,2.6094 -1.602,1.7187 -2.395,4.0898 -2.395,6.9414 0,3.8594 1.485,6.7109 4.551,8.6445 3.067,1.9219 7.5,2.832 13.301,2.832 0.684,0 1.367,0 2.156,0 0.805,0 1.489,0 1.821,-0.1171 v 0" /><path
         id="path102"
         style="fill:#ffffff;fill-opacity:1;fill-rule:nonzero;stroke:none"
         d="m 662.258,96.8945 c 0.117,5.3435 1.14,9.5505 3.062,12.5005 1.938,2.851 4.668,4.316 8.086,4.316 7.043,0 10.571,-5.566 10.571,-16.8165 v 0 h -21.719 v 0" /></g></g></svg>