<?xml version="1.0" encoding="UTF-8" standalone="no"?>
<svg
   xmlns:dc="http://purl.org/dc/elements/1.1/"
   xmlns:cc="http://creativecommons.org/ns#"
   xmlns:rdf="http://www.w3.org/1999/02/22-rdf-syntax-ns#"
   xmlns:svg="http://www.w3.org/2000/svg"
   xmlns="http://www.w3.org/2000/svg"
   viewBox="0 0 192.75999 47.240002"
   height="47.240002"
   width="192.75999"
   xml:space="preserve"
   id="svg2"
   version="1.1"><metadata
     id="metadata8"><rdf:RDF><cc:Work
         rdf:about=""><dc:format>image/svg+xml</dc:format><dc:type
           rdf:resource="http://purl.org/dc/dcmitype/StillImage" /></cc:Work></rdf:RDF></metadata><defs
     id="defs6" /><g
     transform="matrix(1.3333333,0,0,-1.3333333,0,47.24)"
     id="g10"><g
       transform="scale(0.1)"
       id="g12"><path
         id="path14"
         style="fill:#231f20;fill-opacity:1;fill-rule:nonzero;stroke:none"
         d="m 0,0 h 1133.86 l 311.8,177.082 -311.8,177.262 H 0 V 0 0" /><path
         id="path16"
         style="fill:#ffffff;fill-opacity:1;fill-rule:nonzero;stroke:none"
         d="M 21.2422,21.2773 H 1128.2 L 1289.74,177.117 1128.2,333.07 H 21.2422 V 21.2773" /><path
         id="path18"
         style="fill:#231f20;fill-opacity:1;fill-rule:nonzero;stroke:none"
         d="m 748.078,141.586 c -25.379,0 -45.215,-21.059 -45.215,-45.8243 -1.222,-24.7773 19.223,-46.4453 45.215,-46.4453 25.418,0 45.215,20.4492 45.215,46.4453 0,24.7653 -20.441,45.8243 -45.215,45.8243 v 0" /><path
         id="path20"
         style="fill:#231f20;fill-opacity:1;fill-rule:nonzero;stroke:none"
         d="m 425.559,141.586 c -26.032,0 -47.704,-21.676 -47.09,-47.6993 0.648,-24.7656 21.707,-43.957 46.472,-43.957 24.77,0 45.832,19.1914 46.442,44.6016 0.613,25.3787 -19.836,47.0547 -45.824,47.0547 v 0" /><path
         id="path22"
         style="fill:#231f20;fill-opacity:1;fill-rule:nonzero;stroke:none"
         d="m 306.578,147.129 h 72.43 l -6.195,-8.637 -59.434,-1.262 v -16.703 l 43.344,-15.476 v 0 c 0,-0.656 -0.61,-10.5471 -0.61,-11.1643 v 0 h 11.77 v 0 c 0,0.6172 0,1.875 0,1.875 2.484,30.3083 25.379,56.3363 56.34,56.3363 30.347,0.613 55.117,-24.77 57.597,-54.5003 0,-1.2305 0,-2.4922 0.618,-3.0938 v 0 L 693,95.1055 v 0 c 0,0.6562 0,1.875 0,2.4922 -0.613,29.7303 25.379,52.6253 55.117,52.6253 29.09,0 53.856,-23.504 55.117,-52.6253 0,-1.2305 0,-2.4922 0,-3.0938 v 0 h 27.246 l -0.605,6.7971 v 0 c 0.605,0.652 1.836,0.652 3.094,1.875 1.222,1.219 1.222,3.094 1.222,3.711 v 0 5.574 0 c 0,0.613 0,4.324 -0.617,4.969 -0.605,1.222 -2.48,1.222 -3.699,1.222 v 0 h -6.848 l -6.191,62.536 v 0 c 0,2.484 -1.219,6.191 -3.094,8.062 -3.097,2.484 -8.027,3.711 -8.633,3.711 v 0 l -8.066,0.609 -19.191,41.508 v 0 c -3.739,8.067 -16.739,16.703 -27.86,16.703 v 0 h -63.797 l 0.614,-113.937 -207.469,-0.614 -8.031,8.676 208.695,0.614 -1.258,157.285 -372.168,0.644 v -157.32 0" /><path
         id="path24"
         style="fill:#ffffff;fill-opacity:1;fill-rule:nonzero;stroke:none"
         d="m 748.73,114.336 c -10.515,0 -19.187,-8.684 -19.187,-18.6133 0,-10.5079 8.027,-19.1914 18.574,-19.1914 10.508,-0.6133 19.188,8.6835 19.188,18.5742 0,10.5465 -8.68,19.2305 -18.575,19.2305 v 0" /><path
         id="path26"
         style="fill:#ffffff;fill-opacity:1;fill-rule:nonzero;stroke:none"
         d="m 424.941,114.949 c -11.156,0 -19.222,-9.937 -18.609,-21.0623 0,-9.289 8.672,-17.3554 18.609,-17.3554 9.903,0 18.579,7.4257 19.192,17.3554 0.609,11.1253 -8.68,21.0623 -19.192,21.0623 v 0" /><path
         id="path28"
         style="fill:#ffffff;fill-opacity:1;fill-rule:nonzero;stroke:none"
         d="m 744.406,234.469 -33.445,-0.653 v -40.855 l 52.633,0.609 -19.188,40.899 v 0" /><path
         id="path30"
         style="fill:#ffffff;fill-opacity:1;fill-rule:nonzero;stroke:none"
         d="m 771.008,234.469 h -14.25 l 18.613,-41.508 h 13.606 l -17.969,41.508 v 0" /></g></g></svg>