<?xml version="1.0" encoding="UTF-8" standalone="no"?>
<svg
   xmlns:dc="http://purl.org/dc/elements/1.1/"
   xmlns:cc="http://creativecommons.org/ns#"
   xmlns:rdf="http://www.w3.org/1999/02/22-rdf-syntax-ns#"
   xmlns:svg="http://www.w3.org/2000/svg"
   xmlns="http://www.w3.org/2000/svg"
   viewBox="0 0 192.75999 47.240002"
   height="47.240002"
   width="192.75999"
   xml:space="preserve"
   id="svg2"
   version="1.1"><metadata
     id="metadata8"><rdf:RDF><cc:Work
         rdf:about=""><dc:format>image/svg+xml</dc:format><dc:type
           rdf:resource="http://purl.org/dc/dcmitype/StillImage" /></cc:Work></rdf:RDF></metadata><defs
     id="defs6" /><g
     transform="matrix(1.3333333,0,0,-1.3333333,0,47.24)"
     id="g10"><g
       transform="scale(0.1)"
       id="g12"><path
         id="path14"
         style="fill:#231f20;fill-opacity:1;fill-rule:nonzero;stroke:none"
         d="m 0,0 h 1133.86 l 311.8,177.082 -311.8,177.262 H 0 V 0 0" /><path
         id="path16"
         style="fill:#ffffff;fill-opacity:1;fill-rule:nonzero;stroke:none"
         d="M 21.2422,21.2773 H 1128.2 L 1289.74,177.117 1128.2,333.07 H 21.2422 V 21.2773" /><path
         id="path18"
         style="fill:#231f20;fill-opacity:1;fill-rule:nonzero;stroke:none"
         d="m 480.465,156.93 h 58.16 v 25.703 h -58.16 v 58.324 h -25.324 v -58.324 l -58.274,-0.028 v -25.628 l 58.274,-0.047 V 99.2266 h 25.324 V 156.93" /><path
         id="path20"
         style="fill:#231f20;fill-opacity:1;fill-rule:nonzero;stroke:none"
         d="m 705.383,299.625 h 254.148 v 5.09766 H 705.383 Z" /><path
         id="path22"
         style="fill:#231f20;fill-opacity:1;fill-rule:nonzero;stroke:none"
         d="m 832.461,205.129 c 0.254,1.652 -2.266,5.109 -5.078,5.109 v 0 l -122.035,0.035 v 10.258 h 122.035 v 0 c 2.812,0 5.078,2.305 5.078,5.114 0,2.808 -2.266,5.113 -5.078,5.113 v 0 l -122.035,0.039 v 10.258 h 99.144 l -29.344,20.41 57.274,33.265 57.246,-33.265 -29.266,-20.41 h 65.086 v 0 c 7.707,0 14.075,-5.942 15.117,-13.395 v 0 l 13.86,-99 H 705.348 v 51.012 l 122.035,0.289 v 0 c 2.812,0 5.078,2.269 5.078,5.078 0,2.809 -2.266,4.75 -5.078,4.75 v 0 H 705.348 v 10.262 h 122.035 v 0 c 2.812,0 5.078,2.269 5.078,5.078 v 0" /><path
         id="path24"
         style="fill:#231f20;fill-opacity:1;fill-rule:nonzero;stroke:none"
         d="m 960.441,86.1602 -4.535,32.2068 h -54.82 V 80.3594 h 54.316 v 0 c 2.813,0 5.078,2.2851 5.078,5.1094 0,0.2343 0,0.4687 -0.039,0.6914 v 0" /><path
         id="path26"
         style="fill:#231f20;fill-opacity:1;fill-rule:nonzero;stroke:none"
         d="m 890.93,93.0078 c 0,14.7852 -11.953,26.7732 -26.719,26.7732 -14.719,0 -26.672,-11.988 -26.672,-26.7732 0,-14.7851 11.953,-26.7695 26.672,-26.7695 14.766,0 26.719,11.9844 26.719,26.7695 v 0" /><path
         id="path28"
         style="fill:#231f20;fill-opacity:1;fill-rule:nonzero;stroke:none"
         d="m 827.344,93.0078 c 0,14.7852 -11.942,26.7732 -26.707,26.7732 -14.719,0 -26.672,-11.988 -26.672,-26.7732 0,-14.7851 11.953,-26.7695 26.672,-26.7695 14.765,0 26.707,11.9844 26.707,26.7695 v 0" /><path
         id="path30"
         style="fill:#231f20;fill-opacity:1;fill-rule:nonzero;stroke:none"
         d="M 705.383,49.6094 H 959.582 V 59.8047 H 705.383 Z" /><path
         id="path32"
         style="fill:#231f20;fill-opacity:1;fill-rule:nonzero;stroke:none"
         d="m 705.383,80.3516 h 58.4648 v 38.2422 H 705.383 Z" /><path
         id="path34"
         style="fill:#1a67bb;fill-opacity:1;fill-rule:nonzero;stroke:none"
         d="M 63.7891,304.773 H 318.961 V 49.6094 H 63.7891 v 255.1636 0" /><path
         id="path36"
         style="fill:#ffffff;fill-opacity:1;fill-rule:nonzero;stroke:none"
         d="M 169.957,81.4258 H 137.844 V 262.367 h 90.469 v 0 c 7.449,0 15.55,-2.918 20.41,-9.398 6.515,-8.457 6.195,-16.559 6.195,-16.559 v 0 -60.625 0 c 0,-4.215 -1.301,-13.285 -7.813,-19.765 -5.835,-5.864 -11.988,-8.133 -18.792,-8.133 v 0 h -58.356 v -66.4612 0" /><path
         id="path38"
         style="fill:#1a67bb;fill-opacity:1;fill-rule:nonzero;stroke:none"
         d="m 169.668,175.68 v 58.031 h 46.047 v 0 c 1.941,0 4.207,0 5.508,-1.301 1.293,-1.293 1.613,-2.586 1.613,-5.508 v 0 -44.422 0 c 0,-2.265 -0.645,-4.21 -1.941,-5.179 -1.293,-1.301 -2.594,-1.621 -4.86,-1.621 v 0 h -46.367 v 0" /><path
         id="path40"
         style="fill:#ffffff;fill-opacity:1;fill-rule:nonzero;stroke:none"
         d="m 899.387,185 c 0,-2.809 2.265,-5.074 5.078,-5.074 v 0 h 26.68 v 0 c 2.8,0 5.144,2.265 5.144,5.074 0,0.289 0,0.508 -0.039,0.758 v 0 l -5.723,40.504 v 0 c -0.613,4.386 -2.519,4.535 -5.117,4.535 v 0 h -20.984 v 0 c -2.805,0 -5.039,-2.125 -5.039,-4.973 v 0 -40.824 0" /><path
         id="path42"
         style="fill:#ffffff;fill-opacity:1;fill-rule:nonzero;stroke:none"
         d="m 822.316,241.055 h 20.262 l 28.117,19.652 -38.273,22.109 -38.262,-22.164 v 0 l 28.156,-19.597" /></g></g></svg>