<?xml version="1.0" encoding="UTF-8" standalone="no"?>
<svg
   xmlns:dc="http://purl.org/dc/elements/1.1/"
   xmlns:cc="http://creativecommons.org/ns#"
   xmlns:rdf="http://www.w3.org/1999/02/22-rdf-syntax-ns#"
   xmlns:svg="http://www.w3.org/2000/svg"
   xmlns="http://www.w3.org/2000/svg"
   viewBox="0 0 192.75999 47.240002"
   height="47.240002"
   width="192.75999"
   xml:space="preserve"
   id="svg2"
   version="1.1"><metadata
     id="metadata8"><rdf:RDF><cc:Work
         rdf:about=""><dc:format>image/svg+xml</dc:format><dc:type
           rdf:resource="http://purl.org/dc/dcmitype/StillImage" /></cc:Work></rdf:RDF></metadata><defs
     id="defs6" /><g
     transform="matrix(1.3333333,0,0,-1.3333333,0,47.24)"
     id="g10"><g
       transform="scale(0.1)"
       id="g12"><path
         id="path14"
         style="fill:#231f20;fill-opacity:1;fill-rule:nonzero;stroke:none"
         d="m 0,0 h 1133.86 l 311.8,177.082 -311.8,177.262 H 0 V 0 0" /><path
         id="path16"
         style="fill:#ffffff;fill-opacity:1;fill-rule:nonzero;stroke:none"
         d="M 21.2422,21.2773 H 1128.2 L 1289.74,177.117 1128.2,333.07 H 21.2422 V 21.2773" /><path
         id="path18"
         style="fill:#1a67bb;fill-opacity:1;fill-rule:nonzero;stroke:none"
         d="M 63.7891,304.773 H 318.961 V 49.6094 H 63.7891 v 255.1636 0" /><path
         id="path20"
         style="fill:#ffffff;fill-opacity:1;fill-rule:nonzero;stroke:none"
         d="M 169.957,81.4258 H 137.844 V 262.367 h 90.469 v 0 c 7.449,0 15.55,-2.918 20.41,-9.398 6.515,-8.457 6.195,-16.559 6.195,-16.559 v 0 -60.625 0 c 0,-4.215 -1.301,-13.285 -7.813,-19.765 -5.835,-5.864 -11.988,-8.133 -18.792,-8.133 v 0 h -58.356 v -66.4612 0" /><path
         id="path22"
         style="fill:#1a67bb;fill-opacity:1;fill-rule:nonzero;stroke:none"
         d="m 169.668,175.68 v 58.031 h 46.047 v 0 c 1.941,0 4.207,0 5.508,-1.301 1.293,-1.293 1.613,-2.586 1.613,-5.508 v 0 -44.422 0 c 0,-2.265 -0.645,-4.21 -1.941,-5.179 -1.293,-1.301 -2.594,-1.621 -4.86,-1.621 v 0 h -46.367 v 0" /><path
         id="path24"
         style="fill:#231f20;fill-opacity:1;fill-rule:nonzero;stroke:none"
         d="m 453.781,118.008 c 4.5,-1.516 9.61,-2.988 15.371,-4.074 5.762,-1.219 11.739,-1.864 18.11,-1.864 7.484,0 14.293,1.075 20.484,2.95 6.192,2.117 11.301,5.113 15.766,8.746 4.461,3.816 7.886,8.535 10.222,13.863 2.379,5.324 3.641,11.301 3.641,18.101 v 0 0 0 c 0,5.547 -0.867,10.446 -2.344,14.731 -1.691,4.246 -3.855,7.664 -6.625,10.652 -2.769,2.989 -5.972,5.328 -9.574,7.024 -3.637,1.726 -7.453,2.988 -11.523,3.636 v 0 0.43 0 c 3.203,0.649 6.414,1.692 9.796,3.203 3.204,1.481 6.407,3.602 9.18,6.371 2.77,2.774 4.891,6.192 6.621,10.481 1.696,4.027 2.559,8.922 2.559,14.898 0,5.981 -1.078,11.52 -3.203,16.203 -2.344,4.715 -5.332,8.532 -9.18,11.735 -3.82,3.207 -8.32,5.547 -13.648,7.054 -5.329,1.481 -10.868,2.344 -17.059,2.344 -7.238,0 -13.648,-0.648 -19.191,-1.73 -5.762,-1.258 -10.653,-2.774 -14.903,-4.461 v 0 l 1.477,-20.27 v 0 c 4.496,2.34 9.394,4.282 14.289,5.758 4.894,1.512 9.609,2.125 13.644,2.125 7.055,0 12.997,-1.906 17.93,-5.723 4.891,-3.851 7.234,-9.394 7.234,-16.453 0,-4.465 -0.863,-8.097 -2.558,-11.054 -1.688,-3.204 -4.067,-5.539 -7.055,-7.704 -3.168,-1.906 -6.801,-3.382 -11.09,-4.25 -4.246,-1.078 -8.925,-1.507 -13.82,-1.507 v 0 h -6.191 v -17.895 0 c 1.257,0 2.988,0 5.109,0.219 1.91,0 4.465,0 7.453,0 8.965,0 15.985,-2.121 21.133,-6.192 5.113,-4.031 7.664,-10.007 7.664,-17.5 0,-4.675 -0.863,-8.71 -2.336,-12.128 -1.516,-3.422 -3.633,-6.192 -6.191,-8.317 -2.774,-2.344 -5.762,-4.066 -9.18,-5.109 -3.641,-1.082 -7.238,-1.731 -11.305,-1.731 -5.761,0 -11.09,0.864 -15.988,2.555 -4.891,1.512 -9.359,3.422 -13.207,5.367 v 0 l -1.512,-20.484 v 0" /><path
         id="path26"
         style="fill:#231f20;fill-opacity:1;fill-rule:nonzero;stroke:none"
         d="m 570.527,133.773 c 3.598,-6.8 8.317,-12.132 14.078,-15.98 5.758,-3.859 12.563,-5.723 20.879,-5.723 8.317,0 15.371,1.864 21.094,5.938 5.762,3.851 10.477,9.18 14.078,15.98 3.637,6.844 6.192,14.942 7.668,24.086 1.512,9.184 2.375,19.188 2.375,30.063 v 0 0 0 c 0,10.871 -0.863,20.914 -2.375,30.269 -1.476,9.188 -4.031,17.282 -7.668,24.121 -3.601,6.809 -8.316,12.137 -14.078,16.203 -5.723,3.821 -12.777,5.762 -21.094,5.762 -8.316,0 -15.336,-1.941 -21.097,-5.762 -5.758,-4.066 -10.262,-9.394 -13.86,-16.203 -3.636,-6.839 -6.191,-14.933 -7.672,-24.121 -1.507,-9.355 -2.371,-19.398 -2.371,-30.269 0,-10.875 0.864,-20.879 2.371,-30.063 1.481,-9.359 4.036,-17.461 7.672,-24.301 v 0" /><path
         id="path28"
         style="fill:#231f20;fill-opacity:1;fill-rule:nonzero;stroke:none"
         d="m 681.91,133.773 c 3.602,-6.8 8.317,-12.132 14.078,-15.98 5.762,-3.859 12.563,-5.723 20.879,-5.723 8.313,0 15.371,1.864 21.094,5.938 5.73,3.851 10.437,9.18 14.043,15.98 3.633,6.844 6.191,14.942 7.664,24.086 1.516,9.184 2.383,19.188 2.383,30.063 v 0 0 0 c 0,10.871 -0.867,20.914 -2.383,30.269 -1.473,9.188 -4.031,17.282 -7.664,24.121 -3.606,6.809 -8.313,12.137 -14.043,16.203 -5.723,3.821 -12.781,5.762 -21.094,5.762 -8.316,0 -15.336,-1.941 -21.094,-5.762 -5.761,-4.066 -10.261,-9.394 -13.863,-16.203 -3.633,-6.839 -6.191,-14.933 -7.668,-24.121 -1.512,-9.355 -2.375,-19.398 -2.375,-30.269 0,-10.875 0.863,-20.879 2.375,-30.063 1.477,-9.359 4.035,-17.461 7.668,-24.301 v 0" /><path
         id="path30"
         style="fill:#231f20;fill-opacity:1;fill-rule:nonzero;stroke:none"
         d="m 886.828,113.762 h 22.168 v 66.922 c 0,8.101 1.699,14.293 4.902,18.754 3.204,4.503 8.094,6.625 14.286,6.625 10.222,0 15.371,-6.84 15.371,-20.266 v 0 -72.035 h 22.148 v 66.922 0 c 0,8.101 1.719,14.293 4.934,18.754 3.164,4.503 8.093,6.625 14.246,6.625 10.265,0 15.367,-6.84 15.367,-20.266 v 0 -72.035 h 22.18 v 71.597 0 c 0,12.821 -2.55,22.61 -7.66,29.235 -5.32,6.586 -13.25,10.011 -23.911,10.011 -7.019,0 -12.773,-1.695 -17.234,-5.113 -4.504,-3.637 -7.922,-7.672 -10.695,-12.168 -1.043,2.156 -2.344,4.281 -3.817,6.406 -1.515,1.911 -3.418,3.852 -5.547,5.543 -2.121,1.512 -4.679,2.774 -7.453,3.852 -2.773,1.047 -6.191,1.48 -9.824,1.48 -6.805,0 -12.351,-1.695 -16.844,-5.113 -4.472,-3.637 -8.105,-7.887 -10.449,-13.215 v 0 h -0.43 v 0 c 0,0.653 0,1.911 0,3.633 -0.214,1.481 -0.214,3.172 -0.214,4.899 -0.215,1.695 -0.215,3.382 -0.215,4.898 -0.215,1.473 -0.215,2.773 -0.215,3.418 v 0 h -21.965 v 0 c 0.215,-2.988 0.43,-6.191 0.656,-9.609 0.215,-3.422 0.215,-7.024 0.215,-11.09 v 0 -88.664 0" /><path
         id="path32"
         style="fill:#ffffff;fill-opacity:1;fill-rule:nonzero;stroke:none"
         d="m 587.988,145.078 c -3.168,10.012 -4.898,24.516 -4.898,43.059 0,18.574 1.73,33.043 4.898,43.304 3.203,10.223 9.18,15.336 17.496,15.336 8.532,0 14.508,-5.113 17.711,-15.117 3.168,-10.265 4.895,-24.73 4.895,-43.523 v 0 0 0 c 0,-18.543 -1.727,-33.047 -4.895,-43.059 -3.418,-10.226 -9.394,-15.336 -17.711,-15.336 -8.316,0 -14.293,5.11 -17.496,15.336 v 0" /><path
         id="path34"
         style="fill:#ffffff;fill-opacity:1;fill-rule:nonzero;stroke:none"
         d="m 699.371,145.078 c -3.168,10.012 -4.898,24.516 -4.898,43.059 0,18.574 1.73,33.043 4.898,43.304 3.203,10.223 9.18,15.336 17.496,15.336 8.535,0 14.512,-5.113 17.715,-15.117 3.164,-10.265 4.863,-24.73 4.863,-43.523 v 0 0 0 c 0,-18.543 -1.699,-33.047 -4.863,-43.059 -3.418,-10.226 -9.402,-15.336 -17.715,-15.336 -8.316,0 -14.293,5.11 -17.496,15.336 v 0" /></g></g></svg>