<?xml version="1.0" encoding="UTF-8" standalone="no"?>
<svg
   xmlns:dc="http://purl.org/dc/elements/1.1/"
   xmlns:cc="http://creativecommons.org/ns#"
   xmlns:rdf="http://www.w3.org/1999/02/22-rdf-syntax-ns#"
   xmlns:svg="http://www.w3.org/2000/svg"
   xmlns="http://www.w3.org/2000/svg"
   viewBox="0 0 192.75999 47.240002"
   height="47.240002"
   width="192.75999"
   xml:space="preserve"
   id="svg2"
   version="1.1"><metadata
     id="metadata8"><rdf:RDF><cc:Work
         rdf:about=""><dc:format>image/svg+xml</dc:format><dc:type
           rdf:resource="http://purl.org/dc/dcmitype/StillImage" /></cc:Work></rdf:RDF></metadata><defs
     id="defs6" /><g
     transform="matrix(1.3333333,0,0,-1.3333333,0,47.24)"
     id="g10"><g
       transform="scale(0.1)"
       id="g12"><path
         id="path14"
         style="fill:#231f20;fill-opacity:1;fill-rule:nonzero;stroke:none"
         d="m 0,0 h 1133.86 l 311.8,177.082 -311.8,177.262 H 0 V 0 0" /><path
         id="path16"
         style="fill:#ffffff;fill-opacity:1;fill-rule:nonzero;stroke:none"
         d="M 21.2422,21.2773 H 1128.2 L 1289.74,177.117 1128.2,333.07 H 21.2422 V 21.2773" /><path
         id="path18"
         style="fill:#231f20;fill-opacity:1;fill-rule:nonzero;stroke:none"
         d="m 414.43,62.8906 -0.071,38.0154 v 0 c -1.511,1.543 -3.742,3.742 -5.218,5.254 -4.93,5.188 -9.325,10.871 -13.106,16.961 -3.203,5.07 -5.867,10.438 -8.027,16.02 -2.774,7.343 -4.535,15.152 -5.508,22.929 -1.227,9.434 -1.227,18.969 0.035,28.368 1.442,10.871 4.789,21.382 9.539,31.21 4.324,8.965 9.938,17.356 16.813,24.625 6.586,6.915 14.941,13.106 23.004,18.254 8.675,5.508 18.035,10.403 27.324,14.688 13.07,6.082 26.531,11.195 40.39,15.187 11.485,3.317 23.297,5.797 35.137,7.567 11.055,1.656 22.211,2.519 33.406,2.734 13.825,0.32 27.653,-0.543 41.329,-2.445 13.609,-1.945 27.109,-5.113 40.214,-9.184 14.403,-4.426 28.407,-10.261 41.797,-17.097 12.203,-6.196 24.012,-13.426 34.778,-21.817 9.175,-7.168 16.879,-16.273 23.109,-26.137 4.824,-7.632 8.672,-15.914 11.27,-24.55 2.304,-7.743 3.457,-16.094 3.847,-24.121 0.363,-7.957 -0.066,-15.95 -1.543,-23.762 -1.914,-10.332 -5.761,-20.27 -10.945,-29.375 -3.848,-6.766 -8.535,-13.18 -14.152,-18.539 -1.18,-1.219 -3.094,-2.879 -4.383,-3.996 v 0 l 0.105,-40.8987 33.84,0.1093 -0.215,-13.2812 -385.742,0.2539 0.07,13.0976 32.903,-0.0703 v 0" /><path
         id="path20"
         style="fill:#ffffff;fill-opacity:1;fill-rule:nonzero;stroke:none"
         d="m 571.789,78.9844 c -1.582,0 -3.203,0.2812 -4.719,0.8984 -1.511,0.5781 -2.879,1.4727 -4.066,2.6289 -1.152,1.1485 -2.051,2.5156 -2.699,3.9922 -0.614,1.4727 -0.973,3.0938 -0.973,4.7578 0,1.5821 0.32,3.2031 0.938,4.7461 0.644,1.4805 1.546,2.8477 2.699,4.0042 1.152,1.113 2.519,2.047 4.027,2.656 1.516,0.613 3.137,0.934 4.758,0.906 7.918,-0.078 13.676,-7.4881 11.805,-15.1951 -1.297,-5.4414 -6.157,-9.3281 -11.77,-9.3945 v 0" /><path
         id="path22"
         style="fill:#ffffff;fill-opacity:1;fill-rule:nonzero;stroke:none"
         d="m 549.863,62.4883 c -6.265,4.7578 -10.652,11.0586 -12.925,18.5859 -2.231,7.5196 -2.016,15.2656 0.683,22.6058 2.668,7.414 7.453,13.457 14.043,17.785 6.551,4.281 14.004,6.332 21.852,5.863 7.484,-0.43 14.367,-3.023 20.304,-7.664 5.868,-4.644 10.043,-10.769 12.2,-17.926 2.164,-7.2067 2.019,-14.5817 -0.321,-21.7107 -2.34,-7.0898 -6.66,-13.1015 -12.707,-17.5664 v 0 h 128.59 l 0.039,30.7813 v 0 c -0.219,-0.1875 -0.902,-0.6133 -1.152,-0.7227 -1.547,-0.6445 -3.711,-0.832 -5.332,-0.8711 v 0 L 613.223,91.5117 v 0 c -0.289,23.3633 -19.512,42.0473 -42.95,41.5783 -22.605,-0.469 -40.785,-18.754 -41.148,-41.4416 v 0 l -22.461,0.0391 -0.219,128.4495 v 0 c 0.149,1.765 -0.215,3.531 -1.004,5.113 -1.765,3.383 -5.328,5.363 -9.109,5.184 v 0 l -50.363,0.109 v 0 c -3.387,0.18 -6.66,-1.113 -9,-3.527 -2.09,-2.27 -3.203,-5.293 -3.028,-8.356 v 0 -126.8241 h -8.605 l 0.074,-29.1992 124.453,-0.1484 v 0" /><path
         id="path24"
         style="fill:#ffffff;fill-opacity:1;fill-rule:nonzero;stroke:none"
         d="m 641.445,177.695 -30.347,-0.039 v 0 c -2.051,-0.14 -4.067,0.543 -5.614,1.949 -1.367,1.188 -2.23,2.875 -2.445,4.676 v 0 l 0.031,36.364 v 0 c -0.289,2.23 0.399,4.535 1.836,6.257 1.657,1.911 4.035,3.028 6.555,2.957 v 0 l 65.375,-0.035 v 0 c 2.555,0.215 5.039,-0.722 6.84,-2.484 1.691,-1.695 2.59,-3.996 2.519,-6.34 v 0 -36.43 0 c -0.07,-2.125 -1.043,-4.066 -2.699,-5.398 -1.043,-0.867 -2.379,-1.402 -3.746,-1.551 v 0 l -38.305,0.074 v 0" /><path
         id="path26"
         style="fill:#231f20;fill-opacity:1;fill-rule:nonzero;stroke:none"
         d="m 442.148,91.9023 -0.105,126.2187 v 0 c -0.176,1.547 0.395,3.059 1.547,4.07 0.902,0.864 2.125,1.368 3.422,1.368 v 0 l 47.086,-0.106 v 0 c 1.836,0.141 3.601,-0.723 4.609,-2.234 0.684,-0.977 0.973,-2.121 0.938,-3.274 v 0 L 499.32,91.8359 442.148,91.9023 v 0" /><path
         id="path28"
         style="fill:#ffffff;fill-opacity:1;fill-rule:nonzero;stroke:none"
         d="m 450.43,178.305 0.039,37.082 40.754,-0.035 -0.11,-37.227 -40.683,0.18 v 0" /></g></g></svg>