<?xml version="1.0" encoding="UTF-8" standalone="no"?>
<svg
   xmlns:dc="http://purl.org/dc/elements/1.1/"
   xmlns:cc="http://creativecommons.org/ns#"
   xmlns:rdf="http://www.w3.org/1999/02/22-rdf-syntax-ns#"
   xmlns:svg="http://www.w3.org/2000/svg"
   xmlns="http://www.w3.org/2000/svg"
   viewBox="0 0 245.66667 47.240002"
   height="47.240002"
   width="245.66667"
   xml:space="preserve"
   id="svg2"
   version="1.1"><metadata
     id="metadata8"><rdf:RDF><cc:Work
         rdf:about=""><dc:format>image/svg+xml</dc:format><dc:type
           rdf:resource="http://purl.org/dc/dcmitype/StillImage" /></cc:Work></rdf:RDF></metadata><defs
     id="defs6" /><g
     transform="matrix(1.3333333,0,0,-1.3333333,0,47.24)"
     id="g10"><g
       transform="scale(0.1)"
       id="g12"><path
         id="path14"
         style="fill:#231f20;fill-opacity:1;fill-rule:nonzero;stroke:none"
         d="m 1530.72,0 311.8,177.082 -311.8,177.262 H 0 V 0 h 1530.72 v 0" /><path
         id="path16"
         style="fill:#d3d2d2;fill-opacity:1;fill-rule:nonzero;stroke:none"
         d="m 1525.06,21.2773 274.4,155.8047 -274.4,155.988 H 21.2422 V 21.2773 H 1525.06" /><path
         id="path18"
         style="fill:#231f20;fill-opacity:1;fill-rule:nonzero;stroke:none"
         d="m 1530.76,248.074 c 39.09,0 70.88,-31.789 70.88,-70.883 0,-39.097 -31.79,-70.882 -70.88,-70.882 -39.1,0 -70.89,31.785 -70.89,70.882 0,39.094 31.79,70.883 70.89,70.883 v 0" /><path
         id="path20"
         style="fill:#231f20;fill-opacity:1;fill-rule:nonzero;stroke:none"
         d="m 110.195,85.0273 h 28.442 V 253.297 h 0.574 L 190.078,85.0273 h 21.891 l 53.172,168.2697 h 0.578 V 85.0273 h 28.402 V 283.426 h -45.18 L 202.605,130.5 h -0.574 l -45.215,152.926 h -46.621 v -198.3987 0" /><path
         id="path22"
         style="fill:#231f20;fill-opacity:1;fill-rule:nonzero;stroke:none"
         d="m 359.063,248.762 h 20.195 l 29.019,41.218 h -30.422 l -18.792,-41.218 v 0" /><path
         id="path24"
         style="fill:#231f20;fill-opacity:1;fill-rule:nonzero;stroke:none"
         d="m 347.973,149.543 h 83.304 v 9.934 c 0,12.82 -1.402,23.617 -3.957,32.98 -2.554,9.395 -6.265,17.059 -11.09,23.035 -4.859,5.977 -10.8,10.227 -17.351,13.071 -6.836,2.843 -14.219,4.285 -22.176,4.285 -9.105,0 -17.351,-1.731 -24.441,-5.403 -7.383,-3.707 -13.649,-9.105 -18.473,-15.66 -4.859,-6.805 -8.82,-14.758 -11.371,-24.152 -2.559,-9.363 -4,-19.621 -4,-30.707 0,-10.516 1.441,-20.453 4,-29.559 2.551,-9.105 6.223,-16.781 11.66,-23.297 5.11,-6.5505 11.629,-11.6598 19.586,-15.3708 7.957,-3.9258 17.352,-5.6523 27.863,-5.6523 9.106,0 17.352,0.8711 24.446,2.8125 7.129,1.9844 12.816,3.9922 17.64,5.9765 v 0 l -1.441,24.7271 v 0 c -3.672,-2.551 -8.496,-5.106 -14.184,-7.668 -5.976,-2.555 -13.105,-3.993 -21.636,-3.993 -13.645,0 -23.289,3.711 -29.266,11.375 -5.977,7.379 -9.113,18.469 -9.113,33.266 v 0" /><path
         id="path26"
         style="fill:#231f20;fill-opacity:1;fill-rule:nonzero;stroke:none"
         d="m 525.922,87.2969 v 22.1761 c -1.977,-0.86 -3.957,-1.731 -6.266,-2.305 -2.265,-0.828 -4.82,-1.113 -7.953,-1.113 -5.398,0 -9.07,1.687 -11.629,4.824 -2.554,3.133 -3.707,8.531 -3.707,16.488 v 0 80.746 h 29.555 v 22.719 h -29.555 v 38.66 l -29.554,-8.785 V 230.832 H 443.48 v -22.719 h 23.333 v -86.722 0 c 0,-13.93 3.128,-23.8715 9.648,-29.5551 6.551,-5.9765 15.66,-8.789 27.574,-8.789 4.285,0 8.531,0.2929 12.238,1.1523 3.672,1.0821 7.098,1.9414 9.649,3.0977 v 0" /><path
         id="path28"
         style="fill:#231f20;fill-opacity:1;fill-rule:nonzero;stroke:none"
         d="m 639.215,85.0273 h 26.711 v 0 c -0.285,2.5625 -0.828,6.2344 -1.117,10.5196 -0.289,4.25 -0.575,8.7771 -0.575,13.6411 v 0 69.621 0 c 0,9.687 -0.863,17.64 -2.843,23.906 -1.981,6.226 -5.114,11.379 -8.817,15.625 -3.136,3.707 -8.246,7.09 -15.051,10.223 -6.839,2.843 -15.66,4.285 -26.746,4.285 -9.359,0 -17.609,-1.153 -24.73,-3.418 -7.098,-2.274 -13.649,-4.825 -19.051,-7.961 v 0 l 2.27,-25.309 v 0 c 3.707,3.707 9.109,7.098 16.238,10.227 6.805,2.84 14.184,4.281 22.426,4.281 10.55,0 17.929,-2.84 22.465,-8.531 2.265,-2.844 3.996,-5.977 4.824,-9.395 0.867,-3.672 1.152,-7.668 1.152,-12.207 v 0 -5.976 h -10.512 v 0 c -23.617,0 -41.796,-3.993 -54.039,-11.661 -12.199,-7.957 -18.465,-20.449 -18.465,-37.511 0,-6.84 1.153,-12.821 3.422,-18.219 2.266,-5.402 5.399,-9.6485 9.395,-13.3516 3.672,-3.6719 8.242,-6.2266 13.355,-7.957 5.11,-1.9414 10.512,-2.8125 16.489,-2.8125 10.8,0 19.332,2.2344 25.847,6.8047 6.262,4.25 11.375,9.3672 15.086,15.0504 v 0 h 0.574 v 0 c 0,-0.832 0,-2.265 0.25,-4.25 0,-1.9801 0,-3.9918 0.29,-5.9762 0.285,-1.9805 0.285,-3.9922 0.574,-5.6836 0.289,-1.9805 0.289,-3.1328 0.578,-3.9649 v 0" /><path
         id="path30"
         style="fill:#231f20;fill-opacity:1;fill-rule:nonzero;stroke:none"
         d="m 784.148,85.0273 h 27.868 v 0 c -0.289,4.25 -0.575,8.7891 -0.864,13.6446 -0.254,4.5431 -0.254,9.3631 -0.254,14.1871 v 0 117.973 h -29.589 v -85.539 0 c 0,-11.375 -2.27,-20.484 -6.52,-27.285 -4.281,-6.848 -11.375,-10.266 -20.769,-10.266 -7.668,0 -13.067,2.559 -16.739,7.668 -3.672,5.153 -5.691,13.399 -5.691,24.735 v 0 90.687 h -29.555 v -97.488 0 c 0,-15.336 3.418,-27.574 10.227,-36.6838 6.84,-9.0704 17.636,-13.6133 32.394,-13.6133 9.938,0 17.899,2.2344 23.867,7.0976 5.692,4.5313 10.227,10.2265 13.938,17.0235 v 0 h 0.578 l 1.109,-22.1407 v 0" /><path
         id="path32"
         style="fill:#231f20;fill-opacity:1;fill-rule:nonzero;stroke:none"
         d="m 845.492,85.0273 h 31.86 l 28.695,57.1367 29.555,-57.1367 h 32.976 l -44.062,78.1607 40.675,67.644 H 933.91 l -26.137,-49.719 -25.308,49.719 h -32.973 l 39.492,-67.355 -43.492,-78.4497 v 0" /><path
         id="path34"
         style="fill:#231f20;fill-opacity:1;fill-rule:nonzero;stroke:none"
         d="m 1089.21,91.2617 c 5.15,-2.8437 11.38,-4.8281 18.79,-6.4883 7.39,-1.4336 15.63,-2.0117 24.74,-2.0117 19.04,0 34.39,5.0821 45.47,15.3321 11.08,10.2262 16.48,24.4492 16.48,42.6292 v 0 0 0 c 0,8.531 -1.11,15.914 -3.7,21.89 -2.56,5.973 -6.23,11.371 -10.52,15.907 -4.24,4.574 -9.35,8.824 -15.33,12.531 -5.98,3.711 -12.25,7.383 -18.76,11.086 -4.86,2.843 -9.11,5.402 -12.53,7.957 -3.67,2.558 -6.51,4.824 -8.52,7.383 -2.28,2.265 -3.97,4.859 -4.83,7.703 -0.87,2.554 -1.4,5.652 -1.4,9.07 0,7.668 2.56,14.223 7.66,19.047 5.12,4.855 12.21,7.41 21.6,7.41 7.09,0 13.94,-0.859 19.91,-2.555 5.97,-2.015 11.09,-3.992 15.62,-6.261 v 0 l 0.87,27.289 v 0 c -3.71,1.402 -9.11,3.129 -15.66,4.535 -6.8,1.441 -14.47,2.265 -23,2.265 -7.96,0 -15.37,-1.113 -22.47,-3.093 -7.09,-2.305 -13.35,-5.692 -18.75,-9.973 -5.4,-4.535 -9.69,-9.937 -12.83,-16.488 -3.09,-6.516 -4.82,-13.93 -4.82,-22.461 0,-8.785 1.15,-15.914 3.71,-21.891 2.56,-5.976 5.98,-11.375 10.23,-15.625 4.28,-4.535 9.11,-8.527 15.08,-11.953 5.69,-3.672 11.92,-7.379 18.47,-11.375 5.4,-3.098 9.93,-6.226 13.64,-8.781 3.71,-2.848 6.56,-5.688 8.82,-8.246 1.98,-2.555 3.68,-5.403 4.54,-8.242 0.86,-3.133 1.16,-6.266 1.16,-9.977 0,-9.066 -3.14,-16.195 -9.11,-21.598 -5.98,-5.398 -13.94,-8.242 -23.59,-8.242 -7.99,0 -15.37,1.438 -22.46,4.278 -7.13,2.562 -12.81,5.402 -17.35,8.25 v 0 l -1.16,-29.3013 v 0" /><path
         id="path36"
         style="fill:#231f20;fill-opacity:1;fill-rule:nonzero;stroke:none"
         d="m 1205.92,85.0273 h 30.72 l 15.08,49.7187 h 71.89 l 15.09,-49.7187 h 31.82 l -64.51,198.3987 h -33.55 L 1205.92,85.0273 v 0" /><path
         id="path38"
         style="fill:#d3d2d2;fill-opacity:1;fill-rule:nonzero;stroke:none"
         d="m 347.973,169.734 c 0.289,13.36 2.847,23.875 7.707,31.25 4.824,7.129 11.629,10.801 20.16,10.801 17.64,0 26.461,-13.93 26.461,-42.051 v 0 h -54.328 v 0" /><path
         id="path40"
         style="fill:#d3d2d2;fill-opacity:1;fill-rule:nonzero;stroke:none"
         d="m 636.371,156.383 v -13.106 c 0,-11.629 -2.558,-21.019 -7.668,-28.109 -5.398,-7.426 -13.07,-11.098 -23.613,-11.098 -7.672,0 -13.356,2.27 -17.317,6.516 -4,4.289 -5.976,10.23 -5.976,17.359 0,9.649 3.707,16.774 11.371,21.598 7.672,4.82 18.762,7.094 33.266,7.094 1.691,0 3.386,0 5.402,0 1.977,0 3.672,0 4.535,-0.254 v 0" /><path
         id="path42"
         style="fill:#d3d2d2;fill-opacity:1;fill-rule:nonzero;stroke:none"
         d="m 1259.1,159.477 29.26,95.836 h 0.58 l 27.58,-95.836 h -57.42 v 0" /><path
         id="path44"
         style="fill:#ee2c30;fill-opacity:1;fill-rule:nonzero;stroke:none"
         d="m 1530.76,240.98 c 35.16,0 63.79,-28.617 63.79,-63.789 0,-35.175 -28.63,-63.793 -63.79,-63.793 -35.18,0 -63.79,28.618 -63.79,63.793 0,35.172 28.61,63.789 63.79,63.789 v 0" /></g></g></svg>