<?xml version="1.0" encoding="UTF-8" standalone="no"?>
<svg
   xmlns:dc="http://purl.org/dc/elements/1.1/"
   xmlns:cc="http://creativecommons.org/ns#"
   xmlns:rdf="http://www.w3.org/1999/02/22-rdf-syntax-ns#"
   xmlns:svg="http://www.w3.org/2000/svg"
   xmlns="http://www.w3.org/2000/svg"
   viewBox="0 0 102.42667 105.82667"
   height="105.82667"
   width="102.42667"
   xml:space="preserve"
   id="svg2"
   version="1.1"><metadata
     id="metadata8"><rdf:RDF><cc:Work
         rdf:about=""><dc:format>image/svg+xml</dc:format><dc:type
           rdf:resource="http://purl.org/dc/dcmitype/StillImage" /></cc:Work></rdf:RDF></metadata><defs
     id="defs6" /><g
     transform="matrix(1.3333333,0,0,-1.3333333,0,105.82667)"
     id="g10"><g
       transform="scale(0.1)"
       id="g12"><path
         id="path14"
         style="fill:#231f20;fill-opacity:1;fill-rule:nonzero;stroke:none"
         d="M 0,0 V 793.695 H 768.188 V 0 H 0 M 1.41797,792.379 V 1.31641 H 766.773 V 792.379 H 1.41797" /><path
         id="path16"
         style="fill:#af201c;fill-opacity:1;fill-rule:nonzero;stroke:none"
         d="M 14.2148,780.527 H 754.047 V 598.652 H 14.2148 v 181.875 m 0,-585.41 V 13.2695 H 754.047 V 195.117 H 14.2148 m 0,390.43 V 403.602 H 754.047 V 585.547 H 14.2148 m 0,-195.285 V 208.387 H 754.047 V 390.262 H 14.2148 m 310.8402,90.621 v 0 c 0,4.027 -0.793,7.387 -2.34,10.012 -1.442,2.691 -3.418,4.769 -5.758,6.214 -2.41,1.516 -4.93,2.422 -7.559,2.856 v 0 0 0.172 0 0 c 3.602,1.004 6.77,2.918 9.465,5.777 2.774,2.785 4.215,6.82 4.321,11.93 0,6.215 -1.911,11.086 -5.871,14.379 -3.954,3.359 -10.071,5.105 -18.352,5.105 v 0 0 h -22.852 v -78.187 h 22.852 v 0 0 c 8.281,0.172 14.754,2.187 19.258,6.214 4.496,3.93 6.836,9.141 6.836,15.528 m -14.578,35.715 c 0,3.363 -1.149,6.117 -3.418,8.23 -2.336,2.086 -5.754,3.195 -10.438,3.195 v 0 0 h -7.734 v -23.957 h 7.015 v 0 0 c 4.86,0.098 8.457,1.278 10.903,3.528 2.414,2.285 3.672,5.304 3.672,9.004 v 0 m 1.621,-34.942 c 0.109,3.766 -1.078,6.891 -3.313,9.305 -2.34,2.453 -5.863,3.695 -10.797,3.801 v 0 0 h -9.101 v -26.043 h 8.746 v 0 0 c 4.855,0.066 8.457,1.242 10.867,3.699 2.445,2.418 3.598,5.437 3.598,9.238 v 0 m 74.066,-22.515 v 0 c -0.184,1.078 -0.359,2.519 -0.465,4.203 -0.183,1.679 -0.254,3.422 -0.254,5.375 v 0 0 27.281 0 0 c 0,3.801 -0.468,6.988 -1.261,9.512 -0.899,2.519 -2.09,4.601 -3.598,6.215 -1.441,1.511 -3.527,2.753 -6.406,3.933 -2.95,1.106 -6.66,1.68 -11.231,1.781 -3.961,-0.101 -7.484,-0.507 -10.543,-1.445 -3.062,-0.84 -5.761,-1.851 -7.992,-3.098 v 0 0 l 0.973,-9.91 v 0 0 c 1.621,1.516 3.957,2.758 6.84,3.938 2.808,1.105 6.043,1.676 9.461,1.773 4.324,0 7.453,-1.176 9.542,-3.355 1.797,-2.289 2.586,-5.145 2.516,-8.668 v 0 0 -2.356 h -4.496 v 0 0 c -10.008,0 -17.566,-1.511 -22.781,-4.703 -5.114,-3.09 -7.739,-7.961 -7.813,-14.515 0.184,-5.477 1.871,-9.676 5.293,-12.43 3.418,-2.859 7.668,-4.305 12.707,-4.305 4.496,0 8.164,0.774 10.864,2.184 2.808,1.445 4.964,3.297 6.585,5.547 v 0 0 h 0.075 v 0 0 c 0,-0.84 0.109,-2.086 0.179,-3.598 0.184,-1.508 0.356,-2.687 0.539,-3.359 v 0 0 h 11.266 m -12.418,23.015 v 5.039 0 0 c -0.539,0 -1.078,0.071 -1.906,0.071 -0.789,0 -1.621,0 -2.336,0 -12.418,0 -18.719,-3.696 -18.789,-11.157 0,-2.855 0.789,-5.136 2.515,-6.824 1.622,-1.742 4.036,-2.582 7.274,-2.582 4.426,0.063 7.664,1.512 9.894,4.27 2.161,2.855 3.239,6.547 3.348,11.183 v 0 m 76.727,-23.015 v 0 c -0.243,2.925 -0.43,6.285 -0.43,10.25 v 0 0 73.754 h -12.52 v -33.434 h -0.078 v 0 0 c -1.726,2.519 -3.886,4.434 -6.406,5.715 -2.519,1.34 -5.644,2.015 -9.609,2.015 -6.582,-0.101 -11.688,-2.621 -15.469,-7.562 -3.777,-5.039 -5.691,-12.363 -5.762,-22.008 0.071,-9.07 1.875,-16.23 5.578,-21.504 3.602,-5.211 8.887,-7.894 15.907,-8 4.504,0.106 8.027,0.844 10.546,2.453 2.52,1.516 4.387,3.532 5.754,5.883 v 0 0 h 0.184 v 0 0 c 0,-1.176 0,-2.621 0.176,-4.301 0.078,-1.582 0.187,-2.691 0.254,-3.261 v 0 0 h 11.875 m -12.95,28.797 c 0,6.488 -0.976,11.527 -2.957,15.117 -1.972,3.629 -5.148,5.48 -9.531,5.48 -4.316,0 -7.492,-1.781 -9.465,-5.308 -1.98,-3.532 -2.879,-8.571 -2.879,-15.02 -0.078,-6.992 0.899,-12.195 2.696,-15.727 1.902,-3.527 5.039,-5.273 9.539,-5.273 4.426,0.066 7.668,1.914 9.64,5.609 2.051,3.696 2.957,8.739 2.957,15.122 v 0 m 74.426,-3.258 v 0 3.929 0 0 c -0.187,10.016 -2.344,17.305 -6.484,22.012 -4.133,4.633 -9.719,6.883 -16.555,6.883 -7.84,-0.164 -13.855,-2.926 -18.172,-8.399 -4.25,-5.375 -6.406,-12.601 -6.476,-21.503 0,-5.711 0.968,-10.649 2.883,-15.02 1.972,-4.367 4.921,-7.824 8.886,-10.348 3.887,-2.421 8.926,-3.695 14.864,-3.761 3.777,0 7.195,0.398 10.253,1.074 2.95,0.672 5.469,1.512 7.559,2.351 v 0 0 l -0.644,9.743 v 0 0 c -1.516,-1.075 -3.606,-2.082 -6.125,-3.09 -2.411,-0.946 -5.469,-1.446 -8.993,-1.446 -5.656,0 -9.785,1.446 -12.422,4.465 -2.511,2.926 -3.847,7.297 -3.769,13.11 v 0 0 h 35.195 m -12.238,7.961 c 0,11.019 -3.777,16.57 -11.16,16.57 -3.594,0 -6.477,-1.516 -8.567,-4.371 -2.05,-2.86 -3.125,-6.891 -3.23,-12.199 v 0 0 h 22.957 v 0 m 72.519,-33.262 v 0 38.402 0 0 c 0.071,6.114 -1.445,10.918 -4.324,14.449 -2.988,3.528 -7.48,5.274 -13.672,5.375 -7.304,0.168 -12.597,-2.621 -16.015,-8.23 v 0 0 h -0.176 v 0 0 c 0,0.84 -0.109,2.086 -0.188,3.695 -0.175,1.68 -0.281,2.926 -0.281,3.766 v 0 0 h -11.769 v 0 0 c 0.246,-3.43 0.429,-7.055 0.539,-10.992 v 0 0 -46.465 h 12.41 v 34.035 0 0 c 0,4.535 0.976,7.965 2.961,10.586 1.973,2.52 4.961,3.859 8.808,3.859 3.172,0.071 5.508,-0.933 7.02,-3.019 1.437,-2.02 2.266,-5.309 2.266,-9.746 v 0 0 -35.715 H 572.23 M 334.051,300.215 v 0 c -0.071,8.465 -1.512,15.351 -4.5,20.73 -2.875,5.371 -6.656,9.407 -11.332,12.2 -2.703,1.679 -5.938,3.015 -9.61,3.925 -3.711,1.016 -8.211,1.516 -13.429,1.516 v 0 0 h -19.969 v -78.188 h 17.383 v 0 0 c 13.676,0.168 24.004,3.696 31.019,10.657 6.95,7.05 10.438,16.726 10.438,29.16 m -13.676,0 c 0.109,5.547 -0.789,10.476 -2.59,14.785 -1.801,4.266 -4.68,7.723 -8.566,10.145 -3.961,2.453 -9,3.625 -15.293,3.695 v 0 0 h -5.762 v -58.695 h 5.762 v 0 0 c 8.922,0.058 15.582,2.753 19.969,8.058 4.324,5.274 6.589,12.606 6.48,22.012 v 0 m 66.148,28.387 v 11.765 h -10.546 v -11.765 h 10.546 m -19.722,0 v 11.765 h -10.508 v -11.765 h 10.508 m 26.992,-68.204 v 0 c -0.184,1.075 -0.254,2.524 -0.43,4.2 -0.183,1.679 -0.183,3.429 -0.293,5.371 v 0 0 27.289 0 0 c 0,3.797 -0.359,6.992 -1.257,9.508 -0.793,2.519 -2.051,4.601 -3.594,6.211 -1.336,1.515 -3.496,2.765 -6.375,3.937 -2.879,1.113 -6.66,1.68 -11.262,1.777 -3.855,-0.097 -7.379,-0.5 -10.441,-1.445 -3.055,-0.84 -5.758,-1.848 -8.094,-3.086 v 0 0 l 1.004,-9.91 v 0 0 c 1.695,1.512 3.961,2.754 6.84,3.926 2.879,1.109 6.011,1.676 9.429,1.785 4.317,0 7.485,-1.184 9.535,-3.359 1.805,-2.286 2.629,-5.149 2.524,-8.672 v 0 0 -2.356 h -4.5 v 0 0 c -9.969,0 -17.527,-1.511 -22.75,-4.707 -5.141,-3.086 -7.734,-7.957 -7.84,-14.512 0.18,-5.476 1.977,-9.675 5.328,-12.429 3.418,-2.852 7.625,-4.297 12.664,-4.297 4.606,0 8.203,0.769 10.977,2.176 2.703,1.449 4.859,3.293 6.48,5.547 v 0 0 h 0.106 v 0 0 c 0,-0.84 0.074,-2.079 0.25,-3.59 0.109,-1.516 0.289,-2.688 0.469,-3.364 v 0 0 h 11.23 m -12.414,23.02 v 5.039 0 0 c -0.434,0 -1.082,0.066 -1.871,0.066 -0.832,0 -1.547,0 -2.34,0 -12.418,0 -18.645,-3.699 -18.824,-11.16 0,-2.851 0.828,-5.136 2.519,-6.816 1.731,-1.746 4.137,-2.586 7.305,-2.586 4.391,0.066 7.633,1.512 9.898,4.266 2.231,2.851 3.313,6.55 3.313,11.191 v 0 m 58.664,-22.109 v 0 8.73 0 0 c -1.512,-0.734 -3.496,-1.238 -6.016,-1.34 -2.156,-0.066 -3.886,0.606 -4.851,1.848 -1.086,1.277 -1.621,3.457 -1.621,6.551 v 0 0 31.847 h 12.488 v 8.907 h -12.488 v 15.293 l -12.422,-3.528 v -11.765 h -9.895 v -8.907 h 9.895 v -34.199 0 0 c 0,-5.441 1.336,-9.402 4.031,-11.758 2.695,-2.258 6.582,-3.429 11.621,-3.359 3.781,0.098 6.848,0.664 9.258,1.68 m 41.855,0 v 0 8.73 0 0 c -1.445,-0.734 -3.535,-1.238 -5.945,-1.34 -2.265,-0.066 -3.887,0.606 -4.961,1.848 -1.086,1.277 -1.515,3.457 -1.515,6.551 v 0 0 31.847 h 12.421 v 8.907 h -12.421 v 15.293 l -12.52,-3.528 v -11.765 h -9.793 v -8.907 h 9.793 v -34.199 0 0 c 0,-5.441 1.367,-9.402 4.063,-11.758 2.695,-2.258 6.554,-3.429 11.699,-3.359 3.672,0.098 6.836,0.664 9.179,1.68 m 89.786,56.543 h -12.235 l -10.722,-46.368 h -0.176 l -11.164,46.368 H 522.816 L 511.84,271.484 h -0.254 l -10.801,46.368 h -12.949 l 16.445,-57.454 h 13.86 l 11.328,46.606 h 0.183 l 12.063,-46.606 h 13.777 l 16.192,57.454 m 24.836,11.589 v 12.438 h -13.243 v -12.438 h 13.243 m -0.364,-69.043 v 57.454 h -12.519 v -57.454 h 12.519 m 31.926,0 v 84 H 615.59 v -84 h 12.492 M 105.629,67.7031 V 145.82 H 93.6406 V 83.9922 H 93.5703 L 64.418,145.82 H 48.0469 V 67.7031 h 12.0547 v 61.2229 h 0.0703 L 89.3281,67.7031 h 16.3009 m 64.492,25.4336 v 0 3.961 0 0 c -0.18,9.9803 -2.336,17.3753 -6.48,22.0113 -4.137,4.602 -9.715,6.954 -16.551,6.887 -7.813,-0.168 -13.86,-2.961 -18.18,-8.328 -4.207,-5.441 -6.367,-12.602 -6.472,-21.5742 0,-5.6446 1.003,-10.6836 2.875,-15.0469 1.984,-4.375 4.964,-7.7383 8.925,-10.2539 3.852,-2.5235 8.891,-3.7617 14.828,-3.8594 3.782,0.0977 7.2,0.4297 10.254,1.1719 2.989,0.6718 5.508,1.4453 7.559,2.3554 v 0 0 l -0.609,9.7422 v 0 0 c -1.547,-1.1797 -3.598,-2.1875 -6.118,-3.0937 -2.445,-0.9375 -5.507,-1.4453 -9,-1.5156 -5.683,0 -9.824,1.5156 -12.414,4.4335 -2.519,3.0274 -3.886,7.3946 -3.777,13.1094 v 0 0 h 35.16 m -12.234,7.9963 c 0,10.984 -3.782,16.535 -11.16,16.535 -3.598,0 -6.477,-1.418 -8.528,-4.27 -2.09,-2.851 -3.172,-6.992 -3.238,-12.265 v 0 0 h 22.926 v 0 m 72.984,-33.4299 v 0 c -0.289,3.4297 -0.473,7.0547 -0.539,10.9219 v 0 0 46.531 h -12.418 v -34.1013 0 0 c 0,-4.4727 -1.004,-8 -2.988,-10.5195 -1.977,-2.5196 -4.93,-3.8633 -8.817,-3.9336 -3.132,0 -5.468,1.0156 -7.019,3.0273 -1.508,2.082 -2.231,5.2734 -2.231,9.7461 v 0 0 35.781 h -12.418 v -38.4685 0 0 c -0.105,-6.0508 1.442,-10.9258 4.325,-14.4531 2.949,-3.4571 7.445,-5.3008 13.672,-5.3711 7.269,-0.1055 12.597,2.6875 16.015,8.293 v 0 0 h 0.18 v 0 0 c 0,-0.8399 0.074,-2.0821 0.18,-3.7618 0.183,-1.6093 0.253,-2.8476 0.253,-3.6914 v 0 0 h 11.805 m 61.969,25.4336 v 0 3.961 0 0 c -0.18,9.9803 -2.336,17.3753 -6.473,22.0113 -4.14,4.602 -9.719,6.954 -16.558,6.887 -7.805,-0.168 -13.856,-2.961 -18.172,-8.328 -4.211,-5.441 -6.375,-12.602 -6.481,-21.5742 0,-5.6446 1.012,-10.6836 2.989,-15.0469 1.871,-4.375 4.859,-7.7383 8.82,-10.2539 3.851,-2.5235 8.883,-3.7617 14.828,-3.8594 3.777,0.0977 7.195,0.4297 10.254,1.1719 2.988,0.6718 5.508,1.4453 7.558,2.3554 v 0 0 l -0.609,9.7422 v 0 0 c -1.551,-1.1797 -3.601,-2.1875 -6.121,-3.0937 -2.445,-0.9375 -5.508,-1.4453 -8.996,-1.5156 -5.688,0 -9.828,1.5156 -12.418,4.4335 -2.52,3.0274 -3.781,7.3946 -3.781,13.1094 v 0 0 h 35.16 m -12.235,7.9963 c 0,10.984 -3.777,16.535 -11.156,16.535 -3.601,0 -6.476,-1.418 -8.527,-4.27 -2.09,-2.851 -3.168,-6.992 -3.242,-12.265 v 0 0 h 22.925 v 0 m 72.52,-33.2619 v 0 38.4689 0 0 c 0.105,6.121 -1.441,10.926 -4.316,14.453 -2.954,3.523 -7.454,5.27 -13.676,5.367 -7.274,0.18 -12.598,-2.613 -16.016,-8.328 v 0 0 h -0.183 v 0 0 c 0,0.84 -0.071,2.117 -0.18,3.801 -0.18,1.582 -0.25,2.847 -0.25,3.687 v 0 0 h -11.805 v 0 0 c 0.289,-3.355 0.469,-7.05 0.543,-10.918 v 0 0 -46.5309 h 12.41 v 34.1019 0 0 c 0,4.433 1.012,7.968 2.989,10.488 1.984,2.617 4.933,3.855 8.82,3.965 3.129,0 5.469,-1.016 7.016,-3.028 1.511,-2.121 2.23,-5.312 2.23,-9.746 v 0 0 -35.7809 h 12.418 m 62.984,-0.168 v 0 38.3709 0 0 c 0.106,6.153 -1.445,10.918 -4.316,14.442 -2.961,3.539 -7.453,5.312 -13.684,5.382 -4.031,-0.07 -7.195,-0.742 -9.609,-2.187 -2.445,-1.406 -4.316,-3.086 -5.684,-5.109 v 0 0 h -0.179 v 33.097 H 370.219 V 67.7031 h 12.418 v 34.0079 0 0 c 0,4.461 1.004,7.996 2.988,10.574 1.977,2.52 4.926,3.867 8.813,3.867 3.136,0 5.468,-1.007 7.023,-3.027 1.434,-2.012 2.227,-5.273 2.227,-9.738 v 0 0 -35.6839 h 12.421 m 66.688,28.7891 v 0 c 0,6.8948 -1.192,12.5388 -3.535,16.8088 -2.227,4.367 -5.282,7.558 -9.246,9.57 -3.887,2.117 -8.274,3.125 -13.059,3.027 -4.863,0.098 -9.246,-0.91 -13.144,-3.027 -3.954,-2.012 -7.012,-5.203 -9.247,-9.57 -2.336,-4.27 -3.527,-9.914 -3.527,-16.8088 0,-6.9492 1.191,-12.6641 3.527,-17.0274 2.235,-4.3671 5.293,-7.5625 9.247,-9.582 3.898,-2.0117 8.281,-2.9492 13.144,-2.9492 4.785,0 9.172,0.9375 13.059,2.9492 3.964,2.0195 7.019,5.2149 9.246,9.582 2.343,4.3633 3.535,10.0782 3.535,17.0274 m -12.891,0 c 0,6.1528 -0.898,11.0278 -2.879,14.8948 -1.972,3.758 -5.39,5.703 -10.07,5.879 -4.754,-0.176 -8.105,-2.121 -10.078,-5.879 -1.981,-3.867 -2.949,-8.742 -2.879,-14.8948 -0.07,-6.1094 0.898,-11.082 2.879,-14.9492 1.973,-3.7617 5.324,-5.7813 10.078,-5.8789 4.68,0.0976 8.098,2.1172 10.07,5.8789 1.981,3.8672 2.879,8.8398 2.879,14.9492 v 0 m 57.512,46.3128 v 0 8.961 0 0 c -1.438,0.343 -2.98,0.675 -4.68,0.839 -1.609,0.278 -3.054,0.442 -4.316,0.442 -5.938,-0.098 -10.184,-1.68 -12.703,-4.641 -2.59,-2.851 -3.781,-6.621 -3.672,-11.082 v 0 0 -12.168 h -10.078 v -9.004 h 10.078 V 67.7031 h 12.422 v 48.4489 h 11.152 v 9.004 h -11.152 v 10.918 0 0 c -0.11,5.215 2.332,7.805 7.195,7.899 0.793,0 1.691,-0.164 2.774,-0.332 1.183,-0.274 2.16,-0.504 2.98,-0.836 m -99.023,545.871 v 0 l 9.101,-21.125 v 0 c 0.547,-1.422 2.215,-4.543 0.887,-6.559 -1.61,-2.363 -5.555,-2.203 -8.145,-2.203 v 0 l -21.308,-0.027 v 0 c 2.851,-10.778 13.3,-18.793 25.715,-18.793 14.589,0 26.453,11.078 26.453,24.703 0,13.629 -11.864,24.703 -26.453,24.703 -2.161,0 -4.27,-0.238 -6.25,-0.699 m -22.54,26.308 v 0 h -59.25 l -2.046,-6.664 44.336,-41.797 16.96,48.461 m 13.79,-22.058 v 0 l -8.176,18.058 -16.18,-45.828 h 5.75 v 0 c 0.207,12.125 7.715,22.637 18.606,27.77 m -81.637,-4.953 v 0 l -7.082,-23.871 v 0 c -0.403,-1.289 -1.754,-3.063 -4.461,-2.34 -2.735,0.726 -2.477,2.961 -2.102,4.117 v 0 l 7.141,23.652 v 0 c -1.066,0.137 -2.188,0.192 -3.281,0.192 -14.598,0 -26.461,-11.051 -26.461,-24.68 0,-13.625 11.863,-24.676 26.461,-24.676 14.593,0 26.453,11.051 26.453,24.676 0,10.402 -6.906,19.301 -16.668,22.93 m 87.875,6.968 v 0 l -11.367,25.965 2.218,5.727 h 5.098 v 6.211 h -21.191 v -4.09 l 9.441,-2.121 -2.098,-5.727 h -59.629 l 2.215,6.75 v 0 c 0.52,1.664 0.953,3.063 2.278,4.164 1.324,1.024 3.797,1.024 5.754,1.024 v 0 h 9.968 V 739 h -12.441 v 0 c -3.801,0 -7.051,-1.187 -9.008,-3.066 -1.699,-1.59 -2.652,-4.301 -3.344,-6.536 v 0 l -10.16,-33.3 v 0 c -1.785,0.269 -3.457,0.484 -5.301,0.484 -18.652,0 -33.8,-14.141 -33.8,-31.531 0,-17.391 15.148,-31.559 33.8,-31.559 18.625,0 33.774,14.168 33.774,31.559 0,13.547 -9.414,24.89 -22.227,29.406 v 0 l 2.332,6.91 41.485,-38.765 v 0 c 1.383,-1.258 2.965,-2.524 4.84,-3.09 1.757,-0.668 3.976,-0.668 5.753,-0.668 v 0 l 7.344,-0.031 v 0 c 2.938,-14.594 16.699,-25.645 33.164,-25.645 18.633,0 33.75,14.117 33.75,31.504 0,17.394 -15.117,31.504 -33.75,31.504 -3.047,0 -6.047,-0.535 -8.898,-1.235 m -3.692,-8.453 v 0 c -8.32,-4.191 -13.875,-11.937 -13.875,-21.343 v 0 h 22.86 l -8.985,21.343 M 97.207,428.434 h 38.012 l -5.067,68.593 44.223,-10.316 v 0 c 0.387,-0.109 0.805,-0.152 1.238,-0.152 2.801,0 5.067,2.117 5.067,4.73 0,1.172 -0.465,2.25 -1.223,3.074 v 0 l -59.394,64.692 v 0 c -0.934,1.004 -2.313,1.652 -3.844,1.652 -1.543,0 -2.926,-0.648 -3.86,-1.652 v 0 L 52.9688,494.363 v 0 c -0.7579,-0.824 -1.2266,-1.902 -1.2266,-3.074 0,-2.613 2.2695,-4.73 5.0703,-4.73 0.418,0 0.8555,0.058 1.2383,0.152 v 0 l 44.2222,10.316 -5.066,-68.593 v 0 m 83.457,-146.832 v 35.488 l -73.469,-4.727 11.051,41.285 v 0 c 0.113,0.36 0.164,0.75 0.164,1.157 0,2.613 -2.269,4.73 -5.07,4.73 -1.254,0 -2.414,-0.433 -3.297,-1.14 v 0 L 40.7578,302.938 v 0 c -1.0742,-0.868 -1.7695,-2.157 -1.7695,-3.583 0,-1.445 0.6953,-2.734 1.7695,-3.601 v 0 l 69.2852,-55.461 v 0 c 0.883,-0.703 2.043,-1.145 3.297,-1.145 2.801,0 5.07,2.122 5.07,4.739 0,0.39 -0.066,0.793 -0.164,1.152 v 0 l -11.051,41.289 73.469,-4.726 v 0 M 583.316,86.4531 v 0 l 73.465,4.7266 -11.054,-41.2891 v 0 c -0.098,-0.3593 -0.157,-0.7578 -0.157,-1.1523 0,-2.6133 2.266,-4.7344 5.071,-4.7344 1.25,0 2.41,0.4375 3.289,1.1406 v 0 l 69.289,55.4495 v 0 c 1.074,0.871 1.765,2.168 1.765,3.605 0,1.438 -0.691,2.727 -1.765,3.594 v 0 l -69.289,55.449 v 0 c -0.879,0.711 -2.039,1.145 -3.289,1.145 -2.805,0 -5.071,-2.121 -5.071,-4.731 0,-0.406 0.051,-0.801 0.157,-1.16 v 0 l 11.054,-41.289 -73.465,4.734 V 86.4531" /></g></g></svg>