<?xml version="1.0" encoding="UTF-8" standalone="no"?>
<svg
   xmlns:dc="http://purl.org/dc/elements/1.1/"
   xmlns:cc="http://creativecommons.org/ns#"
   xmlns:rdf="http://www.w3.org/1999/02/22-rdf-syntax-ns#"
   xmlns:svg="http://www.w3.org/2000/svg"
   xmlns="http://www.w3.org/2000/svg"
   viewBox="0 0 246.03999 47.626667"
   height="47.626667"
   width="246.03999"
   xml:space="preserve"
   id="svg2"
   version="1.1"><metadata
     id="metadata8"><rdf:RDF><cc:Work
         rdf:about=""><dc:format>image/svg+xml</dc:format><dc:type
           rdf:resource="http://purl.org/dc/dcmitype/StillImage" /></cc:Work></rdf:RDF></metadata><defs
     id="defs6" /><g
     transform="matrix(1.3333333,0,0,-1.3333333,0,47.626667)"
     id="g10"><g
       transform="scale(0.1)"
       id="g12"><path
         id="path14"
         style="fill:#ffffff;fill-opacity:1;fill-rule:nonzero;stroke:none"
         d="m 1532.13,1.41797 311.8,177.09003 -311.8,177.258 H 1.41797 V 1.41797 H 1532.13 v 0" /><path
         id="path16"
         style="fill:none;stroke:#231f20;stroke-width:2.83500004;stroke-linecap:butt;stroke-linejoin:round;stroke-miterlimit:4;stroke-dasharray:none;stroke-opacity:1"
         d="m 1532.13,1.41797 311.8,177.09003 -311.8,177.258 H 1.41797 V 1.41797 H 1532.13 v 0" /><path
         id="path18"
         style="fill:#af201c;fill-opacity:1;fill-rule:nonzero;stroke:none"
         d="M 1526.48,22.6953 1688.01,178.539 1526.48,334.492 H 22.6563 V 22.6953 H 1526.48" /><path
         id="path20"
         style="fill:#ffffff;fill-opacity:1;fill-rule:nonzero;stroke:none"
         d="m 168.23,195.238 c -4.96,1.313 -10.203,2.34 -15.562,2.34 -32.609,0 -59.1133,-26.508 -59.1133,-59.117 0,-32.602 26.5043,-59.1172 59.1133,-59.1172 28.844,0 52.957,20.7542 58.09,48.1172 v 0 l 12.883,0.059 v 0 c 3.136,0 7.011,0 10.089,1.253 3.25,1.079 6.043,3.418 8.438,5.813 v 0 l 72.68,72.738 4.109,-12.992 v 0 c -22.461,-8.437 -38.937,-29.762 -38.937,-55.187 0,-32.602 26.507,-59.1762 59.175,-59.1762 32.66,0 59.168,26.5742 59.168,59.1762 0,32.668 -26.508,59.175 -59.168,59.175 -3.254,0 -6.156,-0.398 -9.293,-0.914 v 0 l -17.789,62.481 v 0 c -1.254,4.218 -2.902,9.293 -5.867,12.258 -3.422,3.535 -9.121,5.753 -15.793,5.753 v 0 h -21.777 v -11.511 h 17.441 v 0 c 3.426,0 7.754,0 10.094,-1.938 2.336,-2.058 3.078,-4.679 3.988,-7.812 v 0 l 3.879,-12.657 H 199.645 l -3.707,10.715 16.527,3.993 v 7.699 h -37.11 v -11.692 h 8.95 l 3.879,-10.715 -19.954,-48.742 v 0" /><path
         id="path22"
         style="fill:#ffffff;fill-opacity:1;fill-rule:nonzero;stroke:none"
         d="m 475.43,93.5469 h 28.437 V 261.805 h 0.574 L 555.313,93.5469 h 21.882 l 53.176,168.2581 h 0.574 V 93.5469 h 28.407 V 291.938 h -45.18 L 567.84,139.012 h -0.574 L 522.047,291.938 H 475.43 v -198.3911 0" /><path
         id="path24"
         style="fill:#ffffff;fill-opacity:1;fill-rule:nonzero;stroke:none"
         d="m 766.234,93.5469 h 26.715 v 0 c -0.289,2.5547 -0.828,6.2265 -1.117,10.5041 -0.289,4.25 -0.578,8.793 -0.578,13.644 v 0 69.629 0 c 0,9.684 -0.863,17.641 -2.84,23.903 -1.984,6.23 -5.113,11.375 -8.824,15.625 -3.129,3.711 -8.242,7.093 -15.047,10.222 -6.836,2.848 -15.66,4.281 -26.75,4.281 -9.355,0 -17.602,-1.144 -24.73,-3.417 -7.09,-2.262 -13.645,-4.825 -19.043,-7.954 v 0 l 2.269,-25.308 v 0 c 3.707,3.707 9.106,7.09 16.234,10.222 6.805,2.844 14.188,4.286 22.43,4.286 10.547,0 17.93,-2.844 22.465,-8.536 2.266,-2.839 3.992,-5.972 4.824,-9.394 0.863,-3.672 1.153,-7.664 1.153,-12.203 v 0 -5.977 h -10.512 v 0 c -23.621,0 -41.797,-3.996 -54.039,-11.664 -12.203,-7.953 -18.469,-20.449 -18.469,-37.508 0,-6.843 1.152,-12.816 3.418,-18.218 2.27,-5.403 5.402,-9.649 9.398,-13.36 3.672,-3.6717 8.243,-6.2224 13.356,-7.949 5.113,-1.9453 10.512,-2.8125 16.492,-2.8125 10.793,0 19.328,2.2383 25.844,6.8047 6.262,4.2498 11.375,9.3558 15.086,15.0508 v 0 h 0.574 v 0 c 0,-0.828 0,-2.266 0.254,-4.246 0,-1.984 0,-3.996 0.285,-5.981 0.289,-1.98 0.289,-3.9918 0.578,-5.691 0.285,-1.9727 0.285,-3.125 0.574,-3.9531 v 0" /><path
         id="path26"
         style="fill:#ffffff;fill-opacity:1;fill-rule:nonzero;stroke:none"
         d="m 819.262,93.5469 h 29.554 v 78.4411 c 0,7.375 0.868,13.641 2.563,19.043 1.687,5.399 3.992,9.688 6.84,13.071 2.84,3.128 6.222,5.683 9.929,7.41 3.711,1.41 7.383,2.273 11.665,2.273 1.695,0 3.425,0 4.824,-0.289 1.41,-0.289 3.136,-0.574 4.539,-0.863 v 0 28.437 0 c -0.539,0 -1.113,0 -1.403,0.285 -0.289,0 -0.863,0 -1.441,0 -5.398,0 -10.223,-0.574 -14.473,-2.011 -4.285,-1.406 -7.703,-3.383 -10.8,-5.942 -3.129,-2.554 -5.977,-5.398 -8.243,-8.527 -2.304,-3.137 -4.285,-6.555 -5.687,-10.266 v 0 h -0.578 v 0 c 0,1.153 0,2.848 0,5.153 -0.285,2.265 -0.285,4.824 -0.574,7.375 -0.289,2.558 -0.289,4.828 -0.289,7.097 -0.29,2.266 -0.29,3.993 -0.29,5.11 v 0 h -27.289 v 0 c 0.289,-4.246 0.579,-8.781 0.864,-13.36 0.289,-4.82 0.289,-9.644 0.289,-14.472 v 0 -117.9651 0" /><path
         id="path28"
         style="fill:#ffffff;fill-opacity:1;fill-rule:nonzero;stroke:none"
         d="m 986.371,95.8086 v 22.1794 c -1.973,-0.871 -3.953,-1.726 -6.258,-2.304 -2.265,-0.832 -4.824,-1.114 -7.961,-1.114 -5.398,0 -9.031,1.692 -11.589,4.825 -2.559,3.128 -3.711,8.531 -3.711,16.484 v 0 80.746 h 29.519 v 22.719 h -29.519 v 38.664 l -29.551,-8.785 v -29.879 h -23.332 v -22.719 h 23.332 v -86.723 0 c 0,-13.933 3.133,-23.867 9.648,-29.55 6.551,-5.977 15.653,-8.7895 27.539,-8.7895 4.285,0 8.535,0.293 12.235,1.1523 3.672,1.086 7.101,1.9415 9.648,3.0938 v 0" /><path
         id="path30"
         style="fill:#ffffff;fill-opacity:1;fill-rule:nonzero;stroke:none"
         d="m 1007.76,93.5469 h 29.56 V 239.344 h -29.56 v -145.7971 0" /><path
         id="path32"
         style="fill:#ffffff;fill-opacity:1;fill-rule:nonzero;stroke:none"
         d="m 1006.9,268.648 h 31.28 v 31.536 h -31.28 v -31.536 0" /><path
         id="path34"
         style="fill:#ffffff;fill-opacity:1;fill-rule:nonzero;stroke:none"
         d="m 1067.7,67.1172 -1.69,-27.5742 v 0 c 4.83,-1.9766 11.62,-3.9571 20.16,-5.9805 8.53,-1.9687 17.35,-3.125 26.17,-3.125 21.6,0 37.8,5.9805 48.6,17.6367 10.8,11.6602 16.2,28.4375 16.2,50 v 0 116.5348 0 c 0,4.286 0.29,8.246 0.58,12.528 0.28,4.25 0.28,8.25 0.58,12.207 v 0 H 1151 v 0 c 0,-0.828 0,-2.555 0,-4.535 -0.28,-1.981 -0.28,-4.246 -0.57,-6.551 -0.29,-2.274 -0.29,-4.25 -0.29,-6.231 -0.29,-2.015 -0.29,-3.707 -0.29,-4.57 v 0 h -0.83 v 0 c -3.7,6.551 -8.53,12.238 -14.5,17.063 -5.98,4.574 -13.36,6.835 -22.47,6.835 -8.82,0 -16.77,-1.722 -23.32,-5.394 -6.52,-3.711 -12.21,-8.535 -16.5,-15.086 -4.25,-6.516 -7.66,-14.508 -9.65,-23.578 -2.26,-9.399 -3.42,-19.621 -3.42,-30.996 0,-13.645 1.45,-25.024 4.57,-34.383 2.86,-9.395 6.53,-17.066 11.35,-22.746 4.86,-5.981 10.26,-9.9728 16.23,-12.5314 5.94,-2.5586 12.21,-3.9258 18.47,-3.9258 9.94,0 17.89,2.2344 23.87,7.0586 5.98,4.5706 10.8,10.2536 14.51,17.3436 v 0 h 0.57 v -18.1717 0 c 0,-5.9375 -0.57,-11.914 -1.72,-17.3125 -1.41,-5.4023 -3.42,-9.9726 -6.23,-13.9375 -3.13,-3.9961 -7.13,-7.1289 -12.24,-9.6875 -5.12,-2.2656 -11.66,-3.3789 -19.34,-3.3789 -7.95,0 -15.62,1.4063 -23.32,3.957 -7.67,2.8477 -13.65,5.6914 -18.18,8.5313 v 0" /><path
         id="path36"
         style="fill:#ffffff;fill-opacity:1;fill-rule:nonzero;stroke:none"
         d="m 1206.66,93.5469 h 29.55 v 86.3941 c 0,11.375 2.27,20.489 7.09,27 4.58,6.555 11.38,9.684 20.78,9.684 7.66,0 13.06,-2.555 16.78,-7.664 3.41,-5.148 5.11,-13.395 5.11,-24.734 v 0 -90.6801 h 29.55 v 97.4841 0 c 0,15.336 -3.41,27.578 -10.22,36.684 -6.84,9.074 -17.64,13.64 -32.41,13.64 -8.52,0 -15.94,-2.011 -22.46,-6.257 -6.55,-4.25 -11.66,-10.223 -15.37,-17.895 v 0 h -0.53 v 0 c 0,0.828 0,2.559 0,4.535 -0.3,1.981 -0.3,4.246 -0.58,6.52 -0.29,2.305 -0.29,4.57 -0.29,6.551 -0.28,1.98 -0.28,3.707 -0.28,4.535 v 0 h -27.88 v 0 c 0.3,-4.246 0.58,-8.781 0.87,-13.36 0.29,-4.82 0.29,-9.644 0.29,-14.472 v 0 -117.9651 0" /><path
         id="path38"
         style="fill:#ffffff;fill-opacity:1;fill-rule:nonzero;stroke:none"
         d="m 1342.74,57.4688 -1.44,-24.1875 v 0 c 2.55,-0.8321 5.4,-1.4063 8.82,-1.9805 3.13,-0.5781 6.84,-0.8633 10.51,-0.8633 10.55,0 19.04,2.8438 25.02,8.5273 5.98,5.9766 10.52,14.5118 13.64,25.8868 v 0 l 51.74,174.4924 h -28.98 l -28.98,-114.555 h -0.57 l -31,114.555 h -30.71 l 47.19,-147.4885 -4.25,-17.3516 v 0 c -2.01,-7.668 -4.28,-12.7851 -6.83,-15.625 -2.85,-2.8437 -6.55,-4.25 -10.8,-4.25 -2.56,0 -5.12,0.2852 -7.1,0.832 -2.3,0.5743 -4.28,1.1485 -6.26,2.0079 v 0" /><path
         id="path40"
         style="fill:#af201c;fill-opacity:1;fill-rule:nonzero;stroke:none"
         d="m 163.613,183.516 c -3.496,0.859 -7.144,1.32 -10.945,1.32 -25.594,0 -46.375,-20.777 -46.375,-46.375 0,-25.59 20.781,-46.3712 46.375,-46.3712 21.742,0 40.039,15.0582 45.055,35.2732 v 0 l -37.352,0.055 v 0 c -4.512,0 -11.453,-0.309 -14.238,4.152 -2.336,3.75 0.605,9.629 1.519,12.262 v 0 l 15.961,39.684 v 0" /><path
         id="path42"
         style="fill:#af201c;fill-opacity:1;fill-rule:nonzero;stroke:none"
         d="m 203.324,232.898 29.707,-90.957 77.657,78.43 -3.555,12.527 H 203.324 v 0" /><path
         id="path44"
         style="fill:#af201c;fill-opacity:1;fill-rule:nonzero;stroke:none"
         d="m 179.176,191.48 c 19.094,-9.636 32.265,-29.363 32.605,-52.105 v 0 h 10.094 l -28.336,85.969 -14.363,-33.864 v 0" /><path
         id="path46"
         style="fill:#af201c;fill-opacity:1;fill-rule:nonzero;stroke:none"
         d="m 322.059,182.168 c -17.075,-6.816 -29.2,-23.516 -29.2,-43.008 0,-25.558 20.793,-46.3162 46.375,-46.3162 25.579,0 46.371,20.7582 46.371,46.3162 0,25.551 -20.792,46.317 -46.371,46.317 -1.937,0 -3.875,-0.102 -5.761,-0.356 v 0 l 12.539,-44.383 v 0 c 0.609,-2.187 1.07,-6.363 -3.723,-7.734 -4.742,-1.379 -7.082,1.98 -7.797,4.375 v 0 l -12.433,44.789 v 0" /><path
         id="path48"
         style="fill:#af201c;fill-opacity:1;fill-rule:nonzero;stroke:none"
         d="M 174.477,179.223 158.703,139.16 h 40.067 v 0 c 0,17.633 -9.747,32.172 -24.293,40.063 v 0" /><path
         id="path50"
         style="fill:#af201c;fill-opacity:1;fill-rule:nonzero;stroke:none"
         d="m 763.395,164.898 v -13.105 c 0,-11.633 -2.559,-21.027 -7.672,-28.117 -5.403,-7.414 -13.067,-11.086 -23.614,-11.086 -7.671,0 -13.359,2.262 -17.32,6.512 -3.992,4.285 -5.976,10.222 -5.976,17.355 0,9.645 3.71,16.773 11.378,21.598 7.668,4.828 18.754,7.09 33.266,7.09 1.688,0 3.383,0 5.398,0 1.981,0 3.672,0 4.54,-0.247 v 0" /><path
         id="path52"
         style="fill:#af201c;fill-opacity:1;fill-rule:nonzero;stroke:none"
         d="m 1096.71,127.926 c -4.86,8.242 -7.41,21.308 -7.41,39.238 0,16.777 2.27,29.266 6.84,38.09 4.25,8.531 11.67,12.777 21.88,13.066 9.65,0 17.07,-4.25 22.47,-12.777 5.11,-8.535 7.67,-21.316 7.67,-38.094 v 0 0 0 c 0,-17.64 -2.56,-30.707 -7.38,-39.234 -4.86,-8.82 -12.82,-13.07 -23.9,-13.07 -8.54,0 -15.34,4.25 -20.17,12.781 v 0" /></g></g></svg>