<?xml version="1.0" encoding="UTF-8" standalone="no"?>
<svg
   xmlns:dc="http://purl.org/dc/elements/1.1/"
   xmlns:cc="http://creativecommons.org/ns#"
   xmlns:rdf="http://www.w3.org/1999/02/22-rdf-syntax-ns#"
   xmlns:svg="http://www.w3.org/2000/svg"
   xmlns="http://www.w3.org/2000/svg"
   viewBox="0 0 246.05333 47.626667"
   height="47.626667"
   width="246.05333"
   xml:space="preserve"
   id="svg2"
   version="1.1"><metadata
     id="metadata8"><rdf:RDF><cc:Work
         rdf:about=""><dc:format>image/svg+xml</dc:format><dc:type
           rdf:resource="http://purl.org/dc/dcmitype/StillImage" /></cc:Work></rdf:RDF></metadata><defs
     id="defs6" /><g
     transform="matrix(1.3333333,0,0,-1.3333333,0,47.626667)"
     id="g10"><g
       transform="scale(0.1)"
       id="g12"><path
         id="path14"
         style="fill:#ffffff;fill-opacity:1;fill-rule:nonzero;stroke:none"
         d="M 1.41797,1.41797 V 355.766 H 1532.14 L 1843.93,178.5 1532.14,1.41797 H 1.41797 v 0" /><path
         id="path16"
         style="fill:none;stroke:#231f20;stroke-width:2.83500004;stroke-linecap:butt;stroke-linejoin:round;stroke-miterlimit:4;stroke-dasharray:none;stroke-opacity:1"
         d="M 1.41797,1.41797 V 355.766 H 1532.14 L 1843.93,178.5 1532.14,1.41797 H 1.41797 v 0" /><path
         id="path18"
         style="fill:#af201c;fill-opacity:1;fill-rule:nonzero;stroke:none"
         d="M 22.6563,22.6953 V 334.488 H 1526.48 L 1688.02,178.539 1526.48,22.6953 H 22.6563" /><path
         id="path20"
         style="fill:#ffffff;fill-opacity:1;fill-rule:nonzero;stroke:none"
         d="m 170.836,191.137 c -4.934,1.332 -10.191,2.34 -15.551,2.34 -32.617,0 -59.117,-26.497 -59.117,-59.114 0,-32.613 26.5,-59.1091 59.117,-59.1091 28.832,0 52.953,20.7383 58.098,48.0941 v 0 l 12.851,0.074 v 0 c 3.168,0 7.024,0 10.118,1.262 3.242,1.078 6.05,3.418 8.421,5.793 v 0 l 72.688,72.753 4.105,-12.992 v 0 c -22.464,-8.461 -38.914,-29.773 -38.914,-55.187 0,-32.621 26.493,-59.1877 59.145,-59.1877 32.691,0 59.183,26.5667 59.183,59.1877 0,32.648 -26.492,59.183 -59.183,59.183 -3.238,0 -6.156,-0.394 -9.289,-0.937 v 0 l -17.781,62.5 v 0 c -1.262,4.207 -2.914,9.285 -5.872,12.234 -3.417,3.532 -9.105,5.762 -15.804,5.762 v 0 h -21.778 v -11.52 h 17.461 v 0 c 3.418,0 7.739,0 10.079,-1.906 2.339,-2.051 3.097,-4.683 3.996,-7.812 v 0 l 3.89,-12.672 H 202.262 l -3.707,10.726 16.523,3.996 v 7.668 h -37.117 v -11.664 h 8.961 l 3.894,-10.726 -19.98,-48.746 v 0" /><path
         id="path22"
         style="fill:#ffffff;fill-opacity:1;fill-rule:nonzero;stroke:none"
         d="m 676.02,93.5391 h 30.675 l 15.082,49.7189 h 71.93 l 15.047,-49.7189 h 31.859 L 776.063,291.938 H 742.516 L 676.02,93.5391 v 0" /><path
         id="path24"
         style="fill:#ffffff;fill-opacity:1;fill-rule:nonzero;stroke:none"
         d="m 899.184,93.5391 h 54 v 0 c 9.937,0 18.757,1.4062 26.425,4.25 7.664,2.5589 13.93,6.5509 19.332,11.3749 5.399,4.824 9.399,10.801 12.239,17.602 2.55,6.554 3.96,13.937 3.96,21.89 v 0 0 0 c 0,7.707 -1.12,14.219 -3.13,20.196 -2.27,5.691 -5.11,10.511 -8.49,14.507 -3.715,3.672 -7.711,6.809 -11.957,9.11 -4.536,2.265 -9.11,3.672 -13.649,4.539 v 0 0.574 0 c 4.25,1.402 8.25,3.133 12.207,5.688 3.707,2.269 7.129,5.113 10.259,8.785 3.14,3.707 5.4,7.957 7.38,13.101 1.98,4.824 2.85,10.801 2.85,17.321 0,15.945 -4.54,28.148 -13.645,36.679 -9.402,8.535 -23.871,12.782 -43.781,12.782 v 0 h -54 v -198.3989 0" /><path
         id="path26"
         style="fill:#ffffff;fill-opacity:1;fill-rule:nonzero;stroke:none"
         d="m 1207.23,97.7891 -1.1,28.9769 v 0 c -4.87,-3.094 -9.98,-5.399 -15.96,-7.09 -5.94,-1.692 -12.78,-2.551 -20.44,-2.551 -18.48,0 -32.98,6.547 -43.78,19.906 -10.8,13.356 -16.2,32.688 -16.2,58.535 0,12.528 1.69,23.325 4.82,32.688 3.14,9.109 7.67,16.773 13.07,22.754 5.4,5.972 11.66,10.222 18.75,13.351 7.13,2.848 14.8,4.289 22.47,4.289 8.25,0 15.37,-1.152 21.31,-3.136 5.98,-2.266 11.38,-4.824 15.96,-7.375 v 0 l 1.1,28.687 v 0 c -4.24,1.981 -9.93,3.707 -17.06,5.403 -7.38,1.441 -15.33,2.265 -23.87,2.265 -13.92,0 -26.13,-2.554 -37.22,-7.379 -11.09,-4.824 -20.19,-11.953 -27.87,-20.734 -7.66,-9.109 -13.64,-19.91 -17.63,-32.152 -4.25,-12.489 -6.23,-26.133 -6.23,-41.219 0,-13.93 1.98,-27.285 5.65,-39.492 3.71,-12.239 9.11,-23.039 16.49,-32.43 7.41,-9.363 16.78,-16.492 28.15,-21.8907 11.38,-5.4023 24.74,-7.9219 40.11,-7.9219 7.38,0 14.46,0.5782 21.59,1.7305 7.09,1.3672 13.07,2.8047 17.89,4.7852 v 0" /><path
         id="path28"
         style="fill:#af201c;fill-opacity:1;fill-rule:nonzero;stroke:none"
         d="m 166.227,179.398 c -3.493,0.864 -7.129,1.332 -10.942,1.332 -25.597,0 -46.375,-20.769 -46.375,-46.367 0,-25.593 20.778,-46.363 46.375,-46.363 21.742,0 40.028,15.047 45.067,35.277 v 0 l -37.368,0.039 v 0 c -4.5,0 -11.445,-0.289 -14.254,4.172 -2.304,3.746 0.61,9.61 1.547,12.242 v 0 l 15.95,39.668 v 0" /><path
         id="path30"
         style="fill:#af201c;fill-opacity:1;fill-rule:nonzero;stroke:none"
         d="m 205.898,228.828 29.696,-90.973 77.652,78.45 -3.558,12.523 h -103.79 v 0" /><path
         id="path32"
         style="fill:#af201c;fill-opacity:1;fill-rule:nonzero;stroke:none"
         d="m 181.777,187.391 c 19.118,-9.649 32.289,-29.375 32.618,-52.129 v 0 h 10.078 l -28.332,85.972 -14.364,-33.843 v 0" /><path
         id="path34"
         style="fill:#af201c;fill-opacity:1;fill-rule:nonzero;stroke:none"
         d="m 324.625,178.07 c -17.062,-6.84 -29.195,-23.511 -29.195,-43.019 0,-25.563 20.773,-46.3362 46.367,-46.3362 25.594,0 46.367,20.7732 46.367,46.3362 0,25.558 -20.773,46.332 -46.367,46.332 -1.945,0 -3.887,-0.11 -5.762,-0.363 v 0 l 12.528,-44.383 v 0 c 0.617,-2.199 1.082,-6.375 -3.704,-7.746 -4.754,-1.368 -7.097,1.984 -7.812,4.394 v 0 l -12.422,44.785 v 0" /><path
         id="path36"
         style="fill:#af201c;fill-opacity:1;fill-rule:nonzero;stroke:none"
         d="m 177.098,175.117 -15.805,-40.066 h 40.07 v 0 c 0,17.64 -9.722,32.179 -24.265,40.066 v 0" /><path
         id="path38"
         style="fill:#af201c;fill-opacity:1;fill-rule:nonzero;stroke:none"
         d="m 729.156,167.988 29.305,95.836 H 759 l 27.578,-95.836 h -57.422 v 0" /><path
         id="path40"
         style="fill:#af201c;fill-opacity:1;fill-rule:nonzero;stroke:none"
         d="m 929.316,207.52 v 60.839 h 18.465 v 0 c 11.09,0 19.34,-2.558 24.739,-7.961 5.394,-5.398 7.953,-12.523 7.953,-21.058 v 0 0 0 c 0,-9.36 -2.844,-17.027 -8.532,-23 -5.976,-5.981 -14.511,-8.82 -25.882,-8.82 v 0 h -16.743 v 0" /><path
         id="path42"
         style="fill:#af201c;fill-opacity:1;fill-rule:nonzero;stroke:none"
         d="m 929.316,117.695 v 66.239 h 21.602 v 0 c 5.977,0 10.801,-0.864 15.047,-2.551 4.285,-1.731 7.668,-3.996 10.515,-7.129 2.551,-3.129 4.571,-6.516 5.973,-10.516 1.438,-3.992 1.981,-8.238 1.981,-13.062 v 0 0 0 c 0,-9.399 -2.809,-17.356 -8.496,-23.621 -5.688,-6.223 -14.219,-9.36 -25.883,-9.36 v 0 h -20.739 v 0" /></g></g></svg>