<?xml version="1.0" encoding="UTF-8" standalone="no"?>
<svg
   xmlns:dc="http://purl.org/dc/elements/1.1/"
   xmlns:cc="http://creativecommons.org/ns#"
   xmlns:rdf="http://www.w3.org/1999/02/22-rdf-syntax-ns#"
   xmlns:svg="http://www.w3.org/2000/svg"
   xmlns="http://www.w3.org/2000/svg"
   viewBox="0 0 113.38667 28.346666"
   height="28.346666"
   width="113.38667"
   xml:space="preserve"
   id="svg2"
   version="1.1"><metadata
     id="metadata8"><rdf:RDF><cc:Work
         rdf:about=""><dc:format>image/svg+xml</dc:format><dc:type
           rdf:resource="http://purl.org/dc/dcmitype/StillImage" /></cc:Work></rdf:RDF></metadata><defs
     id="defs6" /><g
     transform="matrix(1.3333333,0,0,-1.3333333,0,28.346667)"
     id="g10"><g
       transform="scale(0.1)"
       id="g12"><path
         id="path14"
         style="fill:#af201c;fill-opacity:1;fill-rule:nonzero;stroke:none"
         d="m 321.91,71.4648 c -2.086,-0.8281 -4.605,-1.5468 -7.558,-1.9804 -2.879,-0.5391 -5.938,-0.8281 -9.102,-0.8281 -8.641,0.1093 -15.836,2.0859 -21.418,5.8671 -5.648,3.8516 -9.891,9.0039 -12.594,15.4805 -2.773,6.375 -4.14,13.6841 -4.14,21.6051 0,8.536 1.55,15.911 4.5,22.391 2.988,6.41 7.308,11.344 12.882,14.941 5.579,3.602 12.313,5.399 20.153,5.512 3.672,0 7.023,-0.359 9.972,-1.008 3.055,-0.718 5.508,-1.441 7.305,-2.234 v 0 0 l -0.469,-12.168 v 0 0 c -1.976,1.187 -4.136,2.16 -6.73,3.059 -2.625,0.902 -5.574,1.371 -8.992,1.437 -4.504,0 -8.571,-1.078 -12.344,-3.309 -3.781,-2.16 -6.844,-5.582 -9.074,-10.191 -2.336,-4.496 -3.524,-10.332 -3.524,-17.351 0.106,-10.801 2.336,-19.0122 6.836,-24.6607 4.5,-5.582 10.614,-8.3867 18.461,-8.4609 6.297,0.0742 11.41,1.4414 15.367,4.1406 v 0 0 l 0.469,-12.2422 v 0 m 61.535,-1.8007 h -11.691 v 0 0 c -0.109,0.8984 -0.184,2.2304 -0.289,3.9609 -0.18,1.8008 -0.25,3.1328 -0.25,4.0313 v 0 0 h -0.113 v 0 0 c -3.418,-6.1211 -8.813,-9.0704 -16.082,-8.8907 -6.118,0.0742 -10.723,1.9766 -13.606,5.7578 -2.949,3.7813 -4.387,8.8946 -4.387,15.4805 v 0 0 41.2261 h 12.485 v -38.3433 0 0 c 0,-4.789 0.722,-8.2812 2.269,-10.4414 1.438,-2.1601 3.774,-3.2422 7.016,-3.2422 3.848,0.0742 6.836,1.4414 8.707,4.2149 1.984,2.6992 2.988,6.4804 2.988,11.2695 v 0 0 36.5425 h 12.492 v -49.8628 0 0 c 0,-4.1406 0.176,-8.1055 0.461,-11.7031 v 0 m 64.606,0 h -11.875 v 0 0 c 0,0.5429 -0.117,1.6953 -0.293,3.4922 -0.067,1.7265 -0.176,3.2421 -0.176,4.5 v 0 0 h -0.078 v 0 0 c -1.367,-2.5196 -3.34,-4.5704 -5.75,-6.2969 -2.52,-1.6953 -6.051,-2.5196 -10.621,-2.5938 -6.949,0.0742 -12.238,2.9492 -15.942,8.6367 -3.671,5.5821 -5.468,13.2149 -5.468,22.9337 0.066,10.371 1.976,18.187 5.754,23.586 3.781,5.398 8.886,8.027 15.476,8.101 3.852,0 7.09,-0.722 9.61,-2.16 2.519,-1.332 4.609,-3.422 6.296,-6.121 v 0 0 h 0.11 v 35.93 h 12.488 v -79.1329 0 0 c 0.109,-4.2149 0.176,-7.8125 0.469,-10.875 v 0 m -12.957,30.7809 c 0.066,6.914 -0.899,12.313 -2.883,16.207 -2.09,3.848 -5.215,5.828 -9.535,5.828 -4.426,0 -7.559,-1.875 -9.461,-5.652 -1.985,-3.781 -2.957,-9.109 -2.957,-16.129 0,-7.3826 0.902,-12.9646 2.773,-16.742 1.907,-3.7812 5.039,-5.6523 9.465,-5.6523 4.5,0 7.734,2.0547 9.715,5.9375 1.984,3.9609 2.949,9.3633 2.883,16.2028 v 0 m 58.914,19.442 c -1.153,0.258 -2.52,0.437 -3.965,0.543 -3.594,0 -6.66,-1.371 -9.18,-4.141 -2.519,-2.879 -3.769,-7.383 -3.847,-13.5 v 0 0 -33.1249 h -12.52 v 49.7539 0 0 c 0,4.145 -0.183,8.102 -0.437,11.812 v 0 0 h 11.523 v 0 0 c 0,-1.082 0.066,-2.628 0.176,-4.609 0.183,-1.875 0.254,-3.492 0.254,-4.574 v 0 0 h 0.105 v 0 0 c 1.438,3.062 3.418,5.473 6.008,7.273 2.625,1.731 6.23,2.629 10.73,2.703 0.352,-0.074 0.793,-0.074 1.153,-0.183 v 0 0 -11.953 0 m 57.394,-22.969 h -35.156 v 0 0 c 0,-6.1875 1.258,-10.8711 3.777,-14.043 2.59,-3.1289 6.731,-4.75 12.415,-4.75 3.496,0.0742 6.55,0.5391 9.003,1.6211 2.52,0.9727 4.571,2.0508 6.114,3.3125 v 0 0 l 0.613,-10.4414 v 0 0 c -2.051,-0.9688 -4.57,-1.8008 -7.559,-2.5899 -3.054,-0.7265 -6.484,-1.082 -10.254,-1.1875 -5.945,0.1055 -10.976,1.4336 -14.832,4.1368 -3.957,2.6289 -6.945,6.3007 -8.82,10.9804 -1.973,4.6797 -2.976,10.0821 -2.976,16.133 0.105,9.539 2.265,17.277 6.472,23.039 4.317,5.832 10.364,8.82 18.176,9 6.836,0.074 12.41,-2.445 16.551,-7.383 4.14,-4.965 6.301,-12.883 6.476,-23.578 v 0 0 -4.25 0 m -12.238,8.57 c 0,11.774 -3.777,17.711 -11.152,17.711 -3.602,0 -6.473,-1.508 -8.524,-4.57 -2.09,-3.168 -3.175,-7.492 -3.242,-13.141 v 0 0 h 22.918 v 0 m 56.504,44.645 c -0.898,0.355 -1.875,0.609 -2.949,0.789 -1.192,0.289 -2.09,0.363 -2.813,0.473 -4.922,-0.184 -7.371,-2.989 -7.195,-8.465 v 0 0 -11.7 h 11.16 v -9.648 h -11.16 V 69.6641 H 570.23 v 51.9179 h -10.078 v 9.648 h 10.078 v 13.032 0 0 c -0.109,4.793 1.153,8.75 3.672,11.883 2.52,3.168 6.758,4.789 12.774,4.863 1.179,0 2.625,-0.074 4.316,-0.363 1.621,-0.254 3.242,-0.54 4.676,-0.903 v 0 0 -9.609 0 m 23.75,-6.594 v 13.328 h -13.203 v -13.328 h 13.203 M 619.059,69.6641 V 131.23 H 606.578 V 69.6641 h 12.481 m 64.355,0.1797 h -12.531 v 38.3472 0 0 c 0,4.75 -0.723,8.168 -2.227,10.438 -1.551,2.156 -3.777,3.242 -7.019,3.242 -3.887,-0.113 -6.836,-1.547 -8.821,-4.25 -1.902,-2.699 -2.878,-6.484 -2.878,-11.234 v 0 0 -36.5432 h -12.52 v 49.8632 0 0 c 0,4.141 -0.188,7.992 -0.43,11.703 v 0 0 h 11.688 v 0 0 c 0.078,-0.902 0.078,-2.269 0.254,-3.965 0.187,-1.793 0.187,-3.164 0.293,-4.066 v 0 0 h 0.07 v 0 0 c 3.418,6.051 8.816,9.004 16.121,8.934 6.113,-0.11 10.684,-2.094 13.566,-5.766 2.989,-3.777 4.434,-8.996 4.434,-15.481 v 0 0 -41.2222 0 M 14.2852,198.375 V 14.1133 H 722.816 l 84.747,92.1677 -84.747,92.094 H 14.2852 M 181.098,107.426 c 2.164,-0.606 3.246,-1.926 3.246,-3.973 0,-1.148 -0.274,-2.422 -0.813,-3.8241 v 0 l -0.008,-0.0156 -0.003,-0.0078 v 0 c -0.786,-2.1055 -2.672,-4.2071 -5.645,-6.3125 -2.973,-2.1016 -5.605,-3.1875 -7.906,-3.2657 -6.176,0.0821 -11.895,0.125 -17.156,0.125 -3.247,0 -7.653,-0.0234 -13.223,-0.0703 -5.883,-0.0468 -10.637,-0.0703 -14.258,-0.0703 -1.723,0 -3.473,0.0039 -5.242,0.0156 -9.262,0.0547 -15.641,0.8321 -19.145,2.336 -1.57,0.6758 -2.695,1.5234 -3.363,2.5547 -0.6523,1 -0.9843,2.3398 -0.9843,4 0,2.383 0.6914,5.715 2.082,10 v 0 0.008 l 0.0078,0.012 v 0 c 0.5664,1.8 2.0975,4.304 4.5825,7.507 3.007,3.875 5.183,7.266 6.527,10.192 2.281,4.972 3.668,10.879 4.156,17.726 v 0 0.016 0 0 c 0.164,1.73 0.758,4.078 1.785,7.051 0.61,1.769 1.242,3.172 1.899,4.199 0.547,0.859 0.976,1.328 1.289,1.414 0.047,-0.012 0.121,-0.051 0.215,-0.109 2.164,-1.364 4.652,-2.039 7.468,-2.039 2.438,0 6.114,0.73 11.043,2.207 4.563,1.367 7.864,2.05 9.911,2.05 1.925,0 3.628,-0.441 5.117,-1.316 -2.973,-7.832 -6.16,-16.242 -9.555,-25.227 -0.5,-1.324 -0.746,-2.629 -0.746,-3.914 0,-5.281 4.152,-9.754 12.469,-13.422 4.328,-1.902 11.32,-4.07 20.98,-6.492 2.473,-0.621 4.231,-1.07 5.27,-1.355 v 0 m 1.379,4.937 c -0.868,0.242 -2.664,0.7 -5.391,1.383 -9.387,2.356 -16.106,4.422 -20.164,6.215 -6.289,2.769 -9.434,5.691 -9.434,8.75 0,0.664 0.145,1.367 0.422,2.105 3.438,9.098 6.621,17.504 9.555,25.219 v 0 l 1.535,4.035 -3.719,2.18 v 0 c -2.289,1.344 -4.855,2.02 -7.699,2.02 -2.543,0 -6.336,-0.754 -11.375,-2.262 -4.449,-1.332 -7.644,-1.996 -9.578,-1.996 -1.84,0 -3.422,0.418 -4.758,1.258 -0.566,0.363 -1.152,0.609 -1.75,0.753 v 0 l -1.238,0.293 -1.231,-0.324 v 0 c -1.605,-0.418 -3.043,-1.621 -4.304,-3.609 -0.868,-1.363 -1.672,-3.125 -2.414,-5.266 -1.164,-3.367 -1.844,-6.113 -2.043,-8.25 v 0 l -0.008,-0.121 v -0.051 0 c -0.449,-6.207 -1.688,-11.511 -3.707,-15.91 -1.184,-2.57 -3.149,-5.629 -5.9143,-9.191 -2.8594,-3.68 -4.6679,-6.711 -5.4179,-9.094 -1.5547,-4.793 -2.3321,-8.645 -2.3321,-11.5703 0,-2.6758 0.6055,-4.9336 1.8125,-6.7852 1.2344,-1.8906 3.1094,-3.375 5.6289,-4.457 4.1409,-1.7734 11.1839,-2.6914 21.1209,-2.75 1.219,-0.0117 2.977,-0.0156 5.274,-0.0156 3.636,0 8.402,0.0234 14.3,0.0742 5.551,0.043 9.946,0.0703 13.18,0.0703 5.242,0 10.938,-0.0469 17.09,-0.1289 v 0 h 0.121 0.121 v 0 c 3.317,0.1172 6.875,1.5195 10.676,4.2031 3.82,2.7071 6.316,5.5977 7.473,8.6719 0.769,1.9922 1.156,3.8785 1.156,5.6565 0,4.636 -2.332,7.601 -6.988,8.894 v 0 M 86.4219,74.2969 c 5.0859,0 9.2109,-4.125 9.2109,-9.2149 0,-5.0898 -4.125,-9.2109 -9.2109,-9.2109 -5.0899,0 -9.2149,4.1211 -9.2149,9.2109 0,5.0899 4.125,9.2149 9.2149,9.2149 v 0 m -0.0078,5.0312 c 7.8632,0 14.2339,-6.3789 14.2339,-14.2383 0,-7.8671 -6.3707,-14.2382 -14.2339,-14.2382 -7.8594,0 -14.2305,6.3711 -14.2305,14.2382 0,7.8594 6.3711,14.2383 14.2305,14.2383 v 0 m 33.8949,-5.0312 c 5.086,0 9.211,-4.125 9.211,-9.2149 0,-5.0898 -4.125,-9.2109 -9.211,-9.2109 -5.09,0 -9.211,4.1211 -9.211,9.2109 0,5.0899 4.121,9.2149 9.211,9.2149 v 0 m -0.008,5.0312 c 7.863,0 14.234,-6.3789 14.234,-14.2383 0,-7.8671 -6.371,-14.2382 -14.234,-14.2382 -7.86,0 -14.231,6.3711 -14.231,14.2382 0,7.8594 6.371,14.2383 14.231,14.2383 v 0 m 33.953,-5.0312 c 5.086,0 9.211,-4.125 9.211,-9.2149 0,-5.0898 -4.125,-9.2109 -9.211,-9.2109 -5.09,0 -9.215,4.1211 -9.215,9.2109 0,5.0899 4.125,9.2149 9.215,9.2149 v 0 m -0.008,5.0312 c 7.863,0 14.234,-6.3789 14.234,-14.2383 0,-7.8671 -6.371,-14.2382 -14.234,-14.2382 -7.859,0 -14.23,6.3711 -14.23,14.2382 0,7.8594 6.371,14.2383 14.23,14.2383 v 0 m 33.953,-5.0312 c 5.086,0 9.211,-4.125 9.211,-9.2149 0,-5.0898 -4.125,-9.2109 -9.211,-9.2109 -5.09,0 -9.215,4.1211 -9.215,9.2109 0,5.0899 4.125,9.2149 9.215,9.2149 v 0 m -0.008,5.0312 c 7.864,0 14.235,-6.3789 14.235,-14.2383 0,-7.8671 -6.371,-14.2382 -14.235,-14.2382 -7.859,0 -14.23,6.3711 -14.23,14.2382 0,7.8594 6.371,14.2383 14.23,14.2383 v 0" /><path
         id="path16"
         style="fill:#231f20;fill-opacity:1;fill-rule:nonzero;stroke:none"
         d="M 0,212.598 H 722.711 L 850.395,106.281 722.711,0 H 0 v 212.598 m 1.41406,-1.422 V 1.41797 H 722.191 L 848.18,106.281 722.191,211.176 H 1.41406" /></g></g></svg>