<?xml version="1.0" encoding="UTF-8" standalone="no"?>
<svg
   xmlns:dc="http://purl.org/dc/elements/1.1/"
   xmlns:cc="http://creativecommons.org/ns#"
   xmlns:rdf="http://www.w3.org/1999/02/22-rdf-syntax-ns#"
   xmlns:svg="http://www.w3.org/2000/svg"
   xmlns="http://www.w3.org/2000/svg"
   viewBox="0 0 128.50667 85.040001"
   height="85.040001"
   width="128.50667"
   xml:space="preserve"
   id="svg2"
   version="1.1"><metadata
     id="metadata8"><rdf:RDF><cc:Work
         rdf:about=""><dc:format>image/svg+xml</dc:format><dc:type
           rdf:resource="http://purl.org/dc/dcmitype/StillImage" /></cc:Work></rdf:RDF></metadata><defs
     id="defs6" /><g
     transform="matrix(1.3333333,0,0,-1.3333333,0,85.04)"
     id="g10"><g
       transform="scale(0.1)"
       id="g12"><path
         id="path14"
         style="fill:#231f20;fill-opacity:1;fill-rule:nonzero;stroke:none"
         d="M 0,0 V 637.797 H 963.781 V 0 H 0 M 1.44531,636.387 V 1.41016 H 962.363 V 636.387 H 1.44531" /><path
         id="path16"
         style="fill:#af201c;fill-opacity:1;fill-rule:nonzero;stroke:none"
         d="M 14.1328,207.902 H 949.727 V 14.0664 H 14.1328 V 207.902 m 0,415.828 V 430.004 H 949.727 V 623.73 H 14.1328 m 0,-207.968 V 221.93 H 949.727 V 415.762 H 14.1328 m 304.2692,75.273 v 0 42.953 h -25.636 v -10.379 h 13.445 v -24.339 0 0 c -1.254,-0.645 -2.797,-1.071 -4.481,-1.434 -1.726,-0.356 -3.515,-0.535 -5.203,-0.535 -8.535,0.179 -14.882,3.113 -19.109,9.129 -4.309,5.906 -6.348,13.851 -6.348,24.054 0.067,9.489 2.508,17 7.168,22.547 4.66,5.481 10.762,8.239 18.364,8.348 3.511,0 6.918,-0.473 10.148,-1.363 3.301,-0.969 6.348,-2.223 9.219,-3.762 v 0 0 l 0.355,12.101 v 0 0 c -2.328,1.075 -5.094,1.965 -8.5,2.579 -3.406,0.711 -7.277,1.074 -11.476,1.074 -8.067,-0.074 -15.059,-1.86 -20.903,-5.445 -5.742,-3.504 -10.226,-8.516 -13.34,-14.852 -3.16,-6.375 -4.664,-13.781 -4.664,-22.301 0,-7.945 1.329,-15.109 4.301,-21.547 2.871,-6.445 7.176,-11.562 12.985,-15.324 5.843,-3.828 13.195,-5.726 21.984,-5.797 4.656,0 8.855,0.43 12.547,1.324 3.765,0.895 6.816,1.895 9.144,2.969 m 63.832,23.805 v 0 4.187 0 0 c -0.179,10.668 -2.332,18.434 -6.453,23.45 -4.125,4.937 -9.683,7.339 -16.5,7.339 -7.816,-0.183 -13.801,-3.117 -18.109,-8.953 -4.231,-5.8 -6.383,-13.422 -6.453,-22.91 0,-6.082 0.969,-11.348 2.941,-16 1.903,-4.652 4.84,-8.34 8.785,-11.023 3.871,-2.575 8.891,-4.012 14.809,-4.012 3.766,0 7.176,0.43 10.223,1.148 2.937,0.711 5.453,1.614 7.531,2.504 v 0 0 l -0.649,10.383 v 0 0 c -1.504,-1.148 -3.586,-2.223 -6.093,-3.293 -2.403,-1.004 -5.45,-1.543 -8.965,-1.543 -5.629,0 -9.754,1.543 -12.371,4.762 -2.512,3.113 -3.766,7.769 -3.766,13.961 v 0 0 h 35.07 m -12.191,8.484 c 0,11.739 -3.77,17.539 -11.117,17.649 -3.59,0 -6.453,-1.614 -8.535,-4.653 -2.047,-3.043 -3.121,-7.34 -3.227,-12.996 v 0 0 h 22.879 v 0 m 72.258,-35.437 v 0 40.914 0 0 c 0.074,6.515 -1.438,11.633 -4.301,15.394 -2.98,3.754 -7.461,5.621 -13.629,5.727 -7.281,0.176 -12.551,-2.793 -15.957,-8.77 v 0 0 h -0.18 v 0 0 c 0,0.895 -0.109,2.215 -0.183,3.938 -0.176,1.785 -0.281,3.113 -0.281,4.008 v 0 0 h -11.731 v 0 0 c 0.25,-3.653 0.43,-7.59 0.539,-11.703 v 0 0 -49.508 h 12.371 v 36.258 0 0 c 0,4.726 0.969,8.488 2.942,11.281 1.972,2.679 4.949,4.117 8.785,4.117 3.156,0.066 5.488,-1.008 6.996,-3.223 1.539,-2.148 2.254,-5.656 2.254,-10.382 v 0 0 -38.051 h 12.375 m 44.824,68.476 -7.711,17.364 h -12.91 l 12.191,-17.364 h 8.43 m 17.391,-41.633 v 0 4.227 0 0 c -0.18,10.633 -2.254,18.438 -6.453,23.445 -4.122,4.903 -9.684,7.34 -16.497,7.34 -7.816,-0.179 -13.808,-3.148 -18.109,-8.949 -4.227,-5.73 -6.383,-13.426 -6.453,-22.91 0,-6.086 0.965,-11.383 2.937,-16.035 1.907,-4.657 4.844,-8.301 8.789,-10.989 3.872,-2.613 8.891,-4.046 14.809,-4.046 3.84,0 7.176,0.468 10.223,1.179 3.047,0.719 5.449,1.613 7.527,2.508 v 0 0 l -0.644,10.379 v 0 0 c -1.508,-1.184 -3.582,-2.254 -6.098,-3.324 -2.402,-0.969 -5.449,-1.504 -8.965,-1.504 -5.629,0 -9.75,1.504 -12.367,4.722 -2.512,3.153 -3.766,7.801 -3.766,13.957 v 0 0 h 35.067 m -12.192,8.524 c 0,11.703 -3.765,17.539 -11.117,17.609 -3.586,0 -6.449,-1.609 -8.531,-4.652 -2.047,-3.043 -3.121,-7.34 -3.227,-12.957 v 0 0 h 22.875 v 0 m 72.512,25.594 h -12.441 l -13.094,-49.153 h -0.285 l -12.911,49.153 h -13.16 l 18.649,-61.211 h 14.699 l 18.543,61.211 m 56.297,-34.008 v 0 4.187 0 0 c -0.067,10.668 -2.223,18.434 -6.348,23.45 -4.226,4.937 -9.683,7.339 -16.601,7.339 -7.711,-0.183 -13.696,-3.117 -18.004,-8.953 -4.227,-5.8 -6.379,-13.422 -6.453,-22.91 0,-6.082 0.972,-11.348 2.871,-16 1.972,-4.652 4.84,-8.34 8.785,-11.023 3.945,-2.575 8.855,-4.012 14.883,-4.012 3.761,0 7.172,0.43 10.218,1.148 2.938,0.711 5.454,1.614 7.422,2.504 v 0 0 l -0.539,10.383 v 0 0 c -1.609,-1.148 -3.582,-2.223 -6.094,-3.293 -2.507,-1.004 -5.453,-1.543 -8.964,-1.543 -5.629,0 -9.754,1.543 -12.371,4.762 -2.583,3.113 -3.84,7.769 -3.766,13.961 v 0 0 h 34.961 m -12.192,8.484 c 0,11.739 -3.656,17.539 -11.113,17.649 -3.59,0 -6.348,-1.614 -8.43,-4.653 -2.043,-3.043 -3.117,-7.34 -3.226,-12.996 v 0 0 h 22.769 v 0 M 317.934,283.43 v 83.222 h -11.903 v -65.867 h -0.109 l -29.047,65.867 H 260.563 V 283.43 h 12.011 v 65.215 h 0.106 l 29.05,-65.215 h 16.204 m 63.296,61.203 v 0 h -12.191 l -12.191,-48.145 h -0.254 l -13.02,48.145 h -12.906 l 19.832,-61.922 -1.793,-7.34 v 0 0 c -0.719,-3.148 -1.723,-5.297 -2.871,-6.547 -1.184,-1.254 -2.691,-1.859 -4.484,-1.793 -2.258,0.11 -4.122,0.465 -5.664,1.184 v 0 0 l -0.61,-10.133 v 0 0 c 2.152,-0.715 4.914,-1.07 8.141,-1.144 4.41,0 7.816,1.144 10.398,3.652 2.617,2.433 4.485,6.012 5.848,10.738 v 0 0 l 21.765,73.305 m 60.172,-30.531 v 0 c -0.109,7.339 -1.254,13.246 -3.586,17.902 -2.257,4.652 -5.304,8.051 -9.25,10.199 -3.839,2.149 -8.25,3.223 -12.98,3.223 -4.844,0 -9.254,-1.074 -13.09,-3.223 -3.945,-2.148 -6.992,-5.547 -9.254,-10.199 -2.328,-4.656 -3.476,-10.563 -3.476,-17.902 0,-7.516 1.148,-13.497 3.476,-18.149 2.262,-4.652 5.309,-8.051 9.254,-10.199 3.836,-2.149 8.246,-3.227 13.09,-3.152 4.73,-0.075 9.141,1.003 12.98,3.152 3.946,2.148 6.993,5.547 9.25,10.199 2.332,4.652 3.477,10.633 3.586,18.149 m -12.906,0 c 0,6.445 -0.898,11.742 -2.871,15.753 -1.973,4.114 -5.379,6.192 -10.039,6.262 -4.77,-0.07 -8.07,-2.148 -10.043,-6.262 -1.973,-4.011 -2.977,-9.308 -2.867,-15.753 -0.11,-6.512 0.894,-11.813 2.867,-15.926 1.973,-4.117 5.273,-6.16 10.043,-6.266 4.66,0.106 8.066,2.149 10.039,6.266 1.973,4.113 2.871,9.414 2.871,15.926 v 0 m 73.332,-30.497 v 0 40.985 0 0 c 0,6.445 -1.433,11.637 -4.305,15.39 -2.976,3.653 -7.527,5.622 -13.625,5.727 -7.281,0.074 -12.55,-2.859 -16.066,-8.875 v 0 0 h -0.074 v 0 0 c 0,0.895 -0.106,2.254 -0.281,4.047 -0.075,1.68 -0.18,3.043 -0.18,3.937 v 0 0 h -11.731 v 0 0 c 0.254,-3.687 0.43,-7.519 0.43,-11.632 v 0 0 -49.579 h 12.481 v 36.333 0 0 c 0,4.726 0.972,8.48 2.941,11.167 1.973,2.684 4.844,4.114 8.789,4.223 3.152,0 5.481,-1.074 6.992,-3.219 1.434,-2.254 2.149,-5.66 2.149,-10.379 v 0 0 -38.125 h 12.48 M 300.652,73.1289 v 10.5625 h -27.359 v 72.6606 h -12.91 V 73.1289 h 40.269 m 56.301,0 v 0 c -0.18,1.1484 -0.359,2.5781 -0.469,4.3711 -0.175,1.7891 -0.25,3.6836 -0.25,5.7227 v 0 0 29.1013 0 0 c 0,4.008 -0.468,7.414 -1.254,10.098 -0.898,2.687 -2.082,4.937 -3.695,6.621 -1.324,1.609 -3.402,3.043 -6.344,4.223 -2.871,1.148 -6.562,1.789 -11.226,1.863 -3.836,-0.074 -7.352,-0.539 -10.399,-1.434 -3.046,-0.965 -5.738,-2.039 -7.961,-3.293 v 0 0 l 0.969,-10.664 v 0 0 c 1.61,1.61 3.946,3.039 6.742,4.223 2.868,1.148 6.094,1.793 9.5,1.859 4.305,0 7.426,-1.14 9.399,-3.578 1.789,-2.328 2.687,-5.441 2.508,-9.199 v 0 0 -2.504 h -4.375 v 0 0 c -9.969,0 -17.5,-1.613 -22.7,-4.941 -5.199,-3.403 -7.777,-8.5902 -7.777,-15.5746 0.176,-5.7929 1.859,-10.1992 5.266,-13.2421 3.41,-3.043 7.636,-4.543 12.664,-4.543 4.48,0.0664 8.137,0.7851 10.828,2.3242 2.793,1.5039 4.945,3.4688 6.457,5.9063 v 0 0 h 0.176 v 0 0 c 0,-0.8946 0.105,-2.1485 0.179,-3.8672 0.18,-1.6133 0.356,-2.7539 0.536,-3.4727 v 0 0 h 11.226 m -12.48,24.4141 v 5.367 0 0 c -0.43,0.11 -1.075,0.11 -1.793,0.11 -0.789,0 -1.614,0 -2.328,0 -12.372,0 -18.649,-3.938 -18.829,-11.9223 0.11,-3.0391 0.895,-5.4375 2.618,-7.2305 1.613,-1.7852 4.019,-2.7891 7.246,-2.7891 4.301,0.1055 7.636,1.6094 9.859,4.5821 2.152,3.039 3.227,6.9765 3.227,11.8828 v 0 m 75.058,-24.4141 v 0 c -0.289,3.582 -0.468,7.5195 -0.468,11.6367 v 0 0 49.5744 h -12.442 v -36.3322 0 0 c 0,-4.7617 -1.004,-8.5195 -2.976,-11.207 -1.973,-2.7539 -4.844,-4.1133 -8.786,-4.1836 -3.121,0 -5.457,1.0742 -7,3.2226 -1.429,2.2188 -2.218,5.6172 -2.144,10.3829 v 0 0 38.1173 h -12.442 v -40.9845 0 0 c 0,-6.5547 1.43,-11.6367 4.301,-15.3907 2.938,-3.7617 7.422,-5.6601 13.629,-5.7265 7.238,-0.1836 12.547,2.75 16.024,8.8398 v 0 0 h 0.109 v 0 0 c 0,-0.8984 0.07,-2.2187 0.254,-4.0078 0.105,-1.7187 0.18,-3.0469 0.18,-3.9414 v 0 0 h 11.761 m 51.887,17.6133 v 0 c 0,3.5781 -1.074,6.6211 -3.117,8.9492 -2.078,2.3246 -4.949,4.5816 -8.715,6.5466 v 0 0 l -5.383,3.043 v 0 0 c -2.687,1.434 -4.73,2.762 -6.273,4.117 -1.504,1.329 -2.223,2.934 -2.328,4.907 0,2.144 0.824,3.937 2.328,5.191 1.543,1.25 3.765,1.969 6.925,1.969 5.02,-0.184 9.211,-1.074 12.547,-2.578 v 0 0 l 0.61,10.023 v 0 0 c -1.328,0.43 -3.117,0.969 -5.559,1.43 -2.512,0.539 -5.269,0.715 -8.605,0.789 -6.274,-0.18 -11.192,-1.969 -14.883,-5.371 -3.582,-3.399 -5.449,-7.41 -5.555,-12.168 0.106,-4.297 1.254,-7.59 3.403,-10.094 2.261,-2.508 5.308,-4.586 9.07,-6.371 v 0 0 l 6.457,-3.2227 v 0 0 c 2.691,-1.3242 4.555,-2.7539 5.629,-4.1914 1.078,-1.4296 1.617,-2.9687 1.543,-4.4726 0,-2.4375 -1,-4.2227 -2.867,-5.4766 -1.903,-1.25 -4.481,-1.8633 -7.817,-1.8633 -2.945,0.0743 -5.738,0.5391 -8.32,1.5039 -2.508,0.8946 -4.664,1.793 -6.453,2.793 v 0 0 l -0.719,-10.7344 v 0 0 c 1.973,-0.8984 4.375,-1.7226 7.242,-2.2578 2.871,-0.6093 6.098,-0.9648 9.613,-0.9648 6.883,0.0664 12.192,1.8594 15.778,5.1875 3.656,3.3984 5.449,7.7695 5.449,13.3164 M 529.98,73.1289 v 0 c -0.289,1.1484 -0.359,2.5781 -0.542,4.3711 -0.176,1.7891 -0.176,3.6836 -0.176,5.7227 v 0 0 29.1013 0 0 c -0.106,4.008 -0.469,7.414 -1.364,10.098 -0.789,2.687 -2.043,4.937 -3.585,6.621 -1.329,1.609 -3.477,3.043 -6.348,4.223 -2.867,1.148 -6.633,1.789 -11.223,1.863 -3.836,-0.074 -7.351,-0.539 -10.398,-1.434 -3.051,-0.965 -5.739,-2.039 -7.965,-3.293 v 0 0 l 0.898,-10.664 v 0 0 c 1.684,1.61 3.946,3.039 6.813,4.223 2.871,1.148 5.992,1.793 9.508,1.859 4.191,0 7.347,-1.14 9.394,-3.578 1.789,-2.328 2.617,-5.441 2.508,-9.199 v 0 0 -2.504 h -4.375 v 0 0 c -9.969,0 -17.574,-1.613 -22.699,-4.941 -5.199,-3.403 -7.785,-8.5902 -7.785,-15.5746 0.074,-5.7929 1.867,-10.1992 5.273,-13.2421 3.336,-3.043 7.531,-4.543 12.656,-4.543 4.485,0.0664 8.075,0.7851 10.832,2.3242 2.692,1.5039 4.844,3.4688 6.453,5.9063 v 0 0 h 0.11 v 0 0 c 0,-0.8946 0.074,-2.1485 0.254,-3.8672 0.105,-1.6133 0.281,-2.7539 0.465,-3.4727 v 0 0 H 529.98 M 517.5,97.543 v 5.367 0 0 c -0.43,0.11 -1.078,0.11 -1.863,0.11 -0.828,0 -1.543,0 -2.336,0 -12.367,0 -18.574,-3.938 -18.754,-11.9223 0,-3.0391 0.824,-5.4375 2.516,-7.2305 1.718,-1.7852 4.121,-2.7891 7.273,-2.7891 4.375,0.1055 7.711,1.6094 9.863,4.5821 2.223,3.039 3.301,6.9765 3.301,11.8828 v 0 m 74.59,-24.2305 v 0 40.9845 0 0 c 0,6.441 -1.434,11.633 -4.375,15.391 -2.871,3.652 -7.461,5.621 -13.555,5.726 -7.246,0.07 -12.625,-2.863 -16.031,-8.875 v 0 0 h -0.106 v 0 0 c 0,0.895 -0.074,2.254 -0.253,4.043 -0.11,1.684 -0.176,3.043 -0.176,3.941 v 0 0 h -11.762 v 0 0 c 0.281,-3.691 0.461,-7.519 0.461,-11.636 v 0 0 -49.5745 h 12.449 v 36.3325 0 0 c 0,4.718 1,8.48 2.973,11.168 1.973,2.683 4.844,4.113 8.789,4.222 3.113,0 5.449,-1.074 6.883,-3.222 1.539,-2.258 2.258,-5.657 2.258,-10.383 v 0 0 -38.1175 h 12.445 m 62.863,0 v 0 40.9845 0 0 c 0,6.441 -1.437,11.633 -4.305,15.391 -2.976,3.652 -7.46,5.621 -13.625,5.726 -7.281,0.07 -12.554,-2.863 -15.957,-8.875 v 0 0 h -0.183 v 0 0 c 0,0.895 -0.106,2.254 -0.18,4.043 -0.176,1.684 -0.281,3.043 -0.281,3.941 v 0 0 h -11.731 v 0 0 c 0.25,-3.691 0.43,-7.519 0.539,-11.636 v 0 0 -49.5745 h 12.372 v 36.3325 0 0 c 0,4.718 0.968,8.48 2.941,11.168 1.973,2.683 4.949,4.113 8.781,4.222 3.16,0 5.489,-1.074 7,-3.222 1.43,-2.258 2.254,-5.657 2.254,-10.383 v 0 0 -38.1175 h 12.375 m 62.215,26.9145 v 0 4.226 0 0 c -0.18,10.629 -2.328,18.508 -6.453,23.442 -4.121,4.91 -9.684,7.414 -16.496,7.339 -7.817,-0.179 -13.809,-3.148 -18.11,-8.949 -4.234,-5.726 -6.382,-13.422 -6.457,-22.906 0,-6.0157 0.969,-11.3868 2.871,-16.0352 1.973,-4.6563 4.915,-8.3047 8.86,-10.918 3.871,-2.6875 8.89,-4.0117 14.808,-4.1211 3.766,0.1094 7.172,0.4687 10.219,1.1836 2.942,0.789 5.449,1.6094 7.531,2.5781 v 0 0 l -0.644,10.3789 v 0 0 c -1.504,-1.25 -3.59,-2.3242 -6.098,-3.293 -2.402,-1.0039 -5.449,-1.539 -8.965,-1.6093 -5.632,0 -9.754,1.6093 -12.371,4.7265 -2.508,3.1485 -3.836,7.8008 -3.769,13.9575 v 0 0 h 35.074 m -12.191,8.519 c 0,11.703 -3.766,17.613 -11.118,17.613 -3.586,0 -6.453,-1.504 -8.535,-4.546 -2.043,-3.149 -3.117,-7.45 -3.23,-13.067 v 0 0 h 22.883 v 0 M 79.4141,120.18 c -1.9766,0.484 -4.0703,0.742 -6.2266,0.742 -14.5391,0 -26.3594,-11.797 -26.3594,-26.3126 0,-14.5196 11.8203,-26.3164 26.3594,-26.3164 12.3711,0 22.7813,8.5312 25.6211,20.0117 v 0 l -21.2305,0.0312 v 0 c -2.5781,0 -6.5078,-0.1718 -8.1133,2.3477 -1.3242,2.1484 0.3399,5.4687 0.8868,6.9883 v 0 l 9.0625,22.5081 v 0 m 22.4609,28.027 16.895,-51.6289 44.179,44.5269 -2.035,7.102 h -59.039 v 0 M 88.1367,124.703 c 10.8438,-5.469 18.3323,-16.664 18.5353,-29.5819 v 0 h 5.734 L 96.2852,143.945 88.1367,124.703 v 0 m 81.3403,-5.273 c -9.727,-3.867 -16.61,-13.344 -16.61,-24.43 0,-14.5156 11.817,-26.2891 26.363,-26.2891 14.543,0 26.368,11.7735 26.368,26.2891 0,14.523 -11.825,26.289 -26.368,26.289 -1.089,0 -2.207,-0.059 -3.273,-0.199 v 0 l 7.113,-25.1994 v 0 c 0.379,-1.2343 0.637,-3.6093 -2.09,-4.3828 -2.699,-0.7734 -4.046,1.1133 -4.445,2.4922 v 0 l -7.058,25.43 v 0 m -87.5668,7.422 c -2.836,0.746 -5.8204,1.316 -8.8633,1.316 -18.5586,0 -33.6211,-15.031 -33.6211,-33.5586 0,-18.5313 15.0625,-33.5625 33.6211,-33.5625 16.4101,0 30.1211,11.7695 33.0471,27.3164 v 0 l 7.316,0.0312 v 0 c 1.781,0 3.988,0 5.735,0.7188 1.867,0.5976 3.445,1.9414 4.82,3.289 v 0 l 41.34,41.2927 2.324,-7.355 v 0 c -12.766,-4.817 -22.145,-16.895 -22.145,-31.3283 0,-18.5312 15.086,-33.6211 33.649,-33.6211 18.594,0 33.68,15.0899 33.68,33.6211 0,18.5233 -15.086,33.5863 -33.68,33.5863 -1.836,0 -3.496,-0.231 -5.281,-0.516 v 0 l -10.125,35.484 v 0 c -0.688,2.372 -1.633,5.266 -3.329,6.957 -1.949,2 -5.191,3.262 -8.976,3.262 v 0 h -12.395 v -6.558 h 9.93 v 0 c 1.945,0 4.414,0 5.734,-1.082 1.321,-1.18 1.75,-2.668 2.266,-4.442 v 0 l 2.207,-7.191 H 99.7578 l -2.0976,6.101 9.4098,2.262 v 4.352 H 85.957 v -6.614 h 5.0782 l 2.207,-6.101 -11.332,-27.66 v 0 m 3.6796,-9.004 -8.9492,-22.7386 H 99.418 v 0 c 0,10.0236 -5.5352,18.2696 -13.8282,22.7386 v 0 M 859.277,588.332 v 0 c -2.148,4.902 -1.504,13.672 -9.746,15.457 -2.148,0.469 -7.351,-0.176 -9.609,-5.078 -0.254,-0.543 -2.051,-4.832 -2.051,-4.832 v 0 0 l 21.406,-5.547 m -5.449,-2.258 v 0 1.184 l -16.426,4.543 v 0 0 c -0.429,-1.973 -1.074,-3.758 -1.074,-5.551 -0.066,-4.293 1.797,-9.305 6.992,-9.305 3.77,0 10.508,3.758 10.508,9.129 m 39.883,-20.476 v 0 c 0,3.652 -18.289,21.191 -22.422,19.578 -1.426,-0.535 -2.578,-0.535 -3.476,-1.785 -0.997,-1.614 3.125,-3.403 4.921,-5.621 3.946,-5.118 6.446,-9.415 8.711,-13.961 0.539,-1 2.578,-7.985 5.559,-7.985 3.66,0 6.707,8.414 6.707,9.774 m -19.473,-71.407 v 0 l 3.438,-19.257 v 0 0 c 0.363,-2.512 -1.18,-3.762 -4.043,-3.118 -4.344,1.399 -11.406,3.614 -18.516,5.797 -0.097,-0.754 -0.137,-1.539 -0.137,-2.324 0,-10.453 8.536,-18.969 18.938,-18.969 10.469,0 19.004,8.516 19.004,18.969 0,10.274 -8.352,18.719 -18.684,18.902 m -59.672,25.625 v 0 l 5.981,6.661 v 0 0 c 2.519,-9.844 11.308,-41.594 11.308,-41.594 0,0 7.239,-2.254 16.028,-4.977 -0.285,-1.543 -0.442,-3.082 -0.442,-4.691 0,-14.606 11.836,-26.414 26.477,-26.414 14.598,0 26.531,11.808 26.531,26.414 0,14.57 -11.933,26.488 -26.531,26.488 -0.363,0 -0.684,0 -1.047,-0.031 v 0 l -2.187,12.207 v 0 0 c 7.539,7.762 17.578,16.894 17.031,22.547 -1.074,10.558 -14.266,44.097 -25.742,45.707 -1.621,0 -1.68,0.183 -2.149,0.183 -6.172,0 -29.226,-16.894 -43.285,-26.027 -4.484,1.254 -9.074,-4.578 -5.559,-8.875 1.969,-2.508 4.84,-2.574 6.887,-1.508 1.606,0.719 2.68,2.223 2.973,3.836 2.512,-2.222 6.887,-6.445 6.887,-6.445 -5.735,-6.442 -10.579,-11.879 -14.704,-16.465 -0.57,-0.605 -1.437,-1.613 -2.543,-2.828 -4.589,3.723 -10.441,5.976 -16.824,5.976 -14.593,0 -26.429,-11.812 -26.429,-26.414 0,-14.566 11.836,-26.382 26.429,-26.382 14.637,0 26.539,11.816 26.539,26.382 0,6.122 -2.113,11.778 -5.629,16.25 m 10.825,32.719 10.586,-8.879 -6.348,-7.156 13.086,-4.906 0.605,5.547 v 0 0 c 6.926,1.433 20.801,4.906 20.801,4.906 0,0 -9.394,17.183 -13.445,24.34 v 0 0 l -25.285,-13.852 v 0 m 26.894,-24.449 10.508,-4.008 3.848,5.902 -14.356,-1.894 m -3.828,-25.664 10.938,16.535 -8.25,3.223 -2.688,-19.758 m 19.824,-9.09 v 0 c -5.058,-1.578 -9.218,-5.266 -11.472,-9.953 v 0 l 14.129,-4.512 -2.657,14.465 m -18.679,-7.664 v 0 c 3.152,7.301 9.5,12.957 17.312,15.105 v 0 l -1.426,7.735 v 0 0 c -8.25,-8.703 -16.133,-18.008 -20.437,-18.438 -4.309,-0.465 -6.106,2.864 -6.106,5.442 0,3.152 1.075,10.308 1.075,12.277 0,0 1.152,10.809 2.05,17.719 v 0 0 l -16.855,6.34 11.113,-41.953 13.274,-4.227 m -40.164,28.457 -10.829,-12.062 v 0 0 c -3.05,-0.895 -3.589,-1.075 -4.054,-1.184 -1.328,-0.535 -3.301,0.359 -3.586,1.793 -0.539,2.859 1.543,3.687 4.304,4.473 3.336,3.687 6.993,7.769 10.149,11.273 -3.231,2.543 -7.317,4.047 -11.766,4.047 -10.398,0 -18.894,-8.41 -18.894,-18.899 0,-10.453 8.496,-18.972 18.894,-18.972 10.508,0 19.012,8.519 19.012,18.972 0,3.899 -1.188,7.551 -3.23,10.559 v 0 M 791.5,313.738 c -2.16,-0.597 -3.238,-1.918 -3.238,-3.949 0,-1.141 0.273,-2.406 0.812,-3.801 v 0 l 0.004,-0.011 0.004,-0.016 v 0 c 0.785,-2.09 2.66,-4.18 5.629,-6.273 2.961,-2.086 5.586,-3.168 7.879,-3.25 6.152,0.085 11.848,0.125 17.098,0.125 3.234,0 7.617,-0.02 13.175,-0.071 5.86,-0.043 10.594,-0.066 14.207,-0.066 1.719,0 3.457,0.004 5.215,0.012 9.238,0.054 15.586,0.832 19.082,2.324 1.563,0.672 2.688,1.515 3.352,2.543 0.652,0.996 0.984,2.32 0.984,3.972 0,2.371 -0.703,5.684 -2.078,9.942 v 0 0.011 l -0.012,0.008 v 0 c -0.566,1.793 -2.09,4.285 -4.57,7.473 -2.988,3.844 -5.156,7.223 -6.492,10.125 -2.278,4.945 -3.664,10.82 -4.153,17.629 v 0 0.015 0 0 c -0.156,1.715 -0.742,4.055 -1.777,7.008 -0.605,1.762 -1.23,3.153 -1.883,4.176 -0.547,0.856 -0.968,1.324 -1.289,1.402 -0.051,-0.007 -0.117,-0.043 -0.207,-0.101 -2.168,-1.36 -4.648,-2.035 -7.449,-2.035 -2.434,0 -6.094,0.73 -11.008,2.195 -4.539,1.363 -7.832,2.043 -9.871,2.043 -1.914,0 -3.613,-0.441 -5.098,-1.309 2.957,-7.785 6.141,-16.148 9.52,-25.086 0.5,-1.312 0.742,-2.609 0.742,-3.886 0,-5.254 -4.14,-9.699 -12.426,-13.344 -4.308,-1.895 -11.273,-4.047 -20.902,-6.453 -2.469,-0.617 -4.215,-1.067 -5.25,-1.352 v 0 m -1.371,4.91 v 0 c -4.641,-1.285 -6.965,-4.23 -6.965,-8.843 0,-1.766 0.383,-3.641 1.149,-5.621 1.152,-3.059 3.636,-5.93 7.449,-8.621 3.785,-2.672 7.332,-4.063 10.636,-4.18 v 0 l 0.122,-0.004 0.121,0.004 v 0 c 6.129,0.082 11.804,0.121 17.027,0.121 3.223,0 7.598,-0.02 13.137,-0.063 5.867,-0.05 10.625,-0.074 14.246,-0.074 2.285,0 4.043,0.004 5.254,0.012 9.902,0.059 16.914,0.969 21.047,2.738 2.507,1.074 4.382,2.547 5.613,4.43 1.191,1.84 1.797,4.09 1.797,6.746 0,2.906 -0.77,6.738 -2.313,11.5 -0.754,2.367 -2.551,5.387 -5.402,9.047 -2.754,3.535 -4.727,6.582 -5.899,9.133 -2.011,4.375 -3.242,9.644 -3.691,15.82 v 0 0.051 l -0.008,0.125 v 0 c -0.207,2.117 -0.871,4.851 -2.031,8.195 -0.742,2.137 -1.543,3.879 -2.414,5.234 -1.25,1.981 -2.676,3.176 -4.277,3.594 v 0 l -1.231,0.321 -1.23,-0.293 v 0 c -0.606,-0.137 -1.18,-0.387 -1.758,-0.75 -1.328,-0.832 -2.91,-1.25 -4.735,-1.25 -1.925,0 -5.109,0.66 -9.543,1.984 -5.019,1.5 -8.796,2.25 -11.328,2.25 -2.839,0 -5.398,-0.668 -7.679,-2.008 v 0 l -3.703,-2.168 1.531,-4.008 v 0 c 2.918,-7.675 6.094,-16.035 9.519,-25.074 0.274,-0.734 0.41,-1.433 0.41,-2.094 0,-3.047 -3.125,-5.945 -9.394,-8.703 -4.043,-1.773 -10.738,-3.836 -20.094,-6.176 -2.715,-0.675 -4.504,-1.136 -5.363,-1.375 m 95.711,-37.843 c -5.067,0 -9.18,-4.106 -9.18,-9.164 0,-5.059 4.113,-9.164 9.18,-9.164 5.078,0 9.18,4.105 9.18,9.164 0,5.058 -4.102,9.164 -9.18,9.164 v 0 m 0,4.996 c -7.832,0 -14.18,-6.336 -14.18,-14.156 0,-7.817 6.348,-14.157 14.18,-14.157 7.832,0 14.191,6.34 14.191,14.157 0,7.82 -6.359,14.156 -14.191,14.156 v 0 m -33.77,-4.996 c -5.066,0 -9.179,-4.106 -9.179,-9.164 0,-5.059 4.113,-9.164 9.179,-9.164 5.078,0 9.18,4.105 9.18,9.164 0,5.058 -4.102,9.164 -9.18,9.164 v 0 m 0,4.996 c -7.832,0 -14.179,-6.336 -14.179,-14.156 0,-7.817 6.347,-14.157 14.179,-14.157 7.844,0 14.192,6.34 14.192,14.157 0,7.82 -6.348,14.156 -14.192,14.156 v 0 m -33.824,-4.996 c -5.066,0 -9.18,-4.106 -9.18,-9.164 0,-5.059 4.114,-9.164 9.18,-9.164 5.074,0 9.176,4.105 9.176,9.164 0,5.058 -4.102,9.164 -9.176,9.164 v 0 m 0.008,4.996 c -7.832,0 -14.188,-6.336 -14.188,-14.156 0,-7.817 6.356,-14.157 14.188,-14.157 7.832,0 14.187,6.34 14.187,14.157 0,7.82 -6.355,14.156 -14.187,14.156 v 0 m -33.828,-4.996 c -5.074,0 -9.18,-4.106 -9.18,-9.164 0,-5.059 4.106,-9.164 9.18,-9.164 5.066,0 9.179,4.105 9.179,9.164 0,5.058 -4.113,9.164 -9.179,9.164 v 0 m 0.004,4.996 c -7.832,0 -14.184,-6.336 -14.184,-14.156 0,-7.817 6.352,-14.157 14.184,-14.157 7.832,0 14.179,6.34 14.179,14.157 0,7.82 -6.347,14.156 -14.179,14.156 v 0 m -605.16,11.156 v 37.809 l -73.211,-5.039 11.011,43.984 v 0 c 0.114,0.387 0.16,0.801 0.16,1.23 0,2.786 -2.257,5.039 -5.046,5.039 -1.25,0 -2.403,-0.464 -3.286,-1.214 v 0 L 39.8594,319.691 v 0 c -1.0742,-0.925 -1.7617,-2.304 -1.7617,-3.824 0,-1.535 0.6875,-2.906 1.7617,-3.836 v 0 l 69.0386,-59.078 v 0 c 0.883,-0.75 2.036,-1.215 3.286,-1.215 2.789,0 5.046,2.254 5.046,5.039 0,0.418 -0.062,0.852 -0.16,1.235 v 0 l -11.011,43.984 73.211,-5.039 v 0 M 783.402,88.5938 v 0 l 73.2,5.039 -11.004,-43.9844 v 0 C 845.5,49.2695 845.43,48.832 845.43,48.418 c 0,-2.7813 2.265,-5.0391 5.058,-5.0391 1.25,0 2.403,0.4649 3.282,1.2149 v 0 l 69.043,59.0742 v 0 c 1.074,0.926 1.757,2.305 1.757,3.836 0,1.523 -0.683,2.898 -1.757,3.824 v 0 l -69.043,59.078 v 0 c -0.879,0.75 -2.032,1.215 -3.282,1.215 -2.793,0 -5.058,-2.258 -5.058,-5.039 0,-0.434 0.058,-0.848 0.168,-1.234 v 0 l 11.004,-43.985 -73.2,5.039 V 88.5938 M 103.383,463.586 h 37.879 l -5.051,73.07 44.066,-10.992 v 0 c 0.387,-0.113 0.801,-0.16 1.231,-0.16 2.793,0 5.055,2.254 5.055,5.043 0,1.246 -0.469,2.398 -1.219,3.277 v 0 l -59.18,68.914 v 0 c -0.93,1.071 -2.312,1.758 -3.836,1.758 -1.535,0 -2.914,-0.687 -3.844,-1.758 v 0 L 59.3086,533.824 v 0 c -0.7578,-0.879 -1.2227,-2.031 -1.2227,-3.277 0,-2.789 2.2618,-5.043 5.0508,-5.043 0.418,0 0.8477,0.062 1.2344,0.16 v 0 l 44.0629,10.992 -5.051,-73.07 v 0" /></g></g></svg>