<?xml version="1.0" encoding="UTF-8" standalone="no"?>
<svg
   xmlns:dc="http://purl.org/dc/elements/1.1/"
   xmlns:cc="http://creativecommons.org/ns#"
   xmlns:rdf="http://www.w3.org/1999/02/22-rdf-syntax-ns#"
   xmlns:svg="http://www.w3.org/2000/svg"
   xmlns="http://www.w3.org/2000/svg"
   viewBox="0 0 246.03999 47.626667"
   height="47.626667"
   width="246.03999"
   xml:space="preserve"
   id="svg2"
   version="1.1"><metadata
     id="metadata8"><rdf:RDF><cc:Work
         rdf:about=""><dc:format>image/svg+xml</dc:format><dc:type
           rdf:resource="http://purl.org/dc/dcmitype/StillImage" /></cc:Work></rdf:RDF></metadata><defs
     id="defs6" /><g
     transform="matrix(1.3333333,0,0,-1.3333333,0,47.626667)"
     id="g10"><g
       transform="scale(0.1)"
       id="g12"><path
         id="path14"
         style="fill:#ffffff;fill-opacity:1;fill-rule:nonzero;stroke:none"
         d="m 1532.13,1.41797 311.8,177.09003 -311.8,177.258 H 1.41797 V 1.41797 H 1532.13 v 0" /><path
         id="path16"
         style="fill:none;stroke:#231f20;stroke-width:2.83500004;stroke-linecap:butt;stroke-linejoin:round;stroke-miterlimit:4;stroke-dasharray:none;stroke-opacity:1"
         d="m 1532.13,1.41797 311.8,177.09003 -311.8,177.258 H 1.41797 V 1.41797 H 1532.13 v 0" /><path
         id="path18"
         style="fill:#af201c;fill-opacity:1;fill-rule:nonzero;stroke:none"
         d="M 1526.48,22.6953 1688.01,178.539 1526.48,334.492 H 22.6563 V 22.6953 H 1526.48" /><path
         id="path20"
         style="fill:#ffffff;fill-opacity:1;fill-rule:nonzero;stroke:none"
         d="m 192.574,282.973 c 0.614,-2.41 1.477,-5.289 2.559,-7.524 2.699,-5.219 8.207,-8.746 13.824,-9.031 6.297,-0.184 11.121,5.613 12.023,11.844 0.579,4.066 -0.144,8.926 -1.296,12.851 v 0 l -27.11,-8.14 v 0" /><path
         id="path22"
         style="fill:#ffffff;fill-opacity:1;fill-rule:nonzero;stroke:none"
         d="m 218.965,293.883 c -0.723,2.23 -1.586,4.64 -2.559,6.73 -2.156,4.539 -6.406,8.067 -11.265,8.75 -5.293,0.649 -10.731,-2.804 -12.965,-7.562 v 0 l -8.422,-18.789 35.211,10.871 v 0" /><path
         id="path24"
         style="fill:#ffffff;fill-opacity:1;fill-rule:nonzero;stroke:none"
         d="m 161.219,277.934 -30.598,-26.996 v 0 c -2.34,-2.09 -1.875,-6.196 -0.723,-9.145 1.332,-3.426 5.184,-8.176 7.918,-10.547 0.938,-0.758 2.274,-1.406 3.352,-0.973 1.512,0.536 2.773,2.7 3.492,4.176 v 0 l 3.778,8.028 v 0 c 1.949,3.925 5.687,10.222 8.14,13.968 v 0 l 9.789,13.282 v 0 c 0.793,0.722 3.637,3.062 4.43,3.886 0.574,0.649 0.969,1.586 0.754,2.45 -0.649,3.062 -7.992,3.996 -10.332,1.871 v 0" /><path
         id="path26"
         style="fill:#ffffff;fill-opacity:1;fill-rule:nonzero;stroke:none"
         d="m 142.5,222.781 c 3.168,8.969 7.484,18.145 12.203,26.496 3.274,6.016 7.309,12.348 12.133,17.61 3.277,3.597 7.738,6.875 12.562,7.59 5.508,0.867 11.915,-1.872 16.598,-4.93 v 0 l 55.473,-35.352 v 0 c 5.73,2.305 12.027,-1.621 12.457,-7.738 0.328,-5.797 -5.832,-10.871 -11.485,-9.254 -1.836,0.508 -3.418,1.586 -4.644,3.133 v 0 l -12.348,-10.297 24.696,-27.687 4.644,-5.325 v 0 c 8.391,6.946 18.254,10.403 29.16,10.192 21.637,-0.543 40.11,-17.281 42.629,-38.813 1.293,-10.765 -1.226,-20.918 -7.277,-29.843 -3.344,-4.891 -7.59,-9.11 -12.637,-12.352 -14.863,-9.4219 -35.527,-8.8868 -50.039,1.805 -14.324,10.722 -20.77,30.168 -16.02,47.265 1.622,5.692 4.356,10.985 8.067,15.586 v 0 l -10.547,12.176 -18.613,-70.629 -27.215,-8.937 v 0 c 5.687,-29.1215 -18.543,-55.2934 -48.024,-52.1606 -23.8,2.4844 -41.328,23.9766 -39.351,47.4141 0.973,11.7695 6.125,21.8515 15.086,29.6645 8.894,7.773 19.656,11.371 31.57,10.652 v 0 l 3.242,20.016 -23.578,26.82 v 0 c -2.164,2.484 -3.82,5.543 -4.25,8.82 -0.394,2.664 -0.179,5.508 0.25,8.172 1.117,6.801 2.918,13.395 5.258,19.906 v 0" /><path
         id="path28"
         style="fill:#ffffff;fill-opacity:1;fill-rule:nonzero;stroke:none"
         d="m 541.777,93.5469 h 30.668 l 15.082,49.7151 h 71.93 l 15.051,-49.7151 h 31.859 L 641.82,291.938 H 608.266 L 541.777,93.5469 v 0" /><path
         id="path30"
         style="fill:#ffffff;fill-opacity:1;fill-rule:nonzero;stroke:none"
         d="M 727.535,93.5469 H 757.09 V 306.734 h -29.555 v -213.1871 0" /><path
         id="path32"
         style="fill:#ffffff;fill-opacity:1;fill-rule:nonzero;stroke:none"
         d="m 828.301,113.992 h 0.578 v 0 c 3.703,-6.551 8.527,-11.949 14.504,-16.199 5.687,-4.2461 13.355,-6.2305 22.754,-6.2305 15.332,0 27.574,6.2305 36.644,19.0115 9.11,12.813 13.645,31.281 13.645,56.012 v 0 0 0 c 0,11.379 -1.113,21.602 -3.129,30.996 -2.274,9.074 -5.402,17.027 -9.649,23.582 -4.285,6.551 -9.683,11.375 -15.914,15.086 -6.554,3.383 -13.644,5.105 -21.886,5.105 -5.399,0 -10.262,-0.574 -14.508,-2.011 -4.25,-1.406 -7.668,-3.383 -10.801,-5.653 -3.133,-2.304 -5.687,-4.859 -7.668,-7.707 -2.266,-2.839 -4.281,-5.687 -5.687,-8.781 v 0 h -0.579 v 0 c 0,1.406 0,3.094 0,5.399 -0.289,2.273 -0.289,4.535 -0.289,6.808 -0.285,2.266 -0.285,4.281 -0.574,6.266 -0.289,1.976 -0.289,3.129 -0.289,3.668 v 0 h -27.824 v 0 c 0.254,-3.668 0.539,-7.668 0.828,-11.918 0.289,-4.281 0.289,-9.106 0.289,-13.93 v 0 -181.328 h 29.555 v 81.824 0" /><path
         id="path34"
         style="fill:#ffffff;fill-opacity:1;fill-rule:nonzero;stroke:none"
         d="m 947.926,99.1992 c 4.539,-1.9804 10.222,-3.9648 17.312,-5.3984 6.848,-1.3711 14.512,-2.2383 22.754,-2.2383 16.498,0 28.988,3.9648 37.808,12.2075 8.53,8.242 12.81,18.753 12.81,31.82 v 0 0 0 c 0,8.82 -2.59,15.914 -7.41,21.312 -5.12,5.403 -11.92,10.836 -20.74,15.661 v 0 l -12.819,7.089 v 0 c -6.512,3.711 -11.336,6.84 -15.047,9.977 -3.703,2.84 -5.403,6.801 -5.403,11.625 0,5.113 1.7,9.394 5.403,12.531 3.711,3.129 9.109,4.535 16.492,4.535 5.974,0 11.664,-0.578 16.484,-1.695 4.82,-1.441 9.36,-2.84 13.36,-4.57 v 0 l 1.44,23.906 v 0 c -3.14,1.113 -7.42,2.266 -13.11,3.672 -5.97,1.148 -12.77,1.722 -20.447,1.722 -7.415,0 -13.926,-1.144 -19.903,-3.417 -5.976,-2.262 -11.094,-5.399 -15.344,-9.106 -4.277,-3.957 -7.695,-8.535 -9.968,-13.359 -2.266,-5.114 -3.418,-10.508 -3.418,-15.907 0,-5.113 0.867,-9.687 2.304,-13.648 1.407,-3.992 3.387,-7.379 5.938,-10.512 2.558,-3.133 5.398,-5.683 9.109,-7.957 3.711,-2.551 7.668,-4.855 12.239,-7.129 v 0 l 15.339,-7.664 v 0 c 6.555,-3.136 11.091,-6.554 13.641,-9.937 2.27,-3.418 3.42,-7.129 3.42,-10.801 0,-5.688 -2.26,-9.969 -6.83,-12.816 -4.547,-3.133 -10.805,-4.532 -18.481,-4.532 -7.089,0 -13.925,1.114 -19.902,3.7 -5.977,2.273 -11.086,4.543 -15.332,6.519 v 0 l -1.699,-25.5898 v 0" /><path
         id="path36"
         style="fill:#ffffff;fill-opacity:1;fill-rule:nonzero;stroke:none"
         d="m 1098.38,158.055 h 83.26 v 9.937 c 0,12.813 -1.4,23.613 -3.96,32.977 -2.56,9.39 -6.27,17.062 -11.09,23.039 -4.83,5.976 -10.79,10.226 -17.35,13.066 -6.8,2.848 -14.22,4.281 -22.17,4.281 -9.08,0 -17.32,-1.722 -24.45,-5.394 -7.38,-3.711 -13.64,-9.109 -18.46,-15.664 -4.83,-6.801 -8.83,-14.754 -11.38,-24.156 -2.56,-9.36 -3.97,-19.618 -3.97,-30.707 0,-10.512 1.41,-20.45 3.97,-29.555 2.55,-9.106 6.26,-16.777 11.66,-23.289 5.11,-6.555 11.66,-11.664 19.62,-15.3712 7.96,-3.9258 17.31,-5.6563 27.86,-5.6563 9.07,0 17.32,0.8672 24.45,2.8125 7.09,1.9727 12.77,3.9922 17.6,5.977 v 0 l -1.41,24.726 v 0 c -3.7,-2.555 -8.52,-5.109 -14.22,-7.664 -5.97,-2.562 -13.06,-3.996 -21.6,-3.996 -13.64,0 -23.32,3.699 -29.29,11.371 -5.95,7.383 -9.07,18.473 -9.07,33.266 v 0" /><path
         id="path38"
         style="fill:#ffffff;fill-opacity:1;fill-rule:nonzero;stroke:none"
         d="m 1241,158.055 h 83.27 v 9.937 c 0,12.813 -1.4,23.613 -3.96,32.977 -2.55,9.39 -6.26,17.062 -11.09,23.039 -4.82,5.976 -10.8,10.226 -17.35,13.066 -6.81,2.848 -14.22,4.281 -22.18,4.281 -9.07,0 -17.31,-1.722 -24.44,-5.394 -7.37,-3.711 -13.64,-9.109 -18.47,-15.664 -4.82,-6.801 -8.82,-14.754 -11.37,-24.156 -2.56,-9.36 -3.96,-19.618 -3.96,-30.707 0,-10.512 1.4,-20.45 3.96,-29.555 2.55,-9.106 6.27,-16.777 11.66,-23.289 5.11,-6.555 11.66,-11.664 19.63,-15.3712 7.94,-3.9258 17.31,-5.6563 27.85,-5.6563 9.08,0 17.32,0.8672 24.45,2.8125 7.09,1.9727 12.78,3.9922 17.61,5.977 v 0 l -1.41,24.726 v 0 c -3.71,-2.555 -8.54,-5.109 -14.22,-7.664 -5.98,-2.562 -13.07,-3.996 -21.6,-3.996 -13.64,0 -23.33,3.699 -29.31,11.371 -5.93,7.383 -9.07,18.473 -9.07,33.266 v 0" /><path
         id="path40"
         style="fill:#af201c;fill-opacity:1;fill-rule:nonzero;stroke:none"
         d="m 175.184,207.52 35.355,-7.524 1.008,-9.574 22.426,8.207 -11.664,12.598 16.382,13.679 -41.582,24.625 -21.925,-42.011" /><path
         id="path42"
         style="fill:#af201c;fill-opacity:1;fill-rule:nonzero;stroke:none"
         d="m 159.598,126.914 c -14.149,0 -26.852,-9.68 -30.672,-22.969 -3.781,-13.32 1.656,-28.0778 13.574,-35.7809 10.473,-6.6993 24.262,-6.5157 34.633,0.2539 10.617,6.9414 15.91,19.582 14.039,31.602 v 0 l -29.738,-9.395 v 0 c -1.727,-0.5742 -3.637,-0.2539 -5.11,0.8672 -1.765,1.2617 -2.594,3.4219 -2.199,5.5781 v 0 l 5.473,29.8437 v 0" /><path
         id="path44"
         style="fill:#af201c;fill-opacity:1;fill-rule:nonzero;stroke:none"
         d="m 173.133,103.406 -7.235,-2.519 v 0 c -0.468,-0.106 -0.937,0 -1.222,0.39 -0.145,0.227 -0.254,0.547 -0.219,0.805 v 0 l 3.926,23.719 v 0 c 4.285,-1.043 8.281,-2.988 11.664,-5.832 3.707,-3.067 6.664,-6.981 8.461,-11.524 v 0 l -15.375,-5.039 v 0" /><path
         id="path46"
         style="fill:#af201c;fill-opacity:1;fill-rule:nonzero;stroke:none"
         d="m 194.953,174.941 -10.656,-4.105 16.773,-29.41 -6.117,33.515" /><path
         id="path48"
         style="fill:#af201c;fill-opacity:1;fill-rule:nonzero;stroke:none"
         d="m 176.016,185.668 17.281,-1.801 -13.645,-4.824 -3.636,6.625" /><path
         id="path50"
         style="fill:#af201c;fill-opacity:1;fill-rule:nonzero;stroke:none"
         d="m 272.711,167.773 c 6.551,5.368 14.223,7.778 22.605,7.063 16.778,-1.336 29.813,-16.023 29.02,-32.906 -0.758,-16.457 -14.473,-29.879 -30.922,-30.211 -16.238,-0.352 -30.281,12.031 -32.117,28.121 -0.899,8.027 1.121,15.59 5.906,22.101 v 0 l 18.684,-20.515 7.527,-2.016 v 0 c 2.699,-0.722 5.399,1.153 5.758,3.887 0.219,2.23 -1.223,4.32 -3.348,4.93 v 0 l -5.797,1.515 -17.316,18.031 v 0" /><path
         id="path52"
         style="fill:#af201c;fill-opacity:1;fill-rule:nonzero;stroke:none"
         d="m 200.246,112.734 c -2.562,6.621 -6.808,12.418 -12.277,16.954 -4.969,4.14 -10.981,7.089 -17.321,8.496 v 0 l 2.02,13.246 28.293,-28.254 v 0 c 2.199,-2.125 5.187,-3.176 8.211,-2.778 5.363,0.653 9.176,5.403 8.566,10.766 v 0 l -5.363,50.473 28.047,10.297 1.258,-1.227 -18.465,-70.379 -22.969,-7.594 v 0" /><path
         id="path54"
         style="fill:#af201c;fill-opacity:1;fill-rule:nonzero;stroke:none"
         d="m 594.914,167.992 29.301,95.832 h 0.543 l 27.57,-95.832 h -57.414 v 0" /><path
         id="path56"
         style="fill:#af201c;fill-opacity:1;fill-rule:nonzero;stroke:none"
         d="m 835.43,127.926 c -4.825,9.394 -7.129,22.172 -7.129,38.375 0,16.199 2.304,28.976 7.129,38.375 4.531,9.394 12.203,14.219 22.715,14.219 10.835,0 18.21,-4.536 22.46,-13.352 4.286,-8.824 6.266,-22.18 6.266,-39.82 v 0 0 0 c 0,-16.778 -2.266,-29.555 -6.555,-38.375 -4.535,-8.825 -11.914,-13.356 -22.425,-13.356 -10.547,0 -17.93,4.531 -22.461,13.934 v 0" /><path
         id="path58"
         style="fill:#af201c;fill-opacity:1;fill-rule:nonzero;stroke:none"
         d="m 1098.38,178.254 c 0.28,13.351 2.83,23.863 7.66,31.25 4.82,7.121 11.66,10.793 20.19,10.793 17.61,0 26.43,-13.93 26.43,-42.043 v 0 h -54.28 v 0" /><path
         id="path60"
         style="fill:#af201c;fill-opacity:1;fill-rule:nonzero;stroke:none"
         d="m 1241,178.254 c 0.29,13.351 2.84,23.863 7.67,31.25 4.82,7.121 11.67,10.793 20.2,10.793 17.6,0 26.42,-13.93 26.42,-42.043 v 0 H 1241 v 0" /></g></g></svg>