<?xml version="1.0" encoding="UTF-8" standalone="no"?>
<svg
   xmlns:dc="http://purl.org/dc/elements/1.1/"
   xmlns:cc="http://creativecommons.org/ns#"
   xmlns:rdf="http://www.w3.org/1999/02/22-rdf-syntax-ns#"
   xmlns:svg="http://www.w3.org/2000/svg"
   xmlns="http://www.w3.org/2000/svg"
   viewBox="0 0 100.53333 57.066666"
   height="57.066666"
   width="100.53333"
   xml:space="preserve"
   id="svg2"
   version="1.1"><metadata
     id="metadata8"><rdf:RDF><cc:Work
         rdf:about=""><dc:format>image/svg+xml</dc:format><dc:type
           rdf:resource="http://purl.org/dc/dcmitype/StillImage" /></cc:Work></rdf:RDF></metadata><defs
     id="defs6" /><g
     transform="matrix(1.3333333,0,0,-1.3333333,0,57.066667)"
     id="g10"><g
       transform="scale(0.1)"
       id="g12"><path
         id="path14"
         style="fill:#ffffff;fill-opacity:1;fill-rule:nonzero;stroke:none"
         d="M 1.41797,1.41797 H 497.422 L 752.59,213.953 497.422,426.574 H 1.41797 V 1.41797" /><path
         id="path16"
         style="fill:none;stroke:#231f20;stroke-width:2.83500004;stroke-linecap:butt;stroke-linejoin:round;stroke-miterlimit:4;stroke-dasharray:none;stroke-opacity:1"
         d="M 1.41797,1.41797 H 497.422 L 752.59,213.953 497.422,426.574 H 1.41797 V 1.41797" /><path
         id="path18"
         style="fill:#af201c;fill-opacity:1;fill-rule:nonzero;stroke:none"
         d="M 29.7813,29.8555 497.422,29.7852 667.492,214.027 497.422,398.277 H 29.7813 V 29.8555" /><path
         id="path20"
         style="fill:#ffffff;fill-opacity:1;fill-rule:nonzero;stroke:none"
         d="m 258.668,338.199 c 0.727,-2.906 1.781,-6.402 3.105,-9.105 3.231,-6.27 9.899,-10.563 16.696,-10.891 7.586,-0.199 13.39,6.797 14.515,14.317 0.661,4.886 -0.195,10.757 -1.582,15.507 v 0 l -32.734,-9.828 v 0" /><path
         id="path22"
         style="fill:#ffffff;fill-opacity:1;fill-rule:nonzero;stroke:none"
         d="m 290.93,351.289 c -0.86,2.703 -1.914,5.609 -3.106,8.117 -2.574,5.477 -7.722,9.77 -13.594,10.559 -6.402,0.793 -12.937,-3.363 -15.64,-9.106 v 0 l -10.16,-22.699 42.5,13.129 v 0" /><path
         id="path24"
         style="fill:#ffffff;fill-opacity:1;fill-rule:nonzero;stroke:none"
         d="m 220.879,332.148 -36.957,-32.597 v 0 c -2.836,-2.512 -2.242,-7.457 -0.856,-11.02 1.582,-4.16 6.27,-9.898 9.567,-12.742 1.121,-0.922 2.703,-1.711 4.027,-1.184 1.848,0.661 3.363,3.231 4.223,5.012 v 0 l 4.551,9.703 v 0 c 2.379,4.754 6.867,12.34 9.836,16.895 v 0 l 11.812,16.035 v 0 c 0.988,0.859 4.422,3.699 5.344,4.688 0.73,0.792 1.187,1.914 0.926,2.968 -0.793,3.699 -9.637,4.817 -12.473,2.242 v 0" /><path
         id="path26"
         style="fill:#ffffff;fill-opacity:1;fill-rule:nonzero;stroke:none"
         d="m 198.5,265.609 c 3.828,10.821 9.043,21.911 14.719,32.008 3.961,7.254 8.844,14.914 14.648,21.246 3.961,4.356 9.375,8.317 15.18,9.172 6.664,1.059 14.387,-2.246 20.058,-5.933 v 0 l 66.985,-42.704 v 0 c 6.926,2.774 14.519,-1.976 15.047,-9.367 0.394,-6.996 -7.059,-13.133 -13.856,-11.156 -2.246,0.598 -4.16,1.914 -5.613,3.766 v 0 l -14.914,-12.407 29.828,-33.457 5.609,-6.402 v 0 c 10.098,8.379 22.043,12.535 35.172,12.273 26.137,-0.66 48.442,-20.851 51.481,-46.851 1.582,-13.004 -1.457,-25.277 -8.781,-36.031 -4.024,-5.938 -9.168,-11.024 -15.243,-14.922 -17.949,-11.414 -42.898,-10.75 -60.449,2.179 -17.293,12.938 -25.078,36.43 -19.336,57.09 1.981,6.86 5.278,13.258 9.766,18.801 v 0 l -12.735,14.719 -22.507,-85.328 -32.86,-10.75 v 0 c 6.86,-35.18 -22.375,-66.7894 -58.008,-63.0277 -28.707,3.0352 -49.886,28.9727 -47.515,57.2857 1.187,14.187 7.394,26.394 18.215,35.828 10.754,9.371 23.757,13.726 38.144,12.871 v 0 l 3.891,24.148 -28.442,32.406 v 0 c -2.636,2.969 -4.621,6.664 -5.148,10.625 -0.457,3.231 -0.195,6.664 0.332,9.895 1.32,8.184 3.496,16.168 6.332,24.023 v 0" /><path
         id="path28"
         style="fill:#af201c;fill-opacity:1;fill-rule:nonzero;stroke:none"
         d="m 238.004,246.781 42.695,-9.105 1.192,-11.555 27.117,9.906 -14.121,15.243 19.801,16.5 -50.219,29.761 -26.465,-50.75" /><path
         id="path30"
         style="fill:#af201c;fill-opacity:1;fill-rule:nonzero;stroke:none"
         d="m 218.828,149.777 c -17.09,0 -32.402,-11.679 -37.019,-27.714 -4.551,-16.106 1.98,-33.9185 16.367,-43.2271 12.668,-8.0546 29.301,-7.8476 41.84,0.3321 12.8,8.3789 19.199,23.625 16.957,38.148 v 0 l -35.899,-11.359 v 0 c -2.113,-0.652 -4.422,-0.262 -6.207,1.055 -2.109,1.523 -3.097,4.16 -2.637,6.738 v 0 l 6.598,36.027 v 0" /><path
         id="path32"
         style="fill:#af201c;fill-opacity:1;fill-rule:nonzero;stroke:none"
         d="m 235.156,121.289 -8.773,-3.027 v 0 c -0.528,-0.137 -1.125,0 -1.449,0.461 -0.204,0.261 -0.332,0.652 -0.266,0.984 v 0 l 4.75,28.645 v 0 c 5.148,-1.25 9.961,-3.633 14.055,-7.063 4.488,-3.691 8.05,-8.445 10.23,-13.926 v 0 l -18.547,-6.074 v 0" /><path
         id="path34"
         style="fill:#af201c;fill-opacity:1;fill-rule:nonzero;stroke:none"
         d="m 261.43,207.828 -12.864,-4.953 20.258,-35.504 -7.394,40.457" /><path
         id="path36"
         style="fill:#af201c;fill-opacity:1;fill-rule:nonzero;stroke:none"
         d="m 238.824,220.355 20.856,-2.175 -16.5,-5.809 -4.356,7.984" /><path
         id="path38"
         style="fill:#af201c;fill-opacity:1;fill-rule:nonzero;stroke:none"
         d="m 355.469,199.207 c 7.922,6.465 17.16,9.371 27.324,8.512 20.254,-1.582 35.969,-19.336 35.039,-39.727 -0.926,-19.867 -17.488,-36.097 -37.352,-36.488 -19.597,-0.399 -36.558,14.512 -38.8,33.98 -1.059,9.704 1.383,18.809 7.125,26.664 v 0 l 22.566,-24.75 9.109,-2.441 v 0 c 3.231,-0.855 6.532,1.387 6.93,4.688 0.266,2.703 -1.453,5.214 -4.019,5.937 v 0 l -7,1.852 -20.922,21.773 v 0" /><path
         id="path40"
         style="fill:#af201c;fill-opacity:1;fill-rule:nonzero;stroke:none"
         d="m 267.832,132.168 c -3.102,7.98 -8.246,14.98 -14.848,20.457 -6.007,5.012 -13.261,8.578 -20.918,10.293 v 0 l 2.442,15.969 34.183,-34.121 v 0 c 2.637,-2.567 6.27,-3.828 9.899,-3.36 6.469,0.793 11.09,6.535 10.359,13 v 0 l -6.469,60.973 33.86,12.41 1.515,-1.453 -22.308,-85 -27.715,-9.168 v 0" /></g></g></svg>