<?xml version="1.0" encoding="UTF-8" standalone="no"?>
<svg
   xmlns:dc="http://purl.org/dc/elements/1.1/"
   xmlns:cc="http://creativecommons.org/ns#"
   xmlns:rdf="http://www.w3.org/1999/02/22-rdf-syntax-ns#"
   xmlns:svg="http://www.w3.org/2000/svg"
   xmlns="http://www.w3.org/2000/svg"
   viewBox="0 0 37.799999 56.693333"
   height="56.693333"
   width="37.799999"
   xml:space="preserve"
   id="svg2"
   version="1.1"><metadata
     id="metadata8"><rdf:RDF><cc:Work
         rdf:about=""><dc:format>image/svg+xml</dc:format><dc:type
           rdf:resource="http://purl.org/dc/dcmitype/StillImage" /></cc:Work></rdf:RDF></metadata><defs
     id="defs6" /><g
     transform="matrix(1.3333333,0,0,-1.3333333,0,56.693333)"
     id="g10"><g
       transform="scale(0.1)"
       id="g12"><path
         id="path14"
         style="fill:#231f20;fill-opacity:1;fill-rule:nonzero;stroke:none"
         d="M 0,0 V 425.195 H 283.469 V 0 H 0 M 1.44922,423.828 V 1.40625 H 282.051 V 423.828 H 1.44922" /><path
         id="path16"
         style="fill:#af201c;fill-opacity:1;fill-rule:nonzero;stroke:none"
         d="M 14.2539,410.988 H 269.25 V 14.1289 H 14.2539 V 410.988 M 190.547,319.883 v 0 l 9.101,-22.391 v 0 c 0.547,-1.512 2.215,-4.816 0.891,-6.949 -1.613,-2.512 -5.559,-2.34 -8.144,-2.34 v 0 l -21.309,-0.031 v 0 c 2.852,-11.418 13.301,-19.91 25.711,-19.91 14.601,0 26.465,11.738 26.465,26.179 0,14.446 -11.864,26.18 -26.465,26.18 -2.156,0 -4.258,-0.254 -6.25,-0.738 m -22.539,27.879 h -59.254 l -2.039,-7.063 44.34,-44.297 16.953,51.36 m 13.789,-23.379 v 0 l -8.172,19.14 -16.184,-48.566 h 5.75 v 0 c 0.207,12.844 7.727,23.984 18.606,29.426 m -81.637,-5.246 v 0 l -7.0858,-25.301 v 0 c -0.3984,-1.367 -1.75,-3.246 -4.4609,-2.481 -2.7344,0.774 -2.4766,3.137 -2.0977,4.364 v 0 l 7.1367,25.066 v 0 c -1.0625,0.141 -2.1875,0.203 -3.2812,0.203 -14.5938,0 -26.4609,-11.711 -26.4609,-26.156 0,-14.441 11.8671,-26.152 26.4609,-26.152 14.6019,0 26.4609,11.711 26.4609,26.152 0,11.027 -6.91,20.457 -16.672,24.305 m 87.887,7.383 v 0 l -11.375,27.519 2.215,6.063 h 5.097 v 6.582 h -21.191 v -4.332 l 9.441,-2.25 -2.097,-6.063 h -59.629 l 2.219,7.149 v 0 c 0.515,1.765 0.949,3.246 2.273,4.414 1.324,1.082 3.801,1.082 5.758,1.082 v 0 h 9.965 v 6.523 h -12.442 v 0 c -3.801,0 -7.054,-1.254 -9.008,-3.246 -1.699,-1.68 -2.652,-4.555 -3.339,-6.922 v 0 L 95.7656,327.746 v 0 c -1.7851,0.281 -3.4531,0.512 -5.2968,0.512 -18.6563,0 -33.7969,-14.988 -33.7969,-33.414 0,-18.434 15.1406,-33.449 33.7969,-33.449 18.6292,0 33.7732,15.015 33.7732,33.449 0,14.355 -9.418,26.375 -22.226,31.16 v 0 l 2.332,7.32 41.488,-41.074 v 0 c 1.383,-1.34 2.965,-2.68 4.84,-3.277 1.758,-0.711 3.972,-0.711 5.75,-0.711 v 0 l 7.344,-0.032 v 0 c 2.941,-15.468 16.699,-27.175 33.171,-27.175 18.625,0 33.743,14.957 33.743,33.386 0,18.434 -15.118,33.391 -33.743,33.391 -3.054,0 -6.043,-0.57 -8.894,-1.312 m -3.692,-8.961 v 0 c -8.32,-4.442 -13.886,-12.645 -13.886,-22.618 v 0 h 22.863 l -8.977,22.618" /><path
         id="path18"
         style="fill:#1a67bb;fill-opacity:1;fill-rule:nonzero;stroke:none"
         d="M 64.2773,198.516 H 221.992 V 42.4414 H 64.2773 v 156.0746 0" /><path
         id="path20"
         style="fill:#231f20;fill-opacity:1;fill-rule:nonzero;stroke:none"
         d="m 75.2539,164.512 -0.8984,3.453 v 0 0 c -0.1797,0.531 -0.3633,0.887 -0.6485,1.07 -0.1757,0.172 -0.4297,0.281 -0.7187,0.281 v 0 0 h -0.1797 v -4.804 h -3.3125 v 12.172 h 4.9336 v 0 0 c 1.2578,0 2.1562,-0.25 2.875,-0.782 0.6484,-0.531 1.0117,-1.351 1.0117,-2.488 0,-0.644 -0.1094,-1.07 -0.3633,-1.426 -0.2851,-0.465 -0.5351,-0.715 -0.8984,-0.89 -0.3594,-0.289 -0.7149,-0.356 -1.0781,-0.465 v 0 0 -0.07 0 0 c 0.1797,-0.11 0.4297,-0.176 0.6093,-0.286 0.1836,-0.179 0.3633,-0.355 0.543,-0.711 0.1758,-0.25 0.2891,-0.714 0.4688,-1.246 v 0 0 l 1.1484,-3.808 h -3.4922 v 0 m -2.625,7.117 h 1.0078 v 0 0 c 0.3555,0 0.7188,0.074 0.9727,0.359 0.1797,0.25 0.3633,0.532 0.3633,0.961 0,0.356 -0.0743,0.715 -0.3633,0.996 -0.1797,0.25 -0.543,0.43 -1.0781,0.43 v 0 0 h -0.9024 v -2.746 0 m 6.9453,-2.594 c 0,0.813 0.1836,1.598 0.4297,2.313 0.2891,0.707 0.832,1.351 1.4414,1.777 0.7227,0.465 1.6211,0.711 2.6992,0.711 1.0821,0 1.9805,-0.246 2.7032,-0.711 0.6406,-0.426 1.1836,-1.07 1.4375,-1.777 0.289,-0.715 0.4648,-1.5 0.4648,-2.313 0,-0.894 -0.1758,-1.609 -0.4648,-2.316 -0.2539,-0.715 -0.7969,-1.321 -1.4375,-1.781 -0.7227,-0.426 -1.6211,-0.606 -2.7032,-0.715 -1.0781,0.109 -1.9765,0.289 -2.6992,0.715 -0.6094,0.46 -1.1523,1.066 -1.4414,1.781 -0.2461,0.707 -0.4297,1.422 -0.4297,2.316 v 0 m 3.3125,0 c 0,-0.433 0,-0.894 0.1055,-1.25 0.0742,-0.426 0.1836,-0.715 0.3633,-0.965 0.1797,-0.281 0.4297,-0.355 0.789,-0.457 0.3633,0.102 0.6524,0.176 0.8282,0.457 0.1796,0.25 0.2539,0.539 0.3593,0.965 0.0743,0.356 0.0743,0.817 0.0743,1.25 0,0.457 0,0.887 -0.0743,1.242 -0.1054,0.465 -0.1797,0.715 -0.3593,0.996 -0.1758,0.25 -0.4649,0.43 -0.8282,0.43 -0.3593,0 -0.6093,-0.18 -0.789,-0.43 -0.1797,-0.281 -0.2891,-0.531 -0.3633,-0.996 -0.1055,-0.355 -0.1055,-0.785 -0.1055,-1.242 v 0 m 15.7656,4.555 v -7.586 0 0 c 0,-0.356 0,-0.711 0,-0.961 0.0704,-0.289 0.0704,-0.461 0.0704,-0.531 v 0 0 h -2.9493 v 0 0 c 0,0.176 0,0.426 -0.1093,0.707 0,0.25 0,0.539 0,0.785 v 0 0 0 0 0 c -0.0743,-0.18 -0.1797,-0.426 -0.3594,-0.711 -0.1836,-0.25 -0.4297,-0.43 -0.793,-0.711 -0.3633,-0.184 -0.8281,-0.25 -1.4414,-0.359 -0.8281,0 -1.4375,0.289 -1.9765,0.715 -0.543,0.531 -0.8282,1.242 -0.8282,2.238 v 0 0 6.414 h 3.168 v -5.449 0 0 c 0,-0.891 0.25,-1.321 0.8984,-1.321 0.4297,0 0.7891,0.18 0.8985,0.539 0.1797,0.246 0.2539,0.606 0.2539,0.961 v 0 0 5.27 h 3.1679 v 0 m 1.0782,-2.133 v 2.133 h 1.6175 v 1.957 l 3.132,0.961 v -2.918 h 1.797 v -2.133 h -1.797 v -3.852 0 0 c 0,-0.429 0.176,-0.71 0.36,-0.886 0.18,-0.18 0.469,-0.254 0.723,-0.254 0.355,0 0.535,0.074 0.714,0.18 v 0 0 l 0.11,-2.133 v 0 0 c -0.18,-0.114 -0.469,-0.114 -0.824,-0.18 -0.364,0 -0.793,-0.109 -1.262,-0.109 -0.903,0 -1.621,0.289 -2.16,0.715 -0.539,0.531 -0.793,1.175 -0.793,2.062 v 0 0 4.457 h -1.6175 v 0 m 10.6175,-1.609 h 2.699 v 0.25 0 0 c 0,0.644 -0.109,1.07 -0.289,1.359 -0.18,0.246 -0.539,0.422 -0.969,0.422 -0.473,0 -0.832,-0.176 -1.082,-0.531 -0.285,-0.356 -0.359,-0.895 -0.359,-1.5 v 0 m 5.582,-1.707 h -5.508 v 0 0 c 0,-0.715 0.285,-1.141 0.715,-1.496 0.468,-0.282 0.898,-0.356 1.551,-0.356 0.433,0 0.898,0.074 1.437,0.176 0.438,0.18 0.898,0.355 1.262,0.535 v 0 0 l 0.074,-2.246 v 0 0 c -0.363,-0.066 -0.898,-0.172 -1.441,-0.356 -0.543,-0.066 -1.153,-0.066 -1.801,-0.175 -1.262,0.109 -2.16,0.289 -2.879,0.715 -0.723,0.531 -1.258,1.175 -1.512,1.882 -0.289,0.715 -0.469,1.5 -0.363,2.317 0,0.785 0.074,1.605 0.433,2.32 0.364,0.707 0.829,1.242 1.442,1.668 0.644,0.465 1.441,0.711 2.34,0.711 1.008,0 1.797,-0.246 2.445,-0.711 0.609,-0.426 1.082,-0.961 1.336,-1.668 0.355,-0.715 0.469,-1.535 0.469,-2.422 v 0 0 -0.894 0 m -41.0316,12.39 -2.5195,9.258 v 0 -9.258 h -2.8828 v 12.18 h 4.8594 l 1.6953,-7.656 v 0 l 1.7969,7.656 h 4.7851 v -12.18 h -2.9844 v 9.258 0 l -2.6992,-9.258 h -2.0508 v 0 m 9.8985,10.504 v 2.563 h 3.1289 v -2.563 h -3.1289 v 0 m 0,-10.504 v 9.082 h 3.1289 v -9.082 h -3.1289 v 0 m 4.3867,6.946 v 2.136 h 1.6211 v 1.961 l 3.1641,0.961 v -2.922 h 1.8046 v -2.136 h -1.8046 v -3.918 0 0 c 0,-0.356 0.0742,-0.641 0.3632,-0.821 0.1797,-0.175 0.4297,-0.246 0.7188,-0.246 0.3594,0 0.539,0.071 0.7226,0.18 v 0 0 l 0.0704,-2.141 v 0 0 c -0.1797,-0.105 -0.4336,-0.105 -0.9024,-0.176 -0.3555,0 -0.7187,-0.105 -1.1523,-0.105 -0.8985,0 -1.6172,0.281 -2.1563,0.711 -0.539,0.461 -0.8281,1.172 -0.8281,1.957 v 0 0 4.559 h -1.6211 v 0 m 7.1992,0 v 2.136 h 1.6211 v 1.961 l 3.1681,0.961 v -2.922 h 1.797 v -2.136 h -1.797 v -3.918 0 0 c 0,-0.356 0.066,-0.641 0.355,-0.821 0.184,-0.175 0.438,-0.246 0.723,-0.246 0.355,0 0.539,0.071 0.719,0.18 v 0 0 l 0.074,-2.141 v 0 0 c -0.184,-0.105 -0.438,-0.105 -0.793,-0.176 -0.469,0 -0.828,-0.105 -1.258,-0.105 -0.902,0 -1.6209,0.281 -2.1639,0.711 -0.5351,0.461 -0.8242,1.172 -0.8242,1.957 v 0 0 4.559 h -1.6211 v 0 m 10.6212,-1.602 h 2.691 v 0.25 0 0 c 0,0.637 -0.066,1.066 -0.246,1.352 -0.179,0.246 -0.543,0.429 -1.011,0.429 -0.43,0 -0.79,-0.183 -1.079,-0.539 -0.25,-0.426 -0.355,-0.887 -0.355,-1.492 v 0 m 5.574,-1.711 h -5.469 v 0 0 c 0,-0.711 0.25,-1.246 0.719,-1.492 0.434,-0.289 0.899,-0.359 1.512,-0.359 0.469,0 0.898,0.07 1.367,0.179 0.539,0.18 0.973,0.356 1.328,0.535 v 0 0 l 0.113,-2.246 v 0 0 c -0.468,-0.07 -0.902,-0.25 -1.441,-0.355 -0.539,-0.071 -1.184,-0.176 -1.801,-0.176 -1.258,0 -2.265,0.281 -2.875,0.711 -0.722,0.535 -1.261,1.066 -1.551,1.887 -0.25,0.711 -0.433,1.425 -0.433,2.207 0,0.894 0.183,1.707 0.543,2.422 0.355,0.711 0.793,1.242 1.441,1.671 0.61,0.465 1.434,0.641 2.336,0.715 0.973,-0.074 1.801,-0.25 2.414,-0.715 0.645,-0.429 1.078,-0.96 1.367,-1.781 0.356,-0.711 0.43,-1.418 0.43,-2.312 v 0 0 -0.891 0 m 1.731,-3.633 v 13.067 h 3.129 v -13.067 h -3.129 v 0 m 5.218,0 v 13.067 h 3.129 v -13.067 h -3.129 v 0 m 10.328,4.098 v 0.25 h -0.363 v 0 0 c -0.719,0 -1.262,-0.074 -1.687,-0.359 -0.469,-0.18 -0.653,-0.602 -0.653,-1.141 0,-0.352 0.11,-0.641 0.289,-0.816 0.18,-0.18 0.434,-0.25 0.789,-0.25 0.469,0 0.833,0.07 1.086,0.359 0.286,0.246 0.356,0.598 0.465,0.961 0.074,0.351 0.074,0.707 0.074,0.996 v 0 m 2.879,1.851 v -3.988 0 0 c 0,-0.359 0,-0.715 0,-1.07 0,-0.359 0.11,-0.641 0.11,-0.891 v 0 0 h -2.883 v 0 0 c 0,0.356 -0.106,0.785 -0.106,1.246 -0.429,-0.531 -0.898,-0.89 -1.261,-1.172 -0.43,-0.179 -0.899,-0.355 -1.508,-0.355 -0.832,0 -1.441,0.281 -1.984,0.813 -0.539,0.539 -0.715,1.25 -0.825,2.14 0,2.031 1.618,3.094 4.786,3.094 v 0 0 h 0.792 v 0.289 0 0 c 0,0.355 -0.074,0.605 -0.363,0.891 -0.25,0.179 -0.719,0.355 -1.328,0.355 -0.543,0 -1.012,-0.109 -1.441,-0.285 -0.469,-0.18 -0.899,-0.356 -1.258,-0.606 v 0 0 l -0.11,2.317 v 0 0 c 0.36,0.176 0.899,0.25 1.442,0.355 0.644,0.176 1.262,0.176 2.086,0.25 0.972,-0.074 1.871,-0.179 2.41,-0.535 0.543,-0.25 0.898,-0.715 1.082,-1.14 0.285,-0.532 0.359,-1.067 0.359,-1.708 v 0 m 1.731,-5.949 v 7.192 0 0 c 0,0.359 0,0.715 0,1.07 -0.113,0.355 -0.113,0.641 -0.113,0.82 v 0 0 h 2.988 v 0 0 c 0,-0.179 0,-0.465 0.074,-0.711 0,-0.289 0,-0.539 0,-0.82 v 0 0 0 0 0 c 0.106,0.18 0.18,0.461 0.359,0.711 0.18,0.285 0.469,0.465 0.825,0.715 0.363,0.176 0.793,0.281 1.441,0.355 0.793,0 1.441,-0.25 1.984,-0.715 0.536,-0.535 0.79,-1.242 0.79,-2.207 v 0 0 -6.41 h -3.133 v 5.418 0 0 c 0,0.887 -0.289,1.352 -0.903,1.352 -0.359,0 -0.714,-0.18 -0.894,-0.539 -0.184,-0.356 -0.289,-0.813 -0.289,-1.246 v 0 0 -4.985 h -3.129 v 0 m 13.203,4.629 c 0,-0.82 0.105,-1.426 0.293,-1.89 0.176,-0.422 0.43,-0.707 0.894,-0.707 0.434,0 0.727,0.285 0.969,0.707 0.188,0.464 0.293,1.07 0.293,1.89 0,0.715 -0.105,1.32 -0.293,1.852 -0.242,0.465 -0.535,0.644 -0.969,0.711 -0.464,-0.067 -0.718,-0.246 -0.894,-0.711 -0.188,-0.532 -0.293,-1.137 -0.293,-1.852 v 0 m 5.691,8.438 v -11.465 0 0 c 0,-0.531 0,-1.07 0,-1.602 v 0 0 h -2.988 v 0 0 c -0.078,0.43 -0.078,0.965 -0.078,1.426 v 0 0 h -0.105 v 0 0 c -0.247,-0.641 -0.715,-0.996 -1.079,-1.246 -0.425,-0.285 -0.894,-0.356 -1.336,-0.356 -0.82,0 -1.433,0.25 -1.972,0.708 -0.469,0.359 -0.903,0.964 -1.082,1.675 -0.289,0.821 -0.36,1.602 -0.36,2.496 0,0.817 0.071,1.528 0.36,2.133 0.179,0.715 0.539,1.352 0.969,1.781 0.542,0.465 1.187,0.641 1.91,0.715 0.617,0 1.152,-0.179 1.511,-0.429 0.364,-0.286 0.715,-0.641 1.079,-1.172 v 0 0 0 0 0 c 0,0.457 -0.071,0.996 -0.071,1.707 v 0 0 3.629 h 3.242 v 0 m 64.317,-49.672 -4.219,-0.528 v 0.891 l 3.313,0.348 v 0 l -3.313,1.781 v 0.895 L 217.676,145 v -1.074 0 m -1.809,3.672 v 1.425 0 0 c -0.066,0 -0.176,0 -0.242,0 -0.359,0 -0.547,-0.187 -0.547,-0.535 0,-0.285 0.078,-0.472 0.254,-0.539 0.106,-0.176 0.293,-0.281 0.535,-0.351 v 0 m 0.551,2.129 v -2.235 0 0 c 0.281,0 0.469,0.106 0.645,0.281 0.066,0.067 0.171,0.352 0.171,0.606 -0.105,0.351 -0.105,0.644 -0.281,0.887 v 0 0 l 0.645,-0.067 v 0 0 c 0.078,-0.109 0.078,-0.281 0.183,-0.469 0,-0.175 0,-0.351 0,-0.527 0,-0.43 -0.105,-0.781 -0.359,-1.074 -0.188,-0.246 -0.535,-0.352 -1.004,-0.352 -0.363,0 -0.617,0 -0.91,0.176 -0.352,0.176 -0.535,0.36 -0.711,0.645 -0.188,0.242 -0.254,0.527 -0.254,0.89 0,0.43 0.066,0.711 0.254,0.953 0.176,0.188 0.535,0.286 0.894,0.364 0.286,0 0.473,-0.078 0.727,-0.078 v 0 m 1.258,0.253 -4.5,0.997 v 0.781 l 4.5,-0.957 v -0.821 0 m -3.133,3.672 c 0,0.422 0.066,0.782 0.359,0.957 0.176,0.282 0.536,0.465 0.965,0.465 0.363,0 0.727,-0.109 1.02,-0.289 0.242,-0.176 0.535,-0.351 0.601,-0.605 0.188,-0.285 0.293,-0.637 0.293,-0.996 0,-0.43 -0.105,-0.782 -0.359,-0.957 -0.293,-0.286 -0.652,-0.469 -1.082,-0.469 -0.363,0 -0.649,0.109 -0.902,0.293 -0.282,0.176 -0.536,0.351 -0.641,0.594 -0.188,0.363 -0.254,0.648 -0.254,1.007 v 0 m 2.586,-0.359 c 0,0.172 -0.066,0.359 -0.176,0.535 -0.183,0.067 -0.254,0.176 -0.535,0.246 -0.188,0.106 -0.363,0.106 -0.551,0.106 -0.176,0 -0.359,0 -0.535,-0.106 -0.066,-0.07 -0.176,-0.246 -0.176,-0.422 0,-0.293 0.11,-0.468 0.176,-0.535 0.176,-0.179 0.293,-0.285 0.535,-0.363 0.188,-0.109 0.363,-0.109 0.551,-0.109 0.176,0 0.352,0 0.535,0.109 0.11,0.184 0.176,0.254 0.176,0.539 v 0 m 0.547,2.031 -4.5,0.992 v 0.782 l 4.5,-0.957 v -0.817 0 m -0.789,2.489 c 0.066,0 0.176,0 0.242,0.105 0,0.074 0.105,0.184 0.105,0.25 -0.105,0.289 -0.171,0.539 -0.347,0.645 -0.117,0.175 -0.364,0.25 -0.657,0.25 v 0 0 -0.25 0 0 c 0,-0.106 0,-0.29 0.11,-0.465 0,-0.18 0.078,-0.246 0.183,-0.356 0.071,-0.179 0.176,-0.179 0.364,-0.179 v 0 m 0.789,1.07 -0.442,0.105 v 0 0 0 c 0.188,-0.175 0.254,-0.281 0.442,-0.465 0.105,-0.175 0.105,-0.355 0.105,-0.531 0,-0.355 -0.105,-0.531 -0.183,-0.711 -0.176,-0.183 -0.469,-0.25 -0.711,-0.25 -0.293,0 -0.469,0.067 -0.657,0.176 -0.066,0.074 -0.175,0.254 -0.253,0.43 -0.11,0.281 -0.176,0.465 -0.176,0.64 0,0.246 0,0.43 0,0.606 v 0 0 0.285 0 0 c -0.11,0.07 -0.176,0.07 -0.293,0.07 -0.07,0 -0.176,-0.07 -0.242,-0.07 0,-0.105 -0.11,-0.18 -0.11,-0.285 0,-0.07 -0.078,-0.176 -0.078,-0.25 0,-0.356 0.078,-0.715 0.254,-1.07 v 0 0 l -0.613,0.183 v 0 0 c -0.176,0.246 -0.176,0.602 -0.176,0.961 0,0.281 0,0.461 0.066,0.637 0,0.176 0.188,0.359 0.293,0.426 0.176,0.109 0.364,0.183 0.536,0.183 0.187,0 0.253,0 0.429,-0.074 0.188,0 0.473,0 0.656,-0.109 0.247,0 0.43,-0.067 0.606,-0.067 0.293,-0.109 0.469,-0.109 0.547,-0.109 v 0 0 -0.711 0 m 0,1.426 -2.598,0.64 v 0 0 c -0.281,0 -0.359,0.071 -0.469,0.071 v 0 0 0.816 l 0.293,-0.102 v 0 0 0 c -0.105,0.102 -0.183,0.282 -0.293,0.356 -0.066,0.176 -0.066,0.351 -0.066,0.531 0,0.285 0.066,0.535 0.254,0.715 0.176,0.176 0.359,0.281 0.711,0.281 0.117,0 0.293,0 0.359,0 0.11,0 0.188,-0.105 0.297,-0.105 v 0 0 l 1.512,-0.356 v -0.781 l -1.446,0.355 v 0 0 c -0.066,0 -0.175,0 -0.363,0 -0.066,0.067 -0.176,0.067 -0.242,0.067 -0.187,0 -0.293,-0.067 -0.359,-0.176 -0.11,0 -0.11,-0.18 -0.11,-0.246 0,-0.184 0,-0.359 0.176,-0.465 0.106,-0.074 0.176,-0.176 0.359,-0.25 0.11,-0.109 0.286,-0.109 0.473,-0.176 v 0 0 l 1.512,-0.355 v -0.82 0 m -2.52,5.515 c 0,-0.176 0.11,-0.355 0.176,-0.426 0.176,-0.179 0.359,-0.285 0.535,-0.355 0.188,0 0.363,-0.105 0.551,-0.105 0.105,0 0.176,0.105 0.352,0.105 0.117,0 0.183,0.07 0.293,0.176 0.066,0 0.066,0.074 0.066,0.25 0,0.179 -0.066,0.355 -0.176,0.535 -0.183,0.109 -0.254,0.176 -0.43,0.285 -0.293,0.074 -0.468,0.074 -0.656,0.074 -0.176,0 -0.359,0 -0.535,-0.074 -0.066,-0.109 -0.176,-0.285 -0.176,-0.465 v 0 m -1.98,1.246 v 0.821 L 217.063,167 v 0 0 c 0.066,0 0.25,0 0.359,-0.105 0.066,0 0.176,0 0.254,0 v 0 0 -0.715 h -0.442 v 0 0 0 c 0.188,-0.067 0.364,-0.246 0.442,-0.356 0.105,-0.176 0.105,-0.355 0.105,-0.605 0,-0.281 -0.105,-0.465 -0.183,-0.637 -0.11,-0.184 -0.285,-0.25 -0.469,-0.359 -0.176,-0.067 -0.43,-0.067 -0.606,-0.067 -0.359,0 -0.656,0.067 -1.015,0.176 -0.242,0.066 -0.535,0.25 -0.711,0.531 -0.188,0.18 -0.254,0.535 -0.254,0.785 0,0.465 0.066,0.715 0.43,0.997 v 0 0 l -1.797,0.425 v 0 m 0.359,5.45 0.715,-0.176 v 0 0 c -0.07,-0.106 -0.07,-0.289 -0.18,-0.356 0,-0.183 0,-0.359 0,-0.531 0,-0.109 0,-0.184 0,-0.289 0.11,-0.07 0.11,-0.176 0.18,-0.25 0.113,-0.109 0.184,-0.109 0.293,-0.109 0.176,0 0.254,0 0.43,0.183 0.105,0.176 0.183,0.356 0.293,0.531 0.066,0.18 0.242,0.356 0.425,0.465 0.176,0.176 0.364,0.25 0.649,0.25 0.359,0 0.613,-0.074 0.894,-0.25 0.188,-0.183 0.364,-0.359 0.442,-0.64 0.105,-0.25 0.105,-0.539 0.105,-0.895 0,-0.176 0,-0.355 -0.105,-0.605 0,-0.176 -0.078,-0.356 -0.188,-0.532 v 0 0 l -0.718,0.176 v 0 0 c 0.117,0.18 0.183,0.356 0.293,0.539 0,0.176 0.066,0.356 0.066,0.532 0,0.07 -0.066,0.246 -0.066,0.355 -0.11,0.18 -0.11,0.25 -0.293,0.25 -0.071,0.105 -0.176,0.18 -0.352,0.18 -0.188,0 -0.254,-0.075 -0.441,-0.25 -0.11,-0.106 -0.176,-0.289 -0.286,-0.465 -0.066,-0.18 -0.253,-0.356 -0.359,-0.535 -0.176,-0.067 -0.359,-0.176 -0.613,-0.176 -0.356,0 -0.539,0.109 -0.821,0.176 -0.187,0.179 -0.253,0.355 -0.363,0.644 -0.078,0.176 -0.183,0.426 -0.183,0.715 0,0.348 0.105,0.781 0.183,1.063 v 0 m 1.074,2.918 0.723,-0.176 v 0 0 c -0.176,-0.18 -0.176,-0.356 -0.176,-0.602 0,-0.183 0.11,-0.359 0.176,-0.539 0.106,-0.176 0.293,-0.285 0.469,-0.351 0.176,-0.106 0.363,-0.106 0.539,-0.106 0.183,0 0.254,0 0.359,0 0.188,0.106 0.254,0.172 0.364,0.281 0.066,0.067 0.066,0.25 0.066,0.43 0,0.102 0,0.176 0,0.285 -0.066,0.067 -0.066,0.246 -0.176,0.356 v 0 0 l 0.723,-0.11 v 0 0 c 0,-0.074 0.105,-0.246 0.105,-0.355 0,-0.176 0,-0.25 0,-0.43 0,-0.351 -0.105,-0.707 -0.359,-0.996 -0.293,-0.176 -0.535,-0.355 -1.004,-0.355 -0.363,0 -0.727,0.105 -0.98,0.285 -0.282,0.175 -0.465,0.359 -0.641,0.609 -0.188,0.281 -0.254,0.637 -0.254,0.996 0,0.172 0,0.246 0,0.422 0,0.109 0.066,0.289 0.066,0.356 v 0 m 3.067,-0.067 -4.5,0.961 v 0.816 l 1.726,-0.355 v 0 0 0 c -0.105,0.074 -0.183,0.18 -0.293,0.355 -0.066,0.18 -0.066,0.356 -0.066,0.536 0,0.25 0.066,0.535 0.254,0.714 0.176,0.176 0.359,0.243 0.711,0.243 0.117,0 0.293,0 0.359,-0.067 0.11,0 0.188,0 0.297,0 v 0 0 l 1.512,-0.355 v -0.821 l -1.446,0.286 v 0 0 c -0.066,0.07 -0.175,0.07 -0.363,0.07 -0.066,0 -0.176,0 -0.242,0 -0.187,0 -0.293,0 -0.359,-0.07 -0.11,-0.106 -0.11,-0.18 -0.11,-0.356 0,-0.18 0,-0.285 0.176,-0.461 0.106,-0.074 0.176,-0.183 0.359,-0.25 0.11,0 0.286,-0.109 0.473,-0.109 v 0 0 l 1.512,-0.356 v -0.781 0 m 0,4.34 -3.067,-0.422 v 0.777 l 2.344,0.289 v 0 l -2.344,1.141 v 0.887 l 2.344,0.18 v 0 l -2.344,1.171 v 0.786 l 3.067,-1.672 v -0.891 l -2.344,-0.18 v 0 l 2.344,-1.172 v -0.894 0 m -1.809,5.629 v 1.316 0 0 c -0.066,0 -0.176,0 -0.242,0 -0.359,0 -0.547,-0.176 -0.547,-0.426 0,-0.281 0.078,-0.464 0.254,-0.64 0.106,-0.074 0.293,-0.18 0.535,-0.25 v 0 m 0.551,2.027 v -2.133 0 0 c 0.281,0 0.469,0 0.645,0.176 0.066,0.18 0.171,0.356 0.171,0.641 -0.105,0.355 -0.105,0.605 -0.281,0.961 v 0 0 l 0.645,-0.071 v 0 0 c 0.078,-0.179 0.078,-0.355 0.183,-0.535 0,-0.176 0,-0.355 0,-0.457 0,-0.433 -0.105,-0.789 -0.359,-1.07 -0.188,-0.25 -0.535,-0.43 -1.004,-0.43 -0.363,0 -0.617,0.071 -0.91,0.18 -0.352,0.176 -0.535,0.426 -0.711,0.605 -0.188,0.282 -0.254,0.641 -0.254,0.996 0,0.356 0.066,0.606 0.254,0.891 0.176,0.246 0.535,0.356 0.894,0.356 0.286,0 0.473,0 0.727,-0.11 v 0 m -2.414,1.071 -0.723,0.175 v 0.821 l 0.723,-0.106 v -0.89 0 m 3.672,-0.715 -3.067,0.64 v 0.785 l 3.067,-0.605 v -0.82 0 m -3.067,4.629 0.657,-0.176 1.797,-1.848 v 1.492 l 0.613,-0.07 v -2.602 l -0.613,0.11 -1.797,1.957 v -1.426 l -0.657,0.074 v 2.489 0" /><path
         id="path22"
         style="fill:#c14843;fill-opacity:1;fill-rule:nonzero;stroke:none"
         d="m 98.293,148.73 33.289,10.688 -7.305,-36.5 -33.2926,-11.219 7.3086,37.031 v 0" /><path
         id="path24"
         style="fill:#ee2c30;fill-opacity:1;fill-rule:nonzero;stroke:none"
         d="m 98.293,148.73 33.289,10.688 -7.305,-36.5 -33.2926,-11.219 7.3086,37.031" /><path
         id="path26"
         style="fill:none;stroke:#c14843;stroke-width:2.5;stroke-linecap:butt;stroke-linejoin:miter;stroke-miterlimit:4;stroke-dasharray:none;stroke-opacity:1"
         d="m 98.293,148.73 33.289,10.688 -7.305,-36.5 -33.2926,-11.219 7.3086,37.031" /><path
         id="path28"
         style="fill:#fcfdfd;fill-opacity:1;fill-rule:nonzero;stroke:none"
         d="m 109.984,148.203 -1.902,-9.621 -7.992,-2.664 -1.6173,-8.086 7.9883,2.676 -1.805,-9.551 6.77,2.313 1.98,9.543 7.918,2.675 1.621,8.192 -8.027,-2.782 1.906,9.618 -6.84,-2.313 v 0" /><path
         id="path30"
         style="fill:#ffffff;fill-opacity:1;fill-rule:nonzero;stroke:none"
         d="m 109.984,148.203 -1.902,-9.621 -7.992,-2.664 -1.6173,-8.086 7.9883,2.676 -1.805,-9.551 6.77,2.313 1.98,9.543 7.918,2.675 1.621,8.192 -8.027,-2.782 1.906,9.618 -6.84,-2.313" /><path
         id="path32"
         style="fill:none;stroke:#fcfdfd;stroke-width:2.5;stroke-linecap:butt;stroke-linejoin:miter;stroke-miterlimit:4;stroke-dasharray:none;stroke-opacity:1"
         d="m 109.984,148.203 -1.902,-9.621 -7.992,-2.664 -1.6173,-8.086 7.9883,2.676 -1.805,-9.551 6.77,2.313 1.98,9.543 7.918,2.675 1.621,8.192 -8.027,-2.782 1.906,9.618 -6.84,-2.313" /><path
         id="path34"
         style="fill:#ffffff;fill-opacity:1;fill-rule:nonzero;stroke:none"
         d="m 208.855,159.52 -3.96,-22.254 h -50.747 l -3.777,-19.758 v 0 0 c 28.43,0 45.891,-11.328 45.891,-37.215 0,-17.5469 -9.614,-30.2657 -22.864,-37.8516 v 0 0 H 106.75 l 4.496,23.25 v 0 0 c 9.359,-5.6914 18.789,-7.1172 26.817,-7.1172 13.851,0 26.703,5.8789 26.703,19.9414 0,13.4258 -11.7,17.8008 -23.828,17.8008 -8.024,0 -15.583,-0.9922 -22.672,-2.5976 v 0 0 l 13.316,65.8012 h 77.273 v 0" /></g></g></svg>