<?xml version="1.0" encoding="UTF-8" standalone="no"?>
<svg
   xmlns:dc="http://purl.org/dc/elements/1.1/"
   xmlns:cc="http://creativecommons.org/ns#"
   xmlns:rdf="http://www.w3.org/1999/02/22-rdf-syntax-ns#"
   xmlns:svg="http://www.w3.org/2000/svg"
   xmlns="http://www.w3.org/2000/svg"
   viewBox="0 0 100.53333 57.066666"
   height="57.066666"
   width="100.53333"
   xml:space="preserve"
   id="svg2"
   version="1.1"><metadata
     id="metadata8"><rdf:RDF><cc:Work
         rdf:about=""><dc:format>image/svg+xml</dc:format><dc:type
           rdf:resource="http://purl.org/dc/dcmitype/StillImage" /></cc:Work></rdf:RDF></metadata><defs
     id="defs6" /><g
     transform="matrix(1.3333333,0,0,-1.3333333,0,57.066667)"
     id="g10"><g
       transform="scale(0.1)"
       id="g12"><path
         id="path14"
         style="fill:#ffffff;fill-opacity:1;fill-rule:nonzero;stroke:none"
         d="M 1.41797,1.41797 H 497.422 L 752.59,213.953 497.422,426.574 H 1.41797 V 1.41797" /><path
         id="path16"
         style="fill:none;stroke:#231f20;stroke-width:2.83500004;stroke-linecap:butt;stroke-linejoin:round;stroke-miterlimit:4;stroke-dasharray:none;stroke-opacity:1"
         d="M 1.41797,1.41797 H 497.422 L 752.59,213.953 497.422,426.574 H 1.41797 V 1.41797" /><path
         id="path18"
         style="fill:#af201c;fill-opacity:1;fill-rule:nonzero;stroke:none"
         d="M 29.7813,29.8555 497.422,29.7852 667.492,214.027 497.422,398.277 H 29.7813 V 29.8555" /><path
         id="path20"
         style="fill:#ffffff;fill-opacity:1;fill-rule:nonzero;stroke:none"
         d="m 205.121,226.582 c -5.996,1.582 -12.332,2.824 -18.812,2.824 -39.418,0 -71.465,-32.043 -71.465,-71.461 0,-39.418 32.047,-71.4684 71.465,-71.4684 34.875,0 64.023,25.0864 70.226,58.1644 v 0 l 15.574,0.066 v 0 c 3.789,0 8.477,0 12.2,1.523 3.929,1.309 7.304,4.133 10.199,7.02 v 0 l 87.867,87.941 4.961,-15.711 v 0 c -27.156,-10.203 -47.07,-35.972 -47.07,-66.71 0,-39.422 32.043,-71.5317 71.531,-71.5317 39.492,0 71.535,32.1097 71.535,71.5317 0,39.488 -32.043,71.535 -71.535,71.535 -3.926,0 -7.442,-0.485 -11.231,-1.106 v 0 l -21.503,75.531 v 0 c -1.512,5.098 -3.512,11.231 -7.094,14.817 -4.137,4.273 -11.031,6.957 -19.094,6.957 v 0 h -26.32 v -13.918 h 21.086 v 0 c 4.132,0 9.371,0 12.199,-2.344 2.82,-2.476 3.719,-5.652 4.824,-9.441 v 0 l 4.684,-15.297 h -126.25 l -4.481,12.953 19.988,4.824 v 9.305 h -44.863 v -14.129 h 10.813 l 4.687,-12.953 -24.121,-58.922 v 0" /><path
         id="path22"
         style="fill:#af201c;fill-opacity:1;fill-rule:nonzero;stroke:none"
         d="m 199.836,212.477 c -4.231,1.039 -8.645,1.589 -13.238,1.589 -30.938,0 -56.063,-25.117 -56.063,-56.054 0,-30.934 25.125,-56.059 56.063,-56.059 26.285,0 48.402,18.203 54.468,42.649 v 0 l -45.152,0.058 v 0 c -5.453,0 -13.848,-0.375 -17.219,5.02 -2.816,4.539 0.735,11.644 1.836,14.828 v 0 l 19.305,47.969 v 0" /><path
         id="path24"
         style="fill:#af201c;fill-opacity:1;fill-rule:nonzero;stroke:none"
         d="m 247.609,272.148 35.907,-109.957 93.882,94.809 -4.3,15.148 H 247.609 v 0" /><path
         id="path26"
         style="fill:#af201c;fill-opacity:1;fill-rule:nonzero;stroke:none"
         d="m 218.355,222.031 c 23.086,-11.644 39.008,-35.488 39.418,-62.988 v 0 h 12.2 l -34.25,103.926 -17.368,-40.938 v 0" /><path
         id="path28"
         style="fill:#af201c;fill-opacity:1;fill-rule:nonzero;stroke:none"
         d="m 391.27,210.801 c -20.633,-8.246 -35.297,-28.43 -35.297,-51.996 0,-30.887 25.132,-55.992 56.058,-55.992 30.93,0 56.055,25.105 56.055,55.992 0,30.894 -25.125,55.996 -56.055,55.996 -2.343,0 -4.687,-0.121 -6.961,-0.43 v 0 l 15.157,-53.66 v 0 c 0.742,-2.645 1.289,-7.691 -4.504,-9.352 -5.723,-1.66 -8.555,2.403 -9.422,5.293 v 0 l -15.031,54.149 v 0" /><path
         id="path30"
         style="fill:#af201c;fill-opacity:1;fill-rule:nonzero;stroke:none"
         d="M 213.008,207.457 193.93,159.023 h 48.437 v 0 c 0,21.321 -11.781,38.895 -29.359,48.434 v 0" /></g></g></svg>