<?xml version="1.0" encoding="UTF-8" standalone="no"?>
<svg
   xmlns:dc="http://purl.org/dc/elements/1.1/"
   xmlns:cc="http://creativecommons.org/ns#"
   xmlns:rdf="http://www.w3.org/1999/02/22-rdf-syntax-ns#"
   xmlns:svg="http://www.w3.org/2000/svg"
   xmlns="http://www.w3.org/2000/svg"
   viewBox="0 0 37.799999 56.693333"
   height="56.693333"
   width="37.799999"
   xml:space="preserve"
   id="svg2"
   version="1.1"><metadata
     id="metadata8"><rdf:RDF><cc:Work
         rdf:about=""><dc:format>image/svg+xml</dc:format><dc:type
           rdf:resource="http://purl.org/dc/dcmitype/StillImage" /></cc:Work></rdf:RDF></metadata><defs
     id="defs6" /><g
     transform="matrix(1.3333333,0,0,-1.3333333,0,56.693333)"
     id="g10"><g
       transform="scale(0.1)"
       id="g12"><path
         id="path14"
         style="fill:#231f20;fill-opacity:1;fill-rule:nonzero;stroke:none"
         d="M 0,425.195 H 283.469 V 0 H 0 v 425.195 m 1.41797,-1.402 V 1.40625 H 282.051 V 423.793 H 1.41797" /><path
         id="path16"
         style="fill:#af201c;fill-opacity:1;fill-rule:nonzero;stroke:none"
         d="M 14.2188,411.059 H 269.25 V 14.0625 H 14.2188 V 411.059 M 117.523,52.3438 c -9,96.9722 37.184,92.4142 58.25,92.4142 -3.781,-8.266 -3.351,-8.012 -9.179,-20.903 0,-11.328 9.179,-8.652 9.179,-8.652 0,0 25.985,21.113 45.887,39.172 5.653,4.734 0,9.078 0,9.078 -20.332,18.985 -28.008,25.215 -45.887,41.063 -3.71,3.203 -12.714,0.175 -9.179,-8.907 4.019,-10.609 5.398,-10.328 9.179,-19.867 -88.3746,0 -93.8824,-61.328 -93.8824,-123.3982 18.5394,0 35.6324,0 35.6324,0 v 0 m 71.61,263.9492 v 0 c -1.047,0.277 -2.793,0.727 -5.266,1.34 -9.668,2.394 -16.672,4.535 -20.984,6.422 -8.32,3.625 -12.485,8.054 -12.485,13.281 0,1.266 0.247,2.555 0.754,3.859 3.391,8.895 6.582,17.211 9.563,24.957 -1.496,0.868 -3.203,1.297 -5.129,1.297 -2.039,0 -5.352,-0.672 -9.91,-2.023 -4.93,-1.457 -8.606,-2.184 -11.043,-2.184 -2.817,0 -5.313,0.676 -7.477,2.024 -0.09,0.054 -0.164,0.089 -0.215,0.101 -0.308,-0.078 -0.742,-0.547 -1.289,-1.398 -0.652,-1.016 -1.289,-2.403 -1.898,-4.149 -1.024,-2.941 -1.621,-5.269 -1.781,-6.976 v 0 0 -0.016 0 c -0.489,-6.773 -1.875,-12.617 -4.16,-17.535 -1.344,-2.891 -3.52,-6.25 -6.524,-10.078 -2.488,-3.168 -4.019,-5.649 -4.59,-7.434 v 0 -0.008 l -0.004,-0.003 v 0 c -1.386,-4.239 -2.082,-7.536 -2.082,-9.895 0,-1.645 0.328,-2.965 0.985,-3.953 0.668,-1.024 1.789,-1.863 3.367,-2.531 3.5,-1.485 9.883,-2.254 19.14,-2.313 1.774,-0.008 3.52,-0.012 5.247,-0.012 3.621,0 8.378,0.028 14.265,0.071 5.567,0.047 9.973,0.066 13.223,0.066 5.265,0 10.984,-0.039 17.16,-0.125 2.305,0.082 4.93,1.156 7.906,3.235 2.981,2.082 4.856,4.16 5.649,6.242 v 0 l 0.008,0.015 v 0.008 0 c 0.546,1.387 0.812,2.649 0.812,3.785 0,2.024 -1.086,3.328 -3.242,3.93 m 1.375,4.883 c -0.867,0.234 -2.656,0.695 -5.391,1.367 -9.387,2.328 -16.113,4.375 -20.168,6.148 -6.285,2.739 -9.429,5.625 -9.429,8.657 0,0.656 0.132,1.347 0.418,2.082 3.437,8.992 6.621,17.308 9.562,24.945 v 0 l 1.531,3.984 -3.718,2.164 v 0 c -2.297,1.329 -4.868,1.993 -7.708,1.993 -2.539,0 -6.335,-0.743 -11.375,-2.239 -4.449,-1.316 -7.644,-1.972 -9.582,-1.972 -1.835,0 -3.421,0.418 -4.753,1.246 -0.575,0.355 -1.161,0.605 -1.754,0.742 v 0 l -1.243,0.293 -1.23,-0.32 v 0 c -1.605,-0.418 -3.039,-1.61 -4.301,-3.571 -0.867,-1.351 -1.676,-3.093 -2.418,-5.211 -1.16,-3.324 -1.84,-6.046 -2.039,-8.16 v 0 l -0.012,-0.117 -0.003,-0.055 v 0 c -0.45,-6.14 -1.684,-11.386 -3.704,-15.734 -1.179,-2.539 -3.152,-5.566 -5.918,-9.09 -2.859,-3.64 -4.668,-6.64 -5.418,-8.996 -1.55,-4.738 -2.3277,-8.551 -2.3277,-11.441 0,-2.649 0.6057,-4.883 1.8127,-6.715 1.234,-1.871 3.109,-3.34 5.633,-4.41 4.14,-1.75 11.179,-2.661 21.125,-2.719 1.215,-0.008 2.972,-0.008 5.269,-0.008 3.637,0 8.406,0.02 14.301,0.066 5.555,0.043 9.949,0.071 13.184,0.071 5.242,0 10.945,-0.043 17.097,-0.129 v 0 h 0.117 l 0.125,0.008 v 0 c 3.313,0.109 6.875,1.496 10.676,4.152 3.828,2.676 6.321,5.531 7.481,8.578 0.761,1.969 1.14,3.836 1.14,5.594 0,4.59 -2.32,7.519 -6.98,8.797 v 0 M 94.4336,283.523 v 0 c -5.0938,0 -9.2188,-4.082 -9.2188,-9.113 0,-5.035 4.125,-9.117 9.2188,-9.117 5.0898,0 9.2144,4.082 9.2144,9.117 0,5.031 -4.1246,9.113 -9.2144,9.113 m -0.0039,4.977 v 0 c -7.8672,0 -14.2383,-6.309 -14.2383,-14.086 0,-7.777 6.3711,-14.082 14.2383,-14.082 7.8593,0 14.2343,6.305 14.2343,14.082 0,7.777 -6.375,14.086 -14.2343,14.086 m 33.9023,-4.977 v 0 c -5.094,0 -9.223,-4.082 -9.223,-9.113 0,-5.035 4.129,-9.117 9.223,-9.117 5.086,0 9.211,4.082 9.211,9.117 0,5.031 -4.125,9.113 -9.211,9.113 m -0.008,4.977 v 0 c -7.863,0 -14.238,-6.309 -14.238,-14.086 0,-7.777 6.375,-14.082 14.238,-14.082 7.864,0 14.235,6.305 14.235,14.082 0,7.777 -6.371,14.086 -14.235,14.086 m 33.949,-4.977 v 0 c -5.085,0 -9.207,-4.082 -9.207,-9.113 0,-5.035 4.122,-9.117 9.207,-9.117 5.102,0 9.219,4.082 9.219,9.117 0,5.031 -4.117,9.113 -9.219,9.113 m 0,4.977 v 0 c -7.859,0 -14.234,-6.309 -14.234,-14.086 0,-7.777 6.375,-14.082 14.234,-14.082 7.864,0 14.243,6.305 14.243,14.082 0,7.777 -6.379,14.086 -14.243,14.086 m 33.957,-4.977 v 0 c -5.085,0 -9.207,-4.082 -9.207,-9.113 0,-5.035 4.122,-9.117 9.207,-9.117 5.086,0 9.219,4.082 9.219,9.117 0,5.031 -4.133,9.113 -9.219,9.113 m 0,4.977 v 0 c -7.863,0 -14.238,-6.309 -14.238,-14.086 0,-7.777 6.375,-14.082 14.238,-14.082 7.864,0 14.239,6.305 14.239,14.082 0,7.777 -6.375,14.086 -14.239,14.086" /></g></g></svg>