<?xml version="1.0" encoding="UTF-8" standalone="no"?>
<svg
   xmlns:dc="http://purl.org/dc/elements/1.1/"
   xmlns:cc="http://creativecommons.org/ns#"
   xmlns:rdf="http://www.w3.org/1999/02/22-rdf-syntax-ns#"
   xmlns:svg="http://www.w3.org/2000/svg"
   xmlns="http://www.w3.org/2000/svg"
   viewBox="0 0 107.30667 107.26667"
   height="107.26667"
   width="107.30667"
   xml:space="preserve"
   id="svg2"
   version="1.1"><metadata
     id="metadata8"><rdf:RDF><cc:Work
         rdf:about=""><dc:format>image/svg+xml</dc:format><dc:type
           rdf:resource="http://purl.org/dc/dcmitype/StillImage" /></cc:Work></rdf:RDF></metadata><defs
     id="defs6" /><g
     transform="matrix(1.3333333,0,0,-1.3333333,0,107.26667)"
     id="g10"><g
       transform="scale(0.1)"
       id="g12"><path
         id="path14"
         style="fill:#ffffff;fill-opacity:1;fill-rule:nonzero;stroke:none"
         d="M 402.457,803.5 1.41797,402.461 402.457,1.41797 803.355,402.461 402.457,803.5" /><path
         id="path16"
         style="fill:none;stroke:#231f20;stroke-width:2.83500004;stroke-linecap:butt;stroke-linejoin:round;stroke-miterlimit:4;stroke-dasharray:none;stroke-opacity:1"
         d="M 402.457,803.5 1.41797,402.461 402.457,1.41797 803.355,402.461 402.457,803.5" /><path
         id="path18"
         style="fill:#af201c;fill-opacity:1;fill-rule:nonzero;stroke:none"
         d="M 402.816,747.199 57.5742,401.957 402.816,56.7188 747.984,401.957 402.816,747.199" /><path
         id="path20"
         style="fill:#ffffff;fill-opacity:1;fill-rule:nonzero;stroke:none"
         d="m 497.398,441.371 c 5.997,1.582 12.332,2.824 18.817,2.824 39.426,0 71.465,-32.047 71.465,-71.472 0,-39.422 -32.039,-71.473 -71.465,-71.473 -34.871,0 -64.024,25.086 -70.235,58.172 v 0 l -15.574,0.07 v 0 c -3.789,0 -8.476,0 -12.199,1.52 -3.926,1.308 -7.305,4.129 -10.195,7.027 v 0 l -87.875,87.941 -5.032,-15.71 v 0 c 27.223,-10.204 47.141,-35.977 47.141,-66.719 0,-39.422 -32.047,-71.539 -71.539,-71.539 -39.492,0 -71.605,32.117 -71.535,71.539 0,39.492 32.043,71.543 71.535,71.543 3.926,0 7.441,-0.485 11.234,-1.106 v 0 l 21.5,75.539 v 0 c 1.52,5.102 3.516,11.235 7.102,14.817 4.066,4.273 11.027,6.965 19.09,7.035 v 0 h 26.328 v -13.996 h -21.086 v 0 c -4.137,0 -9.375,0 -12.199,-2.34 -2.828,-2.484 -3.727,-5.652 -4.824,-9.441 v 0 l -4.688,-15.305 H 459.43 l 4.472,12.961 -19.98,4.824 v 9.301 h 44.863 v -14.125 h -10.82 l -4.688,-13.028 24.121,-58.859 v 0" /><path
         id="path22"
         style="fill:#af201c;fill-opacity:1;fill-rule:nonzero;stroke:none"
         d="m 501.969,427.191 c 4.226,1.106 8.64,1.594 13.242,1.594 30.937,0 56.062,-25.117 56.062,-56.062 0,-30.934 -25.125,-56.063 -56.062,-56.063 -26.231,0 -48.469,18.203 -54.531,42.645 v 0 l 45.215,0.066 v 0 c 5.449,-0.066 13.847,-0.371 17.214,5.02 2.825,4.535 -0.73,11.644 -1.836,14.828 v 0 l -19.304,47.972 v 0" /><path
         id="path24"
         style="fill:#af201c;fill-opacity:1;fill-rule:nonzero;stroke:none"
         d="m 454.652,486.484 -35.925,-109.941 -93.672,94.82 4.105,15.121 h 125.492 v 0" /><path
         id="path26"
         style="fill:#af201c;fill-opacity:1;fill-rule:nonzero;stroke:none"
         d="M 484.164,436.82 C 461.078,425.176 445.16,401.258 444.742,373.828 v 0 h -12.199 l 34.258,104.004 17.363,-41.012 v 0" /><path
         id="path28"
         style="fill:#af201c;fill-opacity:1;fill-rule:nonzero;stroke:none"
         d="m 310.395,425.156 c 20.636,-8.246 35.296,-28.433 35.296,-51.996 0,-30.894 -25.136,-56 -56,-56 -30.988,0 -56.121,25.106 -56.121,56 0,30.887 25.133,55.996 56,55.996 2.403,0.063 4.743,-0.121 7.02,-0.367 v 0 l -15.156,-53.726 v 0 c -0.735,-2.645 -1.293,-7.633 4.5,-9.356 5.73,-1.66 8.562,2.402 9.425,5.293 v 0 l 15.036,54.156 v 0" /><path
         id="path30"
         style="fill:#af201c;fill-opacity:1;fill-rule:nonzero;stroke:none"
         d="m 488.852,421.684 18.937,-48.457 h -48.312 v 0 c 0,21.316 11.808,38.882 29.375,48.457 v 0" /></g></g></svg>