<?xml version="1.0" encoding="UTF-8" standalone="no"?>
<svg
   xmlns:dc="http://purl.org/dc/elements/1.1/"
   xmlns:cc="http://creativecommons.org/ns#"
   xmlns:rdf="http://www.w3.org/1999/02/22-rdf-syntax-ns#"
   xmlns:svg="http://www.w3.org/2000/svg"
   xmlns="http://www.w3.org/2000/svg"
   viewBox="0 0 98.26667 28.346666"
   height="28.346666"
   width="98.26667"
   xml:space="preserve"
   id="svg2"
   version="1.1"><metadata
     id="metadata8"><rdf:RDF><cc:Work
         rdf:about=""><dc:format>image/svg+xml</dc:format><dc:type
           rdf:resource="http://purl.org/dc/dcmitype/StillImage" /></cc:Work></rdf:RDF></metadata><defs
     id="defs6" /><g
     transform="matrix(1.3333333,0,0,-1.3333333,0,28.346667)"
     id="g10"><g
       transform="scale(0.1)"
       id="g12"><path
         id="path14"
         style="fill:#231f20;fill-opacity:1;fill-rule:nonzero;stroke:none"
         d="M 0,212.602 H 609.379 L 737.008,105.762 609.379,0 H 0 v 212.602 m 1.41797,-1.414 V 1.41797 H 608.871 L 734.789,105.77 608.871,211.188 H 1.41797" /><path
         id="path16"
         style="fill:#af201c;fill-opacity:1;fill-rule:nonzero;stroke:none"
         d="M 15.7305,198.395 H 609.496 L 694.527,105.762 609.496,14.5039 H 15.7305 v 183.8911 0 M 265.168,109.266 v 0 l -9.105,-22.6176 v 0 c -0.547,-1.5273 -2.215,-4.8593 -0.891,-7.0234 1.617,-2.5312 5.558,-2.3594 8.152,-2.3594 v 0 l 21.309,-0.0312 v 0 c -2.852,-11.5352 -13.305,-20.1133 -25.715,-20.1133 -14.602,0 -26.465,11.8594 -26.465,26.4492 0,14.5899 11.863,26.4457 26.465,26.4457 2.16,0 4.262,-0.258 6.25,-0.75 m 22.547,28.172 v 0 h 59.265 l 2.047,-7.141 -44.355,-44.7501 -16.957,51.8911 m -13.793,-23.625 v 0 l 8.18,19.339 16.183,-49.0661 h -5.762 v 0 c -0.199,12.9805 -7.714,24.2341 -18.601,29.7271 m 81.66,-5.301 v 0 l 7.086,-25.5511 v 0 c 0.398,-1.3828 1.75,-3.2851 4.461,-2.5078 2.734,0.7774 2.476,3.1641 2.105,4.4063 v 0 L 362.09,110.18 v 0 c 1.062,0.148 2.187,0.203 3.281,0.203 14.606,0 26.469,-11.8283 26.469,-26.4182 0,-14.5898 -11.863,-26.4218 -26.469,-26.4218 -14.601,0 -26.465,11.832 -26.465,26.4218 0,11.1368 6.91,20.6642 16.676,24.5472 m -87.91,7.461 v 0 l 11.375,27.8 -2.215,6.129 h -5.098 v 6.649 h 21.196 v -4.375 l -9.45,-2.274 2.106,-6.129 h 59.644 l -2.218,7.223 v 0 c -0.516,1.785 -0.953,3.281 -2.274,4.465 -1.324,1.09 -3.804,1.09 -5.761,1.09 v 0 h -9.961 v 6.59 h 12.441 v 0 c 3.797,0 7.055,-1.266 9.012,-3.282 1.699,-1.695 2.648,-4.605 3.34,-6.992 v 0 l 10.168,-35.656 v 0 c 1.785,0.289 3.457,0.519 5.296,0.519 18.668,0 33.813,-15.136 33.813,-33.7612 0,-18.6172 -15.145,-33.7852 -33.813,-33.7852 -18.632,0 -33.777,15.168 -33.777,33.7852 0,14.5078 9.414,26.6522 22.231,31.4842 v 0 l -2.336,7.399 -41.5,-41.5004 v 0 C 308.512,80 306.926,78.6484 305.055,78.043 c -1.758,-0.7188 -3.977,-0.7188 -5.762,-0.7188 v 0 l -7.344,-0.0273 v 0 c -2.933,-15.625 -16.703,-27.4571 -33.176,-27.4571 -18.632,0 -33.753,15.1133 -33.753,33.7305 0,18.6177 15.121,33.7267 33.753,33.7267 3.055,0 6.047,-0.574 8.899,-1.324 m 3.695,-9.051 v 0 c 8.324,-4.492 13.883,-12.7775 13.883,-22.8517 v 0 h -22.867 l 8.984,22.8517 m 292.77,-1.883 c 2.168,-0.601 3.25,-1.926 3.25,-3.969 0,-1.1481 -0.274,-2.4216 -0.809,-3.8239 v 0 l -0.012,-0.0117 v -0.0078 0 c -0.789,-2.1055 -2.675,-4.2032 -5.652,-6.3086 -2.969,-2.1016 -5.605,-3.1875 -7.91,-3.2657 -6.172,0.0821 -11.895,0.125 -17.16,0.125 -3.25,0 -7.656,-0.0234 -13.231,-0.0664 -5.879,-0.0429 -10.636,-0.0703 -14.258,-0.0703 -1.73,0 -3.476,0 -5.246,0.0117 -9.265,0.0586 -15.644,0.8321 -19.148,2.336 -1.574,0.6758 -2.695,1.5234 -3.371,2.5508 -0.652,1.0078 -0.977,2.3398 -0.977,4 0,2.3828 0.696,5.7109 2.082,9.9879 v 0 0.012 0.008 0 c 0.575,1.801 2.098,4.301 4.59,7.504 3.008,3.871 5.184,7.262 6.524,10.183 2.285,4.965 3.671,10.868 4.168,17.707 v 0 0.024 0 0 c 0.156,1.723 0.753,4.07 1.777,7.043 0.617,1.769 1.25,3.164 1.906,4.195 0.547,0.86 0.977,1.328 1.289,1.41 0.047,-0.015 0.117,-0.047 0.215,-0.105 2.156,-1.363 4.656,-2.043 7.469,-2.043 2.441,0 6.113,0.734 11.047,2.207 4.558,1.363 7.871,2.047 9.91,2.047 1.926,0 3.633,-0.442 5.129,-1.313 -2.981,-7.824 -6.172,-16.226 -9.563,-25.211 -0.508,-1.316 -0.75,-2.617 -0.75,-3.902 0,-5.277 4.16,-9.75 12.481,-13.41 4.316,-1.906 11.316,-4.07 20.984,-6.492 2.473,-0.621 4.231,-1.071 5.266,-1.352 v 0 m 1.375,4.93 v 0 c 4.668,-1.289 6.992,-4.246 6.992,-8.883 0,-1.7813 -0.379,-3.6602 -1.152,-5.6485 -1.153,-3.0742 -3.653,-5.9648 -7.481,-8.6719 -3.797,-2.6797 -7.351,-4.082 -10.672,-4.1914 v 0 l -0.117,-0.0078 h -0.129 v 0 c -6.152,0.0859 -11.844,0.1289 -17.098,0.1289 -3.234,0 -7.628,-0.0234 -13.183,-0.0664 -5.899,-0.0469 -10.664,-0.0703 -14.309,-0.0703 -2.293,0 -4.05,0 -5.273,0.0078 -9.942,0.0625 -16.981,0.9805 -21.121,2.75 -2.52,1.0781 -4.395,2.5664 -5.637,4.4531 -1.199,1.8516 -1.805,4.1133 -1.805,6.7813 0,2.9219 0.77,6.7732 2.325,11.5582 0.75,2.379 2.566,5.411 5.418,9.086 2.765,3.559 4.738,6.618 5.918,9.184 2.023,4.391 3.261,9.695 3.71,15.894 v 0 0.055 l 0.012,0.125 v 0 c 0.195,2.133 0.879,4.875 2.039,8.235 0.742,2.144 1.543,3.902 2.414,5.265 1.27,1.985 2.703,3.188 4.305,3.606 v 0 l 1.23,0.324 1.243,-0.293 v 0 c 0.593,-0.141 1.179,-0.391 1.757,-0.75 1.329,-0.84 2.918,-1.262 4.754,-1.262 1.934,0 5.129,0.664 9.582,1.996 5.039,1.504 8.836,2.262 11.375,2.262 2.852,0 5.411,-0.672 7.707,-2.016 v 0 l 3.719,-2.183 -1.531,-4.028 v 0 c -2.941,-7.711 -6.125,-16.109 -9.563,-25.195 -0.281,-0.742 -0.418,-1.445 -0.418,-2.105 0,-3.063 3.145,-5.977 9.434,-8.746 4.063,-1.786 10.781,-3.856 20.176,-6.211 2.722,-0.68 4.519,-1.141 5.379,-1.383 M 469.43,71.9414 c 5.086,0 9.218,-4.125 9.218,-9.207 0,-5.0899 -4.132,-9.2149 -9.218,-9.2149 -5.09,0 -9.219,4.125 -9.219,9.2149 0,5.082 4.129,9.207 9.219,9.207 v 0 m -0.012,5.0234 c 7.871,0 14.238,-6.371 14.238,-14.2304 0,-7.8555 -6.367,-14.2227 -14.238,-14.2227 -7.859,0 -14.238,6.3672 -14.238,14.2227 0,7.8594 6.379,14.2304 14.238,14.2304 v 0 m 33.906,-5.0234 c 5.098,0 9.219,-4.125 9.219,-9.207 0,-5.0899 -4.121,-9.2149 -9.219,-9.2149 -5.086,0 -9.207,4.125 -9.207,9.2149 0,5.082 4.121,9.207 9.207,9.207 v 0 m 0,5.0234 c 7.864,0 14.239,-6.371 14.239,-14.2304 0,-7.8555 -6.375,-14.2227 -14.239,-14.2227 -7.859,0 -14.238,6.3672 -14.238,14.2227 0,7.8594 6.379,14.2304 14.238,14.2304 v 0 m 33.965,-5.0234 c 5.09,0 9.211,-4.125 9.211,-9.207 0,-5.0899 -4.121,-9.2149 -9.211,-9.2149 -5.098,0 -9.219,4.125 -9.219,9.2149 0,5.082 4.121,9.207 9.219,9.207 v 0 m -0.008,5.0234 c 7.86,0 14.239,-6.371 14.239,-14.2304 0,-7.8555 -6.379,-14.2227 -14.239,-14.2227 -7.863,0 -14.238,6.3672 -14.238,14.2227 0,7.8594 6.375,14.2304 14.238,14.2304 v 0 m 33.965,-5.0234 c 5.086,0 9.219,-4.125 9.219,-9.207 0,-5.0899 -4.133,-9.2149 -9.219,-9.2149 -5.09,0 -9.219,4.125 -9.219,9.2149 0,5.082 4.129,9.207 9.219,9.207 v 0 m -0.012,5.0234 c 7.871,0 14.239,-6.371 14.239,-14.2304 0,-7.8555 -6.368,-14.2227 -14.239,-14.2227 -7.859,0 -14.238,6.3672 -14.238,14.2227 0,7.8594 6.379,14.2304 14.238,14.2304 v 0" /><path
         id="path18"
         style="fill:#1a67bb;fill-opacity:1;fill-rule:nonzero;stroke:none"
         d="M 29.9531,185.008 H 187.746 V 27.3438 H 29.9531 v 157.6642 0" /><path
         id="path20"
         style="fill:#231f20;fill-opacity:1;fill-rule:nonzero;stroke:none"
         d="m 183.422,129.867 -4.246,-0.539 v 0.824 l 3.242,0.434 v 0 l -3.242,1.797 v 0.898 l 4.246,-2.336 v -1.078 0 m -1.906,3.703 v 0 c -0.184,0.071 -0.36,0.18 -0.539,0.36 -0.075,0.074 -0.18,0.254 -0.18,0.543 0,0.355 0.18,0.535 0.535,0.535 0.113,0 0.113,0 0.184,0 v 0 0 -1.438 m 0.539,2.157 v -2.266 0 0 c 0.363,0 0.543,0.109 0.652,0.289 0.18,0.074 0.18,0.359 0.18,0.613 0,0.285 -0.114,0.645 -0.18,0.899 v 0 0 l 0.609,-0.071 v 0 0 c 0,-0.183 0.106,-0.289 0.106,-0.468 0.074,-0.18 0.074,-0.36 0.074,-0.539 0,-0.434 -0.074,-0.789 -0.359,-1.079 -0.184,-0.253 -0.539,-0.359 -0.973,-0.433 -0.363,0 -0.719,0.074 -1.008,0.254 -0.254,0.179 -0.539,0.355 -0.722,0.644 -0.18,0.254 -0.25,0.539 -0.25,0.903 0,0.429 0.07,0.718 0.359,0.965 0.18,0.183 0.434,0.289 0.902,0.289 0.176,0 0.43,0 0.61,0 v 0 m 1.367,0.253 -4.609,1.008 v 0.789 l 4.609,-0.972 v -0.825 0 m -3.238,3.708 c 0,0.429 0.175,0.718 0.359,0.972 0.254,0.285 0.613,0.465 1.078,0.465 0.359,0 0.613,-0.109 0.977,-0.285 0.289,-0.18 0.465,-0.363 0.644,-0.617 0.18,-0.285 0.254,-0.641 0.254,-1.004 0,-0.43 -0.18,-0.793 -0.433,-1.078 -0.176,-0.18 -0.54,-0.364 -1.008,-0.364 -0.36,0 -0.723,0.114 -0.969,0.289 -0.289,0.18 -0.469,0.36 -0.652,0.614 -0.18,0.285 -0.25,0.648 -0.25,1.008 v 0 m 2.703,-0.36 v 0 c 0,-0.289 -0.114,-0.473 -0.289,-0.539 -0.075,-0.109 -0.254,-0.109 -0.434,-0.109 -0.289,0 -0.469,0 -0.648,0.109 -0.184,0.066 -0.36,0.176 -0.43,0.356 -0.184,0.074 -0.289,0.253 -0.289,0.437 0,0.285 0.105,0.465 0.289,0.535 0.07,0.106 0.246,0.106 0.535,0.106 0.18,0 0.359,0 0.543,-0.106 0.18,-0.07 0.359,-0.179 0.434,-0.25 0.175,-0.179 0.289,-0.359 0.289,-0.539 m 0.535,2.051 -4.609,1.004 v 0.789 l 4.609,-0.965 v -0.828 0 m -0.899,2.445 v 0 c -0.105,0.071 -0.289,0.071 -0.359,0.254 -0.109,0.106 -0.109,0.176 -0.184,0.356 0,0.179 0,0.363 0,0.468 v 0 0 0.254 0 0 c 0.254,0 0.438,-0.074 0.618,-0.254 0.175,-0.105 0.289,-0.359 0.289,-0.648 0,-0.07 0,-0.176 -0.114,-0.25 0,-0.109 -0.066,-0.109 -0.25,-0.18 m 0.899,1.153 -0.469,0.105 v 0 0 0 c 0.184,-0.18 0.289,-0.285 0.363,-0.469 0.106,-0.179 0.18,-0.359 0.18,-0.535 0,-0.363 -0.074,-0.543 -0.254,-0.723 -0.179,-0.183 -0.355,-0.25 -0.644,-0.25 -0.254,0 -0.434,0.067 -0.618,0.176 -0.179,0.074 -0.285,0.254 -0.359,0.434 0,0.289 -0.105,0.469 -0.105,0.648 0,0.25 -0.071,0.434 -0.071,0.614 v 0 0 0.285 0 0 c -0.113,0.07 -0.113,0.07 -0.289,0.07 -0.07,0 -0.179,-0.07 -0.179,-0.07 -0.075,-0.106 -0.075,-0.18 -0.18,-0.285 0,-0.075 0,-0.18 0,-0.254 0,-0.36 0.105,-0.719 0.289,-1.082 v 0 0 l -0.727,0.183 v 0 0 c -0.105,0.254 -0.175,0.61 -0.175,0.973 0,0.285 0.07,0.465 0.07,0.641 0.105,0.183 0.18,0.363 0.363,0.437 0.106,0.105 0.285,0.18 0.539,0.18 0.11,0 0.289,0 0.465,-0.075 0.18,0 0.359,0 0.613,-0.105 0.184,0 0.473,-0.074 0.653,-0.074 0.176,-0.11 0.355,-0.11 0.535,-0.11 v 0 0 -0.714 0 m 0,1.433 -2.699,0.649 v 0 0 c -0.18,0 -0.364,0 -0.469,0.074 v 0 0 0.719 h 0.363 v 0 0 0 c -0.183,0.109 -0.258,0.289 -0.258,0.363 -0.105,0.18 -0.175,0.359 -0.175,0.535 0,0.289 0.07,0.543 0.25,0.723 0.183,0.179 0.468,0.289 0.832,0.289 0.066,0 0.179,0 0.25,0 0.179,0 0.285,-0.11 0.359,-0.11 v 0 0 l 1.547,-0.359 V 148.5 l -1.442,0.355 v 0 0 c -0.179,0 -0.285,0 -0.359,0 -0.105,0.075 -0.176,0.075 -0.355,0.075 -0.11,0 -0.18,-0.075 -0.289,-0.18 -0.075,-0.07 -0.18,-0.176 -0.18,-0.25 0,-0.18 0.105,-0.359 0.18,-0.469 0.109,-0.179 0.289,-0.254 0.355,-0.254 0.184,-0.105 0.363,-0.175 0.469,-0.175 v 0 0 l 1.621,-0.36 v -0.832 0 m -2.625,5.578 v 0 c 0,0.18 0.105,0.36 0.289,0.469 0.18,0.07 0.359,0.07 0.535,0.07 0.18,0 0.359,0 0.543,-0.07 0.18,-0.109 0.359,-0.184 0.434,-0.289 0.175,-0.18 0.289,-0.363 0.289,-0.535 0,-0.184 -0.114,-0.254 -0.18,-0.363 0,0 -0.184,-0.075 -0.289,-0.075 -0.074,-0.105 -0.184,-0.105 -0.363,-0.105 -0.075,0 -0.254,0.105 -0.434,0.105 -0.289,0.075 -0.465,0.184 -0.535,0.364 -0.184,0.074 -0.289,0.246 -0.289,0.429 m -1.984,1.184 v 0.906 l 3.894,-0.906 v 0 0 c 0.18,0 0.246,0 0.43,-0.106 0.105,0 0.179,0 0.285,0 v 0 0 -0.793 l -0.469,0.075 v 0 0 0 c 0.184,-0.075 0.289,-0.25 0.363,-0.43 0.106,-0.113 0.18,-0.359 0.18,-0.539 0,-0.289 -0.074,-0.473 -0.18,-0.649 -0.179,-0.179 -0.253,-0.253 -0.543,-0.359 -0.175,-0.074 -0.355,-0.074 -0.609,-0.074 -0.289,0 -0.648,0.074 -0.898,0.18 -0.289,0.074 -0.543,0.253 -0.723,0.539 -0.184,0.179 -0.359,0.433 -0.359,0.789 0,0.468 0.175,0.722 0.433,1.011 v 0 0 l -1.804,0.356 v 0 m 0.468,5.578 0.723,-0.176 v 0 0 c -0.106,-0.109 -0.18,-0.289 -0.18,-0.359 0,-0.184 -0.105,-0.363 -0.105,-0.543 0,-0.109 0,-0.176 0.105,-0.289 0,-0.07 0.074,-0.176 0.18,-0.25 0,-0.106 0.07,-0.106 0.25,-0.18 0.18,0.074 0.289,0.074 0.363,0.254 0.106,0.176 0.285,0.289 0.36,0.539 0.109,0.18 0.179,0.285 0.355,0.469 0.184,0.18 0.469,0.18 0.723,0.25 0.363,0 0.652,-0.07 0.832,-0.25 0.176,-0.184 0.355,-0.363 0.429,-0.652 0.106,-0.25 0.18,-0.536 0.18,-0.899 0,-0.18 -0.074,-0.359 -0.074,-0.609 -0.106,-0.18 -0.106,-0.364 -0.18,-0.543 v 0 0 l -0.719,0.179 v 0 0 c 0.075,0.184 0.184,0.364 0.184,0.543 0.066,0.184 0.066,0.356 0.066,0.539 0,0.071 0,0.254 -0.066,0.36 0,0.074 -0.109,0.25 -0.184,0.25 -0.105,0.113 -0.179,0.18 -0.359,0.18 -0.184,0 -0.363,-0.067 -0.469,-0.25 -0.074,-0.106 -0.179,-0.286 -0.25,-0.469 -0.179,-0.18 -0.289,-0.36 -0.468,-0.539 -0.075,-0.071 -0.36,-0.176 -0.618,-0.176 -0.285,0 -0.535,0.105 -0.714,0.176 -0.18,0.179 -0.364,0.359 -0.469,0.648 -0.074,0.18 -0.074,0.43 -0.074,0.719 0,0.359 0.074,0.723 0.179,1.078 v 0 m 1.078,2.949 0.618,-0.176 v 0 0 c -0.075,-0.179 -0.18,-0.359 -0.18,-0.617 0,-0.176 0.105,-0.355 0.18,-0.535 0.179,-0.18 0.289,-0.289 0.468,-0.363 0.176,-0.106 0.356,-0.106 0.61,-0.106 0.109,0 0.289,0 0.363,0 0.105,0.106 0.289,0.18 0.289,0.289 0.066,0.071 0.18,0.18 0.18,0.36 0,0.179 0,0.25 -0.114,0.355 0,0.074 0,0.258 -0.066,0.364 v 0 0 l 0.609,-0.106 v 0 0 c 0.106,-0.184 0.106,-0.258 0.106,-0.363 0.074,-0.18 0.074,-0.25 0.074,-0.43 0,-0.363 -0.18,-0.719 -0.359,-1.008 -0.25,-0.179 -0.614,-0.359 -0.973,-0.359 -0.363,0 -0.719,0.105 -1.008,0.289 -0.254,0.18 -0.539,0.359 -0.722,0.609 -0.18,0.289 -0.25,0.649 -0.25,1.004 0,0.184 0.07,0.258 0.07,0.438 0,0.105 0,0.289 0.105,0.355 v 0 m 3.063,-0.066 -4.609,0.969 v 0.824 l 1.804,-0.465 v 0.105 0 0 c -0.183,0.075 -0.258,0.18 -0.258,0.36 -0.105,0.183 -0.175,0.254 -0.175,0.437 0,0.356 0.07,0.645 0.25,0.825 0.183,0.179 0.468,0.253 0.832,0.253 0.066,0 0.179,0 0.25,-0.074 0.179,0 0.285,0 0.359,0 v 0 0 l 1.547,-0.359 v -0.828 l -1.442,0.289 v 0 0 c -0.179,0.07 -0.285,0.07 -0.359,0.07 -0.105,0 -0.176,0 -0.355,0 -0.11,0 -0.18,0 -0.289,-0.07 -0.075,-0.106 -0.18,-0.18 -0.18,-0.36 0,-0.183 0.105,-0.289 0.18,-0.468 0.109,-0.075 0.289,-0.18 0.355,-0.25 0.184,0 0.363,-0.11 0.469,-0.11 v 0 0 l 1.621,-0.359 v -0.789 0 m 0,4.387 -3.168,-0.434 v 0.793 l 2.344,0.285 v 0 l -2.344,1.152 v 0.899 l 2.344,0.18 v 0 l -2.344,1.187 v 0.793 l 3.168,-1.691 v -0.899 l -2.445,-0.18 v 0 l 2.445,-1.187 v -0.898 0 m -1.906,5.683 v 0 c -0.184,0 -0.36,0.18 -0.539,0.25 -0.075,0.18 -0.18,0.36 -0.18,0.543 0,0.356 0.18,0.535 0.535,0.535 0.113,0 0.113,0 0.184,0 v 0 0 -1.328 m 0.539,2.047 v -2.227 0 0 c 0.363,0 0.543,0.067 0.652,0.25 0.18,0.18 0.18,0.36 0.18,0.649 0,0.359 -0.114,0.609 -0.18,0.973 v 0 0 l 0.609,-0.075 v 0 0 c 0,-0.179 0.106,-0.359 0.106,-0.539 0.074,-0.179 0.074,-0.359 0.074,-0.468 0,-0.54 -0.074,-0.895 -0.359,-1.149 -0.184,-0.289 -0.539,-0.363 -0.973,-0.363 -0.363,0 -0.719,0.074 -1.008,0.179 -0.254,0.184 -0.539,0.364 -0.722,0.61 -0.18,0.293 -0.25,0.652 -0.25,1.012 0,0.359 0.07,0.613 0.359,0.898 0.18,0.18 0.434,0.363 0.902,0.363 0.176,0 0.43,-0.113 0.61,-0.113 v 0 m -2.336,1.086 -0.797,0.172 v 0.832 l 0.797,-0.18 v -0.824 0 m 3.703,-0.727 -3.168,0.653 v 0.789 l 3.168,-0.61 v -0.832 0 m -3.168,4.68 0.648,-0.18 1.871,-1.871 v 1.508 l 0.649,-0.066 v -2.629 l -0.649,0.109 -1.871,1.977 v -1.434 l -0.648,0.067 v 2.519 0 M 40.9336,150.66 l -0.8984,3.485 v 0 0 c -0.1836,0.543 -0.3633,0.902 -0.6172,1.078 -0.2852,0.183 -0.5352,0.289 -0.8242,0.183 v 0 0 h -0.1797 v -4.746 h -3.3125 v 12.301 h 4.9336 v 0 0 c 1.2578,0 2.2656,-0.25 2.875,-0.793 0.7226,-0.535 1.0859,-1.367 1.0859,-2.516 0,-0.648 -0.1836,-1.078 -0.3633,-1.437 -0.2539,-0.469 -0.543,-0.719 -0.8984,-0.902 -0.3594,-0.286 -0.7969,-0.36 -1.1524,-0.469 v 0 0 -0.071 0 0 c 0.25,-0.109 0.4297,-0.183 0.6094,-0.289 0.2891,-0.179 0.3633,-0.355 0.543,-0.718 0.1758,-0.254 0.3554,-0.719 0.5351,-1.258 v 0 0 l 1.0821,-3.848 h -3.418 v 0 m -2.5938,7.192 v 0 2.769 h 0.8985 v 0 0 c 0.4336,0 0.7969,-0.176 1.082,-0.43 0.1836,-0.289 0.3594,-0.648 0.3594,-1.007 0,-0.434 -0.1758,-0.719 -0.4688,-0.969 -0.25,-0.289 -0.539,-0.363 -0.8984,-0.363 v 0 0 h -0.9727 m 6.9141,-2.629 c 0,0.832 0.1055,1.621 0.4688,2.34 0.25,0.722 0.7187,1.367 1.4375,1.8 0.6132,0.465 1.5117,0.645 2.6992,0.719 1.082,-0.074 1.9804,-0.254 2.5937,-0.719 0.7227,-0.433 1.1875,-1.078 1.5469,-1.8 0.2539,-0.719 0.4336,-1.508 0.4336,-2.34 0,-0.895 -0.1797,-1.614 -0.4336,-2.332 -0.3594,-0.793 -0.8242,-1.332 -1.5469,-1.801 -0.6133,-0.43 -1.5117,-0.719 -2.5937,-0.719 -1.1875,0 -2.086,0.289 -2.6992,0.719 -0.7188,0.469 -1.1875,1.008 -1.4375,1.801 -0.3633,0.718 -0.4688,1.437 -0.4688,2.332 v 0 m 3.3438,0 v 0 c 0,0.468 0,0.906 0.0742,1.261 0,0.469 0.1797,0.723 0.3633,1.012 0.1796,0.25 0.4687,0.356 0.8242,0.43 0.3594,-0.074 0.6133,-0.18 0.7929,-0.43 0.1836,-0.289 0.2891,-0.543 0.3594,-1.012 0,-0.355 0.1133,-0.793 0.1133,-1.261 0,-0.426 -0.1133,-0.895 -0.1133,-1.254 -0.0703,-0.434 -0.1758,-0.797 -0.3594,-0.969 -0.1796,-0.289 -0.4335,-0.473 -0.7929,-0.473 -0.3555,0 -0.6446,0.184 -0.8242,0.473 -0.1836,0.172 -0.3633,0.535 -0.3633,0.969 -0.0742,0.359 -0.0742,0.828 -0.0742,1.254 m 15.7343,4.605 v -7.66 0 0 c 0,-0.363 0,-0.719 0,-0.973 0,-0.289 0.1055,-0.465 0.1055,-0.535 v 0 0 H 61.457 v 0 0 c -0.0742,0.18 -0.0742,0.43 -0.0742,0.719 0,0.254 0,0.539 0,0.789 v 0 0 h -0.1094 v 0 0 c 0,-0.18 -0.0703,-0.43 -0.3593,-0.719 -0.1836,-0.254 -0.4297,-0.433 -0.793,-0.719 -0.3594,-0.179 -0.8281,-0.359 -1.4375,-0.359 -0.7227,0 -1.4414,0.289 -1.9844,0.719 -0.4687,0.543 -0.7187,1.258 -0.8242,2.265 v 0 0 6.473 h 3.2344 v -5.5 0 0 c 0,-0.902 0.289,-1.328 0.9062,-1.328 0.4688,0 0.7149,0.172 0.8985,0.535 0.1797,0.254 0.1797,0.61 0.1797,0.973 v 0 0 5.32 h 3.2382 v 0 m 1.0821,-2.156 v 2.156 h 1.6172 v 1.985 l 3.1679,0.968 v -2.953 h 1.8047 v -2.156 h -1.8047 v -3.883 0 0 c 0,-0.434 0.0742,-0.723 0.2539,-0.898 0.2891,-0.18 0.4688,-0.254 0.8242,-0.254 0.2579,0 0.543,0.074 0.7266,0.179 v 0 0 l 0.0703,-2.156 v 0 0 c -0.2539,-0.109 -0.539,-0.109 -0.9023,-0.183 -0.3555,0 -0.7188,-0.106 -1.2578,-0.106 -0.793,0 -1.5157,0.289 -2.0547,0.719 -0.5391,0.469 -0.8281,1.183 -0.8281,1.976 v 0 0 4.606 h -1.6172 v 0 m 10.5468,-1.617 v 0 c 0,0.609 0.1797,1.152 0.4297,1.508 0.1797,0.363 0.543,0.542 1.0117,0.542 0.5352,0 0.7891,-0.179 1.0782,-0.433 0.1836,-0.289 0.2539,-0.719 0.2539,-1.367 v 0 0 -0.25 h -2.7735 m 5.6485,-1.727 h -5.5742 v 0 0 c 0.1054,-0.719 0.3554,-1.262 0.7187,-1.512 0.4688,-0.289 1.0039,-0.359 1.6211,-0.359 0.4688,0 0.8984,0.07 1.3672,0.18 0.4297,0.179 0.8984,0.363 1.332,0.535 v 0 0 -2.266 0 0 c -0.3594,-0.066 -0.789,-0.246 -1.332,-0.355 -0.543,-0.074 -1.1875,-0.18 -1.8047,-0.18 -1.2578,0 -2.2617,0.289 -2.9844,0.719 -0.6133,0.543 -1.1484,1.078 -1.4414,1.91 -0.25,0.715 -0.4297,1.434 -0.4297,2.223 0,0.906 0.1797,1.73 0.543,2.449 0.2461,0.723 0.7891,1.258 1.4375,1.691 0.6133,0.465 1.3281,0.645 2.3398,0.719 0.8985,-0.074 1.6915,-0.254 2.3399,-0.719 0.6094,-0.433 1.0781,-0.968 1.4414,-1.8 0.2461,-0.719 0.4258,-1.434 0.4258,-2.34 v 0 0 -0.895 0 m -41.0391,12.516 -2.5195,9.359 v 0 -9.359 h -2.9492 v 12.304 h 4.9336 l 1.6132,-7.73 h 0.1133 l 1.7969,7.73 h 4.75 v -12.304 h -2.9492 v 9.359 h -0.1055 l -2.5937,-9.359 h -2.0899 v 0 m 9.8281,10.613 v 2.59 h 3.2422 v -2.59 h -3.2422 v 0 m 0,-10.613 v 9.176 h 3.2422 v -9.176 h -3.2422 v 0 m 4.5039,7.019 v 2.157 h 1.5079 V 178 l 3.2421,0.969 v -2.949 h 1.8047 v -2.157 h -1.8047 v -3.961 0 0 c 0,-0.355 0.1094,-0.644 0.2891,-0.824 0.1797,-0.183 0.4297,-0.254 0.7188,-0.254 0.3593,0 0.6132,0.071 0.7968,0.18 v 0 0 l 0.1055,-2.16 v 0 0 c -0.2891,-0.106 -0.543,-0.106 -0.9023,-0.18 -0.3555,0 -0.8243,-0.105 -1.2618,-0.105 -0.8984,0 -1.6211,0.285 -2.1562,0.714 -0.4688,0.473 -0.832,1.192 -0.832,1.985 v 0 0 4.605 h -1.5079 v 0 m 7.1993,0 v 2.157 h 1.5117 V 178 l 3.2383,0.969 v -2.949 h 1.8007 v -2.157 h -1.8007 v -3.961 0 0 c 0,-0.355 0.1132,-0.644 0.2929,-0.824 0.1758,-0.183 0.4297,-0.254 0.7149,-0.254 0.3633,0 0.6133,0.071 0.7929,0.18 v 0 0 l 0.1094,-2.16 v 0 0 c -0.289,-0.106 -0.539,-0.106 -0.9023,-0.18 -0.3594,0 -0.8281,-0.105 -1.2578,-0.105 -0.8985,0 -1.6211,0.285 -2.0899,0.714 -0.5351,0.473 -0.789,1.192 -0.8984,1.985 v 0 0 4.605 h -1.5117 v 0 m 10.5117,-1.621 v 0 c 0,0.61 0.1797,1.078 0.4687,1.508 0.1797,0.359 0.543,0.543 0.9727,0.543 0.4648,0 0.8281,-0.184 1.0078,-0.43 0.25,-0.289 0.3594,-0.832 0.3594,-1.367 v 0 0 -0.254 h -2.8086 m 5.6875,-1.726 h -5.582 v 0 0 c 0.0742,-0.719 0.2539,-1.258 0.7226,-1.512 0.4297,-0.289 0.9727,-0.363 1.6211,-0.363 0.4297,0 0.8984,0.074 1.3281,0.183 0.4688,0.18 0.9063,0.36 1.3672,0.539 v 0 0 -2.265 0 0 c -0.3555,-0.071 -0.8242,-0.254 -1.3672,-0.36 -0.5351,-0.074 -1.1523,-0.179 -1.7968,-0.179 -1.2579,0 -2.2305,0.285 -2.9532,0.714 -0.7187,0.543 -1.1875,1.086 -1.4414,1.911 -0.3594,0.718 -0.4687,1.441 -0.4687,2.234 0,0.895 0.1836,1.723 0.5429,2.445 0.2891,0.719 0.8243,1.254 1.4414,1.688 0.6485,0.469 1.3672,0.652 2.3399,0.652 0.8984,0 1.7266,-0.183 2.3359,-0.652 0.6524,-0.434 1.086,-1.078 1.4414,-1.801 0.2891,-0.719 0.4688,-1.437 0.4688,-2.332 v 0 0 -0.902 0 m 1.6211,-3.672 v 13.203 h 3.2383 v -13.203 h -3.2383 v 0 m 5.2187,0 v 13.203 h 3.2422 v -13.203 h -3.2422 v 0 m 10.4414,4.136 v 0 c 0,-0.355 -0.1093,-0.644 -0.1093,-1.003 -0.0743,-0.364 -0.2539,-0.719 -0.4297,-0.973 -0.2852,-0.289 -0.6485,-0.363 -1.0821,-0.363 -0.3593,0 -0.6445,0.074 -0.8242,0.254 -0.1836,0.183 -0.2539,0.468 -0.3633,0.828 0.1094,0.539 0.2891,0.968 0.7188,1.152 0.3594,0.289 1.0117,0.359 1.7266,0.359 v 0 0 h 0.3632 v -0.254 m 2.7735,1.801 v -3.957 0 0 c 0,-0.359 0,-0.719 0.1054,-1.078 0,-0.359 0,-0.648 0,-0.902 v 0 0 h -2.8086 v 0 0 c -0.0703,0.363 -0.0703,0.793 -0.0703,1.261 -0.4687,-0.542 -0.8984,-0.898 -1.3672,-1.187 -0.3632,-0.18 -0.8984,-0.359 -1.4414,-0.359 -0.7929,0 -1.5117,0.285 -1.9804,0.828 -0.5391,0.539 -0.793,1.254 -0.793,2.16 0,2.043 1.5156,3.129 4.7578,3.129 v 0 0 h 0.8242 v 0.285 0 0 c 0,0.254 -0.1836,0.613 -0.4687,0.789 -0.25,0.293 -0.7188,0.469 -1.336,0.469 -0.4609,0 -0.8945,-0.11 -1.4375,-0.289 -0.4648,-0.18 -0.8242,-0.356 -1.1875,-0.61 v 0 0 l -0.0742,2.34 v 0 0 c 0.3633,0.07 0.7969,0.254 1.4414,0.36 0.543,0.183 1.2578,0.183 1.9844,0.183 1.0781,0 1.8672,-0.113 2.4102,-0.473 0.6484,-0.253 1.0078,-0.722 1.1875,-1.148 0.1797,-0.539 0.2539,-1.082 0.2539,-1.801 v 0 m 1.7965,-5.937 v 7.265 0 0 c -0.07,0.364 -0.07,0.727 -0.07,1.082 0,0.36 0,0.649 -0.1054,0.829 v 0 0 h 3.0544 v 0 0 c 0,-0.18 0,-0.469 0,-0.723 0,-0.289 0,-0.535 0,-0.824 v 0 0 h 0.11 v 0 0 c 0,0.179 0.179,0.468 0.359,0.718 0.184,0.286 0.434,0.469 0.793,0.723 0.359,0.176 0.828,0.289 1.437,0.356 0.833,0 1.442,-0.25 1.985,-0.793 0.539,-0.469 0.824,-1.184 0.824,-2.262 v 0 0 -6.371 h -3.234 v 5.469 0 0 c 0,0.902 -0.289,1.367 -0.832,1.367 -0.43,0 -0.719,-0.18 -0.899,-0.539 -0.179,-0.36 -0.254,-0.828 -0.254,-1.258 v 0 0 -5.039 h -3.168 v 0 m 13.145,4.679 v 0 c 0,0.719 0.105,1.329 0.289,1.872 0.176,0.468 0.535,0.648 0.969,0.648 0.468,0 0.718,-0.18 0.898,-0.648 0.289,-0.543 0.363,-1.153 0.363,-1.872 0,-0.832 -0.074,-1.441 -0.363,-1.91 -0.18,-0.429 -0.43,-0.718 -0.898,-0.718 -0.434,0 -0.793,0.289 -0.969,0.718 -0.184,0.469 -0.289,1.078 -0.289,1.91 m 5.683,8.524 v -11.582 0 0 c 0,-0.539 0.075,-1.078 0.075,-1.621 v 0 0 h -3.059 v 0 0 c 0,0.429 -0.074,0.972 -0.074,1.441 v 0 0 0 0 0 c -0.359,-0.648 -0.723,-1.012 -1.192,-1.258 -0.355,-0.289 -0.789,-0.363 -1.257,-0.363 -0.793,0 -1.508,0.254 -1.977,0.609 -0.543,0.473 -0.898,1.086 -1.152,1.805 -0.184,0.719 -0.364,1.613 -0.364,2.512 0,0.723 0.18,1.441 0.364,2.16 0.254,0.723 0.609,1.258 1.078,1.801 0.433,0.469 1.078,0.652 1.875,0.652 0.644,0 1.078,-0.113 1.433,-0.363 0.469,-0.289 0.833,-0.649 1.086,-1.188 v 0 0 h 0.106 v 0 0 c -0.106,0.465 -0.106,1.008 -0.106,1.618 v 0 0 3.777 h 3.164 v 0" /><path
         id="path22"
         style="fill:#c14843;fill-opacity:1;fill-rule:nonzero;stroke:none"
         d="M 63.9023,134.723 97.2734,145.512 90,108.641 56.6992,97.3086 63.9023,134.723 v 0" /><path
         id="path24"
         style="fill:#ee2c30;fill-opacity:1;fill-rule:nonzero;stroke:none"
         d="M 63.9023,134.723 97.2734,145.512 90,108.641 56.6992,97.3086 63.9023,134.723" /><path
         id="path26"
         style="fill:none;stroke:#c14843;stroke-width:2.5;stroke-linecap:butt;stroke-linejoin:miter;stroke-miterlimit:4;stroke-dasharray:none;stroke-opacity:1"
         d="M 63.9023,134.723 97.2734,145.512 90,108.641 56.6992,97.3086 63.9023,134.723" /><path
         id="path28"
         style="fill:#fcfdfd;fill-opacity:1;fill-rule:nonzero;stroke:none"
         d="m 75.6758,134.184 v 0 l 6.7656,2.339 -1.9101,-9.718 8.0273,2.808 -1.6172,-8.269 -7.918,-2.703 -1.9101,-9.637 -6.7305,-2.34 1.8008,9.641 -8.0352,-2.809 1.6211,8.203 8.0352,2.77 1.8711,9.715" /><path
         id="path30"
         style="fill:#ffffff;fill-opacity:1;fill-rule:nonzero;stroke:none"
         d="m 75.6758,134.184 6.7656,2.339 -1.9101,-9.718 8.0273,2.808 -1.6172,-8.269 -7.918,-2.703 -1.9101,-9.637 -6.7305,-2.34 1.8008,9.641 -8.0352,-2.809 1.6211,8.203 8.0352,2.77 1.8711,9.715" /><path
         id="path32"
         style="fill:none;stroke:#fcfdfd;stroke-width:2.5;stroke-linecap:butt;stroke-linejoin:miter;stroke-miterlimit:4;stroke-dasharray:none;stroke-opacity:1"
         d="m 75.6758,134.184 6.7656,2.339 -1.9101,-9.718 8.0273,2.808 -1.6172,-8.269 -7.918,-2.703 -1.9101,-9.637 -6.7305,-2.34 1.8008,9.641 -8.0352,-2.809 1.6211,8.203 8.0352,2.77 1.8711,9.715" /><path
         id="path34"
         style="fill:#ffffff;fill-opacity:1;fill-rule:nonzero;stroke:none"
         d="m 174.496,145.621 -3.851,-22.48 h -50.872 l -3.671,-19.969 v 0 0 c 28.441,0 45.902,-11.4376 45.902,-37.59 0,-17.7304 -9.652,-30.5742 -22.969,-38.2382 v 0 0 H 72.3633 l 4.5703,23.4921 v 0 0 c 9.2891,-5.7578 18.8281,-7.1953 26.7504,-7.1953 13.929,0 26.82,5.9336 26.82,20.1446 0,13.5586 -11.699,17.9882 -23.941,17.9882 -7.9224,0 -15.5903,-1.0859 -22.6802,-2.6289 v 0 0 l 13.3906,66.4765 h 77.2226 v 0" /></g></g></svg>