<?xml version="1.0" encoding="UTF-8" standalone="no"?>
<svg
   xmlns:dc="http://purl.org/dc/elements/1.1/"
   xmlns:cc="http://creativecommons.org/ns#"
   xmlns:rdf="http://www.w3.org/1999/02/22-rdf-syntax-ns#"
   xmlns:svg="http://www.w3.org/2000/svg"
   xmlns="http://www.w3.org/2000/svg"
   viewBox="0 0 107.30667 107.26667"
   height="107.26667"
   width="107.30667"
   xml:space="preserve"
   id="svg2"
   version="1.1"><metadata
     id="metadata8"><rdf:RDF><cc:Work
         rdf:about=""><dc:format>image/svg+xml</dc:format><dc:type
           rdf:resource="http://purl.org/dc/dcmitype/StillImage" /></cc:Work></rdf:RDF></metadata><defs
     id="defs6" /><g
     transform="matrix(1.3333333,0,0,-1.3333333,0,107.26667)"
     id="g10"><g
       transform="scale(0.1)"
       id="g12"><path
         id="path14"
         style="fill:#ffffff;fill-opacity:1;fill-rule:nonzero;stroke:none"
         d="M 402.457,803.5 1.41797,402.461 402.457,1.41797 803.355,402.461 402.457,803.5" /><path
         id="path16"
         style="fill:none;stroke:#231f20;stroke-width:2.83500004;stroke-linecap:butt;stroke-linejoin:round;stroke-miterlimit:4;stroke-dasharray:none;stroke-opacity:1"
         d="M 402.457,803.5 1.41797,402.461 402.457,1.41797 803.355,402.461 402.457,803.5" /><path
         id="path18"
         style="fill:#af201c;fill-opacity:1;fill-rule:nonzero;stroke:none"
         d="M 402.816,747.199 57.5742,401.957 402.816,56.7188 747.984,401.957 402.816,747.199" /><path
         id="path20"
         style="fill:#ffffff;fill-opacity:1;fill-rule:nonzero;stroke:none"
         d="m 415.484,561.582 c -0.793,-3.242 -1.945,-7.055 -3.457,-10.082 -3.593,-6.984 -10.937,-11.734 -18.504,-12.094 -8.421,-0.218 -14.898,7.555 -16.125,15.91 -0.718,5.403 0.219,11.954 1.801,17.207 v 0 l 36.285,-10.941 v 0" /><path
         id="path22"
         style="fill:#ffffff;fill-opacity:1;fill-rule:nonzero;stroke:none"
         d="m 379.629,576.051 c 0.937,3.027 2.09,6.262 3.457,9.07 2.809,6.051 8.57,10.801 15.047,11.668 7.129,0.863 14.402,-3.746 17.351,-10.078 v 0 l 11.309,-25.203 -47.164,14.543 v 0" /><path
         id="path24"
         style="fill:#ffffff;fill-opacity:1;fill-rule:nonzero;stroke:none"
         d="m 457.387,554.883 41.047,-36.141 v 0 c 3.164,-2.808 2.441,-8.281 0.937,-12.242 -1.73,-4.605 -6.914,-11.016 -10.586,-14.187 -1.301,-1.004 -3.027,-1.868 -4.465,-1.293 -2.09,0.718 -3.75,3.601 -4.675,5.543 v 0 l -5.118,10.8 v 0 c -2.589,5.258 -7.558,13.68 -10.871,18.723 v 0 l -13.105,17.855 v 0 c -1.153,0.938 -4.891,4.032 -5.977,5.184 -0.789,0.867 -1.297,2.086 -1.004,3.238 0.86,4.106 10.723,5.399 13.817,2.52 v 0" /><path
         id="path26"
         style="fill:#ffffff;fill-opacity:1;fill-rule:nonzero;stroke:none"
         d="m 482.23,481.012 c -4.246,12.027 -10.007,24.265 -16.347,35.496 -4.383,8.062 -9.785,16.558 -16.199,23.613 -4.387,4.824 -10.442,9.219 -16.848,10.156 -7.41,1.149 -15.984,-2.523 -22.246,-6.625 v 0 l -74.375,-47.379 v 0 c -7.703,3.098 -16.125,-2.156 -16.703,-10.363 -0.434,-7.781 7.847,-14.617 15.406,-12.387 2.449,0.645 4.609,2.161 6.195,4.176 v 0 l 16.559,-13.75 -33.121,-37.152 -6.192,-7.129 v 0 c -11.23,9.359 -24.48,13.969 -39.023,13.68 -29.02,-0.793 -53.785,-23.18 -57.168,-52.055 -1.73,-14.398 1.656,-28.008 9.789,-39.965 4.465,-6.555 10.152,-12.238 16.922,-16.555 19.871,-12.675 47.59,-11.949 67.035,2.442 19.223,14.336 27.859,40.398 21.453,63.367 -2.16,7.559 -5.832,14.688 -10.801,20.805 v 0 l 14.114,16.347 24.984,-94.679 36.504,-11.953 v 0 c -7.633,-39.02 24.77,-74.09 64.371,-69.911 31.816,3.379 55.359,32.18 52.703,63.575 -1.297,15.761 -8.211,29.308 -20.234,39.742 -11.953,10.437 -26.356,15.262 -42.332,14.328 v 0 l -4.328,26.785 31.613,35.926 v 0 c 2.879,3.312 5.105,7.418 5.684,11.808 0.507,3.602 0.214,7.415 -0.364,11.016 -1.433,9.07 -3.886,17.93 -7.051,26.641 v 0" /><path
         id="path28"
         style="fill:#af201c;fill-opacity:1;fill-rule:nonzero;stroke:none"
         d="m 438.383,460.059 -47.379,-10.079 -1.293,-12.816 -30.168,11.016 15.695,16.922 -21.957,18.285 55.727,33.047 29.375,-56.375" /><path
         id="path30"
         style="fill:#af201c;fill-opacity:1;fill-rule:nonzero;stroke:none"
         d="m 459.691,352.496 c 19.016,0 36.008,-12.965 41.114,-30.746 5.039,-17.855 -2.227,-37.66 -18.145,-47.953 -14.109,-9.004 -32.539,-8.711 -46.433,0.363 -14.258,9.289 -21.321,26.199 -18.868,42.336 v 0 l 39.891,-12.601 v 0 c 2.297,-0.801 4.895,-0.293 6.836,1.152 2.375,1.652 3.457,4.601 2.949,7.484 v 0 l -7.344,39.965 v 0" /><path
         id="path32"
         style="fill:#af201c;fill-opacity:1;fill-rule:nonzero;stroke:none"
         d="m 441.625,320.887 9.719,-3.387 v 0 c 0.574,-0.148 1.219,0 1.582,0.508 0.293,0.285 0.429,0.711 0.359,1.074 v 0 l -5.332,31.828 v 0 c -5.683,-1.367 -11.015,-4.035 -15.547,-7.855 -5.039,-4.098 -8.926,-9.352 -11.375,-15.477 v 0 l 20.594,-6.691 v 0" /><path
         id="path34"
         style="fill:#af201c;fill-opacity:1;fill-rule:nonzero;stroke:none"
         d="m 412.387,416.934 14.258,-5.547 -22.461,-39.379 8.203,44.926" /><path
         id="path36"
         style="fill:#af201c;fill-opacity:1;fill-rule:nonzero;stroke:none"
         d="m 437.445,430.758 -23.113,-2.379 18.289,-6.481 4.824,8.86" /><path
         id="path38"
         style="fill:#af201c;fill-opacity:1;fill-rule:nonzero;stroke:none"
         d="m 308.063,407.359 c -8.786,7.121 -19.004,10.364 -30.313,9.43 -22.461,-1.797 -39.891,-21.457 -38.879,-44.066 1.008,-22.102 19.438,-40.106 41.469,-40.535 21.746,-0.43 40.539,16.128 43.058,37.73 1.153,10.727 -1.507,20.879 -7.921,29.59 v 0 l -25.051,-27.5 -10.086,-2.668 v 0 c -3.598,-0.938 -7.27,1.515 -7.699,5.187 -0.289,3.02 1.582,5.758 4.464,6.551 v 0 l 7.774,2.086 23.184,24.195 v 0" /><path
         id="path40"
         style="fill:#af201c;fill-opacity:1;fill-rule:nonzero;stroke:none"
         d="m 405.262,332.91 c 3.453,8.856 9.148,16.633 16.492,22.68 6.621,5.617 14.687,9.578 23.184,11.445 v 0 l -2.668,17.715 -37.942,-37.875 v 0 c -2.949,-2.801 -6.984,-4.246 -11.019,-3.742 -7.129,0.941 -12.309,7.273 -11.446,14.469 v 0 l 7.125,67.683 -37.582,13.754 -1.656,-1.66 24.77,-94.324 30.742,-10.145 v 0" /></g></g></svg>