<?xml version="1.0" encoding="UTF-8" standalone="no"?>
<svg
   xmlns:dc="http://purl.org/dc/elements/1.1/"
   xmlns:cc="http://creativecommons.org/ns#"
   xmlns:rdf="http://www.w3.org/1999/02/22-rdf-syntax-ns#"
   xmlns:svg="http://www.w3.org/2000/svg"
   xmlns="http://www.w3.org/2000/svg"
   viewBox="0 0 38.373333 38.080002"
   height="38.080002"
   width="38.373333"
   xml:space="preserve"
   id="svg2"
   version="1.1"><metadata
     id="metadata8"><rdf:RDF><cc:Work
         rdf:about=""><dc:format>image/svg+xml</dc:format><dc:type
           rdf:resource="http://purl.org/dc/dcmitype/StillImage" /></cc:Work></rdf:RDF></metadata><defs
     id="defs6" /><g
     transform="matrix(1.3333333,0,0,-1.3333333,0,38.08)"
     id="g10"><g
       transform="scale(0.1)"
       id="g12"><path
         id="path14"
         style="fill:#231f20;fill-opacity:1;fill-rule:nonzero;stroke:none"
         d="M 0,0 V 285.625 H 287.777 V 0 H 0 M 0.753906,284.914 V 0.714844 H 287.094 V 284.914 H 0.753906" /><path
         id="path16"
         style="fill:#b1b0ae;fill-opacity:1;fill-rule:nonzero;stroke:none"
         d="M 14.4141,271.348 H 273.422 V 14.2773 H 14.4141 V 271.348 M 176.938,107.871 v 0 c -5.157,-1.601 -9.383,-5.332 -11.68,-10.078 v 0 l 14.375,-4.5703 -2.695,14.6483 m -43.637,59.902 v 0 l 25.726,14.036 v 0 0 c 4.133,-7.258 13.692,-24.653 13.692,-24.653 0,0 -14.121,-3.511 -21.172,-4.961 v 0 0 l -0.625,-5.625 -13.317,4.973 6.461,7.246 -10.765,8.984 m 24.613,-67.695 v 0 c 3.215,7.395 9.668,13.125 17.637,15.293 v 0 l -1.465,7.832 v 0 0 c -8.398,-8.808 -16.426,-18.23 -20.801,-18.66 -4.383,-0.48 -6.211,2.898 -6.211,5.508 0,3.179 1.102,10.437 1.102,12.429 0,0 1.164,10.938 2.082,17.942 v 0 0 l -17.164,6.402 11.32,-42.469 13.5,-4.277 m 9.883,103.938 v 0 c -2.195,4.968 -1.543,13.843 -9.93,15.664 -2.199,0.465 -7.492,-0.188 -9.785,-5.149 -0.254,-0.547 -2.082,-4.89 -2.082,-4.89 v 0 0 l 21.797,-5.625 m -5.547,-2.278 v 0 1.192 l -16.723,4.597 v 0 0 c -0.437,-1.988 -1.093,-3.797 -1.093,-5.613 -0.075,-4.348 1.824,-9.426 7.113,-9.426 3.828,0 10.703,3.813 10.703,9.25 m 40.586,-20.73 v 0 c 0,3.687 -18.613,21.453 -22.813,19.824 -1.464,-0.551 -2.636,-0.551 -3.543,-1.816 -1.027,-1.633 3.172,-3.442 5,-5.684 4.012,-5.187 6.571,-9.531 8.875,-14.144 0.547,-1.012 2.618,-8.075 5.645,-8.075 3.73,0 6.836,8.516 6.836,9.895 M 183.012,108.73 v 0 l 3.496,-19.4995 v 0 0 c 0.371,-2.543 -1.199,-3.8086 -4.121,-3.1563 -4.414,1.4141 -11.602,3.6602 -18.828,5.8672 -0.118,-0.7578 -0.157,-1.5508 -0.157,-2.3516 0,-10.5859 8.692,-19.207 19.278,-19.207 10.656,0 19.336,8.6211 19.336,19.207 0,10.3985 -8.496,18.9572 -19.004,19.1402 m -60.739,25.938 v 0 l 6.094,6.738 v 0 0 c 2.559,-9.961 11.5,-42.1091 11.5,-42.1091 0,0 7.375,-2.2852 16.309,-5.0391 -0.281,-1.5508 -0.43,-3.1133 -0.43,-4.7461 0,-14.7851 12.051,-26.7461 26.934,-26.7461 14.863,0 27.011,11.961 27.011,26.7461 0,14.7583 -12.148,26.8163 -27.011,26.8163 -0.36,0 -0.692,0 -1.055,-0.027 v 0 l -2.227,12.351 v 0 0 c 7.657,7.871 17.891,17.11 17.336,22.832 -1.093,10.696 -14.523,44.649 -26.203,46.282 -1.64,0 -1.718,0.183 -2.187,0.183 -6.289,0 -29.754,-17.109 -44.063,-26.347 -4.558,1.269 -9.23,-4.637 -5.652,-8.997 2.004,-2.527 4.926,-2.605 7.004,-1.511 1.64,0.722 2.734,2.246 3.031,3.879 2.551,-2.246 7.004,-6.528 7.004,-6.528 -5.84,-6.519 -10.766,-12.027 -14.961,-16.668 -0.586,-0.625 -1.457,-1.632 -2.594,-2.871 -4.672,3.77 -10.617,6.055 -17.117,6.055 -14.8554,0 -26.8983,-11.953 -26.8983,-26.746 0,-14.746 12.0429,-26.7111 26.8983,-26.7111 14.891,0 27.012,11.9651 27.012,26.7111 0,6.199 -2.153,11.922 -5.735,16.453 m 38.395,8.359 14.609,1.914 -3.906,-5.976 -10.703,4.062 m -3.906,-25.984 2.746,20 8.387,-3.266 -11.133,-16.734 m -39.715,11.844 v 0 c 2.078,-3.035 3.281,-6.739 3.281,-10.684 0,-10.586 -8.648,-19.2069 -19.344,-19.2069 -10.5856,0 -19.234,8.6209 -19.234,19.2069 0,10.613 8.6484,19.133 19.234,19.133 4.524,0 8.688,-1.523 11.977,-4.094 -3.215,-3.554 -6.941,-7.683 -10.332,-11.418 -2.8165,-0.801 -4.9298,-1.629 -4.3829,-4.527 0.293,-1.457 2.3009,-2.356 3.6489,-1.817 0.48,0.106 1.027,0.29 4.125,1.2 v 0 0 l 11.027,12.207" /><path
         id="path18"
         style="fill:#322f2f;fill-opacity:1;fill-rule:nonzero;stroke:none"
         d="m 14.457,54.2109 218.75,217.1951 h 8.652 L 14.457,45.6914 v 8.5195" /><path
         id="path20"
         style="fill:#322f2f;fill-opacity:1;fill-rule:nonzero;stroke:none"
         d="M 14.457,28.8281 258.773,271.406 h 8.477 L 14.457,20.1953 v 8.6328" /><path
         id="path22"
         style="fill:#322f2f;fill-opacity:1;fill-rule:nonzero;stroke:none"
         d="M 25.1211,14.2188 273.383,260.781 v -8.593 L 33.707,14.2188 h -8.5859" /><path
         id="path24"
         style="fill:#322f2f;fill-opacity:1;fill-rule:nonzero;stroke:none"
         d="M 51.418,14.2188 273.383,234.68 v -8.594 L 60,14.2188 h -8.582" /></g></g></svg>