<?xml version="1.0" encoding="UTF-8" standalone="no"?>
<svg
   xmlns:dc="http://purl.org/dc/elements/1.1/"
   xmlns:cc="http://creativecommons.org/ns#"
   xmlns:rdf="http://www.w3.org/1999/02/22-rdf-syntax-ns#"
   xmlns:svg="http://www.w3.org/2000/svg"
   xmlns="http://www.w3.org/2000/svg"
   viewBox="0 0 176.12 153.45332"
   height="153.45332"
   width="176.12"
   xml:space="preserve"
   id="svg2"
   version="1.1"><metadata
     id="metadata8"><rdf:RDF><cc:Work
         rdf:about=""><dc:format>image/svg+xml</dc:format><dc:type
           rdf:resource="http://purl.org/dc/dcmitype/StillImage" /></cc:Work></rdf:RDF></metadata><defs
     id="defs6" /><g
     transform="matrix(1.3333333,0,0,-1.3333333,0,153.45333)"
     id="g10"><g
       transform="scale(0.1)"
       id="g12"><path
         id="path14"
         style="fill:#ffffff;fill-opacity:1;fill-rule:nonzero;stroke:none"
         d="M 1.41797,1.41797 H 1319.528 V 1149.448 H 1.41797 Z" /><path
         id="path16"
         style="fill:none;stroke:#231f20;stroke-width:2.83500004;stroke-linecap:butt;stroke-linejoin:miter;stroke-miterlimit:4;stroke-dasharray:none;stroke-opacity:1"
         d="M 1.41797,1.41797 H 1319.53 V 1149.45 H 1.41797 V 1.41797" /><path
         id="path18"
         style="fill:#1a67bb;fill-opacity:1;fill-rule:nonzero;stroke:none"
         d="m 18.3477,18.3477 h 1284.09 v 1114.02 H 18.3477 Z" /><path
         id="path20"
         style="fill:#ffffff;fill-opacity:1;fill-rule:nonzero;stroke:none"
         d="M 486.113,288.367 270.938,164.199 V 79.1602 h -85.04 V 801.992 l -61.519,-14.769 v 0 c -2.891,-0.696 -5.918,0.558 -7.449,3.129 -1.508,2.593 -1.188,5.828 0.8,8.035 v 0 l 105.625,117.304 v 0 c 2.696,3.004 7.407,3.004 10.106,0 v 0 L 339.086,798.387 v 0 c 2.008,-2.207 2.309,-5.442 0.797,-8.035 -1.535,-2.571 -4.535,-3.825 -7.426,-3.129 v 0 l -61.519,14.769 V 716.957 L 487.234,592.086 v 0 c 19.856,6.699 41.672,-2.07 51.344,-20.645 9.68,-18.625 4.367,-41.496 -12.547,-53.898 v 0 l 0.391,-154.262 v 0 c 17.039,-12.551 21.922,-36.57 11.859,-55.215 -10.051,-18.632 -32.297,-27.043 -52.168,-19.699 v 0" /><path
         id="path22"
         style="fill:#ffffff;fill-opacity:1;fill-rule:nonzero;stroke:none"
         d="m 181.602,971.965 h 16.695 v 0 c -0.152,2.547 -0.324,5.265 -0.5,8.187 -0.168,2.719 -0.168,5.614 -0.168,8.504 v 0 70.784 h -17.738 v -51.32 0 c 0,-6.82 -1.379,-12.292 -3.93,-16.37 -2.547,-4.105 -6.824,-6.152 -12.441,-6.152 -4.618,0 -7.86,1.531 -10.063,4.597 -2.227,3.086 -3.414,8.032 -3.414,14.845 v 0 54.4 h -17.734 v -58.49 0 c 0,-9.2 2.031,-16.548 6.132,-22.009 4.082,-5.445 10.563,-8.164 19.442,-8.164 5.961,0 10.734,1.336 14.32,4.25 3.414,2.727 6.156,6.141 8.36,10.223 v 0 h 0.347 l 0.692,-13.285 v 0" /><path
         id="path24"
         style="fill:#ffffff;fill-opacity:1;fill-rule:nonzero;stroke:none"
         d="m 219.441,971.965 h 57.805 v 14.144 h -39.574 l 38.558,57.821 v 15.51 h -55.601 v -14.15 h 37.691 l -38.879,-57.645 v -15.68 0" /><path
         id="path26"
         style="fill:#ffffff;fill-opacity:1;fill-rule:nonzero;stroke:none"
         d="m 310.594,1010.67 h 49.961 v 5.96 c 0,7.69 -0.844,14.17 -2.375,19.79 -1.535,5.63 -3.762,10.24 -6.653,13.82 -2.894,3.59 -6.484,6.14 -10.414,7.84 -4.082,1.71 -8.531,2.57 -13.304,2.57 -5.442,0 -10.387,-1.04 -14.664,-3.24 -4.43,-2.22 -8.188,-5.46 -11.086,-9.39 -2.887,-4.09 -5.286,-8.86 -6.825,-14.5 -1.535,-5.61 -2.375,-11.77 -2.375,-18.42 0,-6.31 0.84,-12.27 2.375,-17.737 1.539,-5.465 3.762,-10.062 7,-13.976 3.067,-3.93 7,-6.996 11.774,-9.223 4.769,-2.351 10.39,-3.387 16.719,-3.387 5.441,0 10.386,0.516 14.664,1.684 4.257,1.187 7.672,2.398 10.562,3.586 v 0 l -0.84,14.836 v 0 c -2.226,-1.531 -5.125,-3.067 -8.535,-4.598 -3.586,-1.535 -7.84,-2.398 -12.961,-2.398 -8.183,0 -13.992,2.222 -17.582,6.828 -3.558,4.426 -5.441,11.075 -5.441,19.955 v 0" /><path
         id="path28"
         style="fill:#ffffff;fill-opacity:1;fill-rule:nonzero;stroke:none"
         d="m 381.527,971.965 h 17.735 v 47.065 c 0,4.43 0.519,8.19 1.535,11.42 1.035,3.25 2.394,5.82 4.101,7.85 1.707,1.88 3.758,3.41 5.961,4.44 2.227,0.85 4.454,1.37 7,1.37 1.012,0 2.055,0 2.895,-0.18 0.863,-0.17 1.879,-0.34 2.742,-0.52 v 0 17.07 0 c -0.348,0 -0.687,0 -0.863,0.17 -0.172,0 -0.52,0 -0.84,0 -3.242,0 -6.16,-0.34 -8.707,-1.21 -2.547,-0.84 -4.602,-2.03 -6.481,-3.56 -1.878,-1.53 -3.589,-3.24 -4.945,-5.12 -1.363,-1.88 -2.57,-3.94 -3.414,-6.15 v 0 h -0.348 v 0 c 0,0.68 0,1.7 0,3.08 -0.168,1.36 -0.168,2.9 -0.343,4.43 -0.172,1.53 -0.172,2.9 -0.172,4.26 -0.153,1.36 -0.153,2.39 -0.153,3.06 v 0 h -16.371 v 0 c 0.153,-2.55 0.321,-5.26 0.493,-8.01 0.175,-2.89 0.175,-5.79 0.175,-8.69 v 0 -70.775 0" /><path
         id="path30"
         style="fill:#ffffff;fill-opacity:1;fill-rule:nonzero;stroke:none"
         d="m 438.398,971.965 h 17.735 v 51.835 c 0,6.83 1.383,12.29 4.277,16.2 2.723,3.93 6.824,5.82 12.442,5.82 4.597,0 7.839,-1.54 10.07,-4.61 2.047,-3.08 3.062,-8.03 3.062,-14.84 v 0 -54.405 h 17.735 v 58.485 0 c 0,9.21 -2.031,16.55 -6.137,22.01 -4.082,5.45 -10.562,8.19 -19.437,8.19 -5.122,0 -9.547,-1.21 -13.477,-3.76 -3.91,-2.54 -7,-6.13 -9.203,-10.73 v 0 h -0.348 v 0 c 0,0.5 0,1.53 0,2.72 -0.172,1.19 -0.172,2.55 -0.344,3.91 -0.175,1.39 -0.175,2.74 -0.175,3.93 -0.168,1.19 -0.168,2.23 -0.168,2.72 v 0 h -16.7 v 0 c 0.153,-2.55 0.325,-5.26 0.497,-8.01 0.171,-2.89 0.171,-5.79 0.171,-8.69 v 0 -70.775 0" /><path
         id="path32"
         style="fill:#ffffff;fill-opacity:1;fill-rule:nonzero;stroke:none"
         d="m 66.9023,971.965 h 57.4767 v 15.164 H 85.3086 V 1091 H 66.9023 v -119.035 0" /><path
         id="path34"
         style="fill:#ffffff;fill-opacity:1;fill-rule:nonzero;stroke:none"
         d="m 610.918,513.809 h 24.301 v 0 c 4.472,0 8.445,0.625 11.902,1.906 3.434,1.16 6.262,2.957 8.684,5.113 2.437,2.184 4.234,4.86 5.508,7.934 1.144,2.957 1.792,6.281 1.792,9.847 v 0 0 0 c 0,3.45 -0.523,6.411 -1.406,9.09 -1.035,2.551 -2.308,4.731 -3.844,6.524 -1.664,1.664 -3.457,3.066 -5.378,4.101 -2.032,1.016 -4.082,1.664 -6.133,2.031 v 0 0.258 0 c 1.922,0.653 3.715,1.407 5.508,2.575 1.664,1.015 3.199,2.289 4.597,3.949 1.406,1.668 2.422,3.586 3.324,5.898 0.891,2.16 1.278,4.86 1.278,7.801 0,7.168 -2.051,12.656 -6.133,16.5 -4.234,3.844 -10.758,5.746 -19.699,5.746 v 0 h -24.301 v -89.273 0" /><path
         id="path36"
         style="fill:#ffffff;fill-opacity:1;fill-rule:nonzero;stroke:none"
         d="m 715.941,513.809 h 12.539 v 0 c -0.125,1.906 -0.253,3.953 -0.378,6.136 -0.137,2.051 -0.137,4.211 -0.137,6.395 v 0 53.09 h -13.301 v -38.512 0 c 0,-5.121 -1.035,-9.199 -2.941,-12.27 -1.922,-3.085 -5.118,-4.621 -9.344,-4.621 -3.457,0 -5.879,1.164 -7.539,3.457 -1.672,2.313 -2.578,6.028 -2.578,11.125 v 0 40.821 H 678.98 v -43.887 0 c 0,-6.895 1.532,-12.402 4.598,-16.504 3.067,-4.09 7.93,-6.117 14.582,-6.117 4.473,0 8.055,0.996 10.731,3.172 2.578,2.058 4.629,4.609 6.289,7.676 v 0 h 0.234 l 0.527,-9.961 v 0" /><path
         id="path38"
         style="fill:#ffffff;fill-opacity:1;fill-rule:nonzero;stroke:none"
         d="m 787.992,515.574 -0.75,11.281 v 0 c -1.406,-0.91 -3.332,-1.664 -5.508,-2.308 -2.16,-0.652 -4.472,-1.016 -6.66,-1.016 -5.742,0 -10.109,2.032 -13.176,6.133 -3.191,4.082 -4.726,9.59 -4.726,16.504 0,8.055 1.535,13.93 4.601,17.773 3.067,3.848 7.43,5.77 13.047,5.77 2.442,0 4.618,-0.262 6.524,-0.906 1.922,-0.629 3.582,-1.278 5.242,-2.184 v 0 l 0.656,11.149 v 0 c -1.672,0.625 -3.594,1.273 -6.008,1.789 -2.441,0.496 -4.863,0.757 -7.304,0.757 -4.989,0 -9.461,-0.757 -13.301,-2.421 -3.848,-1.665 -7.039,-4.102 -9.59,-7.04 -2.578,-3.066 -4.473,-6.652 -5.769,-10.867 -1.27,-4.23 -1.907,-8.699 -1.907,-13.695 0,-4.598 0.637,-8.957 1.778,-13.047 1.164,-4.101 3.086,-7.683 5.507,-10.625 2.442,-2.937 5.508,-5.375 9.329,-7.047 3.718,-1.765 8.191,-2.652 13.308,-2.652 2.832,0 5.508,0.262 8.184,0.777 2.707,0.606 4.863,1.25 6.523,1.875 v 0" /><path
         id="path40"
         style="fill:#ffffff;fill-opacity:1;fill-rule:nonzero;stroke:none"
         d="m 800.668,513.809 h 13.293 v 38.882 c 0,5.118 1.035,9.2 3.211,12.157 2.031,2.941 5.098,4.34 9.336,4.34 3.457,0 5.871,-1.141 7.539,-3.45 1.535,-2.316 2.305,-6.008 2.305,-11.125 v 0 -40.804 h 13.312 v 43.871 0 c 0,6.91 -1.535,12.398 -4.601,16.5 -3.086,4.082 -7.95,6.136 -14.598,6.136 -4.348,0 -7.805,-1.015 -10.227,-2.937 -2.566,-2.051 -4.617,-4.215 -6.023,-6.656 v 0 h -0.254 v 39.007 h -13.293 v -95.921 0" /><path
         id="path42"
         style="fill:#ffffff;fill-opacity:1;fill-rule:nonzero;stroke:none"
         d="m 868.93,513.809 h 13.3 v 35.296 c 0,3.325 0.391,6.133 1.145,8.575 0.781,2.418 1.797,4.34 3.094,5.875 1.269,1.402 2.804,2.57 4.472,3.324 1.661,0.648 3.321,1.035 5.247,1.035 0.75,0 1.531,0 2.156,-0.125 0.656,-0.133 1.426,-0.262 2.051,-0.391 v 0 12.786 0 c -0.254,0 -0.516,0 -0.625,0.132 -0.125,0 -0.379,0 -0.645,0 -2.441,0 -4.598,-0.261 -6.523,-0.886 -1.922,-0.653 -3.457,-1.535 -4.864,-2.703 -1.406,-1.141 -2.695,-2.414 -3.711,-3.821 -1.015,-1.402 -1.922,-2.961 -2.547,-4.621 v 0 h -0.265 v 0 c 0,0.52 0,1.293 0,2.313 -0.125,1.011 -0.125,2.179 -0.254,3.324 -0.137,1.144 -0.137,2.18 -0.137,3.195 -0.125,1.035 -0.125,1.793 -0.125,2.313 v 0 h -12.265 v 0 c 0.105,-1.926 0.234,-3.977 0.371,-6.028 0.125,-2.156 0.125,-4.339 0.125,-6.523 v 0 -53.07 0" /><path
         id="path44"
         style="fill:#ffffff;fill-opacity:1;fill-rule:nonzero;stroke:none"
         d="m 944.418,513.809 h 12.031 v 0 c -0.125,1.14 -0.39,2.812 -0.515,4.73 -0.129,1.899 -0.254,3.957 -0.254,6.133 v 0 31.344 0 c 0,4.339 -0.371,7.925 -1.282,10.738 -0.886,2.824 -2.312,5.117 -3.972,7.039 -1.406,1.66 -3.692,3.195 -6.758,4.602 -3.098,1.293 -7.043,1.921 -12.031,1.921 -4.239,0 -7.93,-0.496 -11.125,-1.539 -3.203,-1.007 -6.16,-2.175 -8.574,-3.582 v 0 l 1.015,-11.382 v 0 c 1.66,1.664 4.102,3.199 7.297,4.601 3.066,1.297 6.395,1.922 10.105,1.922 4.739,0 8.059,-1.273 10.09,-3.824 1.035,-1.297 1.797,-2.699 2.188,-4.231 0.39,-1.668 0.515,-3.457 0.515,-5.508 v 0 -2.679 h -4.734 v 0 c -10.625,0 -18.809,-1.793 -24.316,-5.25 -5.489,-3.586 -8.301,-9.199 -8.301,-16.891 0,-3.066 0.496,-5.742 1.543,-8.183 1.004,-2.422 2.41,-4.34 4.207,-6.008 1.66,-1.668 3.711,-2.813 6.008,-3.582 2.304,-0.871 4.746,-1.258 7.422,-1.258 4.863,0 8.711,0.996 11.648,3.047 2.805,1.922 5.117,4.234 6.777,6.785 v 0 h 0.266 v 0 c 0,-0.391 0,-1.016 0.105,-1.926 0,-0.883 0,-1.789 0.129,-2.676 0.125,-0.906 0.125,-1.797 0.262,-2.578 0.129,-0.879 0.129,-1.394 0.254,-1.765 v 0" /><path
         id="path46"
         style="fill:#ffffff;fill-opacity:1;fill-rule:nonzero;stroke:none"
         d="m 973.629,513.809 h 13.301 v 65.621 h -13.301 v -65.621 0" /><path
         id="path48"
         style="fill:#ffffff;fill-opacity:1;fill-rule:nonzero;stroke:none"
         d="m 973.258,592.605 h 14.062 v 14.192 h -14.062 v -14.192 0" /><path
         id="path50"
         style="fill:#ffffff;fill-opacity:1;fill-rule:nonzero;stroke:none"
         d="m 1005.52,513.809 h 13.31 v 38.882 c 0,5.118 1.04,9.2 3.2,12.157 2.05,2.941 5.11,4.34 9.35,4.34 3.44,0 5.88,-1.141 7.54,-3.45 1.53,-2.316 2.31,-6.008 2.31,-11.125 v 0 -40.804 h 13.31 v 43.871 0 c 0,6.91 -1.56,12.398 -4.62,16.5 -3.07,4.082 -7.93,6.136 -14.58,6.136 -3.85,0 -7.18,-0.886 -10.11,-2.812 -2.94,-1.918 -5.25,-4.598 -6.91,-8.055 v 0 h -0.24 v 0 c 0,0.391 0,1.149 0,2.055 -0.13,0.883 -0.13,1.898 -0.26,2.934 -0.13,1.015 -0.13,2.054 -0.13,2.941 -0.14,0.883 -0.14,1.664 -0.14,2.051 v 0 h -12.51 v 0 c 0.1,-1.926 0.23,-3.977 0.35,-6.028 0.13,-2.156 0.13,-4.339 0.13,-6.523 v 0 -53.07 0" /><path
         id="path52"
         style="fill:#ffffff;fill-opacity:1;fill-rule:nonzero;stroke:none"
         d="m 643.473,283.379 h 13.304 v 38.887 c 0,5.117 1.036,9.199 3.192,12.16 2.051,2.937 5.121,4.336 9.351,4.336 3.438,0 5.879,-1.145 7.539,-3.457 1.536,-2.305 2.317,-6 2.317,-11.125 v 0 -40.801 h 13.301 v 43.867 0 c 0,6.914 -1.555,12.402 -4.622,16.504 -3.066,4.094 -7.929,6.141 -14.578,6.141 -3.847,0 -7.168,-0.887 -10.109,-2.813 -2.938,-1.922 -5.246,-4.598 -6.91,-8.055 v 0 h -0.238 v 0 c 0,0.391 0,1.145 0,2.051 -0.133,0.891 -0.133,1.903 -0.258,2.938 -0.133,1.015 -0.133,2.051 -0.133,2.941 -0.125,0.891 -0.125,1.66 -0.125,2.051 v 0 h -12.531 v 0 c 0.109,-1.926 0.234,-3.977 0.367,-6.027 0.133,-2.168 0.133,-4.344 0.133,-6.524 v 0 -53.074 0" /><path
         id="path54"
         style="fill:#ffffff;fill-opacity:1;fill-rule:nonzero;stroke:none"
         d="m 722.27,283.379 h 14.835 l 12.032,53.203 h 0.234 l 12.813,-53.203 h 14.707 l 17.254,65.625 h -13.047 l -11.375,-52.957 h -0.266 l -11.894,52.957 h -15.469 l -11.766,-52.957 h -0.265 l -11.512,52.957 H 704.75 l 17.52,-65.625 v 0" /><path
         id="path56"
         style="fill:#ffffff;fill-opacity:1;fill-rule:nonzero;stroke:none"
         d="m 806.871,283.379 h 13.309 v 65.625 h -13.309 v -65.625 0" /><path
         id="path58"
         style="fill:#ffffff;fill-opacity:1;fill-rule:nonzero;stroke:none"
         d="m 806.508,362.18 h 14.055 v 14.187 h -14.055 v -14.187 0" /><path
         id="path60"
         style="fill:#ffffff;fill-opacity:1;fill-rule:nonzero;stroke:none"
         d="m 838.844,283.379 h 13.281 v 95.926 h -13.281 v -95.926 0" /><path
         id="path62"
         style="fill:#ffffff;fill-opacity:1;fill-rule:nonzero;stroke:none"
         d="m 610.918,283.379 h 13.805 v 89.277 h -13.805 v -89.277 0" /><path
         id="path64"
         style="fill:#1a67bb;fill-opacity:1;fill-rule:nonzero;stroke:none"
         d="M 458.574,331.504 271.047,223.164 v 434.91 L 458.512,549.859 v 0 c 0.578,-12.55 6.672,-24.171 16.648,-31.793 v 0 L 475.141,362.07 v 0 c -9.61,-7.363 -15.637,-18.484 -16.567,-30.566 v 0" /><path
         id="path66"
         style="fill:#1a67bb;fill-opacity:1;fill-rule:nonzero;stroke:none"
         d="m 310.594,1022.79 c 0.172,8.01 1.707,14.32 4.601,18.75 2.895,4.28 6.996,6.48 12.118,6.48 10.562,0 15.851,-8.36 15.851,-25.23 v 0 h -32.57 v 0" /><path
         id="path68"
         style="fill:#1a67bb;fill-opacity:1;fill-rule:nonzero;stroke:none"
         d="m 624.465,524.672 v 29.808 h 9.719 v 0 c 2.695,0 4.859,-0.386 6.781,-1.14 1.922,-0.777 3.453,-1.797 4.726,-3.223 1.168,-1.402 2.059,-2.933 2.704,-4.726 0.628,-1.793 0.886,-3.696 0.886,-5.879 v 0 0 0 c 0,-4.235 -1.273,-7.793 -3.82,-10.625 -2.574,-2.809 -6.418,-4.215 -11.648,-4.215 v 0 h -9.348 v 0" /><path
         id="path70"
         style="fill:#1a67bb;fill-opacity:1;fill-rule:nonzero;stroke:none"
         d="m 943.148,545.906 v -5.879 c 0,-5.242 -1.152,-9.476 -3.457,-12.675 -2.441,-3.325 -5.878,-4.989 -10.625,-4.989 -3.457,0 -6.003,1.035 -7.8,2.957 -1.797,1.903 -2.676,4.602 -2.676,7.801 0,4.34 1.66,7.539 5.117,9.723 3.457,2.176 8.445,3.191 14.969,3.191 0.754,0 1.535,0 2.414,0 0.906,0 1.668,0 2.058,-0.129 v 0" /><path
         id="path72"
         style="fill:#1a67bb;fill-opacity:1;fill-rule:nonzero;stroke:none"
         d="m 624.465,565.09 v 27.387 h 8.312 v 0 c 4.993,0 8.707,-1.145 11.149,-3.586 2.418,-2.442 3.558,-5.637 3.558,-9.461 v 0 0 0 c 0,-4.235 -1.273,-7.692 -3.82,-10.367 -2.699,-2.68 -6.519,-3.973 -11.644,-3.973 v 0 h -7.555 v 0" /><path
         id="path74"
         style="fill:#ee2c30;fill-opacity:1;fill-rule:nonzero;stroke:none"
         d="m 270.992,328.73 h -85.137 v 221.11 h 85.137 V 328.73" /></g></g></svg>