<?xml version="1.0" encoding="UTF-8" standalone="no"?>
<svg
   xmlns:dc="http://purl.org/dc/elements/1.1/"
   xmlns:cc="http://creativecommons.org/ns#"
   xmlns:rdf="http://www.w3.org/1999/02/22-rdf-syntax-ns#"
   xmlns:svg="http://www.w3.org/2000/svg"
   xmlns="http://www.w3.org/2000/svg"
   viewBox="0 0 161.57333 143.62666"
   height="143.62666"
   width="161.57333"
   xml:space="preserve"
   id="svg2"
   version="1.1"><metadata
     id="metadata8"><rdf:RDF><cc:Work
         rdf:about=""><dc:format>image/svg+xml</dc:format><dc:type
           rdf:resource="http://purl.org/dc/dcmitype/StillImage" /></cc:Work></rdf:RDF></metadata><defs
     id="defs6" /><g
     transform="matrix(1.3333333,0,0,-1.3333333,0,143.62667)"
     id="g10"><g
       transform="scale(0.1)"
       id="g12"><path
         id="path14"
         style="fill:#1a67bb;fill-opacity:1;fill-rule:nonzero;stroke:none"
         d="M 0,0 H 1211.76 V 1077.16 H 0 Z" /><path
         id="path16"
         style="fill:#ffffff;fill-opacity:1;fill-rule:nonzero;stroke:none"
         d="m 1124.01,1057.07 c 37.36,0 67.3,-30.29 67.3,-67.652 v 0 -901.6836 0 c 0,-37.3438 -29.94,-67.2852 -67.3,-67.2852 v 0 H 87.7344 v 0 c -36.9961,0 -67.6563,29.9414 -67.3047,67.2852 v 0 901.6836 0 c -0.3516,37.362 29.9609,67.652 67.3047,67.652 v 0 H 1124.01 v 0" /><path
         id="path18"
         style="fill:#1a67bb;fill-opacity:1;fill-rule:nonzero;stroke:none"
         d="M 1124.01,1036.64 H 87.7344 v 0 c -26.0821,0 -47.211,-21.14 -47.211,-47.222 v 0 -901.6836 0 c 0,-26.0625 21.1289,-47.2071 46.8594,-47.2071 v 0 H 1124.01 v 0 c 26.08,0 47.22,21.1446 47.22,47.2071 v 0 901.6836 0 c 0,26.082 -21.14,47.222 -47.22,47.222 v 0" /><path
         id="path20"
         style="fill:#ffffff;fill-opacity:1;fill-rule:nonzero;stroke:none"
         d="m 377.051,868.516 h 17.047 v 100.976 h 0.347 l 30.528,-100.976 h 13.132 L 470,969.492 h 0.348 V 868.516 h 17.05 v 119.047 h -27.113 l -27.808,-91.758 h -0.348 l -27.113,91.758 h -27.965 v -119.047 0" /><path
         id="path22"
         style="fill:#ffffff;fill-opacity:1;fill-rule:nonzero;stroke:none"
         d="m 560.191,868.516 h 16.704 v 0 c -0.161,2.547 -0.332,5.289 -0.508,8.183 -0.172,2.735 -0.172,5.629 -0.172,8.52 v 0 70.793 h -17.738 v -51.332 0 c 0,-6.828 -1.372,-12.289 -3.922,-16.375 -2.559,-4.106 -6.821,-6.153 -12.453,-6.153 -4.606,0 -7.848,1.543 -10.067,4.61 -2.215,3.066 -3.41,8.023 -3.41,14.836 v 0 54.414 h -17.727 v -58.508 0 c 0,-9.199 2.047,-16.543 6.133,-22 4.094,-5.461 10.571,-8.164 19.438,-8.164 5.976,0 10.742,1.336 14.332,4.246 3.414,2.723 6.148,6.133 8.363,10.227 v 0 h 0.332 l 0.695,-13.297 v 0" /><path
         id="path24"
         style="fill:#ffffff;fill-opacity:1;fill-rule:nonzero;stroke:none"
         d="m 602.094,868.516 h 17.734 v 47.074 c 0,4.433 0.508,8.18 1.535,11.422 1.016,3.238 2.383,5.801 4.102,7.847 1.699,1.868 3.738,3.411 5.957,4.434 2.226,0.848 4.441,1.371 7,1.371 1.027,0 2.043,0 2.891,-0.176 0.851,-0.172 1.875,-0.347 2.746,-0.515 v 0 17.062 0 c -0.352,0 -0.696,0 -0.871,0.172 -0.157,0 -0.497,0 -0.848,0 -3.242,0 -6.133,-0.348 -8.692,-1.195 -2.55,-0.852 -4.609,-2.043 -6.484,-3.586 -1.875,-1.528 -3.586,-3.242 -4.941,-5.113 -1.368,-1.868 -2.559,-3.93 -3.41,-6.145 v 0 h -0.352 v 0 c 0,0.687 0,1.715 0,3.082 -0.164,1.352 -0.164,2.895 -0.34,4.434 -0.176,1.527 -0.176,2.894 -0.176,4.261 -0.156,1.352 -0.156,2.391 -0.156,3.067 v 0 h -16.371 v 0 c 0.156,-2.563 0.332,-5.285 0.5,-8.02 0.176,-2.894 0.176,-5.804 0.176,-8.699 v 0 -70.777 0" /><path
         id="path26"
         style="fill:#ffffff;fill-opacity:1;fill-rule:nonzero;stroke:none"
         d="m 706.547,869.875 v 13.305 c -1.192,-0.508 -2.391,-1.028 -3.758,-1.367 -1.367,-0.508 -2.891,-0.68 -4.777,-0.68 -3.242,0 -5.457,1.019 -6.981,2.894 -1.543,1.887 -2.218,5.129 -2.218,9.895 v 0 48.441 h 17.734 v 13.649 h -17.734 v 23.199 l -17.743,-5.285 v -17.914 h -13.984 v -13.649 h 13.984 v -52.015 0 c 0,-8.368 1.875,-14.328 5.801,-17.743 3.914,-3.582 9.375,-5.265 16.531,-5.265 2.559,0 5.129,0.156 7.344,0.672 2.219,0.664 4.258,1.183 5.801,1.863 v 0" /><path
         id="path28"
         style="fill:#ffffff;fill-opacity:1;fill-rule:nonzero;stroke:none"
         d="m 738.793,907.227 h 49.98 v 5.976 c 0,7.672 -0.847,14.156 -2.39,19.785 -1.543,5.629 -3.762,10.239 -6.653,13.809 -2.89,3.586 -6.484,6.148 -10.398,7.848 -4.102,1.71 -8.535,2.562 -13.301,2.562 -5.461,0 -10.41,-1.019 -14.679,-3.238 -4.434,-2.219 -8.192,-5.457 -11.082,-9.387 -2.903,-4.094 -5.286,-8.875 -6.829,-14.504 -1.523,-5.613 -2.371,-11.762 -2.371,-18.418 0,-6.308 0.848,-12.285 2.371,-17.738 1.543,-5.461 3.762,-10.055 7.004,-13.984 3.067,-3.918 6.993,-7 11.758,-9.215 4.785,-2.364 10.41,-3.383 16.719,-3.383 5.457,0 10.41,0.504 14.676,1.683 4.257,1.192 7.675,2.387 10.566,3.582 v 0 l -0.848,14.836 v 0 c -2.218,-1.527 -5.109,-3.07 -8.527,-4.609 -3.582,-1.527 -7.84,-2.379 -12.969,-2.379 -8.183,0 -13.984,2.219 -17.566,6.813 -3.574,4.437 -5.461,11.089 -5.461,19.961 v 0" /><path
         id="path30"
         style="fill:#ffffff;fill-opacity:1;fill-rule:nonzero;stroke:none"
         d="m 809.742,868.516 h 17.742 v 51.839 c 0,6.829 1.368,12.286 4.258,16.219 2.727,3.914 6.828,5.789 12.461,5.789 4.59,0 7.832,-1.527 10.051,-4.593 2.059,-3.082 3.074,-8.024 3.074,-14.848 v 0 -54.406 h 17.735 v 58.496 0 c 0,9.215 -2.051,16.543 -6.141,22.004 -4.082,5.457 -10.567,8.191 -19.434,8.191 -5.129,0 -9.562,-1.195 -13.476,-3.758 -3.926,-2.551 -7.004,-6.136 -9.219,-10.742 v 0 h -0.332 v 0 c 0,0.52 0,1.543 0,2.738 -0.176,1.18 -0.176,2.547 -0.352,3.914 -0.168,1.368 -0.168,2.723 -0.168,3.918 -0.175,1.196 -0.175,2.215 -0.175,2.735 v 0 h -16.7 v 0 c 0.157,-2.563 0.332,-5.285 0.5,-8.02 0.176,-2.894 0.176,-5.804 0.176,-8.699 v 0 -70.777 0" /><path
         id="path32"
         style="fill:#ffffff;fill-opacity:1;fill-rule:nonzero;stroke:none"
         d="m 336.5,460.879 8.797,36.648 v 0 c 1.066,3.879 -3.508,6.707 -6.684,3.879 v 0 l -69.418,-62.715 v 0 c -1.761,-1.418 -1.761,-4.226 0,-5.984 v 0 l 69.418,-62.734 v 0 c 3.176,-2.461 7.75,0 6.684,3.875 v 0 L 336.5,410.5 h 128.258 v 0 c 10.926,-72.934 68,-130.023 140.949,-140.941 v 0 -161.746 h 50.734 v 161.746 0 c 72.579,11.261 130.02,68.007 140.938,140.941 v 0 h 128.262 l -8.809,-36.652 v 0 c -1.066,-3.875 3.523,-6.336 6.688,-3.875 v 0 l 69.425,62.734 v 0 c 1.758,1.758 1.758,4.566 0,5.984 v 0 l -69.425,62.715 v 0 c -3.165,2.828 -7.754,0 -6.688,-3.879 v 0 l 8.809,-36.648 H 797.379 v 0 c -10.918,72.949 -68.008,130.375 -140.938,141.305 v 0 127.91 l 36.289,-8.469 v 0 c 3.875,-1.047 6.7,3.527 4.239,6.352 v 0 l -62.735,69.769 v 0 c -1.757,1.766 -4.57,1.766 -5.988,0 v 0 l -62.715,-69.769 v 0 c -2.824,-2.825 0,-7.399 3.879,-6.352 v 0 l 36.297,8.469 v -127.91 0 C 533.109,591.254 475.684,533.828 464.758,460.879 v 0 H 336.5 v 0" /><path
         id="path34"
         style="fill:#ffffff;fill-opacity:1;fill-rule:nonzero;stroke:none"
         d="m 90.9141,508.457 h 201.883 V 710.359 H 90.9141 Z" /><path
         id="path36"
         style="fill:#ffffff;fill-opacity:1;fill-rule:nonzero;stroke:none"
         d="M 90.9219,208.918 H 123.32 v 0 c 5.977,0 11.262,0.848 15.871,2.547 4.594,1.535 8.352,3.926 11.59,6.816 3.242,2.903 5.629,6.485 7.328,10.574 1.543,3.93 2.395,8.372 2.395,13.137 v 0 0 0 c 0,4.602 -0.68,8.535 -1.875,12.11 -1.367,3.41 -3.066,6.32 -5.113,8.691 -2.215,2.219 -4.606,4.109 -7.168,5.477 -2.723,1.351 -5.457,2.199 -8.18,2.714 v 0 0.356 0 c 2.551,0.848 4.937,1.863 7.332,3.406 2.215,1.356 4.262,3.067 6.133,5.281 1.883,2.219 3.242,4.77 4.433,7.856 1.196,2.887 1.711,6.484 1.711,10.398 0,9.563 -2.734,16.887 -8.191,22.004 -5.629,5.125 -14.328,7.676 -26.266,7.676 v 0 H 90.9219 v -119.043 0" /><path
         id="path38"
         style="fill:#ffffff;fill-opacity:1;fill-rule:nonzero;stroke:none"
         d="m 197.191,247.617 h 49.989 v 5.977 c 0,7.676 -0.852,14.16 -2.395,19.785 -1.543,5.637 -3.758,10.246 -6.648,13.809 -2.899,3.582 -6.485,6.152 -10.403,7.851 -4.101,1.711 -8.539,2.559 -13.304,2.559 -5.453,0 -10.41,-1.016 -14.672,-3.231 -4.438,-2.219 -8.195,-5.461 -11.09,-9.394 -2.891,-4.094 -5.285,-8.871 -6.828,-14.504 -1.524,-5.617 -2.371,-11.758 -2.371,-18.418 0,-6.309 0.847,-12.278 2.371,-17.735 1.543,-5.461 3.762,-10.058 7.004,-13.984 3.066,-3.914 6.996,-7 11.761,-9.219 4.782,-2.363 10.411,-3.379 16.719,-3.379 5.461,0 10.41,0.496 14.672,1.68 4.266,1.203 7.676,2.395 10.574,3.586 v 0 l -0.851,14.832 v 0 c -2.215,-1.523 -5.114,-3.066 -8.524,-4.609 -3.586,-1.524 -7.847,-2.375 -12.976,-2.375 -8.176,0 -13.985,2.218 -17.567,6.808 -3.574,4.442 -5.461,11.094 -5.461,19.961 v 0" /><path
         id="path40"
         style="fill:#ffffff;fill-opacity:1;fill-rule:nonzero;stroke:none"
         d="m 268.141,208.918 h 17.742 v 47.066 c 0,4.438 0.504,8.176 1.523,11.418 1.028,3.243 2.395,5.801 4.11,7.852 1.699,1.875 3.742,3.41 5.961,4.434 2.214,0.851 4.433,1.367 6.996,1.367 1.019,0 2.047,0 2.894,-0.176 0.852,-0.164 1.871,-0.34 2.735,-0.52 v 0 17.075 0 c -0.344,0 -0.688,0 -0.864,0.164 -0.156,0 -0.504,0 -0.847,0 -3.239,0 -6.133,-0.34 -8.7,-1.192 -2.546,-0.847 -4.609,-2.039 -6.476,-3.582 -1.871,-1.523 -3.586,-3.242 -4.942,-5.117 -1.371,-1.867 -2.566,-3.93 -3.414,-6.144 v 0 h -0.343 v 0 c 0,0.683 0,1.707 0,3.078 -0.176,1.355 -0.176,2.898 -0.344,4.433 -0.176,1.531 -0.176,2.899 -0.176,4.266 -0.156,1.359 -0.156,2.39 -0.156,3.066 v 0 h -16.375 v 0 c 0.156,-2.558 0.332,-5.281 0.504,-8.015 0.172,-2.903 0.172,-5.813 0.172,-8.703 v 0 -70.77 0" /><path
         id="path42"
         style="fill:#ffffff;fill-opacity:1;fill-rule:nonzero;stroke:none"
         d="m 325.023,208.918 h 17.743 v 51.836 c 0,6.824 1.367,12.285 4.261,16.211 2.719,3.914 6.825,5.789 12.457,5.789 4.594,0 7.832,-1.524 10.047,-4.59 2.063,-3.086 3.082,-8.027 3.082,-14.855 v 0 -54.391 h 17.731 v 58.484 0 c 0,9.219 -2.047,16.543 -6.141,22 -4.086,5.461 -10.566,8.196 -19.437,8.196 -5.125,0 -9.559,-1.192 -13.477,-3.75 -3.914,-2.547 -7,-6.141 -9.219,-10.75 v 0 h -0.332 v 0 c 0,0.527 0,1.543 0,2.742 -0.172,1.18 -0.172,2.551 -0.34,3.918 -0.175,1.367 -0.175,2.715 -0.175,3.914 -0.172,1.191 -0.172,2.219 -0.172,2.734 v 0 h -16.703 v 0 c 0.156,-2.558 0.332,-5.281 0.5,-8.015 0.175,-2.903 0.175,-5.813 0.175,-8.703 v 0 -70.77 0" /><path
         id="path44"
         style="fill:#ffffff;fill-opacity:1;fill-rule:nonzero;stroke:none"
         d="m 858.355,208.918 h 32.403 v 0 c 5.976,0 11.258,0.848 15.867,2.547 4.59,1.535 8.352,3.926 11.594,6.816 3.242,2.903 5.625,6.485 7.324,10.574 1.543,3.93 2.391,8.372 2.391,13.137 v 0 0 0 c 0,4.602 -0.672,8.535 -1.875,12.11 -1.368,3.41 -3.067,6.32 -5.106,8.691 -2.219,2.219 -4.609,4.109 -7.168,5.477 -2.726,1.351 -5.461,2.199 -8.183,2.714 v 0 0.356 0 c 2.546,0.848 4.941,1.863 7.332,3.406 2.218,1.356 4.257,3.067 6.132,5.281 1.887,2.219 3.243,4.77 4.434,7.856 1.191,2.887 1.711,6.484 1.711,10.398 0,9.563 -2.734,16.887 -8.195,22.004 -5.625,5.125 -14.325,7.676 -26.258,7.676 v 0 h -32.403 v -119.043 0" /><path
         id="path46"
         style="fill:#ffffff;fill-opacity:1;fill-rule:nonzero;stroke:none"
         d="m 949.203,208.918 h 17.746 v 87.488 h -17.746 v -87.488 0" /><path
         id="path48"
         style="fill:#ffffff;fill-opacity:1;fill-rule:nonzero;stroke:none"
         d="m 948.695,313.973 h 18.75 v 18.937 h -18.75 v -18.937 0" /><path
         id="path50"
         style="fill:#ffffff;fill-opacity:1;fill-rule:nonzero;stroke:none"
         d="m 1005.15,247.617 h 49.98 v 5.977 c 0,7.676 -0.85,14.16 -2.39,19.785 -1.54,5.637 -3.76,10.246 -6.65,13.809 -2.9,3.582 -6.48,6.152 -10.4,7.851 -4.1,1.711 -8.54,2.559 -13.3,2.559 -5.46,0 -10.41,-1.016 -14.68,-3.231 -4.43,-2.219 -8.194,-5.461 -11.085,-9.394 -2.898,-4.094 -5.281,-8.871 -6.824,-14.504 -1.524,-5.617 -2.375,-11.758 -2.375,-18.418 0,-6.309 0.851,-12.278 2.375,-17.735 1.543,-5.461 3.758,-10.058 6.992,-13.984 3.074,-3.914 6.997,-7 11.767,-9.219 4.78,-2.363 10.41,-3.379 16.72,-3.379 5.46,0 10.41,0.496 14.68,1.68 4.25,1.203 7.67,2.395 10.56,3.586 v 0 l -0.85,14.832 v 0 c -2.21,-1.523 -5.1,-3.066 -8.52,-4.609 -3.59,-1.524 -7.85,-2.375 -12.97,-2.375 -8.18,0 -13.98,2.218 -17.57,6.808 -3.57,4.442 -5.46,11.094 -5.46,19.961 v 0" /><path
         id="path52"
         style="fill:#ffffff;fill-opacity:1;fill-rule:nonzero;stroke:none"
         d="m 1076.56,208.918 h 17.72 v 127.91 h -17.72 v -127.91 0" /><path
         id="path54"
         style="fill:#1a67bb;fill-opacity:1;fill-rule:nonzero;stroke:none"
         d="m 748.754,435.859 c 0.351,156.809 -235.723,156.809 -235.375,0 -0.348,-157.148 235.726,-157.148 235.375,0 v 0" /><path
         id="path56"
         style="fill:#1a67bb;fill-opacity:1;fill-rule:nonzero;stroke:none"
         d="M 605.707,303.379 C 551.441,313.957 509.156,356.23 498.941,410.5 v 0 h -17.265 v 0 C 492.59,347.082 542.277,297.043 605.707,286.465 v 0 16.914 0" /><path
         id="path58"
         style="fill:#1a67bb;fill-opacity:1;fill-rule:nonzero;stroke:none"
         d="m 738.793,919.336 c 0.168,8.023 1.711,14.328 4.609,18.766 2.903,4.261 6.993,6.48 12.11,6.48 10.586,0 15.871,-8.355 15.871,-25.246 v 0 h -32.59 v 0" /><path
         id="path60"
         style="fill:#1a67bb;fill-opacity:1;fill-rule:nonzero;stroke:none"
         d="m 108.996,277.297 v 36.504 h 11.086 v 0 c 6.652,0 11.594,-1.543 14.832,-4.778 3.254,-3.242 4.777,-7.507 4.777,-12.617 v 0 0 0 c 0,-5.636 -1.699,-10.234 -5.109,-13.828 -3.586,-3.562 -8.699,-5.281 -15.523,-5.281 v 0 h -10.063 v 0" /><path
         id="path62"
         style="fill:#1a67bb;fill-opacity:1;fill-rule:nonzero;stroke:none"
         d="m 108.996,223.398 v 39.747 h 12.957 v 0 c 3.586,0 6.481,-0.508 9.043,-1.536 2.563,-1.031 4.609,-2.382 6.309,-4.273 1.539,-1.867 2.734,-3.918 3.586,-6.301 0.847,-2.394 1.195,-4.941 1.195,-7.851 v 0 0 0 c 0,-5.633 -1.699,-10.399 -5.113,-14.149 -3.414,-3.75 -8.539,-5.637 -15.524,-5.637 v 0 h -12.453 v 0" /><path
         id="path64"
         style="fill:#1a67bb;fill-opacity:1;fill-rule:nonzero;stroke:none"
         d="m 197.191,259.727 c 0.176,8.027 1.715,14.328 4.61,18.769 2.91,4.258 7,6.477 12.109,6.477 10.586,0 15.871,-8.352 15.871,-25.246 v 0 h -32.59 v 0" /><path
         id="path66"
         style="fill:#1a67bb;fill-opacity:1;fill-rule:nonzero;stroke:none"
         d="m 876.43,277.297 v 36.504 h 11.086 v 0 c 6.648,0 11.589,-1.543 14.832,-4.778 3.254,-3.242 4.777,-7.507 4.777,-12.617 v 0 0 0 c 0,-5.636 -1.699,-10.234 -5.109,-13.828 -3.582,-3.562 -8.7,-5.281 -15.528,-5.281 v 0 H 876.43 v 0" /><path
         id="path68"
         style="fill:#1a67bb;fill-opacity:1;fill-rule:nonzero;stroke:none"
         d="m 876.43,223.398 v 39.747 h 12.961 v 0 c 3.582,0 6.472,-0.508 9.043,-1.536 2.558,-1.031 4.609,-2.382 6.308,-4.273 1.531,-1.867 2.735,-3.918 3.582,-6.301 0.852,-2.394 1.192,-4.941 1.192,-7.851 v 0 0 0 c 0,-5.633 -1.7,-10.399 -5.106,-14.149 -3.418,-3.75 -8.547,-5.637 -15.527,-5.637 v 0 H 876.43 v 0" /><path
         id="path70"
         style="fill:#1a67bb;fill-opacity:1;fill-rule:nonzero;stroke:none"
         d="m 1005.15,259.727 c 0.17,8.027 1.71,14.328 4.61,18.769 2.9,4.258 6.99,6.477 12.11,6.477 10.58,0 15.87,-8.352 15.87,-25.246 v 0 h -32.59 v 0" /><path
         id="path72"
         style="fill:#007f46;fill-opacity:1;fill-rule:nonzero;stroke:none"
         d="m 96.5391,514.098 h 190.633 V 704.375 H 96.5391 Z" /><path
         id="path74"
         style="fill:#ffffff;fill-opacity:1;fill-rule:nonzero;stroke:none"
         d="m 197.66,681.465 h 4.242 l 15.141,-34.531 h -18.316 l -1.067,34.531" /><path
         id="path76"
         style="fill:#ffffff;fill-opacity:1;fill-rule:nonzero;stroke:none"
         d="m 119.789,640.941 h 144.129 v -8.449 h -17.266 v -11.629 h -9.168 l -5.285,11.629 h -80.683 l -5.289,-11.629 h -9.164 v 11.629 h -17.274 v 8.449" /><path
         id="path78"
         style="fill:#ffffff;fill-opacity:1;fill-rule:nonzero;stroke:none"
         d="m 167.016,646.934 h 17.968 l 1.067,34.531 h -4.242 l -14.793,-34.531" /><path
         id="path80"
         style="fill:#ffffff;fill-opacity:1;fill-rule:nonzero;stroke:none"
         d="m 184.289,623.676 -2.48,-86.324 h -62.02 l 37.363,86.324 h 27.137" /><path
         id="path82"
         style="fill:#ffffff;fill-opacity:1;fill-rule:nonzero;stroke:none"
         d="m 226.918,623.676 37,-86.324 h -62.016 l -2.476,86.324 h 27.492" /></g></g></svg>