<?xml version="1.0" encoding="UTF-8" standalone="no"?>
<svg
   xmlns:dc="http://purl.org/dc/elements/1.1/"
   xmlns:cc="http://creativecommons.org/ns#"
   xmlns:rdf="http://www.w3.org/1999/02/22-rdf-syntax-ns#"
   xmlns:svg="http://www.w3.org/2000/svg"
   xmlns="http://www.w3.org/2000/svg"
   viewBox="0 0 176.12 136.44"
   height="136.44"
   width="176.12"
   xml:space="preserve"
   id="svg2"
   version="1.1"><metadata
     id="metadata8"><rdf:RDF><cc:Work
         rdf:about=""><dc:format>image/svg+xml</dc:format><dc:type
           rdf:resource="http://purl.org/dc/dcmitype/StillImage" /></cc:Work></rdf:RDF></metadata><defs
     id="defs6" /><g
     transform="matrix(1.3333333,0,0,-1.3333333,0,136.44)"
     id="g10"><g
       transform="scale(0.1)"
       id="g12"><path
         id="path14"
         style="fill:#ffffff;fill-opacity:1;fill-rule:nonzero;stroke:none"
         d="M 1.41797,1.41797 H 1319.528 V 1021.888 H 1.41797 Z" /><path
         id="path16"
         style="fill:none;stroke:#231f20;stroke-width:2.83500004;stroke-linecap:butt;stroke-linejoin:miter;stroke-miterlimit:4;stroke-dasharray:none;stroke-opacity:1"
         d="M 1.41797,1.41797 H 1319.53 V 1021.89 H 1.41797 V 1.41797" /><path
         id="path18"
         style="fill:#1a67bb;fill-opacity:1;fill-rule:nonzero;stroke:none"
         d="m 18.6719,18.0273 h 1284.09 v 986.469 H 18.6719 Z" /><path
         id="path20"
         style="fill:#ffffff;fill-opacity:1;fill-rule:nonzero;stroke:none"
         d="m 1152.84,847.875 c 1.99,-2.207 2.29,-5.465 0.78,-8.012 -1.53,-2.574 -4.54,-3.847 -7.43,-3.152 v 0 l -61.52,14.773 V 213.699 h -85.037 v 340.16 H 842.465 l -48.125,85.039 h 205.293 v 212.606 l -61.524,-14.793 v 0 c -2.89,-0.695 -5.918,0.578 -7.421,3.129 -1.543,2.57 -1.211,5.828 0.773,8.035 v 0 l 105.629,117.313 v 0 c 2.69,3 7.43,3 10.12,0 v 0 l 105.63,-117.313 v 0" /><path
         id="path22"
         style="fill:#ffffff;fill-opacity:1;fill-rule:nonzero;stroke:none"
         d="m 237.91,706.977 c 2.203,1.988 5.465,2.308 8.035,0.8 2.551,-1.531 3.825,-4.535 3.133,-7.429 v 0 l -14.777,-61.52 H 525.77 L 477.172,553.789 H 234.301 l 14.777,-61.516 v 0 c 0.692,-2.894 -0.582,-5.914 -3.133,-7.429 -2.57,-1.531 -5.808,-1.211 -8.035,0.777 v 0 L 120.625,591.246 v 0 c -3.027,2.699 -3.027,7.387 -0.023,10.106 v 0 L 237.91,706.977 v 0" /><path
         id="path24"
         style="fill:#ffffff;fill-opacity:1;fill-rule:nonzero;stroke:none"
         d="m 906.168,71.3281 c 2.422,-0.8984 5.223,-1.7851 8.555,-2.4414 3.191,-0.7344 6.777,-1.1133 10.496,-1.1133 9.465,0 16.758,2.7852 21.875,8.293 5.129,5.6328 7.676,13.1719 7.676,22.7617 v 0 0 0 c 0,4.3629 -0.653,8.3199 -1.922,11.6409 -1.407,3.457 -3.203,6.269 -5.383,8.574 -2.156,2.316 -4.863,3.977 -7.793,5.129 -3.067,1.141 -6.27,1.785 -9.598,1.785 -2.051,0 -3.965,-0.129 -5.636,-0.391 -1.786,-0.125 -3.329,-0.515 -4.473,-0.878 v 0 22.507 h 30.586 v 10.864 h -43.106 v -45.539 0 c 2.16,0.656 4.465,1.281 6.778,1.921 2.285,0.625 4.992,0.891 7.929,0.891 6.133,0 10.735,-1.66 13.926,-4.863 3.078,-3.196 4.629,-7.539 4.629,-12.7815 0,-5.5078 -1.551,-9.9844 -4.754,-13.4375 -3.195,-3.5859 -7.539,-5.3828 -13.047,-5.3828 -3.195,0 -6.133,0.5195 -8.808,1.4258 -2.707,0.8906 -5.118,1.9023 -7.168,3.0664 v 0 l -0.762,-12.0313 v 0" /><path
         id="path26"
         style="fill:#ffffff;fill-opacity:1;fill-rule:nonzero;stroke:none"
         d="m 972.086,80.793 c 2.187,-4.0821 4.988,-7.2774 8.445,-9.5938 3.457,-2.3125 7.539,-3.4258 12.532,-3.4258 4.988,0 9.227,1.1133 12.657,3.5547 3.46,2.3164 6.29,5.5078 8.44,9.6016 2.19,4.0976 3.72,8.9531 4.63,14.4414 0.88,5.5079 1.4,11.5159 1.4,18.0349 v 0 0 0 c 0,6.528 -0.52,12.551 -1.4,18.164 -0.91,5.508 -2.44,10.371 -4.63,14.477 -2.15,4.082 -4.98,7.273 -8.44,9.726 -3.43,2.286 -7.669,3.446 -12.657,3.446 -4.993,0 -9.2,-1.16 -12.657,-3.446 -3.457,-2.453 -6.133,-5.644 -8.32,-9.726 -2.18,-4.106 -3.711,-8.969 -4.602,-14.477 -0.906,-5.613 -1.394,-11.636 -1.394,-18.164 0,-6.519 0.488,-12.527 1.394,-18.0349 0.891,-5.6133 2.422,-10.4766 4.602,-14.5781 v 0" /><path
         id="path28"
         style="fill:#ffffff;fill-opacity:1;fill-rule:nonzero;stroke:none"
         d="m 1095.05,68.7773 h 13.31 v 40.1607 c 0,4.863 1.04,8.574 2.94,11.257 1.93,2.696 4.86,3.977 8.58,3.977 6.13,0 9.22,-4.113 9.22,-12.168 v 0 -43.2267 h 13.31 v 40.1607 0 c 0,4.863 1.01,8.574 2.94,11.257 1.91,2.696 4.85,3.977 8.57,3.977 6.13,0 9.2,-4.113 9.2,-12.168 v 0 -43.2267 h 13.3 v 42.9727 0 c 0,7.684 -1.53,13.563 -4.6,17.535 -3.19,3.957 -7.95,6.008 -14.34,6.008 -4.21,0 -7.67,-1.016 -10.35,-3.066 -2.69,-2.188 -4.72,-4.598 -6.38,-7.305 -0.66,1.301 -1.44,2.566 -2.32,3.848 -0.91,1.14 -2.05,2.304 -3.33,3.32 -1.27,0.91 -2.8,1.672 -4.47,2.312 -1.66,0.625 -3.71,0.891 -5.9,0.891 -4.08,0 -7.4,-1.016 -10.1,-3.066 -2.68,-2.188 -4.86,-4.739 -6.27,-7.93 v 0 h -0.26 v 0 c 0,0.391 0,1.144 0,2.18 -0.13,0.886 -0.13,1.902 -0.13,2.937 -0.12,1.016 -0.12,2.051 -0.12,2.941 -0.11,0.887 -0.11,1.661 -0.11,2.047 v 0 h -13.17 v 0 c 0.1,-1.793 0.23,-3.711 0.36,-5.769 0.12,-2.051 0.12,-4.207 0.12,-6.649 v 0 -53.2067 0" /><path
         id="path30"
         style="fill:#1a67bb;fill-opacity:1;fill-rule:nonzero;stroke:none"
         d="m 982.563,87.5781 c -1.895,6.0078 -2.938,14.7069 -2.938,25.8279 0,11.145 1.043,19.836 2.938,25.989 1.925,6.132 5.507,9.199 10.5,9.199 5.125,0 8.697,-3.067 10.637,-9.071 1.91,-6.156 2.93,-14.835 2.93,-26.117 v 0 0 0 c 0,-11.121 -1.02,-19.8201 -2.93,-25.8279 -2.06,-6.1328 -5.649,-9.1992 -10.637,-9.1992 -4.993,0 -8.575,3.0664 -10.5,9.1992 v 0" /><path
         id="path32"
         style="fill:#ee2c30;fill-opacity:1;fill-rule:nonzero;stroke:none"
         d="m 880.855,426.484 2.481,0.164 2.422,0.5 2.332,0.762 2.199,1.035 2.078,1.321 1.895,1.531 1.711,1.789 1.492,2.027 1.289,2.387 0.957,2.5 0.578,2.598 0.262,2.605 -0.106,2.637 -0.461,2.637 -0.789,2.546 -1.152,2.461 -218.781,386.618 -1.492,2.273 -1.731,2.066 -1.961,1.797 -2.18,1.555 -2.363,1.254 -2.5,0.973 -2.609,0.648 -2.703,0.305 -2.985,-0.071 -2.914,-0.472 -2.785,-0.864 -2.633,-1.211 -2.441,-1.578 -2.207,-1.898 -1.945,-2.203 -1.661,-2.504 -220.902,-386.621 -1.168,-2.461 -0.82,-2.574 -0.453,-2.618 -0.11,-2.644 0.262,-2.656 0.605,-2.618 0.95,-2.531 1.339,-2.422 1.469,-2.004 1.703,-1.773 1.903,-1.555 2.074,-1.297 2.226,-1.039 2.329,-0.75 2.449,-0.476 2.504,-0.149 h 442.343" /><path
         id="path34"
         style="fill:#ffffff;fill-opacity:1;fill-rule:nonzero;stroke:none"
         d="M 844.73,466.008 659.434,789.297 475.508,466.227 844.73,466.008" /><path
         id="path36"
         style="fill:#231f20;fill-opacity:1;fill-rule:nonzero;stroke:none"
         d="m 582.211,512.445 v 14.172 h -10.152 v 19.828 h 10.152 v 34.024 h -10.152 v 19.824 h 10.152 v 11.344 l 9.465,16.996 10.32,-16.996 v -11.344 h 14.129 v 11.344 l 9.523,16.996 10.258,-16.996 v -11.344 h 14.129 v 11.344 l 9.613,16.996 10.153,-16.996 v -11.344 h 14.121 v 11.344 l 9.656,16.996 10.137,-16.996 v -11.344 h 14.121 v 11.344 l 9.719,16.996 10.047,-16.996 v -11.344 h 10.175 v -19.824 h -10.175 v -34.024 h 10.175 v -19.828 h -10.175 v -14.172 h -19.766 v 14.172 h -14.121 v -14.172 h -19.793 v 14.172 h -14.121 v -14.172 h -19.766 v 14.172 h -14.129 v -14.172 h -19.781 v 14.172 h -14.129 v -14.172 h -19.785" /><path
         id="path38"
         style="fill:#ffffff;fill-opacity:1;fill-rule:nonzero;stroke:none"
         d="m 602.324,546.359 h 14.125 v 33.9961 h -14.125 z" /><path
         id="path40"
         style="fill:#ffffff;fill-opacity:1;fill-rule:nonzero;stroke:none"
         d="m 635.781,546.359 h 14.125 v 33.9961 h -14.125 z" /><path
         id="path42"
         style="fill:#ffffff;fill-opacity:1;fill-rule:nonzero;stroke:none"
         d="m 669.691,546.359 h 14.1328 v 33.9961 H 669.691 Z" /><path
         id="path44"
         style="fill:#ffffff;fill-opacity:1;fill-rule:nonzero;stroke:none"
         d="m 703.824,546.359 h 14.1211 v 33.9961 H 703.824 Z" /></g></g></svg>