<?xml version="1.0" encoding="UTF-8" standalone="no"?>
<svg
   xmlns:dc="http://purl.org/dc/elements/1.1/"
   xmlns:cc="http://creativecommons.org/ns#"
   xmlns:rdf="http://www.w3.org/1999/02/22-rdf-syntax-ns#"
   xmlns:svg="http://www.w3.org/2000/svg"
   xmlns="http://www.w3.org/2000/svg"
   viewBox="0 0 139.28 79.746666"
   height="79.746666"
   width="139.28"
   xml:space="preserve"
   id="svg2"
   version="1.1"><metadata
     id="metadata8"><rdf:RDF><cc:Work
         rdf:about=""><dc:format>image/svg+xml</dc:format><dc:type
           rdf:resource="http://purl.org/dc/dcmitype/StillImage" /></cc:Work></rdf:RDF></metadata><defs
     id="defs6" /><g
     transform="matrix(1.3333333,0,0,-1.3333333,0,79.746667)"
     id="g10"><g
       transform="scale(0.1)"
       id="g12"><path
         id="path14"
         style="fill:#ffffff;fill-opacity:1;fill-rule:nonzero;stroke:none"
         d="M 1.41797,100.637 C 1.41797,45.7734 45.9492,1.30859 100.813,1.41797 v 0 H 943.93 v 0 c 54.797,0 99.22,44.42183 99.22,99.21903 v 0 396.824 0 c 0,54.758 -44.423,99.18 -99.22,99.18 v 0 H 100.637 v 0 c -54.7972,0 -99.21903,-44.422 -99.21903,-99.18 v 0 -396.824 0" /><path
         id="path16"
         style="fill:none;stroke:#231f20;stroke-width:2.83500004;stroke-linecap:butt;stroke-linejoin:round;stroke-miterlimit:4;stroke-dasharray:none;stroke-opacity:1"
         d="M 1.41797,100.637 C 1.41797,45.7734 45.9492,1.30859 100.813,1.41797 v 0 H 943.93 v 0 c 54.797,0 99.22,44.42183 99.22,99.21903 v 0 396.824 0 c 0,54.758 -44.423,99.18 -99.22,99.18 v 0 H 100.637 v 0 c -54.7972,0 -99.21903,-44.422 -99.21903,-99.18 v 0 -396.824 0" /><path
         id="path18"
         style="fill:#007f46;fill-opacity:1;fill-rule:nonzero;stroke:none"
         d="m 52.0703,99.5508 c 0,-27.3945 22.211,-49.6094 49.6057,-49.6094 v 0 h 843.301 v 0 c 27.39,0 49.609,22.2149 49.609,49.6094 v 0 396.8322 0 c 0,27.39 -22.219,49.605 -49.609,49.605 v 0 H 101.676 v 0 c -27.3947,0 -49.6057,-22.215 -49.6057,-49.605 v 0 -396.8322 0" /><path
         id="path20"
         style="fill:#ffffff;fill-opacity:1;fill-rule:nonzero;stroke:none"
         d="m 168.352,124.895 h 177.586 v 44.246 H 222.063 V 282.07 h 112.425 v 44.282 H 222.063 v 101.484 h 118.402 v 44.277 H 168.352 v -347.218 0" /><path
         id="path22"
         style="fill:#ffffff;fill-opacity:1;fill-rule:nonzero;stroke:none"
         d="m 439.75,134.836 c 10.441,-3.496 22.359,-6.984 35.789,-9.473 13.461,-2.949 27.395,-4.425 42.297,-4.425 17.422,0 33.34,2.48 47.773,6.914 14.395,5 26.348,11.953 36.789,20.41 10.477,8.965 18.438,19.902 23.907,32.324 5.468,12.461 8.457,26.387 8.457,42.305 v 0 0 0 c 0,12.922 -2.012,24.371 -5.469,34.308 -3.996,9.969 -8.965,17.922 -15.441,24.871 -6.446,6.989 -13.934,12.457 -22.391,16.418 -8.469,3.996 -17.395,6.985 -26.856,8.461 v 0 1.004 0 c 7.45,1.481 14.93,3.961 22.891,7.457 7.449,3.492 14.902,8.457 21.387,14.938 6.472,6.445 11.445,14.437 15.41,24.375 3.992,9.429 5.977,20.879 5.977,34.808 0,13.93 -2.493,26.856 -7.454,37.801 -5.476,10.945 -12.461,19.91 -21.386,27.395 -8.965,7.457 -19.403,12.925 -31.864,16.418 -12.414,3.457 -25.382,5.472 -39.777,5.472 -16.918,0 -31.859,-1.515 -44.785,-3.996 -13.426,-2.988 -24.875,-6.476 -34.813,-10.437 v 0 l 3.457,-47.274 v 0 c 10.477,5.477 21.891,9.938 33.336,13.43 11.45,3.492 22.391,4.973 31.86,4.973 16.414,0 30.351,-4.469 41.797,-13.434 11.414,-8.961 16.882,-21.887 16.882,-38.301 0,-10.441 -1.98,-18.902 -5.937,-25.851 -3.992,-7.485 -9.473,-12.957 -16.414,-17.93 -7.492,-4.461 -15.949,-7.953 -25.891,-9.93 -9.929,-2.484 -20.879,-3.496 -32.324,-3.496 v 0 H 482.52 v -41.793 0 c 2.988,0 6.949,0 11.953,0.504 4.465,0 10.441,0 17.386,0 20.918,0 37.336,-4.973 49.25,-14.437 11.954,-9.43 17.93,-23.368 17.93,-40.782 0,-10.949 -1.984,-20.422 -5.469,-28.371 -3.496,-7.961 -8.468,-14.406 -14.445,-19.406 -6.473,-5.477 -13.426,-9.43 -21.375,-11.922 -8.469,-2.48 -16.926,-3.996 -26.391,-3.996 -13.429,0 -25.851,1.984 -37.296,5.98 -11.45,3.497 -21.891,7.957 -30.856,12.461 v 0 l -3.457,-47.773 v 0" /><path
         id="path24"
         style="fill:#ffffff;fill-opacity:1;fill-rule:nonzero;stroke:none"
         d="m 689.234,134.836 c 9.434,-3.496 20.371,-6.984 33.301,-9.473 12.449,-2.949 26.387,-4.425 40.82,-4.425 36.797,0 65.165,10.91 85.067,32.296 19.875,21.883 29.844,51.258 29.844,88.551 v 0 0 0 c 0,16.922 -2.481,32.332 -7.489,45.254 -5.468,13.465 -12.414,24.41 -20.879,33.336 -8.457,8.965 -18.898,15.445 -30.343,19.906 -11.953,4.504 -24.375,6.989 -37.293,6.989 -7.961,0 -15.449,-0.508 -21.895,-1.512 -6.984,-0.504 -12.961,-1.985 -17.422,-3.492 v 0 87.589 h 118.907 v 42.258 H 694.203 v -177.078 0 c 8.457,2.481 17.383,4.965 26.348,7.449 8.965,2.481 19.406,3.493 30.851,3.493 23.868,0 41.797,-6.481 54.219,-18.938 11.953,-12.422 17.93,-29.34 17.93,-49.715 0,-21.418 -5.977,-38.808 -18.438,-52.238 -12.414,-13.934 -29.336,-20.918 -50.722,-20.918 -12.453,0 -23.899,1.984 -34.348,5.48 -10.438,3.489 -19.863,7.454 -27.859,11.946 v 0 l -2.95,-46.758 v 0" /></g></g></svg>