<?xml version="1.0" encoding="UTF-8" standalone="no"?>
<svg
   xmlns:dc="http://purl.org/dc/elements/1.1/"
   xmlns:cc="http://creativecommons.org/ns#"
   xmlns:rdf="http://www.w3.org/1999/02/22-rdf-syntax-ns#"
   xmlns:svg="http://www.w3.org/2000/svg"
   xmlns="http://www.w3.org/2000/svg"
   viewBox="0 0 139.26666 79.746666"
   height="79.746666"
   width="139.26666"
   xml:space="preserve"
   id="svg2"
   version="1.1"><metadata
     id="metadata8"><rdf:RDF><cc:Work
         rdf:about=""><dc:format>image/svg+xml</dc:format><dc:type
           rdf:resource="http://purl.org/dc/dcmitype/StillImage" /></cc:Work></rdf:RDF></metadata><defs
     id="defs6" /><g
     transform="matrix(1.3333333,0,0,-1.3333333,0,79.746667)"
     id="g10"><g
       transform="scale(0.1)"
       id="g12"><path
         id="path14"
         style="fill:#ffffff;fill-opacity:1;fill-rule:nonzero;stroke:none"
         d="m 1043.13,497.469 c 0,54.793 -44.454,99.215 -99.239,99.215 v 0 H 100.629 v 0 c -54.7892,0 -99.21103,-44.422 -99.21103,-99.215 v 0 -396.844 0 C 1.41797,45.7617 45.7656,1.30859 100.629,1.41797 v 0 h 843.293 v 0 c 54.793,0 99.208,44.42183 99.208,99.20703 v 0 396.844 0" /><path
         id="path16"
         style="fill:none;stroke:#231f20;stroke-width:2.83500004;stroke-linecap:butt;stroke-linejoin:round;stroke-miterlimit:4;stroke-dasharray:none;stroke-opacity:1"
         d="m 1043.13,497.469 c 0,54.793 -44.454,99.215 -99.239,99.215 v 0 H 100.629 v 0 c -54.7892,0 -99.21103,-44.422 -99.21103,-99.215 v 0 -396.844 0 C 1.41797,45.7617 45.7656,1.30859 100.629,1.41797 v 0 h 843.293 v 0 c 54.793,0 99.208,44.42183 99.208,99.20703 v 0 396.844 0" /><path
         id="path18"
         style="fill:#ee2c30;fill-opacity:1;fill-rule:nonzero;stroke:none"
         d="M 521.914,573.355 92.5273,505.57 v 0 C 68.375,501.793 50.6602,481.02 50.6602,456.578 v 0 -312.066 0 c 0,-24.414 17.7148,-45.2151 41.8671,-48.9964 v 0 L 521.914,27.7227 951.266,95.5156 v 0 c 24.121,3.8086 41.863,24.5824 41.863,48.9964 v 0 312.066 0 c 0,24.406 -17.742,45.176 -41.824,48.992 v 0 l -429.391,67.785 v 0" /><path
         id="path20"
         style="fill:#ffffff;fill-opacity:1;fill-rule:nonzero;stroke:none"
         d="m 427.148,126.816 h 189.508 v 44.239 H 486.332 l 12.926,13.933 v 0 c 15.437,16.926 30.308,34.348 44.242,52.239 13.43,17.425 25.383,35.316 35.82,52.738 10.481,17.426 18.43,34.348 24.375,51.23 5.969,16.45 8.957,32.364 8.957,47.266 0,12.457 -1.972,23.906 -5.468,34.848 -3.957,10.945 -9.934,20.379 -17.383,28.839 -8,7.954 -17.93,14.434 -29.387,19.403 -11.914,4.465 -25.84,6.984 -41.758,6.984 -16.414,0 -31.82,-2.015 -45.25,-5.472 -13.929,-3.997 -26.851,-8.965 -38.304,-14.938 v 0 l 5.472,-50.762 v 0 c 7.957,6.481 17.895,12.957 29.344,18.434 11.445,5.469 24.367,8.457 38.809,8.457 15.371,0 27.82,-5 36.289,-15.441 8.457,-10.446 12.918,-23.364 12.918,-39.782 0,-11.449 -2.481,-23.902 -7.45,-37.332 -5.468,-13.429 -12.453,-27.867 -21.886,-42.265 -9.434,-14.938 -20.379,-30.348 -32.797,-46.762 -12.957,-16.41 -26.856,-33.336 -42.301,-50.758 v 0 l -26.352,-30.351 v -44.747 0" /></g></g></svg>