<?xml version="1.0" encoding="UTF-8" standalone="no"?>
<svg
   xmlns:dc="http://purl.org/dc/elements/1.1/"
   xmlns:cc="http://creativecommons.org/ns#"
   xmlns:rdf="http://www.w3.org/1999/02/22-rdf-syntax-ns#"
   xmlns:svg="http://www.w3.org/2000/svg"
   xmlns="http://www.w3.org/2000/svg"
   viewBox="0 0 132.65334 66.519997"
   height="66.519997"
   width="132.65334"
   xml:space="preserve"
   id="svg2"
   version="1.1"><metadata
     id="metadata8"><rdf:RDF><cc:Work
         rdf:about=""><dc:format>image/svg+xml</dc:format><dc:type
           rdf:resource="http://purl.org/dc/dcmitype/StillImage" /></cc:Work></rdf:RDF></metadata><defs
     id="defs6" /><g
     transform="matrix(1.3333333,0,0,-1.3333333,0,66.52)"
     id="g10"><g
       transform="scale(0.1)"
       id="g12"><path
         id="path14"
         style="fill:#ffffff;fill-opacity:1;fill-rule:nonzero;stroke:none"
         d="m 1.41797,1.41797 h 992.109 v 496.039 H 1.41797 Z" /><path
         id="path16"
         style="fill:none;stroke:#231f20;stroke-width:2.83500004;stroke-linecap:butt;stroke-linejoin:miter;stroke-miterlimit:4;stroke-dasharray:none;stroke-opacity:1"
         d="M 1.41797,1.41797 H 993.527 V 497.457 H 1.41797 V 1.41797" /><path
         id="path18"
         style="fill:#231f20;fill-opacity:1;fill-rule:nonzero;stroke:none"
         d="m 128.965,476.215 c -58.715,0 -106.2892,-47.59 -106.2892,-106.309 v 0 -240.933 0 C 22.6758,70.2617 70.25,22.668 128.965,22.668 v 0 h 737.031 v 0 c 58.711,0 106.289,47.5937 106.289,106.305 v 0 240.933 0 c 0,58.719 -47.578,106.309 -106.289,106.309 v 0 H 128.965 v 0" /><path
         id="path20"
         style="fill:#ffffff;fill-opacity:1;fill-rule:nonzero;stroke:none"
         d="m 128.984,447.867 c -43.0348,0 -77.9567,-34.902 -77.9567,-77.941 v 0 -240.953 0 c 0,-43.055 34.9219,-77.9574 77.9567,-77.9574 v 0 h 736.993 v 0 c 43.039,0 77.961,34.9024 77.961,77.9574 v 0 240.953 0 c 0,43.039 -34.922,77.941 -77.961,77.941 v 0 H 128.984 v 0" /><path
         id="path22"
         style="fill:#231f20;fill-opacity:1;fill-rule:nonzero;stroke:none"
         d="m 325.523,125.41 h -70.867 v 79.438 c 0,35.48 -17.691,68.613 -47.156,88.343 v 0 l -10.277,6.891 -14.368,-39.687 -0.988,-1.782 -1.402,-1.422 -1.731,-0.957 -1.98,-0.429 h -1.133 l -1.098,0.179 -1.043,0.344 -0.988,0.504 -0.906,0.664 -0.77,0.797 -0.664,0.895 -0.523,1.027 -43.024,103.461 -0.449,1.715 -0.019,1.73 0.383,1.688 0.769,1.566 1.172,1.293 1.422,0.973 1.601,0.617 1.731,0.195 113.898,-0.195 1.61,-0.219 1.437,-0.613 1.242,-0.969 0.953,-1.281 0.415,-0.899 0.253,-0.937 0.086,-0.953 -0.05,-0.957 -0.235,-0.93 -0.379,-0.906 -0.519,-0.805 -0.653,-0.777 -31.027,-27.844 31.465,-20.648 v 0 c 23.973,-15.731 38.391,-42.461 38.391,-71.098 0,28.691 14.468,55.441 38.464,71.152 v 0 l 31.375,20.594 -31.035,27.844 -0.644,0.777 -0.524,0.805 -0.379,0.906 -0.214,0.93 -0.075,0.957 0.094,0.953 0.25,0.937 0.434,0.899 0.937,1.281 1.238,0.969 1.461,0.613 1.582,0.219 113.903,0.195 1.726,-0.195 1.602,-0.617 1.426,-0.973 1.168,-1.293 0.777,-1.566 0.375,-1.688 -0.02,-1.73 -0.449,-1.715 -42.996,-103.461 -0.523,-1.027 -0.668,-0.895 -0.793,-0.797 -0.899,-0.664 -0.992,-0.504 -1.043,-0.344 -1.097,-0.179 h -1.133 l -1.981,0.429 -1.726,0.957 -1.407,1.422 -0.992,1.782 -14.359,39.687 -10.352,-6.941 v 0 c -29.394,-19.68 -47.09,-52.813 -47.09,-88.293 v 0 -79.438 0" /><path
         id="path24"
         style="fill:#231f20;fill-opacity:1;fill-rule:nonzero;stroke:none"
         d="m 539.172,132.52 c 7.793,-2.606 16.484,-5.04 26.023,-7.11 9.2,-2.07 19.621,-3.289 31.25,-3.449 22.891,0 42.336,6.223 58.664,18.711 16.141,11.973 24.473,30.547 24.813,55.555 0,11.109 -1.563,20.3 -4.512,27.589 -3.113,7.11 -7.109,12.852 -11.972,16.832 -4.864,4.176 -10.418,7.473 -16.485,9.903 -5.906,2.246 -11.805,4.156 -17.539,5.722 v 0 0.704 0 c 9.024,0.683 18.742,5.019 29.328,13.015 5.039,4.336 9.199,10.063 12.508,17.528 3.117,7.109 4.68,15.964 4.68,26.894 -0.176,20.484 -6.77,36.109 -19.778,46.688 -13.191,10.609 -30.547,15.988 -52.254,15.988 -13.195,0 -24.648,-1.227 -34.367,-3.656 -9.375,-2.086 -17.187,-4.336 -23.437,-6.77 v 0 l 2.433,-37.832 v 0 c 15.45,7.813 30.723,11.969 45.828,12.148 10.586,0 19.622,-2.609 27.258,-7.812 7.45,-5.379 11.446,-13.895 11.621,-25.164 0,-7.465 -1.562,-13.715 -4.511,-18.754 -3.301,-5.023 -7.817,-8.855 -13.196,-11.789 -5.39,-2.793 -11.629,-4.699 -18.398,-5.563 -6.953,-1.207 -14.063,-1.906 -21.348,-1.906 v 0 h -7.468 v -34.363 0 c 5.214,0.684 11.289,1.039 18.054,1.039 12.149,0 23.086,-2.605 32.813,-7.813 9.718,-5.378 14.738,-15.277 15.265,-29.515 -0.168,-12.836 -4.336,-22.914 -12.492,-30.199 -7.976,-7.461 -18.582,-11.114 -31.59,-11.114 -11.289,0 -21.008,1.571 -28.984,4.696 -8.156,2.961 -14.758,5.547 -19.621,7.816 v 0 l -2.586,-38.019 v 0" /><path
         id="path26"
         style="fill:#231f20;fill-opacity:1;fill-rule:nonzero;stroke:none"
         d="m 754.309,253.68 -12.336,-6.082 v 0 c -9.715,-4.336 -17.871,-11.45 -24.297,-21.168 -6.59,-9.719 -9.883,-21.528 -9.883,-35.59 v 0 0 0 c 0,-19.961 6.77,-36.281 20.305,-49.121 13.347,-13.008 31.59,-19.598 54.668,-19.758 22.39,0 40.625,5.707 54.843,17.336 14.239,11.621 21.524,29.152 21.707,52.933 -0.183,14.399 -3.816,26.731 -10.769,36.625 -7.121,9.543 -15.801,17.016 -26.391,22.735 v 0 l -9.011,5.027 v 0 c 11.789,6.082 21.347,14.238 28.457,24.477 7.109,10.242 10.586,22.051 10.586,35.586 -0.528,19.965 -7.293,35.062 -20.645,45.468 -13.191,9.903 -29.004,14.942 -47.215,14.942 -20.664,0 -37.316,-5.563 -49.824,-16.672 -12.832,-11.461 -19.445,-27.773 -19.602,-49.121 0,-14.055 3.477,-25.68 10.586,-34.879 6.946,-9.203 16.485,-16.852 28.821,-22.738 v 0" /><path
         id="path28"
         style="fill:#ffffff;fill-opacity:1;fill-rule:nonzero;stroke:none"
         d="m 786.758,269.289 c -3.992,2.609 -7.637,5.379 -11.102,8.172 -3.664,2.594 -7.297,5.543 -10.429,8.676 -6.77,6.066 -10.235,14.218 -10.403,24.457 v 0 0 0 c 0,10.609 2.949,19.105 9.016,25.187 5.203,6.063 12.156,9.012 20.488,9.012 18.914,-0.516 28.289,-11.445 27.938,-32.449 -0.164,-10.426 -3.114,-18.918 -8.496,-25.524 -2.254,-3.297 -5.04,-6.425 -8.153,-9.359 -3.301,-2.793 -6.25,-5.563 -8.859,-8.172 v 0" /><path
         id="path30"
         style="fill:#ffffff;fill-opacity:1;fill-rule:nonzero;stroke:none"
         d="m 781.035,238.742 9.016,-5.726 v 0 c 9.375,-5.379 16.328,-11.102 20.664,-17.012 3.973,-6.063 5.906,-13.875 5.906,-23.43 0,-11.625 -2.793,-20.824 -8.172,-27.781 -5.547,-7.109 -13.879,-10.574 -24.992,-10.574 -10.762,0 -18.914,3.465 -24.473,10.574 -5.722,6.77 -8.496,15.469 -8.496,26.387 v 0 0 0 c 0,17.715 7.453,31.593 22.395,41.496 v 0 l 8.152,6.066 v 0" /></g></g></svg>