<?xml version="1.0" encoding="UTF-8" standalone="no"?>
<svg
   xmlns:dc="http://purl.org/dc/elements/1.1/"
   xmlns:cc="http://creativecommons.org/ns#"
   xmlns:rdf="http://www.w3.org/1999/02/22-rdf-syntax-ns#"
   xmlns:svg="http://www.w3.org/2000/svg"
   xmlns="http://www.w3.org/2000/svg"
   viewBox="0 0 132.65334 66.519997"
   height="66.519997"
   width="132.65334"
   xml:space="preserve"
   id="svg2"
   version="1.1"><metadata
     id="metadata8"><rdf:RDF><cc:Work
         rdf:about=""><dc:format>image/svg+xml</dc:format><dc:type
           rdf:resource="http://purl.org/dc/dcmitype/StillImage" /></cc:Work></rdf:RDF></metadata><defs
     id="defs6" /><g
     transform="matrix(1.3333333,0,0,-1.3333333,0,66.52)"
     id="g10"><g
       transform="scale(0.1)"
       id="g12"><path
         id="path14"
         style="fill:#ffffff;fill-opacity:1;fill-rule:nonzero;stroke:none"
         d="m 1.41797,1.41797 h 992.09 v 496.027 h -992.09 z" /><path
         id="path16"
         style="fill:none;stroke:#231f20;stroke-width:2.83500004;stroke-linecap:butt;stroke-linejoin:miter;stroke-miterlimit:4;stroke-dasharray:none;stroke-opacity:1"
         d="M 1.41797,1.41797 H 993.508 V 497.445 H 1.41797 V 1.41797" /><path
         id="path18"
         style="fill:#231f20;fill-opacity:1;fill-rule:nonzero;stroke:none"
         d="m 867.219,19.4531 c 59.773,0 108.25,48.4766 108.25,108.2419 v 0 243.5 0 c 0,59.778 -48.477,108.215 -108.25,108.215 v 0 H 127.672 v 0 C 67.8906,479.41 19.418,430.973 19.418,371.195 v 0 -243.5 0 c 0,-59.7653 48.4726,-108.2419 108.254,-108.2419 v 0 h 739.547 v 0" /><path
         id="path20"
         style="fill:#ffffff;fill-opacity:1;fill-rule:nonzero;stroke:none"
         d="m 867.219,46.5156 c 44.851,0 81.199,36.3164 81.199,81.1604 v 0 243.535 0 c 0,44.805 -36.348,81.164 -81.199,81.164 v 0 H 127.652 v 0 c -44.8395,0 -81.1832,-36.359 -81.1832,-81.164 v 0 -243.535 0 c 0,-44.844 36.3437,-81.1604 81.1832,-81.1604 v 0 h 739.567 v 0" /><path
         id="path22"
         style="fill:#231f20;fill-opacity:1;fill-rule:nonzero;stroke:none"
         d="m 319.727,299.719 56.418,37.023 -31.594,28.371 -0.684,0.75 -0.523,0.852 -0.395,0.879 -0.234,0.969 -0.055,0.957 0.09,0.992 0.273,0.953 0.43,0.918 0.973,1.293 1.258,0.972 1.461,0.649 1.621,0.203 115.992,0.215 1.742,-0.215 1.641,-0.617 1.441,-0.988 1.203,-1.332 0.774,-1.567 0.394,-1.73 -0.035,-1.782 -0.449,-1.726 -43.778,-105.352 -0.558,-1.027 -0.664,-0.938 -0.789,-0.808 -0.918,-0.653 -1.012,-0.5 -1.059,-0.378 -1.121,-0.18 h -1.172 l -1.996,0.43 -1.761,0.992 -1.442,1.441 -1.004,1.817 -14.621,40.41 -10.527,-7.09 v 0 C 346.875,265.699 330.059,212.035 348.492,164.758 v 0 l 16.149,-41.582 H 256.047 l -1.551,51.472 -6.012,201.043 h 18.02 l 35.117,-90 v 0 c 5.668,5.168 11.719,9.832 18.106,14.028 v 0" /><path
         id="path24"
         style="fill:#231f20;fill-opacity:1;fill-rule:nonzero;stroke:none"
         d="m 112.133,123.176 98.121,252.539 h 18.051 L 226.469,315.09 220.715,123.176 H 112.133" /><path
         id="path26"
         style="fill:#231f20;fill-opacity:1;fill-rule:nonzero;stroke:none"
         d="m 546.113,179.336 h 95.938 v -54.004 h 35.539 v 54.004 h 27.359 v 29.496 H 677.59 v 164.523 h -44.067 l -87.41,-158.492 v -35.527 0" /><path
         id="path28"
         style="fill:#231f20;fill-opacity:1;fill-rule:nonzero;stroke:none"
         d="m 722.676,132.422 c 7.453,-2.481 15.984,-4.961 25.578,-6.746 9.598,-2.113 19.551,-3.164 30.203,-3.164 12.441,0 23.816,1.754 34.109,4.949 10.317,3.547 18.832,8.523 26.301,14.559 7.473,6.41 13.137,14.222 17.063,23.109 3.906,8.875 6.035,18.828 6.035,30.207 v 0 0 0 c 0,9.234 -1.43,17.402 -3.906,24.512 -2.844,7.117 -6.399,12.785 -11.016,17.769 -4.633,4.965 -9.961,8.871 -15.988,11.719 -6.043,2.844 -12.442,4.984 -19.192,6.047 v 0 0.703 0 c 5.332,1.078 10.657,2.844 16.352,5.324 5.32,2.508 10.652,6.051 15.281,10.676 4.602,4.609 8.164,10.297 11.016,17.406 2.843,6.75 4.25,14.922 4.25,24.879 0,9.949 -1.77,19.184 -5.332,26.996 -3.907,7.832 -8.879,14.223 -15.285,19.551 -6.387,5.328 -13.836,9.234 -22.735,11.734 -8.887,2.485 -18.125,3.907 -28.418,3.907 -12.097,0 -22.754,-1.082 -31.992,-2.844 -9.59,-2.145 -17.766,-4.629 -24.871,-7.469 v 0 l 2.488,-33.75 v 0 c 7.461,3.906 15.637,7.109 23.809,9.594 8.176,2.48 15.984,3.547 22.734,3.547 11.738,0 21.692,-3.192 29.863,-9.598 8.172,-6.391 12.082,-15.625 12.082,-27.355 0,-7.454 -1.425,-13.504 -4.269,-18.469 -2.844,-5.348 -6.746,-9.254 -11.719,-12.801 -5.344,-3.203 -11.379,-5.687 -18.484,-7.109 -7.11,-1.785 -14.922,-2.485 -23.098,-2.485 v 0 h -10.312 v -29.843 0 c 2.136,0 4.992,0 8.535,0.343 3.203,0 7.472,0 12.433,0 14.918,0 26.661,-3.55 35.172,-10.297 8.535,-6.75 12.793,-16.707 12.793,-29.14 0,-7.82 -1.414,-14.567 -3.902,-20.25 -2.481,-5.695 -6.047,-10.313 -10.313,-13.867 -4.609,-3.895 -9.589,-6.75 -15.265,-8.524 -6.043,-1.789 -12.09,-2.844 -18.848,-2.844 -9.59,0 -18.469,1.415 -26.633,4.258 -8.172,2.489 -15.64,5.696 -22.039,8.899 v 0 l -2.48,-34.133 v 0" /><path
         id="path30"
         style="fill:#ffffff;fill-opacity:1;fill-rule:nonzero;stroke:none"
         d="M 575.598,208.832 641.34,334.98 h 0.711 V 208.832 h -66.453 v 0" /></g></g></svg>