<?xml version="1.0" encoding="UTF-8" standalone="no"?>
<svg
   xmlns:dc="http://purl.org/dc/elements/1.1/"
   xmlns:cc="http://creativecommons.org/ns#"
   xmlns:rdf="http://www.w3.org/1999/02/22-rdf-syntax-ns#"
   xmlns:svg="http://www.w3.org/2000/svg"
   xmlns="http://www.w3.org/2000/svg"
   viewBox="0 0 170.08 81.639999"
   height="81.639999"
   width="170.08"
   xml:space="preserve"
   id="svg2"
   version="1.1"><metadata
     id="metadata8"><rdf:RDF><cc:Work
         rdf:about=""><dc:format>image/svg+xml</dc:format><dc:type
           rdf:resource="http://purl.org/dc/dcmitype/StillImage" /></cc:Work></rdf:RDF></metadata><defs
     id="defs6" /><g
     transform="matrix(1.3333333,0,0,-1.3333333,0,81.64)"
     id="g10"><g
       transform="scale(0.1)"
       id="g12"><path
         id="path14"
         style="fill:#1a67bb;fill-opacity:1;fill-rule:nonzero;stroke:none"
         d="M 0,0 H 1275.59 V 612.285 H 0 Z" /><path
         id="path16"
         style="fill:#ffffff;fill-opacity:1;fill-rule:nonzero;stroke:none"
         d="m 1211.41,13.5859 c 28.2,0 50.99,22.8125 50.99,50.9766 v 0 483.2035 0 c 0,28.168 -22.79,50.98 -50.99,50.98 v 0 H 65.1133 v 0 c -28.1953,0 -50.9961,-22.812 -50.9961,-50.98 v 0 -483.2035 0 c 0,-28.1641 22.8008,-50.9766 50.9961,-50.9766 v 0 H 1211.41 v 0" /><path
         id="path18"
         style="fill:#1a67bb;fill-opacity:1;fill-rule:nonzero;stroke:none"
         d="m 1211.03,27.2461 c 20.57,0 37.35,16.7539 37.35,37.4883 v 0 483.0316 0 c 0,20.734 -16.78,37.316 -37.5,37.316 v 0 H 64.5664 v 0 c -20.5625,0 -37.3398,-16.582 -37.3398,-37.316 v 0 -483.0316 0 C 27.2266,44 44.0039,27.2461 64.7227,27.2461 v 0 H 1211.03 v 0" /><path
         id="path20"
         style="fill:#ffffff;fill-opacity:1;fill-rule:nonzero;stroke:none"
         d="m 293.914,346.145 h 21.289 v 105 h -21.289 v -105 0" /><path
         id="path22"
         style="fill:#ffffff;fill-opacity:1;fill-rule:nonzero;stroke:none"
         d="m 293.301,472.223 h 22.515 v 22.718 h -22.515 v -22.718 0" /><path
         id="path24"
         style="fill:#ffffff;fill-opacity:1;fill-rule:nonzero;stroke:none"
         d="m 366.273,392.602 h 59.961 v 7.164 c 0,9.211 -1.019,16.988 -2.859,23.746 -1.844,6.754 -4.504,12.273 -7.984,16.582 -3.481,4.293 -7.774,7.367 -12.485,9.402 -4.914,2.051 -10.234,3.078 -15.968,3.078 -6.547,0 -12.481,-1.226 -17.598,-3.886 -5.32,-2.665 -9.824,-6.547 -13.305,-11.262 -3.48,-4.914 -6.344,-10.637 -8.18,-17.403 -1.851,-6.742 -2.871,-14.117 -2.871,-22.097 0,-7.578 1.02,-14.742 2.871,-21.289 1.836,-6.547 4.504,-12.071 8.391,-16.782 3.676,-4.707 8.387,-8.398 14.113,-11.062 5.739,-2.852 12.489,-4.074 20.067,-4.074 6.547,0 12.48,0.613 17.597,2.039 5.11,1.426 9.207,2.859 12.688,4.293 v 0 l -1.023,17.804 v 0 c -2.661,-1.839 -6.133,-3.675 -10.231,-5.523 -4.301,-1.844 -9.418,-2.863 -15.551,-2.863 -9.836,0 -16.789,2.66 -21.086,8.183 -4.3,5.325 -6.547,13.305 -6.547,23.95 v 0" /><path
         id="path26"
         style="fill:#ffffff;fill-opacity:1;fill-rule:nonzero;stroke:none"
         d="m 520.609,346.145 h 20.27 v 0 c -0.207,2.648 -0.414,5.519 -0.609,8.585 -0.211,3.079 -0.211,6.547 -0.211,10.036 v 0 134.882 H 518.77 v -63.246 h -0.407 v 0 c -2.66,4.707 -6.14,8.598 -10.433,11.668 -4.309,3.075 -9.825,4.504 -16.582,4.504 -11.055,0 -19.856,-4.504 -26.407,-13.711 -6.546,-9.211 -9.824,-22.515 -9.824,-40.324 0,-8.191 0.824,-15.551 2.457,-22.109 1.434,-6.75 3.887,-12.282 6.961,-16.989 3.07,-4.711 6.957,-8.39 11.457,-10.843 4.5,-2.657 9.824,-3.879 15.762,-3.879 3.887,0 7.367,0.402 10.437,1.625 2.868,1.023 5.528,2.254 7.786,3.886 2.246,1.641 4.086,3.481 5.515,5.532 1.438,2.047 2.871,4.093 3.891,6.343 v 0 h 0.613 v 0 c 0,-1.019 0,-2.25 0.207,-3.89 0,-1.633 0,-3.274 0.207,-4.91 0,-1.641 0,-3.075 0.199,-4.512 0,-1.426 0,-2.246 0,-2.648 v 0" /><path
         id="path28"
         style="fill:#ffffff;fill-opacity:1;fill-rule:nonzero;stroke:none"
         d="m 591.797,392.602 h 59.949 v 7.164 c 0,9.211 -1.019,16.988 -2.859,23.746 -1.84,6.754 -4.504,12.273 -7.985,16.582 -3.472,4.293 -7.769,7.367 -12.476,9.402 -4.914,2.051 -10.238,3.078 -15.965,3.078 -6.547,0 -12.484,-1.226 -17.598,-3.886 -5.324,-2.665 -9.824,-6.547 -13.304,-11.262 -3.485,-4.914 -6.344,-10.637 -8.184,-17.403 -1.852,-6.742 -2.867,-14.117 -2.867,-22.097 0,-7.578 1.015,-14.742 2.867,-21.289 1.84,-6.547 4.5,-12.071 8.387,-16.782 3.683,-4.707 8.394,-8.398 14.121,-11.062 5.738,-2.852 12.48,-4.074 20.062,-4.074 6.551,0 12.481,0.613 17.602,2.039 5.101,1.426 9.195,2.859 12.68,4.293 v 0 l -1.028,17.804 v 0 c -2.66,-1.839 -6.136,-3.675 -10.219,-5.523 -4.308,-1.844 -9.417,-2.863 -15.558,-2.863 -9.828,0 -16.785,2.66 -21.078,8.183 -4.301,5.325 -6.547,13.305 -6.547,23.95 v 0" /><path
         id="path30"
         style="fill:#ffffff;fill-opacity:1;fill-rule:nonzero;stroke:none"
         d="m 682.922,346.145 h 21.281 v 56.492 c 0,5.316 0.61,9.824 1.836,13.711 1.234,3.886 2.871,6.953 4.918,9.414 2.047,2.25 4.5,4.086 7.164,5.316 2.66,1.031 5.32,1.641 8.387,1.641 1.234,0 2.465,0 3.48,-0.207 1.032,-0.199 2.258,-0.403 3.278,-0.614 v 0 20.469 0 c -0.407,0 -0.821,0 -1.02,0.207 -0.207,0 -0.617,0 -1.031,0 -3.887,0 -7.367,-0.418 -10.434,-1.429 -3.066,-1.024 -5.519,-2.457 -7.777,-4.297 -2.25,-1.848 -4.305,-3.899 -5.934,-6.145 -1.64,-2.258 -3.066,-4.707 -4.097,-7.367 v 0 h -0.407 v 0 c 0,0.82 0,2.047 0,3.68 -0.203,1.64 -0.203,3.484 -0.414,5.32 -0.199,1.848 -0.199,3.484 -0.199,5.125 -0.207,1.637 -0.207,2.859 -0.207,3.684 v 0 h -19.648 v 0 c 0.211,-3.075 0.406,-6.344 0.617,-9.622 0.207,-3.48 0.207,-6.96 0.207,-10.445 v 0 -84.933 0" /><path
         id="path32"
         style="fill:#ffffff;fill-opacity:1;fill-rule:nonzero;stroke:none"
         d="m 753.07,346.145 h 20.051 v 0 c 0,0.402 0,1.222 0.207,2.648 0.207,1.437 0.207,2.871 0.406,4.715 0,1.64 0,3.273 0.211,4.914 0,1.633 0,2.855 0,3.683 v 0 h 0.414 v 0 c 1.016,-2.25 2.454,-4.296 4.086,-6.343 1.434,-2.051 3.274,-3.891 5.528,-5.532 2.257,-1.632 4.707,-2.863 7.773,-3.886 3.074,-1.223 6.555,-1.625 10.442,-1.625 5.937,0 11.257,1.222 15.757,3.879 4.5,2.453 8.399,6.132 11.465,10.843 3.07,4.707 5.32,10.239 6.957,16.989 1.434,6.558 2.254,13.918 2.254,22.109 v 0 0 0 c 0,17.809 -3.273,31.113 -9.824,40.324 -6.547,9.207 -15.352,13.711 -26.399,13.711 -6.757,0 -12.281,-1.429 -16.378,-4.504 -4.301,-3.07 -7.774,-6.961 -10.434,-11.668 v 0 h -0.414 v 63.246 h -21.281 v -134.882 0 c 0,-3.489 0,-6.957 -0.211,-10.036 -0.203,-3.066 -0.403,-5.937 -0.61,-8.585 v 0" /><path
         id="path34"
         style="fill:#ffffff;fill-opacity:1;fill-rule:nonzero;stroke:none"
         d="m 857.555,346.145 h 21.289 v 105 h -21.289 v -105 0" /><path
         id="path36"
         style="fill:#ffffff;fill-opacity:1;fill-rule:nonzero;stroke:none"
         d="m 856.938,472.223 h 22.519 v 22.718 h -22.519 v -22.718 0" /><path
         id="path38"
         style="fill:#ffffff;fill-opacity:1;fill-rule:nonzero;stroke:none"
         d="m 935.828,360.875 h 0.418 v 0 c 2.66,-4.707 6.133,-8.594 10.438,-11.664 4.097,-3.066 9.613,-4.492 16.371,-4.492 11.05,0 19.855,4.492 26.402,13.703 6.547,9.211 9.824,22.516 9.824,40.324 v 0 0 0 c 0,8.184 -0.82,15.555 -2.25,22.309 -1.636,6.547 -3.89,12.281 -6.957,16.988 -3.066,4.707 -6.965,8.184 -11.465,10.844 -4.714,2.461 -9.824,3.687 -15.761,3.687 -3.887,0 -7.371,-0.418 -10.438,-1.429 -3.066,-1.024 -5.519,-2.457 -7.777,-4.098 -2.254,-1.637 -4.09,-3.484 -5.528,-5.524 -1.636,-2.046 -3.066,-4.097 -4.085,-6.351 v 0 h -0.415 v 0 c 0,1.027 0,2.254 0,3.891 -0.21,1.64 -0.21,3.273 -0.21,4.917 -0.196,1.629 -0.196,3.067 -0.403,4.5 -0.207,1.434 -0.207,2.25 -0.207,2.665 v 0 H 913.73 v 0 c 0.204,-2.665 0.407,-5.536 0.614,-8.602 0.207,-3.066 0.207,-6.547 0.207,-10.031 v 0 -130.574 h 21.277 v 58.937 0" /><path
         id="path40"
         style="fill:#ffffff;fill-opacity:1;fill-rule:nonzero;stroke:none"
         d="m 1051.98,360.875 h 0.41 v 0 c 2.66,-4.707 6.13,-8.594 10.44,-11.664 4.1,-3.066 9.62,-4.492 16.37,-4.492 11.05,0 19.86,4.492 26.41,13.703 6.55,9.211 9.82,22.516 9.82,40.324 v 0 0 0 c 0,8.184 -0.82,15.555 -2.25,22.309 -1.64,6.547 -3.89,12.281 -6.96,16.988 -3.07,4.707 -6.96,8.184 -11.47,10.844 -4.71,2.461 -9.82,3.687 -15.76,3.687 -3.88,0 -7.36,-0.418 -10.43,-1.429 -3.07,-1.024 -5.52,-2.457 -7.78,-4.098 -2.26,-1.637 -4.09,-3.484 -5.53,-5.524 -1.63,-2.046 -3.06,-4.097 -4.08,-6.351 v 0 h -0.42 v 0 c 0,1.027 0,2.254 0,3.891 -0.2,1.64 -0.2,3.273 -0.2,4.917 -0.2,1.629 -0.2,3.067 -0.41,4.5 -0.21,1.434 -0.21,2.25 -0.21,2.665 v 0 h -20.05 v 0 c 0.2,-2.665 0.4,-5.536 0.61,-8.602 0.21,-3.066 0.21,-6.547 0.21,-10.031 v 0 -130.574 h 21.28 v 58.937 0" /><path
         id="path42"
         style="fill:#ffffff;fill-opacity:1;fill-rule:nonzero;stroke:none"
         d="m 391.047,123.344 h 18.078 v 119.062 h -15.859 l -26.606,-24.226 8.867,-12.789 15.52,15.863 v -97.91 0" /><path
         id="path44"
         style="fill:#ffffff;fill-opacity:1;fill-rule:nonzero;stroke:none"
         d="m 442.461,139.379 c 2.906,-5.461 6.656,-9.723 11.258,-12.785 4.605,-3.078 10.066,-4.606 16.715,-4.606 6.656,0 12.281,1.528 16.886,4.77 4.602,3.07 8.352,7.336 11.258,12.793 2.902,5.465 4.953,11.941 6.145,19.277 1.191,7.328 1.875,15.348 1.875,24.047 v 0 0 0 c 0,8.703 -0.684,16.719 -1.875,24.219 -1.192,7.336 -3.243,13.812 -6.145,19.277 -2.906,5.461 -6.656,9.719 -11.258,12.961 -4.605,3.074 -10.23,4.606 -16.886,4.606 -6.649,0 -12.286,-1.532 -16.887,-4.606 -4.606,-3.242 -8.18,-7.5 -11.086,-12.961 -2.895,-5.465 -4.941,-11.941 -6.133,-19.277 -1.199,-7.5 -1.875,-15.516 -1.875,-24.219 0,-8.699 0.676,-16.719 1.875,-24.047 1.192,-7.512 3.238,-13.988 6.133,-19.449 v 0" /><path
         id="path46"
         style="fill:#ffffff;fill-opacity:1;fill-rule:nonzero;stroke:none"
         d="m 534.902,139.379 c 2.899,-5.461 6.649,-9.723 11.254,-12.785 4.606,-3.078 10.071,-4.606 16.723,-4.606 6.652,0 12.277,1.528 16.883,4.77 4.601,3.07 8.351,7.336 11.254,12.793 2.906,5.465 4.949,11.941 6.14,19.277 1.199,7.328 1.883,15.348 1.883,24.047 v 0 0 0 c 0,8.703 -0.684,16.719 -1.883,24.219 -1.191,7.336 -3.234,13.812 -6.14,19.277 -2.903,5.461 -6.653,9.719 -11.254,12.961 -4.606,3.074 -10.231,4.606 -16.883,4.606 -6.652,0 -12.289,-1.532 -16.895,-4.606 -4.601,-3.242 -8.183,-7.5 -11.082,-12.961 -2.894,-5.465 -4.941,-11.941 -6.136,-19.277 -1.203,-7.5 -1.875,-15.516 -1.875,-24.219 0,-8.699 0.672,-16.719 1.875,-24.047 1.195,-7.512 3.242,-13.988 6.136,-19.449 v 0" /><path
         id="path48"
         style="fill:#ffffff;fill-opacity:1;fill-rule:nonzero;stroke:none"
         d="m 627.34,139.379 c 2.902,-5.461 6.652,-9.723 11.25,-12.785 4.601,-3.078 10.066,-4.606 16.719,-4.606 6.652,0 12.277,1.528 16.882,4.77 4.606,3.07 8.356,7.336 11.254,12.793 2.907,5.465 4.953,11.941 6.145,19.277 1.191,7.328 1.875,15.348 1.875,24.047 v 0 0 0 c 0,8.703 -0.684,16.719 -1.875,24.219 -1.192,7.336 -3.238,13.812 -6.145,19.277 -2.898,5.461 -6.648,9.719 -11.254,12.961 -4.605,3.074 -10.23,4.606 -16.882,4.606 -6.653,0 -12.286,-1.532 -16.891,-4.606 -4.602,-3.242 -8.176,-7.5 -11.078,-12.961 -2.891,-5.465 -4.942,-11.941 -6.133,-19.277 -1.203,-7.5 -1.875,-15.516 -1.875,-24.219 0,-8.699 0.672,-16.719 1.875,-24.047 1.191,-7.512 3.242,-13.988 6.133,-19.449 v 0" /><path
         id="path50"
         style="fill:#ffffff;fill-opacity:1;fill-rule:nonzero;stroke:none"
         d="m 800.477,123.344 h 17.746 v 53.558 c 0,6.481 1.355,11.434 3.925,15.012 2.555,3.586 6.481,5.289 11.422,5.289 8.188,0 12.285,-5.453 12.285,-16.203 v 0 -57.656 h 17.739 v 53.558 0 c 0,6.481 1.363,11.434 3.922,15.012 2.558,3.586 6.476,5.289 11.418,5.289 8.195,0 12.285,-5.453 12.285,-16.203 v 0 -57.656 h 17.742 v 57.308 0 c 0,10.243 -2.047,18.086 -6.145,23.375 -4.265,5.289 -10.57,8.02 -19.101,8.02 -5.625,0 -10.231,-1.367 -13.817,-4.098 -3.585,-2.898 -6.304,-6.14 -8.527,-9.719 -0.855,1.704 -1.875,3.411 -3.066,5.114 -1.2,1.539 -2.731,3.066 -4.442,4.433 -1.699,1.192 -3.75,2.219 -5.972,3.078 -2.207,0.844 -4.942,1.192 -7.844,1.192 -5.453,0 -9.891,-1.367 -13.469,-4.098 -3.586,-2.898 -6.48,-6.308 -8.355,-10.574 v 0 h -0.344 v 0 c 0,0.512 0,1.535 0,2.902 -0.176,1.192 -0.176,2.555 -0.176,3.922 -0.16,1.364 -0.16,2.731 -0.16,3.926 -0.176,1.191 -0.176,2.207 -0.176,2.73 v 0 h -17.562 v 0 c 0.16,-2.398 0.336,-4.953 0.508,-7.687 0.164,-2.73 0.164,-5.625 0.164,-8.859 v 0 -70.965 0" /><path
         id="path52"
         style="fill:#ffffff;fill-opacity:1;fill-rule:nonzero;stroke:none"
         d="m 160.176,346.145 h 20.469 v 114.207 h 0.406 l 50.551,-114.207 h 26.82 V 489.004 H 237.953 V 373.977 h -0.414 l -50.551,115.027 h -26.812 v -142.859 0" /><path
         id="path54"
         style="fill:#1a67bb;fill-opacity:1;fill-rule:nonzero;stroke:none"
         d="m 366.273,407.133 c 0.2,9.621 2.036,17.199 5.524,22.519 3.48,5.114 8.387,7.774 14.531,7.774 12.692,0 19.031,-10.028 19.031,-30.293 v 0 h -39.086 v 0" /><path
         id="path56"
         style="fill:#1a67bb;fill-opacity:1;fill-rule:nonzero;stroke:none"
         d="m 481.109,370.492 c -3.066,6.348 -4.703,15.969 -4.703,28.656 0,12.082 1.637,21.297 4.91,27.641 3.274,6.336 8.594,9.613 16.172,9.613 7.571,0 12.891,-3.277 16.375,-10.023 3.274,-6.754 4.907,-15.969 4.907,-27.633 v 0 0 0 c 0,-11.672 -1.633,-20.887 -4.907,-27.633 -3.484,-6.758 -9.011,-10.238 -16.582,-10.238 -7.773,0 -13.097,3.273 -16.172,9.617 v 0" /><path
         id="path58"
         style="fill:#1a67bb;fill-opacity:1;fill-rule:nonzero;stroke:none"
         d="m 591.797,407.133 c 0.199,9.621 2.035,17.199 5.516,22.519 3.484,5.114 8.394,7.774 14.539,7.774 12.687,0 19.031,-10.028 19.031,-30.293 v 0 h -39.086 v 0" /><path
         id="path60"
         style="fill:#1a67bb;fill-opacity:1;fill-rule:nonzero;stroke:none"
         d="m 780.293,371.313 c -3.48,6.757 -5.121,15.968 -5.121,27.433 0,11.664 1.641,20.879 5.121,27.633 3.477,6.746 8.797,10.023 16.168,10.023 7.566,0 12.891,-3.277 16.16,-9.613 3.078,-6.555 4.711,-15.766 4.711,-27.641 v 0 0 0 c 0,-12.886 -1.434,-22.308 -4.5,-28.656 -3.066,-6.344 -8.598,-9.617 -16.16,-9.617 -7.582,0 -13.102,3.48 -16.379,10.438 v 0" /><path
         id="path62"
         style="fill:#1a67bb;fill-opacity:1;fill-rule:nonzero;stroke:none"
         d="m 940.957,370.906 c -3.488,6.762 -5.129,15.969 -5.129,27.633 0,11.66 1.641,20.875 5.129,27.633 3.27,6.754 8.793,10.23 16.371,10.23 7.774,0 13.098,-3.277 16.164,-9.613 3.067,-6.344 4.5,-15.973 4.5,-28.652 v 0 0 0 c 0,-12.082 -1.629,-21.297 -4.707,-27.645 -3.277,-6.344 -8.597,-9.617 -16.168,-9.617 -7.578,0 -12.89,3.273 -16.16,10.031 v 0" /><path
         id="path64"
         style="fill:#1a67bb;fill-opacity:1;fill-rule:nonzero;stroke:none"
         d="m 1057.11,370.906 c -3.49,6.762 -5.13,15.969 -5.13,27.633 0,11.66 1.64,20.875 5.13,27.633 3.27,6.754 8.79,10.23 16.37,10.23 7.77,0 13.09,-3.277 16.16,-9.613 3.07,-6.344 4.5,-15.973 4.5,-28.652 v 0 0 0 c 0,-12.082 -1.63,-21.297 -4.71,-27.645 -3.27,-6.344 -8.59,-9.617 -16.16,-9.617 -7.58,0 -12.89,3.273 -16.16,10.031 v 0" /><path
         id="path66"
         style="fill:#1a67bb;fill-opacity:1;fill-rule:nonzero;stroke:none"
         d="m 456.449,148.418 c -2.558,8.02 -3.926,19.621 -3.926,34.457 0,14.844 1.368,26.441 3.926,34.621 2.559,8.192 7.336,12.289 13.985,12.289 6.82,0 11.597,-4.097 14.156,-12.113 2.558,-8.184 3.926,-19.785 3.926,-34.797 v 0 0 0 c 0,-14.836 -1.368,-26.437 -3.926,-34.457 -2.731,-8.184 -7.5,-12.281 -14.156,-12.281 -6.649,0 -11.426,4.097 -13.985,12.281 v 0" /><path
         id="path68"
         style="fill:#1a67bb;fill-opacity:1;fill-rule:nonzero;stroke:none"
         d="m 548.887,148.418 c -2.555,8.02 -3.922,19.621 -3.922,34.457 0,14.844 1.367,26.441 3.922,34.621 2.558,8.192 7.34,12.289 13.992,12.289 6.812,0 11.594,-4.097 14.152,-12.113 2.555,-8.184 3.922,-19.785 3.922,-34.797 v 0 0 0 c 0,-14.836 -1.367,-26.437 -3.922,-34.457 -2.734,-8.184 -7.5,-12.281 -14.152,-12.281 -6.652,0 -11.434,4.097 -13.992,12.281 v 0" /><path
         id="path70"
         style="fill:#1a67bb;fill-opacity:1;fill-rule:nonzero;stroke:none"
         d="m 641.324,148.418 c -2.566,8.02 -3.918,19.621 -3.918,34.457 0,14.844 1.352,26.441 3.918,34.621 2.555,8.192 7.332,12.289 13.985,12.289 6.816,0 11.593,-4.097 14.148,-12.113 2.559,-8.184 3.926,-19.785 3.926,-34.797 v 0 0 0 c 0,-14.836 -1.367,-26.437 -3.926,-34.457 -2.73,-8.184 -7.496,-12.281 -14.148,-12.281 -6.653,0 -11.43,4.097 -13.985,12.281 v 0" /></g></g></svg>