<?xml version="1.0" encoding="UTF-8" standalone="no"?>
<svg
   xmlns:dc="http://purl.org/dc/elements/1.1/"
   xmlns:cc="http://creativecommons.org/ns#"
   xmlns:rdf="http://www.w3.org/1999/02/22-rdf-syntax-ns#"
   xmlns:svg="http://www.w3.org/2000/svg"
   xmlns="http://www.w3.org/2000/svg"
   viewBox="0 0 170.08 126.98667"
   height="126.98667"
   width="170.08"
   xml:space="preserve"
   id="svg2"
   version="1.1"><metadata
     id="metadata8"><rdf:RDF><cc:Work
         rdf:about=""><dc:format>image/svg+xml</dc:format><dc:type
           rdf:resource="http://purl.org/dc/dcmitype/StillImage" /></cc:Work></rdf:RDF></metadata><defs
     id="defs6" /><g
     transform="matrix(1.3333333,0,0,-1.3333333,0,126.98667)"
     id="g10"><g
       transform="scale(0.1)"
       id="g12"><path
         id="path14"
         style="fill:#1a67bb;fill-opacity:1;fill-rule:nonzero;stroke:none"
         d="M 0,0 H 1275.59 V 952.426 H 0 Z" /><path
         id="path16"
         style="fill:#ffffff;fill-opacity:1;fill-rule:nonzero;stroke:none"
         d="m 1258.59,884.406 c 0.01,28.176 -22.85,51.051 -51.03,51.024 v 0 H 68.0313 v 0 c -28.1797,0.027 -51.043,-22.848 -51.0235,-51.024 v 0 -816.3669 0 C 16.9805,39.8633 39.8398,17.0039 68.0117,17.0117 v 0 H 1207.54 v 0 c 28.18,-0.0273 51.05,22.8242 51.05,51.0078 v 0 816.3865 0" /><path
         id="path18"
         style="fill:#1a67bb;fill-opacity:1;fill-rule:nonzero;stroke:none"
         d="M 1241.58,884.406 V 68.0195 c 0,-18.7812 -15.24,-34.0234 -34.03,-33.9961 v 0 H 68.0156 v 0 C 49.2383,34.0039 34,49.25 34.0117,68.0391 v 0 816.3669 0 C 34,903.195 49.25,918.434 68.0313,918.422 v 0 H 1207.56 v 0 c 18.79,0.012 34.03,-15.227 34.02,-34.016 v 0" /><path
         id="path20"
         style="fill:#ffffff;fill-opacity:1;fill-rule:nonzero;stroke:none"
         d="m 779.941,292.031 c 2.532,5.196 -0.996,11.309 -6.757,11.719 v 0 l -163.403,11.641 v 0 c -7.468,0.547 -11.656,-8.426 -6.445,-13.809 v 0 l 46.793,-48.398 -158.602,-84.5 30.618,-53.028 152.472,95.106 18.52,-64.727 v 0 c 2.047,-7.207 11.922,-8.066 15.191,-1.328 v 0 l 71.613,147.324 v 0" /><path
         id="path22"
         style="fill:#ffffff;fill-opacity:1;fill-rule:nonzero;stroke:none"
         d="m 151.348,673.512 h 20.5 v 114.461 h 0.414 l 50.633,-114.461 h 26.867 V 816.695 H 229.258 V 701.402 h -0.414 l -50.641,115.293 h -26.855 v -143.183 0" /><path
         id="path24"
         style="fill:#ffffff;fill-opacity:1;fill-rule:nonzero;stroke:none"
         d="m 285.32,673.512 h 21.317 v 105.23 H 285.32 v -105.23 0" /><path
         id="path26"
         style="fill:#ffffff;fill-opacity:1;fill-rule:nonzero;stroke:none"
         d="m 284.707,799.871 h 22.543 v 22.77 h -22.543 v -22.77 0" /><path
         id="path28"
         style="fill:#ffffff;fill-opacity:1;fill-rule:nonzero;stroke:none"
         d="m 357.793,720.074 h 60.074 v 7.176 c 0,9.23 -1.019,17.027 -2.867,23.797 -1.852,6.769 -4.516,12.312 -7.996,16.621 -3.488,4.309 -7.789,7.383 -12.508,9.437 -4.922,2.051 -10.254,3.071 -15.988,3.071 -6.567,0 -12.508,-1.231 -17.633,-3.895 -5.328,-2.668 -9.852,-6.562 -13.324,-11.281 -3.488,-4.922 -6.363,-10.668 -8.203,-17.441 -1.848,-6.762 -2.868,-14.149 -2.868,-22.149 0,-7.597 1.02,-14.773 2.868,-21.336 1.84,-6.57 4.504,-12.101 8.394,-16.816 3.699,-4.723 8.414,-8.418 14.156,-11.086 5.739,-2.859 12.504,-4.086 20.094,-4.086 6.563,0 12.504,0.609 17.633,2.039 5.121,1.434 9.223,2.867 12.711,4.305 v 0 l -1.031,17.843 v 0 c -2.668,-1.839 -6.145,-3.683 -10.246,-5.535 -4.313,-1.847 -9.434,-2.867 -15.586,-2.867 -9.844,0 -16.813,2.668 -21.118,8.199 -4.3,5.332 -6.562,13.336 -6.562,24.004 v 0" /><path
         id="path30"
         style="fill:#ffffff;fill-opacity:1;fill-rule:nonzero;stroke:none"
         d="m 512.406,673.512 h 20.297 v 0 c -0.199,2.66 -0.406,5.535 -0.617,8.609 -0.195,3.082 -0.195,6.57 -0.195,10.051 v 0 135.191 h -21.325 v -63.386 h -0.41 v 0 c -2.668,4.722 -6.152,8.617 -10.465,11.687 -4.3,3.078 -9.839,4.512 -16.593,4.512 -11.082,0 -19.891,-4.512 -26.453,-13.738 -6.555,-9.235 -9.84,-22.571 -9.84,-40.418 0,-8.207 0.812,-15.586 2.457,-22.145 1.441,-6.773 3.898,-12.316 6.968,-17.035 3.083,-4.719 6.977,-8.41 11.485,-10.867 4.512,-2.66 9.844,-3.887 15.785,-3.887 3.891,0 7.383,0.406 10.453,1.625 2.879,1.031 5.543,2.262 7.789,3.898 2.262,1.645 4.106,3.489 5.543,5.539 1.438,2.055 2.871,4.11 3.891,6.36 v 0 h 0.617 v 0 c 0,-1.028 0,-2.25 0.211,-3.895 0,-1.644 0,-3.289 0.203,-4.925 0,-1.641 0,-3.079 0.199,-4.516 0,-1.43 0,-2.254 0,-2.66 v 0" /><path
         id="path32"
         style="fill:#ffffff;fill-opacity:1;fill-rule:nonzero;stroke:none"
         d="m 583.707,720.074 h 60.063 v 7.176 c 0,9.23 -1.016,17.027 -2.864,23.797 -1.847,6.769 -4.515,12.312 -7.996,16.621 -3.484,4.309 -7.789,7.383 -12.504,9.437 -4.922,2.051 -10.254,3.071 -15.992,3.071 -6.562,0 -12.504,-1.231 -17.633,-3.895 -5.332,-2.668 -9.847,-6.562 -13.328,-11.281 -3.488,-4.922 -6.359,-10.668 -8.203,-17.441 -1.844,-6.762 -2.863,-14.149 -2.863,-22.149 0,-7.597 1.019,-14.773 2.863,-21.336 1.844,-6.57 4.512,-12.101 8.406,-16.816 3.692,-4.723 8.41,-8.418 14.149,-11.086 5.742,-2.859 12.504,-4.086 20.093,-4.086 6.567,0 12.508,0.609 17.633,2.039 5.121,1.434 9.227,2.867 12.711,4.305 v 0 l -1.031,17.843 v 0 c -2.66,-1.839 -6.141,-3.683 -10.242,-5.535 -4.313,-1.847 -9.434,-2.867 -15.59,-2.867 -9.836,0 -16.809,2.668 -21.117,8.199 -4.301,5.332 -6.555,13.336 -6.555,24.004 v 0" /><path
         id="path34"
         style="fill:#ffffff;fill-opacity:1;fill-rule:nonzero;stroke:none"
         d="m 674.988,673.512 h 21.328 v 56.617 c 0,5.332 0.618,9.844 1.836,13.738 1.235,3.899 2.883,6.985 4.934,9.438 2.051,2.254 4.504,4.109 7.168,5.34 2.668,1.019 5.332,1.636 8.406,1.636 1.231,0 2.461,0 3.488,-0.203 1.028,-0.207 2.247,-0.414 3.282,-0.625 v 0 20.52 0 c -0.41,0 -0.821,0 -1.035,0.203 -0.196,0 -0.606,0 -1.016,0 -3.899,0 -7.383,-0.406 -10.457,-1.434 -3.07,-1.023 -5.539,-2.461 -7.785,-4.308 -2.266,-1.84 -4.317,-3.895 -5.949,-6.153 -1.649,-2.25 -3.086,-4.722 -4.098,-7.386 v 0 h -0.422 v 0 c 0,0.82 0,2.05 0,3.695 -0.195,1.637 -0.195,3.484 -0.402,5.336 -0.203,1.847 -0.203,3.48 -0.203,5.125 -0.208,1.64 -0.208,2.875 -0.208,3.691 v 0 H 674.18 v 0 c 0.195,-3.078 0.398,-6.359 0.617,-9.64 0.191,-3.489 0.191,-6.977 0.191,-10.457 v 0 -85.133 0" /><path
         id="path36"
         style="fill:#ffffff;fill-opacity:1;fill-rule:nonzero;stroke:none"
         d="m 750.598,673.512 h 20.086 v 0 c 0,0.406 0,1.23 0.203,2.66 0.207,1.437 0.207,2.875 0.414,4.719 0,1.644 0,3.281 0.203,4.925 0,1.641 0,2.875 0,3.692 v 0 h 0.41 v 0 c 1.024,-2.25 2.461,-4.305 4.102,-6.36 1.433,-2.05 3.281,-3.894 5.539,-5.539 2.246,-1.636 4.715,-2.867 7.793,-3.898 3.062,-1.219 6.558,-1.625 10.449,-1.625 5.945,0 11.277,1.227 15.789,3.887 4.504,2.457 8.398,6.148 11.484,10.867 3.067,4.719 5.332,10.262 6.961,17.035 1.438,6.559 2.258,13.938 2.258,22.145 v 0 0 0 c 0,17.847 -3.273,31.183 -9.836,40.418 -6.562,9.226 -15.379,13.738 -26.453,13.738 -6.77,0 -12.305,-1.434 -16.398,-4.512 -4.305,-3.07 -7.793,-6.965 -10.457,-11.687 v 0 h -0.411 v 63.386 h -21.328 v -135.191 0 c 0,-3.481 0,-6.969 -0.195,-10.051 -0.203,-3.074 -0.41,-5.949 -0.613,-8.609 v 0" /><path
         id="path38"
         style="fill:#ffffff;fill-opacity:1;fill-rule:nonzero;stroke:none"
         d="m 865.918,673.512 h 21.316 v 105.23 h -21.316 v -105.23 0" /><path
         id="path40"
         style="fill:#ffffff;fill-opacity:1;fill-rule:nonzero;stroke:none"
         d="m 865.305,799.871 h 22.547 v 22.77 h -22.547 v -22.77 0" /><path
         id="path42"
         style="fill:#ffffff;fill-opacity:1;fill-rule:nonzero;stroke:none"
         d="m 944.324,688.277 h 0.41 v 0 c 2.668,-4.722 6.153,-8.617 10.461,-11.691 4.09,-3.074 9.641,-4.5 16.407,-4.5 11.066,0 19.882,4.5 26.445,13.73 6.563,9.235 9.833,22.567 9.833,40.414 v 0 0 0 c 0,8.2 -0.82,15.586 -2.25,22.36 -1.64,6.562 -3.9,12.305 -6.97,17.023 -3.086,4.719 -6.98,8.211 -11.48,10.879 -4.719,2.453 -9.844,3.684 -15.793,3.684 -3.899,0 -7.383,-0.406 -10.449,-1.434 -3.079,-1.023 -5.54,-2.461 -7.793,-4.097 -2.258,-1.645 -4.102,-3.493 -5.54,-5.543 -1.628,-2.051 -3.074,-4.102 -4.097,-6.356 v 0 h -0.41 v 0 c 0,1.02 0,2.254 0,3.895 -0.207,1.64 -0.207,3.285 -0.207,4.922 -0.207,1.644 -0.207,3.082 -0.411,4.511 -0.207,1.438 -0.207,2.262 -0.207,2.668 v 0 h -20.085 v 0 c 0.203,-2.668 0.41,-5.535 0.617,-8.617 0.191,-3.074 0.191,-6.566 0.191,-10.047 v 0 -130.867 h 21.328 v 59.066 0" /><path
         id="path44"
         style="fill:#ffffff;fill-opacity:1;fill-rule:nonzero;stroke:none"
         d="m 1060.68,688.277 h 0.41 v 0 c 2.66,-4.722 6.14,-8.617 10.45,-11.691 4.1,-3.074 9.64,-4.5 16.41,-4.5 11.07,0 19.89,4.5 26.44,13.73 6.57,9.235 9.85,22.567 9.85,40.414 v 0 0 0 c 0,8.2 -0.82,15.586 -2.27,22.36 -1.63,6.562 -3.88,12.305 -6.96,17.023 -3.08,4.719 -6.97,8.211 -11.49,10.879 -4.71,2.453 -9.83,3.684 -15.78,3.684 -3.89,0 -7.38,-0.406 -10.45,-1.434 -3.07,-1.023 -5.54,-2.461 -7.79,-4.097 -2.27,-1.645 -4.11,-3.493 -5.55,-5.543 -1.63,-2.051 -3.06,-4.102 -4.1,-6.356 v 0 h -0.4 v 0 c 0,1.02 0,2.254 0,3.895 -0.21,1.64 -0.21,3.285 -0.21,4.922 -0.21,1.644 -0.21,3.082 -0.4,4.511 -0.22,1.438 -0.22,2.262 -0.22,2.668 v 0 h -20.07 v 0 c 0.19,-2.668 0.4,-5.535 0.61,-8.617 0.2,-3.074 0.2,-6.566 0.2,-10.047 v 0 -130.867 h 21.32 v 59.066 0" /><path
         id="path46"
         style="fill:#ffffff;fill-opacity:1;fill-rule:nonzero;stroke:none"
         d="m 152.645,428.605 h 69.093 v 18.25 h -46.953 v 124.93 h -22.14 v -143.18 0" /><path
         id="path48"
         style="fill:#ffffff;fill-opacity:1;fill-rule:nonzero;stroke:none"
         d="m 298.32,428.605 h 19.274 v 0 c -0.207,1.84 -0.614,4.508 -0.821,7.579 -0.207,3.074 -0.418,6.355 -0.418,9.847 v 0 50.258 0 c 0,6.977 -0.613,12.719 -2.042,17.231 -1.438,4.515 -3.7,8.21 -6.36,11.285 -2.25,2.668 -5.945,5.129 -10.863,7.386 -4.922,2.055 -11.274,3.075 -19.274,3.075 -6.765,0 -12.714,-0.821 -17.836,-2.457 -5.121,-1.645 -9.839,-3.493 -13.734,-5.743 v 0 l 1.637,-18.261 v 0 c 2.664,2.664 6.558,5.125 11.683,7.383 4.922,2.054 10.254,3.074 16.2,3.074 7.578,0 12.914,-2.051 16.191,-6.145 1.645,-2.058 2.879,-4.312 3.492,-6.773 0.614,-2.668 0.821,-5.543 0.821,-8.824 v 0 -4.301 h -7.59 v 0 c -17.016,0 -30.133,-2.875 -38.953,-8.418 -8.813,-5.742 -13.321,-14.766 -13.321,-27.082 0,-4.914 0.813,-9.231 2.461,-13.125 1.629,-3.895 3.891,-6.969 6.77,-9.637 2.664,-2.664 5.941,-4.512 9.625,-5.742 3.687,-1.43 7.586,-2.047 11.894,-2.047 7.789,0 13.942,1.633 18.66,4.914 4.504,3.086 8.196,6.77 10.86,10.875 v 0 h 0.414 v 0 c 0,-0.617 0,-1.644 0.199,-3.082 0,-1.434 0,-2.867 0.211,-4.301 0.203,-1.437 0.203,-2.879 0.406,-4.105 0.203,-1.438 0.203,-2.254 0.414,-2.864 v 0" /><path
         id="path50"
         style="fill:#ffffff;fill-opacity:1;fill-rule:nonzero;stroke:none"
         d="m 351.762,428.605 h 21.328 v 62.352 c 0,8.211 1.64,14.77 5.117,19.492 3.281,4.719 8.211,6.969 14.977,6.969 5.527,0 9.421,-1.844 12.089,-5.531 2.465,-3.699 3.696,-9.649 3.696,-17.848 v 0 -65.434 h 21.312 v 70.352 0 c 0,11.078 -2.453,19.902 -7.371,26.465 -4.926,6.562 -12.715,9.844 -23.375,9.844 -6.152,0 -11.484,-1.438 -16.199,-4.512 -4.715,-3.074 -8.406,-7.387 -11.07,-12.922 v 0 h -0.411 v 0 c 0,0.617 0,1.848 0,3.289 -0.207,1.422 -0.207,3.07 -0.414,4.707 -0.195,1.645 -0.195,3.277 -0.195,4.719 -0.211,1.437 -0.211,2.668 -0.211,3.281 v 0 h -20.082 v 0 c 0.195,-3.074 0.399,-6.355 0.61,-9.637 0.199,-3.492 0.199,-6.98 0.199,-10.461 v 0 -85.125 0" /><path
         id="path52"
         style="fill:#ffffff;fill-opacity:1;fill-rule:nonzero;stroke:none"
         d="m 465.359,409.523 -1.226,-19.902 v 0 c 3.484,-1.426 8.402,-2.863 14.555,-4.297 6.152,-1.437 12.507,-2.265 18.863,-2.265 15.586,0 27.269,4.316 35.054,12.722 7.801,8.41 11.692,20.52 11.692,36.106 v 0 84.093 0 c 0,3.083 0.199,5.95 0.41,9.036 0.211,3.07 0.211,5.945 0.406,8.812 v 0 h -19.679 v 0 c 0,-0.613 0,-1.844 0,-3.281 -0.2,-1.442 -0.2,-3.074 -0.411,-4.719 -0.203,-1.637 -0.203,-3.074 -0.203,-4.515 -0.203,-1.434 -0.203,-2.665 -0.203,-3.278 v 0 H 524 v 0 c -2.672,4.719 -6.148,8.82 -10.461,12.313 -4.301,3.281 -9.633,4.918 -16.191,4.918 -6.364,0 -12.098,-1.231 -16.817,-3.899 -4.715,-2.664 -8.808,-6.156 -11.89,-10.863 -3.071,-4.723 -5.532,-10.469 -6.965,-17.035 -1.649,-6.774 -2.457,-14.145 -2.457,-22.36 0,-9.843 1.019,-18.05 3.281,-24.82 2.043,-6.766 4.703,-12.309 8.191,-16.414 3.489,-4.301 7.383,-7.18 11.688,-9.023 4.305,-1.844 8.816,-2.868 13.324,-2.868 7.18,0 12.926,1.637 17.227,5.129 4.304,3.278 7.789,7.387 10.453,12.508 v 0 h 0.418 v -13.125 0 c 0,-4.301 -0.418,-8.609 -1.235,-12.5 -1.027,-3.91 -2.464,-7.191 -4.519,-10.055 -2.246,-2.878 -5.117,-5.136 -8.809,-6.98 -3.695,-1.641 -8.402,-2.461 -13.941,-2.461 -5.738,0 -11.274,1.023 -16.817,2.879 -5.531,2.051 -9.839,4.094 -13.121,6.144 v 0" /><path
         id="path54"
         style="fill:#ffffff;fill-opacity:1;fill-rule:nonzero;stroke:none"
         d="m 595.117,475.164 h 60.067 v 7.176 c 0,9.226 -1.012,17.027 -2.86,23.797 -1.855,6.769 -4.511,12.312 -8,16.617 -3.484,4.312 -7.785,7.383 -12.504,9.437 -4.922,2.055 -10.254,3.075 -15.992,3.075 -6.562,0 -12.504,-1.231 -17.629,-3.899 -5.332,-2.664 -9.851,-6.562 -13.332,-11.277 -3.484,-4.922 -6.355,-10.672 -8.203,-17.442 -1.84,-6.765 -2.859,-14.152 -2.859,-22.152 0,-7.594 1.019,-14.773 2.859,-21.336 1.848,-6.566 4.508,-12.097 8.402,-16.82 3.7,-4.715 8.414,-8.414 14.153,-11.086 5.742,-2.856 12.504,-4.086 20.097,-4.086 6.563,0 12.504,0.617 17.633,2.047 5.121,1.43 9.223,2.867 12.707,4.301 v 0 l -1.023,17.851 v 0 c -2.664,-1.844 -6.149,-3.691 -10.25,-5.547 -4.313,-1.84 -9.434,-2.863 -15.59,-2.863 -9.832,0 -16.809,2.664 -21.113,8.203 -4.301,5.332 -6.563,13.332 -6.563,24.004 v 0" /><path
         id="path56"
         style="fill:#ffffff;fill-opacity:1;fill-rule:nonzero;stroke:none"
         d="m 686.406,428.605 h 21.328 v 62.352 c 0,8.211 1.641,14.77 5.118,19.492 3.281,4.719 8.203,6.969 14.98,6.969 5.527,0 9.426,-1.844 12.078,-5.531 2.473,-3.699 3.703,-9.649 3.703,-17.848 v 0 -65.434 h 21.317 v 70.352 0 c 0,11.078 -2.457,19.902 -7.371,26.465 -4.93,6.562 -12.715,9.844 -23.379,9.844 -6.153,0 -11.485,-1.438 -16.203,-4.512 -4.707,-3.074 -8.407,-7.387 -11.063,-12.922 v 0 h -0.41 v 0 c 0,0.617 0,1.848 0,3.289 -0.203,1.422 -0.203,3.07 -0.418,4.707 -0.199,1.645 -0.199,3.277 -0.199,4.719 -0.203,1.437 -0.203,2.668 -0.203,3.281 v 0 h -20.098 v 0 c 0.207,-3.074 0.41,-6.355 0.625,-9.637 0.195,-3.492 0.195,-6.98 0.195,-10.461 v 0 -85.125 0" /><path
         id="path58"
         style="fill:#ffffff;fill-opacity:1;fill-rule:nonzero;stroke:none"
         d="m 849.199,430.234 v 16.008 c -1.437,-0.621 -2.883,-1.23 -4.519,-1.648 -1.633,-0.614 -3.481,-0.813 -5.735,-0.813 -3.894,0 -6.562,1.231 -8.41,3.481 -1.844,2.261 -2.664,6.156 -2.664,11.898 v 0 58.258 h 21.328 v 16.41 h -21.328 v 27.902 l -21.316,-6.359 v -21.543 h -16.821 v -16.41 h 16.821 v -62.563 0 c 0,-10.054 2.254,-17.23 6.968,-21.339 4.707,-4.301 11.274,-6.348 19.875,-6.348 3.086,0 6.153,0.203 8.829,0.816 2.656,0.817 5.117,1.426 6.972,2.25 v 0" /><path
         id="path60"
         style="fill:#ffffff;fill-opacity:1;fill-rule:nonzero;stroke:none"
         d="m 877.461,428.605 h 21.316 v 62.352 c 0,8.211 1.645,14.77 5.129,19.492 3.282,4.719 8.203,6.969 14.973,6.969 5.523,0 9.43,-1.844 12.098,-5.531 2.453,-3.699 3.679,-9.649 3.679,-17.848 v 0 -65.434 h 21.328 v 70.352 0 c 0,11.078 -2.468,19.902 -7.382,26.465 -4.922,6.562 -12.715,9.844 -23.379,9.844 -6.961,0 -12.5,-1.637 -16.395,-4.719 -4.101,-3.285 -7.383,-6.762 -9.629,-10.668 v 0 h -0.422 v 62.574 h -21.316 v -153.848 0" /><path
         id="path62"
         style="fill:#ffffff;fill-opacity:1;fill-rule:nonzero;stroke:none"
         d="m 1048.4,428.605 h 19.28 v 0 c -0.22,1.84 -0.62,4.508 -0.83,7.579 -0.21,3.074 -0.42,6.355 -0.42,9.847 v 0 50.258 0 c 0,6.977 -0.61,12.719 -2.04,17.231 -1.43,4.515 -3.7,8.21 -6.36,11.285 -2.25,2.668 -5.95,5.129 -10.86,7.386 -4.92,2.055 -11.28,3.075 -19.27,3.075 -6.78,0 -12.72,-0.821 -17.84,-2.457 -5.13,-1.645 -9.85,-3.493 -13.732,-5.743 v 0 l 1.633,-18.261 v 0 c 2.669,2.664 6.559,5.125 11.679,7.383 4.93,2.054 10.26,3.074 16.2,3.074 7.59,0 12.92,-2.051 16.2,-6.145 1.64,-2.058 2.87,-4.312 3.49,-6.773 0.61,-2.668 0.82,-5.543 0.82,-8.824 v 0 -4.301 h -7.59 v 0 c -17.02,0 -30.14,-2.875 -38.955,-8.418 -8.809,-5.742 -13.321,-14.766 -13.321,-27.082 0,-4.914 0.813,-9.231 2.461,-13.125 1.629,-3.895 3.899,-6.969 6.77,-9.637 2.652,-2.664 5.935,-4.512 9.625,-5.742 3.68,-1.43 7.58,-2.047 11.89,-2.047 7.79,0 13.94,1.633 18.66,4.914 4.51,3.086 8.2,6.77 10.87,10.875 v 0 h 0.41 v 0 c 0,-0.617 0,-1.644 0.19,-3.082 0,-1.434 0,-2.867 0.22,-4.301 0.2,-1.437 0.2,-2.879 0.41,-4.105 0.2,-1.438 0.2,-2.254 0.41,-2.864 v 0" /><path
         id="path64"
         style="fill:#ffffff;fill-opacity:1;fill-rule:nonzero;stroke:none"
         d="m 1101.62,428.605 h 21.32 v 153.848 h -21.32 v -153.848 0" /><path
         id="path66"
         style="fill:#1a67bb;fill-opacity:1;fill-rule:nonzero;stroke:none"
         d="m 357.793,734.641 c 0.211,9.636 2.055,17.23 5.543,22.562 3.484,5.129 8.398,7.797 14.555,7.797 12.714,0 19.066,-10.059 19.066,-30.359 v 0 h -39.164 v 0" /><path
         id="path68"
         style="fill:#1a67bb;fill-opacity:1;fill-rule:nonzero;stroke:none"
         d="m 472.836,697.922 c -3.066,6.355 -4.715,15.996 -4.715,28.715 0,12.105 1.649,21.336 4.926,27.695 3.277,6.363 8.609,9.645 16.191,9.645 7.594,0 12.918,-3.282 16.403,-10.055 3.281,-6.774 4.925,-16 4.925,-27.692 v 0 0 0 c 0,-11.699 -1.644,-20.933 -4.925,-27.687 -3.485,-6.773 -9.02,-10.266 -16.602,-10.266 -7.801,0 -13.133,3.282 -16.203,9.645 v 0" /><path
         id="path70"
         style="fill:#1a67bb;fill-opacity:1;fill-rule:nonzero;stroke:none"
         d="m 583.707,734.641 c 0.203,9.636 2.051,17.23 5.535,22.562 3.488,5.129 8.403,7.797 14.559,7.797 12.711,0 19.058,-10.059 19.058,-30.359 v 0 h -39.152 v 0" /><path
         id="path72"
         style="fill:#1a67bb;fill-opacity:1;fill-rule:nonzero;stroke:none"
         d="m 777.859,698.738 c -3.484,6.77 -5.125,16.004 -5.125,27.492 0,11.692 1.641,20.918 5.125,27.692 3.489,6.773 8.821,10.055 16.204,10.055 7.578,0 12.91,-3.282 16.191,-9.645 3.074,-6.566 4.719,-15.797 4.719,-27.695 v 0 0 0 c 0,-12.922 -1.45,-22.36 -4.512,-28.715 -3.07,-6.363 -8.613,-9.645 -16.203,-9.645 -7.578,0 -13.117,3.493 -16.399,10.461 v 0" /><path
         id="path74"
         style="fill:#1a67bb;fill-opacity:1;fill-rule:nonzero;stroke:none"
         d="m 949.453,698.332 c -3.476,6.77 -5.129,16 -5.129,27.688 0,11.695 1.653,20.925 5.129,27.695 3.281,6.773 8.817,10.262 16.395,10.262 7.804,0 13.125,-3.282 16.203,-9.645 3.078,-6.359 4.512,-16.004 4.512,-28.715 v 0 0 0 c 0,-12.105 -1.633,-21.34 -4.715,-27.695 -3.285,-6.363 -8.618,-9.645 -16.196,-9.645 -7.586,0 -12.918,3.282 -16.199,10.055 v 0" /><path
         id="path76"
         style="fill:#1a67bb;fill-opacity:1;fill-rule:nonzero;stroke:none"
         d="m 1065.8,698.332 c -3.48,6.77 -5.12,16 -5.12,27.688 0,11.695 1.64,20.925 5.12,27.695 3.28,6.773 8.82,10.262 16.4,10.262 7.8,0 13.13,-3.282 16.2,-9.645 3.07,-6.359 4.51,-16.004 4.51,-28.715 v 0 0 0 c 0,-12.105 -1.63,-21.34 -4.72,-27.695 -3.28,-6.363 -8.6,-9.645 -16.19,-9.645 -7.59,0 -12.92,3.282 -16.2,10.055 v 0" /><path
         id="path78"
         style="fill:#1a67bb;fill-opacity:1;fill-rule:nonzero;stroke:none"
         d="m 296.27,480.09 v -9.442 c 0,-8.406 -1.84,-15.179 -5.54,-20.304 -3.894,-5.332 -9.425,-8.004 -17.015,-8.004 -5.535,0 -9.633,1.64 -12.504,4.723 -2.875,3.074 -4.313,7.375 -4.313,12.515 0,6.965 2.668,12.094 8.204,15.586 5.543,3.488 13.539,5.125 23.996,5.125 1.222,0 2.457,0 3.894,0 1.438,0 2.66,0 3.278,-0.199 v 0" /><path
         id="path80"
         style="fill:#1a67bb;fill-opacity:1;fill-rule:nonzero;stroke:none"
         d="m 486.277,453.418 c -3.484,5.949 -5.332,15.387 -5.332,28.305 0,12.109 1.637,21.129 4.918,27.496 3.082,6.148 8.403,9.23 15.785,9.429 6.981,0 12.305,-3.074 16.204,-9.23 3.687,-6.152 5.531,-15.379 5.531,-27.484 v 0 0 0 c 0,-12.723 -1.844,-22.157 -5.336,-28.305 -3.477,-6.367 -9.223,-9.438 -17.211,-9.438 -6.152,0 -11.078,3.071 -14.559,9.227 v 0" /><path
         id="path82"
         style="fill:#1a67bb;fill-opacity:1;fill-rule:nonzero;stroke:none"
         d="m 595.117,489.727 c 0.211,9.64 2.051,17.23 5.535,22.566 3.493,5.125 8.411,7.797 14.563,7.797 12.715,0 19.062,-10.055 19.062,-30.363 v 0 h -39.16 v 0" /><path
         id="path84"
         style="fill:#1a67bb;fill-opacity:1;fill-rule:nonzero;stroke:none"
         d="m 1046.35,480.09 v -9.442 c 0,-8.406 -1.85,-15.179 -5.54,-20.304 -3.9,-5.332 -9.42,-8.004 -17.02,-8.004 -5.54,0 -9.63,1.64 -12.5,4.723 -2.87,3.074 -4.32,7.375 -4.32,12.515 0,6.965 2.67,12.094 8.21,15.586 5.54,3.488 13.54,5.125 23.99,5.125 1.23,0 2.46,0 3.9,0 1.43,0 2.66,0 3.28,-0.199 v 0" /></g></g></svg>