<?xml version="1.0" encoding="UTF-8" standalone="no"?>
<svg
   xmlns:dc="http://purl.org/dc/elements/1.1/"
   xmlns:cc="http://creativecommons.org/ns#"
   xmlns:rdf="http://www.w3.org/1999/02/22-rdf-syntax-ns#"
   xmlns:svg="http://www.w3.org/2000/svg"
   xmlns="http://www.w3.org/2000/svg"
   viewBox="0 0 151.18668 151.18668"
   height="151.18668"
   width="151.18668"
   xml:space="preserve"
   id="svg2"
   version="1.1"><metadata
     id="metadata8"><rdf:RDF><cc:Work
         rdf:about=""><dc:format>image/svg+xml</dc:format><dc:type
           rdf:resource="http://purl.org/dc/dcmitype/StillImage" /></cc:Work></rdf:RDF></metadata><defs
     id="defs6" /><g
     transform="matrix(1.3333333,0,0,-1.3333333,0,151.18667)"
     id="g10"><g
       transform="scale(0.1)"
       id="g12"><path
         id="path14"
         style="fill:#1a67bb;fill-opacity:1;fill-rule:nonzero;stroke:none"
         d="M 0,0 H 1133.94 V 1133.95 H 0 Z" /><path
         id="path16"
         style="fill:#ffffff;fill-opacity:1;fill-rule:nonzero;stroke:none"
         d="m 22.5625,79.2461 c 0,-31.2773 25.4023,-56.6797 56.6797,-56.6797 v 0 H 1054.44 v 0 c 31.31,0 56.68,25.4024 56.68,56.6797 v 0 975.1939 0 c 0,31.31 -25.4,56.68 -56.68,56.68 v 0 H 79.2422 v 0 c -31.3164,0 -56.6797,-25.4 -56.6797,-56.68 v 0 -975.1939 0" /><path
         id="path18"
         style="fill:#1a67bb;fill-opacity:1;fill-rule:nonzero;stroke:none"
         d="m 39.3711,79.5313 c 0,-21.9258 17.7539,-39.6875 39.6875,-39.6875 v 0 H 1054.26 v 0 c 21.91,0 39.71,17.7617 39.71,39.6875 v 0 975.2187 0 c 0,21.9 -17.8,39.68 -39.71,39.68 v 0 H 79.0586 v 0 c -21.9063,0 -39.6875,-17.78 -39.6875,-39.68 v 0 -975.2187 0" /><path
         id="path20"
         style="fill:#ffffff;fill-opacity:1;fill-rule:nonzero;stroke:none"
         d="M 609.625,913.711 731.949,824.723 141.449,544.758 252.934,351.68 790.621,723.043 806.52,572.66 v 0 c 1.23,-11.793 11.238,-20.98 23.347,-20.98 9.16,0 17.129,5.258 20.969,12.933 v 0 l 168.814,335.793 v 0 c 1.62,3.168 2.5,6.75 2.5,10.555 0,12.5 -9.76,22.68 -22.06,23.441 v 0 L 624.848,956.09 v 0 c -0.477,0.027 -0.907,0.058 -1.395,0.058 -12.949,0 -23.476,-10.511 -23.476,-23.488 0,-7.758 3.796,-14.672 9.648,-18.949 v 0" /><path
         id="path22"
         style="fill:#ffffff;fill-opacity:1;fill-rule:nonzero;stroke:none"
         d="m 291.152,267.07 v -88.75 c 0,-6.765 0.407,-12.55 1.399,-17.312 0.996,-4.985 2.578,-9.563 4.969,-13.938 3.382,-6.367 8.55,-11.328 15.117,-14.922 6.566,-3.781 14.531,-5.554 23.89,-5.554 9.348,0 17.313,1.773 23.871,5.554 6.571,3.782 11.739,8.758 15.125,15.125 2.391,4.375 3.989,8.957 4.981,13.735 0.996,4.762 1.387,10.547 1.387,17.312 v 0 88.75 h -21.493 v -90.144 0 c 0,-11.352 -1.98,-19.504 -5.968,-24.875 -4.18,-5.371 -10.145,-8.164 -17.903,-8.164 -15.925,0 -23.89,10.949 -23.89,33.039 v 0 90.144 h -21.485 v 0" /><path
         id="path24"
         style="fill:#ffffff;fill-opacity:1;fill-rule:nonzero;stroke:none"
         d="m 412.949,132.559 c 3.571,-2.004 7.965,-3.387 13.129,-4.571 5.172,-0.996 10.949,-1.394 17.309,-1.394 13.336,0 24.078,3.574 31.843,10.73 7.758,7.168 11.547,17.117 11.547,29.856 v 0 0 0 c 0,5.965 -0.804,11.14 -2.593,15.308 -1.786,4.184 -4.375,7.973 -7.36,11.153 -2.992,3.183 -6.566,6.164 -10.754,8.75 -4.175,2.597 -8.554,5.175 -13.132,7.765 -3.387,1.992 -6.368,3.77 -8.758,5.574 -2.575,1.79 -4.575,3.379 -5.957,5.168 -1.602,1.602 -2.797,3.387 -3.387,5.372 -0.602,1.796 -0.992,3.996 -0.992,6.367 0,5.379 1.785,9.953 5.371,13.332 3.582,3.386 8.555,5.183 15.121,5.183 4.98,0 9.746,-0.605 13.922,-1.797 4.191,-1.386 7.762,-2.785 10.945,-4.375 v 0 l 0.606,19.102 v 0 c -2.59,0.996 -6.368,2.188 -10.946,3.184 -4.781,0.996 -10.152,1.601 -16.113,1.601 -5.57,0 -10.758,-0.812 -15.723,-2.187 -4.984,-1.602 -9.359,-3.996 -13.136,-6.973 -3.786,-3.184 -6.766,-6.973 -8.953,-11.555 -2.188,-4.558 -3.383,-9.746 -3.383,-15.703 0,-6.179 0.789,-11.148 2.59,-15.32 1.785,-4.191 4.175,-7.969 7.156,-10.949 2.98,-3.192 6.367,-5.977 10.554,-8.367 3.973,-2.579 8.356,-5.168 12.93,-7.961 3.774,-2.184 6.957,-4.375 9.551,-6.161 2.59,-1.992 4.574,-3.972 6.164,-5.769 1.395,-1.789 2.59,-3.781 3.195,-5.766 0.586,-2.207 0.793,-4.39 0.793,-6.972 0,-6.368 -2.191,-11.344 -6.367,-15.118 -4.191,-3.789 -9.746,-5.781 -16.516,-5.781 -5.574,0 -10.757,0.996 -15.726,2.988 -4.965,1.79 -8.953,3.782 -12.141,5.774 v 0 l -0.789,-20.488 v 0" /><path
         id="path26"
         style="fill:#ffffff;fill-opacity:1;fill-rule:nonzero;stroke:none"
         d="m 596.059,131.16 -0.789,20.285 v 0 c -3.391,-2.187 -6.973,-3.769 -11.145,-4.961 -4.18,-1.203 -8.965,-1.804 -14.328,-1.804 -12.922,0 -23.074,4.578 -30.633,13.941 -7.559,9.348 -11.348,22.883 -11.348,40.996 0,8.75 1.196,16.313 3.383,22.883 2.188,6.367 5.371,11.738 9.16,15.906 3.786,4.184 8.164,7.168 13.133,9.367 4.985,1.985 10.356,2.981 15.711,2.981 5.762,0 10.742,-0.793 14.922,-2.191 4.172,-1.598 7.961,-3.387 11.145,-5.172 v 0 l 0.789,20.086 v 0 c -2.977,1.394 -6.954,2.597 -11.934,3.789 -5.176,0.996 -10.75,1.601 -16.723,1.601 -9.734,0 -18.285,-1.797 -26.05,-5.187 -7.758,-3.387 -14.125,-8.348 -19.497,-14.532 -5.371,-6.367 -9.558,-13.925 -12.339,-22.476 -2.985,-8.75 -4.379,-18.305 -4.379,-28.859 0,-9.747 1.394,-19.09 3.972,-27.657 2.594,-8.554 6.383,-16.113 11.551,-22.683 5.168,-6.567 11.738,-11.543 19.699,-15.325 7.965,-3.781 17.309,-5.554 28.039,-5.554 5.18,0 10.153,0.398 15.133,1.199 4.969,0.977 9.141,1.973 12.528,3.367 v 0" /><path
         id="path28"
         style="fill:#ffffff;fill-opacity:1;fill-rule:nonzero;stroke:none"
         d="m 616.234,128.176 h 21.485 V 267.07 h -21.485 v -138.894 0" /><path
         id="path30"
         style="fill:#ffffff;fill-opacity:1;fill-rule:nonzero;stroke:none"
         d="m 686.977,128.176 h 21.503 v 121.179 h 31.231 v 17.715 h -84.168 v -17.715 h 31.434 v -121.179 0" /><path
         id="path32"
         style="fill:#ffffff;fill-opacity:1;fill-rule:nonzero;stroke:none"
         d="m 727.484,128.176 h 21.485 l 10.558,34.82 h 50.34 l 10.547,-34.82 h 22.285 L 797.523,267.07 H 774.059 L 727.484,128.176 v 0" /><path
         id="path34"
         style="fill:#1a67bb;fill-opacity:1;fill-rule:nonzero;stroke:none"
         d="m 764.691,180.305 20.508,67.058 h 0.391 l 19.308,-67.058 h -40.207 v 0" /></g></g></svg>