<?xml version="1.0" encoding="UTF-8" standalone="no"?>
<svg
   xmlns:dc="http://purl.org/dc/elements/1.1/"
   xmlns:cc="http://creativecommons.org/ns#"
   xmlns:rdf="http://www.w3.org/1999/02/22-rdf-syntax-ns#"
   xmlns:svg="http://www.w3.org/2000/svg"
   xmlns="http://www.w3.org/2000/svg"
   viewBox="0 0 151.18668 151.18668"
   height="151.18668"
   width="151.18668"
   xml:space="preserve"
   id="svg2"
   version="1.1"><metadata
     id="metadata8"><rdf:RDF><cc:Work
         rdf:about=""><dc:format>image/svg+xml</dc:format><dc:type
           rdf:resource="http://purl.org/dc/dcmitype/StillImage" /></cc:Work></rdf:RDF></metadata><defs
     id="defs6" /><g
     transform="matrix(1.3333333,0,0,-1.3333333,0,151.18667)"
     id="g10"><g
       transform="scale(0.1)"
       id="g12"><path
         id="path14"
         style="fill:#1a67bb;fill-opacity:1;fill-rule:nonzero;stroke:none"
         d="M 0,0 H 1133.94 V 1133.95 H 0 Z" /><path
         id="path16"
         style="fill:#ffffff;fill-opacity:1;fill-rule:nonzero;stroke:none"
         d="m 22.5625,79.2461 c 0,-31.2773 25.4023,-56.6797 56.6797,-56.6797 v 0 H 1054.44 v 0 c 31.31,0 56.68,25.4024 56.68,56.6797 v 0 975.1939 0 c 0,31.31 -25.4,56.68 -56.68,56.68 v 0 H 79.2422 v 0 c -31.3164,0 -56.6797,-25.4 -56.6797,-56.68 v 0 -975.1939 0" /><path
         id="path18"
         style="fill:#1a67bb;fill-opacity:1;fill-rule:nonzero;stroke:none"
         d="m 39.3711,79.5313 c 0,-21.9258 17.7539,-39.6875 39.6875,-39.6875 v 0 H 1054.26 v 0 c 21.91,0 39.71,17.7617 39.71,39.6875 v 0 975.2187 0 c 0,21.9 -17.8,39.68 -39.71,39.68 v 0 H 79.0586 v 0 c -21.9063,0 -39.6875,-17.78 -39.6875,-39.68 v 0 -975.2187 0" /><path
         id="path20"
         style="fill:#ffffff;fill-opacity:1;fill-rule:nonzero;stroke:none"
         d="M 609.625,913.711 731.949,824.723 141.449,544.758 252.934,351.68 790.621,723.043 806.52,572.66 v 0 c 1.23,-11.793 11.238,-20.98 23.347,-20.98 9.16,0 17.129,5.258 20.969,12.933 v 0 l 168.814,335.793 v 0 c 1.62,3.168 2.5,6.75 2.5,10.555 0,12.5 -9.76,22.68 -22.06,23.441 v 0 L 624.848,956.09 v 0 c -0.477,0.027 -0.907,0.058 -1.395,0.058 -12.949,0 -23.476,-10.511 -23.476,-23.488 0,-7.758 3.796,-14.672 9.648,-18.949 v 0" /><path
         id="path22"
         style="fill:#ffffff;fill-opacity:1;fill-rule:nonzero;stroke:none"
         d="m 141.754,127.703 h 21.5 l 10.539,34.817 h 50.344 l 10.554,-34.817 h 22.278 l -45.172,138.891 h -23.473 l -46.57,-138.891 v 0" /><path
         id="path24"
         style="fill:#ffffff;fill-opacity:1;fill-rule:nonzero;stroke:none"
         d="m 267.09,266.594 v -88.75 c 0,-6.77 0.406,-12.539 1.394,-17.309 0.996,-4.98 2.594,-9.558 4.973,-13.941 3.383,-6.36 8.563,-11.328 15.133,-14.914 6.566,-3.789 14.515,-5.559 23.875,-5.559 9.348,0 17.308,1.77 23.879,5.559 6.562,3.769 11.73,8.75 15.117,15.117 2.391,4.375 3.988,8.957 4.98,13.738 0.997,4.77 1.403,10.539 1.403,17.309 v 0 88.75 h -21.5 v -90.149 0 c 0,-11.347 -1.989,-19.492 -5.961,-24.863 -4.195,-5.371 -10.16,-8.176 -17.918,-8.176 -15.926,0 -23.875,10.949 -23.875,33.039 v 0 90.149 h -21.5 v 0" /><path
         id="path26"
         style="fill:#ffffff;fill-opacity:1;fill-rule:nonzero;stroke:none"
         d="m 388.887,132.078 c 3.582,-2 7.965,-3.387 13.129,-4.558 5.172,-0.997 10.949,-1.399 17.308,-1.399 13.336,0 24.078,3.567 31.844,10.727 7.758,7.168 11.547,17.117 11.547,29.851 v 0 0 0 c 0,5.977 -0.805,11.145 -2.594,15.321 -1.785,4.171 -4.375,7.96 -7.359,11.144 -2.992,3.184 -6.567,6.16 -10.742,8.762 -4.188,2.586 -8.567,5.164 -13.129,7.754 -3.387,1.992 -6.379,3.777 -8.774,5.574 -2.574,1.789 -4.562,3.387 -5.957,5.168 -1.601,1.598 -2.797,3.387 -3.383,5.371 -0.593,1.805 -0.996,3.992 -0.996,6.363 0,5.395 1.785,9.953 5.371,13.34 3.582,3.383 8.555,5.18 15.121,5.18 4.981,0 9.747,-0.598 13.938,-1.797 4.176,-1.379 7.762,-2.777 10.945,-4.375 v 0 l 0.59,19.109 v 0 c -2.594,0.985 -6.367,2.188 -10.945,3.184 -4.781,0.984 -10.153,1.594 -16.113,1.594 -5.575,0 -10.758,-0.801 -15.723,-2.192 -4.973,-1.601 -9.363,-3.98 -13.137,-6.972 -3.781,-3.18 -6.765,-6.961 -8.953,-11.543 -2.187,-4.571 -3.387,-9.754 -3.387,-15.711 0,-6.18 0.793,-11.145 2.594,-15.325 1.781,-4.187 4.176,-7.957 7.152,-10.945 3,-3.191 6.368,-5.976 10.559,-8.359 3.973,-2.578 8.355,-5.176 12.93,-7.969 3.773,-2.187 6.972,-4.375 9.55,-6.16 2.586,-1.985 4.575,-3.977 6.176,-5.774 1.383,-1.789 2.578,-3.769 3.184,-5.761 0.586,-2.207 0.793,-4.395 0.793,-6.973 0,-6.359 -2.196,-11.348 -6.367,-15.117 -4.176,-3.789 -9.746,-5.774 -16.516,-5.774 -5.574,0 -10.742,0.997 -15.727,2.981 -4.964,1.789 -8.957,3.789 -12.136,5.769 v 0 l -0.793,-20.488 v 0" /><path
         id="path28"
         style="fill:#ffffff;fill-opacity:1;fill-rule:nonzero;stroke:none"
         d="m 489.34,127.703 h 21.5 v 62.481 h 42.578 v 17.714 H 510.84 v 40.981 h 44.566 v 17.715 H 489.34 v -138.891 0" /><path
         id="path30"
         style="fill:#ffffff;fill-opacity:1;fill-rule:nonzero;stroke:none"
         d="m 557.898,127.703 h 21.481 l 10.547,34.817 h 50.344 l 10.554,-34.817 h 22.278 L 627.926,266.594 H 604.457 L 557.898,127.703 v 0" /><path
         id="path32"
         style="fill:#ffffff;fill-opacity:1;fill-rule:nonzero;stroke:none"
         d="m 691.313,127.703 h 21.503 v 62.871 h 44.766 v -62.871 h 21.484 v 138.891 h -21.484 v -57.903 h -44.766 v 57.903 h -21.503 v -138.891 0" /><path
         id="path34"
         style="fill:#ffffff;fill-opacity:1;fill-rule:nonzero;stroke:none"
         d="m 814.477,127.703 h 21.503 v 61.281 h 6.75 v 0 c 5.77,0 10.157,-0.988 13.34,-3.175 2.989,-2.196 5.567,-6.18 7.371,-11.942 v 0 l 14.914,-46.164 h 22.879 l -18.699,54.317 v 0 c -1.789,5.168 -3.976,8.75 -6.367,10.941 -2.59,1.988 -5.578,3.387 -8.957,3.992 v 0 0.391 0 c 9.16,1.797 15.93,5.566 20.508,11.543 4.562,5.965 6.75,13.133 6.75,21.484 0,6.367 -0.996,11.738 -2.981,16.317 -1.992,4.582 -4.785,8.371 -8.347,11.347 -3.586,2.981 -7.766,5.168 -12.746,6.563 -4.969,1.398 -10.547,1.996 -16.524,1.996 v 0 h -39.394 v -138.891 0" /><path
         id="path36"
         style="fill:#ffffff;fill-opacity:1;fill-rule:nonzero;stroke:none"
         d="m 939.371,127.703 h 21.484 v 121.176 h 31.25 v 17.715 h -84.191 v -17.715 h 31.457 v -121.176 0" /><path
         id="path38"
         style="fill:#1a67bb;fill-opacity:1;fill-rule:nonzero;stroke:none"
         d="m 178.965,179.836 20.504,67.059 h 0.39 l 19.313,-67.059 h -40.207 v 0" /><path
         id="path40"
         style="fill:#1a67bb;fill-opacity:1;fill-rule:nonzero;stroke:none"
         d="m 595.094,179.836 20.508,67.059 h 0.39 l 19.305,-67.059 h -40.203 v 0" /><path
         id="path42"
         style="fill:#1a67bb;fill-opacity:1;fill-rule:nonzero;stroke:none"
         d="m 835.98,205.508 v 44.18 h 12.141 v 0 c 7.352,0 13.32,-1.602 17.695,-4.786 4.188,-3.183 6.375,-8.75 6.375,-16.511 v 0 0 0 c 0,-6.575 -2,-12.141 -5.976,-16.321 -4.168,-4.375 -10.145,-6.562 -18.301,-6.562 v 0 H 835.98 v 0" /></g></g></svg>