<?xml version="1.0" encoding="UTF-8" standalone="no"?>
<svg
   xmlns:dc="http://purl.org/dc/elements/1.1/"
   xmlns:cc="http://creativecommons.org/ns#"
   xmlns:rdf="http://www.w3.org/1999/02/22-rdf-syntax-ns#"
   xmlns:svg="http://www.w3.org/2000/svg"
   xmlns="http://www.w3.org/2000/svg"
   viewBox="0 0 151.18668 151.18668"
   height="151.18668"
   width="151.18668"
   xml:space="preserve"
   id="svg2"
   version="1.1"><metadata
     id="metadata8"><rdf:RDF><cc:Work
         rdf:about=""><dc:format>image/svg+xml</dc:format><dc:type
           rdf:resource="http://purl.org/dc/dcmitype/StillImage" /></cc:Work></rdf:RDF></metadata><defs
     id="defs6" /><g
     transform="matrix(1.3333333,0,0,-1.3333333,0,151.18667)"
     id="g10"><g
       transform="scale(0.1)"
       id="g12"><path
         id="path14"
         style="fill:#1a67bb;fill-opacity:1;fill-rule:nonzero;stroke:none"
         d="M 0,0 H 1133.94 V 1133.95 H 0 Z" /><path
         id="path16"
         style="fill:#ffffff;fill-opacity:1;fill-rule:nonzero;stroke:none"
         d="m 22.5625,79.2461 c 0,-31.2773 25.4023,-56.6797 56.6797,-56.6797 v 0 H 1054.44 v 0 c 31.31,0 56.68,25.4024 56.68,56.6797 v 0 975.1939 0 c 0,31.31 -25.4,56.68 -56.68,56.68 v 0 H 79.2422 v 0 c -31.3164,0 -56.6797,-25.4 -56.6797,-56.68 v 0 -975.1939 0" /><path
         id="path18"
         style="fill:#1a67bb;fill-opacity:1;fill-rule:nonzero;stroke:none"
         d="m 39.3711,79.5313 c 0,-21.9258 17.7539,-39.6875 39.6875,-39.6875 v 0 H 1054.26 v 0 c 21.91,0 39.71,17.7617 39.71,39.6875 v 0 975.2187 0 c 0,21.9 -17.8,39.68 -39.71,39.68 v 0 H 79.0586 v 0 c -21.9063,0 -39.6875,-17.78 -39.6875,-39.68 v 0 -975.2187 0" /><path
         id="path20"
         style="fill:#ffffff;fill-opacity:1;fill-rule:nonzero;stroke:none"
         d="M 609.625,913.711 731.949,824.723 141.449,544.758 252.934,351.68 790.621,723.043 806.52,572.66 v 0 c 1.23,-11.793 11.238,-20.98 23.347,-20.98 9.16,0 17.129,5.258 20.969,12.933 v 0 l 168.814,335.793 v 0 c 1.62,3.168 2.5,6.75 2.5,10.555 0,12.5 -9.76,22.68 -22.06,23.441 v 0 L 624.848,956.09 v 0 c -0.477,0.027 -0.907,0.058 -1.395,0.058 -12.949,0 -23.476,-10.511 -23.476,-23.488 0,-7.758 3.796,-14.672 9.648,-18.949 v 0" /><path
         id="path22"
         style="fill:#ffffff;fill-opacity:1;fill-rule:nonzero;stroke:none"
         d="m 292.594,132.559 c 3.582,-2.004 7.961,-3.387 13.133,-4.571 5.179,-0.996 10.945,-1.394 17.308,-1.394 13.332,0 24.09,3.574 31.852,10.73 7.75,7.168 11.535,17.117 11.535,29.856 v 0 0 0 c 0,5.965 -0.793,11.14 -2.594,15.308 -1.781,4.184 -4.375,7.973 -7.359,11.153 -2.977,3.183 -6.563,6.164 -10.742,8.75 -4.172,2.597 -8.547,5.175 -13.129,7.765 -3.383,1.992 -6.368,3.77 -8.754,5.574 -2.594,1.79 -4.582,3.379 -5.977,5.168 -1.59,1.602 -2.777,3.387 -3.387,5.372 -0.589,1.796 -0.996,3.996 -0.996,6.367 0,5.379 1.805,9.953 5.371,13.332 3.59,3.386 8.571,5.183 15.137,5.183 4.969,0 9.746,-0.605 13.93,-1.797 4.172,-1.386 7.758,-2.785 10.941,-4.375 v 0 l 0.59,19.102 v 0 c -2.578,0.996 -6.367,2.188 -10.941,3.184 -4.774,0.996 -10.145,1.601 -16.121,1.601 -5.571,0 -10.743,-0.812 -15.719,-2.187 -4.969,-1.602 -9.348,-3.996 -13.137,-6.973 -3.769,-3.184 -6.769,-6.973 -8.957,-11.555 -2.187,-4.558 -3.383,-9.746 -3.383,-15.703 0,-6.179 0.809,-11.148 2.594,-15.32 1.785,-4.191 4.176,-7.969 7.172,-10.949 2.98,-3.192 6.363,-5.977 10.539,-8.367 3.973,-2.579 8.352,-5.168 12.934,-7.961 3.785,-2.184 6.968,-4.375 9.558,-6.161 2.578,-1.992 4.567,-3.972 6.164,-5.769 1.399,-1.789 2.594,-3.781 3.184,-5.766 0.59,-2.207 0.793,-4.39 0.793,-6.972 0,-6.368 -2.192,-11.344 -6.371,-15.118 -4.172,-3.789 -9.746,-5.781 -16.512,-5.781 -5.57,0 -10.742,0.996 -15.727,2.988 -4.968,1.79 -8.941,3.782 -12.14,5.774 v 0 l -0.789,-20.488 v 0" /><path
         id="path24"
         style="fill:#ffffff;fill-opacity:1;fill-rule:nonzero;stroke:none"
         d="m 400.84,144.492 c 4.765,-5.976 10.336,-10.351 16.902,-13.332 6.363,-3.172 13.336,-4.566 20.696,-4.566 7.757,0 14.929,1.394 21.5,4.363 6.566,2.977 12.136,7.352 16.902,13.328 4.781,5.781 8.57,13.344 11.348,22.297 2.593,8.945 3.976,19.695 3.976,31.836 v 0 0 0 c 0,11.738 -1.383,21.895 -3.976,30.645 -2.778,8.757 -6.567,16.113 -11.348,22.089 -4.766,5.762 -10.336,10.34 -16.703,13.34 -6.567,2.981 -13.535,4.375 -20.895,4.375 -7.762,0 -14.73,-1.394 -21.297,-4.375 -6.566,-3 -12.34,-7.375 -17.105,-13.152 -4.781,-5.957 -8.57,-13.52 -11.149,-22.473 -2.793,-8.965 -4.187,-19.707 -4.187,-31.847 0,-11.739 1.394,-21.883 4.187,-30.641 2.579,-8.75 6.368,-16.125 11.149,-21.887 v 0" /><path
         id="path26"
         style="fill:#ffffff;fill-opacity:1;fill-rule:nonzero;stroke:none"
         d="m 519.52,128.176 h 21.5 v 61.289 h 6.769 v 0 c 5.774,0 10.156,-0.996 13.336,-3.188 2.98,-2.183 5.574,-6.172 7.344,-11.929 v 0 l 14.914,-46.172 h 22.902 l -18.711,54.312 v 0 c -1.797,5.18 -3.984,8.762 -6.379,10.95 -2.578,1.992 -5.566,3.386 -8.953,3.992 v 0 0.383 0 c 9.16,1.804 15.926,5.578 20.508,11.55 4.578,5.957 6.766,13.137 6.766,21.485 0,6.371 -0.996,11.742 -2.996,16.32 -1.985,4.578 -4.766,8.359 -8.352,11.348 -3.582,2.976 -7.762,5.164 -12.734,6.562 -4.981,1.395 -10.536,1.992 -16.5,1.992 v 0 H 519.52 v -138.894 0" /><path
         id="path28"
         style="fill:#ffffff;fill-opacity:1;fill-rule:nonzero;stroke:none"
         d="m 644.398,128.176 h 21.485 v 121.179 h 31.25 v 17.715 h -84.18 v -17.715 h 31.445 v -121.179 0" /><path
         id="path30"
         style="fill:#ffffff;fill-opacity:1;fill-rule:nonzero;stroke:none"
         d="m 715.336,128.176 h 21.496 V 267.07 h -21.496 v -138.894 0" /><path
         id="path32"
         style="fill:#ffffff;fill-opacity:1;fill-rule:nonzero;stroke:none"
         d="m 771.605,128.176 h 71.055 v 17.703 h -49.551 v 45.168 h 44.973 v 17.715 h -44.973 v 40.593 h 47.364 v 17.715 h -68.868 v -138.894 0" /><path
         id="path34"
         style="fill:#1a67bb;fill-opacity:1;fill-rule:nonzero;stroke:none"
         d="m 415.758,157.832 c -5.371,9.539 -7.965,22.676 -7.965,39.188 0,10.16 0.793,18.71 2.594,25.675 1.582,6.961 3.773,12.735 6.765,17.11 2.778,4.179 6.164,7.363 9.953,9.343 3.77,1.797 7.95,2.793 12.137,2.793 9.953,0 17.512,-4.773 22.883,-14.324 5.172,-9.551 7.762,-22.676 7.762,-39.199 v 0 0 0 c 0,-10.148 -0.809,-18.699 -2.391,-25.676 -1.789,-6.972 -3.976,-12.722 -6.769,-16.914 -2.977,-4.383 -6.368,-7.566 -10.153,-9.344 -3.773,-1.992 -7.945,-2.988 -12.136,-2.988 -9.954,0 -17.508,4.766 -22.68,14.336 v 0" /><path
         id="path36"
         style="fill:#1a67bb;fill-opacity:1;fill-rule:nonzero;stroke:none"
         d="m 541.02,205.977 v 44.179 h 12.14 v 0 c 7.356,0 13.332,-1.593 17.699,-4.773 4.176,-3.188 6.364,-8.762 6.364,-16.516 v 0 0 0 c 0,-6.57 -1.985,-12.148 -5.973,-16.316 -4.18,-4.375 -10.125,-6.574 -18.289,-6.574 v 0 H 541.02 v 0" /></g></g></svg>