<?xml version="1.0" encoding="UTF-8" standalone="no"?>
<svg
   xmlns:dc="http://purl.org/dc/elements/1.1/"
   xmlns:cc="http://creativecommons.org/ns#"
   xmlns:rdf="http://www.w3.org/1999/02/22-rdf-syntax-ns#"
   xmlns:svg="http://www.w3.org/2000/svg"
   xmlns="http://www.w3.org/2000/svg"
   viewBox="0 0 233.12 104.32"
   height="104.32"
   width="233.12"
   xml:space="preserve"
   id="svg2"
   version="1.1"><metadata
     id="metadata8"><rdf:RDF><cc:Work
         rdf:about=""><dc:format>image/svg+xml</dc:format><dc:type
           rdf:resource="http://purl.org/dc/dcmitype/StillImage" /></cc:Work></rdf:RDF></metadata><defs
     id="defs6" /><g
     transform="matrix(1.3333333,0,0,-1.3333333,0,104.32)"
     id="g10"><g
       transform="scale(0.1)"
       id="g12"><path
         id="path14"
         style="fill:#007f46;fill-opacity:1;fill-rule:nonzero;stroke:none"
         d="m 782.516,0 h 965.887 V 782.363 H 782.516 Z" /><path
         id="path16"
         style="fill:#007f46;fill-opacity:1;fill-rule:nonzero;stroke:none"
         d="M 0,0 H 761.828 V 782.359 H 0 Z" /><path
         id="path18"
         style="fill:#ffffff;fill-opacity:1;fill-rule:nonzero;stroke:none"
         d="m 847.133,769.066 c -28.195,0 -51.039,-22.828 -51.039,-51.019 v 0 -653.0978 0 c 0,-28.1914 22.844,-51.0234 51.039,-51.0234 v 0 h 836.617 v 0 c 28.2,0 51.03,22.832 51.03,51.0234 v 0 653.0978 0 c 0,28.191 -22.83,51.019 -51.03,51.019 v 0 H 847.133 v 0" /><path
         id="path20"
         style="fill:#ffffff;fill-opacity:1;fill-rule:nonzero;stroke:none"
         d="m 697.531,13.9258 c 28.157,0 51.008,22.832 51.008,51.0234 v 0 653.0978 0 c 0,28.191 -22.851,51.031 -51.008,51.031 v 0 H 64.9258 v 0 c -28.1524,0 -51.0039,-22.84 -51.0039,-51.031 v 0 -653.0978 0 c 0,-28.1914 22.8515,-51.0234 51.0039,-51.0234 v 0 H 697.531 v 0" /><path
         id="path22"
         style="fill:#007f46;fill-opacity:1;fill-rule:nonzero;stroke:none"
         d="m 847.004,751.953 c -18.789,0 -34.02,-15.226 -34.02,-34.019 v 0 -653.0981 0 c 0,-18.7734 15.231,-34.0156 34.02,-34.0156 v 0 h 836.636 v 0 c 18.79,0 34.02,15.2422 34.02,34.0156 v 0 653.0981 0 c 0,18.793 -15.23,34.019 -34.02,34.019 v 0 H 847.004 v 0" /><path
         id="path24"
         style="fill:#007f46;fill-opacity:1;fill-rule:nonzero;stroke:none"
         d="m 697.406,30.8203 c 18.801,0 34.032,15.2422 34.032,34.0156 v 0 653.0981 0 c 0,18.777 -15.231,34.019 -34.032,34.019 v 0 H 64.8398 v 0 c -18.8007,0 -34.0273,-15.242 -34.0273,-34.019 v 0 -653.0981 0 c 0,-18.7734 15.2266,-34.0156 34.0273,-34.0156 v 0 H 697.406 v 0" /><path
         id="path26"
         style="fill:#ffffff;fill-opacity:1;fill-rule:nonzero;stroke:none"
         d="m 241.484,98.8008 -136.152,9.7152 v 0 c -2.266,0.156 -4.277,1.414 -5.3984,3.371 -1.1328,1.961 -1.2266,4.343 -0.2383,6.383 v 0 l 59.6677,122.777 v 0 c 1.239,2.539 3.914,4.043 6.723,3.789 2.805,-0.246 5.176,-2.199 5.941,-4.914 v 0 l 15.418,-53.926 127.051,79.258 25.508,-44.191 -132.141,-70.426 38.985,-40.324 v 0 c 1.961,-2.024 2.461,-5.047 1.277,-7.61 -1.191,-2.547 -3.832,-4.1014 -6.641,-3.9022 v 0" /><path
         id="path28"
         style="fill:#ffffff;fill-opacity:1;fill-rule:nonzero;stroke:none"
         d="m 1506.77,98.7109 136.14,9.7191 v 0 c 2.26,0.172 4.28,1.422 5.41,3.386 1.13,1.946 1.22,4.344 0.23,6.375 v 0 l -59.67,122.778 v 0 c -1.23,2.515 -3.9,4.043 -6.7,3.797 -2.81,-0.246 -5.17,-2.188 -5.95,-4.903 v 0 l -15.44,-53.945 -127.04,79.246 -25.51,-44.18 132.15,-70.418 -38.99,-40.324 v 0 c -1.96,-2.039 -2.47,-5.058 -1.28,-7.613 1.19,-2.563 3.84,-4.1134 6.65,-3.9181 v 0" /><path
         id="path30"
         style="fill:#ffffff;fill-opacity:1;fill-rule:nonzero;stroke:none"
         d="m 214.063,534.266 h 18.417 v 103.871 h 26.774 v 15.179 h -72.133 v -15.179 h 26.942 v -103.871 0" /><path
         id="path32"
         style="fill:#ffffff;fill-opacity:1;fill-rule:nonzero;stroke:none"
         d="m 274.875,534.266 h 17.734 v 51.851 c 0,6.817 1.36,12.278 4.254,16.196 2.731,3.925 6.828,5.796 12.453,5.796 4.606,0 7.84,-1.527 10.063,-4.601 2.047,-3.07 3.066,-8.012 3.066,-14.836 v 0 -54.406 h 17.735 v 58.504 0 c 0,9.207 -2.043,16.543 -6.133,21.996 -4.098,5.457 -10.574,8.187 -19.445,8.187 -5.797,0 -10.403,-1.359 -13.641,-3.922 -3.41,-2.726 -6.141,-5.629 -8.016,-8.871 v 0 h -0.336 v 52.024 h -17.734 v -127.918 0" /><path
         id="path34"
         style="fill:#ffffff;fill-opacity:1;fill-rule:nonzero;stroke:none"
         d="m 418.688,534.266 h 16.707 v 0 c -0.165,2.554 -0.336,5.281 -0.508,8.183 -0.176,2.731 -0.176,5.633 -0.176,8.528 v 0 70.785 h -17.734 v -51.336 0 c 0,-6.828 -1.368,-12.285 -3.918,-16.383 -2.559,-4.086 -6.821,-6.133 -12.45,-6.133 -4.609,0 -7.843,1.528 -10.066,4.606 -2.211,3.066 -3.402,8.015 -3.402,14.832 v 0 54.414 h -17.735 v -58.5 0 c 0,-9.219 2.039,-16.547 6.133,-22.008 4.094,-5.457 10.574,-8.184 19.445,-8.184 5.969,0 10.739,1.36 14.325,4.266 3.41,2.727 6.14,6.141 8.351,10.227 v 0 h 0.344 l 0.684,-13.297 v 0" /><path
         id="path36"
         style="fill:#ffffff;fill-opacity:1;fill-rule:nonzero;stroke:none"
         d="m 465.426,534.266 h 17.742 v 51.851 c 0,6.817 1.355,12.278 4.258,16.196 2.73,3.925 6.828,5.796 12.449,5.796 4.602,0 7.844,-1.527 10.063,-4.601 2.05,-3.07 3.066,-8.012 3.066,-14.836 v 0 -54.406 h 17.738 v 58.504 0 c 0,9.207 -2.047,16.543 -6.133,21.996 -4.097,5.457 -10.574,8.187 -19.449,8.187 -5.109,0 -9.543,-1.191 -13.465,-3.742 -3.922,-2.563 -7,-6.145 -9.211,-10.754 v 0 h -0.343 v 0 c 0,0.512 0,1.539 0,2.731 -0.172,1.195 -0.172,2.558 -0.34,3.925 -0.168,1.36 -0.168,2.731 -0.168,3.918 -0.176,1.192 -0.176,2.223 -0.176,2.731 v 0 H 464.75 v 0 c 0.168,-2.551 0.34,-5.289 0.508,-8.016 0.168,-2.902 0.168,-5.797 0.168,-8.703 v 0 -70.777 0" /><path
         id="path38"
         style="fill:#ffffff;fill-opacity:1;fill-rule:nonzero;stroke:none"
         d="m 181.852,346.777 c -1.704,-0.843 -3.75,-1.527 -6.313,-2.043 -2.559,-0.515 -4.941,-0.679 -7.5,-0.679 -5.969,0 -11.258,1.195 -15.859,3.406 -4.606,2.223 -8.356,5.461 -11.258,9.555 -3.067,4.097 -5.285,9.039 -6.824,15.004 -1.528,5.8 -2.383,12.281 -2.383,19.449 0,6.656 0.855,12.793 2.73,18.254 1.875,5.457 4.426,10.062 7.668,13.988 3.239,3.75 7,6.648 11.426,8.863 4.434,2.043 9.387,3.074 14.676,3.074 4.941,0 9.887,-0.683 14.656,-1.882 4.606,-1.36 9.043,-3.239 12.969,-5.457 v 0 l 0.508,17.234 v 0 c -3.239,1.527 -7.332,2.895 -12.114,3.922 -4.937,0.848 -10.402,1.363 -16.367,1.363 -8.703,0 -16.371,-1.535 -23.199,-4.441 -6.988,-2.891 -12.781,-7.164 -17.563,-12.446 -4.777,-5.293 -8.351,-11.773 -10.91,-19.277 -2.562,-7.5 -3.918,-15.695 -3.918,-24.726 0,-8.36 1.192,-16.375 3.403,-23.711 2.222,-7.512 5.804,-13.993 10.41,-19.45 4.605,-5.625 10.566,-9.89 17.558,-13.129 6.993,-3.25 15.356,-4.761 24.727,-4.761 6.648,0 12.621,0.683 17.91,2.031 5.281,1.199 9.715,2.562 12.965,4.094 v 0 61.402 h -36.5 v -14.836 h 19.102 v -34.801 0" /><path
         id="path40"
         style="fill:#ffffff;fill-opacity:1;fill-rule:nonzero;stroke:none"
         d="m 274.156,330.242 h 16.703 v 0 c -0.16,2.563 -0.332,5.274 -0.507,8.176 -0.172,2.734 -0.172,5.637 -0.172,8.531 v 0 70.789 h -17.735 v -51.336 0 c 0,-6.828 -1.367,-12.293 -3.925,-16.382 -2.551,-4.086 -6.809,-6.133 -12.446,-6.133 -4.605,0 -7.847,1.523 -10.062,4.597 -2.211,3.071 -3.403,8.024 -3.403,14.84 v 0 54.414 h -17.734 v -58.504 0 c 0,-9.214 2.035,-16.543 6.133,-22.004 4.09,-5.464 10.57,-8.187 19.441,-8.187 5.973,0 10.739,1.355 14.328,4.262 3.407,2.734 6.137,6.148 8.348,10.234 v 0 h 0.348 l 0.683,-13.297 v 0" /><path
         id="path42"
         style="fill:#ffffff;fill-opacity:1;fill-rule:nonzero;stroke:none"
         d="m 320.891,330.242 h 17.742 v 51.848 c 0,6.816 1.355,12.281 4.258,16.195 2.73,3.926 6.828,5.801 12.453,5.801 4.601,0 7.84,-1.527 10.062,-4.606 2.043,-3.066 3.067,-8.011 3.067,-14.835 v 0 -54.403 h 17.734 v 58.496 0 c 0,9.211 -2.047,16.551 -6.133,22.004 -4.097,5.457 -10.57,8.188 -19.445,8.188 -5.117,0 -9.543,-1.192 -13.465,-3.75 -3.926,-2.559 -7.004,-6.141 -9.215,-10.746 v 0 h -0.34 v 0 c 0,0.507 0,1.539 0,2.73 -0.175,1.191 -0.175,2.559 -0.339,3.922 -0.176,1.363 -0.176,2.73 -0.176,3.926 -0.168,1.187 -0.168,2.218 -0.168,2.726 v 0 h -16.711 v 0 c 0.168,-2.558 0.336,-5.289 0.512,-8.015 0.164,-2.907 0.164,-5.801 0.164,-8.703 v 0 -70.778 0" /><path
         id="path44"
         style="fill:#ffffff;fill-opacity:1;fill-rule:nonzero;stroke:none"
         d="m 456.293,331.602 v 13.296 c -1.191,-0.503 -2.387,-1.011 -3.75,-1.359 -1.367,-0.508 -2.895,-0.684 -4.773,-0.684 -3.243,0 -5.454,1.032 -6.993,2.903 -1.535,1.875 -2.218,5.117 -2.218,9.89 v 0 48.438 h 17.734 v 13.652 h -17.734 v 23.2 l -17.739,-5.29 v -17.91 h -13.972 v -13.652 h 13.972 v -52.027 0 c 0,-8.344 1.875,-14.321 5.797,-17.727 3.934,-3.578 9.383,-5.289 16.543,-5.289 2.567,0 5.125,0.176 7.34,0.684 2.215,0.671 4.266,1.191 5.793,1.875 v 0" /><path
         id="path46"
         style="fill:#ffffff;fill-opacity:1;fill-rule:nonzero;stroke:none"
         d="m 493.121,368.953 h 49.965 v 5.973 c 0,7.672 -0.856,14.152 -2.391,19.785 -1.531,5.625 -3.75,10.23 -6.652,13.812 -2.895,3.582 -6.48,6.141 -10.398,7.848 -4.098,1.703 -8.532,2.559 -13.309,2.559 -5.453,0 -10.398,-1.024 -14.656,-3.242 -4.446,-2.215 -8.188,-5.458 -11.086,-9.379 -2.903,-4.098 -5.285,-8.868 -6.824,-14.504 -1.54,-5.617 -2.383,-11.762 -2.383,-18.414 0,-6.305 0.843,-12.278 2.383,-17.743 1.539,-5.457 3.75,-10.066 6.988,-13.984 3.074,-3.926 6.996,-6.992 11.765,-9.215 4.782,-2.371 10.411,-3.406 16.715,-3.406 5.457,0 10.407,0.527 14.668,1.711 4.262,1.187 7.672,2.383 10.574,3.578 v 0 l -0.851,14.84 v 0 c -2.223,-1.539 -5.117,-3.078 -8.527,-4.606 -3.59,-1.535 -7.848,-2.394 -12.957,-2.394 -8.196,0 -13.993,2.223 -17.575,6.828 -3.574,4.43 -5.449,11.082 -5.449,19.953 v 0" /><path
         id="path48"
         style="fill:#ffffff;fill-opacity:1;fill-rule:nonzero;stroke:none"
         d="m 569.043,330.242 h 17.746 v 51.848 c 0,6.816 1.356,12.281 4.262,16.195 2.73,3.926 6.82,5.801 12.445,5.801 4.606,0 7.848,-1.527 10.063,-4.606 2.046,-3.066 3.066,-8.011 3.066,-14.835 v 0 -54.403 h 17.734 v 58.496 0 c 0,9.211 -2.043,16.551 -6.132,22.004 -4.09,5.457 -10.575,8.188 -19.446,8.188 -5.113,0 -9.543,-1.192 -13.468,-3.75 -3.922,-2.559 -6.993,-6.141 -9.204,-10.746 v 0 h -0.347 v 0 c 0,0.507 0,1.539 0,2.73 -0.176,1.191 -0.176,2.559 -0.336,3.922 -0.176,1.363 -0.176,2.73 -0.176,3.926 -0.172,1.187 -0.172,2.218 -0.172,2.726 v 0 h -16.707 v 0 c 0.164,-2.558 0.336,-5.289 0.512,-8.015 0.16,-2.907 0.16,-5.801 0.16,-8.703 v 0 -70.778 0" /><path
         id="path50"
         style="fill:#ffffff;fill-opacity:1;fill-rule:nonzero;stroke:none"
         d="m 908.363,534.266 h 18.418 v 53.898 h 38.36 v -53.898 h 18.429 v 119.05 H 965.141 V 603.68 h -38.36 v 49.636 h -18.418 v -119.05 0" /><path
         id="path52"
         style="fill:#ffffff;fill-opacity:1;fill-rule:nonzero;stroke:none"
         d="m 1027.18,572.977 h 49.96 v 5.976 c 0,7.672 -0.85,14.152 -2.39,19.785 -1.52,5.621 -3.75,10.231 -6.65,13.817 -2.89,3.578 -6.47,6.133 -10.4,7.84 -4.09,1.703 -8.52,2.558 -13.3,2.558 -5.46,0 -10.4,-1.023 -14.66,-3.234 -4.44,-2.223 -8.19,-5.465 -11.08,-9.387 -2.91,-4.094 -5.3,-8.863 -6.83,-14.496 -1.54,-5.625 -2.39,-11.77 -2.39,-18.426 0,-6.301 0.85,-12.273 2.39,-17.73 1.53,-5.465 3.75,-10.067 6.98,-13.992 3.08,-3.922 7.01,-6.989 11.77,-9.208 4.79,-2.378 10.41,-3.41 16.72,-3.41 5.46,0 10.4,0.524 14.67,1.703 4.26,1.196 7.66,2.383 10.57,3.582 v 0 l -0.86,14.844 v 0 c -2.21,-1.539 -5.1,-3.078 -8.52,-4.605 -3.59,-1.543 -7.84,-2.395 -12.96,-2.395 -8.18,0 -13.99,2.219 -17.57,6.828 -3.57,4.43 -5.45,11.078 -5.45,19.95 v 0" /><path
         id="path54"
         style="fill:#ffffff;fill-opacity:1;fill-rule:nonzero;stroke:none"
         d="m 1102.95,534.266 h 17.74 v 87.496 h -17.74 v -87.496 0" /><path
         id="path56"
         style="fill:#ffffff;fill-opacity:1;fill-rule:nonzero;stroke:none"
         d="m 1102.44,639.332 h 18.76 v 18.93 h -18.76 v -18.93 0" /><path
         id="path58"
         style="fill:#ffffff;fill-opacity:1;fill-rule:nonzero;stroke:none"
         d="m 1150.43,534.266 h 17.74 v 53.55 c 0,6.481 1.36,11.43 3.92,15.012 2.56,3.582 6.48,5.281 11.42,5.281 8.19,0 12.29,-5.449 12.29,-16.195 v 0 -57.648 h 17.74 v 53.55 0 c 0,6.481 1.36,11.43 3.92,15.012 2.56,3.582 6.47,5.281 11.41,5.281 8.2,0 12.29,-5.449 12.29,-16.195 v 0 -57.648 h 17.74 v 57.312 0 c 0,10.227 -2.05,18.074 -6.15,23.36 -4.26,5.285 -10.57,8.015 -19.09,8.015 -5.63,0 -10.24,-1.359 -13.82,-4.09 -3.57,-2.894 -6.3,-6.144 -8.53,-9.722 -0.86,1.703 -1.87,3.414 -3.06,5.113 -1.2,1.543 -2.74,3.066 -4.45,4.434 -1.69,1.199 -3.75,2.218 -5.95,3.074 -2.22,0.851 -4.96,1.191 -7.85,1.191 -5.46,0 -9.9,-1.359 -13.48,-4.09 -3.59,-2.894 -6.48,-6.308 -8.35,-10.578 v 0 h -0.34 v 0 c 0,0.508 0,1.539 0,2.903 -0.18,1.195 -0.18,2.558 -0.18,3.925 -0.17,1.36 -0.17,2.731 -0.17,3.918 -0.16,1.192 -0.16,2.223 -0.16,2.731 v 0 h -17.57 v 0 c 0.17,-2.391 0.34,-4.946 0.52,-7.68 0.16,-2.719 0.16,-5.625 0.16,-8.863 v 0 -70.953 0" /><path
         id="path60"
         style="fill:#ffffff;fill-opacity:1;fill-rule:nonzero;stroke:none"
         d="m 1287.58,534.266 h 16.71 v 0 c 0,0.339 0,1.023 0.18,2.214 0.16,1.192 0.16,2.391 0.33,3.918 0,1.368 0,2.731 0.18,4.098 0,1.367 0,2.383 0,3.067 v 0 h 0.34 v 0 c 0.85,-1.875 2.04,-3.579 3.41,-5.29 1.19,-1.703 2.72,-3.234 4.59,-4.601 1.89,-1.367 3.93,-2.383 6.49,-3.242 2.56,-1.012 5.46,-1.36 8.69,-1.36 4.95,0 9.39,1.032 13.14,3.235 3.75,2.05 6.99,5.125 9.56,9.047 2.55,3.925 4.42,8.527 5.79,14.152 1.19,5.461 1.87,11.605 1.87,18.422 v 0 0 0 c 0,14.844 -2.73,25.926 -8.18,33.597 -5.46,7.688 -12.79,11.43 -22,11.43 -5.63,0 -10.23,-1.191 -13.64,-3.742 -3.59,-2.563 -6.48,-5.809 -8.71,-9.734 v 0 H 1306 v 52.707 h -17.74 v -112.399 0 c 0,-2.906 0,-5.801 -0.17,-8.355 -0.16,-2.559 -0.34,-4.95 -0.51,-7.164 v 0" /><path
         id="path62"
         style="fill:#ffffff;fill-opacity:1;fill-rule:nonzero;stroke:none"
         d="m 1400.37,572.977 h 49.96 v 5.976 c 0,7.672 -0.85,14.152 -2.4,19.785 -1.53,5.621 -3.75,10.231 -6.64,13.817 -2.91,3.578 -6.49,6.133 -10.41,7.84 -4.1,1.703 -8.52,2.558 -13.3,2.558 -5.45,0 -10.41,-1.023 -14.67,-3.234 -4.43,-2.223 -8.18,-5.465 -11.08,-9.387 -2.9,-4.094 -5.28,-8.863 -6.83,-14.496 -1.53,-5.625 -2.37,-11.77 -2.37,-18.426 0,-6.301 0.84,-12.273 2.37,-17.73 1.55,-5.465 3.75,-10.067 7,-13.992 3.07,-3.922 7,-6.989 11.77,-9.208 4.77,-2.378 10.41,-3.41 16.71,-3.41 5.46,0 10.4,0.524 14.67,1.703 4.26,1.196 7.67,2.383 10.58,3.582 v 0 l -0.86,14.844 v 0 c -2.23,-1.539 -5.12,-3.078 -8.53,-4.605 -3.58,-1.543 -7.84,-2.395 -12.96,-2.395 -8.19,0 -13.98,2.219 -17.56,6.828 -3.59,4.43 -5.45,11.078 -5.45,19.95 v 0" /><path
         id="path64"
         style="fill:#ffffff;fill-opacity:1;fill-rule:nonzero;stroke:none"
         d="m 1476.29,534.266 h 17.74 v 47.074 c 0,4.43 0.51,8.191 1.52,11.43 1.04,3.242 2.4,5.793 4.1,7.839 1.7,1.879 3.75,3.414 5.97,4.434 2.22,0.859 4.43,1.367 6.99,1.367 1.03,0 2.05,0 2.9,-0.172 0.86,-0.164 1.88,-0.336 2.74,-0.511 v 0 17.054 0 c -0.36,0 -0.69,0 -0.86,0.172 -0.18,0 -0.51,0 -0.85,0 -3.24,0 -6.13,-0.34 -8.7,-1.191 -2.56,-0.856 -4.6,-2.043 -6.49,-3.582 -1.86,-1.532 -3.57,-3.242 -4.94,-5.114 -1.36,-1.878 -2.55,-3.925 -3.41,-6.148 v 0 h -0.34 v 0 c 0,0.684 0,1.715 0,3.078 -0.16,1.367 -0.16,2.895 -0.34,4.434 -0.17,1.539 -0.17,2.89 -0.17,4.258 -0.17,1.367 -0.17,2.39 -0.17,3.074 v 0 h -16.37 v 0 c 0.17,-2.551 0.34,-5.289 0.51,-8.016 0.17,-2.902 0.17,-5.797 0.17,-8.703 v 0 -70.777 0" /><path
         id="path66"
         style="fill:#ffffff;fill-opacity:1;fill-rule:nonzero;stroke:none"
         d="m 1534.2,518.414 -1.03,-16.551 v 0 c 2.91,-1.199 7,-2.39 12.11,-3.582 5.11,-1.191 10.41,-1.875 15.69,-1.875 12.96,0 22.69,3.582 29.17,10.574 6.48,6.989 9.71,17.059 9.71,30.008 v 0 69.93 0 c 0,2.559 0.17,4.953 0.35,7.512 0.17,2.558 0.17,4.941 0.33,7.332 v 0 h -16.37 v 0 c 0,-0.508 0,-1.539 0,-2.731 -0.17,-1.187 -0.17,-2.558 -0.34,-3.918 -0.16,-1.367 -0.16,-2.558 -0.16,-3.75 -0.18,-1.203 -0.18,-2.222 -0.18,-2.73 v 0 h -0.51 v 0 c -2.21,3.922 -5.11,7.336 -8.69,10.23 -3.59,2.731 -8.03,4.09 -13.48,4.09 -5.29,0 -10.05,-1.023 -13.98,-3.234 -3.93,-2.223 -7.33,-5.121 -9.89,-9.039 -2.57,-3.922 -4.61,-8.703 -5.8,-14.16 -1.37,-5.625 -2.04,-11.77 -2.04,-18.594 0,-8.184 0.85,-15.012 2.72,-20.637 1.71,-5.629 3.92,-10.238 6.82,-13.648 2.9,-3.578 6.15,-5.969 9.73,-7.5 3.58,-1.536 7.33,-2.387 11.07,-2.387 5.98,0 10.75,1.359 14.34,4.262 3.57,2.73 6.48,6.132 8.69,10.402 v 0 h 0.34 v -10.914 0 c 0,-3.574 -0.34,-7.16 -1.02,-10.399 -0.85,-3.242 -2.05,-5.972 -3.76,-8.355 -1.87,-2.387 -4.25,-4.258 -7.33,-5.801 -3.07,-1.363 -6.98,-2.047 -11.59,-2.047 -4.78,0 -9.39,0.856 -13.99,2.383 -4.6,1.715 -8.18,3.414 -10.91,5.129 v 0" /><path
         id="path68"
         style="fill:#ffffff;fill-opacity:1;fill-rule:nonzero;stroke:none"
         d="m 943.336,333.988 c 3.066,-1.703 6.805,-2.902 11.25,-3.91 4.434,-0.859 9.375,-1.191 14.832,-1.191 11.437,0 20.645,3.054 27.297,9.199 6.645,6.133 9.895,14.656 9.895,25.582 v 0 0 0 c 0,5.117 -0.69,9.551 -2.23,13.133 -1.53,3.582 -3.75,6.828 -6.298,9.547 -2.57,2.73 -5.637,5.289 -9.211,7.507 -3.594,2.223 -7.332,4.43 -11.258,6.657 -2.91,1.699 -5.461,3.238 -7.511,4.777 -2.215,1.527 -3.914,2.895 -5.106,4.434 -1.367,1.363 -2.402,2.898 -2.91,4.601 -0.508,1.539 -0.84,3.414 -0.84,5.461 0,4.606 1.524,8.524 4.598,11.422 3.066,2.902 7.324,4.441 12.961,4.441 4.258,0 8.359,-0.515 11.933,-1.539 3.582,-1.187 6.66,-2.386 9.382,-3.75 v 0 l 0.51,16.375 v 0 c -2.216,0.856 -5.458,1.875 -9.384,2.731 -4.082,0.848 -8.691,1.363 -13.808,1.363 -4.778,0 -9.211,-0.683 -13.477,-1.875 -4.258,-1.363 -8.008,-3.41 -11.25,-5.969 -3.242,-2.73 -5.801,-5.972 -7.676,-9.894 -1.875,-3.918 -2.89,-8.363 -2.89,-13.477 0,-5.289 0.671,-9.554 2.207,-13.133 1.531,-3.585 3.582,-6.828 6.14,-9.382 2.559,-2.727 5.461,-5.118 9.035,-7.16 3.418,-2.223 7.168,-4.434 11.094,-6.829 3.231,-1.875 5.965,-3.75 8.184,-5.289 2.215,-1.703 3.925,-3.402 5.281,-4.937 1.191,-1.539 2.227,-3.242 2.734,-4.953 0.508,-1.875 0.684,-3.754 0.684,-5.973 0,-5.449 -1.875,-9.723 -5.457,-12.957 -3.594,-3.242 -8.359,-4.945 -14.16,-4.945 -4.778,0 -9.211,0.843 -13.469,2.562 -4.277,1.528 -7.676,3.235 -10.398,4.938 v 0 l -0.684,-17.567 v 0" /><path
         id="path70"
         style="fill:#ffffff;fill-opacity:1;fill-rule:nonzero;stroke:none"
         d="m 1044.16,368.953 h 49.97 v 5.973 c 0,7.672 -0.85,14.152 -2.39,19.785 -1.53,5.625 -3.76,10.23 -6.65,13.812 -2.91,3.582 -6.49,6.149 -10.41,7.848 -4.08,1.703 -8.52,2.559 -13.3,2.559 -5.45,0 -10.4,-1.02 -14.66,-3.242 -4.44,-2.215 -8.19,-5.458 -11.08,-9.379 -2.91,-4.098 -5.29,-8.868 -6.83,-14.504 -1.54,-5.617 -2.38,-11.762 -2.38,-18.414 0,-6.305 0.84,-12.278 2.38,-17.743 1.54,-5.457 3.74,-10.066 6.99,-13.984 3.07,-3.926 7,-6.992 11.76,-9.215 4.79,-2.371 10.41,-3.406 16.72,-3.406 5.46,0 10.4,0.527 14.67,1.711 4.26,1.187 7.68,2.383 10.58,3.578 v 0 l -0.86,14.84 v 0 c -2.22,-1.539 -5.12,-3.078 -8.53,-4.606 -3.58,-1.535 -7.84,-2.394 -12.96,-2.394 -8.18,0 -13.98,2.223 -17.57,6.828 -3.57,4.43 -5.45,11.082 -5.45,19.953 v 0" /><path
         id="path72"
         style="fill:#ffffff;fill-opacity:1;fill-rule:nonzero;stroke:none"
         d="m 1126.94,330.242 h 17.73 v 73.856 h 15.86 v 13.64 h -15.86 v 16.719 0 c 0,3.922 0.86,6.816 2.38,8.863 1.55,2.051 4.28,3.067 7.86,3.067 1.02,0 2.39,-0.16 3.91,-0.508 1.54,-0.336 3.08,-0.684 4.27,-1.191 v 0 13.64 0 c -1.88,0.52 -4.1,1.027 -6.65,1.363 -2.56,0.348 -4.6,0.512 -6.14,0.512 -4.26,0 -8.01,-0.672 -10.91,-1.875 -2.91,-1.187 -5.28,-2.894 -7.17,-5.113 -1.87,-2.219 -3.23,-4.606 -4.09,-7.512 -0.86,-2.89 -1.19,-6.133 -1.19,-9.371 v 0 -18.594 h -14.32 v -13.64 h 14.32 v -73.856 0" /><path
         id="path74"
         style="fill:#ffffff;fill-opacity:1;fill-rule:nonzero;stroke:none"
         d="m 1226.63,331.602 v 13.296 c -1.2,-0.503 -2.4,-1.011 -3.76,-1.359 -1.36,-0.508 -2.89,-0.684 -4.78,-0.684 -3.23,0 -5.45,1.032 -6.98,2.903 -1.54,1.875 -2.22,5.117 -2.22,9.89 v 0 48.45 h 17.74 v 13.64 h -17.74 v 23.2 l -17.74,-5.29 v -17.91 h -13.98 v -13.64 h 13.98 v -52.039 0 c 0,-8.344 1.87,-14.321 5.81,-17.727 3.92,-3.578 9.36,-5.289 16.53,-5.289 2.57,0 5.12,0.176 7.33,0.684 2.22,0.671 4.27,1.191 5.81,1.875 v 0" /><path
         id="path76"
         style="fill:#ffffff;fill-opacity:1;fill-rule:nonzero;stroke:none"
         d="m 1249.96,330.242 h 17.73 v 87.496 h -17.73 v -87.496 0" /><path
         id="path78"
         style="fill:#ffffff;fill-opacity:1;fill-rule:nonzero;stroke:none"
         d="m 1249.45,435.305 h 18.75 v 18.937 h -18.75 v -18.937 0" /><path
         id="path80"
         style="fill:#ffffff;fill-opacity:1;fill-rule:nonzero;stroke:none"
         d="m 1297.56,314.387 -1.02,-16.543 v 0 c 2.9,-1.203 6.99,-2.395 12.11,-3.586 5.12,-1.192 10.4,-1.875 15.68,-1.875 12.96,0 22.69,3.574 29.17,10.578 6.48,6.988 9.72,17.051 9.72,30.004 v 0 69.93 0 c 0,2.554 0.16,4.953 0.34,7.511 0.17,2.555 0.17,4.942 0.33,7.332 v 0 h -16.37 v 0 c 0,-0.508 0,-1.539 0,-2.726 -0.17,-1.196 -0.17,-2.563 -0.33,-3.926 -0.17,-1.363 -0.17,-2.563 -0.17,-3.75 -0.17,-1.203 -0.17,-2.223 -0.17,-2.731 v 0 h -0.52 v 0 c -2.21,3.918 -5.1,7.333 -8.69,10.231 -3.59,2.727 -8.01,4.094 -13.48,4.094 -5.29,0 -10.05,-1.02 -13.98,-3.242 -3.93,-2.215 -7.33,-5.114 -9.88,-9.032 -2.58,-3.926 -4.61,-8.707 -5.81,-14.168 -1.37,-5.617 -2.04,-11.765 -2.04,-18.586 0,-8.183 0.85,-15.011 2.72,-20.636 1.71,-5.633 3.92,-10.235 6.82,-13.653 2.91,-3.574 6.15,-5.965 9.72,-7.496 3.59,-1.543 7.34,-2.39 11.09,-2.39 5.97,0 10.74,1.359 14.33,4.261 3.57,2.731 6.48,6.149 8.69,10.407 v 0 h 0.35 v -10.915 0 c 0,-3.578 -0.35,-7.164 -1.03,-10.406 -0.85,-3.23 -2.05,-5.965 -3.76,-8.355 -1.87,-2.375 -4.25,-4.258 -7.33,-5.793 -3.07,-1.367 -6.98,-2.051 -11.59,-2.051 -4.78,0 -9.38,0.859 -13.99,2.391 -4.6,1.711 -8.17,3.41 -10.91,5.121 v 0" /><path
         id="path82"
         style="fill:#ffffff;fill-opacity:1;fill-rule:nonzero;stroke:none"
         d="m 1405.5,368.953 h 49.97 v 5.973 c 0,7.672 -0.86,14.152 -2.4,19.785 -1.53,5.625 -3.75,10.23 -6.64,13.812 -2.9,3.582 -6.48,6.149 -10.41,7.848 -4.08,1.703 -8.52,2.559 -13.3,2.559 -5.45,0 -10.4,-1.02 -14.66,-3.242 -4.44,-2.215 -8.19,-5.458 -11.08,-9.379 -2.9,-4.098 -5.3,-8.868 -6.83,-14.504 -1.53,-5.617 -2.38,-11.762 -2.38,-18.414 0,-6.305 0.85,-12.278 2.38,-17.743 1.53,-5.457 3.75,-10.066 6.99,-13.984 3.08,-3.926 7,-6.992 11.76,-9.215 4.79,-2.371 10.41,-3.406 16.72,-3.406 5.46,0 10.4,0.527 14.67,1.711 4.26,1.187 7.67,2.383 10.57,3.578 v 0 l -0.86,14.84 v 0 c -2.21,-1.539 -5.1,-3.078 -8.52,-4.606 -3.59,-1.535 -7.84,-2.394 -12.96,-2.394 -8.18,0 -13.98,2.223 -17.57,6.828 -3.57,4.43 -5.45,11.082 -5.45,19.953 v 0" /><path
         id="path84"
         style="fill:#ffffff;fill-opacity:1;fill-rule:nonzero;stroke:none"
         d="m 1481.43,330.242 h 17.75 v 51.848 c 0,6.824 1.36,12.281 4.26,16.195 2.73,3.926 6.83,5.813 12.44,5.813 4.61,0 7.85,-1.539 10.07,-4.606 2.04,-3.078 3.07,-8.023 3.07,-14.847 v 0 -54.403 h 17.73 v 58.496 0 c 0,9.211 -2.04,16.551 -6.13,22.004 -4.09,5.457 -10.58,8.188 -19.44,8.188 -5.12,0 -9.55,-1.192 -13.47,-3.75 -3.92,-2.559 -7,-6.141 -9.21,-10.746 v 0 h -0.35 v 0 c 0,0.507 0,1.539 0,2.73 -0.17,1.191 -0.17,2.559 -0.33,3.922 -0.18,1.363 -0.18,2.73 -0.18,3.926 -0.16,1.187 -0.16,2.218 -0.16,2.726 v 0 h -16.72 v 0 c 0.17,-2.558 0.34,-5.289 0.51,-8.015 0.16,-2.907 0.16,-5.801 0.16,-8.703 v 0 -70.778 0" /><path
         id="path86"
         style="fill:#007f46;fill-opacity:1;fill-rule:nonzero;stroke:none"
         d="m 493.121,381.063 c 0.164,8.015 1.699,14.332 4.606,18.765 2.894,4.258 6.984,6.481 12.101,6.481 10.574,0 15.86,-8.36 15.86,-25.246 v 0 h -32.567 v 0" /><path
         id="path88"
         style="fill:#007f46;fill-opacity:1;fill-rule:nonzero;stroke:none"
         d="m 1027.18,585.09 c 0.16,8.015 1.7,14.336 4.6,18.762 2.9,4.257 6.99,6.48 12.1,6.48 10.58,0 15.86,-8.355 15.86,-25.242 v 0 h -32.56 v 0" /><path
         id="path90"
         style="fill:#007f46;fill-opacity:1;fill-rule:nonzero;stroke:none"
         d="m 1310.26,555.242 c -2.9,5.625 -4.26,13.297 -4.26,22.856 0,9.718 1.36,17.398 4.26,23.023 2.91,5.637 7.33,8.356 13.47,8.356 6.31,0 10.75,-2.719 13.47,-8.008 2.56,-5.457 3.93,-13.145 3.93,-23.035 v 0 0 0 c 0,-10.739 -1.19,-18.586 -3.75,-23.875 -2.56,-5.282 -7.16,-8.016 -13.48,-8.016 -6.31,0 -10.91,2.895 -13.64,8.699 v 0" /><path
         id="path92"
         style="fill:#007f46;fill-opacity:1;fill-rule:nonzero;stroke:none"
         d="m 1400.37,585.09 c 0.16,8.015 1.7,14.336 4.59,18.762 2.9,4.257 7,6.48 12.11,6.48 10.57,0 15.86,-8.355 15.86,-25.242 v 0 h -32.56 v 0" /><path
         id="path94"
         style="fill:#007f46;fill-opacity:1;fill-rule:nonzero;stroke:none"
         d="m 1551.59,554.898 c -2.89,4.95 -4.44,12.797 -4.44,23.536 0,10.066 1.37,17.578 4.1,22.859 2.55,5.117 7,7.676 13.13,7.848 5.8,0 10.23,-2.559 13.48,-7.672 3.07,-5.121 4.6,-12.797 4.6,-22.86 v 0 0 0 c 0,-10.578 -1.53,-18.425 -4.44,-23.535 -2.89,-5.289 -7.67,-7.847 -14.31,-7.847 -5.12,0 -9.22,2.558 -12.12,7.671 v 0" /><path
         id="path96"
         style="fill:#007f46;fill-opacity:1;fill-rule:nonzero;stroke:none"
         d="m 1044.16,381.063 c 0.17,8.015 1.7,14.332 4.61,18.765 2.89,4.27 6.99,6.481 12.11,6.481 10.56,0 15.85,-8.36 15.85,-25.246 v 0 h -32.57 v 0" /><path
         id="path98"
         style="fill:#007f46;fill-opacity:1;fill-rule:nonzero;stroke:none"
         d="m 1314.95,350.875 c -2.9,4.949 -4.43,12.793 -4.43,23.543 0,10.055 1.36,17.562 4.09,22.852 2.56,5.113 7,7.671 13.14,7.843 5.79,0 10.22,-2.554 13.48,-7.672 3.06,-5.121 4.59,-12.796 4.59,-22.863 v 0 0 0 c 0,-10.57 -1.53,-18.418 -4.44,-23.531 -2.89,-5.289 -7.67,-7.844 -14.31,-7.844 -5.12,0 -9.22,2.555 -12.12,7.672 v 0" /><path
         id="path100"
         style="fill:#007f46;fill-opacity:1;fill-rule:nonzero;stroke:none"
         d="m 1405.5,381.063 c 0.17,8.015 1.7,14.332 4.61,18.765 2.89,4.27 6.98,6.481 12.1,6.481 10.57,0 15.86,-8.36 15.86,-25.246 v 0 h -32.57 v 0" /></g></g></svg>