<?xml version="1.0" encoding="UTF-8" standalone="no"?>
<svg
   xmlns:dc="http://purl.org/dc/elements/1.1/"
   xmlns:cc="http://creativecommons.org/ns#"
   xmlns:rdf="http://www.w3.org/1999/02/22-rdf-syntax-ns#"
   xmlns:svg="http://www.w3.org/2000/svg"
   xmlns="http://www.w3.org/2000/svg"
   viewBox="0 0 226.77333 123.36"
   height="123.36"
   width="226.77333"
   xml:space="preserve"
   id="svg2"
   version="1.1"><metadata
     id="metadata8"><rdf:RDF><cc:Work
         rdf:about=""><dc:format>image/svg+xml</dc:format><dc:type
           rdf:resource="http://purl.org/dc/dcmitype/StillImage" /></cc:Work></rdf:RDF></metadata><defs
     id="defs6" /><g
     transform="matrix(1.3333333,0,0,-1.3333333,0,123.36)"
     id="g10"><g
       transform="scale(0.1)"
       id="g12"><path
         id="path14"
         style="fill:#007f46;fill-opacity:1;fill-rule:nonzero;stroke:none"
         d="M 0,0 H 1700.77 V 925.215 H 0 Z" /><path
         id="path16"
         style="fill:#ffffff;fill-opacity:1;fill-rule:nonzero;stroke:none"
         d="M 68.0078,17.0039 H 1632.75 v 0 c 28.18,0.0078 50.99,22.8203 51.02,51.0039 v 0 789.1802 0 c -0.02,28.183 -22.84,51.007 -51.02,51.023 v 0 H 68.0273 v 0 c -28.1796,-0.016 -51,-22.84 -51.0234,-51.023 v 0 -789.1607 0 c 0.0156,-28.1718 22.832,-50.996 51.0039,-51.0234 v 0" /><path
         id="path18"
         style="fill:#007f46;fill-opacity:1;fill-rule:nonzero;stroke:none"
         d="M 68.0273,37.4141 C 51.1172,37.4336 37.4219,51.125 37.4102,68.0273 v 0 789.1607 0 c 0.0156,16.91 13.707,30.601 30.6171,30.617 v 0 H 1632.75 v 0 c 16.91,-0.016 30.6,-13.707 30.62,-30.617 v 0 -789.1607 0 c -0.02,-16.914 -13.72,-30.6054 -30.63,-30.6132 v 0 H 68.0273 v 0" /><path
         id="path20"
         style="fill:#ffffff;fill-opacity:1;fill-rule:nonzero;stroke:none"
         d="m 222.832,786.848 h 15.02 v 17.906 h -15.02 v -17.906 0" /><path
         id="path22"
         style="fill:#ffffff;fill-opacity:1;fill-rule:nonzero;stroke:none"
         d="m 250.809,786.848 h 15.007 v 17.906 h -15.007 v -17.906 0" /><path
         id="path24"
         style="fill:#ffffff;fill-opacity:1;fill-rule:nonzero;stroke:none"
         d="m 260.879,682.973 h 16.703 v 0 c -0.16,2.558 -0.336,5.285 -0.508,8.183 -0.172,2.731 -0.172,5.637 -0.172,8.532 v 0 70.785 h -17.738 v -51.336 0 c 0,-6.828 -1.367,-12.285 -3.922,-16.371 -2.558,-4.098 -6.812,-6.149 -12.449,-6.149 -4.605,0 -7.848,1.531 -10.066,4.606 -2.215,3.07 -3.403,8.015 -3.403,14.836 v 0 54.414 h -17.742 v -58.5 0 c 0,-9.207 2.039,-16.547 6.137,-22.008 4.097,-5.457 10.578,-8.184 19.449,-8.184 5.973,0 10.738,1.36 14.324,4.262 3.414,2.73 6.145,6.145 8.356,10.23 v 0 h 0.347 l 0.684,-13.3 v 0" /><path
         id="path26"
         style="fill:#ffffff;fill-opacity:1;fill-rule:nonzero;stroke:none"
         d="m 307.715,682.973 h 17.746 v 47.07 c 0,4.434 0.512,8.195 1.531,11.434 1.028,3.242 2.387,5.8 4.094,7.843 1.703,1.875 3.75,3.414 5.969,4.434 2.222,0.855 4.433,1.363 6.988,1.363 1.031,0 2.051,0 2.906,-0.172 0.856,-0.164 1.875,-0.336 2.731,-0.507 v 0 17.054 0 c -0.348,0 -0.688,0 -0.856,0.172 -0.172,0 -0.515,0 -0.855,0 -3.242,0 -6.137,-0.336 -8.692,-1.191 -2.558,-0.856 -4.609,-2.051 -6.488,-3.586 -1.875,-1.532 -3.578,-3.239 -4.941,-5.114 -1.368,-1.875 -2.559,-3.921 -3.414,-6.144 v 0 h -0.336 v 0 c 0,0.684 0,1.711 0,3.078 -0.176,1.363 -0.176,2.895 -0.348,4.434 -0.176,1.539 -0.176,2.898 -0.176,4.265 -0.16,1.356 -0.16,2.383 -0.16,3.067 v 0 h -16.375 v 0 c 0.164,-2.559 0.34,-5.285 0.512,-8.016 0.164,-2.902 0.164,-5.801 0.164,-8.703 v 0 -70.781 0" /><path
         id="path28"
         style="fill:#ffffff;fill-opacity:1;fill-rule:nonzero;stroke:none"
         d="m 366.383,682.973 h 17.734 v 87.5 h -17.734 v -87.5 0" /><path
         id="path30"
         style="fill:#ffffff;fill-opacity:1;fill-rule:nonzero;stroke:none"
         d="m 365.867,788.035 h 18.758 v 18.942 h -18.758 v -18.942 0" /><path
         id="path32"
         style="fill:#ffffff;fill-opacity:1;fill-rule:nonzero;stroke:none"
         d="m 467.906,685.363 -1.015,15.008 v 0 c -1.875,-1.195 -4.434,-2.223 -7.34,-3.07 -2.903,-0.856 -5.969,-1.363 -8.871,-1.363 -7.672,0 -13.469,2.73 -17.567,8.179 -4.265,5.457 -6.304,12.797 -6.304,22.004 0,10.75 2.039,18.598 6.136,23.711 4.09,5.113 9.887,7.684 17.399,7.684 3.238,0 6.14,-0.348 8.699,-1.203 2.559,-0.848 4.77,-1.704 6.992,-2.895 v 0 l 0.856,14.832 v 0 c -2.223,0.855 -4.782,1.715 -8.02,2.395 -3.242,0.683 -6.476,1.019 -9.723,1.019 -6.652,0 -12.621,-1.019 -17.738,-3.242 -5.121,-2.215 -9.379,-5.457 -12.793,-9.379 -3.414,-4.098 -5.972,-8.863 -7.676,-14.496 -1.707,-5.625 -2.55,-11.598 -2.55,-18.246 0,-6.145 0.843,-11.946 2.379,-17.403 1.539,-5.464 4.097,-10.23 7.335,-14.156 3.243,-3.922 7.34,-7.164 12.454,-9.379 4.937,-2.39 10.91,-3.582 17.738,-3.582 3.75,0 7.332,0.348 10.91,1.032 3.586,0.835 6.492,1.695 8.699,2.55 v 0" /><path
         id="path34"
         style="fill:#ffffff;fill-opacity:1;fill-rule:nonzero;stroke:none"
         d="m 488.18,682.973 h 17.734 v 51.851 c 0,6.828 1.367,12.281 4.262,16.203 2.73,3.918 6.824,5.805 12.449,5.805 4.605,0 7.844,-1.539 10.066,-4.605 2.043,-3.075 3.067,-8.02 3.067,-14.844 v 0 -54.41 h 17.738 v 58.504 0 c 0,9.211 -2.043,16.546 -6.133,22 -4.097,5.461 -10.578,8.187 -19.453,8.187 -5.797,0 -10.398,-1.359 -13.64,-3.922 -3.411,-2.726 -6.145,-5.625 -8.016,-8.871 v 0 h -0.34 v 52.027 H 488.18 v -127.925 0" /><path
         id="path36"
         style="fill:#ffffff;fill-opacity:1;fill-rule:nonzero;stroke:none"
         d="m 123.746,682.973 h 70.262 v 15.175 h -49.633 l 48.777,88.36 v 15.519 H 125.273 V 786.848 H 171.5 l -47.754,-87.16 v -16.715 0" /><path
         id="path38"
         style="fill:#ffffff;fill-opacity:1;fill-rule:nonzero;stroke:none"
         d="m 123.746,496.508 h 32.399 v 0 c 5.968,0 11.253,0.847 15.863,2.555 4.601,1.527 8.359,3.925 11.601,6.816 3.243,2.906 5.625,6.48 7.336,10.574 1.532,3.922 2.383,8.367 2.383,13.137 v 0 0 0 c 0,4.605 -0.683,8.531 -1.875,12.113 -1.363,3.41 -3.062,6.305 -5.113,8.703 -2.219,2.207 -4.606,4.09 -7.168,5.457 -2.727,1.36 -5.457,2.211 -8.188,2.719 v 0 0.348 0 c 2.563,0.855 4.946,1.875 7.336,3.414 2.211,1.367 4.258,3.066 6.137,5.289 1.883,2.211 3.246,4.765 4.438,7.847 1.195,2.887 1.707,6.477 1.707,10.399 0,9.555 -2.735,16.887 -8.184,22.008 -5.637,5.109 -14.336,7.672 -26.273,7.672 v 0 h -32.399 v -119.051 0" /><path
         id="path40"
         style="fill:#ffffff;fill-opacity:1;fill-rule:nonzero;stroke:none"
         d="m 266.801,496.508 h 16.043 v 0 c -0.18,1.527 -0.516,3.746 -0.688,6.305 -0.176,2.558 -0.336,5.289 -0.336,8.187 v 0 41.789 0 c 0,5.793 -0.515,10.574 -1.715,14.324 -1.191,3.754 -3.066,6.828 -5.285,9.379 -1.875,2.223 -4.941,4.274 -9.039,6.149 -4.093,1.699 -9.379,2.554 -16.031,2.554 -5.625,0 -10.578,-0.683 -14.84,-2.047 -4.265,-1.367 -8.187,-2.894 -11.43,-4.781 v 0 l 1.368,-15.172 v 0 c 2.218,2.215 5.461,4.262 9.718,6.141 4.094,1.707 8.532,2.555 13.481,2.555 6.305,0 10.746,-1.7 13.469,-5.114 1.367,-1.703 2.394,-3.582 2.902,-5.625 0.508,-2.222 0.684,-4.613 0.684,-7.332 v 0 -3.59 h -6.309 v 0 c -14.16,0 -25.07,-2.382 -32.406,-6.988 -7.34,-4.781 -11.09,-12.285 -11.09,-22.519 0,-4.094 0.676,-7.68 2.043,-10.918 1.359,-3.242 3.234,-5.797 5.633,-8.02 2.218,-2.211 4.941,-3.75 8.019,-4.769 3.067,-1.188 6.309,-1.703 9.891,-1.703 6.48,0 11.594,1.355 15.519,4.085 3.75,2.559 6.825,5.637 9.036,9.04 v 0 h 0.343 v 0 c 0,-0.508 0,-1.364 0.176,-2.559 0,-1.191 0,-2.383 0.16,-3.574 0.176,-1.192 0.176,-2.395 0.348,-3.414 0.176,-1.192 0.176,-1.875 0.336,-2.383 v 0" /><path
         id="path42"
         style="fill:#ffffff;fill-opacity:1;fill-rule:nonzero;stroke:none"
         d="m 309.098,499.91 c 2.718,-1.195 6.132,-2.387 10.406,-3.242 4.09,-0.84 8.695,-1.355 13.641,-1.355 9.886,0 17.398,2.386 22.683,7.328 5.113,4.953 7.672,11.257 7.672,19.101 v 0 0 0 c 0,5.289 -1.535,9.559 -4.434,12.797 -3.07,3.238 -7.156,6.481 -12.445,9.383 v 0 l -7.68,4.262 v 0 c -3.925,2.222 -6.816,4.093 -9.039,5.972 -2.222,1.707 -3.242,4.09 -3.242,6.996 0,3.067 1.02,5.625 3.242,7.5 2.223,1.875 5.457,2.731 9.895,2.731 3.582,0 6.984,-0.34 9.891,-1.02 2.902,-0.855 5.625,-1.711 8.015,-2.73 v 0 l 0.856,14.324 v 0 c -1.883,0.684 -4.442,1.363 -7.852,2.219 -3.578,0.683 -7.676,1.019 -12.277,1.019 -4.438,0 -8.356,-0.683 -11.942,-2.047 -3.578,-1.367 -6.648,-3.242 -9.207,-5.457 -2.558,-2.386 -4.605,-5.117 -5.972,-8.011 -1.368,-3.078 -2.051,-6.317 -2.051,-9.559 0,-3.066 0.512,-5.797 1.367,-8.191 0.855,-2.383 2.051,-4.43 3.586,-6.305 1.527,-1.875 3.238,-3.414 5.453,-4.781 2.223,-1.528 4.606,-2.891 7.332,-4.258 v 0 l 9.211,-4.602 v 0 c 3.926,-1.875 6.652,-3.921 8.191,-5.972 1.368,-2.047 2.047,-4.27 2.047,-6.481 0,-3.414 -1.363,-5.972 -4.093,-7.679 -2.727,-1.875 -6.485,-2.731 -11.086,-2.731 -4.27,0 -8.356,0.684 -11.942,2.215 -3.586,1.367 -6.648,2.738 -9.207,3.93 v 0 l -1.019,-15.356 v 0" /><path
         id="path44"
         style="fill:#ffffff;fill-opacity:1;fill-rule:nonzero;stroke:none"
         d="m 403.73,535.227 h 49.977 v 5.964 c 0,7.676 -0.859,14.157 -2.398,19.786 -1.528,5.625 -3.746,10.234 -6.645,13.816 -2.902,3.574 -6.484,6.145 -10.41,7.848 -4.09,1.699 -8.527,2.554 -13.309,2.554 -5.449,0 -10.398,-1.019 -14.656,-3.238 -4.441,-2.219 -8.191,-5.465 -11.086,-9.383 -2.902,-4.097 -5.285,-8.863 -6.824,-14.5 -1.543,-5.625 -2.387,-11.765 -2.387,-18.422 0,-6.3 0.844,-12.273 2.387,-17.734 1.539,-5.465 3.746,-10.066 6.988,-13.988 3.074,-3.922 6.996,-6.992 11.766,-9.215 4.777,-2.371 10.41,-3.402 16.719,-3.402 5.461,0 10.402,0.515 14.668,1.703 4.261,1.191 7.675,2.382 10.582,3.574 v 0 l -0.86,14.851 v 0 c -2.222,-1.543 -5.113,-3.082 -8.523,-4.613 -3.586,-1.535 -7.848,-2.39 -12.961,-2.39 -8.195,0 -13.988,2.222 -17.574,6.828 -3.579,4.433 -5.454,11.082 -5.454,19.961 v 0" /><path
         id="path46"
         style="fill:#ffffff;fill-opacity:1;fill-rule:nonzero;stroke:none"
         d="m 479.883,496.508 h 17.738 V 624.43 h -17.738 v -127.922 0" /><path
         id="path48"
         style="fill:#ffffff;fill-opacity:1;fill-rule:nonzero;stroke:none"
         d="m 244.926,310.031 h 16.035 v 0 c -0.172,1.524 -0.508,3.75 -0.684,6.305 -0.172,2.562 -0.336,5.285 -0.336,8.195 v 0 41.778 0 c 0,5.8 -0.515,10.578 -1.711,14.328 -1.191,3.758 -3.066,6.824 -5.285,9.383 -1.875,2.218 -4.941,4.265 -9.039,6.14 -4.093,1.703 -9.386,2.563 -16.035,2.563 -5.625,0 -10.574,-0.688 -14.836,-2.055 -4.265,-1.363 -8.191,-2.887 -11.43,-4.773 v 0 l 1.364,-15.188 v 0 c 2.222,2.231 5.465,4.281 9.722,6.156 4.094,1.707 8.524,2.547 13.477,2.547 6.309,0 10.75,-1.699 13.473,-5.105 1.359,-1.711 2.39,-3.598 2.902,-5.625 0.508,-2.231 0.68,-4.621 0.68,-7.348 v 0 -3.582 h -6.305 v 0 c -14.164,0 -25.07,-2.383 -32.406,-6.992 -7.34,-4.774 -11.09,-12.274 -11.09,-22.512 0,-4.09 0.676,-7.683 2.043,-10.918 1.359,-3.242 3.234,-5.797 5.629,-8.023 2.222,-2.207 4.945,-3.75 8.023,-4.77 3.067,-1.18 6.305,-1.695 9.891,-1.695 6.48,0 11.594,1.355 15.512,4.078 3.757,2.562 6.828,5.637 9.039,9.043 v 0 h 0.347 v 0 c 0,-0.508 0,-1.363 0.176,-2.555 0,-1.195 0,-2.383 0.16,-3.578 0.176,-1.187 0.176,-2.398 0.348,-3.418 0.176,-1.187 0.176,-1.875 0.336,-2.379 v 0" /><path
         id="path50"
         style="fill:#ffffff;fill-opacity:1;fill-rule:nonzero;stroke:none"
         d="m 336.879,310.031 h 16.715 v 0 c -0.164,2.555 -0.336,5.274 -0.512,8.18 -0.172,2.727 -0.172,5.637 -0.172,8.527 v 0 70.793 h -17.738 v -51.34 0 c 0,-6.824 -1.363,-12.285 -3.922,-16.375 -2.559,-4.093 -6.816,-6.144 -12.449,-6.144 -4.606,0 -7.848,1.531 -10.067,4.609 -2.211,3.067 -3.406,8.02 -3.406,14.836 v 0 54.414 h -17.734 v -58.508 0 c 0,-9.207 2.035,-16.543 6.133,-22 4.093,-5.468 10.574,-8.183 19.449,-8.183 5.969,0 10.734,1.355 14.324,4.258 3.414,2.73 6.145,6.14 8.355,10.23 v 0 h 0.344 l 0.68,-13.297 v 0" /><path
         id="path52"
         style="fill:#ffffff;fill-opacity:1;fill-rule:nonzero;stroke:none"
         d="m 381.363,313.43 c 2.719,-1.192 6.133,-2.387 10.399,-3.235 4.097,-0.84 8.703,-1.355 13.644,-1.355 9.891,0 17.403,2.383 22.692,7.32 5.109,4.953 7.668,11.262 7.668,19.106 v 0 0 0 c 0,5.293 -1.539,9.558 -4.434,12.8 -3.07,3.235 -7.16,6.473 -12.445,9.375 v 0 l -7.688,4.266 v 0 c -3.918,2.219 -6.812,4.094 -9.031,5.969 -2.223,1.711 -3.242,4.094 -3.242,7.004 0,3.062 1.019,5.625 3.242,7.5 2.219,1.863 5.461,2.722 9.891,2.722 3.586,0 6.988,-0.332 9.89,-1.015 2.903,-0.86 5.629,-1.707 8.024,-2.735 v 0 l 0.851,14.328 v 0 c -1.883,0.68 -4.441,1.368 -7.855,2.215 -3.574,0.684 -7.672,1.028 -12.278,1.028 -4.429,0 -8.351,-0.688 -11.937,-2.055 -3.578,-1.363 -6.652,-3.238 -9.207,-5.457 -2.559,-2.383 -4.609,-5.117 -5.973,-8.008 -1.367,-3.078 -2.047,-6.316 -2.047,-9.558 0,-3.071 0.508,-5.793 1.364,-8.188 0.855,-2.391 2.047,-4.43 3.586,-6.305 1.527,-1.875 3.242,-3.418 5.453,-4.785 2.218,-1.523 4.601,-2.89 7.332,-4.258 v 0 l 9.215,-4.601 v 0 c 3.921,-1.875 6.652,-3.926 8.187,-5.977 1.363,-2.039 2.047,-4.265 2.047,-6.472 0,-3.418 -1.367,-5.981 -4.094,-7.688 -2.73,-1.875 -6.48,-2.723 -11.086,-2.723 -4.269,0 -8.355,0.68 -11.937,2.215 -3.59,1.367 -6.656,2.735 -9.211,3.926 v 0 l -1.02,-15.359 v 0" /><path
         id="path54"
         style="fill:#ffffff;fill-opacity:1;fill-rule:nonzero;stroke:none"
         d="m 508.863,310.031 h 16.035 v 0 c -0.171,1.524 -0.507,3.75 -0.683,6.305 -0.172,2.562 -0.34,5.285 -0.34,8.195 v 0 41.778 0 c 0,5.8 -0.516,10.578 -1.707,14.328 -1.191,3.758 -3.066,6.824 -5.289,9.383 -1.875,2.218 -4.941,4.265 -9.035,6.14 -4.098,1.703 -9.387,2.563 -16.035,2.563 -5.625,0 -10.579,-0.688 -14.836,-2.055 -4.274,-1.363 -8.196,-2.887 -11.43,-4.773 v 0 l 1.359,-15.188 v 0 c 2.223,2.231 5.465,4.281 9.723,6.156 4.098,1.707 8.527,2.547 13.477,2.547 6.308,0 10.753,-1.699 13.472,-5.105 1.364,-1.711 2.395,-3.598 2.906,-5.625 0.508,-2.231 0.676,-4.621 0.676,-7.348 v 0 -3.582 h -6.301 v 0 c -14.167,0 -25.078,-2.383 -32.414,-6.992 -7.332,-4.774 -11.082,-12.274 -11.082,-22.512 0,-4.09 0.672,-7.683 2.039,-10.918 1.364,-3.242 3.239,-5.797 5.629,-8.023 2.223,-2.207 4.95,-3.75 8.024,-4.77 3.066,-1.18 6.304,-1.695 9.887,-1.695 6.48,0 11.597,1.355 15.519,4.078 3.75,2.562 6.824,5.637 9.039,9.043 v 0 h 0.348 v 0 c 0,-0.508 0,-1.363 0.168,-2.555 0,-1.195 0,-2.383 0.168,-3.578 0.175,-1.187 0.175,-2.398 0.343,-3.418 0.172,-1.187 0.172,-1.875 0.34,-2.379 v 0" /><path
         id="path56"
         style="fill:#ffffff;fill-opacity:1;fill-rule:nonzero;stroke:none"
         d="m 553.32,310.031 h 17.75 v 51.844 c 0,6.824 1.364,12.285 4.258,16.199 2.735,3.926 6.824,5.813 12.449,5.813 4.606,0 7.848,-1.543 10.071,-4.61 2.047,-3.078 3.066,-8.015 3.066,-14.843 v 0 -54.403 h 17.738 v 58.504 0 c 0,9.207 -2.043,16.543 -6.136,21.992 -4.094,5.461 -10.578,8.196 -19.45,8.196 -5.113,0 -9.546,-1.192 -13.472,-3.75 -3.918,-2.563 -6.996,-6.145 -9.207,-10.754 v 0 h -0.344 v 0 c 0,0.508 0,1.543 0,2.734 -0.176,1.192 -0.176,2.559 -0.336,3.914 -0.176,1.371 -0.176,2.738 -0.176,3.926 -0.172,1.195 -0.172,2.219 -0.172,2.738 v 0 h -16.714 v 0 c 0.168,-2.558 0.339,-5.293 0.515,-8.019 0.16,-2.91 0.16,-5.801 0.16,-8.699 v 0 -70.782 0" /><path
         id="path58"
         style="fill:#ffffff;fill-opacity:1;fill-rule:nonzero;stroke:none"
         d="m 647.965,310.031 h 17.75 v 51.844 c 0,6.824 1.363,12.285 4.258,16.199 2.73,3.926 6.824,5.813 12.449,5.813 4.605,0 7.848,-1.543 10.062,-4.61 2.051,-3.078 3.067,-8.015 3.067,-14.843 v 0 -54.403 h 17.738 v 58.504 0 c 0,9.207 -2.035,16.543 -6.133,21.992 -4.093,5.461 -10.574,8.196 -19.445,8.196 -5.117,0 -9.547,-1.192 -13.469,-3.75 -3.926,-2.563 -7,-6.145 -9.215,-10.754 v 0 h -0.343 v 0 c 0,0.508 0,1.543 0,2.734 -0.172,1.192 -0.172,2.559 -0.336,3.914 -0.172,1.371 -0.172,2.738 -0.172,3.926 C 664,395.988 664,397.012 664,397.531 v 0 h -16.703 v 0 c 0.16,-2.558 0.336,-5.293 0.508,-8.019 0.16,-2.91 0.16,-5.801 0.16,-8.699 v 0 -70.782 0" /><path
         id="path60"
         style="fill:#ffffff;fill-opacity:1;fill-rule:nonzero;stroke:none"
         d="m 755.16,348.75 h 49.977 v 5.969 c 0,7.676 -0.856,14.148 -2.395,19.781 -1.531,5.625 -3.75,10.227 -6.644,13.82 -2.907,3.575 -6.489,6.141 -10.414,7.84 -4.082,1.703 -8.528,2.563 -13.301,2.563 -5.453,0 -10.406,-1.028 -14.664,-3.243 -4.438,-2.218 -8.192,-5.46 -11.082,-9.386 -2.907,-4.094 -5.289,-8.867 -6.828,-14.492 -1.539,-5.625 -2.383,-11.77 -2.383,-18.426 0,-6.301 0.844,-12.278 2.383,-17.735 1.539,-5.461 3.75,-10.07 6.988,-13.988 3.074,-3.922 7.004,-6.992 11.773,-9.215 4.774,-2.375 10.41,-3.398 16.711,-3.398 5.465,0 10.403,0.515 14.676,1.695 4.258,1.195 7.668,2.383 10.574,3.578 v 0 l -0.859,14.84 v 0 c -2.215,-1.531 -5.113,-3.074 -8.524,-4.598 -3.585,-1.542 -7.843,-2.394 -12.96,-2.394 -8.188,0 -13.989,2.219 -17.575,6.828 -3.578,4.434 -5.453,11.082 -5.453,19.961 v 0" /><path
         id="path62"
         style="fill:#ffffff;fill-opacity:1;fill-rule:nonzero;stroke:none"
         d="m 123.746,310.031 h 57.469 v 15.172 h -39.051 v 103.875 h -18.418 v -119.047 0" /><path
         id="path64"
         style="fill:#ffffff;fill-opacity:1;fill-rule:nonzero;stroke:none"
         d="m 123.746,123.555 h 32.399 v 0 c 5.968,0 11.253,0.84 15.863,2.55 4.601,1.532 8.359,3.926 11.601,6.825 3.243,2.902 5.625,6.476 7.336,10.578 1.532,3.914 2.383,8.359 2.383,13.125 v 0 0 0 c 0,4.609 -0.683,8.523 -1.875,12.117 -1.363,3.41 -3.062,6.309 -5.113,8.699 -2.219,2.211 -4.606,4.094 -7.168,5.461 -2.727,1.36 -5.457,2.207 -8.188,2.727 v 0 0.34 0 c 2.563,0.859 4.946,1.875 7.336,3.41 2.211,1.367 4.258,3.062 6.137,5.293 1.883,2.207 3.246,4.765 4.438,7.84 1.195,2.902 1.707,6.484 1.707,10.402 0,9.558 -2.735,16.883 -8.184,22.012 -5.637,5.117 -14.336,7.664 -26.273,7.664 v 0 h -32.399 v -119.043 0" /><path
         id="path66"
         style="fill:#ffffff;fill-opacity:1;fill-rule:nonzero;stroke:none"
         d="m 233.945,162.266 h 49.977 v 5.976 c 0,7.668 -0.859,14.153 -2.399,19.785 -1.527,5.625 -3.746,10.227 -6.64,13.809 -2.906,3.586 -6.488,6.144 -10.41,7.852 -4.09,1.699 -8.532,2.55 -13.305,2.55 -5.453,0 -10.406,-1.015 -14.664,-3.234 -4.445,-2.227 -8.195,-5.469 -11.082,-9.383 -2.906,-4.094 -5.289,-8.867 -6.828,-14.504 -1.539,-5.625 -2.387,-11.765 -2.387,-18.418 0,-6.308 0.848,-12.273 2.387,-17.734 1.539,-5.457 3.746,-10.067 6.988,-13.992 3.074,-3.918 7,-6.985 11.766,-9.211 4.781,-2.371 10.41,-3.407 16.718,-3.407 5.465,0 10.407,0.528 14.668,1.708 4.262,1.191 7.676,2.382 10.582,3.574 v 0 l -0.859,14.843 v 0 c -2.223,-1.531 -5.113,-3.074 -8.523,-4.597 -3.586,-1.543 -7.848,-2.403 -12.961,-2.403 -8.196,0 -13.989,2.227 -17.575,6.836 -3.578,4.422 -5.453,11.082 -5.453,19.95 v 0" /><path
         id="path68"
         style="fill:#ffffff;fill-opacity:1;fill-rule:nonzero;stroke:none"
         d="m 309.895,123.555 h 17.742 v 47.07 c 0,4.434 0.511,8.184 1.535,11.426 1.023,3.242 2.387,5.801 4.09,7.851 1.703,1.875 3.75,3.411 5.972,4.434 2.219,0.852 4.426,1.359 6.989,1.359 1.027,0 2.047,0 2.902,-0.168 0.855,-0.164 1.875,-0.339 2.73,-0.515 v 0 17.058 0 c -0.347,0 -0.683,0 -0.855,0.168 -0.176,0 -0.512,0 -0.859,0 -3.239,0 -6.133,-0.332 -8.688,-1.191 -2.558,-0.852 -4.605,-2.043 -6.488,-3.586 -1.875,-1.523 -3.578,-3.242 -4.945,-5.117 -1.364,-1.864 -2.555,-3.914 -3.411,-6.145 v 0 h -0.336 v 0 c 0,0.688 0,1.723 0,3.09 -0.175,1.356 -0.175,2.891 -0.343,4.422 -0.176,1.543 -0.176,2.91 -0.176,4.269 -0.164,1.356 -0.164,2.383 -0.164,3.067 v 0 h -16.375 v 0 c 0.164,-2.559 0.336,-5.285 0.512,-8.02 0.168,-2.898 0.168,-5.789 0.168,-8.691 v 0 -70.781 0" /><path
         id="path70"
         style="fill:#ffffff;fill-opacity:1;fill-rule:nonzero;stroke:none"
         d="m 369.574,123.555 h 17.75 v 51.847 c 0,6.825 1.364,12.274 4.258,16.2 2.731,3.925 6.824,5.8 12.449,5.8 4.606,0 7.844,-1.531 10.067,-4.597 2.05,-3.078 3.07,-8.02 3.07,-14.844 v 0 -54.406 h 17.734 v 58.496 0 c 0,9.211 -2.035,16.543 -6.132,22.004 -4.098,5.457 -10.579,8.183 -19.45,8.183 -5.117,0 -9.55,-1.191 -13.468,-3.75 -3.922,-2.55 -7,-6.144 -9.211,-10.742 v 0 h -0.348 v 0 c 0,0.508 0,1.543 0,2.734 -0.172,1.192 -0.172,2.547 -0.336,3.915 -0.172,1.367 -0.172,2.734 -0.172,3.925 -0.176,1.192 -0.176,2.219 -0.176,2.727 v 0 h -16.707 v 0 c 0.164,-2.559 0.336,-5.285 0.512,-8.02 0.16,-2.898 0.16,-5.789 0.16,-8.691 v 0 -70.781 0" /><path
         id="path72"
         style="fill:#ffffff;fill-opacity:1;fill-rule:nonzero;stroke:none"
         d="m 1456.36,682.973 h 17.74 v 53.554 c 0,6.481 1.37,11.426 3.93,15.016 2.56,3.574 6.48,5.289 11.42,5.289 8.19,0 12.29,-5.461 12.29,-16.211 v 0 -57.648 h 17.73 v 53.554 0 c 0,6.481 1.37,11.426 3.93,15.016 2.56,3.574 6.47,5.289 11.42,5.289 8.19,0 12.28,-5.461 12.28,-16.211 v 0 -57.648 h 17.74 v 57.312 0 c 0,10.227 -2.05,18.074 -6.14,23.363 -4.26,5.29 -10.57,8.016 -19.1,8.016 -5.62,0 -10.24,-1.359 -13.82,-4.094 -3.57,-2.89 -6.31,-6.132 -8.52,-9.718 -0.87,1.703 -1.88,3.41 -3.07,5.113 -1.19,1.535 -2.74,3.074 -4.43,4.441 -1.71,1.192 -3.76,2.211 -5.97,3.067 -2.23,0.855 -4.95,1.191 -7.86,1.191 -5.45,0 -9.89,-1.359 -13.47,-4.094 -3.58,-2.89 -6.48,-6.308 -8.36,-10.578 v 0 h -0.34 v 0 c 0,0.524 0,1.543 0,2.906 -0.18,1.192 -0.18,2.559 -0.18,3.922 -0.16,1.368 -0.16,2.727 -0.16,3.922 -0.17,1.196 -0.17,2.223 -0.17,2.731 v 0 h -17.57 v 0 c 0.17,-2.391 0.34,-4.95 0.51,-7.68 0.17,-2.723 0.17,-5.625 0.17,-8.867 v 0 -70.953 0" /><path
         id="path74"
         style="fill:#ffffff;fill-opacity:1;fill-rule:nonzero;stroke:none"
         d="m 1364.81,682.973 h 17.74 v 43.328 h 0.33 l 29.17,-43.328 h 21.15 l -35.47,48.101 32.4,39.399 h -19.61 l -27.97,-35.477 v 75.902 h -17.74 v -127.925 0" /><path
         id="path76"
         style="fill:#ffffff;fill-opacity:1;fill-rule:nonzero;stroke:none"
         d="m 1456.36,496.508 h 17.74 v 53.551 c 0,6.48 1.37,11.429 3.93,15.015 2.56,3.578 6.48,5.289 11.42,5.289 8.19,0 12.29,-5.461 12.29,-16.207 v 0 -57.648 h 17.73 v 53.551 0 c 0,6.48 1.37,11.429 3.93,15.015 2.56,3.578 6.47,5.289 11.42,5.289 8.19,0 12.28,-5.461 12.28,-16.207 v 0 -57.648 h 17.74 v 57.312 0 c 0,10.227 -2.05,18.071 -6.14,23.36 -4.26,5.285 -10.57,8.015 -19.1,8.015 -5.62,0 -10.24,-1.363 -13.82,-4.09 -3.57,-2.898 -6.31,-6.14 -8.52,-9.722 -0.87,1.699 -1.88,3.41 -3.07,5.109 -1.19,1.539 -2.74,3.078 -4.43,4.446 -1.71,1.191 -3.76,2.21 -5.97,3.066 -2.23,0.855 -4.95,1.191 -7.86,1.191 -5.45,0 -9.89,-1.363 -13.47,-4.09 -3.58,-2.898 -6.48,-6.312 -8.36,-10.578 v 0 h -0.34 v 0 c 0,0.516 0,1.536 0,2.903 -0.18,1.187 -0.18,2.558 -0.18,3.925 -0.16,1.36 -0.16,2.727 -0.16,3.918 -0.17,1.192 -0.17,2.223 -0.17,2.731 v 0 h -17.57 v 0 c 0.17,-2.391 0.34,-4.949 0.51,-7.68 0.17,-2.719 0.17,-5.625 0.17,-8.867 v 0 -70.949 0" /><path
         id="path78"
         style="fill:#ffffff;fill-opacity:1;fill-rule:nonzero;stroke:none"
         d="m 1364.81,496.508 h 17.74 v 43.32 h 0.33 l 29.17,-43.32 h 21.15 l -35.47,48.097 32.4,39.399 h -19.61 l -27.97,-35.473 v 75.899 h -17.74 v -127.922 0" /><path
         id="path80"
         style="fill:#ffffff;fill-opacity:1;fill-rule:nonzero;stroke:none"
         d="m 1456.36,310.031 h 17.74 v 53.551 c 0,6.477 1.37,11.43 3.93,15.012 2.56,3.586 6.48,5.293 11.42,5.293 8.19,0 12.29,-5.469 12.29,-16.211 v 0 -57.645 h 17.73 v 53.551 0 c 0,6.477 1.37,11.43 3.93,15.012 2.56,3.586 6.47,5.293 11.42,5.293 8.19,0 12.28,-5.469 12.28,-16.211 v 0 -57.645 h 17.74 v 57.301 0 c 0,10.238 -2.05,18.078 -6.14,23.371 -4.26,5.285 -10.57,8.02 -19.1,8.02 -5.62,0 -10.24,-1.368 -13.82,-4.094 -3.57,-2.899 -6.31,-6.141 -8.52,-9.727 -0.87,1.7 -1.88,3.418 -3.07,5.118 -1.19,1.535 -2.74,3.078 -4.43,4.441 -1.71,1.195 -3.76,2.207 -5.97,3.07 -2.23,0.848 -4.95,1.192 -7.86,1.192 -5.45,0 -9.89,-1.368 -13.47,-4.094 -3.58,-2.899 -6.48,-6.309 -8.36,-10.586 v 0 h -0.34 v 0 c 0,0.527 0,1.543 0,2.91 -0.18,1.192 -0.18,2.559 -0.18,3.914 -0.16,1.371 -0.16,2.738 -0.16,3.926 -0.17,1.195 -0.17,2.219 -0.17,2.738 v 0 h -17.57 v 0 c 0.17,-2.394 0.34,-4.953 0.51,-7.687 0.17,-2.715 0.17,-5.625 0.17,-8.856 v 0 -70.957 0" /><path
         id="path82"
         style="fill:#ffffff;fill-opacity:1;fill-rule:nonzero;stroke:none"
         d="m 1364.81,310.031 h 17.74 v 43.321 h 0.33 l 29.17,-43.321 h 21.15 l -35.47,48.094 32.4,39.406 h -19.61 l -27.97,-35.48 v 75.902 h -17.74 v -127.922 0" /><path
         id="path84"
         style="fill:#ffffff;fill-opacity:1;fill-rule:nonzero;stroke:none"
         d="m 1456.36,123.555 h 17.74 v 53.547 c 0,6.484 1.37,11.433 3.93,15.019 2.56,3.574 6.48,5.281 11.42,5.281 8.19,0 12.29,-5.457 12.29,-16.203 v 0 -57.644 h 17.73 v 53.547 0 c 0,6.484 1.37,11.433 3.93,15.019 2.56,3.574 6.47,5.281 11.42,5.281 8.19,0 12.28,-5.457 12.28,-16.203 v 0 -57.644 h 17.74 v 57.304 0 c 0,10.235 -2.05,18.079 -6.14,23.36 -4.26,5.293 -10.57,8.019 -19.1,8.019 -5.62,0 -10.24,-1.359 -13.82,-4.093 -3.57,-2.891 -6.31,-6.133 -8.52,-9.715 -0.87,1.699 -1.88,3.406 -3.07,5.105 -1.19,1.543 -2.74,3.086 -4.43,4.445 -1.71,1.192 -3.76,2.215 -5.97,3.067 -2.23,0.859 -4.95,1.191 -7.86,1.191 -5.45,0 -9.89,-1.359 -13.47,-4.093 -3.58,-2.891 -6.48,-6.309 -8.36,-10.575 v 0 h -0.34 v 0 c 0,0.516 0,1.543 0,2.91 -0.18,1.192 -0.18,2.547 -0.18,3.915 -0.16,1.367 -0.16,2.734 -0.16,3.925 -0.17,1.192 -0.17,2.219 -0.17,2.727 v 0 h -17.57 v 0 c 0.17,-2.395 0.34,-4.953 0.51,-7.676 0.17,-2.726 0.17,-5.625 0.17,-8.867 v 0 -70.949 0" /><path
         id="path86"
         style="fill:#ffffff;fill-opacity:1;fill-rule:nonzero;stroke:none"
         d="m 1364.81,123.555 h 17.74 v 43.32 h 0.33 l 29.17,-43.32 h 21.15 l -35.47,48.097 32.4,39.395 h -19.61 l -27.97,-35.473 v 75.903 h -17.74 v -127.922 0" /><path
         id="path88"
         style="fill:#ffffff;fill-opacity:1;fill-rule:nonzero;stroke:none"
         d="m 1123.23,708.898 h 46.06 v -25.925 h 17.05 v 25.925 h 13.13 v 14.161 h -13.13 v 78.968 h -21.14 l -41.97,-76.074 v -17.055 0" /><path
         id="path90"
         style="fill:#ffffff;fill-opacity:1;fill-rule:nonzero;stroke:none"
         d="m 1211.52,686.383 c 3.58,-1.195 7.67,-2.391 12.28,-3.242 4.6,-1.012 9.38,-1.52 14.49,-1.52 5.98,0 11.44,0.844 16.38,2.371 4.95,1.707 9.03,4.098 12.62,6.996 3.59,3.071 6.3,6.825 8.19,11.09 1.87,4.258 2.9,9.039 2.9,14.5 v 0 0 0 c 0,4.426 -0.68,8.356 -1.88,11.766 -1.36,3.414 -3.07,6.133 -5.29,8.527 -2.22,2.387 -4.78,4.258 -7.67,5.625 -2.9,1.367 -5.97,2.399 -9.22,2.906 v 0 0.336 0 c 2.57,0.516 5.12,1.367 7.86,2.551 2.55,1.207 5.11,2.906 7.33,5.129 2.21,2.211 3.92,4.941 5.29,8.355 1.36,3.243 2.04,7.165 2.04,11.938 0,4.781 -0.86,9.215 -2.56,12.957 -1.88,3.766 -4.26,6.828 -7.34,9.387 -3.06,2.558 -6.64,4.433 -10.9,5.636 -4.27,1.188 -8.71,1.875 -13.65,1.875 -5.81,0 -10.93,-0.519 -15.35,-1.367 -4.61,-1.027 -8.53,-2.222 -11.94,-3.586 v 0 l 1.19,-16.203 v 0 c 3.58,1.875 7.51,3.414 11.42,4.606 3.93,1.191 7.68,1.707 10.92,1.707 5.64,0 10.41,-1.532 14.33,-4.606 3.93,-3.066 5.8,-7.5 5.8,-13.137 0,-3.574 -0.69,-6.48 -2.05,-8.863 -1.36,-2.562 -3.23,-4.441 -5.62,-6.14 -2.57,-1.539 -5.45,-2.735 -8.87,-3.414 -3.41,-0.856 -7.17,-1.192 -11.09,-1.192 v 0 h -4.95 v -14.324 0 c 1.03,0 2.39,0 4.09,0.16 1.55,0 3.59,0 5.98,0 7.16,0 12.79,-1.699 16.88,-4.941 4.1,-3.239 6.14,-8.02 6.14,-13.985 0,-3.754 -0.68,-6.992 -1.88,-9.722 -1.19,-2.731 -2.9,-4.95 -4.94,-6.653 -2.22,-1.871 -4.61,-3.238 -7.33,-4.093 -2.9,-0.86 -5.8,-1.368 -9.05,-1.368 -4.61,0 -8.86,0.684 -12.79,2.047 -3.92,1.196 -7.5,2.731 -10.57,4.274 v 0 l -1.19,-16.383 v 0" /><path
         id="path92"
         style="fill:#ffffff;fill-opacity:1;fill-rule:nonzero;stroke:none"
         d="m 1089.88,682.973 h 18.08 v 119.054 h -15.86 l -26.6,-24.218 8.86,-12.793 15.52,15.859 v -97.902 0" /><path
         id="path94"
         style="fill:#ffffff;fill-opacity:1;fill-rule:nonzero;stroke:none"
         d="m 1168.79,496.508 h 18.07 V 615.559 H 1171 l -26.61,-24.223 8.87,-12.793 15.53,15.867 v -97.902 0" /><path
         id="path96"
         style="fill:#ffffff;fill-opacity:1;fill-rule:nonzero;stroke:none"
         d="m 1202.14,522.426 h 46.04 v -25.918 h 17.06 v 25.918 h 13.14 v 14.16 h -13.14 v 78.973 h -21.15 l -41.95,-76.075 v -17.058 0" /><path
         id="path98"
         style="fill:#ffffff;fill-opacity:1;fill-rule:nonzero;stroke:none"
         d="m 1110.61,496.508 h 18.08 v 119.051 h -15.87 l -26.6,-24.223 8.87,-12.793 15.52,15.867 v -97.902 0" /><path
         id="path100"
         style="fill:#ffffff;fill-opacity:1;fill-rule:nonzero;stroke:none"
         d="m 1164.51,310.031 h 18.07 v 119.047 h -15.86 l -26.6,-24.215 8.86,-12.8 15.53,15.867 v -97.899 0" /><path
         id="path102"
         style="fill:#ffffff;fill-opacity:1;fill-rule:nonzero;stroke:none"
         d="m 1224.31,372.449 -0.35,0.176 v 0 c 0.17,5.285 0.69,10.578 1.72,15.863 1.02,5.117 2.72,9.723 5.1,13.817 2.23,4.086 5.29,7.5 8.88,10.054 3.57,2.559 8.18,3.758 13.47,3.758 3.92,0 7.51,-0.515 10.75,-1.531 3.24,-1.195 5.96,-2.387 8.19,-3.59 v 0 l 0.84,15.863 v 0 c -2.38,0.856 -5.28,1.711 -8.69,2.567 -3.58,0.844 -7.51,1.191 -12.11,1.191 -8.36,0 -15.35,-1.539 -20.98,-4.777 -5.8,-3.242 -10.4,-7.672 -13.99,-13.481 -3.59,-5.796 -6.3,-12.789 -7.84,-20.804 -1.53,-8.188 -2.39,-17.231 -2.39,-27.121 0,-8.184 0.68,-15.684 1.88,-22.508 1.19,-6.828 3.24,-12.629 6.13,-17.571 2.9,-4.949 6.65,-8.875 11.44,-11.601 4.6,-2.723 10.4,-4.082 17.39,-4.082 10.57,0 18.93,3.398 25.24,10.226 6.31,6.649 9.39,16.368 9.39,28.817 v 0 0 0 c 0,5.637 -0.68,10.754 -2.22,15.351 -1.53,4.61 -3.76,8.704 -6.48,12.122 -2.9,3.23 -6.14,5.964 -10.06,7.839 -3.93,1.875 -8.02,2.735 -12.63,2.735 -5.63,0 -10.4,-1.192 -13.98,-3.582 -3.75,-2.563 -6.65,-5.805 -8.7,-9.731 v 0" /><path
         id="path104"
         style="fill:#ffffff;fill-opacity:1;fill-rule:nonzero;stroke:none"
         d="m 1106.34,310.031 h 18.06 v 119.047 h -15.85 l -26.61,-24.215 8.87,-12.8 15.53,15.867 v -97.899 0" /><path
         id="path106"
         style="fill:#ffffff;fill-opacity:1;fill-rule:nonzero;stroke:none"
         d="m 1202.14,149.473 h 46.04 v -25.918 h 17.06 v 25.918 h 13.14 v 14.16 h -13.14 v 78.965 h -21.15 l -41.95,-76.075 v -17.05 0" /><path
         id="path108"
         style="fill:#ffffff;fill-opacity:1;fill-rule:nonzero;stroke:none"
         d="m 1129.52,123.555 h 64.98 v 15.168 h -44.68 l 4.43,4.785 v 0 c 5.29,5.789 10.41,11.765 15.18,17.91 4.6,5.965 8.71,12.109 12.28,18.074 3.58,5.977 6.32,11.77 8.37,17.571 2.04,5.632 3.06,11.082 3.06,16.199 0,4.269 -0.68,8.195 -1.87,11.945 -1.37,3.75 -3.42,6.992 -5.98,9.891 -2.72,2.726 -6.14,4.953 -10.06,6.652 -4.1,1.531 -8.86,2.391 -14.32,2.391 -5.64,0 -10.93,-0.684 -15.53,-1.875 -4.77,-1.368 -9.21,-3.075 -13.13,-5.125 v 0 l 1.88,-17.395 v 0 c 2.73,2.219 6.14,4.434 10.06,6.309 3.92,1.875 8.36,2.902 13.3,2.902 5.29,0 9.56,-1.711 12.45,-5.285 2.9,-3.582 4.44,-8.016 4.44,-13.652 0,-3.926 -0.86,-8.184 -2.56,-12.782 -1.88,-4.609 -4.26,-9.562 -7.5,-14.504 -3.25,-5.117 -7,-10.398 -11.26,-16.035 -4.43,-5.625 -9.21,-11.426 -14.5,-17.402 v 0 l -9.04,-10.399 v -15.343 0" /><path
         id="path110"
         style="fill:#007f46;fill-opacity:1;fill-rule:nonzero;stroke:none"
         d="m 141.816,511 v 39.742 h 12.957 v 0 c 3.59,0 6.493,-0.512 9.051,-1.527 11.012,-5.141 11.192,-14.61 11.082,-18.426 v 0 0 0 c 0,-5.633 -1.703,-10.414 -5.109,-14.16 C 166.383,512.879 161.266,511 154.27,511 v 0 h -12.454 v 0" /><path
         id="path112"
         style="fill:#007f46;fill-opacity:1;fill-rule:nonzero;stroke:none"
         d="m 265.102,539.316 v -7.851 c 0,-6.992 -1.539,-12.617 -4.606,-16.887 -3.238,-4.426 -7.844,-6.648 -14.164,-6.648 -4.605,0 -8.008,1.363 -10.398,3.922 -2.383,2.558 -3.582,6.14 -3.582,10.402 0,5.809 2.214,10.066 6.82,12.973 4.605,2.894 11.258,4.257 19.961,4.257 1.019,0 2.043,0 3.238,0 1.192,0 2.219,0 2.731,-0.168 v 0" /><path
         id="path114"
         style="fill:#007f46;fill-opacity:1;fill-rule:nonzero;stroke:none"
         d="m 403.73,547.328 c 0.165,8.02 1.7,14.332 4.606,18.766 2.894,4.269 6.992,6.48 12.102,6.48 10.578,0 15.867,-8.355 15.867,-25.246 v 0 H 403.73 v 0" /><path
         id="path116"
         style="fill:#007f46;fill-opacity:1;fill-rule:nonzero;stroke:none"
         d="m 141.816,564.902 v 36.496 h 11.082 v 0 c 6.657,0 11.61,-1.531 14.844,-4.773 3.242,-3.234 4.781,-7.504 4.781,-12.621 v 0 0 0 c 0,-5.637 -1.707,-10.238 -5.125,-13.813 -3.574,-3.589 -8.699,-5.289 -15.511,-5.289 v 0 h -10.071 v 0" /><path
         id="path118"
         style="fill:#007f46;fill-opacity:1;fill-rule:nonzero;stroke:none"
         d="m 243.223,352.844 v -7.852 c 0,-6.996 -1.539,-12.621 -4.606,-16.887 -3.234,-4.433 -7.84,-6.652 -14.16,-6.652 -4.605,0 -8.008,1.36 -10.402,3.918 -2.383,2.559 -3.578,6.145 -3.578,10.41 0,5.801 2.214,10.059 6.82,12.969 4.601,2.891 11.258,4.258 19.961,4.258 1.019,0 2.043,0 3.234,0 1.192,0 2.223,0 2.731,-0.164 v 0" /><path
         id="path120"
         style="fill:#007f46;fill-opacity:1;fill-rule:nonzero;stroke:none"
         d="m 507.156,352.844 v -7.852 c 0,-6.996 -1.535,-12.621 -4.601,-16.887 -3.239,-4.433 -7.844,-6.652 -14.16,-6.652 -4.606,0 -8.008,1.36 -10.407,3.918 -2.383,2.559 -3.574,6.145 -3.574,10.41 0,5.801 2.211,10.059 6.816,12.969 4.606,2.891 11.258,4.258 19.961,4.258 1.016,0 2.047,0 3.239,0 1.191,0 2.218,0 2.726,-0.164 v 0" /><path
         id="path122"
         style="fill:#007f46;fill-opacity:1;fill-rule:nonzero;stroke:none"
         d="m 755.16,360.852 c 0.168,8.015 1.703,14.336 4.606,18.765 2.894,4.27 6.992,6.477 12.109,6.477 10.57,0 15.859,-8.352 15.859,-25.242 v 0 H 755.16 v 0" /><path
         id="path124"
         style="fill:#007f46;fill-opacity:1;fill-rule:nonzero;stroke:none"
         d="m 141.816,138.047 v 39.738 h 12.957 v 0 c 3.59,0 6.493,-0.508 9.051,-1.523 2.559,-1.035 4.606,-2.403 6.309,-4.278 1.539,-1.875 2.726,-3.918 3.582,-6.3 0.844,-2.403 1.191,-4.95 1.191,-7.852 v 0 0 0 c 0,-5.633 -1.703,-10.41 -5.109,-14.16 -3.414,-3.75 -8.531,-5.625 -15.527,-5.625 v 0 h -12.454 v 0" /><path
         id="path126"
         style="fill:#007f46;fill-opacity:1;fill-rule:nonzero;stroke:none"
         d="m 233.945,174.375 c 0.164,8.02 1.7,14.324 4.606,18.762 2.894,4.265 6.992,6.484 12.101,6.484 10.578,0 15.868,-8.359 15.868,-25.246 v 0 h -32.575 v 0" /><path
         id="path128"
         style="fill:#007f46;fill-opacity:1;fill-rule:nonzero;stroke:none"
         d="m 141.816,191.945 v 36.493 h 11.082 v 0 c 6.657,0 11.61,-1.524 14.844,-4.766 3.242,-3.242 4.781,-7.508 4.781,-12.625 v 0 0 0 c 0,-5.625 -1.707,-10.234 -5.125,-13.809 -3.574,-3.586 -8.699,-5.293 -15.511,-5.293 v 0 h -10.071 v 0" /><path
         id="path130"
         style="fill:#007f46;fill-opacity:1;fill-rule:nonzero;stroke:none"
         d="m 1137.38,723.059 31.55,60.55 h 0.36 v -60.55 h -31.91 v 0" /><path
         id="path132"
         style="fill:#007f46;fill-opacity:1;fill-rule:nonzero;stroke:none"
         d="m 1216.29,536.586 31.55,60.547 h 0.34 v -60.547 h -31.89 v 0" /><path
         id="path134"
         style="fill:#007f46;fill-opacity:1;fill-rule:nonzero;stroke:none"
         d="m 1230.27,329.98 c -1.53,2.219 -2.56,4.774 -3.23,7.676 -0.68,2.903 -1.02,5.977 -1.02,9.375 0,3.242 0.34,6.496 1.19,9.383 0.68,2.902 1.7,5.461 3.24,7.688 1.37,2.207 3.07,3.918 5.28,5.285 2.22,1.187 4.61,1.875 7.5,1.875 2.91,0 5.46,-0.688 7.69,-1.875 2.21,-1.367 3.91,-3.078 5.28,-5.285 1.37,-2.227 2.39,-4.95 3.07,-7.852 0.68,-2.898 1.03,-5.977 1.03,-9.219 v 0 0 0 c 0,-3.398 -0.35,-6.472 -1.03,-9.375 -0.68,-2.902 -1.7,-5.457 -3.07,-7.676 -1.53,-2.214 -3.24,-4.101 -5.46,-5.292 -2.22,-1.192 -4.6,-1.875 -7.51,-1.875 -2.89,0 -5.45,0.683 -7.66,1.875 -2.23,1.191 -3.93,3.078 -5.3,5.292 v 0" /><path
         id="path136"
         style="fill:#007f46;fill-opacity:1;fill-rule:nonzero;stroke:none"
         d="m 1216.29,163.633 31.55,60.547 h 0.34 v -60.547 h -31.89 v 0" /></g></g></svg>