<?xml version="1.0" encoding="UTF-8" standalone="no"?>
<svg
   xmlns:dc="http://purl.org/dc/elements/1.1/"
   xmlns:cc="http://creativecommons.org/ns#"
   xmlns:rdf="http://www.w3.org/1999/02/22-rdf-syntax-ns#"
   xmlns:svg="http://www.w3.org/2000/svg"
   xmlns="http://www.w3.org/2000/svg"
   viewBox="0 0 199.56 129.72"
   height="129.72"
   width="199.56"
   xml:space="preserve"
   id="svg2"
   version="1.1"><metadata
     id="metadata8"><rdf:RDF><cc:Work
         rdf:about=""><dc:format>image/svg+xml</dc:format><dc:type
           rdf:resource="http://purl.org/dc/dcmitype/StillImage" /></cc:Work></rdf:RDF></metadata><defs
     id="defs6" /><g
     transform="matrix(1.3333333,0,0,-1.3333333,0,129.72)"
     id="g10"><g
       transform="scale(0.1)"
       id="g12"><path
         id="path14"
         style="fill:#007f46;fill-opacity:1;fill-rule:nonzero;stroke:none"
         d="M 0,0 H 1496.69 V 972.852 H 0 Z" /><path
         id="path16"
         style="fill:#ffffff;fill-opacity:1;fill-rule:nonzero;stroke:none"
         d="m 1479.69,68.0156 c 0.02,-28.1718 -22.86,-51.0351 -51.04,-51.0039 v 0 H 68.0195 v 0 C 39.8438,17.0039 16.9805,39.8633 17.0117,68.0391 v 0 836.7849 0 c -0.0195,28.176 22.8477,51.047 51.0274,51.02 v 0 H 1428.67 v 0 c 28.18,0.027 51.04,-22.844 51.02,-51.02 v 0 -836.8084 0" /><path
         id="path18"
         style="fill:#007f46;fill-opacity:1;fill-rule:nonzero;stroke:none"
         d="M 1459.28,68.0273 V 568.066 H 37.4219 V 68.0391 C 37.4063,51.1328 51.1172,37.4141 68.0234,37.4219 v 0 H 1428.67 v 0 c 16.91,-0.0196 30.62,13.6914 30.61,30.6054 v 0" /><path
         id="path20"
         style="fill:#007f46;fill-opacity:1;fill-rule:nonzero;stroke:none"
         d="M 1459.28,588.477 H 37.4219 v 316.347 c -0.0156,16.903 13.707,30.625 30.6172,30.61 v 0 H 1428.67 v 0 c 16.91,0.015 30.63,-13.707 30.61,-30.61 v 0 -316.347 0" /><path
         id="path22"
         style="fill:#ffffff;fill-opacity:1;fill-rule:nonzero;stroke:none"
         d="m 122.074,766.008 c -5.183,-6.043 0.465,-15.172 8.176,-13.238 v 0 l 71.27,17.82 -8.165,-118.379 h 61.231 l -8.164,118.379 71.262,-17.82 v 0 c 7.714,-1.934 13.363,7.195 8.179,13.238 v 0 l -95.691,111.637 v 0 c -3.258,3.804 -9.149,3.804 -12.399,0 v 0 L 122.074,766.008 v 0" /><path
         id="path24"
         style="fill:#ffffff;fill-opacity:1;fill-rule:nonzero;stroke:none"
         d="m 181.957,421.367 c -7.812,1.477 -12.898,-7.98 -7.371,-13.691 v 0 l 51.066,-52.813 -106.597,-52.117 30.613,-53.027 98.434,66.258 20.203,-70.625 v 0 c 2.179,-7.645 12.91,-7.969 15.547,-0.469 v 0 l 48.839,138.691 v 0 c 1.668,4.727 -1.273,9.824 -6.191,10.742 v 0 l -144.543,27.051 v 0" /><path
         id="path26"
         style="fill:#ffffff;fill-opacity:1;fill-rule:nonzero;stroke:none"
         d="m 581.117,690.527 h 19.281 v 0 c -0.207,1.848 -0.617,4.516 -0.828,7.586 -0.207,3.082 -0.414,6.364 -0.414,9.856 v 0 50.301 0 c 0,6.988 -0.609,12.738 -2.035,17.257 -1.437,4.508 -3.703,8.203 -6.367,11.289 -2.246,2.664 -5.949,5.122 -10.859,7.387 -4.93,2.055 -11.293,3.078 -19.29,3.078 -6.761,0 -12.718,-0.82 -17.839,-2.461 -5.125,-1.644 -9.844,-3.492 -13.739,-5.75 v 0 l 1.633,-18.273 v 0 c 2.672,2.672 6.567,5.137 11.688,7.387 4.925,2.054 10.257,3.086 16.207,3.086 7.59,0 12.922,-2.055 16.207,-6.165 1.633,-2.042 2.867,-4.308 3.48,-6.769 0.621,-2.672 0.824,-5.547 0.824,-8.828 v 0 -4.313 h -7.589 v 0 c -17.024,0 -30.149,-2.875 -38.965,-8.429 -8.817,-5.743 -13.328,-14.774 -13.328,-27.098 0,-4.918 0.812,-9.238 2.457,-13.137 1.64,-3.902 3.898,-6.976 6.773,-9.648 2.66,-2.672 5.941,-4.508 9.633,-5.746 3.691,-1.426 7.582,-2.051 11.894,-2.051 7.793,0 13.946,1.637 18.661,4.918 4.511,3.086 8.207,6.781 10.871,10.887 v 0 h 0.422 v 0 c 0,-0.61 0,-1.645 0.195,-3.086 0,-1.422 0,-2.864 0.207,-4.301 0.207,-1.441 0.207,-2.883 0.406,-4.109 0.207,-1.438 0.207,-2.258 0.414,-2.868 v 0" /><path
         id="path28"
         style="fill:#ffffff;fill-opacity:1;fill-rule:nonzero;stroke:none"
         d="m 691.676,690.527 h 20.097 v 0 c -0.203,3.071 -0.406,6.356 -0.617,9.856 -0.199,3.285 -0.199,6.765 -0.199,10.258 v 0 85.203 h -21.332 v -61.793 0 c 0,-8.215 -1.648,-14.789 -4.727,-19.707 -3.066,-4.93 -8.203,-7.395 -14.96,-7.395 -5.54,0 -9.438,1.852 -12.106,5.535 -2.672,3.704 -4.105,9.653 -4.105,17.864 v 0 65.496 h -21.325 v -70.414 0 c 0,-11.086 2.461,-19.922 7.379,-26.489 4.926,-6.566 12.719,-9.855 23.379,-9.855 7.184,0 12.918,1.637 17.231,5.125 4.101,3.293 7.386,7.394 10.058,12.32 v 0 h 0.406 l 0.821,-16.004 v 0" /><path
         id="path30"
         style="fill:#ffffff;fill-opacity:1;fill-rule:nonzero;stroke:none"
         d="m 745.168,694.621 c 3.27,-1.437 7.367,-2.867 12.5,-3.898 4.922,-1.012 10.457,-1.637 16.402,-1.637 11.899,0 20.918,2.871 27.278,8.824 6.152,5.953 9.238,13.555 9.238,22.996 v 0 0 0 c 0,6.364 -1.856,11.496 -5.332,15.395 -3.699,3.906 -8.613,7.808 -14.981,11.293 v 0 l -9.226,5.129 v 0 c -4.719,2.668 -8.203,4.933 -10.871,7.195 -2.664,2.059 -3.899,4.926 -3.899,8.418 0,3.691 1.235,6.769 3.899,9.027 2.668,2.262 6.562,3.285 11.894,3.285 4.309,0 8.407,-0.41 11.895,-1.23 3.488,-1.02 6.765,-2.055 9.637,-3.281 v 0 l 1.027,17.246 v 0 c -2.246,0.82 -5.332,1.652 -9.434,2.672 -4.304,0.82 -9.226,1.226 -14.765,1.226 -5.332,0 -10.059,-0.82 -14.356,-2.461 -4.316,-1.644 -7.996,-3.898 -11.074,-6.566 -3.082,-2.879 -5.531,-6.164 -7.184,-9.656 -1.632,-3.696 -2.457,-7.59 -2.457,-11.489 0,-3.707 0.618,-6.992 1.645,-9.859 1.019,-2.875 2.465,-5.336 4.305,-7.602 1.836,-2.257 3.898,-4.105 6.55,-5.746 2.668,-1.836 5.559,-3.492 8.829,-5.132 v 0 l 11.078,-5.547 v 0 c 4.714,-2.254 7.996,-4.715 9.839,-7.184 1.645,-2.453 2.461,-5.133 2.461,-7.797 0,-4.109 -1.636,-7.195 -4.921,-9.238 -3.282,-2.262 -7.793,-3.289 -13.329,-3.289 -5.128,0 -10.058,0.816 -14.355,2.664 -4.316,1.644 -7.992,3.297 -11.07,4.723 v 0 l -1.223,-18.481 v 0" /><path
         id="path32"
         style="fill:#ffffff;fill-opacity:1;fill-rule:nonzero;stroke:none"
         d="m 898.469,690.527 h 19.285 v 0 c -0.203,1.848 -0.613,4.516 -0.82,7.586 -0.207,3.082 -0.418,6.364 -0.418,9.856 v 0 50.301 0 c 0,6.988 -0.618,12.738 -2.043,17.257 -1.434,4.508 -3.703,8.203 -6.36,11.289 -2.254,2.664 -5.953,5.122 -10.879,7.387 -4.91,2.055 -11.265,3.078 -19.265,3.078 -6.778,0 -12.723,-0.82 -17.852,-2.461 -5.129,-1.644 -9.844,-3.492 -13.738,-5.75 v 0 l 1.648,-18.273 v 0 c 2.657,2.672 6.555,5.137 11.68,7.387 4.922,2.054 10.254,3.086 16.203,3.086 7.586,0 12.918,-2.055 16.199,-6.165 1.641,-2.042 2.879,-4.308 3.489,-6.769 0.625,-2.672 0.82,-5.547 0.82,-8.828 v 0 -4.313 h -7.59 v 0 c -17.019,0 -30.144,-2.875 -38.965,-8.429 -8.808,-5.743 -13.32,-14.774 -13.32,-27.098 0,-4.918 0.809,-9.238 2.453,-13.137 1.641,-3.902 3.895,-6.976 6.774,-9.648 2.668,-2.672 5.941,-4.508 9.628,-5.746 3.696,-1.426 7.59,-2.051 11.899,-2.051 7.793,0 13.941,1.637 18.672,4.918 4.508,3.086 8.191,6.781 10.859,10.887 v 0 h 0.406 v 0 c 0,-0.61 0,-1.645 0.207,-3.086 0,-1.422 0,-2.864 0.204,-4.301 0.214,-1.441 0.214,-2.883 0.414,-4.109 0.203,-1.438 0.203,-2.258 0.41,-2.868 v 0" /><path
         id="path34"
         style="fill:#ffffff;fill-opacity:1;fill-rule:nonzero;stroke:none"
         d="m 951.934,690.527 h 21.336 v 62.403 c 0,8.218 1.644,14.793 5.121,19.511 3.281,4.727 8.211,6.977 14.988,6.977 5.527,0 9.411,-1.844 12.081,-5.535 2.47,-3.703 3.7,-9.66 3.7,-17.86 v 0 -65.496 h 21.32 v 70.411 0 c 0,11.089 -2.45,19.917 -7.37,26.492 -4.93,6.566 -12.72,9.851 -23.383,9.851 -6.164,0 -11.497,-1.437 -16.211,-4.511 -4.707,-3.075 -8.411,-7.395 -11.063,-12.934 v 0 h -0.41 v 0 c 0,0.613 0,1.848 0,3.285 -0.207,1.43 -0.207,3.074 -0.422,4.715 -0.203,1.644 -0.203,3.289 -0.203,4.727 -0.207,1.433 -0.207,2.671 -0.207,3.281 v 0 h -20.086 v 0 c 0.191,-3.074 0.41,-6.364 0.613,-9.649 0.196,-3.488 0.196,-6.98 0.196,-10.465 v 0 -85.203 0" /><path
         id="path36"
         style="fill:#ffffff;fill-opacity:1;fill-rule:nonzero;stroke:none"
         d="m 1065.74,690.527 h 21.33 v 62.403 c 0,8.218 1.64,14.793 5.13,19.511 3.28,4.727 8.21,6.977 14.97,6.977 5.54,0 9.43,-1.844 12.1,-5.535 2.47,-3.703 3.69,-9.66 3.69,-17.86 v 0 -65.496 h 21.33 v 70.411 0 c 0,11.089 -2.46,19.917 -7.38,26.492 -4.93,6.566 -12.72,9.851 -23.39,9.851 -6.14,0 -11.48,-1.437 -16.2,-4.511 -4.71,-3.075 -8.4,-7.395 -11.08,-12.934 v 0 h -0.4 v 0 c 0,0.613 0,1.848 0,3.285 -0.2,1.43 -0.2,3.074 -0.42,4.715 -0.19,1.644 -0.19,3.289 -0.19,4.727 -0.21,1.433 -0.21,2.671 -0.21,3.281 v 0 h -20.1 v 0 c 0.2,-3.074 0.4,-6.364 0.63,-9.649 0.19,-3.488 0.19,-6.98 0.19,-10.465 v 0 -85.203 0" /><path
         id="path38"
         style="fill:#ffffff;fill-opacity:1;fill-rule:nonzero;stroke:none"
         d="m 1194.62,737.125 h 60.09 v 7.18 c 0,9.25 -1.02,17.039 -2.86,23.824 -1.85,6.773 -4.53,12.32 -8,16.633 -3.5,4.308 -7.8,7.394 -12.51,9.441 -4.93,2.055 -10.27,3.078 -16,3.078 -6.56,0 -12.51,-1.226 -17.63,-3.898 -5.35,-2.668 -9.86,-6.567 -13.35,-11.293 -3.47,-4.922 -6.35,-10.68 -8.2,-17.453 -1.84,-6.77 -2.86,-14.164 -2.86,-22.168 0,-7.606 1.02,-14.793 2.86,-21.36 1.85,-6.562 4.52,-12.105 8.41,-16.828 3.69,-4.726 8.41,-8.426 14.16,-11.097 5.73,-2.856 12.51,-4.098 20.09,-4.098 6.57,0 12.52,0.625 17.64,2.051 5.13,1.437 9.23,2.867 12.71,4.312 v 0 l -1.02,17.856 v 0 c -2.66,-1.84 -6.15,-3.684 -10.25,-5.547 -4.31,-1.836 -9.43,-2.867 -15.6,-2.867 -9.84,0 -16.81,2.668 -21.12,8.211 -4.29,5.339 -6.56,13.347 -6.56,24.023 v 0" /><path
         id="path40"
         style="fill:#ffffff;fill-opacity:1;fill-rule:nonzero;stroke:none"
         d="m 435.395,690.527 h 69.113 v 18.274 h -46.969 v 125.027 h -22.144 v -143.301 0" /><path
         id="path42"
         style="fill:#ffffff;fill-opacity:1;fill-rule:nonzero;stroke:none"
         d="m 435.395,323.164 h 38.964 v 0 c 7.18,0 13.532,1.016 19.079,3.074 5.531,1.848 10.039,4.731 13.945,8.203 3.894,3.497 6.758,7.817 8.812,12.735 1.844,4.719 2.875,10.058 2.875,15.801 v 0 0 0 c 0,5.558 -0.828,10.285 -2.257,14.589 -1.637,4.106 -3.692,7.602 -6.145,10.461 -2.668,2.676 -5.551,4.942 -8.617,6.582 -3.281,1.641 -6.563,2.664 -9.848,3.289 v 0 0.403 0 c 3.074,1.023 5.949,2.265 8.813,4.113 2.672,1.637 5.132,3.688 7.386,6.363 2.266,2.668 3.899,5.743 5.332,9.446 1.442,3.488 2.059,7.8 2.059,12.523 0,11.5 -3.289,20.324 -9.848,26.481 -6.769,6.16 -17.234,9.238 -31.586,9.238 v 0 h -38.964 v -143.301 0" /><path
         id="path44"
         style="fill:#ffffff;fill-opacity:1;fill-rule:nonzero;stroke:none"
         d="m 567.895,369.766 h 60.093 v 7.175 c 0,9.25 -1.019,17.043 -2.871,23.821 -1.847,6.777 -4.515,12.324 -7.988,16.64 -3.492,4.309 -7.793,7.395 -12.508,9.442 -4.937,2.051 -10.269,3.074 -16.008,3.074 -6.562,0 -12.504,-1.23 -17.633,-3.895 -5.339,-2.675 -9.855,-6.57 -13.328,-11.296 -3.492,-4.922 -6.367,-10.676 -8.211,-17.454 -1.847,-6.773 -2.871,-14.16 -2.871,-22.168 0,-7.605 1.024,-14.792 2.871,-21.355 1.844,-6.574 4.516,-12.109 8.407,-16.836 3.699,-4.726 8.418,-8.43 14.156,-11.094 5.734,-2.859 12.508,-4.093 20.105,-4.093 6.555,0 12.512,0.625 17.633,2.043 5.121,1.445 9.227,2.871 12.719,4.316 v 0 l -1.031,17.859 v 0 c -2.668,-1.843 -6.153,-3.687 -10.254,-5.547 -4.313,-1.843 -9.438,-2.871 -15.594,-2.871 -9.844,0 -16.809,2.68 -21.117,8.215 -4.305,5.332 -6.57,13.352 -6.57,24.024 v 0" /><path
         id="path46"
         style="fill:#ffffff;fill-opacity:1;fill-rule:nonzero;stroke:none"
         d="m 659.215,323.164 h 21.332 v 56.66 c 0,5.344 0.621,9.852 1.848,13.75 1.23,3.906 2.871,6.992 4.925,9.453 2.043,2.246 4.512,4.11 7.176,5.344 2.664,1.012 5.332,1.629 8.41,1.629 1.227,0 2.453,0 3.481,-0.195 1.031,-0.207 2.258,-0.422 3.285,-0.625 v 0 20.527 0 c -0.402,0 -0.824,0 -1.027,0.211 -0.204,0 -0.618,0 -1.024,0 -3.894,0 -7.387,-0.41 -10.461,-1.438 -3.066,-1.031 -5.539,-2.457 -7.797,-4.308 -2.254,-1.836 -4.308,-3.899 -5.941,-6.164 -1.641,-2.254 -3.086,-4.727 -4.106,-7.395 v 0 h -0.41 v 0 c 0,0.832 0,2.063 0,3.703 -0.199,1.641 -0.199,3.485 -0.41,5.34 -0.203,1.848 -0.203,3.489 -0.203,5.141 -0.203,1.629 -0.203,2.871 -0.203,3.683 v 0 h -19.688 v 0 c 0.196,-3.07 0.407,-6.359 0.614,-9.652 0.199,-3.484 0.199,-6.973 0.199,-10.457 v 0 -85.207 0" /><path
         id="path48"
         style="fill:#ffffff;fill-opacity:1;fill-rule:nonzero;stroke:none"
         d="m 730.984,323.164 h 21.336 v 62.402 c 0,8.223 1.657,14.793 5.121,19.512 3.282,4.727 8.204,6.981 14.981,6.981 5.527,0 9.426,-1.852 12.098,-5.536 2.46,-3.703 3.695,-9.66 3.695,-17.859 v 0 -65.5 h 21.328 v 70.41 0 c 0,11.082 -2.461,19.922 -7.375,26.492 -4.934,6.567 -12.727,9.852 -23.398,9.852 -6.141,0 -11.473,-1.438 -16.192,-4.508 -4.726,-3.074 -8.406,-7.402 -11.082,-12.941 v 0 h -0.406 v 0 c 0,0.617 0,1.847 0,3.285 -0.207,1.434 -0.207,3.074 -0.414,4.715 -0.199,1.652 -0.199,3.289 -0.199,4.738 -0.207,1.426 -0.207,2.664 -0.207,3.273 v 0 h -20.098 v 0 c 0.199,-3.07 0.41,-6.359 0.613,-9.652 0.199,-3.484 0.199,-6.973 0.199,-10.457 v 0 -85.207 0" /><path
         id="path50"
         style="fill:#ffffff;fill-opacity:1;fill-rule:nonzero;stroke:none"
         d="m 778.379,138.535 c 2.898,-5.48 6.66,-9.758 11.269,-12.832 4.61,-3.086 10.098,-4.601 16.758,-4.601 6.672,0 12.305,1.515 16.914,4.769 4.618,3.086 8.379,7.359 11.282,12.828 2.918,5.489 4.957,11.985 6.16,19.348 1.203,7.344 1.883,15.379 1.883,24.109 v 0 0 0 c 0,8.731 -0.68,16.77 -1.883,24.309 -1.203,7.351 -3.242,13.855 -6.16,19.328 -2.903,5.477 -6.664,9.762 -11.282,13.008 -4.609,3.074 -10.242,4.605 -16.914,4.605 -6.66,0 -12.304,-1.531 -16.914,-4.605 -4.617,-3.246 -8.215,-7.531 -11.113,-13.008 -2.91,-5.473 -4.949,-11.977 -6.152,-19.328 -1.204,-7.539 -1.875,-15.578 -1.875,-24.309 0,-8.73 0.671,-16.765 1.875,-24.109 1.203,-7.539 3.242,-14.035 6.152,-19.512 v 0" /><path
         id="path52"
         style="fill:#ffffff;fill-opacity:1;fill-rule:nonzero;stroke:none"
         d="m 871.008,138.535 c 2.91,-5.48 6.668,-9.758 11.277,-12.832 4.617,-3.086 10.09,-4.601 16.758,-4.601 6.672,0 12.305,1.515 16.914,4.769 4.609,3.086 8.379,7.359 11.289,12.828 2.899,5.489 4.949,11.985 6.145,19.348 1.199,7.344 1.882,15.379 1.882,24.109 v 0 0 0 c 0,8.731 -0.683,16.77 -1.882,24.309 -1.196,7.351 -3.246,13.855 -6.145,19.328 -2.91,5.477 -6.68,9.762 -11.289,13.008 -4.609,3.074 -10.242,4.605 -16.914,4.605 -6.668,0 -12.305,-1.531 -16.922,-4.605 -4.609,-3.246 -8.203,-7.531 -11.113,-13.008 -2.895,-5.473 -4.953,-11.977 -6.145,-19.328 -1.199,-7.539 -1.875,-15.578 -1.875,-24.309 0,-8.73 0.676,-16.765 1.875,-24.109 1.192,-7.539 3.25,-14.035 6.145,-19.512 v 0" /><path
         id="path54"
         style="fill:#ffffff;fill-opacity:1;fill-rule:nonzero;stroke:none"
         d="m 963.645,138.535 c 2.91,-5.48 6.668,-9.758 11.277,-12.832 4.621,-3.086 10.09,-4.601 16.758,-4.601 6.66,0 12.3,1.515 16.91,4.769 4.62,3.086 8.38,7.359 11.29,12.828 2.91,5.489 4.96,11.985 6.16,19.348 1.19,7.344 1.86,15.379 1.86,24.109 v 0 0 0 c 0,8.731 -0.67,16.77 -1.86,24.309 -1.2,7.351 -3.25,13.855 -6.16,19.328 -2.91,5.477 -6.67,9.762 -11.29,13.008 -4.61,3.074 -10.25,4.605 -16.91,4.605 -6.668,0 -12.305,-1.531 -16.914,-4.605 -4.621,-3.246 -8.211,-7.531 -11.121,-13.008 -2.903,-5.473 -4.954,-11.977 -6.145,-19.328 -1.211,-7.539 -1.887,-15.578 -1.887,-24.309 0,-8.73 0.676,-16.765 1.887,-24.109 1.191,-7.539 3.242,-14.035 6.145,-19.512 v 0" /><path
         id="path56"
         style="fill:#ffffff;fill-opacity:1;fill-rule:nonzero;stroke:none"
         d="m 1137.15,122.461 h 17.78 v 53.711 c 0,6.504 1.37,11.465 3.93,15.066 2.56,3.586 6.49,5.305 11.45,5.305 8.21,0 12.31,-5.48 12.31,-16.262 v 0 -57.82 h 17.78 v 53.711 0 c 0,6.504 1.36,11.465 3.92,15.066 2.57,3.586 6.49,5.305 11.45,5.305 8.21,0 12.31,-5.48 12.31,-16.262 v 0 -57.82 h 17.77 v 57.488 0 c 0,10.258 -2.05,18.117 -6.15,23.43 -4.27,5.301 -10.61,8.039 -19.15,8.039 -5.63,0 -10.25,-1.367 -13.84,-4.113 -3.58,-2.903 -6.31,-6.153 -8.55,-9.746 -0.85,1.718 -1.87,3.425 -3.07,5.136 -1.2,1.543 -2.74,3.086 -4.45,4.453 -1.71,1.2 -3.75,2.215 -5.97,3.075 -2.23,0.863 -4.96,1.195 -7.87,1.195 -5.46,0 -9.91,-1.367 -13.5,-4.113 -3.59,-2.903 -6.49,-6.321 -8.37,-10.594 v 0 h -0.35 v 0 c 0,0.516 0,1.531 0,2.91 -0.17,1.188 -0.17,2.567 -0.17,3.926 -0.16,1.375 -0.16,2.742 -0.16,3.941 -0.18,1.192 -0.18,2.219 -0.18,2.735 v 0 h -17.59 v 0 c 0.16,-2.403 0.34,-4.961 0.5,-7.703 0.17,-2.723 0.17,-5.637 0.17,-8.887 v 0 -71.172 0" /><path
         id="path58"
         style="fill:#ffffff;fill-opacity:1;fill-rule:nonzero;stroke:none"
         d="m 726.863,122.461 h 18.114 v 119.414 h -15.899 l -26.656,-24.297 8.883,-12.832 15.558,15.906 v -98.191 0" /><path
         id="path60"
         style="fill:#007f46;fill-opacity:1;fill-rule:nonzero;stroke:none"
         d="m 579.066,742.066 v -9.453 c 0,-8.418 -1.847,-15.195 -5.546,-20.328 -3.895,-5.336 -9.422,-8.004 -17.02,-8.004 -5.539,0 -9.629,1.641 -12.504,4.723 -2.871,3.078 -4.316,7.379 -4.316,12.519 0,6.985 2.668,12.106 8.207,15.602 5.547,3.488 13.547,5.137 24.004,5.137 1.222,0 2.461,0 3.894,0 1.434,0 2.66,0 3.281,-0.196 v 0" /><path
         id="path62"
         style="fill:#007f46;fill-opacity:1;fill-rule:nonzero;stroke:none"
         d="m 896.418,742.066 v -9.453 c 0,-8.418 -1.848,-15.195 -5.539,-20.328 -3.899,-5.336 -9.434,-8.004 -17.012,-8.004 -5.547,0 -9.64,1.641 -12.512,4.723 -2.878,3.078 -4.312,7.379 -4.312,12.519 0,6.985 2.664,12.106 8.203,15.602 5.535,3.488 13.543,5.137 23.992,5.137 1.239,0 2.461,0 3.907,0 1.425,0 2.664,0 3.273,-0.196 v 0" /><path
         id="path64"
         style="fill:#007f46;fill-opacity:1;fill-rule:nonzero;stroke:none"
         d="m 1194.62,751.703 c 0.22,9.641 2.05,17.246 5.54,22.586 3.49,5.129 8.41,7.801 14.56,7.801 12.71,0 19.08,-10.063 19.08,-30.387 v 0 h -39.18 v 0" /><path
         id="path66"
         style="fill:#007f46;fill-opacity:1;fill-rule:nonzero;stroke:none"
         d="m 457.133,340.605 v 47.84 h 15.586 v 0 c 4.312,0 7.793,-0.613 10.871,-1.836 3.074,-1.25 5.535,-2.879 7.582,-5.144 1.848,-2.254 3.285,-4.715 4.316,-7.598 1.016,-2.871 1.422,-5.945 1.422,-9.441 v 0 0 0 c 0,-6.781 -2.035,-12.531 -6.144,-17.043 -4.102,-4.512 -10.254,-6.778 -18.661,-6.778 v 0 h -14.972 v 0" /><path
         id="path68"
         style="fill:#007f46;fill-opacity:1;fill-rule:nonzero;stroke:none"
         d="m 567.895,384.344 c 0.21,9.64 2.05,17.238 5.543,22.582 3.492,5.133 8.41,7.801 14.566,7.801 12.719,0 19.066,-10.071 19.066,-30.383 v 0 h -39.175 v 0" /><path
         id="path70"
         style="fill:#007f46;fill-opacity:1;fill-rule:nonzero;stroke:none"
         d="m 457.133,405.488 v 43.942 h 13.32 v 0 c 8.004,0 13.945,-1.852 17.844,-5.758 3.906,-3.899 5.758,-9.027 5.758,-15.192 v 0 0 0 c 0,-6.769 -2.063,-12.316 -6.164,-16.625 -4.301,-4.316 -10.453,-6.367 -18.664,-6.367 v 0 h -12.094 v 0" /><path
         id="path72"
         style="fill:#007f46;fill-opacity:1;fill-rule:nonzero;stroke:none"
         d="m 792.395,147.598 c -2.571,8.035 -3.938,19.675 -3.938,34.558 0,14.895 1.367,26.524 3.938,34.739 2.566,8.21 7.351,12.316 14.011,12.316 6.836,0 11.614,-4.106 14.18,-12.141 2.566,-8.215 3.945,-19.843 3.945,-34.914 v 0 0 0 c 0,-14.883 -1.379,-26.523 -3.945,-34.558 -2.727,-8.203 -7.508,-12.317 -14.18,-12.317 -6.66,0 -11.445,4.114 -14.011,12.317 v 0" /><path
         id="path74"
         style="fill:#007f46;fill-opacity:1;fill-rule:nonzero;stroke:none"
         d="m 885.027,147.598 c -2.566,8.035 -3.933,19.675 -3.933,34.558 0,14.895 1.367,26.524 3.933,34.739 2.563,8.21 7.348,12.316 14.016,12.316 6.848,0 11.621,-4.106 14.18,-12.141 2.57,-8.215 3.937,-19.843 3.937,-34.914 v 0 0 0 c 0,-14.883 -1.367,-26.523 -3.937,-34.558 -2.723,-8.203 -7.508,-12.317 -14.18,-12.317 -6.668,0 -11.453,4.114 -14.016,12.317 v 0" /><path
         id="path76"
         style="fill:#007f46;fill-opacity:1;fill-rule:nonzero;stroke:none"
         d="m 977.656,147.598 c -2.558,8.035 -3.926,19.675 -3.926,34.558 0,14.895 1.368,26.524 3.926,34.739 2.571,8.21 7.356,12.316 14.024,12.316 6.836,0 11.61,-4.106 14.18,-12.141 2.57,-8.215 3.94,-19.843 3.94,-34.914 v 0 0 0 c 0,-14.883 -1.37,-26.523 -3.94,-34.558 -2.73,-8.203 -7.52,-12.317 -14.18,-12.317 -6.668,0 -11.453,4.114 -14.024,12.317 v 0" /></g></g></svg>