<?xml version="1.0" encoding="UTF-8" standalone="no"?>
<svg
   xmlns:dc="http://purl.org/dc/elements/1.1/"
   xmlns:cc="http://creativecommons.org/ns#"
   xmlns:rdf="http://www.w3.org/1999/02/22-rdf-syntax-ns#"
   xmlns:svg="http://www.w3.org/2000/svg"
   xmlns="http://www.w3.org/2000/svg"
   viewBox="0 0 158.73334 147.67999"
   height="147.67999"
   width="158.73334"
   xml:space="preserve"
   id="svg2"
   version="1.1"><metadata
     id="metadata8"><rdf:RDF><cc:Work
         rdf:about=""><dc:format>image/svg+xml</dc:format><dc:type
           rdf:resource="http://purl.org/dc/dcmitype/StillImage" /></cc:Work></rdf:RDF></metadata><defs
     id="defs6" /><g
     transform="matrix(1.3333333,0,0,-1.3333333,0,147.68)"
     id="g10"><g
       transform="scale(0.1)"
       id="g12"><path
         id="path14"
         style="fill:#007f46;fill-opacity:1;fill-rule:nonzero;stroke:none"
         d="M 0,0 H 1190.55 V 1107.55 H 0 Z" /><path
         id="path16"
         style="fill:#ffffff;fill-opacity:1;fill-rule:nonzero;stroke:none"
         d="M 64.6289,13.6133 C 36.4492,13.6055 13.5781,36.4766 13.6094,64.6484 v 0 978.2816 0 c -0.0235,28.18 22.8398,51.05 51.0195,51.03 v 0 H 1125.93 v 0 c 28.18,0.02 51.04,-22.85 51.02,-51.03 v 0 -978.2894 0 c 0.01,-28.1758 -22.84,-51.0547 -51.02,-51.0273 v 0 H 64.6289 v 0" /><path
         id="path18"
         style="fill:#007f46;fill-opacity:1;fill-rule:nonzero;stroke:none"
         d="M 64.6289,30.625 H 1125.93 v 0 c 18.79,-0.0195 34.02,15.2148 34.02,34.0039 v 0 978.3011 0 c 0.01,18.79 -15.23,34.03 -34.02,34.02 v 0 H 64.6289 v 0 c -18.7851,0.01 -34.0273,-15.23 -34.0117,-34.02 v 0 -978.2894 0 C 30.5977,45.8594 45.8438,30.6172 64.6289,30.625 v 0" /><path
         id="path20"
         style="fill:#ffffff;fill-opacity:1;fill-rule:nonzero;stroke:none"
         d="M 623.859,284.387 H 566.703 V 206.828 L 469.902,227.5 v 0 c -8.082,1.77 -13.363,-8.242 -7.339,-13.914 v 0 L 595.277,88.4492 728.613,214.16 v 0 c 6.035,5.676 0.742,15.695 -7.343,13.918 v 0 l -97.411,-21.25 v 77.559 0" /><path
         id="path22"
         style="fill:#ffffff;fill-opacity:1;fill-rule:nonzero;stroke:none"
         d="m 312.949,366.016 h 564.66 v 251.719 h -564.66 z" /><path
         id="path24"
         style="fill:#ffffff;fill-opacity:1;fill-rule:nonzero;stroke:none"
         d="m 484.449,872.84 h 16.707 v 0 c -0.16,2.562 -0.336,5.281 -0.508,8.18 -0.168,2.734 -0.168,5.64 -0.168,8.531 v 0 70.789 H 482.738 V 909 v 0 c 0,-6.828 -1.367,-12.285 -3.925,-16.375 -2.551,-4.094 -6.809,-6.141 -12.446,-6.141 -4.605,0 -7.847,1.528 -10.066,4.606 -2.215,3.066 -3.406,8.015 -3.406,14.832 v 0 54.418 h -17.739 v -58.504 0 c 0,-9.211 2.043,-16.543 6.137,-22.008 4.094,-5.457 10.578,-8.176 19.449,-8.176 5.973,0 10.738,1.356 14.328,4.258 3.41,2.727 6.141,6.141 8.352,10.227 v 0 h 0.344 l 0.683,-13.297 v 0" /><path
         id="path26"
         style="fill:#ffffff;fill-opacity:1;fill-rule:nonzero;stroke:none"
         d="m 526.461,872.84 h 57.816 v 14.152 h -39.57 l 38.539,57.824 v 15.524 h -55.594 v -14.164 h 37.696 l -38.887,-57.645 v -15.691 0" /><path
         id="path28"
         style="fill:#ffffff;fill-opacity:1;fill-rule:nonzero;stroke:none"
         d="m 622.422,911.559 h 49.973 v 5.972 c 0,7.668 -0.852,14.149 -2.395,19.785 -1.523,5.625 -3.75,10.223 -6.641,13.813 -2.898,3.574 -6.492,6.141 -10.41,7.848 -4.09,1.695 -8.523,2.558 -13.301,2.558 -5.457,0 -10.41,-1.023 -14.668,-3.246 -4.441,-2.219 -8.191,-5.457 -11.082,-9.383 -2.902,-4.09 -5.293,-8.863 -6.828,-14.496 -1.543,-5.625 -2.382,-11.769 -2.382,-18.422 0,-6.304 0.839,-12.277 2.382,-17.738 1.535,-5.457 3.75,-10.066 6.993,-13.988 3.078,-3.922 7.003,-6.992 11.769,-9.207 4.773,-2.379 10.41,-3.403 16.719,-3.403 5.457,0 10.398,0.516 14.668,1.703 4.258,1.192 7.676,2.383 10.574,3.575 v 0 l -0.848,14.843 v 0 c -2.226,-1.539 -5.117,-3.078 -8.535,-4.609 -3.586,-1.535 -7.844,-2.394 -12.961,-2.394 -8.191,0 -13.992,2.222 -17.578,6.828 -3.574,4.433 -5.449,11.082 -5.449,19.961 v 0" /><path
         id="path30"
         style="fill:#ffffff;fill-opacity:1;fill-rule:nonzero;stroke:none"
         d="m 698.367,872.84 h 17.758 v 47.074 c 0,4.434 0.508,8.188 1.523,11.43 1.024,3.242 2.391,5.797 4.09,7.84 1.711,1.882 3.75,3.418 5.977,4.433 2.219,0.86 4.433,1.367 6.992,1.367 1.027,0 2.043,0 2.891,-0.168 0.859,-0.168 1.886,-0.339 2.734,-0.515 v 0 17.058 0 c -0.34,0 -0.684,0 -0.848,0.176 -0.175,0 -0.507,0 -0.859,0 -3.242,0 -6.133,-0.344 -8.691,-1.195 -2.559,-0.856 -4.61,-2.051 -6.485,-3.586 -1.875,-1.527 -3.586,-3.242 -4.941,-5.113 -1.367,-1.875 -2.559,-3.926 -3.418,-6.149 v 0 h -0.344 v 0 c 0,0.684 0,1.715 0,3.078 -0.164,1.368 -0.164,2.895 -0.34,4.434 -0.176,1.535 -0.176,2.898 -0.176,4.266 -0.156,1.359 -0.156,2.382 -0.156,3.07 v 0 h -16.379 v 0 c 0.168,-2.555 0.344,-5.293 0.508,-8.02 0.164,-2.902 0.164,-5.797 0.164,-8.703 v 0 -70.777 0" /><path
         id="path32"
         style="fill:#ffffff;fill-opacity:1;fill-rule:nonzero;stroke:none"
         d="m 758.059,872.84 h 17.742 v 51.848 c 0,6.828 1.367,12.281 4.258,16.203 2.734,3.925 6.828,5.804 12.453,5.804 4.605,0 7.851,-1.539 10.066,-4.605 2.051,-3.074 3.067,-8.016 3.067,-14.844 v 0 -54.406 h 17.734 v 58.504 0 c 0,9.207 -2.031,16.547 -6.133,21.996 -4.09,5.457 -10.574,8.195 -19.441,8.195 -5.117,0 -9.551,-1.195 -13.477,-3.75 -3.918,-2.558 -6.992,-6.144 -9.211,-10.75 v 0 h -0.34 v 0 c 0,0.504 0,1.535 0,2.731 -0.175,1.191 -0.175,2.554 -0.343,3.922 -0.164,1.359 -0.164,2.726 -0.164,3.921 -0.176,1.188 -0.176,2.219 -0.176,2.731 v 0 h -16.711 v 0 c 0.168,-2.555 0.332,-5.293 0.508,-8.02 0.168,-2.902 0.168,-5.797 0.168,-8.703 v 0 -70.777 0" /><path
         id="path34"
         style="fill:#ffffff;fill-opacity:1;fill-rule:nonzero;stroke:none"
         d="m 367.18,872.84 h 57.468 v 15.172 H 385.602 V 991.895 H 367.18 v -119.055 0" /><path
         id="path36"
         style="fill:#ffffff;fill-opacity:1;fill-rule:nonzero;stroke:none"
         d="m 274.625,685.762 h 17.75 v 51.847 c 0,6.825 1.359,12.278 4.258,16.2 2.726,3.921 6.824,5.804 12.449,5.804 4.606,0 7.848,-1.535 10.063,-4.605 2.05,-3.074 3.074,-8.02 3.074,-14.844 v 0 -54.402 h 17.734 v 58.5 0 c 0,9.211 -2.039,16.543 -6.133,21.992 -4.097,5.465 -10.578,8.199 -19.449,8.199 -5.117,0 -9.547,-1.195 -13.473,-3.754 -3.921,-2.554 -6.996,-6.144 -9.207,-10.746 v 0 h -0.347 v 0 c 0,0.504 0,1.535 0,2.727 -0.172,1.191 -0.172,2.558 -0.336,3.922 -0.172,1.367 -0.172,2.734 -0.172,3.925 -0.176,1.192 -0.176,2.223 -0.176,2.731 v 0 h -16.711 v 0 c 0.168,-2.559 0.34,-5.289 0.516,-8.02 0.16,-2.898 0.16,-5.793 0.16,-8.699 v 0 -70.777 0" /><path
         id="path38"
         style="fill:#ffffff;fill-opacity:1;fill-rule:nonzero;stroke:none"
         d="m 410.059,687.121 v 13.305 c -1.2,-0.512 -2.391,-1.02 -3.758,-1.367 -1.363,-0.516 -2.899,-0.684 -4.778,-0.684 -3.242,0 -5.453,1.031 -6.992,2.898 -1.539,1.883 -2.222,5.118 -2.222,9.899 v 0 48.441 h 17.75 v 13.645 h -17.75 v 23.199 l -17.735,-5.289 v -17.91 h -13.976 v -13.645 h 13.976 v -52.031 0 c 0,-8.352 1.875,-14.32 5.809,-17.738 3.918,-3.574 9.375,-5.278 16.535,-5.278 2.566,0 5.125,0.176 7.336,0.684 2.223,0.676 4.266,1.18 5.805,1.871 v 0" /><path
         id="path40"
         style="fill:#ffffff;fill-opacity:1;fill-rule:nonzero;stroke:none"
         d="m 446.887,724.477 h 49.968 v 5.968 c 0,7.676 -0.855,14.149 -2.39,19.789 -1.531,5.621 -3.75,10.223 -6.641,13.809 -2.906,3.578 -6.496,6.148 -10.418,7.852 -4.086,1.699 -8.523,2.558 -13.293,2.558 -5.461,0 -10.41,-1.027 -14.675,-3.246 -4.438,-2.219 -8.188,-5.457 -11.083,-9.379 -2.902,-4.098 -5.289,-8.871 -6.828,-14.5 -1.535,-5.625 -2.382,-11.765 -2.382,-18.422 0,-6.308 0.847,-12.277 2.382,-17.734 1.539,-5.465 3.75,-10.067 6.993,-13.988 3.078,-3.922 7,-6.993 11.769,-9.215 4.774,-2.371 10.41,-3.403 16.719,-3.403 5.457,0 10.398,0.52 14.668,1.704 4.262,1.191 7.676,2.382 10.574,3.574 v 0 l -0.852,14.844 v 0 c -2.222,-1.532 -5.117,-3.071 -8.527,-4.606 -3.59,-1.539 -7.848,-2.391 -12.965,-2.391 -8.187,0 -13.988,2.223 -17.57,6.825 -3.574,4.433 -5.449,11.086 -5.449,19.961 v 0" /><path
         id="path42"
         style="fill:#ffffff;fill-opacity:1;fill-rule:nonzero;stroke:none"
         d="m 522.828,685.762 h 17.75 v 47.07 c 0,4.43 0.508,8.188 1.527,11.43 1.032,3.238 2.391,5.797 4.098,7.843 1.703,1.875 3.75,3.415 5.969,4.434 2.219,0.856 4.43,1.363 6.988,1.363 1.031,0 2.051,0 2.903,-0.172 0.859,-0.16 1.875,-0.335 2.734,-0.507 v 0 17.054 0 c -0.348,0 -0.684,0 -0.859,0.176 -0.172,0 -0.508,0 -0.852,0 -3.242,0 -6.137,-0.34 -8.695,-1.195 -2.555,-0.856 -4.606,-2.051 -6.485,-3.586 -1.875,-1.527 -3.578,-3.242 -4.945,-5.117 -1.363,-1.875 -2.559,-3.922 -3.414,-6.141 v 0 h -0.336 v 0 c 0,0.684 0,1.707 0,3.074 -0.172,1.364 -0.172,2.895 -0.344,4.434 -0.176,1.539 -0.176,2.902 -0.176,4.269 -0.164,1.356 -0.164,2.383 -0.164,3.067 v 0 h -16.375 v 0 c 0.168,-2.559 0.344,-5.289 0.516,-8.02 0.16,-2.898 0.16,-5.793 0.16,-8.699 v 0 -70.777 0" /><path
         id="path44"
         style="fill:#ffffff;fill-opacity:1;fill-rule:nonzero;stroke:none"
         d="m 581.996,685.762 h 17.742 v 127.922 h -17.742 v -127.922 0" /><path
         id="path46"
         style="fill:#ffffff;fill-opacity:1;fill-rule:nonzero;stroke:none"
         d="m 676.055,685.762 h 16.035 v 0 c -0.176,1.527 -0.508,3.75 -0.684,6.308 -0.176,2.555 -0.332,5.285 -0.332,8.188 v 0 41.781 0 c 0,5.797 -0.527,10.578 -1.719,14.328 -1.191,3.754 -3.066,6.828 -5.281,9.383 -1.875,2.219 -4.941,4.266 -9.043,6.145 -4.093,1.699 -9.375,2.558 -16.039,2.558 -5.625,0 -10.574,-0.687 -14.832,-2.051 -4.265,-1.367 -8.191,-2.894 -11.426,-4.781 v 0 l 1.36,-15.176 v 0 c 2.226,2.219 5.469,4.262 9.726,6.145 4.09,1.707 8.524,2.555 13.477,2.555 6.308,0 10.75,-1.7 13.465,-5.114 1.367,-1.703 2.394,-3.586 2.91,-5.625 0.508,-2.222 0.683,-4.617 0.683,-7.336 v 0 -3.586 h -6.308 v 0 c -14.168,0 -25.078,-2.382 -32.41,-6.992 -7.336,-4.777 -11.086,-12.285 -11.086,-22.515 0,-4.098 0.676,-7.684 2.043,-10.918 1.355,-3.243 3.23,-5.797 5.625,-8.02 2.226,-2.211 4.941,-3.75 8.015,-4.769 3.067,-1.184 6.309,-1.704 9.895,-1.704 6.484,0 11.601,1.36 15.527,4.086 3.75,2.559 6.817,5.637 9.032,9.039 v 0 h 0.343 v 0 c 0,-0.507 0,-1.363 0.176,-2.558 0,-1.192 0,-2.383 0.164,-3.574 0.176,-1.192 0.176,-2.395 0.344,-3.414 0.176,-1.192 0.176,-1.875 0.34,-2.383 v 0" /><path
         id="path48"
         style="fill:#ffffff;fill-opacity:1;fill-rule:nonzero;stroke:none"
         d="m 720.344,685.762 h 17.734 v 43.32 h 0.34 l 29.172,-43.32 h 21.152 l -35.48,48.097 32.394,39.399 h -19.609 l -27.969,-35.473 v 75.899 h -17.734 v -127.922 0" /><path
         id="path50"
         style="fill:#ffffff;fill-opacity:1;fill-rule:nonzero;stroke:none"
         d="m 823.066,724.477 h 49.981 v 5.968 c 0,7.676 -0.859,14.149 -2.391,19.789 -1.535,5.621 -3.75,10.223 -6.652,13.809 -2.899,3.578 -6.484,6.148 -10.41,7.852 -4.082,1.699 -8.524,2.558 -13.289,2.558 -5.469,0 -10.41,-1.027 -14.68,-3.246 -4.434,-2.219 -8.184,-5.457 -11.082,-9.379 -2.902,-4.098 -5.285,-8.871 -6.828,-14.5 -1.531,-5.625 -2.383,-11.765 -2.383,-18.422 0,-6.308 0.852,-12.277 2.383,-17.734 1.543,-5.465 3.75,-10.067 6.992,-13.988 3.078,-3.922 7.004,-6.993 11.77,-9.215 4.773,-2.371 10.41,-3.403 16.718,-3.403 5.457,0 10.399,0.52 14.668,1.704 4.266,1.191 7.676,2.382 10.575,3.574 v 0 l -0.848,14.844 v 0 c -2.227,-1.532 -5.117,-3.071 -8.527,-4.606 -3.594,-1.539 -7.852,-2.391 -12.969,-2.391 -8.184,0 -13.985,2.223 -17.567,6.825 -3.574,4.433 -5.461,11.086 -5.461,19.961 v 0" /><path
         id="path52"
         style="fill:#ffffff;fill-opacity:1;fill-rule:nonzero;stroke:none"
         d="m 899.016,685.762 h 17.754 v 51.847 c 0,6.825 1.355,12.278 4.257,16.2 2.735,3.921 6.825,5.804 12.45,5.804 4.609,0 7.843,-1.535 10.058,-4.605 2.051,-3.074 3.078,-8.02 3.078,-14.844 v 0 -54.402 h 17.735 v 58.5 0 c 0,9.211 -2.043,16.543 -6.133,21.992 -4.102,5.465 -10.578,8.199 -19.453,8.199 -5.117,0 -9.551,-1.195 -13.469,-3.754 -3.926,-2.554 -7,-6.144 -9.207,-10.746 v 0 h -0.344 v 0 c 0,0.504 0,1.535 0,2.727 -0.176,1.191 -0.176,2.558 -0.34,3.922 -0.168,1.367 -0.168,2.734 -0.168,3.925 -0.175,1.192 -0.175,2.223 -0.175,2.731 v 0 h -16.707 v 0 c 0.156,-2.559 0.332,-5.289 0.507,-8.02 0.157,-2.898 0.157,-5.793 0.157,-8.699 v 0 -70.777 0" /><path
         id="path54"
         style="fill:#ffffff;fill-opacity:1;fill-rule:nonzero;stroke:none"
         d="m 226.207,685.762 h 18.418 v 119.047 h -18.418 v -119.047 0" /><path
         id="path56"
         style="fill:#007f46;fill-opacity:1;fill-rule:nonzero;stroke:none"
         d="m 622.422,923.664 c 0.168,8.016 1.711,14.328 4.609,18.762 2.891,4.269 6.985,6.48 12.102,6.48 10.574,0 15.867,-8.355 15.867,-25.242 v 0 h -32.578 v 0" /><path
         id="path58"
         style="fill:#007f46;fill-opacity:1;fill-rule:nonzero;stroke:none"
         d="m 446.887,736.582 c 0.16,8.012 1.699,14.332 4.601,18.766 2.891,4.265 6.989,6.48 12.106,6.48 10.578,0 15.859,-8.355 15.859,-25.246 v 0 h -32.566 v 0" /><path
         id="path60"
         style="fill:#007f46;fill-opacity:1;fill-rule:nonzero;stroke:none"
         d="m 674.355,728.574 v -7.847 c 0,-6.997 -1.542,-12.625 -4.609,-16.895 -3.242,-4.426 -7.84,-6.648 -14.16,-6.648 -4.609,0 -8.008,1.359 -10.398,3.921 -2.395,2.559 -3.586,6.141 -3.586,10.403 0,5.808 2.218,10.066 6.816,12.969 4.609,2.89 11.262,4.257 19.961,4.257 1.027,0 2.051,0 3.242,0 1.192,0 2.219,0 2.734,-0.16 v 0" /><path
         id="path62"
         style="fill:#007f46;fill-opacity:1;fill-rule:nonzero;stroke:none"
         d="m 823.066,736.582 c 0.176,8.012 1.711,14.332 4.61,18.766 2.902,4.265 6.992,6.48 12.101,6.48 10.586,0 15.868,-8.355 15.868,-25.246 v 0 h -32.579 v 0" /><path
         id="path64"
         style="fill:#1a67bb;fill-opacity:1;fill-rule:nonzero;stroke:none"
         d="M 319.75,372.824 H 870.813 V 610.933 H 319.75 Z" /><path
         id="path66"
         style="fill:#ffffff;fill-opacity:1;fill-rule:nonzero;stroke:none"
         d="m 514.395,453.117 h 0.335 v 0 c 2.223,-3.926 5.118,-7.168 8.704,-9.726 3.414,-2.559 8.015,-3.75 13.64,-3.75 9.211,0 16.551,3.75 22.008,11.425 5.461,7.676 8.184,18.766 8.184,33.602 v 0 0 0 c 0,6.828 -0.684,12.953 -1.875,18.59 -1.368,5.457 -3.243,10.23 -5.797,14.148 -2.559,3.926 -5.801,6.828 -9.551,9.051 -3.93,2.047 -8.188,3.066 -13.137,3.066 -3.242,0 -6.133,-0.339 -8.691,-1.191 -2.559,-0.855 -4.606,-2.047 -6.492,-3.414 -1.875,-1.363 -3.403,-2.906 -4.606,-4.605 -1.355,-1.704 -2.554,-3.415 -3.406,-5.29 v 0 h -0.344 v 0 c 0,0.856 0,1.875 0,3.243 -0.172,1.363 -0.172,2.73 -0.172,4.093 -0.164,1.368 -0.164,2.559 -0.34,3.754 -0.167,1.192 -0.167,1.871 -0.167,2.219 v 0 h -16.711 v 0 c 0.16,-2.219 0.336,-4.605 0.507,-7.164 0.168,-2.559 0.168,-5.461 0.168,-8.359 v 0 -108.813 h 17.743 v 49.121 0" /><path
         id="path68"
         style="fill:#ffffff;fill-opacity:1;fill-rule:nonzero;stroke:none"
         d="m 593.027,440.832 h 17.746 v 87.5 h -17.746 v -87.5 0" /><path
         id="path70"
         style="fill:#ffffff;fill-opacity:1;fill-rule:nonzero;stroke:none"
         d="m 592.52,545.895 h 18.761 v 18.937 H 592.52 v -18.937 0" /><path
         id="path72"
         style="fill:#ffffff;fill-opacity:1;fill-rule:nonzero;stroke:none"
         d="m 653.332,479.551 h 49.969 v 5.969 c 0,7.675 -0.848,14.152 -2.391,19.781 -1.535,5.625 -3.75,10.238 -6.64,13.82 -2.911,3.574 -6.497,6.145 -10.411,7.84 -4.093,1.707 -8.535,2.562 -13.312,2.562 -5.449,0 -10.399,-1.019 -14.656,-3.238 -4.446,-2.222 -8.196,-5.465 -11.086,-9.387 -2.91,-4.089 -5.293,-8.859 -6.825,-14.496 -1.542,-5.625 -2.382,-11.769 -2.382,-18.418 0,-6.308 0.84,-12.285 2.382,-17.742 1.532,-5.461 3.75,-10.058 6.981,-13.988 3.078,-3.922 7.004,-6.988 11.769,-9.207 4.786,-2.383 10.418,-3.406 16.719,-3.406 5.469,0 10.41,0.515 14.676,1.695 4.258,1.203 7.668,2.394 10.578,3.586 v 0 l -0.859,14.844 v 0 c -2.219,-1.543 -5.117,-3.075 -8.528,-4.61 -3.582,-1.535 -7.839,-2.39 -12.957,-2.39 -8.195,0 -13.996,2.214 -17.578,6.824 -3.574,4.433 -5.449,11.082 -5.449,19.961 v 0" /><path
         id="path74"
         style="fill:#ffffff;fill-opacity:1;fill-rule:nonzero;stroke:none"
         d="m 724.543,440.832 h 57.812 v 14.148 h -39.562 l 38.535,57.829 v 15.523 h -55.594 v -14.164 h 37.696 l -38.887,-57.645 v -15.691 0" /><path
         id="path76"
         style="fill:#ffffff;fill-opacity:1;fill-rule:nonzero;stroke:none"
         d="m 409.387,444.582 c 3.066,-1.711 6.816,-2.902 11.258,-3.918 4.429,-0.848 9.371,-1.191 14.835,-1.191 11.43,0 20.637,3.066 27.293,9.211 6.653,6.132 9.895,14.656 9.895,25.574 v 0 0 0 c 0,5.117 -0.684,9.551 -2.223,13.137 -1.539,3.57 -3.75,6.824 -6.308,9.55 -2.559,2.727 -5.637,5.285 -9.211,7.508 -3.586,2.215 -7.332,4.43 -11.258,6.645 -2.902,1.711 -5.461,3.242 -7.512,4.781 -2.215,1.527 -3.918,2.894 -5.109,4.434 -1.367,1.367 -2.395,2.898 -2.902,4.605 -0.512,1.539 -0.848,3.414 -0.848,5.457 0,4.609 1.527,8.531 4.601,11.426 3.067,2.902 7.332,4.441 12.961,4.441 4.262,0 8.36,-0.519 11.942,-1.539 3.574,-1.191 6.652,-2.383 9.387,-3.75 v 0 l 0.507,16.371 v 0 c -2.222,0.856 -5.461,1.875 -9.386,2.735 -4.09,0.843 -8.696,1.363 -13.813,1.363 -4.781,0 -9.215,-0.684 -13.48,-1.875 -4.258,-1.367 -8.008,-3.414 -11.254,-5.973 -3.242,-2.73 -5.801,-5.965 -7.672,-9.89 -1.875,-3.922 -2.895,-8.368 -2.895,-13.477 0,-5.289 0.672,-9.559 2.211,-13.137 1.539,-3.582 3.582,-6.82 6.141,-9.379 2.558,-2.734 5.461,-5.117 9.039,-7.164 3.414,-2.222 7.164,-4.433 11.086,-6.824 3.242,-1.875 5.969,-3.75 8.187,-5.285 2.223,-1.711 3.926,-3.41 5.289,-4.953 1.192,-1.531 2.219,-3.231 2.735,-4.938 0.508,-1.886 0.676,-3.75 0.676,-5.98 0,-5.445 -1.875,-9.715 -5.457,-12.957 -3.586,-3.242 -8.356,-4.942 -14.161,-4.942 -4.769,0 -9.211,0.848 -13.472,2.559 -4.266,1.535 -7.672,3.242 -10.399,4.941 v 0 l -0.683,-17.566 v 0" /><path
         id="path78"
         style="fill:#1a67bb;fill-opacity:1;fill-rule:nonzero;stroke:none"
         d="m 518.656,461.465 c -2.894,5.637 -4.261,13.312 -4.261,23.027 0,9.727 1.367,17.403 4.261,23.024 2.731,5.632 7.336,8.527 13.645,8.527 6.488,0 10.922,-2.723 13.476,-8.004 2.559,-5.293 3.75,-13.312 3.75,-23.887 v 0 0 0 c 0,-10.062 -1.367,-17.738 -3.922,-23.019 -2.73,-5.293 -7.164,-8.016 -13.472,-8.016 -6.317,0 -10.746,2.723 -13.477,8.348 v 0" /><path
         id="path80"
         style="fill:#1a67bb;fill-opacity:1;fill-rule:nonzero;stroke:none"
         d="m 653.332,491.652 c 0.164,8.02 1.699,14.336 4.609,18.766 2.891,4.27 6.981,6.48 12.098,6.48 10.578,0 15.859,-8.355 15.859,-25.246 v 0 h -32.566 v 0" /></g></g></svg>