<?xml version="1.0" encoding="UTF-8" standalone="no"?>
<svg
   xmlns:dc="http://purl.org/dc/elements/1.1/"
   xmlns:cc="http://creativecommons.org/ns#"
   xmlns:rdf="http://www.w3.org/1999/02/22-rdf-syntax-ns#"
   xmlns:svg="http://www.w3.org/2000/svg"
   xmlns="http://www.w3.org/2000/svg"
   viewBox="0 0 98.279999 113.4"
   height="113.4"
   width="98.279999"
   xml:space="preserve"
   id="svg2"
   version="1.1"><metadata
     id="metadata8"><rdf:RDF><cc:Work
         rdf:about=""><dc:format>image/svg+xml</dc:format><dc:type
           rdf:resource="http://purl.org/dc/dcmitype/StillImage" /></cc:Work></rdf:RDF></metadata><defs
     id="defs6" /><g
     transform="matrix(1.3333333,0,0,-1.3333333,0,113.4)"
     id="g10"><g
       transform="scale(0.1)"
       id="g12"><path
         id="path14"
         style="fill:#f6842a;fill-opacity:1;fill-rule:nonzero;stroke:none"
         d="M 0,0 V 850.488 L 566.672,425.023 0,0" /><path
         id="path16"
         style="fill:#231f20;fill-opacity:1;fill-rule:nonzero;stroke:none"
         d="M 0.429688,0 737.09,425.023 3.02344,848.324 567.102,425.023 0.429688,0" /><path
         id="path18"
         style="fill:#231f20;fill-opacity:1;fill-rule:nonzero;stroke:none"
         d="m 283.395,257.922 1.585,-0.285 7.227,0.547 v 0 c 7.617,0 15.453,6.621 15.406,15.117 v 0 l -0.269,49.695 v 0 c -0.024,4.367 -2.172,7.934 -6.446,10.695 -2.597,1.68 -6.824,2.618 -12.675,2.813 -2.782,0.098 -4.246,0.098 -4.395,0 -1.082,-0.691 -1.621,-1.863 -1.621,-3.508 v 0 l 0.328,-74.07 0.86,-1.004 v 0" /><path
         id="path20"
         style="fill:#231f20;fill-opacity:1;fill-rule:nonzero;stroke:none"
         d="m 247.094,577.504 c -11.797,-16.406 -15.254,-24.027 -22.531,-41.703 -15.602,-37.602 -17.883,-71.188 -19.04,-89.449 -2.093,-33.028 0.868,-66.149 8.219,-98.395 2.387,-10.496 5.496,-20.867 9.305,-31.121 6.363,-17.109 14.844,-36.973 19.879,-42.871 v 0 l 2.465,-2.949 v 0 c 1.25,-2.149 10.218,-9.18 12.543,-10.157 6.054,-2.539 12.839,-3.679 20.347,-3.437 0.09,0.254 0.231,0.5 0.426,0.683 v 0 l -0.078,75.833 v 0 c -1.133,1.375 -2.109,2.214 -2.941,2.527 v 0 l -3.809,1.414 v 0 c -1.41,0.519 -3.801,1.926 -7.152,4.191 -5.907,3.996 -9.059,11.34 -9.461,22.043 v 0 l 0.109,16.547 v 0 c 0.074,1.852 0.801,7.629 2.164,17.352 1.055,7.519 0.93,28.886 -0.027,33.504 -1.36,6.547 -3.164,18.832 -5.418,36.836 -1.028,8.226 -1.309,12.371 -0.844,12.429 -1.035,1.973 -0.629,12.047 0.738,15.91 2.989,8.43 9.492,13.539 19.52,15.325 3.234,0.578 5.086,1.527 5.105,1.73 v 0 l -1.008,74.742 v 0 c -8.308,7.078 -26.636,-8.25 -28.511,-10.984 v 0" /><path
         id="path22"
         style="fill:#231f20;fill-opacity:1;fill-rule:nonzero;stroke:none"
         d="m 295.57,589.086 -5.945,1.894 h -8.648 l -1.082,-1.621 1.054,-75.839 1.375,-1.137 5.137,0.269 v 0 c 2.031,-0.246 9.316,2.485 9.426,2.547 4.363,2.598 6.902,7.434 7.605,14.504 v 0 l -0.273,45.61 v 0 c -0.098,3.015 -0.938,5.675 -2.52,7.968 -2.113,3.063 -5.871,5.805 -6.129,5.805 v 0" /><path
         id="path24"
         style="fill:#231f20;fill-opacity:1;fill-rule:nonzero;stroke:none"
         d="m 48.5273,543.598 c 4.0313,-2.305 9.0704,-3.887 14.9727,-5.039 5.9063,-1.153 12.5313,-1.582 19.7344,-1.582 15.2617,0 27.4996,3.886 36.4296,12.097 8.785,8.207 13.102,19.582 13.102,34.125 v 0 0 0 c 0,6.766 -0.86,12.676 -2.879,17.426 -2.16,4.895 -5.043,9.215 -8.496,12.816 -3.313,3.598 -7.489,7.051 -12.239,9.934 -4.754,3.027 -9.7926,5.906 -14.9762,8.93 -3.8867,2.304 -7.3438,4.32 -10.082,6.332 -2.879,2.019 -5.1836,3.894 -6.7696,5.91 -1.8711,1.867 -3.164,3.887 -3.8867,6.191 -0.7187,2.012 -1.1523,4.461 -1.1523,7.196 0,6.191 2.164,11.379 6.1914,15.265 4.0351,3.887 9.7968,5.903 17.2812,5.903 5.6132,0 11.0902,-0.719 15.8402,-2.016 4.898,-1.582 8.929,-3.164 12.527,-5.039 v 0 l 0.719,21.891 v 0 c -3.024,1.148 -7.344,2.445 -12.524,3.597 -5.472,1.153 -11.523,1.875 -18.4333,1.875 -6.3359,0 -12.2422,-1.012 -17.8554,-2.594 -5.7618,-1.73 -10.8008,-4.468 -15.1211,-7.918 -4.3164,-3.601 -7.6329,-7.921 -10.2227,-13.25 -2.4492,-5.183 -3.7422,-11.085 -3.7422,-17.855 0,-7.055 0.8633,-12.816 2.8789,-17.566 2.0117,-4.754 4.75,-9.075 8.2071,-12.532 3.4531,-3.597 7.1992,-6.765 12.0976,-9.5 4.4609,-3.031 9.5,-5.906 14.6875,-9.074 4.3203,-2.594 7.918,-5.043 10.9414,-7.055 2.8789,-2.304 5.1832,-4.609 7.0552,-6.625 1.585,-2.019 2.882,-4.324 3.605,-6.628 0.715,-2.446 0.863,-4.891 0.863,-7.918 0,-7.2 -2.453,-12.961 -7.203,-17.278 -4.7499,-4.32 -11.0897,-6.625 -18.8632,-6.625 -6.3359,0 -12.2382,1.153 -18,3.457 -5.6171,2.016 -10.2265,4.317 -13.8242,6.621 v 0 l -0.8633,-23.472 v 0" /><path
         id="path26"
         style="fill:#231f20;fill-opacity:1;fill-rule:nonzero;stroke:none"
         d="m 46.3672,364.609 c 5.4687,-6.765 11.8086,-11.804 19.2969,-15.261 7.3437,-3.457 15.2656,-5.039 23.6132,-5.039 8.9297,0 17.1407,1.582 24.6247,4.89 7.489,3.313 13.825,8.348 19.297,15.117 5.473,6.625 9.789,15.27 12.957,25.493 3.024,10.226 4.61,22.461 4.61,36.433 v 0 0 0 c 0,13.391 -1.586,24.91 -4.61,34.988 -3.168,9.938 -7.484,18.434 -12.957,25.2 -5.472,6.629 -11.808,11.808 -19.152,15.265 -7.488,3.309 -15.4103,5.039 -23.7579,5.039 -8.9297,0 -16.8516,-1.73 -24.336,-5.039 -7.4922,-3.457 -14.1172,-8.496 -19.5859,-14.976 -5.4727,-6.91 -9.793,-15.551 -12.6719,-25.778 -3.168,-10.222 -4.7539,-22.461 -4.7539,-36.289 0,-13.386 1.5859,-25.05 4.7539,-34.988 2.8789,-10.078 7.1992,-18.434 12.6719,-25.055 v 0" /><path
         id="path28"
         style="fill:#231f20;fill-opacity:1;fill-rule:nonzero;stroke:none"
         d="m 48.5273,157.969 c 4.0313,-2.305 9.0704,-3.887 14.9727,-5.039 5.9063,-1.153 12.5313,-1.582 19.7344,-1.582 15.2617,0 27.4996,3.886 36.4296,12.09 8.785,8.214 13.102,19.589 13.102,34.132 v 0 0 0 c 0,6.766 -0.86,12.672 -2.879,17.422 -2.16,4.903 -5.043,9.219 -8.496,12.821 -3.313,3.593 -7.489,7.05 -12.239,9.929 -4.754,3.031 -9.7926,5.91 -14.9762,8.93 -3.8867,2.305 -7.3438,4.324 -10.082,6.336 -2.879,2.023 -5.1836,3.887 -6.7696,5.91 -1.8711,1.863 -3.164,3.887 -3.8867,6.191 -0.7187,2.008 -1.1523,4.461 -1.1523,7.196 0,6.191 2.164,11.379 6.1914,15.265 4.0351,3.883 9.7968,5.907 17.2812,5.907 5.6132,0 11.0902,-0.723 15.8402,-2.024 4.898,-1.582 8.929,-3.164 12.527,-5.039 v 0 l 0.719,21.887 v 0 c -3.024,1.152 -7.344,2.449 -12.524,3.605 -5.472,1.153 -11.523,1.875 -18.4333,1.875 -6.3359,0 -12.2422,-1.015 -17.8554,-2.597 -5.7618,-1.731 -10.8008,-4.465 -15.1211,-7.922 -4.3164,-3.594 -7.6329,-7.918 -10.2227,-13.242 -2.4492,-5.188 -3.7422,-11.094 -3.7422,-17.86 0,-7.051 0.8633,-12.812 2.8789,-17.57 2.0117,-4.746 4.75,-9.07 8.2071,-12.527 3.4531,-3.594 7.1992,-6.77 12.0976,-9.504 4.4609,-3.016 9.5,-5.899 14.6875,-9.071 4.3203,-2.59 7.918,-5.039 10.9414,-7.05 2.8789,-2.305 5.1832,-4.61 7.0552,-6.633 1.585,-2.012 2.882,-4.317 3.605,-6.621 0.715,-2.45 0.863,-4.891 0.863,-7.918 0,-7.2 -2.453,-12.961 -7.203,-17.278 -4.7499,-4.324 -11.0897,-6.629 -18.8632,-6.629 -6.3359,0 -12.2382,1.153 -18,3.457 -5.6171,2.02 -10.2265,4.325 -13.8242,6.629 v 0 l -0.8633,-23.476 v 0" /><path
         id="path30"
         style="fill:#f6842a;fill-opacity:1;fill-rule:nonzero;stroke:none"
         d="m 63.3594,379.871 c -6.0508,10.797 -9.0703,25.918 -9.0703,44.781 0,11.524 1.0039,21.317 3.0195,29.235 1.7305,8.066 4.3242,14.547 7.6328,19.586 3.3125,4.75 7.0547,8.347 11.3789,10.652 4.3203,2.02 9.211,3.168 13.9688,3.168 11.3709,0 20.0159,-5.473 26.0589,-16.266 5.91,-10.949 8.929,-25.925 8.929,-44.785 v 0 0 0 c 0,-11.668 -1.004,-21.457 -2.734,-29.375 -2.016,-7.922 -4.609,-14.547 -7.777,-19.297 -3.313,-5.039 -7.196,-8.644 -11.52,-10.656 -4.3202,-2.305 -9.0702,-3.457 -13.9687,-3.457 -11.375,0 -20.0156,5.469 -25.9179,16.414 v 0" /></g></g></svg>