<?xml version="1.0" encoding="UTF-8" standalone="no"?>
<svg
   xmlns:dc="http://purl.org/dc/elements/1.1/"
   xmlns:cc="http://creativecommons.org/ns#"
   xmlns:rdf="http://www.w3.org/1999/02/22-rdf-syntax-ns#"
   xmlns:svg="http://www.w3.org/2000/svg"
   xmlns="http://www.w3.org/2000/svg"
   viewBox="0 0 91.080002 57.066666"
   height="57.066666"
   width="91.080002"
   xml:space="preserve"
   id="svg2"
   version="1.1"><metadata
     id="metadata8"><rdf:RDF><cc:Work
         rdf:about=""><dc:format>image/svg+xml</dc:format><dc:type
           rdf:resource="http://purl.org/dc/dcmitype/StillImage" /></cc:Work></rdf:RDF></metadata><defs
     id="defs6" /><g
     transform="matrix(1.3333333,0,0,-1.3333333,0,57.066667)"
     id="g10"><g
       transform="scale(0.1)"
       id="g12"><path
         id="path14"
         style="fill:#ffffff;fill-opacity:1;fill-rule:nonzero;stroke:none"
         d="m 1.41797,1.41797 h 680.313 v 425.191 H 1.41797 Z" /><path
         id="path16"
         style="fill:none;stroke:#231f20;stroke-width:2.83500004;stroke-linecap:butt;stroke-linejoin:round;stroke-miterlimit:4;stroke-dasharray:none;stroke-opacity:1"
         d="M 1.41797,1.41797 H 681.73 V 426.609 H 1.41797 V 1.41797" /><path
         id="path18"
         style="fill:#231f20;fill-opacity:1;fill-rule:nonzero;stroke:none"
         d="m 14.8789,49.3516 c 0,-18.8008 15.2149,-34.0235 34.0234,-34.0235 v 0 H 633.949 v 0 c 18.809,0 34.031,15.2227 34.031,34.0235 v 0 329.9534 0 c 0,18.765 -15.222,34.004 -34.031,34.004 v 0 H 48.9023 v 0 c -18.8085,0 -34.0234,-15.239 -34.0234,-34.004 v 0 -329.9534 0" /><path
         id="path20"
         style="fill:#ffffff;fill-opacity:1;fill-rule:nonzero;stroke:none"
         d="m 48.7734,403.004 c -13.1601,0 -23.8086,-10.668 -23.8086,-23.824 v 0 -329.9456 0 c 0,-13.1563 10.6485,-23.8125 23.8086,-23.8125 v 0 H 633.848 v 0 c 13.164,0 23.808,10.6562 23.808,23.8125 v 0 329.9456 0 c 0,13.156 -10.644,23.824 -23.808,23.824 v 0 H 48.7734 v 0" /><path
         id="path22"
         style="fill:#231f20;fill-opacity:1;fill-rule:nonzero;stroke:none"
         d="m 179.613,246.727 h 14.735 v 38.609 h 8.871 v 0 c 9.961,0 17.601,2.457 22.789,7.512 5.047,4.906 7.64,12 7.64,21.152 v 0 0 0 c 0,9.141 -2.593,16.094 -7.773,20.871 -5.195,4.781 -12.285,7.098 -21.152,7.098 v 0 h -25.11 v -95.242 0" /><path
         id="path24"
         style="fill:#231f20;fill-opacity:1;fill-rule:nonzero;stroke:none"
         d="m 249.23,254.223 c 2.59,-2.868 5.727,-5.043 9.403,-6.41 3.555,-1.352 7.375,-2.036 11.469,-2.036 4.093,0 7.918,0.684 11.593,2.036 3.555,1.367 6.688,3.542 9.282,6.41 2.593,2.871 4.777,6.554 6.281,11.054 1.504,4.508 2.312,10.098 2.312,16.508 v 0 0 0 c 0,6.285 -0.808,11.746 -2.312,16.246 -1.504,4.504 -3.688,8.321 -6.281,11.188 -2.594,2.859 -5.727,5.047 -9.282,6.41 -3.675,1.367 -7.5,2.051 -11.593,2.051 -4.094,0 -7.914,-0.684 -11.469,-2.051 -3.676,-1.363 -6.813,-3.551 -9.403,-6.41 -2.593,-2.867 -4.781,-6.684 -6.285,-11.188 -1.5,-4.5 -2.316,-9.961 -2.316,-16.246 0,-6.41 0.816,-12 2.316,-16.508 1.504,-4.5 3.692,-8.183 6.285,-11.054 v 0" /><path
         id="path26"
         style="fill:#231f20;fill-opacity:1;fill-rule:nonzero;stroke:none"
         d="m 319.137,246.727 h 14.183 v 102.336 h -14.183 v -102.336 0" /><path
         id="path28"
         style="fill:#231f20;fill-opacity:1;fill-rule:nonzero;stroke:none"
         d="m 356.977,246.727 h 14.195 v 69.992 h -14.195 v -69.992 0" /><path
         id="path30"
         style="fill:#231f20;fill-opacity:1;fill-rule:nonzero;stroke:none"
         d="m 356.57,330.777 h 15.008 v 15.145 H 356.57 v -15.145 0" /><path
         id="path32"
         style="fill:#231f20;fill-opacity:1;fill-rule:nonzero;stroke:none"
         d="m 438.207,248.633 -0.82,12.004 v 0 c -1.504,-0.949 -3.547,-1.774 -5.867,-2.453 -2.321,-0.684 -4.778,-1.09 -7.102,-1.09 -6.133,0 -10.77,2.179 -14.047,6.547 -3.414,4.367 -5.055,10.23 -5.055,17.605 0,8.598 1.641,14.875 4.918,18.965 3.278,4.094 7.914,6.141 13.922,6.141 2.586,0 4.907,-0.266 6.953,-0.954 2.043,-0.679 3.817,-1.367 5.602,-2.324 v 0 l 0.676,11.875 v 0 c -1.778,0.68 -3.817,1.364 -6.414,1.906 -2.598,0.547 -5.188,0.825 -7.782,0.825 -5.32,0 -10.089,-0.825 -14.183,-2.59 -4.098,-1.774 -7.508,-4.375 -10.238,-7.512 -2.731,-3.273 -4.77,-7.09 -6.137,-11.598 -1.363,-4.496 -2.047,-9.277 -2.047,-14.597 0,-4.918 0.684,-9.559 1.91,-13.922 1.227,-4.359 3.27,-8.188 5.863,-11.324 2.594,-3.141 5.871,-5.731 9.965,-7.504 3.957,-1.906 8.739,-2.856 14.192,-2.856 3.004,0 5.859,0.274 8.73,0.821 2.871,0.672 5.184,1.355 6.961,2.035 v 0" /><path
         id="path34"
         style="fill:#231f20;fill-opacity:1;fill-rule:nonzero;stroke:none"
         d="m 463.57,277.699 h 39.985 v 4.774 c 0,6.14 -0.684,11.328 -1.918,15.828 -1.227,4.504 -3,8.187 -5.313,11.058 -2.324,2.86 -5.191,4.907 -8.332,6.27 -3.273,1.367 -6.816,2.051 -10.644,2.051 -4.36,0 -8.321,-0.825 -11.735,-2.59 -3.547,-1.774 -6.547,-4.375 -8.859,-7.512 -2.324,-3.273 -4.234,-7.09 -5.465,-11.598 -1.226,-4.496 -1.91,-9.414 -1.91,-14.734 0,-5.051 0.684,-9.824 1.91,-14.191 1.231,-4.371 3.004,-8.051 5.59,-11.188 2.461,-3.148 5.601,-5.597 9.422,-7.371 3.816,-1.898 8.316,-2.719 13.371,-2.719 4.367,0 8.32,0.403 11.734,1.356 3.414,0.949 6.145,1.91 8.461,2.867 v 0 l -0.683,11.875 v 0 c -1.774,-1.238 -4.094,-2.465 -6.817,-3.691 -2.871,-1.227 -6.281,-1.911 -10.379,-1.911 -6.547,0 -11.187,1.774 -14.047,5.461 -2.867,3.543 -4.371,8.868 -4.371,15.965 v 0" /><path
         id="path36"
         style="fill:#231f20;fill-opacity:1;fill-rule:nonzero;stroke:none"
         d="m 186.277,126.625 c -4.66,-2.027 -8.48,-4.652 -11.343,-7.875 -2.871,-3.344 -4.297,-7.758 -4.297,-13.375 0,-3.227 0.597,-6.3281 1.789,-9.0742 1.07,-2.7461 2.746,-5.25 4.89,-7.2813 2.153,-2.0312 4.778,-3.7031 7.879,-4.7812 3.11,-1.1836 6.567,-1.7774 10.508,-1.7774 3.707,0 7.168,0.4727 10.395,1.6563 3.101,1.082 5.726,2.5195 8,4.543 2.265,2.0234 3.937,4.4218 5.254,7.2773 1.191,2.8711 1.785,6.0895 1.785,9.6755 v 0 0 0 c 0,5.254 -1.434,9.668 -4.301,13.254 -2.981,3.457 -6.801,6.207 -11.453,8.238 4.527,2.27 7.996,5.254 10.262,8.958 2.269,3.582 3.46,7.398 3.46,11.457 0,2.992 -0.593,5.738 -1.664,8.242 -1.203,2.504 -2.867,4.66 -4.898,6.445 -2.031,1.793 -4.535,3.102 -7.285,4.184 -2.863,0.953 -5.973,1.429 -9.317,1.429 -3.574,0 -6.804,-0.476 -9.664,-1.55 -2.871,-1.079 -5.257,-2.629 -7.285,-4.536 -2.027,-1.91 -3.586,-4.183 -4.656,-6.691 -1.07,-2.625 -1.676,-5.492 -1.676,-8.477 0,-4.3 1.078,-8.121 3.34,-11.464 2.277,-3.461 5.617,-6.2 10.277,-8.477 v 0" /><path
         id="path38"
         style="fill:#231f20;fill-opacity:1;fill-rule:nonzero;stroke:none"
         d="m 241.559,94.6289 c 2.027,-3.8242 4.652,-6.8008 7.875,-8.9531 3.222,-2.1524 7.043,-3.2149 11.699,-3.2149 4.66,0 8.597,1.0625 11.82,3.336 3.223,2.1523 5.856,5.1328 7.883,8.9492 2.023,3.8281 3.461,8.3629 4.301,13.4959 0.84,5.133 1.312,10.746 1.312,16.832 v 0 0 0 c 0,6.086 -0.472,11.707 -1.312,16.961 -0.84,5.129 -2.278,9.668 -4.301,13.488 -2.027,3.817 -4.66,6.805 -7.883,9.071 -3.223,2.152 -7.16,3.226 -11.82,3.226 -4.656,0 -8.594,-1.074 -11.82,-3.226 -3.223,-2.266 -5.727,-5.254 -7.754,-9.071 -2.032,-3.82 -3.469,-8.359 -4.297,-13.488 -0.836,-5.254 -1.317,-10.875 -1.317,-16.961 0,-6.086 0.481,-11.699 1.317,-16.832 0.828,-5.254 2.265,-9.7889 4.297,-13.6131 v 0" /><path
         id="path40"
         style="fill:#231f20;fill-opacity:1;fill-rule:nonzero;stroke:none"
         d="m 306.262,94.6289 c 2.031,-3.8242 4.656,-6.8008 7.879,-8.9531 3.222,-2.1524 7.043,-3.2149 11.699,-3.2149 4.652,0 8.594,1.0625 11.82,3.336 3.219,2.1523 5.856,5.1328 7.875,8.9492 2.031,3.8281 3.465,8.3629 4.305,13.4959 0.84,5.133 1.312,10.746 1.312,16.832 v 0 0 0 c 0,6.086 -0.472,11.707 -1.312,16.961 -0.84,5.129 -2.274,9.668 -4.305,13.488 -2.019,3.817 -4.656,6.805 -7.875,9.071 -3.226,2.152 -7.168,3.226 -11.82,3.226 -4.656,0 -8.598,-1.074 -11.82,-3.226 -3.223,-2.266 -5.727,-5.254 -7.758,-9.071 -2.032,-3.82 -3.465,-8.359 -4.293,-13.488 -0.84,-5.254 -1.317,-10.875 -1.317,-16.961 0,-6.086 0.477,-11.699 1.317,-16.832 0.828,-5.254 2.261,-9.7889 4.293,-13.6131 v 0" /><path
         id="path42"
         style="fill:#231f20;fill-opacity:1;fill-rule:nonzero;stroke:none"
         d="m 427.461,83.4141 h 12.418 v 37.4839 c 0,4.536 0.945,8.004 2.75,10.508 1.785,2.504 4.535,3.696 7.996,3.696 5.727,0 8.598,-3.817 8.598,-11.34 v 0 -40.3479 h 12.414 v 37.4839 0 c 0,4.536 0.953,8.004 2.75,10.508 1.785,2.504 4.535,3.696 7.992,3.696 5.734,0 8.598,-3.817 8.598,-11.34 v 0 -40.3479 h 12.425 v 40.1089 0 c 0,7.165 -1.433,12.653 -4.304,16.36 -2.981,3.695 -7.403,5.609 -13.375,5.609 -3.942,0 -7.164,-0.949 -9.672,-2.859 -2.5,-2.031 -4.414,-4.305 -5.969,-6.813 -0.594,1.192 -1.312,2.387 -2.152,3.582 -0.825,1.075 -1.91,2.145 -3.094,3.11 -1.199,0.836 -2.633,1.554 -4.188,2.152 -1.546,0.594 -3.457,0.828 -5.488,0.828 -3.816,0 -6.93,-0.949 -9.433,-2.859 -2.504,-2.031 -4.536,-4.426 -5.848,-7.41 v 0 h -0.246 v 0 c 0,0.359 0,1.07 0,2.035 -0.117,0.84 -0.117,1.789 -0.117,2.742 -0.114,0.953 -0.114,1.914 -0.114,2.75 -0.121,0.828 -0.121,1.547 -0.121,1.914 v 0 h -12.293 v 0 c 0.114,-1.68 0.235,-3.469 0.352,-5.379 0.121,-1.906 0.121,-3.937 0.121,-6.211 v 0 -49.6599 0" /><path
         id="path44"
         style="fill:#ffffff;fill-opacity:1;fill-rule:nonzero;stroke:none"
         d="m 194.348,296.934 v 33.437 h 6.683 v 0 c 5.867,0 10.242,-1.363 13.239,-3.953 2.871,-2.738 4.375,-7.105 4.375,-12.973 v 0 0 0 c 0,-5.324 -1.372,-9.281 -4.098,-12.136 -2.731,-2.871 -7.231,-4.375 -13.652,-4.375 v 0 h -6.547 v 0" /><path
         id="path46"
         style="fill:#ffffff;fill-opacity:1;fill-rule:nonzero;stroke:none"
         d="m 258.633,263.641 c -1.227,2.32 -2.035,4.91 -2.449,8.054 -0.543,3.141 -0.825,6.41 -0.825,10.09 0,3.692 0.282,6.965 0.825,10.106 0.414,3.132 1.222,5.726 2.449,8.05 1.242,2.184 2.734,3.954 4.644,5.188 1.782,1.223 4.098,1.902 6.825,1.902 2.73,0 5.046,-0.679 6.953,-1.902 1.785,-1.234 3.289,-3.004 4.511,-5.188 1.227,-2.324 2.047,-4.918 2.594,-8.05 0.406,-3.141 0.68,-6.414 0.68,-10.106 v 0 0 0 c 0,-3.68 -0.274,-6.949 -0.68,-10.09 -0.547,-3.144 -1.367,-5.734 -2.594,-8.054 -1.222,-2.325 -2.726,-4.09 -4.511,-5.321 -1.907,-1.226 -4.223,-1.91 -6.953,-1.91 -2.727,0 -5.043,0.684 -6.825,1.91 -1.91,1.231 -3.402,2.996 -4.644,5.321 v 0" /><path
         id="path48"
         style="fill:#ffffff;fill-opacity:1;fill-rule:nonzero;stroke:none"
         d="m 463.57,287.387 c 0.137,6.414 1.368,11.457 3.688,15.004 2.316,3.414 5.59,5.187 9.683,5.187 8.457,0 12.692,-6.691 12.692,-20.191 v 0 H 463.57 v 0" /><path
         id="path50"
         style="fill:#ffffff;fill-opacity:1;fill-rule:nonzero;stroke:none"
         d="m 196.902,131.16 c -3.828,1.914 -6.808,4.063 -8.839,6.57 -2.149,2.391 -3.219,5.129 -3.219,8.243 0,3.578 1.07,6.445 3.219,8.711 2.031,2.148 4.656,3.23 7.878,3.23 3.469,0 6.215,-1.082 8.122,-3.109 1.914,-2.153 2.863,-4.887 2.863,-8.117 v 0 0 0 c 0,-1.672 -0.231,-3.227 -0.828,-4.653 -0.598,-1.558 -1.317,-2.871 -2.274,-4.183 -0.953,-1.313 -2.031,-2.504 -3.222,-3.59 -1.192,-1.071 -2.383,-2.137 -3.7,-3.102 v 0" /><path
         id="path52"
         style="fill:#ffffff;fill-opacity:1;fill-rule:nonzero;stroke:none"
         d="m 195.105,122.324 c 1.797,-0.945 3.465,-1.91 5.145,-2.855 1.543,-1.086 2.977,-2.156 4.293,-3.469 1.187,-1.312 2.152,-2.746 2.867,-4.297 0.719,-1.676 1.07,-3.582 1.07,-5.734 v 0 0 0 c 0,-4.059 -1.07,-7.3948 -3.222,-9.9104 -2.27,-2.625 -5.254,-3.9414 -9.07,-3.9414 -4.18,0 -7.286,1.3164 -9.555,4.0625 -2.27,2.75 -3.348,5.9683 -3.348,9.9103 0,2.031 0.363,3.82 0.957,5.375 0.602,1.551 1.321,2.976 2.391,4.297 1.078,1.312 2.269,2.386 3.816,3.461 1.438,1.082 2.989,2.031 4.656,3.101 v 0" /><path
         id="path54"
         style="fill:#ffffff;fill-opacity:1;fill-rule:nonzero;stroke:none"
         d="m 251.344,100.961 c -1.789,5.602 -2.75,13.727 -2.75,24.113 0,10.395 0.961,18.504 2.75,24.242 1.793,5.727 5.133,8.598 9.789,8.598 4.773,0 8.125,-2.871 9.906,-8.484 1.805,-5.731 2.75,-13.848 2.75,-24.356 v 0 0 0 c 0,-10.386 -0.945,-18.511 -2.75,-24.113 -1.902,-5.7305 -5.246,-8.5977 -9.906,-8.5977 -4.656,0 -7.996,2.8672 -9.789,8.5977 v 0" /><path
         id="path56"
         style="fill:#ffffff;fill-opacity:1;fill-rule:nonzero;stroke:none"
         d="m 316.051,100.961 c -1.789,5.602 -2.75,13.727 -2.75,24.113 0,10.395 0.961,18.504 2.75,24.242 1.785,5.727 5.133,8.598 9.789,8.598 4.773,0 8.121,-2.871 9.906,-8.484 1.797,-5.731 2.75,-13.848 2.75,-24.356 v 0 0 0 c 0,-10.386 -0.953,-18.511 -2.75,-24.113 -1.906,-5.7305 -5.254,-8.5977 -9.906,-8.5977 -4.656,0 -8.004,2.8672 -9.789,8.5977 v 0" /></g></g></svg>