<?xml version="1.0" encoding="UTF-8" standalone="no"?>
<svg
   xmlns:dc="http://purl.org/dc/elements/1.1/"
   xmlns:cc="http://creativecommons.org/ns#"
   xmlns:rdf="http://www.w3.org/1999/02/22-rdf-syntax-ns#"
   xmlns:svg="http://www.w3.org/2000/svg"
   xmlns="http://www.w3.org/2000/svg"
   viewBox="0 0 91.080002 57.066666"
   height="57.066666"
   width="91.080002"
   xml:space="preserve"
   id="svg2"
   version="1.1"><metadata
     id="metadata8"><rdf:RDF><cc:Work
         rdf:about=""><dc:format>image/svg+xml</dc:format><dc:type
           rdf:resource="http://purl.org/dc/dcmitype/StillImage" /></cc:Work></rdf:RDF></metadata><defs
     id="defs6" /><g
     transform="matrix(1.3333333,0,0,-1.3333333,0,57.066667)"
     id="g10"><g
       transform="scale(0.1)"
       id="g12"><path
         id="path14"
         style="fill:#ffffff;fill-opacity:1;fill-rule:nonzero;stroke:none"
         d="m 1.41797,1.41797 h 680.313 v 425.191 H 1.41797 Z" /><path
         id="path16"
         style="fill:none;stroke:#231f20;stroke-width:2.83500004;stroke-linecap:butt;stroke-linejoin:round;stroke-miterlimit:4;stroke-dasharray:none;stroke-opacity:1"
         d="M 1.41797,1.41797 H 681.73 V 426.609 H 1.41797 V 1.41797" /><path
         id="path18"
         style="fill:#231f20;fill-opacity:1;fill-rule:nonzero;stroke:none"
         d="m 14.8789,49.3516 c 0,-18.8008 15.2149,-34.0235 34.0234,-34.0235 v 0 H 633.949 v 0 c 18.809,0 34.031,15.2227 34.031,34.0235 v 0 329.9534 0 c 0,18.765 -15.222,34.004 -34.031,34.004 v 0 H 48.9023 v 0 c -18.8085,0 -34.0234,-15.239 -34.0234,-34.004 v 0 -329.9534 0" /><path
         id="path20"
         style="fill:#ffffff;fill-opacity:1;fill-rule:nonzero;stroke:none"
         d="m 48.7813,403.004 c -13.1641,0 -23.8086,-10.668 -23.8086,-23.824 v 0 -329.9456 0 c 0,-13.1563 10.6445,-23.8125 23.8086,-23.8125 v 0 H 633.852 v 0 c 13.16,0 23.808,10.6562 23.808,23.8125 v 0 329.9456 0 c 0,13.156 -10.648,23.824 -23.808,23.824 v 0 H 48.7813 v 0" /><path
         id="path22"
         style="fill:#231f20;fill-opacity:1;fill-rule:nonzero;stroke:none"
         d="m 158.156,246.727 h 14.739 v 38.609 h 8.863 v 0 c 9.961,0 17.613,2.457 22.793,7.512 5.043,4.906 7.637,12 7.637,21.14 v 0 0 0 c 0,9.153 -2.594,16.106 -7.778,20.883 -5.18,4.781 -12.277,7.098 -21.148,7.098 v 0 h -25.106 v -95.242 0" /><path
         id="path24"
         style="fill:#231f20;fill-opacity:1;fill-rule:nonzero;stroke:none"
         d="m 227.758,254.223 c 2.594,-2.868 5.73,-5.043 9.414,-6.41 3.555,-1.352 7.375,-2.036 11.473,-2.036 4.085,0 7.914,0.684 11.593,2.036 3.547,1.367 6.688,3.542 9.274,6.41 2.593,2.871 4.785,6.554 6.273,11.054 1.504,4.508 2.332,10.098 2.332,16.508 v 0 0 0 c 0,6.285 -0.828,11.746 -2.332,16.246 -1.488,4.504 -3.68,8.321 -6.273,11.188 -2.586,2.859 -5.727,5.047 -9.274,6.41 -3.679,1.367 -7.508,2.051 -11.593,2.051 -4.098,0 -7.918,-0.684 -11.473,-2.051 -3.684,-1.363 -6.82,-3.551 -9.414,-6.41 -2.59,-2.867 -4.778,-6.684 -6.274,-11.188 -1.504,-4.5 -2.324,-9.961 -2.324,-16.246 0,-6.41 0.82,-12 2.324,-16.508 1.496,-4.5 3.684,-8.183 6.274,-11.054 v 0" /><path
         id="path26"
         style="fill:#231f20;fill-opacity:1;fill-rule:nonzero;stroke:none"
         d="m 297.656,246.727 h 14.196 v 102.336 h -14.196 v -102.336 0" /><path
         id="path28"
         style="fill:#231f20;fill-opacity:1;fill-rule:nonzero;stroke:none"
         d="m 335.52,246.727 h 14.171 v 69.992 H 335.52 v -69.992 0" /><path
         id="path30"
         style="fill:#231f20;fill-opacity:1;fill-rule:nonzero;stroke:none"
         d="m 335.102,330.777 h 15 v 15.145 h -15 v -15.145 0" /><path
         id="path32"
         style="fill:#231f20;fill-opacity:1;fill-rule:nonzero;stroke:none"
         d="m 369.914,246.727 h 46.258 v 11.32 h -31.656 l 30.836,46.258 v 12.414 h -44.481 v -11.321 h 30.156 l -31.113,-46.125 v -12.546 0" /><path
         id="path34"
         style="fill:#231f20;fill-opacity:1;fill-rule:nonzero;stroke:none"
         d="m 437.141,246.727 h 14.187 v 69.992 h -14.187 v -69.992 0" /><path
         id="path36"
         style="fill:#231f20;fill-opacity:1;fill-rule:nonzero;stroke:none"
         d="m 436.73,330.777 h 15.004 v 15.145 H 436.73 v -15.145 0" /><path
         id="path38"
         style="fill:#231f20;fill-opacity:1;fill-rule:nonzero;stroke:none"
         d="m 512.188,246.727 h 12.824 v 0 c -0.137,1.226 -0.407,3 -0.547,5.046 -0.133,2.043 -0.266,4.223 -0.266,6.547 v 0 33.426 0 c 0,4.645 -0.414,8.465 -1.367,11.469 -0.957,3 -2.465,5.461 -4.234,7.5 -1.504,1.781 -3.957,3.41 -7.231,4.914 -3.269,1.367 -7.508,2.051 -12.832,2.051 -4.496,0 -8.457,-0.547 -11.871,-1.645 -3.402,-1.086 -6.547,-2.312 -9.141,-3.816 v 0 l 1.102,-12.141 v 0 c 1.77,1.774 4.359,3.402 7.773,4.906 3.274,1.368 6.821,2.047 10.774,2.047 5.055,0 8.594,-1.363 10.781,-4.093 1.09,-1.368 1.91,-2.86 2.324,-4.5 0.407,-1.774 0.543,-3.68 0.543,-5.872 v 0 -2.863 h -5.054 v 0 c -11.317,0 -20.047,-1.91 -25.918,-5.594 -5.868,-3.816 -8.871,-9.824 -8.871,-18.011 0,-3.278 0.543,-6.141 1.64,-8.735 1.09,-2.593 2.594,-4.644 4.496,-6.41 1.774,-1.773 3.961,-3 6.418,-3.82 2.449,-0.953 5.055,-1.356 7.914,-1.356 5.18,0 9.274,1.078 12.414,3.266 3.008,2.047 5.461,4.504 7.231,7.23 v 0 h 0.277 v 0 c 0,-0.406 0,-1.089 0.137,-2.05 0,-0.946 0,-1.903 0.141,-2.868 0.128,-0.949 0.128,-1.906 0.265,-2.722 0.141,-0.957 0.141,-1.5 0.278,-1.906 v 0" /><path
         id="path40"
         style="fill:#231f20;fill-opacity:1;fill-rule:nonzero;stroke:none"
         d="m 186.281,126.625 c -4.664,-2.027 -8.476,-4.652 -11.347,-7.875 -2.868,-3.344 -4.293,-7.758 -4.293,-13.375 0,-3.227 0.593,-6.3281 1.785,-9.0742 1.074,-2.7461 2.746,-5.25 4.894,-7.2813 2.149,-2.0312 4.774,-3.7031 7.875,-4.7812 3.11,-1.1836 6.567,-1.7774 10.508,-1.7774 3.707,0 7.172,0.4727 10.395,1.6563 3.101,1.082 5.726,2.5195 8.004,4.543 2.261,2.0234 3.937,4.4218 5.25,7.2773 1.191,2.8711 1.785,6.0895 1.785,9.6755 v 0 0 0 c 0,5.254 -1.43,9.668 -4.301,13.254 -2.977,3.457 -6.801,6.207 -11.453,8.238 4.535,2.27 8,5.254 10.262,8.958 2.269,3.582 3.468,7.398 3.468,11.457 0,2.992 -0.597,5.738 -1.672,8.242 -1.199,2.504 -2.867,4.66 -4.898,6.445 -2.031,1.793 -4.535,3.102 -7.285,4.184 -2.863,0.953 -5.969,1.429 -9.309,1.429 -3.582,0 -6.812,-0.476 -9.668,-1.55 -2.875,-1.079 -5.254,-2.629 -7.285,-4.536 -2.031,-1.91 -3.59,-4.183 -4.66,-6.691 -1.07,-2.625 -1.676,-5.492 -1.676,-8.477 0,-4.3 1.082,-8.121 3.34,-11.464 2.277,-3.461 5.617,-6.2 10.281,-8.477 v 0" /><path
         id="path42"
         style="fill:#231f20;fill-opacity:1;fill-rule:nonzero;stroke:none"
         d="m 241.559,94.6289 c 2.027,-3.8242 4.656,-6.8008 7.875,-8.9531 3.226,-2.1524 7.046,-3.2149 11.699,-3.2149 4.66,0 8.597,1.0625 11.82,3.336 3.223,2.1523 5.86,5.1328 7.883,8.9492 2.031,3.8281 3.461,8.3629 4.301,13.4959 0.84,5.133 1.312,10.746 1.312,16.832 v 0 0 0 c 0,6.086 -0.472,11.707 -1.312,16.961 -0.84,5.129 -2.27,9.668 -4.301,13.488 -2.023,3.817 -4.66,6.805 -7.883,9.071 -3.223,2.152 -7.16,3.226 -11.82,3.226 -4.653,0 -8.594,-1.074 -11.817,-3.226 -3.222,-2.266 -5.73,-5.254 -7.757,-9.071 -2.032,-3.82 -3.469,-8.359 -4.297,-13.488 -0.836,-5.254 -1.309,-10.875 -1.309,-16.961 0,-6.086 0.473,-11.699 1.309,-16.832 0.828,-5.254 2.265,-9.7889 4.297,-13.6131 v 0" /><path
         id="path44"
         style="fill:#231f20;fill-opacity:1;fill-rule:nonzero;stroke:none"
         d="m 306.262,94.6289 c 2.031,-3.8242 4.656,-6.8008 7.879,-8.9531 3.222,-2.1524 7.043,-3.2149 11.699,-3.2149 4.66,0 8.594,1.0625 11.82,3.336 3.223,2.1523 5.856,5.1328 7.879,8.9492 2.031,3.8281 3.465,8.3629 4.301,13.4959 0.84,5.133 1.316,10.746 1.316,16.832 v 0 0 0 c 0,6.086 -0.476,11.707 -1.316,16.961 -0.836,5.129 -2.27,9.668 -4.301,13.488 -2.023,3.817 -4.656,6.805 -7.879,9.071 -3.226,2.152 -7.16,3.226 -11.82,3.226 -4.656,0 -8.598,-1.074 -11.817,-3.226 -3.226,-2.266 -5.73,-5.254 -7.761,-9.071 -2.032,-3.82 -3.465,-8.359 -4.293,-13.488 -0.84,-5.254 -1.313,-10.875 -1.313,-16.961 0,-6.086 0.473,-11.699 1.313,-16.832 0.828,-5.254 2.261,-9.7889 4.293,-13.6131 v 0" /><path
         id="path46"
         style="fill:#231f20;fill-opacity:1;fill-rule:nonzero;stroke:none"
         d="m 427.461,83.4141 h 12.418 v 37.4839 c 0,4.536 0.953,8.004 2.75,10.508 1.785,2.504 4.535,3.696 7.996,3.696 5.734,0 8.598,-3.817 8.598,-11.34 v 0 -40.3479 h 12.418 v 37.4839 0 c 0,4.536 0.953,8.004 2.75,10.508 1.781,2.504 4.531,3.696 7.988,3.696 5.738,0 8.598,-3.817 8.598,-11.34 v 0 -40.3479 h 12.425 v 40.1089 0 c 0,7.165 -1.433,12.653 -4.304,16.36 -2.981,3.695 -7.403,5.609 -13.375,5.609 -3.942,0 -7.164,-0.949 -9.668,-2.859 -2.504,-2.031 -4.414,-4.305 -5.965,-6.813 -0.602,1.192 -1.317,2.387 -2.156,3.582 -0.829,1.075 -1.907,2.145 -3.098,3.11 -1.199,0.836 -2.629,1.554 -4.188,2.152 -1.543,0.594 -3.457,0.828 -5.488,0.828 -3.816,0 -6.922,-0.949 -9.433,-2.859 -2.504,-2.031 -4.536,-4.426 -5.848,-7.41 v 0 h -0.238 v 0 c 0,0.359 0,1.07 0,2.035 -0.125,0.84 -0.125,1.789 -0.125,2.742 -0.11,0.953 -0.11,1.914 -0.11,2.75 -0.125,0.828 -0.125,1.547 -0.125,1.914 v 0 h -12.293 v 0 c 0.114,-1.68 0.235,-3.469 0.356,-5.379 0.117,-1.906 0.117,-3.937 0.117,-6.211 v 0 -49.6599 0" /><path
         id="path48"
         style="fill:#ffffff;fill-opacity:1;fill-rule:nonzero;stroke:none"
         d="m 172.895,296.934 v 33.437 h 6.687 v 0 c 5.867,0 10.227,-1.363 13.234,-3.953 2.864,-2.738 4.368,-7.105 4.368,-12.973 v 0 0 0 c 0,-5.324 -1.368,-9.281 -4.098,-12.136 -2.731,-2.871 -7.231,-4.375 -13.641,-4.375 v 0 h -6.55 v 0" /><path
         id="path50"
         style="fill:#ffffff;fill-opacity:1;fill-rule:nonzero;stroke:none"
         d="m 237.172,263.641 c -1.219,2.32 -2.043,4.91 -2.449,8.054 -0.551,3.141 -0.821,6.41 -0.821,10.09 0,3.692 0.27,6.965 0.821,10.106 0.406,3.132 1.23,5.726 2.449,8.05 1.23,2.176 2.734,3.954 4.644,5.188 1.77,1.223 4.09,1.902 6.829,1.902 2.718,0 5.043,-0.679 6.953,-1.902 1.769,-1.234 3.273,-3.012 4.5,-5.188 1.226,-2.324 2.05,-4.918 2.593,-8.05 0.414,-3.141 0.684,-6.414 0.684,-10.106 v 0 0 0 c 0,-3.68 -0.27,-6.949 -0.684,-10.09 -0.543,-3.144 -1.367,-5.734 -2.593,-8.054 -1.227,-2.325 -2.731,-4.09 -4.5,-5.321 -1.91,-1.226 -4.235,-1.91 -6.953,-1.91 -2.739,0 -5.059,0.684 -6.829,1.91 -1.91,1.231 -3.414,2.996 -4.644,5.321 v 0" /><path
         id="path52"
         style="fill:#ffffff;fill-opacity:1;fill-rule:nonzero;stroke:none"
         d="m 510.82,280.977 v -6.286 c 0,-5.586 -1.226,-10.097 -3.687,-13.5 -2.59,-3.554 -6.274,-5.324 -11.317,-5.324 -3.691,0 -6.421,1.09 -8.332,3.137 -1.91,2.047 -2.859,4.906 -2.859,8.32 0,4.641 1.773,8.051 5.453,10.375 3.688,2.321 9.016,3.403 15.969,3.403 0.82,0 1.641,0 2.59,0 0.957,0 1.773,0 2.183,-0.125 v 0" /><path
         id="path54"
         style="fill:#ffffff;fill-opacity:1;fill-rule:nonzero;stroke:none"
         d="m 196.906,131.16 c -3.832,1.914 -6.808,4.063 -8.84,6.57 -2.148,2.391 -3.222,5.129 -3.222,8.243 0,3.578 1.074,6.445 3.222,8.711 2.032,2.148 4.653,3.23 7.883,3.23 3.461,0 6.207,-1.082 8.117,-3.109 1.911,-2.153 2.864,-4.887 2.864,-8.117 v 0 0 0 c 0,-1.672 -0.235,-3.227 -0.832,-4.653 -0.594,-1.558 -1.313,-2.871 -2.274,-4.183 -0.949,-1.313 -2.027,-2.504 -3.222,-3.59 -1.192,-1.071 -2.383,-2.137 -3.696,-3.102 v 0" /><path
         id="path56"
         style="fill:#ffffff;fill-opacity:1;fill-rule:nonzero;stroke:none"
         d="m 195.109,122.324 c 1.797,-0.945 3.461,-1.91 5.141,-2.855 1.547,-1.086 2.984,-2.156 4.293,-3.469 1.191,-1.312 2.152,-2.746 2.871,-4.297 0.715,-1.676 1.066,-3.582 1.066,-5.734 v 0 0 0 c 0,-4.059 -1.066,-7.3948 -3.222,-9.9104 -2.27,-2.625 -5.254,-3.9414 -9.07,-3.9414 -4.18,0 -7.286,1.3164 -9.555,4.0625 -2.262,2.75 -3.348,5.9683 -3.348,9.9103 0,2.031 0.367,3.82 0.965,5.375 0.594,1.551 1.313,2.976 2.383,4.297 1.078,1.312 2.269,2.386 3.816,3.461 1.438,1.082 2.989,2.031 4.66,3.101 v 0" /><path
         id="path58"
         style="fill:#ffffff;fill-opacity:1;fill-rule:nonzero;stroke:none"
         d="m 251.344,100.961 c -1.789,5.602 -2.75,13.727 -2.75,24.113 0,10.395 0.961,18.504 2.75,24.242 1.793,5.727 5.136,8.598 9.789,8.598 4.781,0 8.125,-2.871 9.914,-8.484 1.797,-5.731 2.746,-13.848 2.746,-24.356 v 0 0 0 c 0,-10.386 -0.949,-18.511 -2.746,-24.113 -1.91,-5.7305 -5.254,-8.5977 -9.914,-8.5977 -4.653,0 -7.996,2.8672 -9.789,8.5977 v 0" /><path
         id="path60"
         style="fill:#ffffff;fill-opacity:1;fill-rule:nonzero;stroke:none"
         d="m 316.051,100.961 c -1.789,5.602 -2.746,13.727 -2.746,24.113 0,10.395 0.957,18.504 2.746,24.242 1.793,5.727 5.133,8.598 9.789,8.598 4.781,0 8.121,-2.871 9.914,-8.484 1.789,-5.731 2.742,-13.848 2.742,-24.356 v 0 0 0 c 0,-10.386 -0.953,-18.511 -2.742,-24.113 -1.91,-5.7305 -5.254,-8.5977 -9.914,-8.5977 -4.656,0 -7.996,2.8672 -9.789,8.5977 v 0" /></g></g></svg>