<?xml version="1.0" encoding="UTF-8" standalone="no"?>
<svg
   xmlns:dc="http://purl.org/dc/elements/1.1/"
   xmlns:cc="http://creativecommons.org/ns#"
   xmlns:rdf="http://www.w3.org/1999/02/22-rdf-syntax-ns#"
   xmlns:svg="http://www.w3.org/2000/svg"
   xmlns="http://www.w3.org/2000/svg"
   viewBox="0 0 94.493332 94.493332"
   height="94.493332"
   width="94.493332"
   xml:space="preserve"
   id="svg2"
   version="1.1"><metadata
     id="metadata8"><rdf:RDF><cc:Work
         rdf:about=""><dc:format>image/svg+xml</dc:format><dc:type
           rdf:resource="http://purl.org/dc/dcmitype/StillImage" /></cc:Work></rdf:RDF></metadata><defs
     id="defs6" /><g
     transform="matrix(1.3333333,0,0,-1.3333333,0,94.493333)"
     id="g10"><g
       transform="scale(0.1)"
       id="g12"><path
         id="path14"
         style="fill:#ee2c30;fill-opacity:1;fill-rule:nonzero;stroke:none"
         d="m 353.734,430.742 -145.472,22.985 v 0 c -4.637,0.492 -8.891,2.816 -11.832,6.464 -2.735,3.372 -4.114,7.649 -3.879,11.993 v 0 l 0.183,105.687 v 0 c -0.101,3.793 1.059,7.5 3.325,10.543 2.671,3.598 6.668,5.961 11.097,6.59 v 0 l 147.121,23.117 149.348,-24.109 v 0 c 3.074,-1 5.801,-2.856 7.852,-5.34 2.793,-3.383 4.16,-7.711 3.816,-12.098 v 0 l 0.09,-105.488 v 0 c -0.031,-4.762 -1.953,-9.297 -5.383,-12.625 -2.805,-2.734 -6.434,-4.453 -10.332,-4.898 v 0 L 353.734,430.742 v 0 m -31.949,33.266 h 65.129 v 15.207 H 342.133 L 346.57,484 v 0 c 5.305,5.82 10.422,11.805 15.207,17.949 4.61,5.981 8.723,12.137 12.305,18.125 3.594,5.981 6.328,11.793 8.379,17.61 2.051,5.64 3.074,11.121 3.074,16.238 0,4.277 -0.672,8.207 -1.875,11.965 -1.375,3.773 -3.426,7.008 -5.984,9.914 -2.735,2.742 -6.153,4.957 -10.086,6.676 -4.106,1.531 -8.891,2.386 -14.352,2.386 -5.64,0 -10.941,-0.679 -15.55,-1.879 -4.79,-1.359 -9.243,-3.078 -13.172,-5.132 v 0 l 1.882,-17.434 v 0 c 2.743,2.227 6.157,4.445 10.086,6.336 3.93,1.879 8.383,2.906 13.34,2.906 5.278,0 9.555,-1.722 12.461,-5.305 2.91,-3.589 4.453,-8.039 4.453,-13.675 0,-3.93 -0.847,-8.211 -2.578,-12.832 -1.875,-4.61 -4.258,-9.567 -7.512,-14.528 -3.242,-5.129 -6.996,-10.429 -11.273,-16.07 -4.437,-5.633 -9.238,-11.445 -14.523,-17.43 v 0 l -9.067,-10.437 v -15.375 0" /><path
         id="path16"
         style="fill:#231f20;fill-opacity:1;fill-rule:nonzero;stroke:none"
         d="m 171.355,456.297 c 0,-10.535 3.727,-19.531 11.18,-26.981 7.449,-7.449 16.445,-11.175 26.981,-11.175 v 0 h 289.605 v 0 c 10.535,0 19.531,3.726 26.984,11.175 7.45,7.45 11.168,16.446 11.168,26.981 v 0 136.285 0 c 0,10.539 -3.718,19.527 -11.168,26.977 -7.453,7.449 -16.449,11.168 -26.984,11.168 v 0 H 209.516 v 0 c -10.536,0 -19.532,-3.719 -26.981,-11.168 -7.453,-7.45 -11.18,-16.438 -11.18,-26.977 v 0 -136.285 0 m 4.075,-0.012 c 0,-18.82 15.254,-34.074 34.074,-34.074 v 0 h 289.598 v 0 c 18.828,0 34.074,15.254 34.074,34.074 v 0 136.281 0 c 0,18.817 -15.246,34.059 -34.074,34.059 v 0 H 209.504 v 0 c -18.82,0 -34.074,-15.242 -34.074,-34.059 v 0 -136.281 0" /><path
         id="path18"
         style="fill:#231f20;fill-opacity:1;fill-rule:nonzero;stroke:none"
         d="M 0,0 V 708.664 H 708.66 V 0 H 0 M 2.87109,2.83984 H 705.859 V 705.832 H 2.87109 V 2.83984 M 110.559,87.9883 H 245.953 V 119.598 H 152.82 l 9.25,9.933 v 0 c 11.02,12.098 21.676,24.512 31.645,37.336 9.578,12.422 18.109,25.231 25.562,37.653 7.493,12.453 13.172,24.515 17.422,36.613 4.246,11.738 6.41,23.078 6.41,33.73 0,8.895 -1.437,17.059 -3.925,24.879 -2.84,7.844 -7.09,14.578 -12.414,20.625 -5.692,5.688 -12.821,10.297 -20.993,13.86 -8.531,3.203 -18.468,4.968 -29.843,4.968 -11.735,0 -22.754,-1.402 -32.329,-3.886 -9.972,-2.848 -19.191,-6.407 -27.359,-10.696 v 0 l 3.887,-36.215 v 0 c 5.687,4.61 12.816,9.219 20.992,13.141 8.168,3.891 17.387,6.047 27.719,6.047 11.015,0 19.867,-3.563 25.918,-11.012 6.051,-7.492 9.254,-16.711 9.254,-28.441 0,-8.172 -1.766,-17.07 -5.328,-26.637 -3.926,-9.621 -8.891,-19.914 -15.625,-30.207 -6.77,-10.656 -14.583,-21.668 -23.473,-33.41 -9.254,-11.738 -19.192,-23.836 -30.203,-36.25 v 0 l -18.828,-21.676 v -31.9647 0 m 164.015,0 h 135.36 v 31.6097 h -93.098 l 9.254,9.933 v 0 c 11.015,12.098 21.676,24.512 31.605,37.336 9.578,12.422 18.106,25.231 25.567,37.653 7.48,12.453 13.176,24.515 17.422,36.613 4.25,11.738 6.406,23.078 6.406,33.73 0,8.895 -1.445,17.059 -3.926,24.879 -2.844,7.844 -7.09,14.578 -12.422,20.625 -5.683,5.688 -12.812,10.297 -20.984,13.86 -8.535,3.203 -18.434,4.968 -29.809,4.968 -11.734,0 -22.754,-1.402 -32.328,-3.886 -9.973,-2.848 -19.187,-6.407 -27.363,-10.696 v 0 l 3.89,-36.215 v 0 c 5.692,4.61 12.817,9.219 20.989,13.141 8.176,3.891 17.386,6.047 27.718,6.047 11.016,0 19.875,-3.563 25.883,-11.012 6.047,-7.492 9.25,-16.711 9.25,-28.441 0,-8.172 -1.758,-17.07 -5.32,-26.637 -3.93,-9.621 -8.859,-19.914 -15.594,-30.207 -6.765,-10.656 -14.578,-21.668 -23.469,-33.41 -9.25,-11.738 -19.187,-23.836 -30.207,-36.25 v 0 l -18.824,-21.676 v -31.9647 0 m 219.02,52.1957 c -5.321,16.711 -8.164,40.902 -8.164,71.789 0,30.918 2.843,55.078 8.164,72.136 5.332,17.071 15.304,25.602 29.16,25.602 14.187,0 24.16,-8.531 29.492,-25.238 5.32,-17.059 8.164,-41.219 8.164,-72.5 v 0 0 0 c 0,-30.887 -2.844,-55.078 -8.164,-71.789 -5.691,-17.028 -15.625,-25.555 -29.492,-25.555 -13.856,0 -23.828,8.527 -29.16,25.555 v 0 m -29.121,-18.829 c 6.047,-11.375 13.859,-20.23 23.437,-26.6402 9.61,-6.4062 20.988,-9.539 34.844,-9.539 13.867,0 25.566,3.1328 35.176,9.9023 9.582,6.4059 17.39,15.2619 23.437,26.6409 6.043,11.375 10.332,24.871 12.813,40.176 2.492,15.265 3.886,31.972 3.886,50.078 v 0 0 0 c 0,18.144 -1.394,34.843 -3.886,50.468 -2.481,15.266 -6.77,28.801 -12.813,40.141 -6.047,11.379 -13.855,20.27 -23.437,27.039 -9.61,6.371 -21.309,9.574 -35.176,9.574 -13.856,0 -25.598,-3.203 -35.203,-9.574 -9.571,-6.769 -17.031,-15.66 -23.078,-27.039 -6.043,-11.34 -10.293,-24.875 -12.813,-40.141 -2.488,-15.625 -3.887,-32.324 -3.887,-50.468 0,-18.106 1.399,-34.813 3.887,-50.078 2.52,-15.665 6.77,-29.161 12.813,-40.54 v 0" /></g></g></svg>