<?xml version="1.0" encoding="UTF-8" standalone="no"?>
<svg
   xmlns:dc="http://purl.org/dc/elements/1.1/"
   xmlns:cc="http://creativecommons.org/ns#"
   xmlns:rdf="http://www.w3.org/1999/02/22-rdf-syntax-ns#"
   xmlns:svg="http://www.w3.org/2000/svg"
   xmlns="http://www.w3.org/2000/svg"
   viewBox="0 0 94.493332 56.693333"
   height="56.693333"
   width="94.493332"
   xml:space="preserve"
   id="svg2"
   version="1.1"><metadata
     id="metadata8"><rdf:RDF><cc:Work
         rdf:about=""><dc:format>image/svg+xml</dc:format><dc:type
           rdf:resource="http://purl.org/dc/dcmitype/StillImage" /></cc:Work></rdf:RDF></metadata><defs
     id="defs6" /><g
     transform="matrix(1.3333333,0,0,-1.3333333,0,56.693333)"
     id="g10"><g
       transform="scale(0.1)"
       id="g12"><path
         id="path14"
         style="fill:#231f20;fill-opacity:1;fill-rule:nonzero;stroke:none"
         d="M 0,0 V 425.199 H 708.66 V 0 H 0 M 14.1523,14.1875 H 694.484 V 411.055 H 14.1523 V 14.1875" /><path
         id="path16"
         style="fill:#231f20;fill-opacity:1;fill-rule:nonzero;stroke:none"
         d="M 71.9297,92.3828 H 207.324 V 123.984 H 114.23 l 9.25,9.942 v 0 c 11.016,12.09 21.672,24.515 31.61,37.328 9.613,12.422 18.144,25.242 25.594,37.656 7.453,12.457 13.14,24.516 17.386,36.613 4.289,11.739 6.414,23.075 6.414,33.735 0,8.89 -1.406,17.058 -3.894,24.871 -2.84,7.851 -7.121,14.582 -12.453,20.633 -5.692,5.687 -12.782,10.297 -20.953,13.863 -8.532,3.203 -18.5,4.965 -29.844,4.965 -11.735,0 -22.75,-1.406 -32.363,-3.887 -9.9379,-2.848 -19.1918,-6.41 -27.3598,-10.695 v 0 l 3.9258,-36.215 v 0 c 5.6836,4.609 12.7773,9.215 20.949,13.141 8.172,3.886 17.426,6.046 27.723,6.046 11.015,0 19.906,-3.562 25.953,-11.015 6.051,-7.488 9.219,-16.703 9.219,-28.442 0,-8.171 -1.762,-17.066 -5.328,-26.64 -3.891,-9.61 -8.856,-19.906 -15.625,-30.203 -6.766,-10.657 -14.579,-21.672 -23.438,-33.41 -9.254,-11.731 -19.187,-23.829 -30.203,-36.254 v 0 L 71.9297,124.344 v -31.9612 0 M 247.211,175.863 h 66.422 v 126.145 h -0.684 L 247.211,175.863 m -29.516,-29.488 h 95.938 V 92.3828 h 35.566 v 53.9922 h 27.324 v 29.488 H 349.199 V 340.387 H 305.137 L 217.695,181.914 V 146.375 M 414.941,92.3828 h 38.372 V 135.363 H 414.941 V 92.3828 m 81.426,7.0899 c 6.77,-2.4805 14.582,-4.9727 23.84,-6.7657 8.856,-2.0898 18.828,-3.1367 29.121,-3.1367 26.317,0 46.551,7.7735 60.77,23.0347 14.218,15.305 21.308,36.262 21.308,62.899 v 0 0 0 c 0,12.453 -1.765,23.113 -5.332,32.687 -3.886,9.254 -8.886,17.063 -14.902,23.473 -6.043,6.375 -13.496,11.379 -21.668,14.582 -8.535,3.168 -17.422,4.609 -26.68,4.609 -5.683,0 -11.015,-0.363 -15.625,-0.722 -4.961,-0.719 -9.25,-1.762 -12.453,-2.844 v 0 62.891 h 84.961 v 30.207 H 499.934 v -126.504 0 c 6.043,1.797 12.461,3.562 18.828,5.324 6.406,1.797 13.855,2.488 22.031,2.488 17.07,0 29.844,-4.609 38.738,-13.504 8.535,-8.855 12.785,-20.949 12.785,-35.531 0,-15.262 -4.25,-27.719 -13.144,-37.297 -8.899,-9.972 -20.957,-14.945 -36.25,-14.945 -8.859,0 -17.031,1.449 -24.524,3.926 -7.449,2.492 -14.179,5.332 -19.871,8.535 v 0 l -2.16,-33.4063 v 0" /></g></g></svg>