<?xml version="1.0" encoding="UTF-8" standalone="no"?>
<svg
   xmlns:dc="http://purl.org/dc/elements/1.1/"
   xmlns:cc="http://creativecommons.org/ns#"
   xmlns:rdf="http://www.w3.org/1999/02/22-rdf-syntax-ns#"
   xmlns:svg="http://www.w3.org/2000/svg"
   xmlns="http://www.w3.org/2000/svg"
   viewBox="0 0 136.44 193.13333"
   height="193.13333"
   width="136.44"
   xml:space="preserve"
   id="svg2"
   version="1.1"><metadata
     id="metadata8"><rdf:RDF><cc:Work
         rdf:about=""><dc:format>image/svg+xml</dc:format><dc:type
           rdf:resource="http://purl.org/dc/dcmitype/StillImage" /></cc:Work></rdf:RDF></metadata><defs
     id="defs6" /><g
     transform="matrix(1.3333333,0,0,-1.3333333,0,193.13333)"
     id="g10"><g
       transform="scale(0.1)"
       id="g12"><path
         id="path14"
         style="fill:#ffffff;fill-opacity:1;fill-rule:nonzero;stroke:none"
         d="M 1.41797,1.41797 H 1021.888 V 1447.078 H 1.41797 Z" /><path
         id="path16"
         style="fill:none;stroke:#231f20;stroke-width:2.83500004;stroke-linecap:butt;stroke-linejoin:miter;stroke-miterlimit:4;stroke-dasharray:none;stroke-opacity:1"
         d="M 1.41797,1.41797 H 1021.89 V 1447.08 H 1.41797 V 1.41797" /><path
         id="path18"
         style="fill:#1a67bb;fill-opacity:1;fill-rule:nonzero;stroke:none"
         d="m 18.457,17.3164 h 986.449 v 1412.64 H 18.457 Z" /><path
         id="path20"
         style="fill:#ffffff;fill-opacity:1;fill-rule:nonzero;stroke:none"
         d="m 197.004,77.9414 h 629.289 v 340.156 H 197.004 Z" /><path
         id="path22"
         style="fill:#ffffff;fill-opacity:1;fill-rule:nonzero;stroke:none"
         d="M 197.004,452.121 H 826.293 V 749.766 H 197.004 Z" /><path
         id="path24"
         style="fill:#ffffff;fill-opacity:1;fill-rule:nonzero;stroke:none"
         d="m 168.23,1191.98 h 27.629 v 80.34 h 54.754 v 22.76 h -54.754 v 52.71 h 57.305 v 22.76 H 168.23 v -178.57 0" /><path
         id="path26"
         style="fill:#ffffff;fill-opacity:1;fill-rule:nonzero;stroke:none"
         d="m 275.543,1370.55 v -114.11 c 0,-8.69 0.492,-16.12 1.766,-22.25 1.3,-6.39 3.332,-12.29 6.418,-17.9 4.339,-8.19 10.996,-14.59 19.441,-19.21 8.441,-4.86 18.664,-7.13 30.695,-7.13 12.032,0 22.266,2.27 30.711,7.13 8.426,4.86 15.078,11.28 19.442,19.46 3.07,5.62 5.121,11.52 6.394,17.65 1.274,6.13 1.793,13.56 1.793,22.25 v 0 114.11 h -27.629 v -115.91 0 c 0,-14.58 -2.566,-25.05 -7.687,-31.96 -5.379,-6.91 -13.047,-10.5 -23.024,-10.5 -20.461,0 -30.695,14.08 -30.695,42.46 v 0 115.91 h -27.625 v 0" /><path
         id="path28"
         style="fill:#ffffff;fill-opacity:1;fill-rule:nonzero;stroke:none"
         d="m 427.152,1191.98 h 27.621 v 78.8 h 8.688 v 0 c 7.43,0 13.066,-1.3 17.148,-4.1 3.848,-2.81 7.172,-7.93 9.465,-15.34 v 0 l 19.199,-59.36 h 29.422 l -24.066,69.84 v 0 c -2.289,6.64 -5.098,11.25 -8.184,14.08 -3.324,2.55 -7.148,4.34 -11.511,5.12 v 0 0.5 0 c 11.769,2.31 20.476,7.17 26.351,14.83 5.899,7.69 8.699,16.9 8.699,27.63 0,8.19 -1.269,15.1 -3.836,21 -2.55,5.87 -6.144,10.73 -10.738,14.57 -4.605,3.85 -9.98,6.66 -16.379,8.45 -6.39,1.79 -13.562,2.55 -21.226,2.55 v 0 h -50.653 v -178.57 0" /><path
         id="path30"
         style="fill:#ffffff;fill-opacity:1;fill-rule:nonzero;stroke:none"
         d="m 566.684,1191.98 h 27.629 v 85.19 h 0.761 l 57.821,-85.19 h 34.531 l -68.809,94.4 63.457,84.17 h -32.246 l -54.754,-76.49 h -0.761 v 76.49 h -27.629 v -178.57 0" /><path
         id="path32"
         style="fill:#ffffff;fill-opacity:1;fill-rule:nonzero;stroke:none"
         d="m 706.996,1191.98 h 27.629 l 13.563,44.76 h 64.718 l 13.563,-44.76 h 28.664 l -58.078,178.57 h -30.203 l -59.856,-178.57 v 0" /><path
         id="path34"
         style="fill:#ffffff;fill-opacity:1;fill-rule:nonzero;stroke:none"
         d="m 197.004,783.766 h 629.289 v 340.156 H 197.004 Z" /><path
         id="path36"
         style="fill:#ee2c30;fill-opacity:1;fill-rule:nonzero;stroke:none"
         d="m 556.793,111.965 1.668,0.105 1.594,0.325 1.582,0.515 1.465,0.695 1.386,0.887 1.25,1.016 1.141,1.203 0.996,1.348 0.859,1.57 0.637,1.691 0.379,1.7 0.176,1.777 -0.067,1.746 -0.304,1.75 -0.535,1.707 -0.782,1.641 -145.859,257.754 -0.973,1.535 -1.168,1.355 -1.316,1.211 -1.445,1.016 -1.559,0.859 -1.66,0.637 -1.754,0.43 -1.813,0.214 -1.984,-0.05 -1.945,-0.321 -1.86,-0.578 -1.75,-0.801 -1.621,-1.062 -1.488,-1.25 -1.297,-1.469 -1.098,-1.687 -147.273,-257.754 -0.773,-1.641 -0.563,-1.707 -0.305,-1.75 -0.062,-1.766 0.172,-1.796 0.41,-1.731 0.625,-1.68 0.887,-1.601 0.992,-1.356 1.125,-1.191 1.273,-1.035 1.383,-0.86 1.492,-0.675 1.555,-0.52 1.621,-0.301 1.656,-0.105 h 294.93" /><path
         id="path38"
         style="fill:#ffffff;fill-opacity:1;fill-rule:nonzero;stroke:none"
         d="M 532.641,138.418 409.094,353.965 286.469,138.574 532.641,138.418" /><path
         id="path40"
         style="fill:#1a67bb;fill-opacity:1;fill-rule:nonzero;stroke:none"
         d="m 454.773,1292.01 v 56.79 h 15.598 v 0 c 9.484,0 17.152,-2.03 22.77,-6.14 5.375,-4.08 8.207,-11.25 8.207,-21.23 v 0 0 0 c 0,-8.44 -2.575,-15.61 -7.692,-20.97 -5.375,-5.64 -13.047,-8.45 -23.543,-8.45 v 0 h -15.34 v 0" /><path
         id="path42"
         style="fill:#1a67bb;fill-opacity:1;fill-rule:nonzero;stroke:none"
         d="m 754.82,1259.01 26.375,86.22 h 0.5 l 24.813,-86.22 H 754.82 v 0" /><path
         id="path44"
         style="fill:#ee2c30;fill-opacity:1;fill-rule:nonzero;stroke:none"
         d="m 205.191,791.93 h 612.273 v 323.156 H 205.191 Z" /><path
         id="path46"
         style="fill:#ffffff;fill-opacity:1;fill-rule:nonzero;stroke:none"
         d="m 304.723,1017.78 -0.52,-8.27 v 0 c 1.445,-0.59 3.504,-1.19 6.07,-1.8 2.547,-0.58 5.188,-0.93 7.84,-0.93 6.481,0 11.34,1.8 14.582,5.29 3.239,3.51 4.86,8.54 4.86,15 v 0 34.95 0 c 0,1.29 0.086,2.48 0.172,3.76 0.086,1.27 0.086,2.48 0.171,3.67 v 0 h -8.187 v 0 c 0,-0.27 0,-0.78 0,-1.36 -0.082,-0.61 -0.082,-1.28 -0.168,-1.97 -0.09,-0.69 -0.09,-1.28 -0.09,-1.88 -0.09,-0.6 -0.09,-1.1 -0.09,-1.36 v 0 h -0.258 v 0 c -1.097,1.96 -2.546,3.67 -4.339,5.12 -1.793,1.36 -4.02,2.05 -6.739,2.05 -2.656,0 -5.035,-0.52 -6.996,-1.62 -1.968,-1.12 -3.672,-2.57 -4.945,-4.53 -1.277,-1.95 -2.293,-4.35 -2.898,-7.07 -0.692,-2.83 -1.016,-5.9 -1.016,-9.31 0,-4.08 0.41,-7.49 1.363,-10.31 0.84,-2.82 1.945,-5.11 3.414,-6.82 1.446,-1.79 3.067,-3 4.86,-3.75 1.789,-0.78 3.652,-1.17 5.527,-1.17 2.98,0 5.379,0.65 7.172,2.09 1.793,1.39 3.242,3.1 4.34,5.21 v 0 h 0.175 v -5.45 0 c 0,-1.76 -0.175,-3.56 -0.5,-5.18 -0.433,-1.62 -1.035,-3 -1.878,-4.19 -0.954,-1.19 -2.137,-2.13 -3.672,-2.89 -1.532,-0.69 -3.5,-1.02 -5.809,-1.02 -2.375,0 -4.687,0.41 -6.976,1.19 -2.313,0.84 -4.102,1.71 -5.465,2.55 v 0" /><path
         id="path48"
         style="fill:#ffffff;fill-opacity:1;fill-rule:nonzero;stroke:none"
         d="m 356.41,1045.06 h 24.992 v 2.98 c 0,3.84 -0.429,7.09 -1.187,9.89 -0.777,2.81 -1.879,5.12 -3.324,6.91 -1.453,1.8 -3.243,3.07 -5.211,3.91 -2.051,0.87 -4.274,1.3 -6.653,1.3 -2.718,0 -5.203,-0.52 -7.339,-1.62 -2.204,-1.12 -4.083,-2.74 -5.536,-4.71 -1.445,-2.02 -2.656,-4.43 -3.406,-7.24 -0.781,-2.8 -1.191,-5.89 -1.191,-9.22 0,-3.15 0.41,-6.13 1.191,-8.85 0.75,-2.75 1.875,-5.03 3.496,-7 1.531,-1.96 3.5,-3.5 5.871,-4.6 2.399,-1.17 5.207,-1.69 8.364,-1.69 2.722,0 5.203,0.26 7.339,0.82 2.122,0.61 3.825,1.21 5.278,1.79 v 0 l -0.41,7.43 v 0 c -1.125,-0.77 -2.575,-1.53 -4.282,-2.3 -1.789,-0.76 -3.91,-1.19 -6.476,-1.19 -4.082,0 -6.996,1.1 -8.793,3.41 -1.77,2.21 -2.723,5.53 -2.723,9.98 v 0" /><path
         id="path50"
         style="fill:#ffffff;fill-opacity:1;fill-rule:nonzero;stroke:none"
         d="m 390.625,1027.39 c 1.363,-0.58 3.066,-1.19 5.188,-1.62 2.046,-0.39 4.359,-0.65 6.824,-0.65 4.945,0 8.703,1.17 11.34,3.65 2.566,2.46 3.839,5.62 3.839,9.55 v 0 0 0 c 0,2.64 -0.773,4.78 -2.218,6.39 -1.535,1.62 -3.567,3.24 -6.223,4.69 v 0 l -3.848,2.14 v 0 c -1.941,1.1 -3.386,2.05 -4.511,2.98 -1.102,0.87 -1.621,2.05 -1.621,3.5 0,1.53 0.519,2.81 1.621,3.76 1.125,0.93 2.746,1.36 4.945,1.36 1.793,0 3.496,-0.17 4.945,-0.52 1.449,-0.43 2.809,-0.84 4.02,-1.36 v 0 l 0.429,7.17 v 0 c -0.945,0.32 -2.218,0.67 -3.929,1.1 -1.793,0.35 -3.844,0.52 -6.133,0.52 -2.227,0 -4.188,-0.34 -5.984,-1.03 -1.793,-0.68 -3.329,-1.63 -4.602,-2.73 -1.273,-1.19 -2.309,-2.57 -2.977,-4.01 -0.695,-1.54 -1.042,-3.16 -1.042,-4.78 0,-1.54 0.257,-2.89 0.695,-4.08 0.43,-1.21 1.015,-2.22 1.793,-3.15 0.754,-0.95 1.621,-1.71 2.719,-2.4 1.121,-0.76 2.312,-1.45 3.671,-2.14 v 0 l 4.606,-2.29 v 0 c 1.961,-0.95 3.324,-1.96 4.101,-2.98 0.668,-1.04 1.016,-2.14 1.016,-3.25 0,-1.7 -0.672,-2.99 -2.055,-3.83 -1.359,-0.96 -3.242,-1.37 -5.531,-1.37 -2.137,0 -4.187,0.33 -5.98,1.11 -1.793,0.69 -3.325,1.36 -4.598,1.96 v 0 l -0.5,-7.69 v 0" /><path
         id="path52"
         style="fill:#ffffff;fill-opacity:1;fill-rule:nonzero;stroke:none"
         d="m 456.461,1026.89 -0.492,7.5 v 0 c -0.953,-0.58 -2.231,-1.1 -3.672,-1.53 -1.453,-0.44 -2.984,-0.67 -4.43,-0.67 -3.847,0 -6.738,1.35 -8.797,4.08 -2.136,2.72 -3.152,6.39 -3.152,10.99 0,5.38 1.016,9.31 3.07,11.86 2.051,2.58 4.95,3.85 8.703,3.85 1.622,0 3.071,-0.18 4.344,-0.61 1.278,-0.41 2.399,-0.84 3.496,-1.45 v 0 l 0.438,7.43 v 0 c -1.125,0.41 -2.399,0.84 -4.02,1.19 -1.621,0.35 -3.242,0.52 -4.859,0.52 -3.328,0 -6.309,-0.52 -8.86,-1.62 -2.57,-1.12 -4.71,-2.74 -6.414,-4.71 -1.703,-2.02 -2.976,-4.43 -3.824,-7.24 -0.863,-2.8 -1.273,-5.81 -1.273,-9.13 0,-3.07 0.41,-5.96 1.187,-8.68 0.758,-2.75 2.055,-5.13 3.672,-7.09 1.621,-1.97 3.652,-3.58 6.219,-4.69 2.469,-1.18 5.445,-1.77 8.859,-1.77 1.879,0 3.672,0.18 5.461,0.52 1.793,0.39 3.242,0.82 4.344,1.25 v 0" /><path
         id="path54"
         style="fill:#ffffff;fill-opacity:1;fill-rule:nonzero;stroke:none"
         d="m 464.906,1025.71 h 8.86 v 25.92 c 0,3.41 0.687,6.13 2.136,8.1 1.36,1.97 3.414,2.89 6.223,2.89 2.309,0 3.93,-0.75 5.027,-2.29 1.016,-1.56 1.539,-4.02 1.539,-7.43 v 0 -27.19 h 8.875 v 29.24 0 c 0,4.6 -1.039,8.28 -3.062,11 -2.059,2.72 -5.293,4.1 -9.746,4.1 -2.895,0 -5.184,-0.69 -6.805,-1.96 -1.707,-1.37 -3.09,-2.81 -4.015,-4.45 v 0 h -0.172 v 26.02 h -8.86 v -63.95 0" /><path
         id="path56"
         style="fill:#ffffff;fill-opacity:1;fill-rule:nonzero;stroke:none"
         d="m 505.277,1025.71 h 8.86 v 63.95 h -8.86 v -63.95 0" /><path
         id="path58"
         style="fill:#ffffff;fill-opacity:1;fill-rule:nonzero;stroke:none"
         d="m 529.879,1030.39 c 1.621,-1.79 3.582,-3.15 5.898,-4.01 2.207,-0.82 4.598,-1.26 7.149,-1.26 2.566,0 4.949,0.44 7.254,1.26 2.226,0.86 4.172,2.22 5.793,4.01 1.621,1.8 3.007,4.09 3.933,6.9 0.93,2.82 1.446,6.32 1.446,10.32 v 0 0 0 c 0,3.93 -0.516,7.34 -1.446,10.15 -0.926,2.81 -2.312,5.21 -3.933,7 -1.621,1.79 -3.567,3.15 -5.793,3.99 -2.305,0.87 -4.688,1.3 -7.254,1.3 -2.551,0 -4.942,-0.43 -7.149,-1.3 -2.316,-0.84 -4.277,-2.2 -5.898,-3.99 -1.621,-1.79 -2.981,-4.19 -3.906,-7 -0.95,-2.81 -1.446,-6.22 -1.446,-10.15 0,-4 0.496,-7.5 1.446,-10.32 0.925,-2.81 2.285,-5.1 3.906,-6.9 v 0" /><path
         id="path60"
         style="fill:#ffffff;fill-opacity:1;fill-rule:nonzero;stroke:none"
         d="m 569.535,1027.39 c 1.367,-0.58 3.067,-1.19 5.188,-1.62 2.05,-0.39 4.363,-0.65 6.824,-0.65 4.941,0 8.703,1.17 11.34,3.65 2.566,2.46 3.847,5.62 3.847,9.55 v 0 0 0 c 0,2.64 -0.781,4.78 -2.226,6.39 -1.535,1.62 -3.567,3.24 -6.223,4.69 v 0 l -3.847,2.14 v 0 c -1.942,1.1 -3.387,2.05 -4.512,2.98 -1.102,0.87 -1.621,2.05 -1.621,3.5 0,1.53 0.519,2.81 1.621,3.76 1.125,0.93 2.746,1.36 4.953,1.36 1.785,0 3.496,-0.17 4.941,-0.52 1.446,-0.43 2.813,-0.84 4.024,-1.36 v 0 l 0.429,7.17 v 0 c -0.957,0.32 -2.226,0.67 -3.937,1.1 -1.785,0.35 -3.848,0.52 -6.133,0.52 -2.226,0 -4.187,-0.34 -5.984,-1.03 -1.789,-0.68 -3.321,-1.63 -4.602,-2.73 -1.269,-1.19 -2.304,-2.57 -2.976,-4.01 -0.696,-1.54 -1.036,-3.16 -1.036,-4.78 0,-1.54 0.254,-2.89 0.692,-4.08 0.43,-1.21 1.016,-2.22 1.789,-3.15 0.762,-0.95 1.621,-1.71 2.723,-2.4 1.125,-0.76 2.316,-1.45 3.671,-2.14 v 0 l 4.602,-2.29 v 0 c 1.961,-0.95 3.328,-1.96 4.102,-2.98 0.671,-1.04 1.015,-2.14 1.015,-3.25 0,-1.7 -0.664,-2.99 -2.051,-3.83 -1.359,-0.96 -3.242,-1.37 -5.527,-1.37 -2.141,0 -4.191,0.33 -5.988,1.11 -1.785,0.69 -3.32,1.36 -4.598,1.96 v 0 l -0.5,-7.69 v 0" /><path
         id="path62"
         style="fill:#ffffff;fill-opacity:1;fill-rule:nonzero;stroke:none"
         d="m 607.211,1027.39 c 1.359,-0.58 3.066,-1.19 5.176,-1.62 2.062,-0.39 4.367,-0.65 6.828,-0.65 4.949,0 8.711,1.17 11.348,3.65 2.566,2.46 3.835,5.62 3.835,9.55 v 0 0 0 c 0,2.64 -0.769,4.78 -2.214,6.39 -1.543,1.62 -3.567,3.24 -6.223,4.69 v 0 l -3.848,2.14 v 0 c -1.941,1.1 -3.386,2.05 -4.511,2.98 -1.102,0.87 -1.622,2.05 -1.622,3.5 0,1.53 0.52,2.81 1.622,3.76 1.125,0.93 2.734,1.36 4.941,1.36 1.797,0 3.496,-0.17 4.953,-0.52 1.445,-0.43 2.801,-0.84 4.012,-1.36 v 0 l 0.43,7.17 v 0 c -0.946,0.32 -2.227,0.67 -3.926,1.1 -1.797,0.35 -3.848,0.52 -6.141,0.52 -2.219,0 -4.191,-0.34 -5.976,-1.03 -1.797,-0.68 -3.332,-1.63 -4.602,-2.73 -1.277,-1.19 -2.313,-2.57 -2.988,-4.01 -0.684,-1.54 -1.035,-3.16 -1.035,-4.78 0,-1.54 0.265,-2.89 0.695,-4.08 0.43,-1.21 1.015,-2.22 1.797,-3.15 0.75,-0.95 1.621,-1.71 2.715,-2.4 1.121,-0.76 2.312,-1.45 3.671,-2.14 v 0 l 4.598,-2.29 v 0 c 1.973,-0.95 3.332,-1.96 4.113,-2.98 0.664,-1.04 1.016,-2.14 1.016,-3.25 0,-1.7 -0.676,-2.99 -2.051,-3.83 -1.367,-0.96 -3.242,-1.37 -5.539,-1.37 -2.137,0 -4.187,0.33 -5.976,1.11 -1.797,0.69 -3.329,1.36 -4.598,1.96 v 0 l -0.5,-7.69 v 0" /><path
         id="path64"
         style="fill:#ffffff;fill-opacity:1;fill-rule:nonzero;stroke:none"
         d="m 652.348,1045.06 h 24.992 v 2.98 c 0,3.84 -0.43,7.09 -1.184,9.89 -0.781,2.81 -1.883,5.12 -3.328,6.91 -1.445,1.8 -3.242,3.07 -5.207,3.91 -2.051,0.87 -4.277,1.3 -6.648,1.3 -2.727,0 -5.207,-0.52 -7.344,-1.62 -2.207,-1.12 -4.082,-2.74 -5.527,-4.71 -1.457,-2.02 -2.657,-4.43 -3.418,-7.24 -0.774,-2.8 -1.184,-5.89 -1.184,-9.22 0,-3.15 0.41,-6.13 1.184,-8.85 0.761,-2.75 1.882,-5.03 3.496,-7 1.543,-1.96 3.504,-3.5 5.879,-4.6 2.402,-1.17 5.203,-1.69 8.359,-1.69 2.723,0 5.203,0.26 7.344,0.82 2.117,0.61 3.828,1.21 5.273,1.79 v 0 l -0.41,7.43 v 0 c -1.125,-0.77 -2.57,-1.53 -4.277,-2.3 -1.797,-0.76 -3.907,-1.19 -6.485,-1.19 -4.082,0 -6.992,1.1 -8.789,3.41 -1.769,2.21 -2.726,5.53 -2.726,9.98 v 0" /><path
         id="path66"
         style="fill:#ffffff;fill-opacity:1;fill-rule:nonzero;stroke:none"
         d="m 687.816,1025.71 h 8.879 v 25.92 c 0,3.41 0.692,6.13 2.137,8.1 1.367,1.97 3.418,2.89 6.223,2.89 2.293,0 3.914,-0.75 5.039,-2.29 1.015,-1.56 1.531,-4.02 1.531,-7.43 v 0 -27.19 h 8.859 v 29.24 0 c 0,4.6 -1.015,8.28 -3.078,11 -2.019,2.72 -5.261,4.1 -9.715,4.1 -2.55,0 -4.777,-0.6 -6.738,-1.88 -1.945,-1.27 -3.496,-3.07 -4.601,-5.38 v 0 h -0.176 v 0 c 0,0.26 0,0.78 0,1.37 -0.086,0.6 -0.086,1.27 -0.164,1.96 -0.09,0.69 -0.09,1.36 -0.09,1.97 -0.086,0.58 -0.086,1.09 -0.086,1.36 v 0 h -8.34 v 0 c 0.067,-1.28 0.156,-2.64 0.234,-4.02 0.086,-1.45 0.086,-2.89 0.086,-4.34 v 0 -35.38 0" /><path
         id="path68"
         style="fill:#ffffff;fill-opacity:1;fill-rule:nonzero;stroke:none"
         d="m 288.609,923.648 h 8.875 v 36.915 h 7.93 v 6.824 h -7.93 v 8.359 0 c 0,1.965 0.438,3.414 1.188,4.43 0.781,1.035 2.141,1.531 3.933,1.531 0.497,0 1.188,-0.086 1.946,-0.258 0.777,-0.152 1.554,-0.328 2.137,-0.586 v 0 6.828 0 c -0.93,0.258 -2.055,0.497 -3.329,0.668 -1.273,0.172 -2.289,0.258 -3.066,0.258 -2.141,0 -3.992,-0.344 -5.465,-0.926 -1.445,-0.605 -2.637,-1.445 -3.562,-2.57 -0.953,-1.101 -1.621,-2.289 -2.051,-3.758 -0.438,-1.449 -0.606,-3.066 -0.606,-4.687 v 0 -9.289 h -7.148 v -6.824 h 7.148 v -36.915 0" /><path
         id="path70"
         style="fill:#ffffff;fill-opacity:1;fill-rule:nonzero;stroke:none"
         d="m 320.102,942.996 h 24.992 v 2.984 c 0,3.844 -0.438,7.086 -1.188,9.895 -0.781,2.809 -1.879,5.117 -3.332,6.91 -1.441,1.797 -3.234,3.07 -5.203,3.91 -2.051,0.864 -4.277,1.297 -6.648,1.297 -2.727,0 -5.207,-0.519 -7.344,-1.621 -2.207,-1.121 -4.082,-2.742 -5.535,-4.711 -1.446,-2.027 -2.656,-4.422 -3.41,-7.23 -0.778,-2.813 -1.188,-5.899 -1.188,-9.223 0,-3.156 0.41,-6.141 1.188,-8.859 0.754,-2.743 1.879,-5.035 3.5,-6.996 1.531,-1.969 3.5,-3.5 5.875,-4.606 2.394,-1.168 5.203,-1.683 8.359,-1.683 2.723,0 5.203,0.257 7.344,0.82 2.117,0.605 3.82,1.211 5.269,1.797 v 0 l -0.406,7.425 v 0 c -1.129,-0.777 -2.574,-1.531 -4.277,-2.308 -1.793,-0.758 -3.914,-1.188 -6.481,-1.188 -4.09,0 -7.004,1.098 -8.797,3.414 -1.769,2.204 -2.718,5.528 -2.718,9.973 v 0" /><path
         id="path72"
         style="fill:#ffffff;fill-opacity:1;fill-rule:nonzero;stroke:none"
         d="m 355.566,923.648 h 8.883 v 23.52 c 0,2.227 0.258,4.105 0.75,5.723 0.524,1.621 1.211,2.894 2.059,3.91 0.863,0.953 1.875,1.711 2.976,2.226 1.121,0.43 2.227,0.688 3.5,0.688 0.52,0 1.036,0 1.446,-0.082 0.433,-0.086 0.953,-0.176 1.383,-0.258 v 0 8.531 0 c -0.172,0 -0.348,0 -0.43,0.086 -0.086,0 -0.258,0 -0.434,0 -1.617,0 -3.066,-0.176 -4.344,-0.605 -1.273,-0.434 -2.308,-1.016 -3.234,-1.789 -0.953,-0.758 -1.797,-1.621 -2.484,-2.551 -0.672,-0.953 -1.278,-1.969 -1.711,-3.09 v 0 h -0.172 v 0 c 0,0.344 0,0.863 0,1.551 -0.086,0.676 -0.086,1.449 -0.168,2.207 -0.09,0.777 -0.09,1.445 -0.09,2.14 -0.062,0.668 -0.062,1.184 -0.062,1.532 v 0 h -8.192 v 0 c 0.067,-1.274 0.153,-2.637 0.242,-4.016 0.082,-1.449 0.082,-2.898 0.082,-4.344 v 0 -35.379 0" /><path
         id="path74"
         style="fill:#ffffff;fill-opacity:1;fill-rule:nonzero;stroke:none"
         d="m 384.016,923.648 h 8.879 v 26.762 c 0,3.238 0.691,5.723 1.964,7.516 1.274,1.789 3.243,2.637 5.704,2.637 4.101,0 6.156,-2.727 6.156,-8.102 v 0 -28.813 h 8.851 v 26.762 0 c 0,3.238 0.696,5.723 1.969,7.516 1.274,1.789 3.242,2.637 5.723,2.637 4.082,0 6.136,-2.727 6.136,-8.102 v 0 -28.813 h 8.856 v 28.641 0 c 0,5.117 -1.02,9.047 -3.066,11.688 -2.118,2.628 -5.293,4.015 -9.547,4.015 -2.809,0 -5.121,-0.691 -6.914,-2.054 -1.793,-1.446 -3.157,-3.067 -4.254,-4.86 -0.434,0.844 -0.953,1.707 -1.535,2.551 -0.602,0.777 -1.36,1.531 -2.223,2.226 -0.84,0.602 -1.883,1.098 -2.981,1.532 -1.101,0.429 -2.484,0.605 -3.929,0.605 -2.727,0 -4.953,-0.691 -6.742,-2.054 -1.793,-1.446 -3.239,-3.153 -4.168,-5.29 v 0 h -0.176 v 0 c 0,0.262 0,0.778 0,1.446 -0.086,0.605 -0.086,1.277 -0.086,1.965 -0.082,0.691 -0.082,1.359 -0.082,1.968 -0.09,0.578 -0.09,1.102 -0.09,1.36 v 0 h -8.77 v 0 c 0.063,-1.192 0.153,-2.485 0.239,-3.848 0.086,-1.355 0.086,-2.805 0.086,-4.426 v 0 -35.465 0" /><path
         id="path76"
         style="fill:#ffffff;fill-opacity:1;fill-rule:nonzero;stroke:none"
         d="m 460.719,972.766 h 6.051 l 8.699,12.355 h -9.117 l -5.633,-12.355 v 0" /><path
         id="path78"
         style="fill:#ffffff;fill-opacity:1;fill-rule:nonzero;stroke:none"
         d="m 457.395,942.996 h 24.988 v 2.984 c 0,3.844 -0.434,7.086 -1.188,9.895 -0.781,2.809 -1.879,5.117 -3.328,6.91 -1.445,1.797 -3.238,3.07 -5.207,3.91 -2.051,0.864 -4.277,1.297 -6.648,1.297 -2.727,0 -5.207,-0.519 -7.344,-1.621 -2.207,-1.121 -4.082,-2.742 -5.531,-4.711 -1.449,-2.027 -2.657,-4.422 -3.414,-7.23 -0.778,-2.813 -1.188,-5.899 -1.188,-9.223 0,-3.156 0.41,-6.141 1.188,-8.859 0.757,-2.743 1.879,-5.035 3.5,-6.996 1.535,-1.969 3.496,-3.5 5.875,-4.606 2.394,-1.168 5.203,-1.683 8.359,-1.683 2.719,0 5.203,0.257 7.344,0.82 2.117,0.605 3.824,1.211 5.265,1.797 v 0 l -0.41,7.425 v 0 c -1.121,-0.777 -2.566,-1.531 -4.269,-2.308 -1.797,-0.758 -3.91,-1.188 -6.485,-1.188 -4.082,0 -7,1.098 -8.789,3.414 -1.773,2.204 -2.718,5.528 -2.718,9.973 v 0" /><path
         id="path80"
         style="fill:#ffffff;fill-opacity:1;fill-rule:nonzero;stroke:none"
         d="m 491.93,922.98 h 6.718 l 15.532,60.95 h -6.914 L 491.93,922.98 v 0" /><path
         id="path82"
         style="fill:#ffffff;fill-opacity:1;fill-rule:nonzero;stroke:none"
         d="m 554.457,924.832 -0.496,7.496 v 0 c -0.949,-0.582 -2.219,-1.101 -3.672,-1.531 -1.445,-0.43 -2.98,-0.672 -4.426,-0.672 -3.847,0 -6.738,1.363 -8.789,4.082 -2.136,2.723 -3.152,6.395 -3.152,11 0,5.375 1.016,9.305 3.066,11.856 2.051,2.57 4.942,3.847 8.7,3.847 1.621,0 3.066,-0.176 4.347,-0.609 1.27,-0.406 2.391,-0.844 3.496,-1.449 v 0 l 0.43,7.433 v 0 c -1.125,0.41 -2.395,0.844 -4.016,1.188 -1.621,0.343 -3.242,0.519 -4.863,0.519 -3.32,0 -6.297,-0.519 -8.848,-1.621 -2.578,-1.121 -4.714,-2.742 -6.414,-4.711 -1.711,-2.027 -2.988,-4.422 -3.828,-7.23 -0.859,-2.813 -1.269,-5.813 -1.269,-9.141 0,-3.066 0.41,-5.961 1.179,-8.684 0.762,-2.742 2.051,-5.117 3.672,-7.082 1.621,-1.968 3.653,-3.585 6.223,-4.691 2.461,-1.184 5.449,-1.769 8.855,-1.769 1.887,0 3.672,0.175 5.469,0.515 1.789,0.391 3.242,0.828 4.336,1.254 v 0" /><path
         id="path84"
         style="fill:#ffffff;fill-opacity:1;fill-rule:nonzero;stroke:none"
         d="m 562.906,923.648 h 8.856 v 25.918 c 0,3.414 0.695,6.137 2.14,8.098 1.356,1.969 3.407,2.899 6.219,2.899 2.317,0 3.938,-0.758 5.031,-2.29 1.016,-1.558 1.532,-4.019 1.532,-7.433 v 0 -27.192 h 8.879 v 29.243 0 c 0,4.605 -1.036,8.277 -3.067,10.996 -2.051,2.718 -5.293,4.105 -9.738,4.105 -2.899,0 -5.184,-0.691 -6.805,-1.965 -1.711,-1.363 -3.086,-2.808 -4.015,-4.449 v 0 h -0.176 v 26.024 h -8.856 v -63.954 0" /><path
         id="path86"
         style="fill:#ffffff;fill-opacity:1;fill-rule:nonzero;stroke:none"
         d="m 603.129,923.648 h 8.879 v 43.739 h -8.879 v -43.739 0" /><path
         id="path88"
         style="fill:#ffffff;fill-opacity:1;fill-rule:nonzero;stroke:none"
         d="m 602.887,976.176 h 9.375 v 9.465 h -9.375 v -9.465 0" /><path
         id="path90"
         style="fill:#ffffff;fill-opacity:1;fill-rule:nonzero;stroke:none"
         d="m 648.297,923.648 h 8.328 v 0 c -0.059,1.274 -0.145,2.633 -0.234,4.082 -0.086,1.36 -0.086,2.809 -0.086,4.254 v 0 35.403 h -8.879 v -25.664 0 c 0,-3.41 -0.692,-6.153 -1.961,-8.184 -1.281,-2.051 -3.418,-3.09 -6.223,-3.09 -2.312,0 -3.933,0.778 -5.039,2.317 -1.094,1.531 -1.699,4.011 -1.699,7.406 v 0 27.215 h -8.856 v -29.246 0 c 0,-4.602 1.016,-8.274 3.067,-11.016 2.031,-2.719 5.273,-4.062 9.715,-4.062 2.988,0 5.363,0.648 7.148,2.117 1.711,1.363 3.098,3.066 4.192,5.097 v 0 h 0.175 l 0.352,-6.629 v 0" /><path
         id="path92"
         style="fill:#ffffff;fill-opacity:1;fill-rule:nonzero;stroke:none"
         d="m 668.16,925.332 c 1.367,-0.586 3.074,-1.187 5.184,-1.621 2.051,-0.391 4.367,-0.648 6.828,-0.648 4.949,0 8.711,1.167 11.336,3.652 2.578,2.461 3.847,5.613 3.847,9.543 v 0 0 0 c 0,2.64 -0.769,4.777 -2.226,6.398 -1.531,1.617 -3.563,3.239 -6.219,4.688 v 0 l -3.84,2.133 v 0 c -1.941,1.105 -3.398,2.058 -4.519,2.984 -1.094,0.863 -1.621,2.051 -1.621,3.5 0,1.535 0.527,2.809 1.621,3.754 1.121,0.933 2.742,1.363 4.949,1.363 1.789,0 3.496,-0.168 4.941,-0.515 1.457,-0.438 2.813,-0.848 4.024,-1.364 v 0 l 0.43,7.172 v 0 c -0.946,0.324 -2.227,0.668 -3.934,1.102 -1.789,0.343 -3.84,0.519 -6.133,0.519 -2.226,0 -4.191,-0.344 -5.976,-1.039 -1.797,-0.668 -3.332,-1.621 -4.61,-2.719 -1.269,-1.187 -2.304,-2.574 -2.98,-4.019 -0.692,-1.531 -1.035,-3.152 -1.035,-4.774 0,-1.535 0.265,-2.894 0.695,-4.082 0.43,-1.207 1.016,-2.222 1.785,-3.156 0.762,-0.949 1.621,-1.703 2.727,-2.398 1.121,-0.75 2.312,-1.446 3.671,-2.133 v 0 l 4.598,-2.289 v 0 c 1.973,-0.953 3.332,-1.969 4.113,-2.985 0.664,-1.035 1.004,-2.14 1.004,-3.238 0,-1.707 -0.664,-3 -2.05,-3.847 -1.356,-0.946 -3.231,-1.36 -5.528,-1.36 -2.137,0 -4.187,0.324 -5.984,1.102 -1.789,0.691 -3.32,1.363 -4.602,1.968 v 0 l -0.496,-7.691 v 0" /><path
         id="path94"
         style="fill:#ffffff;fill-opacity:1;fill-rule:nonzero;stroke:none"
         d="m 709.723,928.336 c 1.621,-1.793 3.582,-3.156 5.898,-4.02 2.195,-0.82 4.598,-1.253 7.149,-1.253 2.566,0 4.949,0.433 7.253,1.253 2.227,0.864 4.172,2.227 5.793,4.02 1.622,1.789 2.997,4.082 3.926,6.891 0.938,2.824 1.453,6.324 1.453,10.32 v 0 0 0 c 0,3.93 -0.515,7.344 -1.453,10.156 -0.929,2.809 -2.304,5.207 -3.926,6.996 -1.621,1.793 -3.566,3.156 -5.793,3.996 -2.304,0.864 -4.687,1.297 -7.253,1.297 -2.551,0 -4.954,-0.433 -7.149,-1.297 -2.316,-0.84 -4.277,-2.203 -5.898,-3.996 -1.621,-1.789 -2.981,-4.187 -3.907,-6.996 -0.957,-2.812 -1.445,-6.226 -1.445,-10.156 0,-3.996 0.488,-7.496 1.445,-10.32 0.926,-2.809 2.286,-5.102 3.907,-6.891 v 0" /><path
         id="path96"
         style="fill:#ffffff;fill-opacity:1;fill-rule:nonzero;stroke:none"
         d="m 431.949,831.543 -0.5,7.496 v 0 c -0.949,-0.582 -2.226,-1.098 -3.672,-1.535 -1.449,-0.43 -2.98,-0.668 -4.425,-0.668 -3.844,0 -6.743,1.363 -8.797,4.082 -2.133,2.719 -3.149,6.391 -3.149,10.996 0,5.375 1.016,9.309 3.067,11.856 2.05,2.574 4.945,3.847 8.707,3.847 1.617,0 3.066,-0.176 4.34,-0.605 1.273,-0.41 2.398,-0.844 3.496,-1.449 v 0 l 0.433,7.429 v 0 c -1.121,0.41 -2.394,0.844 -4.015,1.192 -1.621,0.343 -3.246,0.519 -4.86,0.519 -3.332,0 -6.308,-0.519 -8.859,-1.621 -2.567,-1.125 -4.707,-2.746 -6.414,-4.707 -1.703,-2.031 -2.981,-4.43 -3.824,-7.238 -0.864,-2.805 -1.274,-5.809 -1.274,-9.141 0,-3.066 0.41,-5.961 1.188,-8.68 0.754,-2.746 2.054,-5.117 3.672,-7.086 1.621,-1.96 3.652,-3.582 6.218,-4.687 2.465,-1.188 5.446,-1.773 8.86,-1.773 1.879,0 3.672,0.175 5.461,0.523 1.796,0.387 3.242,0.82 4.347,1.25 v 0" /><path
         id="path98"
         style="fill:#ffffff;fill-opacity:1;fill-rule:nonzero;stroke:none"
         d="m 440.391,830.355 h 8.859 v 63.958 h -8.859 v -63.958 0" /><path
         id="path100"
         style="fill:#ffffff;fill-opacity:1;fill-rule:nonzero;stroke:none"
         d="m 464.996,835.043 c 1.621,-1.793 3.582,-3.152 5.895,-4.016 2.207,-0.82 4.601,-1.257 7.152,-1.257 2.566,0 4.945,0.437 7.254,1.257 2.226,0.864 4.172,2.223 5.793,4.016 1.617,1.793 2.996,4.082 3.93,6.891 0.925,2.828 1.445,6.328 1.445,10.32 v 0 0 0 c 0,3.937 -0.52,7.351 -1.445,10.16 -0.934,2.805 -2.313,5.203 -3.93,6.996 -1.621,1.793 -3.567,3.153 -5.793,3.992 -2.309,0.868 -4.688,1.301 -7.254,1.301 -2.551,0 -4.945,-0.433 -7.152,-1.301 -2.313,-0.839 -4.274,-2.199 -5.895,-3.992 -1.621,-1.793 -2.984,-4.191 -3.91,-6.996 -0.953,-2.809 -1.445,-6.223 -1.445,-10.16 0,-3.992 0.492,-7.492 1.445,-10.32 0.926,-2.809 2.289,-5.098 3.91,-6.891 v 0" /><path
         id="path102"
         style="fill:#ffffff;fill-opacity:1;fill-rule:nonzero;stroke:none"
         d="m 504.652,832.039 c 1.36,-0.582 3.067,-1.184 5.184,-1.621 2.055,-0.383 4.363,-0.648 6.828,-0.648 4.941,0 8.703,1.168 11.34,3.652 2.566,2.461 3.848,5.617 3.848,9.547 v 0 0 0 c 0,2.636 -0.782,4.777 -2.227,6.398 -1.535,1.613 -3.566,3.235 -6.223,4.684 v 0 l -3.847,2.14 v 0 c -1.942,1.098 -3.391,2.051 -4.516,2.977 -1.098,0.867 -1.617,2.055 -1.617,3.504 0,1.531 0.519,2.808 1.617,3.754 1.125,0.933 2.75,1.363 4.945,1.363 1.797,0 3.508,-0.172 4.954,-0.519 1.445,-0.434 2.8,-0.844 4.011,-1.36 v 0 l 0.43,7.172 v 0 c -0.945,0.32 -2.215,0.668 -3.926,1.102 -1.797,0.343 -3.848,0.519 -6.133,0.519 -2.226,0 -4.191,-0.348 -5.984,-1.039 -1.793,-0.672 -3.324,-1.617 -4.602,-2.723 -1.273,-1.187 -2.312,-2.566 -2.98,-4.019 -0.691,-1.531 -1.035,-3.152 -1.035,-4.77 0,-1.535 0.258,-2.894 0.687,-4.086 0.434,-1.207 1.016,-2.222 1.797,-3.148 0.75,-0.953 1.613,-1.711 2.719,-2.398 1.125,-0.758 2.308,-1.45 3.672,-2.141 v 0 l 4.605,-2.289 v 0 c 1.961,-0.949 3.321,-1.969 4.102,-2.981 0.664,-1.035 1.015,-2.14 1.015,-3.238 0,-1.711 -0.675,-3.004 -2.05,-3.848 -1.368,-0.949 -3.243,-1.359 -5.536,-1.359 -2.136,0 -4.187,0.324 -5.98,1.102 -1.797,0.691 -3.328,1.359 -4.602,1.964 v 0 l -0.496,-7.691 v 0" /><path
         id="path104"
         style="fill:#ffffff;fill-opacity:1;fill-rule:nonzero;stroke:none"
         d="m 549.801,849.707 h 24.988 v 2.984 c 0,3.844 -0.437,7.086 -1.191,9.891 -0.782,2.809 -1.875,5.117 -3.328,6.914 -1.446,1.793 -3.235,3.067 -5.207,3.906 -2.051,0.868 -4.278,1.301 -6.649,1.301 -2.726,0 -5.207,-0.519 -7.344,-1.621 -2.207,-1.125 -4.082,-2.746 -5.527,-4.707 -1.445,-2.031 -2.656,-4.43 -3.418,-7.238 -0.773,-2.805 -1.184,-5.899 -1.184,-9.223 0,-3.156 0.411,-6.137 1.184,-8.855 0.762,-2.746 1.883,-5.036 3.504,-7 1.535,-1.969 3.496,-3.5 5.871,-4.602 2.402,-1.164 5.203,-1.687 8.359,-1.687 2.723,0 5.204,0.265 7.344,0.828 2.117,0.597 3.828,1.203 5.274,1.789 v 0 l -0.411,7.429 v 0 c -1.125,-0.777 -2.57,-1.535 -4.277,-2.312 -1.797,-0.758 -3.906,-1.184 -6.484,-1.184 -4.082,0 -6.992,1.098 -8.789,3.41 -1.77,2.204 -2.715,5.528 -2.715,9.977 v 0" /><path
         id="path106"
         style="fill:#ffffff;fill-opacity:1;fill-rule:nonzero;stroke:none"
         d="m 612.008,830.355 h 8.445 v 0 c -0.086,1.102 -0.176,2.293 -0.262,3.567 -0.089,1.293 -0.089,2.742 -0.089,4.187 v 0 56.204 h -8.875 v -26.348 h -0.149 v 0 c -1.121,1.961 -2.578,3.582 -4.363,4.859 -1.797,1.274 -4.082,1.879 -6.914,1.879 -4.602,0 -8.274,-1.879 -10.996,-5.726 -2.727,-3.844 -4.082,-9.372 -4.082,-16.805 0,-3.414 0.32,-6.477 1.015,-9.203 0.606,-2.809 1.621,-5.117 2.891,-7.086 1.277,-1.961 2.898,-3.496 4.773,-4.512 1.887,-1.078 4.114,-1.601 6.575,-1.601 1.621,0 3.066,0.175 4.355,0.648 1.191,0.437 2.293,0.953 3.242,1.621 0.926,0.691 1.707,1.473 2.293,2.313 0.606,0.863 1.211,1.707 1.621,2.636 v 0 h 0.254 v 0 c 0,-0.41 0,-0.929 0.09,-1.621 0,-0.668 0,-1.363 0.086,-2.031 0,-0.688 0,-1.297 0.09,-1.879 0,-0.602 0,-0.949 0,-1.102 v 0" /><path
         id="path108"
         style="fill:#231f20;fill-opacity:1;fill-rule:nonzero;stroke:none"
         d="m 743.676,252.422 -18.699,10.801 -26.379,-15.227 26.347,-15.203 18.731,10.801 9.355,-5.399 v -10.8 l -9.355,-5.403 9.355,-5.398 v -10.801 l -9.355,-5.402 -9.356,5.402 v -10.801 l -9.343,-5.422 -9.356,5.403 v 21.621 l -26.379,15.222 v -30.449 l 18.711,-10.801 0.02,-10.8 -9.375,-5.399 -9.356,5.399 v -10.801 l -9.355,-5.399 -9.344,5.399 v 10.801 l -9.355,-5.399 -9.356,5.399 v 10.8 l 18.711,10.801 v 30.449 l -26.359,-15.222 v -21.602 l -9.344,-5.422 -9.356,5.422 v 10.801 l -9.355,-5.402 -9.375,5.402 v 10.801 l 9.355,5.398 -9.355,5.403 v 10.8 l 9.355,5.399 18.731,-10.801 26.348,15.227 -26.348,15.203 -18.711,-10.801 -9.375,5.402 v 10.797 l 9.355,5.402 -9.355,5.403 v 10.801 l 9.355,5.398 9.356,-5.398 0.019,10.8 9.356,5.399 9.344,-5.399 v -21.601 l 26.359,-15.227 v 30.461 l -18.711,10.801 v 10.801 l 9.356,5.39 9.355,-5.39 v 10.789 l 9.344,5.402 9.355,-5.402 v -10.789 l 9.356,5.39 9.355,-5.39 V 305.461 L 689.242,294.66 v -30.461 l 26.379,15.227 v 21.601 l 9.356,5.399 9.343,-5.399 v -10.8 l 9.356,5.398 9.355,-5.398 v -10.801 l -9.355,-5.403 9.355,-5.402 v -10.797 l -9.355,-5.402" /><path
         id="path110"
         style="fill:#231f20;fill-opacity:1;fill-rule:nonzero;stroke:none"
         d="m 380.191,214.191 0.329,-0.039 0.3,-0.07 0.325,-0.059 0.32,-0.085 0.328,-0.11 0.301,-0.125 0.304,-0.137 0.278,-0.168 0.238,-0.175 0.215,-0.196 0.195,-0.214 0.153,-0.215 0.109,-0.243 0.062,-0.253 v -0.286 l -0.043,-0.3 -0.085,-0.235 -0.129,-0.215 -0.129,-0.195 -0.196,-0.176 -0.195,-0.148 -0.215,-0.156 -0.238,-0.125 -0.262,-0.09 -0.281,-0.106 -0.277,-0.09 -0.285,-0.058 -0.278,-0.067 -0.305,-0.05 -0.277,-0.039 -0.262,-0.02 -0.257,-0.019 -1.403,-0.137 -1.515,-0.145 -1.594,-0.156 -1.621,-0.187 -1.621,-0.196 -1.578,-0.242 -1.493,-0.254 -1.359,-0.305 -0.539,-0.156 -0.563,-0.125 -0.558,-0.148 -0.563,-0.156 -0.543,-0.176 -0.558,-0.164 -0.539,-0.196 -0.524,-0.195 -0.535,-0.215 -0.519,-0.246 -0.496,-0.234 -0.52,-0.254 -0.477,-0.301 -0.472,-0.305 -0.457,-0.332 -0.43,-0.339 -0.238,-0.215 -0.215,-0.235 -0.215,-0.246 -0.176,-0.254 -0.172,-0.261 -0.148,-0.286 -0.152,-0.273 -0.11,-0.301 -0.086,-0.285 -0.09,-0.32 -0.042,-0.305 -0.04,-0.301 v -0.304 l 0.02,-0.301 0.062,-0.324 0.071,-0.282 0.172,-0.461 0.195,-0.429 0.23,-0.391 0.286,-0.379 0.3,-0.351 0.348,-0.344 0.367,-0.32 0.367,-0.332 0.411,-0.274 0.41,-0.285 0.433,-0.281 0.43,-0.254 0.453,-0.246 0.43,-0.235 0.433,-0.215 0.434,-0.214 1.273,-0.586 1.297,-0.516 1.34,-0.449 1.336,-0.442 1.363,-0.359 1.383,-0.371 1.363,-0.324 1.36,-0.301 0.734,0.535 0.821,0.586 0.863,0.586 0.91,0.625 0.926,0.586 0.91,0.559 0.863,0.515 0.797,0.43 2.074,0.781 0.739,0.285 0.793,0.301 0.91,0.305 0.953,0.3 0.988,0.325 1.035,0.3 1.063,0.305 1.078,0.301 1.058,0.273 1.04,0.262 1.011,0.266 0.977,0.234 0.902,0.215 0.848,0.176 0.773,0.168 0.653,0.105 1.636,0.285 2.293,0.352 2.289,0.301 1.684,0.215 0.348,0.039 0.386,0.019 0.391,0.07 0.43,0.039 0.433,0.047 0.453,0.039 0.453,0.051 0.477,0.039 0.473,0.047 0.5,0.039 0.496,0.02 0.472,0.051 0.5,0.019 0.497,0.02 h 0.472 0.477 0.453 l 0.453,-0.02 0.457,-0.019 0.406,-0.051 0.41,-0.059 0.395,-0.066 0.363,-0.071 0.324,-0.105 0.301,-0.109 0.285,-0.125 0.258,-0.129 0.215,-0.176 0.172,-0.176 0.133,-0.195 0.105,-0.235 0.063,-0.234 0.027,-0.242 v -0.235 l -0.027,-0.195 -0.043,-0.215 -0.063,-0.175 -0.062,-0.168 -0.11,-0.157 -0.105,-0.144 -0.109,-0.137 -0.133,-0.109 -0.153,-0.125 -0.168,-0.09 -0.152,-0.106 -0.176,-0.07 -0.195,-0.078 -0.191,-0.066 -0.196,-0.071 -0.195,-0.039 -0.215,-0.047 -0.195,-0.039 -0.215,-0.039 -0.219,-0.031 -0.191,-0.02 -0.219,-0.039 h -0.215 l -0.195,-0.019 -0.192,-0.028 -0.195,-0.019 h -0.176 l -0.171,-0.02 -0.168,-0.019 -0.153,-0.02 -2.574,-0.332 -2.824,-0.383 -2.809,-0.437 -2.551,-0.41 -0.863,-0.168 -0.891,-0.176 -0.882,-0.176 -0.883,-0.195 -0.891,-0.195 -0.883,-0.215 -0.863,-0.215 -0.883,-0.234 -0.89,-0.262 -0.864,-0.254 -0.863,-0.305 -0.84,-0.3 -0.843,-0.325 -0.84,-0.351 -0.825,-0.391 -0.796,-0.379 -1.258,-0.715 -1.188,-0.761 -1.293,-0.86 67.325,-6.414 2.031,-0.215 2.078,-0.214 2.094,-0.247 2.093,-0.281 2.114,-0.273 2.121,-0.324 2.074,-0.352 2.051,-0.391 0.82,-0.164 0.82,-0.195 0.821,-0.195 0.843,-0.235 0.821,-0.246 0.84,-0.254 0.843,-0.285 0.825,-0.301 0.82,-0.324 0.801,-0.348 0.793,-0.343 0.781,-0.371 0.777,-0.411 0.735,-0.41 0.734,-0.429 0.688,-0.45 0.671,-0.476 0.649,-0.5 0.605,-0.516 0.563,-0.539 0.543,-0.566 0.492,-0.555 0.453,-0.605 0.41,-0.625 0.348,-0.657 0.301,-0.644 0.257,-0.692 0.2,-0.714 0.148,-0.711 0.09,-0.754 0.02,-0.782 -0.063,-0.8 -0.047,-0.45 -0.086,-0.457 -0.109,-0.429 -0.125,-0.449 -0.153,-0.442 -0.175,-0.449 -0.196,-0.41 -0.214,-0.43 -0.215,-0.41 -0.239,-0.391 -0.234,-0.371 -0.285,-0.359 -0.258,-0.352 -0.281,-0.324 -0.301,-0.301 -0.281,-0.285 -0.778,-0.644 -0.82,-0.625 -0.844,-0.567 -0.882,-0.515 -0.911,-0.5 -0.953,-0.43 -0.968,-0.41 -0.993,-0.36 -1.015,-0.351 -1.039,-0.285 -1.055,-0.274 -1.082,-0.215 -1.102,-0.195 -1.125,-0.176 -1.121,-0.125 -1.125,-0.09 -1.144,-0.086 -1.164,-0.019 -1.168,-0.02 -1.164,0.02 -1.149,0.039 -1.168,0.066 -1.164,0.09 -1.164,0.106 -1.168,0.129 -1.148,0.175 -1.141,0.164 -1.148,0.196 -1.121,0.246 -1.102,0.234 -1.102,0.262 -1.082,0.254 -0.191,0.09 -0.195,0.105 -0.172,0.149 -0.153,0.175 -0.105,0.196 -0.09,0.195 -0.043,0.215 -0.019,0.234 0.019,0.156 0.043,0.145 0.07,0.137 0.083,0.129 0.105,0.105 0.109,0.109 0.129,0.086 0.153,0.09 0.152,0.059 0.172,0.066 0.195,0.071 0.195,0.039 0.196,0.046 0.215,0.02 0.238,0.039 0.215,0.02 0.238,0.031 h 0.234 l 0.243,0.019 h 0.238 0.234 0.239 0.238 0.234 0.238 0.239 0.218 0.215 0.215 0.195 0.196 0.172 l 0.906,0.039 0.91,0.047 0.906,0.039 0.903,0.071 0.91,0.086 0.906,0.105 0.887,0.109 0.906,0.129 0.883,0.145 0.867,0.156 0.863,0.176 0.821,0.187 0.824,0.223 0.797,0.215 0.758,0.234 0.753,0.266 0.5,0.195 0.516,0.235 0.5,0.254 0.473,0.281 0.453,0.32 0.457,0.375 0.41,0.41 0.363,0.41 0.348,0.477 0.277,0.52 0.262,0.535 0.191,0.586 0.133,0.605 0.067,0.664 v 0.695 l -0.09,0.731 -0.082,0.391 -0.153,0.41 -0.238,0.449 -0.324,0.461 -0.391,0.476 -0.472,0.469 -0.563,0.52 -0.648,0.496 -0.758,0.5 -0.863,0.496 -0.953,0.48 -1.055,0.469 -1.192,0.457 -1.293,0.43 -1.406,0.41 -1.531,0.391 -27.863,4.187 -17.649,2.25 -35.316,4.453 -0.801,-1.211 -0.195,-0.304 -0.106,-0.321 -0.086,-0.332 -0.023,-0.324 0.023,-0.32 0.067,-0.305 0.086,-0.32 0.109,-0.305 0.148,-0.281 0.153,-0.285 0.172,-0.274 0.195,-0.262 0.195,-0.234 0.172,-0.215 0.196,-0.215 0.167,-0.175 0.563,-0.481 0.605,-0.469 0.625,-0.41 0.629,-0.39 0.868,-0.457 1.078,-0.5 1.273,-0.536 1.34,-0.539 1.359,-0.515 1.278,-0.481 1.14,-0.39 0.93,-0.282 -1.035,0.332 1.359,-0.46 1.278,-0.45 1.187,-0.496 1.121,-0.5 0.996,-0.535 0.949,-0.547 0.844,-0.578 0.778,-0.586 0.691,-0.586 0.605,-0.605 0.539,-0.625 0.473,-0.606 0.41,-0.625 0.325,-0.625 0.281,-0.625 0.195,-0.625 0.149,-0.625 0.066,-0.605 0.023,-0.633 -0.023,-0.578 -0.082,-0.606 -0.133,-0.566 -0.195,-0.555 -0.235,-0.547 -0.285,-0.519 -0.32,-0.488 -0.367,-0.481 -0.391,-0.426 -0.453,-0.441 -0.477,-0.383 -0.515,-0.367 -0.543,-0.324 -0.754,-0.41 -0.777,-0.411 -0.801,-0.41 -0.797,-0.371 -0.824,-0.34 -0.821,-0.304 -0.82,-0.262 -0.82,-0.195 -0.821,-0.149 -0.82,-0.156 -0.848,-0.106 -0.816,-0.109 -0.867,-0.086 -0.84,-0.058 -0.863,-0.051 -0.864,-0.039 -0.843,-0.02 h -0.867 -0.86 l -0.844,0.02 -0.863,0.019 -0.84,0.051 -0.843,0.039 -0.84,0.066 -1.043,0.079 -1.078,0.109 -1.102,0.156 -0.973,0.125 -0.949,0.176 -1.015,0.234 -1.079,0.325 -1.125,0.351 -1.121,0.41 -1.148,0.45 -1.121,0.457 -1.078,0.5 -1.063,0.496 -0.972,0.468 -0.883,0.5 -0.821,0.43 -0.671,0.438 -0.563,0.382 -0.387,0.332 -0.238,0.254 -0.125,0.215 -0.09,0.156 -0.09,0.145 -0.062,0.176 -0.063,0.176 -0.043,0.167 -0.023,0.196 v 0.195 l 0.023,0.176 0.02,0.144 0.043,0.137 0.062,0.129 0.09,0.106 0.086,0.109 0.11,0.105 0.105,0.071 0.109,0.039 0.348,0.039 h 0.383 l 0.39,-0.059 0.438,-0.129 0.445,-0.156 0.457,-0.195 0.477,-0.215 0.473,-0.234 0.5,-0.243 0.5,-0.273 0.472,-0.246 0.496,-0.254 0.477,-0.242 0.453,-0.215 0.453,-0.195 0.41,-0.129 0.758,-0.235 0.797,-0.195 0.801,-0.156 0.8,-0.145 0.836,-0.129 0.848,-0.086 0.84,-0.07 0.844,-0.039 0.84,-0.027 h 0.863 l 0.847,0.027 0.836,0.059 0.825,0.089 0.796,0.106 0.801,0.137 0.797,0.168 0.41,0.105 0.391,0.109 0.43,0.137 0.39,0.145 0.391,0.156 0.41,0.187 0.367,0.196 0.348,0.222 0.348,0.254 0.32,0.266 0.277,0.273 0.285,0.282 0.239,0.324 0.191,0.351 0.176,0.36 0.125,0.39 0.09,0.371 0.019,0.364 v 0.351 l -0.019,0.36 -0.09,0.351 -0.082,0.344 -0.153,0.34 -0.148,0.332 -0.195,0.305 -0.215,0.3 -0.242,0.274 -0.258,0.265 -0.301,0.215 -0.305,0.215 -0.32,0.176 -0.328,0.144 -0.992,0.352 -1.016,0.344 -1.035,0.281 -1.082,0.285 -1.059,0.274 -1.082,0.261 -1.078,0.285 -1.055,0.274 -1.042,0.332 -1.036,0.32 -1.011,0.391 -0.953,0.41 -0.93,0.469 -0.883,0.547 -0.82,0.625 -0.782,0.664 -0.324,0.351 -0.281,0.344 -0.277,0.371 -0.258,0.359 -0.242,0.411 -0.215,0.41 -0.168,0.41 -0.176,0.43 -0.152,0.437 -0.129,0.453 -0.086,0.43 -0.067,0.457 -0.043,0.449 -0.023,0.461 0.023,0.449 0.043,0.457 0.086,0.664 0.129,0.676 0.153,0.692 0.172,0.644 0.238,0.645 0.285,0.625 0.32,0.586 0.41,0.539 -0.968,0.156 -1.016,0.144 -1.062,0.196 -1.079,0.195 -1.101,0.215 -1.125,0.242 -1.121,0.258 -1.145,0.281 -1.168,0.285 -1.14,0.321 -1.149,0.324 -1.125,0.34 -1.101,0.371 -1.098,0.39 -1.063,0.411 -1.035,0.41 -0.363,0.148 -0.348,0.176 -0.367,0.195 -0.344,0.196 -0.367,0.195 -0.347,0.215 -0.348,0.215 -0.32,0.234 -0.328,0.242 -0.325,0.254 -0.32,0.266 -0.305,0.254 -0.281,0.281 -0.277,0.285 -0.285,0.301 -0.258,0.304 -0.239,0.301 -0.234,0.324 -0.223,0.321 -0.211,0.324 -0.171,0.32 -0.176,0.352 -0.149,0.363 -0.148,0.352 -0.113,0.359 -0.11,0.352 -0.062,0.39 -0.063,0.364 -0.023,0.371 -0.024,0.39 0.024,0.379 0.023,0.391 0.082,0.547 0.133,0.519 0.152,0.496 0.196,0.489 0.215,0.48 0.257,0.477 0.258,0.449 0.305,0.461 0.32,0.429 0.371,0.411 0.368,0.39 0.39,0.391 0.387,0.359 0.433,0.324 0.43,0.332 0.453,0.293 0.821,0.528 0.843,0.469 0.887,0.457 0.883,0.429 0.906,0.41 0.93,0.391 0.953,0.344 0.949,0.34 0.973,0.332 0.992,0.304 0.996,0.274 1.016,0.242 1.015,0.234 1.012,0.235 1.039,0.195 1.035,0.176 1.035,0.176 1.04,0.129 1.058,0.125 1.035,0.109 1.063,0.086 1.035,0.07 1.035,0.059 1.039,0.047 1.035,0.019 h 1.016 1.016 l 1.015,-0.019 0.988,-0.047 1,-0.059 0.946,-0.07 0.972,-0.067" /><path
         id="path112"
         style="fill:#231f20;fill-opacity:1;fill-rule:nonzero;stroke:none"
         d="m 387.578,262.168 4.363,9.289 0.305,0.535 0.348,0.567 0.367,0.558 0.344,0.496 0.215,0.266 0.257,0.254 0.262,0.281 0.301,0.285 0.324,0.281 0.363,0.274 0.395,0.266 0.433,0.253 0.493,0.262 0.515,0.215 0.586,0.195 0.625,0.196 0.672,0.129 0.758,0.105 0.801,0.09 0.863,0.047 0.926,-0.028 0.996,-0.058 1.055,-0.11 1.148,-0.175 1.23,-0.215 1.293,-0.305 1.383,-0.348 1.469,-0.429 1.578,-0.52 1.641,-0.586 1.754,-0.664 1.836,-0.761 1.941,-0.84 2.051,-0.946 2.14,-1.035 2.27,-1.125 2.07,-1.082 1.969,-0.996 1.836,-0.969 1.746,-0.906 1.621,-0.84 1.535,-0.82 1.446,-0.762 1.339,-0.734 1.25,-0.692 1.168,-0.664 1.079,-0.656 1,-0.605 0.925,-0.575 0.864,-0.586 0.777,-0.566 0.715,-0.539 0.648,-0.535 0.606,-0.52 0.535,-0.547 0.5,-0.535 0.453,-0.539 0.391,-0.535 0.367,-0.566 0.32,-0.586 0.285,-0.578 0.258,-0.633 0.234,-0.625 0.219,-0.684 0.192,-0.695 0.175,-0.731 0.172,-0.781 0.153,-0.82 0.062,-0.5 0.043,-0.477 0.023,-0.468 -0.023,-0.481 -0.043,-0.476 -0.082,-0.469 -0.09,-0.481 -0.105,-0.449 -0.153,-0.457 -0.152,-0.48 -0.195,-0.45 -0.196,-0.449 -0.214,-0.437 -0.215,-0.45 -0.239,-0.461 -0.257,-0.429 -0.262,-0.43 -0.277,-0.43 -0.286,-0.437 -0.3,-0.43 -0.278,-0.429 -0.304,-0.43 -0.301,-0.41 -0.305,-0.41 -0.324,-0.442 -0.301,-0.41 -0.301,-0.41 -0.285,-0.41 -0.301,-0.379 -0.277,-0.41 -0.285,-0.411 -0.277,-0.39 2.586,-1.672 0.175,-0.164 0.172,-0.176 0.153,-0.195 0.128,-0.196 0.129,-0.195 0.11,-0.215 0.109,-0.215 0.066,-0.214 0.063,-0.235 0.043,-0.215 0.043,-0.246 v -0.215 -0.234 l -0.043,-0.242 -0.043,-0.234 -0.063,-0.235 -0.625,-1.711 -7.351,-15.117 -0.125,-0.215 -0.109,-0.215 -0.153,-0.195 -0.129,-0.223 -0.152,-0.187 -0.152,-0.195 -0.153,-0.176 -0.168,-0.176 -0.172,-0.145 -0.195,-0.156 -0.195,-0.129 -0.215,-0.125 -0.238,-0.09 -0.243,-0.066 -0.257,-0.059 -0.278,-0.031 -0.625,-0.019 -0.629,0.05 -0.605,0.059 -0.625,0.106 -5.098,-10.45 -0.172,-0.242 -0.238,-0.215 -0.262,-0.129 -0.3,-0.086 -0.348,-0.019 -0.348,0.039 -0.363,0.086 -0.367,0.156 -5.723,2.695 -0.152,0.071 -0.176,0.086 -0.172,0.109 -0.168,0.106 -0.152,0.128 -0.133,0.157 -0.125,0.164 -0.07,0.215 -0.039,0.226 v 0.184 l 0.039,0.226 0.047,0.184 0.062,0.195 0.086,0.227 0.109,0.215 0.106,0.215 2.984,6.347 -44.586,21.836 -2.976,-6.066 -0.11,-0.196 -0.128,-0.195 -0.129,-0.195 -0.153,-0.196 -0.148,-0.175 -0.176,-0.125 -0.191,-0.129 -0.196,-0.106 -0.238,-0.09 -0.262,-0.046 -0.257,-0.02 -0.258,0.02 -0.285,0.046 -0.235,0.09 -0.258,0.086 -0.238,0.11 -5.078,2.437 -0.234,0.129 -0.219,0.148 -0.192,0.176 -0.195,0.196 -0.152,0.214 -0.11,0.235 -0.066,0.261 -0.039,0.286 v 0.23 l 0.019,0.238 0.043,0.243 0.067,0.253 0.086,0.247 0.09,0.234 0.105,0.234 0.109,0.215 4.598,9.375 -0.777,0.801 -0.239,0.301 -0.214,0.304 -0.196,0.321 -0.152,0.351 -0.086,0.235 -0.062,0.254 -0.047,0.265 -0.02,0.262 0.047,0.254 0.082,0.285 0.086,0.281 0.109,0.254 8.231,16.613 0.281,0.477 0.301,0.469 0.324,0.461 0.344,0.429 0.176,0.176 0.152,0.145 0.191,0.156 0.176,0.148 0.195,0.125 0.192,0.118 0.219,0.109 0.234,0.059 0.238,0.066 0.239,0.019 0.281,0.02 0.281,-0.02 0.305,-0.039 0.32,-0.066 0.32,-0.109 0.368,-0.125 2.183,-0.891" /><path
         id="path114"
         style="fill:#231f20;fill-opacity:1;fill-rule:nonzero;stroke:none"
         d="m 231.02,682.547 h 5.363 v 0 c 0,0.109 0,0.324 0.062,0.691 0.043,0.391 0.043,0.778 0.11,1.274 0,0.433 0,0.863 0.043,1.32 0,0.426 0,0.754 0,0.969 v 0 h 0.105 v 0 c 0.277,-0.578 0.672,-1.141 1.106,-1.684 0.382,-0.562 0.882,-1.035 1.488,-1.488 0.605,-0.434 1.25,-0.758 2.07,-1.043 0.824,-0.297 1.754,-0.41 2.813,-0.41 1.574,0 3,0.328 4.211,1.019 1.211,0.649 2.246,1.645 3.066,2.895 0.816,1.273 1.426,2.742 1.879,4.558 0.363,1.75 0.586,3.735 0.586,5.918 v 0 0 0 c 0,4.77 -0.863,8.336 -2.617,10.797 -1.77,2.485 -4.125,3.672 -7.086,3.672 -1.813,0 -3.281,-0.367 -4.383,-1.187 -1.145,-0.84 -2.07,-1.879 -2.785,-3.129 v 0 h -0.11 v 16.933 h -5.703 v -36.136 0 c 0,-0.93 0,-1.856 -0.066,-2.676 -0.039,-0.824 -0.109,-1.602 -0.152,-2.293 v 0" /><path
         id="path116"
         style="fill:#231f20;fill-opacity:1;fill-rule:nonzero;stroke:none"
         d="m 258.109,682.547 h 5.704 v 28.121 h -5.704 v -28.121 0" /><path
         id="path118"
         style="fill:#231f20;fill-opacity:1;fill-rule:nonzero;stroke:none"
         d="m 257.961,716.309 h 6.023 v 6.089 h -6.023 v -6.089 0" /><path
         id="path120"
         style="fill:#231f20;fill-opacity:1;fill-rule:nonzero;stroke:none"
         d="m 271.156,683.629 c 0.867,-0.391 1.965,-0.758 3.324,-1.043 1.321,-0.258 2.809,-0.41 4.387,-0.41 3.199,0 5.598,0.738 7.301,2.336 1.641,1.578 2.461,3.609 2.461,6.136 v 0 0 0 c 0,1.707 -0.492,3.067 -1.426,4.122 -0.973,1.043 -2.285,2.078 -3.996,3.003 v 0 l -2.461,1.383 v 0 c -1.273,0.711 -2.199,1.297 -2.914,1.903 -0.715,0.562 -1.039,1.32 -1.039,2.246 0,0.992 0.324,1.812 1.039,2.418 0.715,0.605 1.75,0.89 3.176,0.89 1.164,0 2.246,-0.109 3.195,-0.328 0.93,-0.281 1.793,-0.562 2.57,-0.883 v 0 l 0.282,4.598 v 0 c -0.606,0.215 -1.426,0.434 -2.528,0.711 -1.148,0.215 -2.461,0.324 -3.957,0.324 -1.425,0 -2.675,-0.215 -3.84,-0.644 -1.144,-0.434 -2.14,-1.039 -2.96,-1.754 -0.821,-0.774 -1.469,-1.641 -1.922,-2.586 -0.43,-0.973 -0.649,-2.031 -0.649,-3.071 0,-0.972 0.172,-1.859 0.434,-2.632 0.277,-0.758 0.668,-1.426 1.164,-2.032 0.476,-0.586 1.035,-1.078 1.75,-1.535 0.711,-0.472 1.469,-0.926 2.351,-1.363 v 0 l 2.961,-1.488 v 0 c 1.254,-0.578 2.137,-1.254 2.637,-1.899 0.434,-0.672 0.649,-1.383 0.649,-2.093 0,-1.106 -0.434,-1.926 -1.321,-2.465 -0.863,-0.606 -2.074,-0.887 -3.562,-0.887 -1.364,0 -2.676,0.215 -3.824,0.715 -1.165,0.453 -2.137,0.883 -2.958,1.273 v 0 l -0.324,-4.945 v 0" /><path
         id="path122"
         style="fill:#231f20;fill-opacity:1;fill-rule:nonzero;stroke:none"
         d="m 231.133,611.875 -0.113,-4.453 v 0 c 0.48,-0.106 0.976,-0.215 1.578,-0.32 0.605,-0.051 1.211,-0.11 1.816,-0.11 1.363,0 2.461,0.168 3.395,0.539 0.882,0.387 1.593,0.946 2.132,1.66 0.497,0.762 0.891,1.688 1.106,2.848 0.168,1.156 0.281,2.473 0.281,4.004 v 0 31.234 h -5.703 v -31.515 0 c 0,-0.93 -0.066,-1.641 -0.105,-2.188 -0.114,-0.554 -0.286,-0.988 -0.457,-1.32 -0.219,-0.27 -0.497,-0.484 -0.754,-0.594 -0.325,-0.07 -0.715,-0.109 -1.168,-0.109 -0.368,0 -0.758,0.039 -1.078,0.109 -0.348,0.039 -0.672,0.149 -0.93,0.215 v 0" /><path
         id="path124"
         style="fill:#231f20;fill-opacity:1;fill-rule:nonzero;stroke:none"
         d="m 235.449,652.91 h 6.031 v 6.094 h -6.031 v -6.094 0" /><path
         id="path126"
         style="fill:#231f20;fill-opacity:1;fill-rule:nonzero;stroke:none"
         d="m 264.895,619.152 h 5.375 v 0 c -0.063,0.821 -0.11,1.688 -0.172,2.618 -0.043,0.878 -0.043,1.812 -0.043,2.742 v 0 22.765 h -5.703 v -16.504 0 c 0,-2.207 -0.454,-3.957 -1.278,-5.277 -0.816,-1.316 -2.179,-1.961 -3.992,-1.961 -1.488,0 -2.527,0.481 -3.242,1.465 -0.711,0.996 -1.098,2.578 -1.098,4.777 v 0 17.5 h -5.683 v -18.82 0 c 0,-2.961 0.648,-5.312 1.964,-7.059 1.321,-1.769 3.391,-2.617 6.243,-2.617 1.922,0 3.457,0.41 4.597,1.344 1.106,0.879 1.989,1.984 2.703,3.285 v 0 h 0.114 l 0.215,-4.258 v 0" /><path
         id="path128"
         style="fill:#231f20;fill-opacity:1;fill-rule:nonzero;stroke:none"
         d="m 277.68,620.234 c 0.867,-0.39 1.965,-0.761 3.328,-1.043 1.316,-0.253 2.805,-0.41 4.383,-0.41 3.199,0 5.593,0.742 7.3,2.332 1.641,1.582 2.461,3.614 2.461,6.141 v 0 0 0 c 0,1.703 -0.496,3.07 -1.425,4.121 -0.973,1.039 -2.286,2.074 -3.997,3 v 0 l -2.46,1.387 v 0 c -1.274,0.715 -2.204,1.301 -2.915,1.902 -0.71,0.559 -1.039,1.32 -1.039,2.25 0,0.984 0.329,1.805 1.039,2.41 0.711,0.606 1.75,0.887 3.172,0.887 1.168,0 2.246,-0.106 3.2,-0.32 0.929,-0.282 1.793,-0.567 2.57,-0.891 v 0 l 0.277,4.602 v 0 c -0.601,0.214 -1.422,0.437 -2.523,0.714 -1.149,0.215 -2.461,0.321 -3.957,0.321 -1.426,0 -2.676,-0.215 -3.84,-0.645 -1.149,-0.429 -2.141,-1.035 -2.961,-1.746 -0.82,-0.785 -1.469,-1.641 -1.926,-2.59 -0.429,-0.976 -0.648,-2.031 -0.648,-3.074 0,-0.969 0.176,-1.855 0.433,-2.629 0.282,-0.762 0.672,-1.426 1.168,-2.031 0.477,-0.586 1.035,-1.086 1.75,-1.531 0.711,-0.481 1.469,-0.93 2.352,-1.368 v 0 l 2.961,-1.484 v 0 c 1.254,-0.586 2.137,-1.262 2.637,-1.906 0.433,-0.676 0.648,-1.379 0.648,-2.09 0,-1.102 -0.434,-1.922 -1.316,-2.469 -0.868,-0.609 -2.079,-0.879 -3.567,-0.879 -1.363,0 -2.68,0.215 -3.824,0.711 -1.164,0.449 -2.137,0.879 -2.957,1.27 v 0 l -0.324,-4.942 v 0" /><path
         id="path130"
         style="fill:#231f20;fill-opacity:1;fill-rule:nonzero;stroke:none"
         d="m 318.008,623.086 h 0.105 v -15.77 h 5.703 v 34.969 0 c 0,0.926 0,1.856 0.039,2.676 0.071,0.82 0.114,1.602 0.176,2.316 v 0 h -5.422 v 0 c 0,-0.109 0,-0.343 0,-0.714 -0.062,-0.391 -0.062,-0.782 -0.062,-1.211 -0.047,-0.497 -0.047,-0.93 -0.047,-1.387 -0.062,-0.43 -0.062,-0.754 -0.062,-0.969 v 0 h -0.172 v 0 c -0.258,0.609 -0.649,1.145 -1.039,1.68 -0.387,0.57 -0.864,1.066 -1.465,1.496 -0.606,0.43 -1.321,0.82 -2.098,1.105 -0.82,0.254 -1.75,0.36 -2.785,0.36 -1.602,0 -3.024,-0.321 -4.234,-0.969 -1.254,-0.711 -2.247,-1.637 -3.067,-2.918 -0.82,-1.25 -1.469,-2.785 -1.859,-4.551 -0.43,-1.797 -0.649,-3.781 -0.649,-5.965 0,-4.777 0.864,-8.339 2.618,-10.8 1.765,-2.461 4.125,-3.653 7.085,-3.653 1.809,0 3.282,0.371 4.426,1.192 1.164,0.816 2.098,1.855 2.809,3.113 v 0" /><path
         id="path132"
         style="fill:#231f20;fill-opacity:1;fill-rule:nonzero;stroke:none"
         d="m 347.383,619.152 h 5.375 v 0 c -0.063,0.821 -0.106,1.688 -0.168,2.618 -0.047,0.878 -0.047,1.812 -0.047,2.742 v 0 22.765 h -5.703 v -16.504 0 c 0,-2.207 -0.453,-3.957 -1.274,-5.277 -0.82,-1.316 -2.183,-1.961 -3.996,-1.961 -1.488,0 -2.527,0.481 -3.238,1.465 -0.715,0.996 -1.102,2.578 -1.102,4.777 v 0 17.5 h -5.683 v -18.82 0 c 0,-2.961 0.648,-5.312 1.969,-7.059 1.32,-1.769 3.386,-2.617 6.242,-2.617 1.922,0 3.457,0.41 4.601,1.344 1.102,0.879 1.985,1.984 2.696,3.285 v 0 h 0.113 l 0.215,-4.258 v 0" /><path
         id="path134"
         style="fill:#231f20;fill-opacity:1;fill-rule:nonzero;stroke:none"
         d="m 360.969,647.102 h 4.711 v 13.152 h -4.711 v -13.152 0" /><path
         id="path136"
         style="fill:#231f20;fill-opacity:1;fill-rule:nonzero;stroke:none"
         d="m 382.418,650.711 h 3.887 l -3.567,7.973 h -5.918 l 5.598,-7.973 v 0" /><path
         id="path138"
         style="fill:#231f20;fill-opacity:1;fill-rule:nonzero;stroke:none"
         d="m 388.441,619.152 h 5.168 v 0 c -0.07,0.477 -0.175,1.188 -0.242,2.012 -0.043,0.82 -0.105,1.699 -0.105,2.633 v 0 13.43 0 c 0,1.863 -0.153,3.398 -0.543,4.609 -0.383,1.203 -0.989,2.199 -1.703,3.019 -0.606,0.711 -1.578,1.356 -2.895,1.961 -1.32,0.567 -3.023,0.821 -5.16,0.821 -1.816,0 -3.395,-0.215 -4.777,-0.645 -1.364,-0.429 -2.614,-0.926 -3.672,-1.535 v 0 l 0.453,-4.879 v 0 c 0.715,0.711 1.75,1.367 3.109,1.961 1.321,0.566 2.746,0.832 4.344,0.832 2.031,0 3.457,-0.547 4.32,-1.652 0.453,-0.535 0.778,-1.141 0.93,-1.805 0.168,-0.715 0.238,-1.476 0.238,-2.355 v 0 -1.153 h -2.031 v 0 c -4.562,0 -8.059,-0.773 -10.437,-2.246 -2.352,-1.535 -3.54,-3.945 -3.54,-7.238 0,-1.317 0.215,-2.461 0.645,-3.512 0.437,-1.039 1.043,-1.859 1.816,-2.57 0.715,-0.715 1.579,-1.211 2.571,-1.531 0.996,-0.371 2.031,-0.528 3.175,-0.528 2.098,0 3.739,0.41 4.993,1.297 1.207,0.82 2.203,1.797 2.914,2.902 v 0 h 0.109 v 0 c 0,-0.156 0,-0.441 0.043,-0.82 0,-0.39 0,-0.762 0.063,-1.156 0.046,-0.387 0.046,-0.77 0.109,-1.102 0.043,-0.379 0.043,-0.593 0.105,-0.75 v 0" /><path
         id="path140"
         style="fill:#231f20;fill-opacity:1;fill-rule:nonzero;stroke:none"
         d="m 235.625,545.254 h 5.703 v 23.742 h 5.098 v 4.383 h -5.098 v 5.363 0 c 0,1.266 0.258,2.196 0.754,2.848 0.496,0.664 1.387,0.988 2.527,0.988 0.325,0 0.778,-0.058 1.254,-0.164 0.492,-0.109 0.992,-0.215 1.383,-0.375 v 0 4.387 0 c -0.605,0.156 -1.316,0.32 -2.141,0.429 -0.816,0.106 -1.492,0.176 -1.984,0.176 -1.363,0 -2.574,-0.234 -3.504,-0.605 -0.926,-0.391 -1.703,-0.93 -2.308,-1.641 -0.606,-0.711 -1.039,-1.496 -1.317,-2.422 -0.262,-0.925 -0.367,-1.984 -0.367,-3.015 v 0 -5.969 h -4.605 v -4.383 h 4.605 v -23.742 0" /><path
         id="path142"
         style="fill:#231f20;fill-opacity:1;fill-rule:nonzero;stroke:none"
         d="m 252.711,545.254 h 5.703 v 28.125 h -5.703 v -28.125 0" /><path
         id="path144"
         style="fill:#231f20;fill-opacity:1;fill-rule:nonzero;stroke:none"
         d="m 252.559,579.016 h 6.027 v 6.093 h -6.027 v -6.093 0" /><path
         id="path146"
         style="fill:#231f20;fill-opacity:1;fill-rule:nonzero;stroke:none"
         d="m 266.383,545.254 h 5.703 v 16.66 c 0,2.199 0.43,3.945 1.359,5.207 0.887,1.27 2.203,1.875 3.996,1.875 1.489,0 2.532,-0.5 3.243,-1.484 0.668,-0.996 0.992,-2.578 0.992,-4.778 v 0 -17.48 h 5.703 v 18.801 0 c 0,2.957 -0.668,5.312 -1.988,7.078 -1.321,1.746 -3.395,2.617 -6.246,2.617 -1.641,0 -3.067,-0.371 -4.317,-1.191 -1.273,-0.84 -2.269,-1.981 -2.98,-3.457 v 0 h -0.11 v 0 c 0,0.156 0,0.48 0,0.871 -0.043,0.39 -0.043,0.82 -0.105,1.269 -0.047,0.43 -0.047,0.867 -0.047,1.25 -0.063,0.387 -0.063,0.711 -0.063,0.887 v 0 h -5.355 v 0 c 0.043,-0.82 0.105,-1.707 0.148,-2.586 0.067,-0.93 0.067,-1.855 0.067,-2.797 v 0 -22.742 0" /><path
         id="path148"
         style="fill:#231f20;fill-opacity:1;fill-rule:nonzero;stroke:none"
         d="m 297.094,548.262 c 1.058,-1.141 2.316,-2.032 3.804,-2.567 1.426,-0.547 2.957,-0.8 4.602,-0.8 1.645,0 3.176,0.253 4.641,0.8 1.425,0.535 2.703,1.426 3.742,2.567 1.035,1.144 1.918,2.636 2.523,4.445 0.606,1.797 0.93,4.063 0.93,6.629 v 0 0 0 c 0,2.531 -0.324,4.719 -0.93,6.523 -0.605,1.817 -1.488,3.352 -2.523,4.504 -1.039,1.141 -2.317,2.02 -3.742,2.567 -1.465,0.558 -2.996,0.82 -4.641,0.82 -1.645,0 -3.176,-0.262 -4.602,-0.82 -1.488,-0.547 -2.746,-1.426 -3.804,-2.567 -1.035,-1.152 -1.899,-2.687 -2.504,-4.504 -0.606,-1.804 -0.926,-3.992 -0.926,-6.523 0,-2.566 0.32,-4.832 0.926,-6.629 0.605,-1.809 1.469,-3.301 2.504,-4.445 v 0" /><path
         id="path150"
         style="fill:#231f20;fill-opacity:1;fill-rule:nonzero;stroke:none"
         d="m 364.316,545.254 h 5.161 v 0 c -0.063,0.48 -0.168,1.191 -0.235,2.012 -0.043,0.82 -0.109,1.711 -0.109,2.636 v 0 13.438 0 c 0,1.855 -0.149,3.39 -0.539,4.601 -0.391,1.211 -0.996,2.196 -1.707,3.016 -0.602,0.715 -1.578,1.367 -2.895,1.973 -1.316,0.558 -3.023,0.82 -5.164,0.82 -1.812,0 -3.39,-0.215 -4.769,-0.652 -1.364,-0.434 -2.618,-0.93 -3.672,-1.535 v 0 l 0.453,-4.872 v 0 c 0.715,0.711 1.75,1.356 3.109,1.961 1.317,0.559 2.739,0.821 4.344,0.821 2.027,0 3.457,-0.535 4.32,-1.641 0.45,-0.547 0.778,-1.141 0.926,-1.816 0.172,-0.711 0.234,-1.465 0.234,-2.352 v 0 -1.144 h -2.023 v 0 c -4.562,0 -8.059,-0.782 -10.437,-2.247 -2.352,-1.531 -3.543,-3.953 -3.543,-7.234 0,-1.32 0.218,-2.473 0.648,-3.527 0.434,-1.035 1.039,-1.856 1.816,-2.567 0.711,-0.715 1.579,-1.211 2.571,-1.535 0.996,-0.371 2.031,-0.515 3.172,-0.515 2.097,0 3.742,0.41 4.992,1.289 1.211,0.828 2.207,1.796 2.918,2.898 v 0 h 0.105 v 0 c 0,-0.156 0,-0.43 0.039,-0.82 0,-0.391 0,-0.762 0.071,-1.141 0.043,-0.391 0.043,-0.781 0.109,-1.105 0.043,-0.391 0.043,-0.606 0.105,-0.762 v 0" /><path
         id="path152"
         style="fill:#231f20;fill-opacity:1;fill-rule:nonzero;stroke:none"
         d="m 247.566,481.887 h 5.164 v 0 c -0.062,0.468 -0.171,1.179 -0.234,2.011 -0.047,0.821 -0.113,1.7 -0.113,2.625 v 0 13.438 0 c 0,1.855 -0.149,3.391 -0.535,4.602 -0.391,1.21 -0.996,2.207 -1.711,3.027 -0.602,0.711 -1.578,1.355 -2.891,1.961 -1.316,0.566 -3.027,0.82 -5.164,0.82 -1.812,0 -3.391,-0.215 -4.773,-0.644 -1.364,-0.43 -2.618,-0.926 -3.672,-1.532 v 0 l 0.457,-4.882 v 0 c 0.711,0.71 1.746,1.355 3.109,1.96 1.313,0.567 2.738,0.821 4.34,0.821 2.031,0 3.457,-0.535 4.32,-1.641 0.45,-0.535 0.778,-1.14 0.93,-1.816 0.172,-0.711 0.234,-1.465 0.234,-2.352 v 0 -1.144 H 245 v 0 c -4.562,0 -8.059,-0.782 -10.434,-2.246 -2.355,-1.532 -3.546,-3.954 -3.546,-7.235 0,-1.32 0.218,-2.461 0.652,-3.515 0.433,-1.047 1.039,-1.868 1.812,-2.579 0.715,-0.714 1.579,-1.211 2.571,-1.535 0.996,-0.359 2.031,-0.515 3.175,-0.515 2.098,0 3.739,0.41 4.989,1.297 1.211,0.82 2.207,1.796 2.922,2.89 v 0 h 0.105 v 0 c 0,-0.144 0,-0.43 0.039,-0.82 0,-0.391 0,-0.75 0.07,-1.141 0.043,-0.39 0.043,-0.781 0.106,-1.105 0.043,-0.391 0.043,-0.606 0.105,-0.75 v 0" /><path
         id="path154"
         style="fill:#231f20;fill-opacity:1;fill-rule:nonzero;stroke:none"
         d="m 259.688,482.961 c 0.863,-0.383 1.96,-0.754 3.324,-1.035 1.32,-0.254 2.808,-0.41 4.386,-0.41 3.2,0 5.594,0.73 7.297,2.332 1.645,1.582 2.461,3.605 2.461,6.132 v 0 0 0 c 0,1.711 -0.492,3.067 -1.426,4.133 -0.968,1.035 -2.285,2.071 -3.992,2.996 v 0 l -2.461,1.387 v 0 c -1.273,0.715 -2.203,1.289 -2.914,1.895 -0.715,0.566 -1.043,1.32 -1.043,2.246 0,0.996 0.328,1.816 1.043,2.422 0.711,0.605 1.746,0.89 3.172,0.89 1.168,0 2.246,-0.109 3.199,-0.324 0.93,-0.281 1.793,-0.566 2.571,-0.887 v 0 l 0.281,4.598 v 0 c -0.606,0.215 -1.426,0.43 -2.527,0.715 -1.149,0.215 -2.461,0.32 -3.957,0.32 -1.426,0 -2.676,-0.215 -3.844,-0.644 -1.141,-0.43 -2.137,-1.036 -2.957,-1.747 -0.821,-0.781 -1.469,-1.64 -1.926,-2.597 -0.43,-0.969 -0.645,-2.031 -0.645,-3.067 0,-0.968 0.172,-1.855 0.43,-2.636 0.285,-0.754 0.672,-1.426 1.168,-2.032 0.473,-0.578 1.035,-1.074 1.746,-1.535 0.715,-0.468 1.473,-0.925 2.356,-1.355 v 0 l 2.961,-1.496 v 0 c 1.254,-0.574 2.136,-1.25 2.632,-1.895 0.438,-0.672 0.653,-1.387 0.653,-2.097 0,-1.106 -0.438,-1.926 -1.321,-2.461 -0.863,-0.606 -2.074,-0.891 -3.562,-0.891 -1.363,0 -2.676,0.227 -3.824,0.715 -1.168,0.457 -2.137,0.887 -2.957,1.277 v 0 l -0.324,-4.949 v 0" /><path
         id="path156"
         style="fill:#231f20;fill-opacity:1;fill-rule:nonzero;stroke:none"
         d="m 311.742,481.887 h 5.703 v 23.738 h 5.098 v 4.387 h -5.098 v 5.351 0 c 0,1.278 0.262,2.207 0.754,2.852 0.496,0.672 1.387,0.996 2.528,0.996 0.324,0 0.777,-0.07 1.253,-0.176 0.497,-0.109 0.993,-0.215 1.383,-0.363 v 0 4.387 0 c -0.605,0.144 -1.316,0.32 -2.136,0.429 -0.821,0.106 -1.493,0.176 -1.989,0.176 -1.363,0 -2.574,-0.246 -3.5,-0.605 -0.929,-0.391 -1.707,-0.93 -2.308,-1.653 -0.61,-0.703 -1.043,-1.484 -1.321,-2.41 -0.257,-0.93 -0.367,-1.992 -0.367,-3.027 v 0 -5.957 h -4.597 v -4.387 h 4.597 v -23.738 0" /><path
         id="path158"
         style="fill:#231f20;fill-opacity:1;fill-rule:nonzero;stroke:none"
         d="m 342.867,481.887 h 5.164 v 0 c -0.066,0.468 -0.176,1.179 -0.238,2.011 -0.043,0.821 -0.105,1.7 -0.105,2.625 v 0 13.438 0 c 0,1.855 -0.153,3.391 -0.543,4.602 -0.387,1.21 -0.993,2.207 -1.707,3.027 -0.602,0.711 -1.575,1.355 -2.895,1.961 -1.316,0.566 -3.02,0.82 -5.16,0.82 -1.817,0 -3.395,-0.215 -4.778,-0.644 -1.359,-0.43 -2.609,-0.926 -3.667,-1.532 v 0 l 0.453,-4.882 v 0 c 0.711,0.71 1.746,1.355 3.109,1.96 1.316,0.567 2.742,0.821 4.34,0.821 2.031,0 3.457,-0.535 4.324,-1.641 0.453,-0.535 0.774,-1.14 0.926,-1.816 0.172,-0.711 0.238,-1.465 0.238,-2.352 v 0 -1.144 h -2.031 v 0 c -4.559,0 -8.055,-0.782 -10.434,-2.246 -2.351,-1.532 -3.539,-3.954 -3.539,-7.235 0,-1.32 0.215,-2.461 0.645,-3.515 0.433,-1.047 1.039,-1.868 1.816,-2.579 0.711,-0.714 1.574,-1.211 2.567,-1.535 0.996,-0.359 2.031,-0.515 3.179,-0.515 2.094,0 3.735,0.41 4.992,1.297 1.204,0.82 2.2,1.796 2.915,2.89 v 0 h 0.105 v 0 c 0,-0.144 0,-0.43 0.047,-0.82 0,-0.391 0,-0.75 0.062,-1.141 0.043,-0.39 0.043,-0.781 0.106,-1.105 0.047,-0.391 0.047,-0.606 0.109,-0.75 v 0" /><path
         id="path160"
         style="fill:#231f20;fill-opacity:1;fill-rule:nonzero;stroke:none"
         d="m 355.609,481.887 h 5.704 v 15.117 c 0,1.426 0.152,2.637 0.476,3.672 0.344,1.035 0.777,1.855 1.316,2.527 0.563,0.606 1.211,1.106 1.922,1.426 0.715,0.285 1.43,0.43 2.246,0.43 0.348,0 0.672,0 0.93,-0.039 0.281,-0.067 0.606,-0.106 0.891,-0.176 v 0 5.488 0 c -0.11,0 -0.223,0 -0.285,0.039 -0.043,0 -0.153,0 -0.258,0 -1.063,0 -1.988,-0.105 -2.809,-0.359 -0.82,-0.285 -1.469,-0.676 -2.074,-1.172 -0.605,-0.5 -1.168,-1.035 -1.598,-1.641 -0.433,-0.605 -0.82,-1.25 -1.101,-1.965 v 0 h -0.11 v 0 c 0,0.215 0,0.539 0,0.969 -0.043,0.457 -0.043,0.957 -0.105,1.426 -0.047,0.496 -0.047,0.957 -0.047,1.387 -0.062,0.429 -0.062,0.75 -0.062,0.996 v 0 h -5.25 v 0 c 0.043,-0.821 0.109,-1.711 0.152,-2.598 0.062,-0.93 0.062,-1.855 0.062,-2.785 v 0 -22.742 0" /><path
         id="path162"
         style="fill:#231f20;fill-opacity:1;fill-rule:nonzero;stroke:none"
         d="m 414.145,481.887 h 5.168 v 0 c -0.071,0.468 -0.176,1.179 -0.243,2.011 -0.043,0.821 -0.105,1.7 -0.105,2.625 v 0 13.438 0 c 0,1.855 -0.152,3.391 -0.543,4.602 -0.383,1.21 -0.988,2.207 -1.703,3.027 -0.606,0.711 -1.578,1.355 -2.895,1.961 -1.32,0.566 -3.023,0.82 -5.16,0.82 -1.816,0 -3.394,-0.215 -4.777,-0.644 -1.36,-0.43 -2.614,-0.926 -3.672,-1.532 v 0 l 0.453,-4.882 v 0 c 0.715,0.71 1.75,1.355 3.109,1.96 1.321,0.567 2.746,0.821 4.344,0.821 2.031,0 3.457,-0.535 4.32,-1.641 0.454,-0.535 0.778,-1.14 0.926,-1.816 0.18,-0.711 0.242,-1.465 0.242,-2.352 v 0 -1.144 h -2.031 v 0 c -4.555,0 -8.058,-0.782 -10.433,-2.246 -2.356,-1.532 -3.543,-3.954 -3.543,-7.235 0,-1.32 0.214,-2.461 0.652,-3.515 0.43,-1.047 1.035,-1.868 1.809,-2.579 0.714,-0.714 1.578,-1.211 2.574,-1.535 0.992,-0.359 2.027,-0.515 3.176,-0.515 2.093,0 3.734,0.41 4.988,1.297 1.207,0.82 2.203,1.796 2.914,2.89 v 0 h 0.109 v 0 c 0,-0.144 0,-0.43 0.043,-0.82 0,-0.391 0,-0.75 0.063,-1.141 0.047,-0.39 0.047,-0.781 0.109,-1.105 0.043,-0.391 0.043,-0.606 0.106,-0.75 v 0" /><path
         id="path164"
         style="fill:#231f20;fill-opacity:1;fill-rule:nonzero;stroke:none"
         d="m 426.266,482.961 c 0.863,-0.383 1.964,-0.754 3.324,-1.035 1.316,-0.254 2.808,-0.41 4.387,-0.41 3.195,0 5.593,0.73 7.3,2.332 1.645,1.582 2.461,3.605 2.461,6.132 v 0 0 0 c 0,1.711 -0.496,3.067 -1.425,4.133 -0.969,1.035 -2.29,2.071 -3.993,2.996 v 0 l -2.465,1.387 v 0 c -1.273,0.715 -2.203,1.289 -2.917,1.895 -0.711,0.566 -1.036,1.32 -1.036,2.246 0,0.996 0.325,1.816 1.036,2.422 0.714,0.605 1.75,0.89 3.175,0.89 1.168,0 2.246,-0.109 3.2,-0.324 0.925,-0.281 1.792,-0.566 2.566,-0.887 v 0 l 0.285,4.598 v 0 c -0.605,0.215 -1.426,0.43 -2.531,0.715 -1.141,0.215 -2.461,0.32 -3.949,0.32 -1.426,0 -2.68,-0.215 -3.848,-0.644 -1.145,-0.43 -2.141,-1.036 -2.957,-1.747 -0.82,-0.781 -1.465,-1.64 -1.922,-2.597 -0.434,-0.969 -0.648,-2.031 -0.648,-3.067 0,-0.968 0.171,-1.855 0.429,-2.636 0.285,-0.754 0.676,-1.426 1.168,-2.032 0.477,-0.578 1.039,-1.074 1.75,-1.535 0.715,-0.468 1.469,-0.925 2.356,-1.355 v 0 l 2.961,-1.496 v 0 c 1.25,-0.574 2.136,-1.25 2.632,-1.895 0.434,-0.672 0.649,-1.387 0.649,-2.097 0,-1.106 -0.434,-1.926 -1.32,-2.461 -0.864,-0.606 -2.071,-0.891 -3.567,-0.891 -1.355,0 -2.676,0.227 -3.816,0.715 -1.168,0.457 -2.137,0.887 -2.965,1.277 v 0 l -0.32,-4.949 v 0" /><path
         id="path166"
         style="fill:#231f20;fill-opacity:1;fill-rule:nonzero;stroke:none"
         d="m 537.223,579.688 h 11.043 v 31.515 h 3.476 v 0 c 2.981,0 5.227,-0.519 6.867,-1.64 1.532,-1.125 2.852,-3.176 3.778,-6.137 v 0 l 7.668,-23.738 h 11.777 l -9.621,27.929 v 0 c -0.926,2.656 -2.051,4.492 -3.281,5.633 -1.317,1.02 -2.852,1.73 -4.598,2.035 v 0 0.211 0 c 4.707,0.91 8.184,2.856 10.547,5.949 2.351,3.067 3.476,6.739 3.476,11.035 0,3.282 -0.519,6.047 -1.535,8.399 -1.015,2.355 -2.468,4.297 -4.304,5.828 -1.836,1.535 -3.996,2.66 -6.543,3.371 -2.571,0.711 -5.422,1.043 -8.489,1.043 v 0 h -20.261 v -71.433 0" /><path
         id="path168"
         style="fill:#231f20;fill-opacity:1;fill-rule:nonzero;stroke:none"
         d="m 600.883,602.91 h 29.98 v 3.586 c 0,4.598 -0.496,8.484 -1.425,11.856 -0.926,3.386 -2.247,6.16 -4.004,8.3 -1.719,2.157 -3.887,3.688 -6.239,4.707 -2.441,1.036 -5.117,1.532 -7.968,1.532 -3.282,0 -6.243,-0.606 -8.809,-1.942 -2.656,-1.32 -4.902,-3.261 -6.66,-5.617 -1.731,-2.469 -3.176,-5.34 -4.082,-8.711 -0.93,-3.371 -1.426,-7.058 -1.426,-11.055 0,-3.777 0.496,-7.363 1.426,-10.652 0.906,-3.262 2.246,-6.027 4.187,-8.379 1.836,-2.355 4.2,-4.191 7.071,-5.531 2.871,-1.402 6.242,-2.027 10.019,-2.027 3.281,0 6.242,0.32 8.809,1.015 2.551,0.711 4.609,1.422 6.359,2.137 v 0 l -0.519,8.898 v 0 c -1.348,-0.91 -3.067,-1.836 -5.125,-2.765 -2.161,-0.907 -4.707,-1.426 -7.774,-1.426 -4.922,0 -8.398,1.336 -10.539,4.102 -2.156,2.656 -3.281,6.66 -3.281,11.972 v 0" /><path
         id="path170"
         style="fill:#231f20;fill-opacity:1;fill-rule:nonzero;stroke:none"
         d="m 671.559,579.688 h 9.629 v 0 c -0.11,0.91 -0.305,2.246 -0.411,3.777 -0.109,1.535 -0.214,3.176 -0.214,4.906 v 0 25.078 0 c 0,3.473 -0.305,6.344 -1.016,8.59 -0.715,2.25 -1.836,4.113 -3.176,5.649 -1.121,1.316 -2.957,2.546 -5.418,3.671 -2.461,1.036 -5.637,1.532 -9.609,1.532 -3.399,0 -6.36,-0.411 -8.926,-1.231 -2.551,-0.82 -4.902,-1.726 -6.848,-2.851 v 0 l 0.821,-9.121 v 0 c 1.32,1.347 3.261,2.55 5.832,3.703 2.461,1.015 5.117,1.531 8.074,1.531 3.781,0 6.465,-1.047 8.086,-3.067 0.82,-1.042 1.445,-2.167 1.75,-3.398 0.301,-1.316 0.41,-2.762 0.41,-4.406 v 0 -2.137 h -3.781 v 0 c -8.516,0 -15.059,-1.426 -19.461,-4.187 -4.387,-2.872 -6.633,-7.364 -6.633,-13.528 0,-2.441 0.391,-4.597 1.211,-6.543 0.82,-1.945 1.945,-3.476 3.391,-4.816 1.316,-1.317 2.957,-2.242 4.793,-2.848 1.855,-0.695 3.8,-1.015 5.937,-1.015 3.887,0 6.953,0.8 9.316,2.437 2.266,1.535 4.102,3.371 5.422,5.422 v 0 h 0.215 v 0 c 0,-0.301 0,-0.82 0.106,-1.535 0,-0.711 0,-1.426 0.089,-2.137 0.106,-0.73 0.106,-1.445 0.215,-2.051 0.106,-0.711 0.106,-1.121 0.196,-1.425 v 0" /><path
         id="path172"
         style="fill:#231f20;fill-opacity:1;fill-rule:nonzero;stroke:none"
         d="m 695.27,579.688 h 10.632 v 76.75 H 695.27 v -76.75 0" /><path
         id="path174"
         style="fill:#231f20;fill-opacity:1;fill-rule:nonzero;stroke:none"
         d="m 731.539,587.051 h 0.215 v 0 c 1.316,-2.352 3.066,-4.297 5.203,-5.828 2.051,-1.535 4.816,-2.246 8.184,-2.246 5.539,0 9.941,2.246 13.222,6.843 3.262,4.598 4.903,11.262 4.903,20.157 v 0 0 0 c 0,4.101 -0.411,7.773 -1.121,11.164 -0.821,3.261 -1.946,6.14 -3.477,8.492 -1.535,2.355 -3.477,4.082 -5.742,5.422 -2.356,1.23 -4.903,1.836 -7.863,1.836 -1.942,0 -3.7,-0.196 -5.235,-0.715 -1.531,-0.516 -2.762,-1.227 -3.887,-2.051 -1.121,-0.816 -2.05,-1.727 -2.761,-2.762 -0.821,-1.015 -1.535,-2.031 -2.051,-3.156 v 0 h -0.195 v 0 c 0,0.5 0,1.125 0,1.945 -0.11,0.801 -0.11,1.621 -0.11,2.442 -0.105,0.82 -0.105,1.531 -0.195,2.246 -0.106,0.734 -0.106,1.144 -0.106,1.336 v 0 h -10.019 v 0 c 0.086,-1.336 0.195,-2.762 0.301,-4.297 0.09,-1.531 0.09,-3.289 0.09,-5.016 v 0 -65.273 h 10.644 v 29.461 0" /><path
         id="path176"
         style="fill:#ee2c30;fill-opacity:1;fill-rule:nonzero;stroke:none"
         d="m 313.43,1036.01 c -1.453,2.48 -2.231,6.39 -2.231,11.78 0,5.02 0.696,8.78 2.055,11.42 1.273,2.57 3.5,3.84 6.566,3.93 2.895,0 5.121,-1.27 6.739,-3.85 1.531,-2.55 2.289,-6.39 2.289,-11.42 v 0 0 0 c 0,-5.29 -0.758,-9.2 -2.203,-11.78 -1.446,-2.63 -3.84,-3.9 -7.172,-3.9 -2.547,0 -4.598,1.27 -6.043,3.82 v 0" /><path
         id="path178"
         style="fill:#ee2c30;fill-opacity:1;fill-rule:nonzero;stroke:none"
         d="m 356.41,1051.11 c 0.09,4.02 0.863,7.17 2.313,9.37 1.449,2.14 3.5,3.24 6.047,3.24 5.293,0 7.925,-4.17 7.925,-12.61 v 0 H 356.41 v 0" /><path
         id="path180"
         style="fill:#ee2c30;fill-opacity:1;fill-rule:nonzero;stroke:none"
         d="m 535.777,1036.27 c -0.781,1.44 -1.3,3.07 -1.535,5.03 -0.34,1.97 -0.515,4.02 -0.515,6.31 0,2.31 0.175,4.36 0.515,6.3 0.235,1.97 0.754,3.59 1.535,5.04 0.75,1.38 1.707,2.48 2.891,3.24 1.102,0.78 2.547,1.21 4.258,1.21 1.707,0 3.152,-0.43 4.363,-1.21 1.106,-0.76 2.031,-1.86 2.813,-3.24 0.773,-1.45 1.269,-3.07 1.613,-5.04 0.262,-1.94 0.437,-3.99 0.437,-6.3 v 0 0 0 c 0,-2.29 -0.175,-4.34 -0.437,-6.31 -0.344,-1.96 -0.84,-3.59 -1.613,-5.03 -0.782,-1.45 -1.707,-2.55 -2.813,-3.32 -1.211,-0.76 -2.656,-1.2 -4.363,-1.2 -1.711,0 -3.156,0.44 -4.258,1.2 -1.184,0.77 -2.141,1.87 -2.891,3.32 v 0" /><path
         id="path182"
         style="fill:#ee2c30;fill-opacity:1;fill-rule:nonzero;stroke:none"
         d="m 652.348,1051.11 c 0.09,4.02 0.871,7.17 2.316,9.37 1.445,2.14 3.496,3.24 6.043,3.24 5.293,0 7.93,-4.17 7.93,-12.61 v 0 h -16.289 v 0" /><path
         id="path184"
         style="fill:#ee2c30;fill-opacity:1;fill-rule:nonzero;stroke:none"
         d="m 320.102,949.047 c 0.086,4.019 0.867,7.176 2.312,9.375 1.441,2.141 3.5,3.238 6.047,3.238 5.293,0 7.926,-4.164 7.926,-12.613 v 0 h -16.285 v 0" /><path
         id="path186"
         style="fill:#ee2c30;fill-opacity:1;fill-rule:nonzero;stroke:none"
         d="m 457.395,949.047 c 0.082,4.019 0.863,7.176 2.308,9.375 1.445,2.141 3.5,3.238 6.051,3.238 5.285,0 7.922,-4.164 7.922,-12.613 v 0 h -16.281 v 0" /><path
         id="path188"
         style="fill:#ee2c30;fill-opacity:1;fill-rule:nonzero;stroke:none"
         d="m 715.621,934.207 c -0.781,1.449 -1.301,3.07 -1.535,5.035 -0.352,1.965 -0.516,4.016 -0.516,6.305 0,2.316 0.164,4.367 0.516,6.308 0.234,1.969 0.754,3.586 1.535,5.036 0.75,1.382 1.707,2.484 2.891,3.234 1.101,0.785 2.547,1.211 4.258,1.211 1.707,0 3.152,-0.426 4.363,-1.211 1.105,-0.75 2.031,-1.852 2.805,-3.234 0.781,-1.45 1.277,-3.067 1.621,-5.036 0.261,-1.941 0.429,-3.992 0.429,-6.308 v 0 0 0 c 0,-2.289 -0.168,-4.34 -0.429,-6.305 -0.344,-1.965 -0.84,-3.586 -1.621,-5.035 -0.774,-1.441 -1.7,-2.547 -2.805,-3.324 -1.211,-0.758 -2.656,-1.192 -4.363,-1.192 -1.711,0 -3.157,0.434 -4.258,1.192 -1.184,0.777 -2.141,1.883 -2.891,3.324 v 0" /><path
         id="path190"
         style="fill:#ee2c30;fill-opacity:1;fill-rule:nonzero;stroke:none"
         d="m 470.891,840.918 c -0.778,1.445 -1.297,3.066 -1.536,5.035 -0.339,1.961 -0.515,4.02 -0.515,6.301 0,2.316 0.176,4.367 0.515,6.312 0.239,1.965 0.758,3.586 1.536,5.032 0.754,1.382 1.707,2.484 2.894,3.238 1.102,0.781 2.547,1.211 4.258,1.211 1.703,0 3.152,-0.43 4.359,-1.211 1.106,-0.754 2.032,-1.856 2.809,-3.238 0.781,-1.446 1.273,-3.067 1.621,-5.032 0.258,-1.945 0.434,-3.996 0.434,-6.312 v 0 0 0 c 0,-2.281 -0.176,-4.34 -0.434,-6.301 -0.348,-1.969 -0.84,-3.59 -1.621,-5.035 -0.777,-1.445 -1.703,-2.547 -2.809,-3.324 -1.207,-0.758 -2.656,-1.188 -4.359,-1.188 -1.711,0 -3.156,0.43 -4.258,1.188 -1.187,0.777 -2.14,1.879 -2.894,3.324 v 0" /><path
         id="path192"
         style="fill:#ee2c30;fill-opacity:1;fill-rule:nonzero;stroke:none"
         d="m 549.801,855.758 c 0.078,4.019 0.859,7.172 2.304,9.375 1.446,2.137 3.504,3.242 6.055,3.242 5.281,0 7.918,-4.172 7.918,-12.617 v 0 h -16.277 v 0" /><path
         id="path194"
         style="fill:#ee2c30;fill-opacity:1;fill-rule:nonzero;stroke:none"
         d="m 595.543,840.488 c -1.27,2.657 -1.965,6.653 -1.965,11.946 0,5.031 0.695,8.875 2.051,11.511 1.359,2.657 3.586,4.02 6.738,4.02 3.156,0 5.383,-1.363 6.828,-4.195 1.356,-2.809 2.032,-6.649 2.032,-11.516 v 0 0 0 c 0,-4.856 -0.676,-8.699 -2.032,-11.508 -1.445,-2.805 -3.761,-4.258 -6.914,-4.258 -3.234,0 -5.461,1.364 -6.738,4 v 0" /><path
         id="path196"
         style="fill:#ffffff;fill-opacity:1;fill-rule:nonzero;stroke:none"
         d="m 436.609,238.281 -38.836,19.395 -0.3,0.32 -0.239,0.375 -0.191,0.391 -0.133,0.429 -0.109,0.411 -0.043,0.449 -0.02,0.457 0.043,0.449 0.067,0.461 0.129,0.43 0.152,0.429 0.191,0.43 0.258,0.391 0.281,0.39 0.325,0.34 0.371,0.324 0.324,0.223 0.41,0.148 0.43,0.125 0.496,0.071 0.543,0.039 0.558,-0.02 0.625,-0.058 0.653,-0.09 0.687,-0.137 0.711,-0.144 0.738,-0.196 0.758,-0.215 0.778,-0.234 0.797,-0.266 0.824,-0.3 0.82,-0.305 0.84,-0.32 0.844,-0.325 0.839,-0.351 0.844,-0.359 0.864,-0.372 0.824,-0.363 0.84,-0.371 0.796,-0.391 0.825,-0.359 0.773,-0.371 0.781,-0.371 0.735,-0.344 0.711,-0.34 0.695,-0.332 0.645,-0.324 0.628,-0.301 0.258,-0.109 0.281,-0.145 0.301,-0.136 0.305,-0.149 0.32,-0.156 0.328,-0.145 0.368,-0.175 0.343,-0.168 0.387,-0.176 0.371,-0.195 0.387,-0.196 0.41,-0.195 0.41,-0.195 0.434,-0.215 0.41,-0.215 0.43,-0.215 0.453,-0.215 0.433,-0.242 0.457,-0.234 0.45,-0.235 0.453,-0.234 0.453,-0.246 0.48,-0.254 0.45,-0.262 0.453,-0.254 0.476,-0.265 0.457,-0.262 0.449,-0.254 0.454,-0.285 0.453,-0.281 0.457,-0.254 0.453,-0.285 0.43,-0.301 0.433,-0.285 0.43,-0.274 0.433,-0.281 0.411,-0.305 0.41,-0.301 0.39,-0.285 0.387,-0.3 0.367,-0.305 0.371,-0.301 0.34,-0.273 0.348,-0.305 0.328,-0.301 0.32,-0.305 0.282,-0.3 0.281,-0.305 0.277,-0.32 0.238,-0.285 0.243,-0.321 0.214,-0.304 0.196,-0.301 0.172,-0.305 0.148,-0.281 0.152,-0.305 0.11,-0.301 0.086,-0.304 0.062,-0.301 0.043,-0.285 0.028,-0.301 v -0.273 l -0.028,-0.305 -0.062,-0.281 -0.153,-0.5 -0.191,-0.43 -0.262,-0.391 -0.301,-0.371 -0.324,-0.301 -0.344,-0.254 -0.367,-0.214 -0.41,-0.176 -0.39,-0.129 -0.43,-0.09 -0.414,-0.035 -0.387,-0.031 -0.41,0.031 -0.367,0.059 -0.371,0.105 -0.325,0.156" /><path
         id="path198"
         style="fill:#ffffff;fill-opacity:1;fill-rule:nonzero;stroke:none"
         d="m 238.301,689.289 c -0.926,1.789 -1.36,4.277 -1.36,7.34 0,3.113 0.434,5.598 1.36,7.391 0.929,1.812 2.351,2.699 4.34,2.699 2.031,0 3.457,-0.887 4.324,-2.574 0.816,-1.766 1.254,-4.231 1.254,-7.407 v 0 0 0 c 0,-3.457 -0.367,-5.98 -1.192,-7.664 -0.82,-1.711 -2.308,-2.594 -4.339,-2.594 -2.036,0 -3.5,0.926 -4.387,2.809 v 0" /><path
         id="path200"
         style="fill:#ffffff;fill-opacity:1;fill-rule:nonzero;stroke:none"
         d="m 308.07,625.711 c -0.863,1.711 -1.316,4.172 -1.316,7.348 0,3.457 0.453,6.031 1.273,7.73 0.821,1.711 2.289,2.531 4.321,2.531 2.027,0 3.519,-0.925 4.449,-2.742 0.883,-1.855 1.316,-4.336 1.316,-7.406 v 0 0 0 c 0,-3.113 -0.433,-5.594 -1.379,-7.391 -0.933,-1.816 -2.359,-2.695 -4.32,-2.695 -2.031,0 -3.457,0.879 -4.344,2.625 v 0" /><path
         id="path202"
         style="fill:#ffffff;fill-opacity:1;fill-rule:nonzero;stroke:none"
         d="m 387.906,632.91 v -2.531 c 0,-2.246 -0.5,-4.059 -1.496,-5.418 -1.035,-1.426 -2.523,-2.137 -4.555,-2.137 -1.468,0 -2.566,0.426 -3.324,1.25 -0.777,0.821 -1.168,1.969 -1.168,3.348 0,1.855 0.711,3.242 2.203,4.168 1.469,0.93 3.61,1.359 6.414,1.359 0.325,0 0.653,0 1.036,0 0.39,0 0.714,0 0.89,-0.039 v 0" /><path
         id="path204"
         style="fill:#ffffff;fill-opacity:1;fill-rule:nonzero;stroke:none"
         d="m 300.898,552.043 c -0.5,0.926 -0.839,1.98 -0.992,3.242 -0.218,1.25 -0.324,2.567 -0.324,4.051 0,1.477 0.106,2.793 0.324,4.062 0.153,1.262 0.492,2.297 0.992,3.223 0.473,0.891 1.079,1.602 1.86,2.09 0.711,0.5 1.64,0.762 2.742,0.762 1.102,0 2.027,-0.262 2.785,-0.762 0.715,-0.488 1.32,-1.199 1.817,-2.09 0.496,-0.926 0.82,-1.961 1.035,-3.223 0.172,-1.269 0.281,-2.585 0.281,-4.062 v 0 0 0 c 0,-1.484 -0.109,-2.801 -0.281,-4.051 -0.215,-1.262 -0.539,-2.316 -1.035,-3.242 -0.497,-0.93 -1.102,-1.641 -1.817,-2.141 -0.758,-0.496 -1.683,-0.761 -2.785,-0.761 -1.102,0 -2.031,0.265 -2.742,0.761 -0.781,0.5 -1.387,1.211 -1.86,2.141 v 0" /><path
         id="path206"
         style="fill:#ffffff;fill-opacity:1;fill-rule:nonzero;stroke:none"
         d="m 363.773,559.016 v -2.52 c 0,-2.258 -0.492,-4.062 -1.488,-5.43 -1.035,-1.425 -2.523,-2.14 -4.555,-2.14 -1.468,0 -2.574,0.441 -3.328,1.262 -0.777,0.82 -1.164,1.96 -1.164,3.347 0,1.856 0.711,3.235 2.2,4.16 1.472,0.938 3.609,1.368 6.417,1.368 0.325,0 0.645,0 1.036,0 0.39,0 0.714,0 0.882,-0.047 v 0" /><path
         id="path208"
         style="fill:#ffffff;fill-opacity:1;fill-rule:nonzero;stroke:none"
         d="m 247.027,495.645 v -2.528 c 0,-2.246 -0.496,-4.062 -1.488,-5.422 -1.035,-1.425 -2.527,-2.136 -4.559,-2.136 -1.468,0 -2.574,0.429 -3.324,1.25 -0.781,0.82 -1.168,1.961 -1.168,3.347 0,1.856 0.715,3.242 2.203,4.172 1.469,0.926 3.61,1.356 6.414,1.356 0.325,0 0.649,0 1.04,0 0.386,0 0.71,0 0.882,-0.039 v 0" /><path
         id="path210"
         style="fill:#ffffff;fill-opacity:1;fill-rule:nonzero;stroke:none"
         d="m 342.328,495.645 v -2.528 c 0,-2.246 -0.496,-4.062 -1.492,-5.422 -1.035,-1.425 -2.523,-2.136 -4.559,-2.136 -1.468,0 -2.566,0.429 -3.324,1.25 -0.773,0.82 -1.164,1.961 -1.164,3.347 0,1.856 0.711,3.242 2.199,4.172 1.473,0.926 3.61,1.356 6.418,1.356 0.321,0 0.649,0 1.035,0 0.391,0 0.711,0 0.887,-0.039 v 0" /><path
         id="path212"
         style="fill:#ffffff;fill-opacity:1;fill-rule:nonzero;stroke:none"
         d="m 413.609,495.645 v -2.528 c 0,-2.246 -0.5,-4.062 -1.492,-5.422 -1.039,-1.425 -2.527,-2.136 -4.558,-2.136 -1.469,0 -2.571,0.429 -3.325,1.25 -0.777,0.82 -1.168,1.961 -1.168,3.347 0,1.856 0.711,3.242 2.204,4.172 1.468,0.926 3.609,1.356 6.414,1.356 0.324,0 0.652,0 1.035,0 0.39,0 0.715,0 0.89,-0.039 v 0" /><path
         id="path214"
         style="fill:#ffffff;fill-opacity:1;fill-rule:nonzero;stroke:none"
         d="m 548.266,619.688 v 22.726 h 6.242 v 0 c 3.797,0 6.863,-0.824 9.109,-2.461 2.141,-1.64 3.281,-4.496 3.281,-8.488 v 0 0 0 c 0,-3.367 -1.035,-6.238 -3.085,-8.406 -2.137,-2.246 -5.204,-3.371 -9.415,-3.371 v 0 h -6.132 v 0" /><path
         id="path216"
         style="fill:#ffffff;fill-opacity:1;fill-rule:nonzero;stroke:none"
         d="m 600.883,610.164 c 0.109,4.816 1.035,8.594 2.765,11.281 1.747,2.551 4.188,3.887 7.274,3.887 6.328,0 9.504,-5.039 9.504,-15.168 v 0 h -19.543 v 0" /><path
         id="path218"
         style="fill:#ffffff;fill-opacity:1;fill-rule:nonzero;stroke:none"
         d="m 670.543,605.371 v -4.707 c 0,-4.187 -0.93,-7.586 -2.766,-10.137 -1.941,-2.656 -4.714,-3.992 -8.496,-3.992 -2.761,0 -4.812,0.82 -6.238,2.352 -1.445,1.531 -2.16,3.672 -2.16,6.25 0,3.476 1.34,6.027 4.101,7.773 2.766,1.75 6.77,2.547 11.973,2.547 0.625,0 1.231,0 1.945,0 0.711,0 1.336,0 1.641,-0.086 v 0" /><path
         id="path220"
         style="fill:#ffffff;fill-opacity:1;fill-rule:nonzero;stroke:none"
         d="m 734.105,592.063 c -1.746,3.367 -2.566,7.976 -2.566,13.808 0,5.828 0.82,10.449 2.566,13.817 1.622,3.371 4.387,5.128 8.184,5.128 3.899,0 6.555,-1.652 8.086,-4.824 1.535,-3.176 2.246,-7.969 2.246,-14.32 v 0 0 0 c 0,-6.043 -0.82,-10.652 -2.351,-13.824 -1.641,-3.176 -4.297,-4.797 -8.086,-4.797 -3.782,0 -6.457,1.621 -8.079,5.012 v 0" /></g></g></svg>