<?xml version="1.0" encoding="UTF-8" standalone="no"?>
<svg
   xmlns:dc="http://purl.org/dc/elements/1.1/"
   xmlns:cc="http://creativecommons.org/ns#"
   xmlns:rdf="http://www.w3.org/1999/02/22-rdf-syntax-ns#"
   xmlns:svg="http://www.w3.org/2000/svg"
   xmlns="http://www.w3.org/2000/svg"
   viewBox="0 0 202.46667 202.49333"
   height="202.49333"
   width="202.46667"
   xml:space="preserve"
   id="svg2"
   version="1.1"><metadata
     id="metadata8"><rdf:RDF><cc:Work
         rdf:about=""><dc:format>image/svg+xml</dc:format><dc:type
           rdf:resource="http://purl.org/dc/dcmitype/StillImage" /></cc:Work></rdf:RDF></metadata><defs
     id="defs6" /><g
     transform="matrix(1.3333333,0,0,-1.3333333,0,202.49333)"
     id="g10"><g
       transform="scale(0.1)"
       id="g12"><path
         id="path14"
         style="fill:#231f20;fill-opacity:1;fill-rule:nonzero;stroke:none"
         d="M 0,0 H 1518.54 V 1518.66 H 0 Z" /><path
         id="path16"
         style="fill:#ffffff;fill-opacity:1;fill-rule:nonzero;stroke:none"
         d="m 24.3477,24.375 h 1469.97 v 1469.96 H 24.3477 Z" /><path
         id="path18"
         style="fill:#231f20;fill-opacity:1;fill-rule:nonzero;stroke:none"
         d="M 503.266,1066.54 329.52,1321.73 v 0 c -1.633,2.41 -4.415,3.98 -7.532,3.98 -3.117,0 -5.918,-1.57 -7.554,-3.95 v 0 L 140.688,1066.57 v 0 c -1.004,-1.48 -1.59,-3.24 -1.59,-5.16 0,-5.02 4.082,-9.09 9.117,-9.09 0.695,0 1.387,0.09 2.027,0.21 v 0 l 98.863,22.74 -0.035,-886.891 h 145.805 v 886.861 l 98.836,-22.71 v 0 c 0.652,-0.15 1.309,-0.21 2.016,-0.21 5.035,0 9.117,4.07 9.117,9.09 0,1.92 -0.586,3.68 -1.578,5.13 v 0" /><path
         id="path20"
         style="fill:#231f20;fill-opacity:1;fill-rule:nonzero;stroke:none"
         d="m 940.605,1066.54 -173.75,255.19 v 0 c -1.628,2.41 -4.414,3.98 -7.527,3.98 -3.117,0 -5.89,-1.57 -7.527,-3.95 v 0 L 578.023,1066.57 v 0 c -1.003,-1.48 -1.585,-3.24 -1.585,-5.16 0,-5.02 4.082,-9.09 9.109,-9.09 0.703,0 1.387,0.09 2.035,0.21 v 0 l 98.859,22.74 V 188.379 h 145.805 l -0.039,886.861 98.809,-22.68 v 0 c 0.656,-0.15 1.336,-0.24 2.05,-0.24 5.032,0 9.114,4.07 9.114,9.09 0,1.92 -0.586,3.68 -1.575,5.13 v 0" /><path
         id="path22"
         style="fill:#231f20;fill-opacity:1;fill-rule:nonzero;stroke:none"
         d="m 1123.78,863.566 c 23.02,7.25 47.49,11.137 72.89,11.137 25.39,0 49.86,-3.887 72.88,-11.137 v 0 211.674 l 98.84,-22.68 v 0 c 0.64,-0.15 1.32,-0.24 2.03,-0.24 5.06,0 9.13,4.07 9.13,9.09 0,1.92 -0.61,3.68 -1.6,5.13 v 0 l -173.75,255.19 v 0 c -1.64,2.41 -4.41,3.98 -7.53,3.98 -3.12,0 -5.9,-1.55 -7.53,-3.95 v 0 l -173.76,-255.19 v 0 c -0.99,-1.48 -1.57,-3.24 -1.57,-5.16 0,-5.02 4.07,-9.09 9.1,-9.09 0.72,0 1.39,0.09 2.04,0.21 v 0 l 98.83,22.74 v -211.704 0" /><path
         id="path24"
         style="fill:#231f20;fill-opacity:1;fill-rule:nonzero;stroke:none"
         d="m 1269.55,399.902 c -23.02,-7.246 -47.49,-11.132 -72.88,-11.132 -25.4,0 -49.87,3.886 -72.89,11.132 v 0 -211.523 h 145.77 v 211.523 0" /><path
         id="path26"
         style="fill:#ee2c30;fill-opacity:1;fill-rule:nonzero;stroke:none"
         d="m 1196.67,874.703 c -134.17,0 -242.967,-108.805 -242.967,-242.965 0,-134.168 108.797,-242.968 242.967,-242.968 134.16,0 242.97,108.8 242.97,242.968 0,134.16 -108.81,242.965 -242.97,242.965 v 0" /><path
         id="path28"
         style="fill:#ffffff;fill-opacity:1;fill-rule:nonzero;stroke:none"
         d="m 1196.65,793.691 c -89.45,0 -161.98,-72.535 -161.98,-161.972 0,-89.453 72.53,-161.981 161.98,-161.981 89.44,0 161.98,72.528 161.98,161.981 0,89.437 -72.54,161.972 -161.98,161.972 v 0" /><path
         id="path30"
         style="fill:#231f20;fill-opacity:1;fill-rule:nonzero;stroke:none"
         d="m 1147.29,718.227 c 2.83,-0.086 7,-0.325 9.76,-0.864 3.4,-0.683 6.65,-1.906 9.66,-3.601 6.55,-3.699 11.77,-9.356 15.07,-16.145 2.71,-5.547 3.96,-11.765 4.11,-17.969 0.15,-6.043 -0.77,-12.117 -2.86,-17.812 -1.76,-4.852 -4.38,-9.414 -7.5,-13.555 -0.42,-0.566 -1.1,-1.426 -1.55,-1.992 0.33,-0.422 0.92,-1.164 1.22,-1.609 4.68,-6.25 8.61,-13.164 11.23,-20.528 2.65,-7.414 4.02,-15.277 4.34,-23.144 0.25,-6.133 -0.17,-12.57 -1.75,-18.469 -1.64,-6.133 -4.5,-11.914 -8.58,-16.766 -3.91,-4.621 -8.82,-8.253 -14.27,-10.878 -5.81,-2.766 -12.13,-4.321 -18.56,-4.375 -6.13,-0.059 -12.18,1.25 -17.79,3.75 -5.68,2.566 -10.78,6.347 -14.83,11.082 -3.99,4.621 -6.94,10.039 -8.7,15.91 -1.96,6.492 -2.38,13.758 -2.05,20.554 0.39,8.008 1.76,16.114 4.53,23.653 2.47,6.847 6.07,13.222 10.54,18.976 0.36,0.438 0.92,1.16 1.26,1.571 -0.28,0.359 -0.76,0.957 -1.05,1.316 -3.7,4.582 -6.43,9.914 -8.31,15.52 -1.76,5.359 -2.71,10.984 -2.69,16.621 0.03,6.582 1.41,13.222 4.48,19.031 4.02,7.539 10.57,13.41 18.46,16.746 2.69,1.133 5.48,1.934 8.34,2.383 2.15,0.324 5.31,0.508 7.49,0.594 v 0" /><path
         id="path32"
         style="fill:#231f20;fill-opacity:1;fill-rule:nonzero;stroke:none"
         d="m 1247.91,718.219 c 3.48,0 7.09,-0.715 10.42,-1.727 7.33,-2.207 13.58,-7.387 18.2,-13.465 4.03,-5.3 6.98,-11.679 9.06,-17.988 2.03,-6.086 3.43,-12.391 4.38,-18.738 0.96,-6.496 1.46,-13.266 1.7,-19.848 0.23,-7.586 0.15,-15.211 -0.36,-22.808 -0.51,-7.122 -1.37,-14.184 -2.65,-21.184 -1.46,-8.016 -3.54,-16.141 -6.52,-23.711 -2.69,-6.824 -6.58,-14.207 -11.98,-19.16 -6.02,-5.535 -13.82,-8.777 -22.02,-9.051 -7.71,-0.293 -15.37,2.059 -21.44,6.856 -6.56,5.144 -11.11,13.789 -14,21.621 -2.78,7.48 -4.68,15.429 -5.93,23.328 -1.11,6.875 -1.82,14.269 -2.33,21.211 -0.48,6.847 -0.8,14.531 -0.5,21.418 0.3,7.027 1.22,14.324 2.41,21.269 1.07,6.102 2.47,12.539 4.35,18.465 2,6.348 4.86,12.871 8.85,18.203 4.77,6.371 11.32,11.645 18.97,13.789 2.98,0.836 6.28,1.52 9.39,1.52 v 0" /><path
         id="path34"
         style="fill:#ffffff;fill-opacity:1;fill-rule:nonzero;stroke:none"
         d="m 1147.13,695.117 c 3.69,0.031 7.26,-1.582 10.04,-3.996 2.95,-2.555 4.44,-6.402 4.68,-10.269 0.17,-3.008 -0.6,-6.379 -1.58,-9.239 -0.81,-2.355 -1.76,-4.652 -2.89,-6.886 -0.86,-1.758 -2.15,-3.899 -3.67,-5.149 -1.82,-1.519 -4.14,-2.293 -6.52,-2.262 -2.39,0 -4.71,0.829 -6.53,2.383 -1.22,1.043 -2.35,2.711 -3.18,4.11 -1.46,2.472 -2.77,5.156 -3.7,7.859 -0.98,2.832 -1.6,5.957 -1.4,8.937 0.28,3.704 1.62,7.422 4.29,9.954 2.86,2.714 6.52,4.5 10.46,4.558 v 0" /><path
         id="path36"
         style="fill:#ffffff;fill-opacity:1;fill-rule:nonzero;stroke:none"
         d="m 1147.27,633.43 c 2.23,-0.149 4.35,-1.047 6.17,-2.325 1.22,-0.902 2.41,-2.382 3.27,-3.632 1.88,-2.719 3.46,-5.696 4.74,-8.731 1.9,-4.418 3.28,-9.023 4.08,-13.762 0.81,-4.617 1.07,-9.628 0.11,-14.207 -0.8,-3.964 -2.5,-7.871 -5.3,-10.824 -3.33,-3.543 -7.95,-5.594 -12.8,-5.797 -5.49,-0.246 -10.82,1.844 -14.63,5.797 -2.83,2.953 -4.56,6.828 -5.33,10.852 -0.87,4.492 -0.45,9.707 0.32,14.211 0.78,4.676 1.98,9.285 3.55,13.758 1.16,3.253 2.8,7.031 5.03,9.648 1.29,1.465 2.84,2.832 4.62,3.633 1.91,0.867 4.09,1.492 6.17,1.379 v 0" /><path
         id="path38"
         style="fill:#ffffff;fill-opacity:1;fill-rule:nonzero;stroke:none"
         d="m 1248.1,694.121 c 1.87,0.059 3.72,-0.351 5.36,-1.25 1.61,-0.832 2.92,-2.351 3.9,-3.836 1.6,-2.512 2.74,-6.055 3.49,-8.949 1.28,-4.91 2.26,-9.938 3.04,-14.977 0.77,-5.187 1.34,-10.461 1.7,-15.695 0.35,-5.398 0.56,-10.793 0.52,-16.18 -0.02,-6.074 -0.29,-12.179 -0.83,-18.261 -0.53,-6.106 -1.39,-12.453 -2.71,-18.41 -0.92,-4.141 -2.14,-8.34 -3.75,-12.274 -0.83,-2.023 -1.91,-4.172 -3.18,-5.957 -0.87,-1.191 -1.95,-2.355 -3.2,-3.184 -1.34,-0.859 -2.92,-1.398 -4.55,-1.496 -1.91,-0.117 -3.87,0.332 -5.46,1.438 -1.13,0.769 -2.16,2.051 -2.95,3.211 -1.22,1.847 -2.26,3.879 -3.12,5.957 -1.61,3.847 -2.72,8.254 -3.49,12.336 -1.07,5.808 -1.78,12.812 -2.26,18.679 -0.44,5.782 -0.86,12.481 -0.86,18.262 0,5.332 0.32,10.75 0.86,16.082 0.53,5.278 1.3,10.578 2.23,15.824 0.83,4.762 1.88,9.762 3.16,14.414 0.84,3.036 2.11,6.668 3.88,9.239 1.01,1.453 2.32,2.918 3.9,3.75 1.31,0.683 2.79,1.191 4.32,1.277 v 0" /></g></g></svg>