<?xml version="1.0" encoding="UTF-8" standalone="no"?>
<svg
   xmlns:dc="http://purl.org/dc/elements/1.1/"
   xmlns:cc="http://creativecommons.org/ns#"
   xmlns:rdf="http://www.w3.org/1999/02/22-rdf-syntax-ns#"
   xmlns:svg="http://www.w3.org/2000/svg"
   xmlns="http://www.w3.org/2000/svg"
   viewBox="0 0 404.95999 145.8"
   height="145.8"
   width="404.95999"
   xml:space="preserve"
   id="svg2"
   version="1.1"><metadata
     id="metadata8"><rdf:RDF><cc:Work
         rdf:about=""><dc:format>image/svg+xml</dc:format><dc:type
           rdf:resource="http://purl.org/dc/dcmitype/StillImage" /></cc:Work></rdf:RDF></metadata><defs
     id="defs6" /><g
     transform="matrix(1.3333333,0,0,-1.3333333,0,145.8)"
     id="g10"><g
       transform="scale(0.1)"
       id="g12"><path
         id="path14"
         style="fill:#231f20;fill-opacity:1;fill-rule:nonzero;stroke:none"
         d="M 1943.75,0 H 3037.2 V 1093.45 H 1943.75 Z" /><path
         id="path16"
         style="fill:#231f20;fill-opacity:1;fill-rule:nonzero;stroke:none"
         d="M 0,0 H 850.469 V 850.469 H 0 Z" /><path
         id="path18"
         style="fill:#231f20;fill-opacity:1;fill-rule:nonzero;stroke:none"
         d="M 971.875,0 H 1822.34 V 850.469 H 971.875 Z" /><path
         id="path20"
         style="fill:#ffffff;fill-opacity:1;fill-rule:nonzero;stroke:none"
         d="m 1956.71,12.9609 h 1067.21 v 1067.22 H 1956.71 Z" /><path
         id="path22"
         style="fill:#ffffff;fill-opacity:1;fill-rule:nonzero;stroke:none"
         d="m 12.9609,11.0313 h 824.949 v 824.945 H 12.9609 Z" /><path
         id="path24"
         style="fill:#ffffff;fill-opacity:1;fill-rule:nonzero;stroke:none"
         d="m 984.094,11.7227 h 824.965 v 824.965 H 984.094 Z" /><path
         id="path26"
         style="fill:#231f20;fill-opacity:1;fill-rule:nonzero;stroke:none"
         d="m 2909.51,872.328 c 0.59,-0.832 0.96,-1.941 0.96,-3.113 0,-3.027 -2.44,-5.465 -5.47,-5.465 -0.43,0 -0.83,0.031 -1.23,0.121 v 0 l -59.28,13.645 V 82.9453 h -87.47 V 877.516 l -59.31,-13.645 v 0 c -0.41,-0.09 -0.8,-0.121 -1.21,-0.121 -3.02,0 -5.49,2.438 -5.49,5.465 0,1.172 0.34,2.281 0.96,3.113 v 0 l 104.26,153.082 v 0 c 0.99,1.48 2.66,2.41 4.51,2.41 1.88,0 3.55,-0.93 4.51,-2.41 v 0 l 104.26,-153.082 v 0" /><path
         id="path28"
         style="fill:#231f20;fill-opacity:1;fill-rule:nonzero;stroke:none"
         d="m 2288.7,872.082 -104.27,153.138 v 0 c -0.99,1.46 -2.65,2.38 -4.53,2.38 -1.86,0 -3.52,-0.92 -4.51,-2.38 v 0 L 2071.13,872.051 v 0 c -0.59,-0.895 -0.96,-1.973 -0.96,-3.117 0,-3.024 2.47,-5.461 5.49,-5.461 0.4,0 0.8,0.035 1.21,0.121 v 0 l 59.3,13.734 v -40.515 0 c 0,-60.422 24.51,-115.098 64.06,-154.653 v 0 l 317.4,-317.43 v 0 c 23.76,-23.73 38.44,-56.531 38.44,-92.722 v 0 -189.3713 h 87.48 v 189.3713 0 c 0,60.262 -24.37,114.785 -63.81,154.308 v 0 l -317.67,317.707 v 0 c -23.77,23.731 -38.42,56.5 -38.42,92.79 v 0 40.515 l 59.28,-13.64 v 0 c 0.4,-0.094 0.8,-0.18 1.23,-0.18 3.03,0 5.47,2.492 5.47,5.519 0,1.11 -0.35,2.161 -0.93,3.055 v 0" /><path
         id="path30"
         style="fill:#231f20;fill-opacity:1;fill-rule:nonzero;stroke:none"
         d="m 2310.36,47.2109 v 17.5547 c 0,94.2304 25.19,182.5704 69.32,258.6724 1.94,3.355 5.25,5.019 9.4,5.019 4.18,0 7.93,-2.445 9.87,-5.82 43.84,-75.922 68.85,-163.973 68.85,-257.8948 v 0 l 0.02,-17.5313 h -26.99 v 17.5547 0 c 0,7.1524 -0.15,14.2891 -0.47,21.3711 v 0 l -39.39,-38.9258 h -15.91 l 54.39,54.3051 v 0 c -0.69,9.441 -1.75,19.574 -3.02,28.859 v 0 l -83.17,-83.1641 h -42.9 v 0" /><path
         id="path32"
         style="fill:#231f20;fill-opacity:1;fill-rule:nonzero;stroke:none"
         d="m 2399.23,768.402 c 44.12,76.102 69.31,164.442 69.31,258.668 v 0 l 0.01,17.56 h -42.91 l -83.25,-82.411 v 0 c -1.29,9.285 -2.27,18.64 -2.93,28.086 v 0 l 54.37,54.325 h -15.91 l -39.37,-38.95 v 0 c -0.31,7.09 -0.47,14.22 -0.47,21.39 v 0 17.56 h -26.99 v -17.56 0 c 0,-93.914 25.01,-181.968 68.85,-257.89 1.95,-3.379 5.72,-5.821 9.88,-5.821 4.16,0 7.47,1.692 9.41,5.043 v 0" /><path
         id="path34"
         style="fill:#231f20;fill-opacity:1;fill-rule:nonzero;stroke:none"
         d="m 778.184,642.668 c 0.582,-0.855 0.925,-1.891 0.925,-3.004 0,-2.922 -2.375,-5.305 -5.316,-5.305 -0.414,0 -0.809,0.039 -1.195,0.137 v 0 l -57.641,13.258 V 53.8281 H 629.906 V 647.754 l -57.648,-13.258 v 0 c -0.379,-0.078 -0.785,-0.137 -1.188,-0.137 -2.941,0 -5.324,2.383 -5.324,5.325 0,1.113 0.34,2.129 0.926,2.984 v 0 l 101.367,148.891 v 0 c 0.961,1.39 2.566,2.308 4.387,2.308 1.832,0 3.441,-0.918 4.398,-2.328 v 0 l 101.36,-148.871 v 0" /><path
         id="path36"
         style="fill:#231f20;fill-opacity:1;fill-rule:nonzero;stroke:none"
         d="m 531.207,642.668 c 0.582,-0.855 0.922,-1.891 0.922,-3.004 0,-2.922 -2.379,-5.305 -5.309,-5.305 -0.414,0 -0.812,0.039 -1.199,0.137 v 0 l -57.652,13.258 V 53.8281 H 382.914 V 384.305 L 221.344,222.754 V 53.8281 H 136.289 V 257.93 L 382.93,504.586 v 143.187 l -57.668,-13.277 v 0 c -0.371,-0.078 -0.77,-0.137 -1.176,-0.137 -2.93,0 -5.309,2.383 -5.309,5.325 0,1.093 0.332,2.129 0.914,2.984 v 0 l 101.368,148.891 v 0 c 0.953,1.39 2.574,2.308 4.394,2.308 1.828,0 3.442,-0.918 4.399,-2.328 v 0 L 531.207,642.668 v 0" /><path
         id="path38"
         style="fill:#231f20;fill-opacity:1;fill-rule:nonzero;stroke:none"
         d="m 1217.97,642.977 -101.38,148.902 v 0 c -0.95,1.402 -2.57,2.309 -4.4,2.309 -1.82,0 -3.44,-0.907 -4.39,-2.333 v 0 L 1006.45,642.977 v 0 c -0.59,-0.864 -0.93,-1.903 -0.93,-2.981 0,-2.937 2.37,-5.312 5.31,-5.312 0.41,0 0.8,0.043 1.19,0.125 v 0 l 57.65,13.269 V 598.434 54.1563 h 85.05 v 544.2777 49.644 l 57.66,-13.269 v 0 c 0.38,-0.082 0.78,-0.125 1.19,-0.125 2.93,0 5.32,2.375 5.32,5.312 0,1.102 -0.34,2.137 -0.92,2.981 v 0" /><path
         id="path40"
         style="fill:#231f20;fill-opacity:1;fill-rule:nonzero;stroke:none"
         d="m 1464.24,642.977 -101.38,148.902 v 0 c -0.95,1.402 -2.55,2.309 -4.38,2.309 -1.82,0 -3.44,-0.907 -4.39,-2.333 v 0 L 1252.71,642.977 v 0 c -0.58,-0.864 -0.92,-1.903 -0.92,-2.981 0,-2.937 2.37,-5.312 5.31,-5.312 0.41,0 0.8,0.043 1.19,0.125 v 0 l 57.68,13.269 V 598.434 L 1315.94,377.32 1433.59,54.1563 h 90.49 L 1400.99,392.309 v 206.125 49.644 l 57.66,-13.269 v 0 c 0.38,-0.082 0.78,-0.125 1.19,-0.125 2.93,0 5.3,2.375 5.3,5.312 0,1.102 -0.32,2.137 -0.9,2.981 v 0" /><path
         id="path42"
         style="fill:#231f20;fill-opacity:1;fill-rule:nonzero;stroke:none"
         d="M 1609.84,791.855 1711.2,643 v 0 c 0.58,-0.84 0.91,-1.902 0.91,-3.004 0,-2.937 -2.38,-5.312 -5.32,-5.312 -0.41,0 -0.8,0.043 -1.18,0.125 v 0 l -57.64,13.269 V 598.434 392.328 L 1771.04,54.1563 h -90.49 L 1562.93,377.32 v 221.114 49.644 l -57.66,-13.269 v 0 c -0.39,-0.082 -0.78,-0.125 -1.19,-0.125 -2.94,0 -5.31,2.375 -5.31,5.312 0,1.121 0.32,2.137 0.9,3.004 v 0 l 101.38,148.855 v 0 c 0.95,1.407 2.58,2.333 4.38,2.333 1.84,0 3.46,-0.926 4.41,-2.333 v 0" /><path
         id="path44"
         style="fill:#ffffff;fill-opacity:1;fill-rule:nonzero;stroke:none"
         d="m 2415.94,220.656 c -2.49,7.86 -5.33,15.617 -8.49,23.305 v 0 l -52.84,-52.305 v 0 c -3.71,-13.418 -6.73,-27.086 -9.11,-40.926 v 0 l 70.44,69.926 v 0" /><path
         id="path46"
         style="fill:#ffffff;fill-opacity:1;fill-rule:nonzero;stroke:none"
         d="m 2342.57,132.059 c -1.62,-11.508 -2.78,-23.102 -3.51,-34.8598 v 0 l 87.87,86.9848 v 0 c -1.95,8.336 -4.38,17.066 -7,25.246 v 0 l -77.36,-77.371 v 0" /><path
         id="path48"
         style="fill:#ffffff;fill-opacity:1;fill-rule:nonzero;stroke:none"
         d="m 2338.33,79.2617 c -0.15,-4.8437 -0.2,-9.5976 -0.2,-14.4609 v 0 -17.5547 l 97.03,96.7889 v 0 c -1.36,8.754 -3.2,18.238 -5.2,26.86 v 0 l -91.63,-91.6333 v 0" /><path
         id="path50"
         style="fill:#ffffff;fill-opacity:1;fill-rule:nonzero;stroke:none"
         d="m 2403.17,255.5 c -3.96,9.75 -8.42,20.105 -13.24,29.523 -11.42,-22.55 -21.07,-46.101 -28.69,-70.476 v 0 l 41.93,40.953 v 0" /><path
         id="path52"
         style="fill:#ffffff;fill-opacity:1;fill-rule:nonzero;stroke:none"
         d="m 2439.82,995.527 -87.89,-86.988 v 0 c 1.95,-8.328 4.4,-17.082 7.02,-25.238 v 0 l 77.36,77.32 v 0 c 1.62,11.508 2.78,23.152 3.51,34.906 v 0" /><path
         id="path54"
         style="fill:#ffffff;fill-opacity:1;fill-rule:nonzero;stroke:none"
         d="m 2349.24,921.141 91.63,91.569 v 0 c 0.15,4.82 0.22,9.69 0.22,14.55 v 0 17.55 l -97.03,-96.783 v 0 c 1.35,-8.773 3.18,-18.285 5.18,-26.886 v 0" /><path
         id="path56"
         style="fill:#ffffff;fill-opacity:1;fill-rule:nonzero;stroke:none"
         d="m 2417.81,878.363 -41.72,-41.457 v 0 c 3.97,-9.758 8.21,-19.597 13.04,-29.019 11.44,22.551 21.06,46.101 28.68,70.476 v 0" /><path
         id="path58"
         style="fill:#ffffff;fill-opacity:1;fill-rule:nonzero;stroke:none"
         d="m 2433.67,941.699 -70.66,-70.234 v 0 c 2.49,-7.863 5.31,-15.641 8.47,-23.324 v 0 l 53.15,52.699 v 0 c 3.71,13.422 6.68,26.996 9.04,40.859 v 0" /></g></g></svg>