<?xml version="1.0" encoding="UTF-8" standalone="no"?>
<svg
   xmlns:dc="http://purl.org/dc/elements/1.1/"
   xmlns:cc="http://creativecommons.org/ns#"
   xmlns:rdf="http://www.w3.org/1999/02/22-rdf-syntax-ns#"
   xmlns:svg="http://www.w3.org/2000/svg"
   xmlns="http://www.w3.org/2000/svg"
   viewBox="0 0 92.973335 132.66667"
   height="132.66667"
   width="92.973335"
   xml:space="preserve"
   id="svg2"
   version="1.1"><metadata
     id="metadata8"><rdf:RDF><cc:Work
         rdf:about=""><dc:format>image/svg+xml</dc:format><dc:type
           rdf:resource="http://purl.org/dc/dcmitype/StillImage" /></cc:Work></rdf:RDF></metadata><defs
     id="defs6" /><g
     transform="matrix(1.3333333,0,0,-1.3333333,0,132.66667)"
     id="g10"><g
       transform="scale(0.1)"
       id="g12"><path
         id="path14"
         style="fill:#ffffff;fill-opacity:1;fill-rule:nonzero;stroke:none"
         d="m 1.41797,1.41797 h 694.484 v 992.121 H 1.41797 Z" /><path
         id="path16"
         style="fill:none;stroke:#231f20;stroke-width:2.83500004;stroke-linecap:butt;stroke-linejoin:miter;stroke-miterlimit:4;stroke-dasharray:none;stroke-opacity:1"
         d="M 1.41797,1.41797 H 695.902 V 993.539 H 1.41797 V 1.41797" /><path
         id="path18"
         style="fill:#1a67bb;fill-opacity:1;fill-rule:nonzero;stroke:none"
         d="m 16.2461,16.3008 h 664.727 v 962.355 H 16.2461 Z" /><path
         id="path20"
         style="fill:#ffffff;fill-opacity:1;fill-rule:nonzero;stroke:none"
         d="m 139.586,128.895 c 3.477,-1.258 7.711,-2.489 12.93,-3.7 5.214,-1.261 10.937,-1.738 17.664,-1.738 12.195,0 22.379,2.195 30.847,6.934 8.211,4.707 15.164,11.179 20.383,19.66 5.242,8.433 8.973,18.64 11.188,30.586 2.246,11.699 3.507,24.871 3.507,39.285 v 0 0 0 c 0,11.941 -1.011,22.883 -2.75,32.84 -1.738,9.953 -4.71,18.672 -8.945,25.879 -4.234,7.207 -9.703,12.675 -16.43,16.652 -6.953,3.984 -15.421,5.977 -25.605,5.977 -15.422,0 -27.617,-4.961 -36.816,-14.922 -9.196,-9.953 -13.684,-24.141 -13.684,-42.285 0,-8.215 1.234,-15.676 3.477,-22.403 2.242,-6.699 5.214,-12.676 9.453,-17.383 3.98,-4.734 8.715,-8.468 14.437,-11.222 5.469,-2.711 11.692,-4.207 18.395,-4.207 8.218,0 15.172,1.738 20.64,5.468 5.243,3.489 9.45,8.196 12.45,13.914 v 0 l 0.503,-0.222 v 0 c -0.253,-7.715 -1.011,-15.43 -2.496,-22.91 -1.488,-7.715 -3.984,-14.414 -7.207,-20.391 -3.504,-5.969 -7.961,-10.684 -13.207,-14.414 -5.215,-3.73 -11.918,-5.715 -19.629,-5.715 -5.718,0 -10.961,0.727 -15.671,2.465 -4.739,1.492 -8.723,3.25 -11.946,4.988 v 0 l -1.488,-23.136 v 0" /><path
         id="path22"
         style="fill:#ffffff;fill-opacity:1;fill-rule:nonzero;stroke:none"
         d="m 254.625,163.223 h 67.156 v -37.801 h 24.875 v 37.801 h 19.121 v 20.632 H 346.656 V 299.023 H 315.813 L 254.625,188.094 v -24.871 0" /><path
         id="path24"
         style="fill:#ffffff;fill-opacity:1;fill-rule:nonzero;stroke:none"
         d="m 391.859,95.5859 h 21.399 l 17.664,59.6761 H 404.535 L 391.859,95.5859 v 0" /><path
         id="path26"
         style="fill:#ffffff;fill-opacity:1;fill-rule:nonzero;stroke:none"
         d="m 486.566,216.445 -0.507,0.254 v 0 c 0.254,7.703 0.988,15.418 2.5,23.137 1.484,7.461 3.976,14.187 7.453,20.152 3.23,5.95 7.715,10.942 12.929,14.668 5.215,3.731 11.942,5.473 19.657,5.473 5.722,0 10.937,-0.754 15.675,-2.246 4.715,-1.742 8.692,-3.481 11.922,-5.215 v 0 l 1.262,23.133 v 0 c -3.488,1.23 -7.715,2.492 -12.707,3.73 -5.215,1.231 -10.937,1.739 -17.637,1.739 -12.195,0 -22.402,-2.247 -30.625,-6.954 -8.437,-4.738 -15.164,-11.191 -20.379,-19.66 -5.214,-8.465 -9.199,-18.648 -11.445,-30.34 -2.238,-11.941 -3.476,-25.128 -3.476,-39.558 0,-11.945 0.984,-22.883 2.722,-32.844 1.77,-9.949 4.738,-18.391 8.977,-25.598 4.226,-7.234 9.695,-12.957 16.648,-16.941 6.731,-3.953 15.176,-5.918 25.383,-5.918 15.418,0 27.617,4.941 36.816,14.891 9.2,9.707 13.68,23.871 13.68,42.035 v 0 0 0 c 0,8.219 -1.004,15.672 -3.25,22.379 -2.219,6.73 -5.469,12.699 -9.453,17.668 -4.231,4.738 -8.945,8.718 -14.66,11.433 -5.723,2.754 -11.699,3.985 -18.426,3.985 -8.184,0 -15.168,-1.739 -20.383,-5.211 -5.469,-3.735 -9.707,-8.469 -12.676,-14.192 v 0" /><path
         id="path28"
         style="fill:#ffffff;fill-opacity:1;fill-rule:nonzero;stroke:none"
         d="M 100.625,398.262 H 596.684 V 894.325 H 100.625 Z" /><path
         id="path30"
         style="fill:#1a67bb;fill-opacity:1;fill-rule:nonzero;stroke:none"
         d="m 171.918,212.969 c -3.227,1.738 -5.723,4.48 -7.715,7.715 -1.984,3.222 -3.476,6.953 -4.48,11.179 -0.981,4.239 -1.489,8.469 -1.489,13.188 0,4.988 0.508,9.695 1.489,13.933 1.004,4.231 2.496,8.211 4.734,11.438 1.992,3.23 4.488,5.719 7.711,7.461 2.973,1.734 6.703,2.754 10.937,2.754 4.235,0 7.965,-1.02 11.192,-2.754 3.246,-1.742 5.719,-4.231 7.711,-7.461 1.992,-3.227 3.5,-7.207 4.484,-11.438 1.008,-4.238 1.488,-8.945 1.488,-13.933 v 0 0 0 c 0,-4.719 -0.48,-9.203 -1.488,-13.442 -0.984,-4.226 -2.492,-7.957 -4.484,-11.179 -2.219,-3.235 -4.711,-5.977 -7.942,-7.715 -3.25,-1.738 -6.726,-2.727 -10.961,-2.727 -4.234,0 -7.964,0.989 -11.187,2.981 v 0" /><path
         id="path32"
         style="fill:#1a67bb;fill-opacity:1;fill-rule:nonzero;stroke:none"
         d="m 275.266,183.855 46.015,88.301 h 0.5 v -88.301 h -46.515 v 0" /><path
         id="path34"
         style="fill:#1a67bb;fill-opacity:1;fill-rule:nonzero;stroke:none"
         d="m 495.258,154.504 c -2.246,3.25 -3.731,6.98 -4.715,11.219 -1.008,4.199 -1.504,8.691 -1.504,13.652 0,4.734 0.496,9.473 1.738,13.68 1.004,4.242 2.489,7.968 4.735,11.222 1.992,3.223 4.484,5.711 7.707,7.703 3.23,1.739 6.707,2.727 10.937,2.727 4.239,0 7.969,-0.988 11.192,-2.727 3.25,-1.992 5.742,-4.48 7.715,-7.703 1.992,-3.254 3.496,-7.234 4.48,-11.464 1.008,-4.211 1.484,-8.704 1.484,-13.438 v 0 0 0 c 0,-4.961 -0.476,-9.453 -1.484,-13.652 -0.984,-4.239 -2.488,-7.969 -4.48,-11.219 -2.219,-3.227 -4.719,-5.969 -7.942,-7.707 -3.25,-1.738 -6.726,-2.727 -10.965,-2.727 -4.23,0 -7.961,0.989 -11.183,2.727 -3.231,1.738 -5.723,4.48 -7.715,7.707 v 0" /><path
         id="path36"
         style="fill:#231f20;fill-opacity:1;fill-rule:nonzero;stroke:none"
         d="m 175.07,678.086 h 17.914 v 61.285 h 5.645 v 0 c 4.812,0 8.441,-1.008 11.113,-3.199 2.469,-2.192 4.637,-6.152 6.121,-11.918 v 0 l 12.453,-46.168 h 19.079 l -15.602,54.305 v 0 c -1.484,5.191 -3.301,8.769 -5.293,10.964 -2.168,1.989 -4.66,3.372 -7.48,3.981 v 0 0.375 0 c 7.632,1.793 13.277,5.57 17.109,11.543 3.805,5.969 5.621,13.129 5.621,21.5 0,6.371 -0.836,11.742 -2.473,16.324 -1.664,4.563 -3.98,8.344 -6.98,11.34 -2.977,2.973 -6.477,5.168 -10.606,6.551 -4.16,1.414 -8.8,1.996 -13.785,1.996 v 0 H 175.07 v -138.879 0" /><path
         id="path38"
         style="fill:#231f20;fill-opacity:1;fill-rule:nonzero;stroke:none"
         d="m 306.836,678.086 h 15.602 v 0 c -0.176,1.789 -0.504,4.359 -0.68,7.359 -0.153,2.973 -0.328,6.149 -0.328,9.551 v 0 48.734 0 c 0,6.778 -0.508,12.348 -1.664,16.735 -1.157,4.359 -2.973,7.965 -5.141,10.937 -1.812,2.59 -4.816,4.961 -8.793,7.153 -3.98,1.992 -9.121,3.004 -15.602,3.004 -5.468,0 -10.281,-0.805 -14.414,-2.399 -4.156,-1.586 -7.964,-3.375 -11.136,-5.566 v 0 l 1.336,-17.715 v 0 c 2.168,2.594 5.316,4.961 9.449,7.152 3.984,1.992 8.316,3 13.129,3 6.125,0 10.433,-1.988 13.105,-5.972 1.309,-1.989 2.317,-4.18 2.824,-6.579 0.477,-2.566 0.653,-5.367 0.653,-8.539 v 0 -4.183 h -6.149 v 0 c -13.757,0 -24.367,-2.797 -31.527,-8.164 -7.129,-5.574 -10.785,-14.317 -10.785,-26.262 0,-4.785 0.683,-8.969 1.992,-12.746 1.336,-3.781 3.172,-6.754 5.492,-9.352 2.145,-2.57 4.817,-4.359 7.789,-5.574 2.996,-1.355 6.149,-1.961 9.625,-1.961 6.301,0 11.289,1.563 15.098,4.762 3.652,2.973 6.625,6.551 8.793,10.535 v 0 h 0.328 v 0 c 0,-0.578 0,-1.59 0.176,-2.973 0,-1.386 0,-2.796 0.148,-4.183 0.176,-1.387 0.176,-2.797 0.352,-3.985 0.152,-1.382 0.152,-2.195 0.328,-2.769 v 0" /><path
         id="path40"
         style="fill:#231f20;fill-opacity:1;fill-rule:nonzero;stroke:none"
         d="m 388.082,678.086 h 16.434 v 0 c -0.176,2.566 -0.352,5.367 -0.508,8.34 -0.176,3 -0.176,6.379 -0.176,9.75 v 0 131.144 h -17.234 v -61.492 h -0.352 v 0 c -2.148,4.586 -4.973,8.371 -8.449,11.344 -3.496,2.973 -7.957,4.387 -13.457,4.387 -8.945,0 -16.047,-4.387 -21.367,-13.332 -5.317,-8.973 -7.961,-21.899 -7.961,-39.215 0,-7.961 0.656,-15.121 1.992,-21.492 1.16,-6.551 3.148,-11.95 5.644,-16.508 2.493,-4.586 5.645,-8.164 9.27,-10.559 3.633,-2.543 7.969,-3.754 12.754,-3.754 3.176,0 5.976,0.399 8.469,1.563 2.312,1.004 4.48,2.191 6.297,3.781 1.835,1.609 3.332,3.402 4.484,5.387 1.16,1.996 2.324,3.988 3.152,6.156 v 0 h 0.508 v 0 c 0,-0.988 0,-2.168 0.176,-3.781 0,-1.59 0,-3.18 0.148,-4.766 0,-1.586 0,-2.996 0.176,-4.387 0,-1.386 0,-2.191 0,-2.566 v 0" /><path
         id="path42"
         style="fill:#231f20;fill-opacity:1;fill-rule:nonzero;stroke:none"
         d="m 420.367,678.086 h 17.254 v 102.059 h -17.254 v -102.059 0" /><path
         id="path44"
         style="fill:#231f20;fill-opacity:1;fill-rule:nonzero;stroke:none"
         d="m 419.859,800.66 h 18.243 v 22.074 h -18.243 v -22.074 0" /><path
         id="path46"
         style="fill:#231f20;fill-opacity:1;fill-rule:nonzero;stroke:none"
         d="m 461.039,689.023 c 3.145,-4.183 6.953,-7.359 11.438,-9.351 4.316,-1.969 8.972,-2.973 13.933,-2.973 4.992,0 9.629,1.004 14.113,2.973 4.317,1.992 8.114,5.168 11.29,9.351 3.152,4.18 5.8,9.551 7.617,16.098 1.836,6.578 2.82,14.746 2.82,24.094 v 0 0 0 c 0,9.148 -0.984,17.113 -2.82,23.691 -1.817,6.547 -4.465,12.117 -7.617,16.305 -3.176,4.176 -6.973,7.355 -11.29,9.344 -4.484,1.992 -9.121,3.004 -14.113,3.004 -4.961,0 -9.617,-1.012 -13.933,-3.004 -4.485,-1.989 -8.293,-5.168 -11.438,-9.344 -3.152,-4.188 -5.801,-9.758 -7.637,-16.305 -1.816,-6.578 -2.82,-14.543 -2.82,-23.691 0,-9.348 1.004,-17.516 2.82,-24.094 1.836,-6.547 4.485,-11.918 7.637,-16.098 v 0" /><path
         id="path48"
         style="fill:#231f20;fill-opacity:1;fill-rule:nonzero;stroke:none"
         d="m 205.684,479.281 h 28.859 v 0 c 11.336,0 21.293,1.614 29.855,4.992 8.547,3.172 15.907,7.758 21.676,13.934 5.774,6.148 9.953,13.531 12.953,22.277 2.977,8.77 4.356,18.496 4.356,29.457 v 0 0 0 c 0,15.122 -2.367,27.469 -7.356,37.024 -4.961,9.344 -11.339,16.504 -18.898,21.469 -4.59,2.996 -9.957,5.39 -15.93,7.179 -6.168,1.789 -13.527,2.571 -22.273,2.571 v 0 h -33.242 v -138.903 0" /><path
         id="path50"
         style="fill:#231f20;fill-opacity:1;fill-rule:nonzero;stroke:none"
         d="m 317.551,479.281 h 21.492 v 61.313 h 6.754 v 0 c 5.746,0 10.137,-1.008 13.328,-3.203 2.98,-2.192 5.578,-6.145 7.363,-11.918 v 0 l 14.914,-46.192 h 22.879 l -18.691,54.332 v 0 c -1.785,5.192 -3.985,8.77 -6.375,10.961 -2.598,1.992 -5.567,3.379 -8.945,3.981 v 0 0.379 0 c 9.148,1.789 15.898,5.57 20.488,11.543 4.578,5.972 6.777,13.125 6.777,21.496 0,6.375 -1.008,11.742 -3,16.328 -1.992,4.558 -4.765,8.34 -8.367,11.344 -3.574,2.972 -7.766,5.164 -12.727,6.546 -4.961,1.411 -10.535,1.993 -16.503,1.993 v 0 h -39.387 v -138.903 0" /><path
         id="path52"
         style="fill:#231f20;fill-opacity:1;fill-rule:nonzero;stroke:none"
         d="m 417.848,483.668 c 3.601,-1.992 7.957,-3.379 13.152,-4.563 5.168,-1.011 10.938,-1.41 17.316,-1.41 13.329,0 24.063,3.578 31.825,10.758 7.765,7.156 11.543,17.113 11.543,29.84 v 0 0 0 c 0,5.969 -0.809,11.137 -2.598,15.32 -1.785,4.184 -4.363,7.965 -7.363,11.137 -2.969,3.203 -6.551,6.18 -10.731,8.77 -4.179,2.597 -8.566,5.168 -13.125,7.765 -3.41,1.985 -6.379,3.778 -8.769,5.567 -2.578,1.789 -4.571,3.378 -5.977,5.164 -1.594,1.586 -2.773,3.406 -3.379,5.394 -0.605,1.789 -0.976,3.957 -0.976,6.352 0,5.371 1.785,9.953 5.359,13.328 3.586,3.402 8.547,5.195 15.117,5.195 4.973,0 9.758,-0.605 13.938,-1.793 4.16,-1.41 7.761,-2.797 10.937,-4.383 v 0 l 0.606,19.102 v 0 c -2.59,0.98 -6.379,2.191 -10.957,3.172 -4.766,1.012 -10.129,1.594 -16.106,1.594 -5.566,0 -10.762,-0.782 -15.722,-2.168 -4.989,-1.618 -9.356,-3.985 -13.133,-6.985 -3.782,-3.172 -6.778,-6.953 -8.965,-11.543 -2.168,-4.558 -3.379,-9.75 -3.379,-15.722 0,-6.149 0.801,-11.137 2.598,-15.321 1.785,-4.183 4.179,-7.965 7.148,-10.937 3.008,-3.176 6.375,-5.973 10.566,-8.367 3.973,-2.571 8.34,-5.164 12.918,-7.961 3.789,-2.168 6.965,-4.364 9.551,-6.149 2.598,-1.992 4.59,-3.984 6.184,-5.769 1.387,-1.793 2.566,-3.782 3.172,-5.774 0.605,-2.191 0.8,-4.386 0.8,-6.98 0,-6.352 -2.187,-11.34 -6.367,-15.121 -4.187,-3.778 -9.754,-5.77 -16.511,-5.77 -5.598,0 -10.762,1.008 -15.723,2.996 -4.992,1.793 -8.977,3.782 -12.149,5.774 v 0 l -0.8,-20.512 v 0" /><path
         id="path54"
         style="fill:#ffffff;fill-opacity:1;fill-rule:nonzero;stroke:none"
         d="m 192.984,755.879 v 44.176 h 10.106 v 0 c 6.148,0 11.113,-1.586 14.765,-4.766 3.504,-3.199 5.321,-8.769 5.321,-16.527 v 0 0 0 c 0,-6.555 -1.668,-12.153 -4.992,-16.305 -3.477,-4.387 -8.442,-6.578 -15.243,-6.578 v 0 h -9.957 v 0" /><path
         id="path56"
         style="fill:#ffffff;fill-opacity:1;fill-rule:nonzero;stroke:none"
         d="m 305.176,728.031 v -9.176 c 0,-8.136 -1.488,-14.714 -4.488,-19.679 -3.149,-5.192 -7.637,-7.758 -13.758,-7.758 -4.485,0 -7.813,1.586 -10.129,4.559 -2.317,2.996 -3.481,7.16 -3.481,12.148 0,6.754 2.145,11.742 6.629,15.117 4.485,3.379 10.965,4.965 19.406,4.965 1.008,0 1.989,0 3.176,0 1.157,0 2.141,0 2.645,-0.176 v 0" /><path
         id="path58"
         style="fill:#ffffff;fill-opacity:1;fill-rule:nonzero;stroke:none"
         d="m 356.051,701.75 c -2.492,6.172 -3.801,15.52 -3.801,27.867 0,11.746 1.309,20.692 3.977,26.863 2.644,6.176 6.961,9.348 13.105,9.348 6.121,0 10.457,-3.172 13.262,-9.75 2.664,-6.574 4.004,-15.523 4.004,-26.863 v 0 0 0 c 0,-11.34 -1.34,-20.309 -4.004,-26.863 -2.805,-6.575 -7.285,-9.954 -13.438,-9.954 -6.301,0 -10.605,3.172 -13.105,9.352 v 0" /><path
         id="path60"
         style="fill:#ffffff;fill-opacity:1;fill-rule:nonzero;stroke:none"
         d="m 472.477,702.754 c -1.485,3.379 -2.493,7.156 -2.969,11.742 -0.684,4.563 -1.008,9.352 -1.008,14.719 0,5.371 0.324,10.156 1.008,14.715 0.476,4.59 1.484,8.371 2.969,11.746 1.511,3.203 3.328,5.769 5.644,7.562 2.168,1.785 4.988,2.793 8.289,2.793 3.332,0 6.153,-1.008 8.469,-2.793 2.168,-1.793 3.984,-4.359 5.469,-7.562 1.511,-3.375 2.5,-7.156 3.152,-11.746 0.5,-4.559 0.832,-9.344 0.832,-14.715 v 0 0 0 c 0,-5.367 -0.332,-10.156 -0.832,-14.719 -0.652,-4.586 -1.641,-8.363 -3.152,-11.742 -1.485,-3.399 -3.301,-5.973 -5.469,-7.758 -2.316,-1.793 -5.137,-2.801 -8.469,-2.801 -3.301,0 -6.121,1.008 -8.289,2.801 -2.316,1.785 -4.133,4.359 -5.644,7.758 v 0" /><path
         id="path62"
         style="fill:#ffffff;fill-opacity:1;fill-rule:nonzero;stroke:none"
         d="m 227.184,496.621 v 104.254 h 9.55 v 0 c 7.758,0 14.512,-1.187 20.106,-3.785 5.574,-2.57 10.133,-5.973 13.711,-10.531 3.398,-4.586 5.972,-9.954 7.762,-16.129 1.613,-6.172 2.394,-13.129 2.394,-20.489 v 0 0 0 c 0,-16.527 -3.578,-29.66 -10.734,-39.007 -7.36,-9.551 -18.321,-14.313 -33.239,-14.313 v 0 h -9.55 v 0" /><path
         id="path64"
         style="fill:#ffffff;fill-opacity:1;fill-rule:nonzero;stroke:none"
         d="m 339.043,557.098 v 44.175 h 12.125 v 0 c 7.352,0 13.328,-1.585 17.684,-4.761 4.191,-3.203 6.378,-8.77 6.378,-16.532 v 0 0 0 c 0,-6.55 -1.992,-12.144 -5.968,-16.304 -4.188,-4.383 -10.137,-6.578 -18.301,-6.578 v 0 h -11.918 v 0" /></g></g></svg>