<?xml version="1.0" encoding="UTF-8" standalone="no"?>
<svg
   xmlns:dc="http://purl.org/dc/elements/1.1/"
   xmlns:cc="http://creativecommons.org/ns#"
   xmlns:rdf="http://www.w3.org/1999/02/22-rdf-syntax-ns#"
   xmlns:svg="http://www.w3.org/2000/svg"
   xmlns="http://www.w3.org/2000/svg"
   viewBox="0 0 87.306664 132.28"
   height="132.28"
   width="87.306664"
   xml:space="preserve"
   id="svg2"
   version="1.1"><metadata
     id="metadata8"><rdf:RDF><cc:Work
         rdf:about=""><dc:format>image/svg+xml</dc:format><dc:type
           rdf:resource="http://purl.org/dc/dcmitype/StillImage" /></cc:Work></rdf:RDF></metadata><defs
     id="defs6" /><g
     transform="matrix(1.3333333,0,0,-1.3333333,0,132.28)"
     id="g10"><g
       transform="scale(0.1)"
       id="g12"><path
         id="path14"
         style="fill:#1a67bb;fill-opacity:1;fill-rule:nonzero;stroke:none"
         d="M 0,0 H 654.824 V 992.125 H 0 Z" /><path
         id="path16"
         style="fill:#ffffff;fill-opacity:1;fill-rule:nonzero;stroke:none"
         d="m 225.996,818.113 h 125.266 v 0 c 0,0 2.343,0 3.535,0 1.152,0 3.496,1.164 4.687,1.164 2.344,1.184 3.496,1.184 5.84,2.344 1.192,1.184 2.344,1.184 2.344,2.344 v 0 L 346.582,781.777 H 225.996 v -139.332 0 c 1.184,0 3.527,0 4.688,-1.156 7.031,-1.187 14.062,-2.344 21.089,-5.875 11.719,-4.687 22.282,-11.719 30.469,-21.09 12.778,-16.402 20.992,-35.152 20.992,-56.25 0,-23.308 -9.375,-46.742 -25.679,-61.988 -18.75,-17.566 -43.344,-24.598 -67.965,-24.598 -24.594,0 -49.215,5.852 -67.965,22.25 -18.621,15.25 -29.18,38.684 -30.34,61.992 -1.183,23.442 8.188,45.715 23.438,62.122 12.773,12.875 30.34,22.25 50.273,24.593 1.156,0 2.344,0 3.5,0 v 0 139.332 H 59.7266 v 41.028 0 l 1.1562,-1.184 c 1.1875,-1.16 3.5313,-2.344 4.6875,-2.344 2.3438,-1.164 4.6875,-1.164 5.875,-1.164 1.1563,0 3.5,0 3.5,0 v 0 H 188.496 v 97.125 0 c 0,1.184 0,2.344 0,3.528 0,2.343 0,3.5 0,5.843 0,2.344 -1.156,4.688 -2.344,5.875 0,1.157 -1.156,1.157 -1.156,2.344 v 0 h 42.184 v 0 c 0,-1.187 0,-1.187 0,-2.344 -1.184,-1.187 -1.184,-2.343 -1.184,-3.531 0,-2.344 0,-4.687 0,-7.031 v -2.34 0 -99.469 0" /><path
         id="path18"
         style="fill:#1a67bb;fill-opacity:1;fill-rule:nonzero;stroke:none"
         d="m 208.508,608.102 c 10.558,-1.188 22.152,-2.344 31.523,-7.032 8.215,-3.531 15.246,-10.562 21.09,-17.59 4.692,-8.089 7.035,-17.464 7.035,-26.839 0,-8.188 -2.343,-17.563 -7.035,-24.594 -4.683,-8.215 -11.715,-15.246 -19.906,-19.934 -9.375,-4.687 -20.988,-5.847 -31.524,-5.847 -7.031,0 -15.246,1.16 -22.277,2.343 -11.715,3.504 -22.254,9.375 -30.465,18.75 -5.851,8.188 -9.375,18.75 -9.375,30.469 -1.164,8.188 1.18,17.563 5.867,24.594 4.688,9.273 14.063,16.305 23.438,19.805 9.375,4.687 21.094,5.875 31.629,5.875 v 0" /><path
         id="path20"
         style="fill:#ffffff;fill-opacity:1;fill-rule:nonzero;stroke:none"
         d="m 74.7227,298.242 h 4.832 l 6.9609,11.543 h -7.3125 l -4.4804,-11.543 v 0" /><path
         id="path22"
         style="fill:#ffffff;fill-opacity:1;fill-rule:nonzero;stroke:none"
         d="m 72.0508,270.469 h 19.9805 v 2.773 c 0,3.574 -0.3282,6.602 -0.9336,9.219 -0.6289,2.644 -1.5079,4.797 -2.668,6.457 -1.1602,1.687 -2.5938,2.867 -4.1563,3.68 -1.6406,0.781 -3.4296,1.179 -5.3476,1.179 -2.1641,0 -4.1563,-0.476 -5.8438,-1.511 -1.789,-1.036 -3.2773,-2.539 -4.4609,-4.383 -1.1602,-1.914 -2.1172,-4.133 -2.7227,-6.75 -0.6054,-2.625 -0.957,-5.496 -0.957,-8.594 0,-2.949 0.3516,-5.754 0.957,-8.289 0.6055,-2.551 1.5157,-4.691 2.7969,-6.535 1.2383,-1.836 2.8008,-3.242 4.7149,-4.277 1.914,-1.114 4.1601,-1.59 6.6796,-1.59 2.1915,0 4.1836,0.25 5.8672,0.781 1.7149,0.555 3.0782,1.109 4.2344,1.656 v 0 l -0.3281,6.938 v 0 c -0.8789,-0.707 -2.0391,-1.438 -3.4258,-2.141 -1.4141,-0.734 -3.125,-1.113 -5.168,-1.113 -3.2734,0 -5.6132,1.035 -7.0312,3.172 -1.4336,2.074 -2.1875,5.168 -2.1875,9.328 v 0" /><path
         id="path24"
         style="fill:#ffffff;fill-opacity:1;fill-rule:nonzero;stroke:none"
         d="m 104.555,252.402 h 8.394 l 10.582,40.821 h -7.105 l -7.508,-32.785 h -0.129 l -7.383,32.785 h -7.5076 l 10.6566,-40.821 v 0" /><path
         id="path26"
         style="fill:#ffffff;fill-opacity:1;fill-rule:nonzero;stroke:none"
         d="m 145.277,252.402 h 6.426 v 0 c -0.07,0.703 -0.199,1.739 -0.273,2.918 -0.078,1.211 -0.125,2.473 -0.125,3.828 v 0 19.512 0 c 0,2.695 -0.207,4.942 -0.684,6.684 -0.48,1.754 -1.234,3.191 -2.113,4.383 -0.758,1.027 -1.992,1.984 -3.629,2.871 -1.641,0.781 -3.758,1.179 -6.426,1.179 -2.246,0 -4.234,-0.32 -5.922,-0.957 -1.715,-0.632 -3.277,-1.355 -4.586,-2.215 v 0 l 0.551,-7.082 v 0 c 0.883,1.036 2.192,1.993 3.883,2.844 1.637,0.813 3.426,1.211 5.391,1.211 2.546,0 4.312,-0.801 5.394,-2.394 0.551,-0.797 0.957,-1.661 1.156,-2.618 0.203,-1.035 0.282,-2.168 0.282,-3.425 v 0 -1.692 h -2.52 v 0 c -5.672,0 -10.031,-1.109 -12.98,-3.25 -2.926,-2.219 -4.434,-5.722 -4.434,-10.508 0,-1.914 0.273,-3.574 0.828,-5.089 0.531,-1.512 1.285,-2.723 2.242,-3.758 0.883,-1.035 1.992,-1.739 3.203,-2.215 1.239,-0.531 2.547,-0.781 3.981,-0.781 2.598,0 4.641,0.632 6.199,1.89 1.512,1.211 2.723,2.617 3.629,4.231 v 0 h 0.129 v 0 c 0,-0.254 0,-0.656 0.074,-1.211 0,-0.547 0,-1.106 0.047,-1.66 0.078,-0.555 0.078,-1.114 0.152,-1.59 0.078,-0.547 0.078,-0.879 0.125,-1.106 v 0" /><path
         id="path28"
         style="fill:#ffffff;fill-opacity:1;fill-rule:nonzero;stroke:none"
         d="m 158.008,252.402 h 7.105 v 24.192 c 0,3.172 0.528,5.719 1.688,7.554 1.109,1.821 2.746,2.7 4.992,2.7 1.836,0 3.148,-0.707 4.027,-2.141 0.836,-1.437 1.235,-3.75 1.235,-6.934 v 0 -25.371 h 7.082 v 27.293 0 c 0,4.309 -0.805,7.707 -2.442,10.254 -1.64,2.539 -4.234,3.828 -7.789,3.828 -2.039,0 -3.804,-0.554 -5.39,-1.734 -1.563,-1.215 -2.797,-2.871 -3.68,-5.012 v 0 h -0.129 v 0 c 0,0.227 0,0.703 0,1.262 -0.074,0.547 -0.074,1.18 -0.152,1.836 -0.071,0.625 -0.071,1.258 -0.071,1.812 -0.05,0.547 -0.05,1.036 -0.05,1.282 v 0 h -6.704 v 0 c 0.075,-1.18 0.153,-2.469 0.2,-3.75 0.078,-1.336 0.078,-2.696 0.078,-4.063 v 0 -33.008 0" /><path
         id="path30"
         style="fill:#ffffff;fill-opacity:1;fill-rule:nonzero;stroke:none"
         d="m 191.07,245.02 -0.406,-7.735 v 0 c 1.164,-0.558 2.797,-1.113 4.84,-1.672 2.039,-0.547 4.16,-0.879 6.273,-0.879 5.192,0 9.098,1.692 11.696,4.946 2.566,3.269 3.882,7.957 3.882,13.98 v 0 32.641 0 c 0,1.179 0.071,2.312 0.122,3.496 0.078,1.187 0.078,2.32 0.152,3.426 v 0 h -6.551 v 0 c 0,-0.246 0,-0.735 0,-1.282 -0.078,-0.554 -0.078,-1.187 -0.148,-1.812 -0.055,-0.656 -0.055,-1.211 -0.055,-1.77 -0.074,-0.554 -0.074,-1.035 -0.074,-1.261 v 0 h -0.203 v 0 c -0.879,1.82 -2.043,3.429 -3.477,4.765 -1.437,1.289 -3.223,1.914 -5.391,1.914 -2.121,0 -4.035,-0.476 -5.597,-1.511 -1.586,-1.036 -2.949,-2.391 -3.953,-4.211 -1.035,-1.832 -1.867,-4.051 -2.344,-6.621 -0.535,-2.625 -0.809,-5.496 -0.809,-8.672 0,-3.809 0.328,-7 1.086,-9.625 0.68,-2.621 1.586,-4.789 2.742,-6.379 1.165,-1.66 2.45,-2.774 3.883,-3.496 1.438,-0.711 2.926,-1.082 4.434,-1.082 2.398,0 4.312,0.601 5.746,1.961 1.414,1.289 2.57,2.871 3.477,4.863 v 0 h 0.128 v -5.086 0 c 0,-1.672 -0.128,-3.332 -0.406,-4.848 -0.351,-1.511 -0.828,-2.793 -1.508,-3.902 -0.757,-1.105 -1.691,-1.992 -2.925,-2.695 -1.235,-0.657 -2.797,-0.961 -4.637,-0.961 -1.914,0 -3.758,0.402 -5.594,1.117 -1.863,0.801 -3.273,1.582 -4.383,2.391 v 0" /><path
         id="path32"
         style="fill:#ffffff;fill-opacity:1;fill-rule:nonzero;stroke:none"
         d="m 224.434,252.402 h 7.382 v 9.629 h -7.382 v -9.629 0" /><path
         id="path34"
         style="fill:#ffffff;fill-opacity:1;fill-rule:nonzero;stroke:none"
         d="m 267.094,252.402 h 7.086 v 21.946 c 0,2.07 0.226,3.836 0.629,5.347 0.402,1.504 0.957,2.696 1.636,3.653 0.68,0.879 1.489,1.582 2.395,2.062 0.883,0.41 1.765,0.653 2.797,0.653 0.406,0 0.804,0 1.16,-0.094 0.328,-0.082 0.73,-0.149 1.086,-0.227 v 0 7.957 0 c -0.129,0 -0.278,0 -0.356,0.078 -0.05,0 -0.203,0 -0.328,0 -1.308,0 -2.472,-0.144 -3.476,-0.554 -1.035,-0.403 -1.84,-0.957 -2.598,-1.66 -0.754,-0.735 -1.437,-1.512 -1.988,-2.391 -0.532,-0.879 -1.012,-1.848 -1.364,-2.871 v 0 h -0.125 v 0 c 0,0.32 0,0.797 0,1.433 -0.074,0.625 -0.074,1.36 -0.152,2.063 -0.047,0.73 -0.047,1.363 -0.047,1.988 -0.078,0.637 -0.078,1.113 -0.078,1.438 v 0 h -6.551 v 0 c 0.075,-1.18 0.125,-2.469 0.203,-3.75 0.071,-1.336 0.071,-2.696 0.071,-4.063 v 0 -33.008 0" /><path
         id="path36"
         style="fill:#ffffff;fill-opacity:1;fill-rule:nonzero;stroke:none"
         d="m 294.313,298.242 h 4.863 l 6.957,11.543 h -7.309 l -4.511,-11.543 v 0" /><path
         id="path38"
         style="fill:#ffffff;fill-opacity:1;fill-rule:nonzero;stroke:none"
         d="m 291.664,270.469 h 19.988 v 2.773 c 0,3.574 -0.328,6.602 -0.957,9.219 -0.605,2.644 -1.492,4.797 -2.648,6.457 -1.16,1.687 -2.598,2.867 -4.184,3.68 -1.636,0.781 -3.402,1.179 -5.316,1.179 -2.195,0 -4.156,-0.476 -5.871,-1.511 -1.766,-1.036 -3.278,-2.539 -4.438,-4.383 -1.156,-1.914 -2.117,-4.133 -2.718,-6.75 -0.633,-2.625 -0.957,-5.496 -0.957,-8.594 0,-2.949 0.324,-5.754 0.957,-8.289 0.601,-2.551 1.484,-4.691 2.796,-6.535 1.235,-1.836 2.797,-3.242 4.711,-4.277 1.914,-1.114 4.161,-1.59 6.68,-1.59 2.191,0 4.156,0.25 5.871,0.781 1.711,0.555 3.074,1.109 4.231,1.656 v 0 l -0.352,6.938 v 0 c -0.883,-0.707 -2.039,-1.438 -3.402,-2.141 -1.434,-0.734 -3.149,-1.113 -5.192,-1.113 -3.273,0 -5.593,1.035 -7.031,3.172 -1.434,2.074 -2.168,5.168 -2.168,9.328 v 0" /><path
         id="path40"
         style="fill:#ffffff;fill-opacity:1;fill-rule:nonzero;stroke:none"
         d="m 318.531,252.402 h 7.106 v 34.446 h 6.328 v 6.375 h -6.328 v 7.793 0 c 0,1.836 0.324,3.195 0.957,4.152 0.605,0.965 1.664,1.441 3.097,1.441 0.43,0 0.957,-0.105 1.59,-0.254 0.606,-0.156 1.211,-0.332 1.688,-0.554 v 0 6.379 0 c -0.731,0.222 -1.637,0.476 -2.645,0.625 -1.031,0.156 -1.844,0.23 -2.472,0.23 -1.684,0 -3.172,-0.301 -4.332,-0.855 -1.161,-0.559 -2.118,-1.371 -2.875,-2.395 -0.75,-1.035 -1.286,-2.148 -1.637,-3.508 -0.324,-1.355 -0.477,-2.871 -0.477,-4.382 v 0 -8.672 h -5.722 v -6.375 h 5.722 v -34.446 0" /><path
         id="path42"
         style="fill:#ffffff;fill-opacity:1;fill-rule:nonzero;stroke:none"
         d="m 337.832,252.402 h 7.383 v 9.629 h -7.383 v -9.629 0" /><path
         id="path44"
         style="fill:#ffffff;fill-opacity:1;fill-rule:nonzero;stroke:none"
         d="m 439.238,253.508 c 0.93,-0.403 2.121,-0.805 3.528,-1.184 1.433,-0.383 3.027,-0.558 4.863,-0.558 3.328,0 6.152,0.714 8.465,2.218 2.246,1.516 4.16,3.582 5.597,6.278 1.434,2.726 2.442,5.976 3.075,9.804 0.605,3.735 0.929,7.961 0.929,12.571 v 0 0 0 c 0,3.808 -0.246,7.312 -0.722,10.515 -0.481,3.176 -1.321,5.969 -2.473,8.266 -1.16,2.312 -2.645,4.051 -4.512,5.34 -1.894,1.258 -4.207,1.914 -7.031,1.914 -4.211,0 -7.559,-1.582 -10.078,-4.785 -2.547,-3.172 -3.758,-7.715 -3.758,-13.535 0,-2.618 0.332,-5.008 0.957,-7.161 0.606,-2.136 1.414,-4.05 2.567,-5.562 1.113,-1.516 2.402,-2.727 3.984,-3.574 1.484,-0.891 3.203,-1.371 5.039,-1.371 2.246,0 4.16,0.558 5.676,1.742 1.433,1.129 2.597,2.644 3.398,4.461 v 0 l 0.156,-0.078 v 0 c -0.078,-2.469 -0.285,-4.942 -0.683,-7.305 -0.43,-2.473 -1.113,-4.641 -1.992,-6.524 -0.957,-1.925 -2.188,-3.425 -3.625,-4.636 -1.414,-1.196 -3.282,-1.821 -5.399,-1.821 -1.562,0 -3,0.227 -4.277,0.782 -1.32,0.48 -2.395,1.039 -3.281,1.593 v 0 l -0.403,-7.39 v 0" /><path
         id="path46"
         style="fill:#ffffff;fill-opacity:1;fill-rule:nonzero;stroke:none"
         d="m 471.445,252.402 h 7.383 v 9.629 h -7.383 v -9.629 0" /><path
         id="path48"
         style="fill:#ffffff;fill-opacity:1;fill-rule:nonzero;stroke:none"
         d="m 492.129,252.402 h 7.238 v 55.536 h -6.347 l -10.665,-11.29 3.555,-5.964 6.219,7.402 v -45.684 0" /><path
         id="path50"
         style="fill:#ffffff;fill-opacity:1;fill-rule:nonzero;stroke:none"
         d="m 505.344,253.984 c 1.277,-0.546 2.793,-1.132 4.558,-1.504 1.711,-0.46 3.625,-0.714 5.586,-0.714 5.071,0 8.957,1.742 11.672,5.168 2.742,3.504 4.11,8.195 4.11,14.168 v 0 0 0 c 0,2.699 -0.352,5.168 -1.036,7.226 -0.73,2.172 -1.687,3.906 -2.851,5.344 -1.153,1.433 -2.586,2.469 -4.18,3.176 -1.64,0.73 -3.332,1.113 -5.117,1.113 -1.082,0 -2.109,-0.078 -2.996,-0.227 -0.957,-0.078 -1.758,-0.332 -2.395,-0.554 v 0 14.011 h 16.328 v 6.747 h -23.007 v -28.321 0 c 1.164,0.403 2.394,0.781 3.605,1.184 1.238,0.398 2.676,0.554 4.238,0.554 3.27,0 5.743,-1.035 7.461,-3.027 1.629,-1.988 2.442,-4.687 2.442,-7.957 0,-3.406 -0.813,-6.199 -2.52,-8.34 -1.719,-2.246 -4.035,-3.359 -6.953,-3.359 -1.719,0 -3.281,0.332 -4.719,0.887 -1.433,0.558 -2.742,1.183 -3.828,1.914 v 0 l -0.398,-7.489 v 0" /><path
         id="path52"
         style="fill:#ffffff;fill-opacity:1;fill-rule:nonzero;stroke:none"
         d="m 564.563,252.402 h 7.097 v 24.192 c 0,3.172 0.539,5.719 1.692,7.554 1.113,1.821 2.753,2.7 4.988,2.7 1.848,0 3.156,-0.707 4.031,-2.141 0.832,-1.437 1.242,-3.75 1.242,-6.934 v 0 -25.371 h 7.082 v 27.293 0 c 0,4.309 -0.812,7.707 -2.453,10.254 -1.629,2.539 -4.226,3.828 -7.781,3.828 -2.316,0 -4.16,-0.625 -5.469,-1.836 -1.359,-1.257 -2.441,-2.625 -3.203,-4.136 v 0 h -0.129 v 24.293 h -7.097 v -59.696 0" /><path
         id="path54"
         style="fill:#ffffff;fill-opacity:1;fill-rule:nonzero;stroke:none"
         d="m 88.6836,164.551 -0.4063,7.012 v 0 c -0.7578,-0.555 -1.7617,-1.036 -2.9257,-1.434 -1.1563,-0.41 -2.3907,-0.637 -3.5508,-0.637 -3.0508,0 -5.3633,1.262 -7.0039,3.809 -1.6914,2.539 -2.4961,5.965 -2.4961,10.285 0,5.008 0.8047,8.66 2.4453,11.051 1.6367,2.375 3.9297,3.586 6.9297,3.586 1.2851,0 2.4453,-0.157 3.4765,-0.555 1.0118,-0.402 1.8907,-0.805 2.7735,-1.359 v 0 l 0.3515,6.921 v 0 c -0.8789,0.411 -1.914,0.782 -3.1992,1.118 -1.2851,0.32 -2.5976,0.476 -3.8828,0.476 -2.6445,0 -5.039,-0.476 -7.0781,-1.515 -2.0156,-1.036 -3.7305,-2.547 -5.0938,-4.383 -1.3632,-1.914 -2.3671,-4.129 -3.0468,-6.746 -0.6836,-2.629 -1.0352,-5.422 -1.0352,-8.528 0,-2.871 0.3516,-5.566 0.957,-8.117 0.6055,-2.535 1.6407,-4.781 2.9258,-6.617 1.2852,-1.82 2.9219,-3.332 4.9649,-4.367 1.9648,-1.133 4.3554,-1.692 7.082,-1.692 1.4844,0 2.9219,0.188 4.3359,0.481 1.4336,0.41 2.5899,0.808 3.4766,1.211 v 0" /><path
         id="path56"
         style="fill:#ffffff;fill-opacity:1;fill-rule:nonzero;stroke:none"
         d="m 112.066,163.418 h 6.403 v 0 c -0.074,0.73 -0.203,1.766 -0.281,2.949 -0.071,1.211 -0.125,2.473 -0.125,3.828 v 0 19.512 0 c 0,2.695 -0.2,4.93 -0.68,6.68 -0.477,1.758 -1.235,3.191 -2.113,4.375 -0.758,1.035 -1.969,1.992 -3.606,2.879 -1.641,0.785 -3.73,1.183 -6.398,1.183 -2.246,0 -4.211,-0.332 -5.8988,-0.957 -1.7149,-0.637 -3.2774,-1.355 -4.5625,-2.219 v 0 l 0.5273,-7.078 v 0 c 0.8828,1.028 2.1914,1.993 3.8828,2.84 1.6372,0.813 3.4022,1.215 5.3672,1.215 2.52,0 4.285,-0.805 5.395,-2.395 0.527,-0.808 0.933,-1.66 1.132,-2.617 0.223,-1.035 0.278,-2.168 0.278,-3.429 v 0 -1.688 h -2.52 v 0 c -5.644,0 -9.9803,-1.113 -12.9061,-3.254 -2.9179,-2.215 -4.4336,-5.722 -4.4336,-10.508 0,-1.914 0.2813,-3.582 0.8321,-5.086 0.5312,-1.511 1.2851,-2.722 2.2461,-3.761 0.8789,-1.035 1.9609,-1.739 3.1992,-2.215 1.2109,-0.559 2.4923,-0.813 3.9293,-0.813 2.598,0 4.637,0.664 6.2,1.926 1.484,1.199 2.722,2.617 3.605,4.227 v 0 h 0.125 v 0 c 0,-0.25 0,-0.653 0.074,-1.207 0,-0.559 0,-1.106 0.051,-1.664 0.078,-0.555 0.078,-1.114 0.149,-1.59 0.078,-0.547 0.078,-0.879 0.128,-1.133 v 0" /><path
         id="path58"
         style="fill:#ffffff;fill-opacity:1;fill-rule:nonzero;stroke:none"
         d="m 142.055,164.07 v 6.203 c -0.477,-0.222 -0.957,-0.476 -1.512,-0.625 -0.527,-0.253 -1.156,-0.332 -1.891,-0.332 -1.308,0 -2.191,0.481 -2.797,1.36 -0.605,0.887 -0.882,2.398 -0.882,4.617 v 0 22.598 h 7.082 v 6.375 h -7.082 v 10.839 l -7.082,-2.468 v -8.371 h -5.567 v -6.375 h 5.567 v -24.266 0 c 0,-3.906 0.757,-6.699 2.32,-8.293 1.562,-1.66 3.73,-2.473 6.602,-2.473 1.011,0 2.039,0.11 2.925,0.332 0.879,0.332 1.688,0.559 2.317,0.879 v 0" /><path
         id="path60"
         style="fill:#ffffff;fill-opacity:1;fill-rule:nonzero;stroke:none"
         d="m 147.32,163.418 h 7.055 v 24.219 c 0,3.172 0.559,5.722 1.715,7.558 1.082,1.817 2.723,2.696 4.965,2.696 1.84,0 3.125,-0.703 4.008,-2.137 0.832,-1.438 1.23,-3.762 1.23,-6.938 v 0 -25.398 h 7.062 v 27.312 0 c 0,4.321 -0.812,7.715 -2.445,10.266 -1.64,2.539 -4.211,3.828 -7.734,3.828 -2.321,0 -4.16,-0.636 -5.446,-1.836 -1.363,-1.261 -2.445,-2.629 -3.203,-4.14 v 0 h -0.152 v 24.297 h -7.055 v -59.727 0" /><path
         id="path62"
         style="fill:#ffffff;fill-opacity:1;fill-rule:nonzero;stroke:none"
         d="m 177.711,163.418 h 7.359 v 9.656 h -7.359 v -9.656 0" /><path
         id="path64"
         style="fill:#ffffff;fill-opacity:1;fill-rule:nonzero;stroke:none"
         d="m 220.199,163.418 h 7.082 v 21.973 c 0,2.07 0.199,3.836 0.606,5.339 0.398,1.516 0.957,2.708 1.636,3.665 0.684,0.878 1.489,1.582 2.368,2.058 0.882,0.41 1.793,0.656 2.797,0.656 0.406,0 0.808,0 1.164,-0.097 0.324,-0.078 0.753,-0.149 1.082,-0.227 v 0 7.961 0 c -0.125,0 -0.278,0 -0.329,0.078 -0.078,0 -0.226,0 -0.355,0 -1.285,0 -2.441,-0.156 -3.477,-0.558 -1.003,-0.399 -1.812,-0.957 -2.566,-1.661 -0.758,-0.73 -1.441,-1.511 -1.969,-2.39 -0.55,-0.891 -1.031,-1.848 -1.363,-2.871 v 0 h -0.152 v 0 c 0,0.324 0,0.801 0,1.433 -0.047,0.625 -0.047,1.36 -0.121,2.063 -0.079,0.73 -0.079,1.367 -0.079,1.992 -0.074,0.637 -0.074,1.113 -0.074,1.434 v 0 h -6.527 v 0 c 0.078,-1.18 0.152,-2.469 0.226,-3.75 0.051,-1.336 0.051,-2.696 0.051,-4.063 v 0 -33.035 0" /><path
         id="path66"
         style="fill:#ffffff;fill-opacity:1;fill-rule:nonzero;stroke:none"
         d="m 241.797,167.805 c 1.308,-1.664 2.871,-2.953 4.711,-3.735 1.765,-0.8 3.652,-1.211 5.695,-1.211 2.039,0 3.953,0.411 5.793,1.211 1.766,0.782 3.328,2.071 4.617,3.735 1.285,1.687 2.391,3.828 3.125,6.453 0.75,2.617 1.157,5.898 1.157,9.629 v 0 0 0 c 0,3.672 -0.407,6.843 -1.157,9.472 -0.734,2.618 -1.84,4.864 -3.125,6.524 -1.289,1.687 -2.851,2.949 -4.617,3.758 -1.84,0.785 -3.754,1.183 -5.793,1.183 -2.043,0 -3.93,-0.398 -5.695,-1.183 -1.84,-0.809 -3.403,-2.071 -4.711,-3.758 -1.285,-1.66 -2.367,-3.906 -3.125,-6.524 -0.731,-2.629 -1.16,-5.8 -1.16,-9.472 0,-3.731 0.429,-7.012 1.16,-9.629 0.758,-2.625 1.84,-4.766 3.125,-6.453 v 0" /><path
         id="path68"
         style="fill:#ffffff;fill-opacity:1;fill-rule:nonzero;stroke:none"
         d="m 271.836,163.418 h 7.082 v 25 c 0,3.027 0.527,5.344 1.562,7.004 1.004,1.687 2.567,2.469 4.536,2.469 3.277,0 4.91,-2.539 4.91,-7.559 v 0 -26.914 h 7.058 v 25 0 c 0,3.027 0.555,5.344 1.563,7.004 1.035,1.687 2.598,2.469 4.558,2.469 3.278,0 4.891,-2.539 4.891,-7.559 v 0 -26.914 h 7.082 v 26.766 0 c 0,4.757 -0.805,8.441 -2.445,10.91 -1.692,2.441 -4.211,3.73 -7.61,3.73 -2.246,0 -4.082,-0.636 -5.519,-1.914 -1.414,-1.34 -2.52,-2.851 -3.399,-4.543 -0.328,0.813 -0.734,1.594 -1.21,2.395 -0.481,0.711 -1.086,1.445 -1.766,2.07 -0.684,0.555 -1.512,1.035 -2.395,1.434 -0.879,0.402 -1.964,0.558 -3.125,0.558 -2.164,0 -3.957,-0.636 -5.367,-1.914 -1.437,-1.34 -2.597,-2.949 -3.324,-4.941 v 0 h -0.152 v 0 c 0,0.254 0,0.73 0,1.355 -0.078,0.559 -0.078,1.192 -0.078,1.848 -0.051,0.625 -0.051,1.258 -0.051,1.816 -0.071,0.547 -0.071,1.024 -0.071,1.278 v 0 h -7.007 v 0 c 0.074,-1.102 0.125,-2.313 0.199,-3.575 0.078,-1.289 0.078,-2.625 0.078,-4.128 v 0 -33.145 0" /><path
         id="path70"
         style="fill:#ffffff;fill-opacity:1;fill-rule:nonzero;stroke:none"
         d="m 321.879,163.418 h 7.312 v 9.656 h -7.312 v -9.656 0" /><path
         id="path72"
         style="fill:#ffffff;fill-opacity:1;fill-rule:nonzero;stroke:none"
         d="m 426.387,164.551 c 0.957,-0.403 2.121,-0.801 3.527,-1.211 1.434,-0.371 2.996,-0.547 4.844,-0.547 3.32,0 6.121,0.73 8.437,2.234 2.246,1.516 4.129,3.586 5.567,6.282 1.433,2.722 2.449,5.964 3.054,9.804 0.625,3.731 0.957,7.957 0.957,12.567 v 0 0 0 c 0,3.808 -0.281,7.316 -0.761,10.508 -0.449,3.187 -1.278,5.98 -2.442,8.273 -1.16,2.312 -2.644,4.051 -4.48,5.344 -1.895,1.258 -4.211,1.914 -7.012,1.914 -4.211,0 -7.531,-1.594 -10.051,-4.789 -2.519,-3.172 -3.757,-7.711 -3.757,-13.535 0,-2.618 0.351,-5.008 0.957,-7.157 0.632,-2.14 1.433,-4.054 2.597,-5.566 1.082,-1.516 2.371,-2.727 3.934,-3.582 1.504,-0.879 3.195,-1.36 5.039,-1.36 2.238,0 4.152,0.555 5.644,1.739 1.438,1.133 2.59,2.644 3.399,4.461 v 0 l 0.129,-0.078 v 0 c -0.051,-2.469 -0.254,-4.942 -0.684,-7.301 -0.402,-2.473 -1.086,-4.641 -1.965,-6.535 -0.957,-1.914 -2.168,-3.418 -3.601,-4.629 -1.438,-1.192 -3.254,-1.817 -5.371,-1.817 -1.563,0 -3,0.227 -4.278,0.782 -1.289,0.476 -2.402,1.035 -3.281,1.582 v 0 l -0.402,-7.383 v 0" /><path
         id="path74"
         style="fill:#ffffff;fill-opacity:1;fill-rule:nonzero;stroke:none"
         d="m 458.488,163.418 h 7.332 v 9.656 h -7.332 v -9.656 0" /><path
         id="path76"
         style="fill:#ffffff;fill-opacity:1;fill-rule:nonzero;stroke:none"
         d="m 470.637,165.027 c 1.414,-0.547 3.047,-1.132 4.89,-1.504 1.836,-0.476 3.75,-0.73 5.774,-0.73 2.39,0 4.558,0.398 6.551,1.102 1.964,0.812 3.605,1.914 5.011,3.285 1.434,1.433 2.52,3.172 3.282,5.164 0.73,1.992 1.152,4.226 1.152,6.777 v 0 0 0 c 0,2.059 -0.274,3.906 -0.754,5.488 -0.555,1.59 -1.238,2.852 -2.117,3.985 -0.879,1.113 -1.887,1.992 -3.047,2.629 -1.164,0.625 -2.395,1.101 -3.684,1.355 v 0 0.145 0 c 1.035,0.238 2.043,0.636 3.125,1.195 1.035,0.547 2.043,1.355 2.93,2.391 0.879,1.035 1.555,2.316 2.109,3.906 0.559,1.512 0.813,3.32 0.813,5.566 0,2.219 -0.332,4.309 -1.008,6.043 -0.762,1.739 -1.719,3.176 -2.93,4.387 -1.23,1.191 -2.644,2.07 -4.355,2.629 -1.688,0.547 -3.457,0.879 -5.449,0.879 -2.313,0 -4.325,-0.254 -6.121,-0.656 -1.809,-0.477 -3.399,-1.036 -4.758,-1.661 v 0 l 0.48,-7.566 v 0 c 1.434,0.887 2.996,1.59 4.559,2.144 1.562,0.559 3.078,0.801 4.355,0.801 2.246,0 4.133,-0.722 5.723,-2.136 1.562,-1.434 2.297,-3.508 2.297,-6.153 0,-1.66 -0.254,-3.019 -0.813,-4.133 -0.554,-1.179 -1.281,-2.058 -2.234,-2.871 -1.035,-0.703 -2.172,-1.258 -3.535,-1.59 -1.36,-0.398 -2.871,-0.546 -4.434,-0.546 v 0 h -1.965 v -6.68 0 c 0.403,0 0.957,0 1.641,0.078 0.605,0 1.406,0 2.363,0 2.852,0 5.09,-0.812 6.731,-2.324 1.64,-1.516 2.441,-3.731 2.441,-6.524 0,-1.738 -0.246,-3.254 -0.722,-4.543 -0.481,-1.257 -1.165,-2.285 -1.993,-3.093 -0.89,-0.879 -1.816,-1.512 -2.929,-1.914 -1.133,-0.379 -2.286,-0.633 -3.606,-0.633 -1.805,0 -3.523,0.332 -5.086,0.957 -1.562,0.554 -3,1.258 -4.211,1.992 v 0 l -0.476,-7.641 v 0" /><path
         id="path78"
         style="fill:#ffffff;fill-opacity:1;fill-rule:nonzero;stroke:none"
         d="m 505.461,170.906 c 1.16,-2.547 2.644,-4.539 4.492,-5.945 1.836,-1.438 4.004,-2.168 6.649,-2.168 2.644,0 4.894,0.73 6.73,2.234 1.836,1.438 3.348,3.411 4.481,5.981 1.164,2.547 1.992,5.562 2.472,8.992 0.457,3.406 0.731,7.156 0.731,11.223 v 0 0 0 c 0,4.05 -0.274,7.781 -0.731,11.289 -0.48,3.418 -1.308,6.441 -2.472,8.992 -1.133,2.539 -2.645,4.531 -4.481,6.047 -1.836,1.433 -4.086,2.168 -6.73,2.168 -2.645,0 -4.891,-0.735 -6.731,-2.168 -1.832,-1.516 -3.25,-3.508 -4.41,-6.047 -1.152,-2.551 -1.984,-5.574 -2.465,-8.992 -0.457,-3.508 -0.73,-7.239 -0.73,-11.289 0,-4.067 0.273,-7.817 0.73,-11.223 0.481,-3.508 1.313,-6.555 2.465,-9.094 v 0" /><path
         id="path80"
         style="fill:#ffffff;fill-opacity:1;fill-rule:nonzero;stroke:none"
         d="m 564.707,163.418 h 7.082 v 24.219 c 0,3.172 0.527,5.722 1.688,7.558 1.086,1.817 2.726,2.696 4.961,2.696 1.847,0 3.136,-0.703 4.015,-2.137 0.828,-1.438 1.231,-3.762 1.231,-6.938 v 0 -25.398 h 7.078 v 27.312 0 c 0,4.321 -0.828,7.715 -2.442,10.266 -1.64,2.539 -4.226,3.828 -7.761,3.828 -2.317,0 -4.161,-0.636 -5.442,-1.836 -1.355,-1.261 -2.441,-2.629 -3.203,-4.14 v 0 h -0.125 v 24.297 h -7.082 v -59.727 0" /><path
         id="path82"
         style="fill:#ffffff;fill-opacity:1;fill-rule:nonzero;stroke:none"
         d="m 88.4766,75.5742 -0.3985,7.0039 v 0 c -0.7343,-0.5586 -1.7383,-1.0351 -2.9023,-1.4375 -1.1328,-0.3984 -2.3672,-0.6328 -3.5,-0.6328 -3.0469,0 -5.3438,1.2578 -6.9531,3.8086 -1.6914,2.5469 -2.4961,5.9766 -2.4961,10.2813 0,5.0117 0.8047,8.6723 2.4414,11.0663 1.6172,2.363 3.9062,3.574 6.8789,3.574 1.2617,0 2.4219,-0.144 3.4297,-0.558 1.0117,-0.399 1.8906,-0.797 2.7734,-1.356 v 0 l 0.3281,6.934 v 0 c -0.8867,0.398 -1.8906,0.781 -3.1758,1.101 -1.289,0.332 -2.5468,0.481 -3.832,0.481 -2.6484,0 -4.9922,-0.481 -7.0312,-1.516 -2.0157,-1.023 -3.7032,-2.539 -5.0391,-4.383 -1.3633,-1.914 -2.3672,-4.132 -3.0469,-6.75 -0.6601,-2.617 -1.0117,-5.4176 -1.0117,-8.5113 0,-2.8828 0.3516,-5.5781 0.957,-8.1172 0.6055,-2.5508 1.6172,-4.7969 2.9024,-6.6328 1.2812,-1.8164 2.8945,-3.3281 4.9101,-4.3555 1.9688,-1.1328 4.3125,-1.6875 7.0079,-1.6875 1.4843,0 2.8945,0.1758 4.3359,0.4766 1.4101,0.4023 2.543,0.8047 3.4219,1.2109 v 0" /><path
         id="path84"
         style="fill:#ffffff;fill-opacity:1;fill-rule:nonzero;stroke:none"
         d="m 111.691,74.4414 h 6.321 v 0 c -0.047,0.7266 -0.199,1.7578 -0.254,2.9414 -0.07,1.211 -0.145,2.4688 -0.145,3.8399 v 0 19.5003 0 c 0,2.695 -0.207,4.941 -0.683,6.679 -0.453,1.758 -1.211,3.203 -2.09,4.383 -0.735,1.035 -1.945,1.992 -3.555,2.871 -1.637,0.782 -3.73,1.184 -6.347,1.184 -2.223,0 -4.184,-0.324 -5.8755,-0.957 -1.6914,-0.625 -3.2266,-1.36 -4.5117,-2.215 v 0 l 0.5312,-7.082 v 0 c 0.8789,1.035 2.1641,1.992 3.8555,2.852 1.6135,0.8 3.3785,1.199 5.3165,1.199 2.492,0 4.258,-0.797 5.34,-2.391 0.535,-0.801 0.933,-1.66 1.14,-2.617 0.2,-1.035 0.274,-2.168 0.274,-3.43 v 0 -1.6873 h -2.496 v 0 c -5.59,0 -9.9026,-1.1054 -12.8245,-3.25 -2.8984,-2.2187 -4.3867,-5.7265 -4.3867,-10.5078 0,-1.9141 0.2773,-3.5742 0.832,-5.0898 0.5274,-1.5157 1.2617,-2.7266 2.2188,-3.7618 0.8828,-1.0234 1.9687,-1.7343 3.1718,-2.2148 1.211,-0.5469 2.4966,-0.8008 3.9066,-0.8008 2.574,0 4.586,0.6563 6.125,1.9141 1.488,1.2109 2.699,2.6172 3.578,4.2265 v 0 h 0.152 v 0 c 0,-0.2421 0,-0.6523 0.047,-1.1992 0,-0.5586 0,-1.1133 0.078,-1.6718 0.074,-0.5547 0.074,-1.1016 0.129,-1.5821 0.074,-0.5547 0.074,-0.8867 0.152,-1.1328 v 0" /><path
         id="path86"
         style="fill:#ffffff;fill-opacity:1;fill-rule:nonzero;stroke:none"
         d="m 141.398,75.0977 v 6.1914 c -0.48,-0.2266 -0.929,-0.4805 -1.484,-0.625 -0.527,-0.2539 -1.133,-0.3321 -1.891,-0.3321 -1.285,0 -2.144,0.4766 -2.75,1.3672 -0.628,0.8789 -0.878,2.3946 -0.878,4.6094 v 0 22.6094 h 7.003 v 6.375 h -7.003 v 10.832 l -7.032,-2.473 v -8.359 h -5.515 v -6.375 h 5.515 v -24.2696 0 c 0,-3.9062 0.758,-6.7109 2.289,-8.2929 1.563,-1.668 3.731,-2.4688 6.555,-2.4688 1.012,0 2.016,0.0977 2.898,0.3242 0.879,0.3321 1.692,0.5547 2.293,0.8868 v 0" /><path
         id="path88"
         style="fill:#ffffff;fill-opacity:1;fill-rule:nonzero;stroke:none"
         d="m 146.641,74.4414 h 7.007 v 24.2109 c 0,3.1837 0.528,5.7227 1.684,7.5707 1.086,1.804 2.699,2.695 4.918,2.695 1.813,0 3.102,-0.715 3.98,-2.152 0.805,-1.434 1.211,-3.75 1.211,-6.9222 v 0 -25.4024 h 7.032 v 27.3166 0 c 0,4.305 -0.832,7.707 -2.45,10.254 -1.609,2.547 -4.179,3.828 -7.683,3.828 -2.289,0 -4.106,-0.625 -5.391,-1.836 -1.34,-1.262 -2.422,-2.617 -3.176,-4.129 v 0 h -0.125 v 24.285 h -7.007 v -59.7186 0" /><path
         id="path90"
         style="fill:#ffffff;fill-opacity:1;fill-rule:nonzero;stroke:none"
         d="m 176.777,74.4414 h 7.286 v 9.6524 h -7.286 v -9.6524 0" /><path
         id="path92"
         style="fill:#ffffff;fill-opacity:1;fill-rule:nonzero;stroke:none"
         d="m 241.113,75.5742 -0.398,7.0039 v 0 c -0.758,-0.5586 -1.766,-1.0351 -2.902,-1.4375 -1.157,-0.3984 -2.368,-0.6328 -3.5,-0.6328 -3.051,0 -5.344,1.2578 -6.958,3.8086 -1.687,2.5469 -2.492,5.9766 -2.492,10.2813 0,5.0117 0.805,8.6723 2.418,11.0663 1.61,2.363 3.907,3.574 6.879,3.574 1.285,0 2.445,-0.144 3.453,-0.558 1.004,-0.399 1.891,-0.797 2.75,-1.356 v 0 l 0.352,6.934 v 0 c -0.887,0.398 -1.891,0.781 -3.176,1.101 -1.289,0.332 -2.574,0.481 -3.855,0.481 -2.625,0 -4.993,-0.481 -7.008,-1.516 -2.016,-1.023 -3.703,-2.539 -5.063,-4.383 -1.34,-1.914 -2.343,-4.132 -3.027,-6.75 -0.68,-2.617 -1.008,-5.4176 -1.008,-8.5113 0,-2.8828 0.328,-5.5781 0.934,-8.1172 0.605,-2.5508 1.636,-4.7969 2.898,-6.6328 1.285,-1.8164 2.899,-3.3281 4.938,-4.3555 1.937,-1.1328 4.312,-1.6875 7.007,-1.6875 1.485,0 2.895,0.1758 4.305,0.4766 1.442,0.4023 2.574,0.8047 3.453,1.2109 v 0" /><path
         id="path94"
         style="fill:#ffffff;fill-opacity:1;fill-rule:nonzero;stroke:none"
         d="m 245.602,74.4414 h 7.031 v 24.2109 c 0,3.1837 0.527,5.7227 1.664,7.5707 1.078,1.804 2.719,2.695 4.937,2.695 1.817,0 3.102,-0.715 3.985,-2.152 0.804,-1.434 1.207,-3.75 1.207,-6.9222 v 0 -25.4024 h 7.004 v 27.3166 0 c 0,4.305 -0.805,7.707 -2.414,10.254 -1.618,2.547 -4.188,3.828 -7.692,3.828 -2.289,0 -4.105,-0.625 -5.39,-1.836 -1.364,-1.262 -2.446,-2.617 -3.176,-4.129 v 0 h -0.125 v 24.285 h -7.031 v -59.7186 0" /><path
         id="path96"
         style="fill:#ffffff;fill-opacity:1;fill-rule:nonzero;stroke:none"
         d="m 278.438,74.4414 h 7.007 V 96.418 c 0,2.0586 0.2,3.824 0.602,5.34 0.402,1.512 0.957,2.695 1.641,3.652 0.652,0.879 1.457,1.594 2.343,2.07 0.879,0.403 1.762,0.657 2.774,0.657 0.398,0 0.804,0 1.133,-0.11 0.351,-0.066 0.753,-0.144 1.082,-0.222 v 0 7.965 0 c -0.125,0 -0.254,0 -0.329,0.07 -0.078,0 -0.203,0 -0.324,0 -1.289,0 -2.449,-0.149 -3.457,-0.547 -1.008,-0.41 -1.812,-0.969 -2.57,-1.668 -0.731,-0.734 -1.41,-1.516 -1.938,-2.395 -0.558,-0.878 -1.011,-1.835 -1.363,-2.871 v 0 h -0.125 v 0 c 0,0.321 0,0.801 0,1.438 -0.074,0.625 -0.074,1.355 -0.129,2.066 -0.074,0.727 -0.074,1.36 -0.074,1.985 -0.078,0.632 -0.078,1.113 -0.078,1.445 v 0 h -6.473 v 0 c 0.074,-1.191 0.153,-2.473 0.199,-3.762 0.079,-1.336 0.079,-2.691 0.079,-4.051 v 0 -33.0386 0" /><path
         id="path98"
         style="fill:#ffffff;fill-opacity:1;fill-rule:nonzero;stroke:none"
         d="m 298.395,74.4414 h 7.007 v 40.8516 h -7.007 v -40.8516 0" /><path
         id="path100"
         style="fill:#ffffff;fill-opacity:1;fill-rule:nonzero;stroke:none"
         d="m 298.195,123.477 h 7.407 v 8.847 h -7.407 v -8.847 0" /><path
         id="path102"
         style="fill:#ffffff;fill-opacity:1;fill-rule:nonzero;stroke:none"
         d="m 311.422,76.0547 c 1.082,-0.5547 2.445,-1.1328 4.109,-1.5117 1.637,-0.4024 3.453,-0.6563 5.418,-0.6563 3.906,0 6.856,1.1328 8.918,3.4258 2.043,2.3164 3.055,5.2656 3.055,8.918 v 0 0 0 c 0,2.4687 -0.606,4.4609 -1.77,5.9765 -1.207,1.5157 -2.82,3.0157 -4.886,4.3868 v 0 l -3.024,1.9921 v 0 c -1.562,1.0235 -2.719,1.8831 -3.578,2.7691 -0.883,0.801 -1.285,1.915 -1.285,3.274 0,1.434 0.402,2.617 1.285,3.508 0.859,0.847 2.145,1.258 3.906,1.258 1.41,0 2.774,-0.157 3.907,-0.477 1.132,-0.41 2.191,-0.781 3.148,-1.262 v 0 l 0.328,6.668 v 0 c -0.726,0.332 -1.738,0.637 -3.101,1.035 -1.383,0.332 -2.997,0.481 -4.832,0.481 -1.747,0 -3.309,-0.324 -4.719,-0.957 -1.41,-0.625 -2.617,-1.516 -3.629,-2.539 -1.004,-1.114 -1.84,-2.403 -2.367,-3.731 -0.528,-1.433 -0.805,-2.949 -0.805,-4.465 0,-1.433 0.199,-2.722 0.527,-3.828 0.356,-1.1091 0.805,-2.0661 1.411,-2.945 0.628,-0.8906 1.289,-1.5937 2.167,-2.2187 0.883,-0.7305 1.817,-1.3672 2.903,-1.9922 v 0 l 3.652,-2.1407 v 0 c 1.535,-0.8867 2.621,-1.8437 3.227,-2.8007 0.551,-0.9571 0.804,-1.9922 0.804,-3.0274 0,-1.582 -0.531,-2.793 -1.617,-3.5742 -1.078,-0.8789 -2.566,-1.2891 -4.383,-1.2891 -1.683,0 -3.3,0.3321 -4.711,1.0352 -1.414,0.6523 -2.648,1.2891 -3.652,1.8476 v 0 l -0.406,-7.1601 v 0" /><path
         id="path104"
         style="fill:#ffffff;fill-opacity:1;fill-rule:nonzero;stroke:none"
         d="m 356.809,75.0977 v 6.1914 c -0.481,-0.2266 -0.93,-0.4805 -1.485,-0.625 -0.527,-0.2539 -1.133,-0.3321 -1.894,-0.3321 -1.262,0 -2.141,0.4766 -2.746,1.3672 -0.606,0.8789 -0.879,2.3946 -0.879,4.6094 v 0 22.6094 h 7.004 v 6.375 h -7.004 v 10.832 l -7.012,-2.473 v -8.359 h -5.535 v -6.375 h 5.535 v -24.2696 0 c 0,-3.9062 0.734,-6.7109 2.297,-8.2929 1.543,-1.668 3.711,-2.4688 6.531,-2.4688 1.008,0 2.012,0.0977 2.891,0.3242 0.89,0.3321 1.691,0.5547 2.297,0.8868 v 0" /><path
         id="path106"
         style="fill:#ffffff;fill-opacity:1;fill-rule:nonzero;stroke:none"
         d="m 362.258,74.4414 h 7.273 v 9.6524 h -7.273 v -9.6524 0" /><path
         id="path108"
         style="fill:#ffffff;fill-opacity:1;fill-rule:nonzero;stroke:none"
         d="m 427.746,75.5742 c 0.957,-0.4062 2.09,-0.8086 3.535,-1.2109 1.407,-0.3789 2.938,-0.5547 4.785,-0.5547 3.301,0 6.043,0.7344 8.34,2.2461 2.246,1.5117 4.129,3.5742 5.547,6.2695 1.406,2.7266 2.41,5.9766 3.016,9.8047 0.605,3.7305 0.957,7.9611 0.957,12.5781 v 0 0 0 c 0,3.801 -0.274,7.305 -0.75,10.508 -0.461,3.172 -1.289,5.965 -2.422,8.262 -1.152,2.324 -2.617,4.062 -4.465,5.339 -1.883,1.262 -4.18,1.914 -6.922,1.914 -4.191,0 -7.492,-1.582 -9.98,-4.785 -2.5,-3.172 -3.731,-7.715 -3.731,-13.535 0,-2.613 0.352,-5.008 0.957,-7.148 0.606,-2.149 1.414,-4.063 2.567,-5.5745 1.066,-1.5117 2.343,-2.7148 3.906,-3.5742 1.496,-0.8906 3.176,-1.3672 4.992,-1.3672 2.215,0 4.11,0.5586 5.594,1.7383 1.418,1.1445 2.57,2.6484 3.379,4.4606 v 0 l 0.129,-0.078 v 0 c -0.078,-2.4607 -0.285,-4.9295 -0.684,-7.3045 -0.402,-2.4687 -1.055,-4.6367 -1.945,-6.5195 -0.957,-1.9141 -2.156,-3.4297 -3.574,-4.6407 -1.414,-1.1796 -3.25,-1.8164 -5.321,-1.8164 -1.554,0 -2.968,0.2227 -4.258,0.7813 -1.281,0.4805 -2.363,1.0351 -3.242,1.5937 v 0 l -0.41,-7.3867 v 0" /><path
         id="path110"
         style="fill:#ffffff;fill-opacity:1;fill-rule:nonzero;stroke:none"
         d="m 459.602,74.4414 h 7.285 v 9.6524 h -7.285 v -9.6524 0" /><path
         id="path112"
         style="fill:#ffffff;fill-opacity:1;fill-rule:nonzero;stroke:none"
         d="m 471.621,76.0547 c 1.438,-0.5547 3.047,-1.1328 4.863,-1.5117 1.817,-0.4805 3.704,-0.7344 5.743,-0.7344 2.343,0 4.511,0.4023 6.476,1.1133 1.942,0.8008 3.555,1.914 4.988,3.2695 1.418,1.4375 2.5,3.1758 3.235,5.168 0.722,1.9922 1.152,4.2383 1.152,6.7773 v 0 0 0 c 0,2.0703 -0.273,3.9063 -0.754,5.5 -0.527,1.5821 -1.211,2.8399 -2.09,3.9727 -0.886,1.1136 -1.894,1.9926 -3.027,2.6246 -1.16,0.625 -2.363,1.106 -3.652,1.36 v 0 0.156 0 c 1.008,0.223 2.011,0.625 3.097,1.18 1.016,0.558 2.039,1.359 2.899,2.394 0.879,1.035 1.562,2.313 2.09,3.906 0.558,1.512 0.812,3.329 0.812,5.567 0,2.215 -0.332,4.316 -1.008,6.055 -0.73,1.738 -1.687,3.171 -2.898,4.382 -1.211,1.184 -2.617,2.063 -4.309,2.618 -1.687,0.558 -3.457,0.878 -5.398,0.878 -2.285,0 -4.309,-0.242 -6.074,-0.652 -1.809,-0.48 -3.371,-1.035 -4.707,-1.66 v 0 l 0.449,-7.559 v 0 c 1.433,0.879 2.976,1.582 4.539,2.141 1.535,0.555 3.027,0.809 4.308,0.809 2.215,0 4.11,-0.735 5.672,-2.149 1.536,-1.437 2.297,-3.496 2.297,-6.144 0,-1.668 -0.285,-3.028 -0.812,-4.129 -0.555,-1.192 -1.289,-2.071 -2.246,-2.879 -1.004,-0.703 -2.137,-1.262 -3.496,-1.582 -1.336,-0.403 -2.821,-0.559 -4.383,-0.559 v 0 h -1.946 v -6.6795 0 c 0.403,0 0.93,0 1.614,0.0781 0.605,0 1.414,0 2.371,0 2.82,0 5.039,-0.8125 6.652,-2.3164 1.641,-1.5117 2.442,-3.7265 2.442,-6.5312 0,-1.7383 -0.274,-3.25 -0.754,-4.5313 -0.457,-1.2578 -1.133,-2.2929 -1.942,-3.1054 -0.879,-0.879 -1.836,-1.5157 -2.902,-1.9141 -1.152,-0.3711 -2.285,-0.625 -3.574,-0.625 -1.817,0 -3.504,0.3203 -5.067,0.957 -1.535,0.5586 -2.968,1.2617 -4.179,1.9922 v 0 l -0.481,-7.6367 v 0" /><path
         id="path114"
         style="fill:#ffffff;fill-opacity:1;fill-rule:nonzero;stroke:none"
         d="m 506.172,81.9258 c 1.133,-2.5508 2.617,-4.543 4.433,-5.9492 1.836,-1.4336 3.985,-2.168 6.633,-2.168 2.617,0 4.832,0.7344 6.668,2.2461 1.817,1.4336 3.301,3.3984 4.446,5.9648 1.152,2.5508 1.961,5.5782 2.441,9.0039 0.449,3.4024 0.73,7.1524 0.73,11.2106 v 0 0 0 c 0,4.055 -0.281,7.786 -0.73,11.289 -0.48,3.43 -1.289,6.45 -2.441,8.997 -1.145,2.546 -2.629,4.539 -4.446,6.043 -1.836,1.449 -4.051,2.167 -6.668,2.167 -2.648,0 -4.875,-0.718 -6.679,-2.167 -1.848,-1.504 -3.254,-3.497 -4.387,-6.043 -1.16,-2.547 -1.973,-5.567 -2.449,-8.997 -0.45,-3.503 -0.727,-7.234 -0.727,-11.289 0,-4.0582 0.277,-7.8082 0.727,-11.2106 0.476,-3.5039 1.289,-6.5507 2.449,-9.0976 v 0" /><path
         id="path116"
         style="fill:#ffffff;fill-opacity:1;fill-rule:nonzero;stroke:none"
         d="m 564.934,74.4414 h 7.011 v 24.2109 c 0,3.1837 0.528,5.7227 1.688,7.5707 1.086,1.804 2.695,2.695 4.914,2.695 1.836,0 3.094,-0.715 3.984,-2.152 0.801,-1.434 1.199,-3.75 1.199,-6.9222 v 0 -25.4024 h 7.032 v 27.3166 0 c 0,4.305 -0.801,7.707 -2.442,10.254 -1.609,2.547 -4.179,3.828 -7.683,3.828 -2.297,0 -4.114,-0.625 -5.391,-1.836 -1.34,-1.262 -2.422,-2.617 -3.176,-4.129 v 0 h -0.125 v 24.285 h -7.011 v -59.7186 0" /><path
         id="path118"
         style="fill:#1a67bb;fill-opacity:1;fill-rule:nonzero;stroke:none"
         d="m 72.0508,276.113 c 0.0742,3.731 0.6797,6.68 1.8359,8.75 1.1641,1.985 2.7969,3.02 4.8399,3.02 4.2343,0 6.3515,-3.879 6.3515,-11.77 v 0 H 72.0508 v 0" /><path
         id="path120"
         style="fill:#1a67bb;fill-opacity:1;fill-rule:nonzero;stroke:none"
         d="m 144.602,272.363 v -3.664 c 0,-3.238 -0.606,-5.886 -1.844,-7.879 -1.281,-2.07 -3.149,-3.105 -5.668,-3.105 -1.84,0 -3.199,0.633 -4.16,1.844 -0.957,1.183 -1.434,2.843 -1.434,4.836 0,2.722 0.883,4.714 2.723,6.074 1.867,1.336 4.508,1.961 7.988,1.961 0.426,0 0.832,0 1.309,0 0.48,0 0.882,0 1.086,-0.067 v 0" /><path
         id="path122"
         style="fill:#1a67bb;fill-opacity:1;fill-rule:nonzero;stroke:none"
         d="m 198.023,262.031 c -1.156,2.285 -1.761,5.969 -1.761,10.985 0,4.687 0.551,8.183 1.633,10.656 1.035,2.391 2.8,3.586 5.269,3.652 2.32,0 4.082,-1.183 5.391,-3.574 1.211,-2.395 1.84,-5.977 1.84,-10.664 v 0 0 0 c 0,-4.934 -0.629,-8.582 -1.786,-10.988 -1.164,-2.461 -3.078,-3.653 -5.722,-3.653 -2.067,0 -3.703,1.192 -4.864,3.586 v 0" /><path
         id="path124"
         style="fill:#1a67bb;fill-opacity:1;fill-rule:nonzero;stroke:none"
         d="m 291.664,276.113 c 0.055,3.731 0.684,6.68 1.844,8.75 1.156,1.985 2.797,3.02 4.836,3.02 4.234,0 6.347,-3.879 6.347,-11.77 v 0 h -13.027 v 0" /><path
         id="path126"
         style="fill:#1a67bb;fill-opacity:1;fill-rule:nonzero;stroke:none"
         d="m 448.105,280.398 c -0.906,0.559 -1.582,1.438 -2.117,2.473 -0.547,1.035 -0.957,2.234 -1.23,3.574 -0.274,1.36 -0.403,2.727 -0.403,4.239 0,1.582 0.129,3.093 0.403,4.453 0.273,1.336 0.683,2.625 1.289,3.664 0.547,1.023 1.23,1.836 2.109,2.39 0.84,0.547 1.864,0.879 3.028,0.879 1.16,0 2.168,-0.332 3.046,-0.879 0.907,-0.554 1.59,-1.367 2.118,-2.39 0.558,-1.039 0.957,-2.328 1.242,-3.664 0.273,-1.36 0.398,-2.871 0.398,-4.453 v 0 0 0 c 0,-1.512 -0.125,-2.95 -0.398,-4.317 -0.285,-1.328 -0.684,-2.539 -1.242,-3.574 -0.606,-1.035 -1.289,-1.914 -2.168,-2.473 -0.879,-0.554 -1.836,-0.879 -2.996,-0.879 -1.164,0 -2.188,0.325 -3.079,0.957 v 0" /><path
         id="path128"
         style="fill:#1a67bb;fill-opacity:1;fill-rule:nonzero;stroke:none"
         d="m 111.387,183.406 v -3.66 c 0,-3.254 -0.606,-5.891 -1.84,-7.883 -1.285,-2.066 -3.125,-3.101 -5.645,-3.101 -1.816,0 -3.175,0.633 -4.1325,1.843 -0.9609,1.18 -1.4375,2.84 -1.4375,4.833 0,2.726 0.8828,4.718 2.723,6.074 1.84,1.34 4.484,1.965 7.965,1.965 0.398,0 0.804,0 1.285,0 0.476,0 0.879,0 1.082,-0.071 v 0" /><path
         id="path130"
         style="fill:#1a67bb;fill-opacity:1;fill-rule:nonzero;stroke:none"
         d="m 246.508,173.301 c -0.629,1.355 -1.035,2.871 -1.235,4.707 -0.277,1.816 -0.406,3.73 -0.406,5.879 0,2.168 0.129,4.051 0.406,5.886 0.2,1.848 0.606,3.364 1.235,4.692 0.605,1.289 1.363,2.32 2.293,3.023 0.883,0.735 2.043,1.137 3.402,1.137 1.363,0 2.52,-0.402 3.477,-1.137 0.883,-0.703 1.64,-1.734 2.246,-3.023 0.605,-1.328 1.004,-2.844 1.285,-4.692 0.199,-1.835 0.352,-3.718 0.352,-5.886 v 0 0 0 c 0,-2.149 -0.153,-4.063 -0.352,-5.879 -0.281,-1.836 -0.68,-3.352 -1.285,-4.707 -0.606,-1.367 -1.363,-2.395 -2.246,-3.106 -0.957,-0.703 -2.114,-1.101 -3.477,-1.101 -1.359,0 -2.519,0.398 -3.402,1.101 -0.93,0.711 -1.688,1.739 -2.293,3.106 v 0" /><path
         id="path132"
         style="fill:#1a67bb;fill-opacity:1;fill-rule:nonzero;stroke:none"
         d="m 435.234,191.445 c -0.886,0.547 -1.562,1.438 -2.117,2.473 -0.527,1.023 -0.957,2.234 -1.211,3.57 -0.273,1.36 -0.402,2.727 -0.402,4.239 0,1.582 0.129,3.097 0.402,4.453 0.254,1.34 0.684,2.629 1.289,3.656 0.547,1.031 1.231,1.844 2.11,2.398 0.808,0.547 1.816,0.879 2.976,0.879 1.164,0 2.188,-0.332 3.078,-0.879 0.879,-0.554 1.563,-1.367 2.09,-2.398 0.555,-1.027 0.957,-2.316 1.231,-3.656 0.281,-1.356 0.41,-2.871 0.41,-4.453 v 0 0 0 c 0,-1.512 -0.129,-2.95 -0.41,-4.317 -0.274,-1.324 -0.676,-2.535 -1.231,-3.57 -0.605,-1.035 -1.289,-1.914 -2.168,-2.473 -0.879,-0.558 -1.836,-0.879 -3,-0.879 -1.16,0 -2.168,0.321 -3.047,0.957 v 0" /><path
         id="path134"
         style="fill:#1a67bb;fill-opacity:1;fill-rule:nonzero;stroke:none"
         d="m 511.035,175.137 c -1.035,3.73 -1.562,9.148 -1.562,16.086 0,6.922 0.527,12.312 1.562,16.152 1.008,3.824 2.922,5.738 5.567,5.738 2.726,0 4.64,-1.914 5.644,-5.672 1.035,-3.8 1.563,-9.218 1.563,-16.218 v 0 0 0 c 0,-6.938 -0.528,-12.356 -1.563,-16.086 -1.082,-3.828 -3,-5.742 -5.644,-5.742 -2.645,0 -4.559,1.914 -5.567,5.742 v 0" /><path
         id="path136"
         style="fill:#1a67bb;fill-opacity:1;fill-rule:nonzero;stroke:none"
         d="m 111.008,94.4258 v -3.6563 c 0,-3.25 -0.606,-5.8945 -1.813,-7.8867 -1.285,-2.0742 -3.101,-3.0976 -5.597,-3.0976 -1.84,0 -3.172,0.625 -4.1292,1.8359 -0.9336,1.1836 -1.4102,2.8516 -1.4102,4.832 0,2.7266 0.8789,4.7188 2.6954,6.0742 1.809,1.3399 4.457,1.9766 7.883,1.9766 0.406,0 0.808,0 1.285,0 0.48,0 0.883,0 1.086,-0.0781 v 0" /><path
         id="path138"
         style="fill:#1a67bb;fill-opacity:1;fill-rule:nonzero;stroke:none"
         d="m 436.516,102.461 c -0.86,0.555 -1.536,1.434 -2.09,2.469 -0.528,1.039 -0.93,2.25 -1.211,3.578 -0.274,1.367 -0.402,2.722 -0.402,4.234 0,1.582 0.128,3.098 0.402,4.465 0.281,1.328 0.683,2.617 1.289,3.652 0.527,1.036 1.211,1.836 2.09,2.395 0.808,0.555 1.816,0.879 2.969,0.879 1.14,0 2.148,-0.324 3.027,-0.879 0.879,-0.559 1.562,-1.359 2.09,-2.395 0.554,-1.035 0.957,-2.324 1.211,-3.652 0.281,-1.367 0.398,-2.883 0.398,-4.465 v 0 0 0 c 0,-1.512 -0.117,-2.945 -0.398,-4.304 -0.254,-1.34 -0.657,-2.551 -1.211,-3.586 -0.606,-1.036 -1.282,-1.914 -2.168,-2.469 -0.852,-0.547 -1.809,-0.879 -2.949,-0.879 -1.153,0 -2.161,0.332 -3.047,0.957 v 0" /><path
         id="path140"
         style="fill:#1a67bb;fill-opacity:1;fill-rule:nonzero;stroke:none"
         d="m 511.691,86.1523 c -1.007,3.7305 -1.543,9.1524 -1.543,16.0817 0,6.926 0.536,12.325 1.543,16.153 1.004,3.832 2.899,5.746 5.547,5.746 2.696,0 4.578,-1.914 5.586,-5.664 1.016,-3.813 1.543,-9.231 1.543,-16.235 v 0 0 0 c 0,-6.9293 -0.527,-12.3512 -1.543,-16.0817 -1.086,-3.8281 -2.969,-5.7421 -5.586,-5.7421 -2.648,0 -4.543,1.914 -5.547,5.7421 v 0" /></g></g></svg>