<?xml version="1.0" encoding="UTF-8" standalone="no"?>
<svg
   xmlns:dc="http://purl.org/dc/elements/1.1/"
   xmlns:cc="http://creativecommons.org/ns#"
   xmlns:rdf="http://www.w3.org/1999/02/22-rdf-syntax-ns#"
   xmlns:svg="http://www.w3.org/2000/svg"
   xmlns="http://www.w3.org/2000/svg"
   viewBox="0 0 87.306664 132.28"
   height="132.28"
   width="87.306664"
   xml:space="preserve"
   id="svg2"
   version="1.1"><metadata
     id="metadata8"><rdf:RDF><cc:Work
         rdf:about=""><dc:format>image/svg+xml</dc:format><dc:type
           rdf:resource="http://purl.org/dc/dcmitype/StillImage" /></cc:Work></rdf:RDF></metadata><defs
     id="defs6" /><g
     transform="matrix(1.3333333,0,0,-1.3333333,0,132.28)"
     id="g10"><g
       transform="scale(0.1)"
       id="g12"><path
         id="path14"
         style="fill:#1a67bb;fill-opacity:1;fill-rule:nonzero;stroke:none"
         d="M 0,0 H 654.824 V 992.125 H 0 Z" /><path
         id="path16"
         style="fill:#ffffff;fill-opacity:1;fill-rule:nonzero;stroke:none"
         d="m 225.996,818.113 h 125.266 v 0 c 0,0 2.343,0 3.535,0 1.152,0 3.496,1.164 4.687,1.164 2.344,1.184 3.496,1.184 5.84,2.344 1.192,1.184 2.344,1.184 2.344,2.344 v 0 L 346.582,781.777 H 225.996 v -139.332 0 c 1.184,0 3.527,0 4.688,-1.156 7.031,-1.187 14.062,-2.344 21.089,-5.875 11.719,-4.687 22.282,-11.719 30.469,-21.09 12.778,-16.402 20.992,-35.152 20.992,-56.25 0,-23.308 -9.375,-46.742 -25.679,-61.988 -18.75,-17.566 -43.344,-24.598 -67.965,-24.598 -24.594,0 -49.215,5.852 -67.965,22.25 -18.621,15.25 -29.18,38.684 -30.34,61.992 -1.183,23.442 8.188,45.715 23.438,62.122 12.773,12.875 30.34,22.25 50.273,24.593 1.156,0 2.344,0 3.5,0 v 0 139.332 H 59.7266 v 41.028 0 l 1.1562,-1.184 c 1.1875,-1.16 3.5313,-2.344 4.6875,-2.344 2.3438,-1.164 4.6875,-1.164 5.875,-1.164 1.1563,0 3.5,0 3.5,0 v 0 H 188.496 v 97.125 0 c 0,1.184 0,2.344 0,3.528 0,2.343 0,3.5 0,5.843 0,2.344 -1.156,4.688 -2.344,5.875 0,1.157 -1.156,1.157 -1.156,2.344 v 0 h 42.184 v 0 c 0,-1.187 0,-1.187 0,-2.344 -1.184,-1.187 -1.184,-2.343 -1.184,-3.531 0,-2.344 0,-4.687 0,-7.031 v -2.34 0 -99.469 0" /><path
         id="path18"
         style="fill:#ffffff;fill-opacity:1;fill-rule:nonzero;stroke:none"
         d="m 72.0234,270.469 h 19.961 v 2.773 c 0,3.574 -0.3281,6.602 -0.9571,9.219 -0.6054,2.644 -1.4921,4.797 -2.6484,6.457 -1.1601,1.687 -2.5976,2.867 -4.1601,3.68 -1.6368,0.781 -3.3985,1.179 -5.3165,1.179 -2.1679,0 -4.1562,-0.476 -5.8437,-1.511 -1.7656,-1.036 -3.2773,-2.539 -4.4375,-4.383 -1.1602,-1.914 -2.1172,-4.133 -2.7227,-6.75 -0.6054,-2.625 -0.957,-5.496 -0.957,-8.594 0,-2.949 0.3516,-5.754 0.957,-8.289 0.6055,-2.551 1.4883,-4.691 2.7969,-6.535 1.211,-1.836 2.8008,-3.242 4.6875,-4.277 1.9141,-1.114 4.1602,-1.59 6.6797,-1.59 2.1953,0 4.1563,0.25 5.8711,0.781 1.6875,0.555 3.0508,1.109 4.207,1.656 v 0 l -0.3242,6.938 v 0 c -0.8867,-0.707 -2.043,-1.438 -3.4062,-2.141 -1.4336,-0.734 -3.1485,-1.113 -5.1875,-1.113 -3.2774,0 -5.5664,1.035 -7.0079,3.172 -1.4375,2.074 -2.1914,5.168 -2.1914,9.328 v 0" /><path
         id="path20"
         style="fill:#ffffff;fill-opacity:1;fill-rule:nonzero;stroke:none"
         d="m 105.363,252.402 h 8.391 l 10.559,40.821 h -7.083 l -7.507,-32.785 h -0.129 l -7.356,32.785 h -7.4802 l 10.6052,-40.821 v 0" /><path
         id="path22"
         style="fill:#ffffff;fill-opacity:1;fill-rule:nonzero;stroke:none"
         d="m 146.012,252.402 h 6.402 v 0 c -0.055,0.703 -0.203,1.739 -0.254,2.918 -0.074,1.211 -0.152,2.473 -0.152,3.828 v 0 19.512 0 c 0,2.695 -0.199,4.942 -0.68,6.684 -0.476,1.754 -1.211,3.191 -2.117,4.383 -0.731,1.027 -1.965,1.984 -3.606,2.871 -1.636,0.781 -3.726,1.179 -6.402,1.179 -2.238,0 -4.203,-0.32 -5.918,-0.957 -1.711,-0.632 -3.273,-1.355 -4.562,-2.215 v 0 l 0.554,-7.082 v 0 c 0.883,1.036 2.168,1.993 3.883,2.844 1.61,0.813 3.403,1.211 5.367,1.211 2.52,0 4.282,-0.801 5.395,-2.394 0.527,-0.797 0.933,-1.661 1.156,-2.618 0.199,-1.035 0.254,-2.168 0.254,-3.425 v 0 -1.692 h -2.523 v 0 c -5.645,0 -10,-1.109 -12.926,-3.25 -2.926,-2.219 -4.434,-5.722 -4.434,-10.508 0,-1.914 0.274,-3.574 0.832,-5.089 0.528,-1.512 1.282,-2.723 2.239,-3.758 0.886,-1.035 1.968,-1.739 3.203,-2.215 1.207,-0.531 2.519,-0.781 3.957,-0.781 2.566,0 4.609,0.632 6.199,1.89 1.484,1.211 2.723,2.617 3.605,4.231 v 0 h 0.121 v 0 c 0,-0.254 0,-0.656 0.079,-1.211 0,-0.547 0,-1.106 0.074,-1.66 0.055,-0.555 0.055,-1.114 0.125,-1.59 0.078,-0.547 0.078,-0.879 0.129,-1.106 v 0" /><path
         id="path24"
         style="fill:#ffffff;fill-opacity:1;fill-rule:nonzero;stroke:none"
         d="m 158.711,252.402 h 7.082 v 24.192 c 0,3.172 0.555,5.719 1.711,7.554 1.086,1.821 2.726,2.7 4.969,2.7 1.84,0 3.125,-0.707 4.031,-2.141 0.805,-1.437 1.207,-3.75 1.207,-6.934 v 0 -25.371 h 7.086 v 27.293 0 c 0,4.309 -0.813,7.707 -2.449,10.254 -1.633,2.539 -4.231,3.828 -7.762,3.828 -2.043,0 -3.805,-0.554 -5.391,-1.734 -1.562,-1.215 -2.773,-2.871 -3.675,-5.012 v 0 h -0.129 v 0 c 0,0.227 0,0.703 0,1.262 -0.078,0.547 -0.078,1.18 -0.125,1.836 -0.078,0.625 -0.078,1.258 -0.078,1.812 -0.075,0.547 -0.075,1.036 -0.075,1.282 v 0 h -6.679 v 0 c 0.078,-1.18 0.152,-2.469 0.203,-3.75 0.074,-1.336 0.074,-2.696 0.074,-4.063 v 0 -33.008 0" /><path
         id="path26"
         style="fill:#ffffff;fill-opacity:1;fill-rule:nonzero;stroke:none"
         d="m 191.699,245.02 -0.406,-7.735 v 0 c 1.164,-0.558 2.801,-1.113 4.84,-1.672 2.043,-0.547 4.16,-0.879 6.273,-0.879 5.168,0 9.051,1.692 11.649,4.946 2.59,3.269 3.875,7.957 3.875,13.98 v 0 32.641 0 c 0,1.179 0.078,2.312 0.129,3.496 0.078,1.187 0.078,2.32 0.148,3.426 v 0 h -6.551 v 0 c 0,-0.246 0,-0.735 0,-1.282 -0.051,-0.554 -0.051,-1.187 -0.129,-1.812 -0.07,-0.656 -0.07,-1.211 -0.07,-1.77 -0.051,-0.554 -0.051,-1.035 -0.051,-1.261 v 0 h -0.23 v 0 c -0.879,1.82 -2.039,3.429 -3.449,4.765 -1.438,1.289 -3.2,1.914 -5.391,1.914 -2.121,0 -4.012,-0.476 -5.598,-1.511 -1.562,-1.036 -2.925,-2.391 -3.929,-4.211 -1.036,-1.832 -1.84,-4.051 -2.321,-6.621 -0.554,-2.625 -0.828,-5.496 -0.828,-8.672 0,-3.809 0.352,-7 1.106,-9.625 0.679,-2.621 1.562,-4.789 2.722,-6.379 1.16,-1.66 2.446,-2.774 3.879,-3.496 1.438,-0.711 2.926,-1.082 4.41,-1.082 2.395,0 4.313,0.601 5.723,1.961 1.438,1.289 2.594,2.871 3.477,4.863 v 0 h 0.152 v -5.086 0 c 0,-1.672 -0.152,-3.332 -0.406,-4.848 -0.352,-1.511 -0.828,-2.793 -1.508,-3.902 -0.758,-1.105 -1.715,-1.992 -2.926,-2.695 -1.234,-0.657 -2.797,-0.961 -4.637,-0.961 -1.914,0 -3.757,0.402 -5.593,1.117 -1.84,0.801 -3.25,1.582 -4.36,2.391 v 0" /><path
         id="path28"
         style="fill:#ffffff;fill-opacity:1;fill-rule:nonzero;stroke:none"
         d="m 225.016,252.402 h 7.355 v 9.629 h -7.355 v -9.629 0" /><path
         id="path30"
         style="fill:#ffffff;fill-opacity:1;fill-rule:nonzero;stroke:none"
         d="m 267.574,252.402 h 7.086 v 21.946 c 0,2.07 0.199,3.836 0.598,5.347 0.406,1.504 0.965,2.696 1.64,3.653 0.68,0.879 1.485,1.582 2.372,2.062 0.906,0.41 1.789,0.653 2.796,0.653 0.407,0 0.829,0 1.157,-0.094 0.355,-0.082 0.757,-0.149 1.086,-0.227 v 0 7.957 0 c -0.129,0 -0.25,0 -0.329,0.078 -0.074,0 -0.199,0 -0.351,0 -1.285,0 -2.445,-0.144 -3.453,-0.554 -1.035,-0.403 -1.84,-0.957 -2.598,-1.66 -0.758,-0.735 -1.433,-1.512 -1.988,-2.391 -0.531,-0.879 -1.008,-1.848 -1.36,-2.871 v 0 h -0.128 v 0 c 0,0.32 0,0.797 0,1.433 -0.075,0.625 -0.075,1.36 -0.125,2.063 -0.075,0.73 -0.075,1.363 -0.075,1.988 -0.078,0.637 -0.078,1.113 -0.078,1.438 v 0 h -6.523 v 0 c 0.047,-1.18 0.121,-2.469 0.199,-3.75 0.074,-1.336 0.074,-2.696 0.074,-4.063 v 0 -33.008 0" /><path
         id="path32"
         style="fill:#ffffff;fill-opacity:1;fill-rule:nonzero;stroke:none"
         d="m 291.895,270.469 h 19.957 v 2.773 c 0,3.574 -0.329,6.602 -0.934,9.219 -0.629,2.644 -1.508,4.797 -2.672,6.457 -1.156,1.687 -2.59,2.867 -4.152,3.68 -1.641,0.781 -3.406,1.179 -5.321,1.179 -2.168,0 -4.132,-0.476 -5.847,-1.511 -1.762,-1.036 -3.278,-2.539 -4.434,-4.383 -1.156,-1.914 -2.09,-4.133 -2.719,-6.75 -0.605,-2.625 -0.964,-5.496 -0.964,-8.594 0,-2.949 0.359,-5.754 0.964,-8.289 0.629,-2.551 1.508,-4.691 2.793,-6.535 1.235,-1.836 2.797,-3.242 4.715,-4.277 1.891,-1.114 4.133,-1.59 6.653,-1.59 2.191,0 4.16,0.25 5.871,0.781 1.687,0.555 3.047,1.109 4.207,1.656 v 0 l -0.328,6.938 v 0 c -0.879,-0.707 -2.043,-1.438 -3.399,-2.141 -1.441,-0.734 -3.156,-1.113 -5.195,-1.113 -3.246,0 -5.567,1.035 -7.004,3.172 -1.434,2.074 -2.191,5.168 -2.191,9.328 v 0" /><path
         id="path34"
         style="fill:#ffffff;fill-opacity:1;fill-rule:nonzero;stroke:none"
         d="m 320.875,252.402 h 7.055 v 34.446 h 6.347 v 6.375 h -6.347 v 7.793 0 c 0,1.836 0.351,3.195 0.957,4.152 0.629,0.965 1.715,1.441 3.148,1.441 0.406,0 0.934,-0.105 1.57,-0.254 0.606,-0.156 1.2,-0.332 1.68,-0.554 v 0 6.379 0 c -0.722,0.222 -1.633,0.476 -2.648,0.625 -1.032,0.156 -1.836,0.23 -2.442,0.23 -1.715,0 -3.172,-0.301 -4.332,-0.855 -1.16,-0.559 -2.117,-1.371 -2.875,-2.395 -0.75,-1.035 -1.285,-2.148 -1.636,-3.508 -0.325,-1.355 -0.477,-2.871 -0.477,-4.382 v 0 -8.672 h -5.723 v -6.375 h 5.723 v -34.446 0" /><path
         id="path36"
         style="fill:#ffffff;fill-opacity:1;fill-rule:nonzero;stroke:none"
         d="m 340.148,252.402 h 7.364 v 9.629 h -7.364 v -9.629 0" /><path
         id="path38"
         style="fill:#ffffff;fill-opacity:1;fill-rule:nonzero;stroke:none"
         d="m 439.543,253.508 c 0.953,-0.403 2.117,-0.805 3.555,-1.184 1.433,-0.383 2.996,-0.558 4.832,-0.558 3.332,0 6.125,0.714 8.449,2.218 2.234,1.516 4.148,3.582 5.594,6.278 1.406,2.726 2.441,5.976 3.047,9.804 0.625,3.735 0.957,7.961 0.957,12.571 v 0 0 0 c 0,3.808 -0.282,7.312 -0.762,10.515 -0.477,3.176 -1.277,5.969 -2.442,8.266 -1.16,2.312 -2.644,4.051 -4.48,5.34 -1.914,1.258 -4.238,1.914 -7.031,1.914 -4.211,0 -7.559,-1.582 -10.078,-4.785 -2.52,-3.172 -3.731,-7.715 -3.731,-13.535 0,-2.618 0.32,-5.008 0.926,-7.161 0.637,-2.136 1.437,-4.05 2.598,-5.562 1.086,-1.516 2.394,-2.727 3.957,-3.574 1.484,-0.891 3.203,-1.371 5.039,-1.371 2.246,0 4.16,0.558 5.644,1.742 1.434,1.129 2.598,2.644 3.406,4.461 v 0 l 0.149,-0.078 v 0 c -0.078,-2.469 -0.274,-4.942 -0.684,-7.305 -0.402,-2.473 -1.086,-4.641 -1.984,-6.524 -0.938,-1.925 -2.168,-3.425 -3.602,-4.636 -1.445,-1.196 -3.281,-1.821 -5.371,-1.821 -1.593,0 -3,0.227 -4.308,0.782 -1.289,0.48 -2.371,1.039 -3.25,1.593 v 0 l -0.43,-7.39 v 0" /><path
         id="path40"
         style="fill:#ffffff;fill-opacity:1;fill-rule:nonzero;stroke:none"
         d="m 471.699,252.402 h 7.356 v 9.629 h -7.356 v -9.629 0" /><path
         id="path42"
         style="fill:#ffffff;fill-opacity:1;fill-rule:nonzero;stroke:none"
         d="m 492.336,252.402 h 7.207 v 55.536 h -6.328 l -10.637,-11.29 3.555,-5.964 6.203,7.402 v -45.684 0" /><path
         id="path44"
         style="fill:#ffffff;fill-opacity:1;fill-rule:nonzero;stroke:none"
         d="m 505.52,253.984 c 1.277,-0.546 2.793,-1.132 4.558,-1.504 1.711,-0.46 3.606,-0.714 5.598,-0.714 5.039,0 8.914,1.742 11.64,5.168 2.715,3.504 4.082,8.195 4.082,14.168 v 0 0 0 c 0,2.699 -0.351,5.168 -1.035,7.226 -0.734,2.172 -1.691,3.906 -2.851,5.344 -1.153,1.433 -2.59,2.469 -4.153,3.176 -1.64,0.73 -3.328,1.113 -5.117,1.113 -1.082,0 -2.09,-0.078 -2.996,-0.227 -0.937,-0.078 -1.769,-0.332 -2.375,-0.554 v 0 14.011 h 16.281 v 6.747 h -22.961 v -28.321 0 c 1.164,0.403 2.395,0.781 3.606,1.184 1.238,0.398 2.676,0.554 4.238,0.554 3.27,0 5.723,-1.035 7.403,-3.027 1.64,-1.988 2.468,-4.687 2.468,-7.957 0,-3.406 -0.828,-6.199 -2.519,-8.34 -1.707,-2.246 -4.032,-3.359 -6.953,-3.359 -1.707,0 -3.27,0.332 -4.688,0.887 -1.433,0.558 -2.742,1.183 -3.828,1.914 v 0 l -0.398,-7.489 v 0" /><path
         id="path46"
         style="fill:#ffffff;fill-opacity:1;fill-rule:nonzero;stroke:none"
         d="m 564.609,252.402 h 7.082 v 24.192 c 0,3.172 0.555,5.719 1.707,7.554 1.086,1.821 2.723,2.7 4.973,2.7 1.836,0 3.145,-0.707 4.031,-2.141 0.801,-1.437 1.211,-3.75 1.211,-6.934 v 0 -25.371 h 7.082 v 27.293 0 c 0,4.309 -0.812,7.707 -2.453,10.254 -1.629,2.539 -4.207,3.828 -7.754,3.828 -2.324,0 -4.16,-0.625 -5.449,-1.836 -1.355,-1.257 -2.441,-2.625 -3.203,-4.136 v 0 h -0.145 v 24.293 h -7.082 v -59.696 0" /><path
         id="path48"
         style="fill:#ffffff;fill-opacity:1;fill-rule:nonzero;stroke:none"
         d="m 65.2188,163.418 h 7.082 v 21.973 c 0,2.07 0.1992,3.836 0.6055,5.339 0.4296,1.516 0.957,2.708 1.6367,3.665 0.6836,0.878 1.5117,1.582 2.3945,2.058 0.8789,0.41 1.7656,0.656 2.8008,0.656 0.3984,0 0.8047,0 1.1562,-0.097 0.3282,-0.078 0.7305,-0.149 1.0821,-0.227 v 0 7.961 0 c -0.1485,0 -0.2774,0 -0.3516,0.078 -0.0508,0 -0.2031,0 -0.3242,0 -1.3164,0 -2.4727,-0.156 -3.4844,-0.558 -1.0273,-0.399 -1.8359,-0.957 -2.5898,-1.661 -0.7578,-0.73 -1.4375,-1.511 -1.9688,-2.39 -0.5508,-0.891 -1.0312,-1.848 -1.3594,-2.871 v 0 h -0.1523 v 0 c 0,0.324 0,0.801 0,1.433 -0.0508,0.625 -0.0508,1.36 -0.125,2.063 -0.0781,0.73 -0.0781,1.367 -0.0781,1.992 -0.0469,0.637 -0.0469,1.113 -0.0469,1.434 v 0 h -6.5547 v 0 c 0.0781,-1.18 0.1524,-2.469 0.1992,-3.75 0.0782,-1.336 0.0782,-2.696 0.0782,-4.063 v 0 -33.035 0" /><path
         id="path50"
         style="fill:#ffffff;fill-opacity:1;fill-rule:nonzero;stroke:none"
         d="m 88.8828,211.902 h 5.9961 v 8.371 h -5.9961 v -8.371 0" /><path
         id="path52"
         style="fill:#ffffff;fill-opacity:1;fill-rule:nonzero;stroke:none"
         d="m 100.043,211.902 h 6.004 v 8.371 h -6.004 v -8.371 0" /><path
         id="path54"
         style="fill:#ffffff;fill-opacity:1;fill-rule:nonzero;stroke:none"
         d="m 86.9688,167.805 c 1.3085,-1.664 2.871,-2.953 4.7109,-3.735 1.7617,-0.8 3.6758,-1.211 5.7187,-1.211 2.0391,0 3.9606,0.411 5.7966,1.211 1.766,0.782 3.328,2.071 4.614,3.735 1.308,1.687 2.39,3.828 3.148,6.453 0.734,2.617 1.156,5.898 1.156,9.629 v 0 0 0 c 0,3.672 -0.422,6.843 -1.156,9.472 -0.758,2.618 -1.84,4.864 -3.148,6.524 -1.286,1.687 -2.848,2.949 -4.614,3.758 -1.836,0.785 -3.7575,1.183 -5.7966,1.183 -2.0429,0 -3.957,-0.398 -5.7187,-1.183 -1.8399,-0.809 -3.4024,-2.071 -4.7109,-3.758 -1.2852,-1.66 -2.3672,-3.906 -3.125,-6.524 -0.7579,-2.629 -1.1641,-5.8 -1.1641,-9.472 0,-3.731 0.4062,-7.012 1.1641,-9.629 0.7578,-2.625 1.8398,-4.766 3.125,-6.453 v 0" /><path
         id="path56"
         style="fill:#ffffff;fill-opacity:1;fill-rule:nonzero;stroke:none"
         d="m 117.281,163.418 h 7.086 v 25 c 0,3.027 0.551,5.344 1.563,7.004 1.027,1.687 2.59,2.469 4.558,2.469 3.278,0 4.914,-2.539 4.914,-7.559 v 0 -26.914 h 7.078 v 25 0 c 0,3.027 0.532,5.344 1.563,7.004 1.012,1.687 2.598,2.469 4.562,2.469 3.274,0 4.891,-2.539 4.891,-7.559 v 0 -26.914 h 7.106 v 26.766 0 c 0,4.757 -0.832,8.441 -2.473,10.91 -1.684,2.441 -4.207,3.73 -7.606,3.73 -2.269,0 -4.113,-0.636 -5.523,-1.914 -1.434,-1.34 -2.52,-2.851 -3.398,-4.543 -0.352,0.813 -0.758,1.594 -1.235,2.395 -0.48,0.711 -1.086,1.445 -1.762,2.07 -0.683,0.555 -1.515,1.035 -2.398,1.434 -0.879,0.402 -1.965,0.558 -3.125,0.558 -2.191,0 -3.957,-0.636 -5.391,-1.914 -1.41,-1.34 -2.574,-2.949 -3.324,-4.941 v 0 h -0.129 v 0 c 0,0.254 0,0.73 0,1.355 -0.078,0.559 -0.078,1.192 -0.078,1.848 -0.074,0.625 -0.074,1.258 -0.074,1.816 -0.078,0.547 -0.078,1.024 -0.078,1.278 v 0 h -7 v 0 c 0.074,-1.102 0.152,-2.313 0.199,-3.575 0.074,-1.289 0.074,-2.625 0.074,-4.128 v 0 -33.145 0" /><path
         id="path58"
         style="fill:#ffffff;fill-opacity:1;fill-rule:nonzero;stroke:none"
         d="m 167.379,163.418 h 7.359 v 9.656 h -7.359 v -9.656 0" /><path
         id="path60"
         style="fill:#ffffff;fill-opacity:1;fill-rule:nonzero;stroke:none"
         d="m 209.742,163.418 h 7.078 v 20.234 h 0.153 l 11.644,-20.234 h 8.438 l -14.16,22.449 12.929,18.399 h -7.812 L 216.82,187.715 v 35.43 h -7.078 v -59.727 0" /><path
         id="path62"
         style="fill:#ffffff;fill-opacity:1;fill-rule:nonzero;stroke:none"
         d="m 261.074,163.418 h 6.403 v 0 c -0.079,0.73 -0.207,1.766 -0.278,2.949 -0.051,1.211 -0.129,2.473 -0.129,3.828 v 0 19.512 0 c 0,2.695 -0.199,4.93 -0.679,6.68 -0.477,1.758 -1.235,3.191 -2.118,4.375 -0.757,1.035 -1.964,1.992 -3.605,2.879 -1.633,0.785 -3.754,1.183 -6.398,1.183 -2.243,0 -4.235,-0.332 -5.918,-0.957 -1.715,-0.637 -3.278,-1.355 -4.567,-2.219 v 0 l 0.531,-7.078 v 0 c 0.911,1.028 2.192,1.993 3.883,2.84 1.637,0.813 3.422,1.215 5.391,1.215 2.519,0 4.281,-0.805 5.367,-2.395 0.555,-0.808 0.957,-1.66 1.16,-2.617 0.199,-1.035 0.278,-2.168 0.278,-3.429 v 0 -1.688 h -2.524 v 0 c -5.644,0 -10,-1.113 -12.926,-3.254 -2.922,-2.215 -4.433,-5.722 -4.433,-10.508 0,-1.914 0.273,-3.582 0.832,-5.086 0.527,-1.511 1.285,-2.722 2.242,-3.761 0.883,-1.035 1.965,-1.739 3.203,-2.215 1.203,-0.559 2.52,-0.813 3.93,-0.813 2.594,0 4.633,0.664 6.195,1.926 1.516,1.199 2.727,2.617 3.629,4.227 v 0 h 0.125 v 0 c 0,-0.25 0,-0.653 0.078,-1.207 0,-0.559 0,-1.106 0.051,-1.664 0.078,-0.555 0.078,-1.114 0.152,-1.59 0.047,-0.547 0.047,-0.879 0.125,-1.133 v 0" /><path
         id="path64"
         style="fill:#ffffff;fill-opacity:1;fill-rule:nonzero;stroke:none"
         d="m 291.09,164.07 v 6.203 c -0.481,-0.222 -0.961,-0.476 -1.488,-0.625 -0.555,-0.253 -1.161,-0.332 -1.914,-0.332 -1.286,0 -2.196,0.481 -2.801,1.36 -0.606,0.887 -0.883,2.398 -0.883,4.617 v 0 22.598 h 7.086 v 6.375 h -7.086 v 10.839 l -7.078,-2.468 v -8.371 h -5.598 v -6.375 h 5.598 v -24.266 0 c 0,-3.906 0.754,-6.699 2.316,-8.293 1.563,-1.66 3.731,-2.473 6.602,-2.473 1.011,0 2.043,0.11 2.926,0.332 0.878,0.332 1.714,0.559 2.32,0.879 v 0" /><path
         id="path66"
         style="fill:#ffffff;fill-opacity:1;fill-rule:nonzero;stroke:none"
         d="m 296.379,163.418 h 7.082 v 24.219 c 0,3.172 0.527,5.722 1.687,7.558 1.082,1.817 2.723,2.696 4.965,2.696 1.84,0 3.149,-0.703 4.032,-2.137 0.808,-1.438 1.21,-3.762 1.21,-6.938 v 0 -25.398 h 7.106 v 27.312 0 c 0,4.321 -0.828,7.715 -2.469,10.266 -1.637,2.539 -4.211,3.828 -7.762,3.828 -2.316,0 -4.16,-0.636 -5.441,-1.836 -1.363,-1.261 -2.449,-2.629 -3.203,-4.14 v 0 h -0.125 v 24.297 h -7.082 v -59.727 0" /><path
         id="path68"
         style="fill:#ffffff;fill-opacity:1;fill-rule:nonzero;stroke:none"
         d="m 326.82,163.418 h 7.313 v 9.656 h -7.313 v -9.656 0" /><path
         id="path70"
         style="fill:#ffffff;fill-opacity:1;fill-rule:nonzero;stroke:none"
         d="m 426.164,164.551 c 0.957,-0.403 2.109,-0.801 3.543,-1.211 1.414,-0.371 3.008,-0.547 4.816,-0.547 3.36,0 6.153,0.73 8.465,2.234 2.246,1.516 4.141,3.586 5.578,6.282 1.434,2.722 2.442,5.964 3.075,9.804 0.597,3.731 0.957,7.957 0.957,12.567 v 0 0 0 c 0,3.808 -0.282,7.316 -0.762,10.508 -0.477,3.187 -1.309,5.98 -2.441,8.273 -1.161,2.312 -2.676,4.051 -4.512,5.344 -1.895,1.258 -4.207,1.914 -7,1.914 -4.238,0 -7.57,-1.594 -10.09,-4.789 -2.52,-3.172 -3.75,-7.711 -3.75,-13.535 0,-2.618 0.352,-5.008 0.957,-7.157 0.625,-2.14 1.438,-4.054 2.598,-5.566 1.086,-1.516 2.363,-2.727 3.957,-3.582 1.484,-0.879 3.203,-1.36 5.039,-1.36 2.246,0 4.129,0.555 5.644,1.739 1.434,1.133 2.598,2.644 3.399,4.461 v 0 l 0.125,-0.078 v 0 c -0.047,-2.469 -0.254,-4.942 -0.672,-7.301 -0.41,-2.473 -1.086,-4.641 -1.973,-6.535 -0.957,-1.914 -2.187,-3.418 -3.605,-4.629 -1.434,-1.192 -3.27,-1.817 -5.391,-1.817 -1.562,0 -3,0.227 -4.285,0.782 -1.281,0.476 -2.395,1.035 -3.273,1.582 v 0 l -0.399,-7.383 v 0" /><path
         id="path72"
         style="fill:#ffffff;fill-opacity:1;fill-rule:nonzero;stroke:none"
         d="m 458.313,163.418 h 7.363 v 9.656 h -7.363 v -9.656 0" /><path
         id="path74"
         style="fill:#ffffff;fill-opacity:1;fill-rule:nonzero;stroke:none"
         d="m 470.461,165.027 c 1.434,-0.547 3.074,-1.132 4.91,-1.504 1.848,-0.476 3.731,-0.73 5.774,-0.73 2.39,0 4.558,0.398 6.55,1.102 1.965,0.812 3.606,1.914 5.039,3.285 1.438,1.433 2.52,3.172 3.254,5.164 0.758,1.992 1.16,4.226 1.16,6.777 v 0 0 0 c 0,2.059 -0.253,3.906 -0.73,5.488 -0.559,1.59 -1.23,2.852 -2.121,3.985 -0.879,1.113 -1.914,1.992 -3.074,2.629 -1.153,0.625 -2.364,1.101 -3.672,1.355 v 0 0.145 0 c 1.035,0.238 2.039,0.636 3.144,1.195 1.016,0.547 2.039,1.355 2.926,2.391 0.883,1.035 1.567,2.316 2.113,3.906 0.536,1.512 0.809,3.32 0.809,5.566 0,2.219 -0.332,4.309 -1.004,6.043 -0.762,1.739 -1.719,3.176 -2.949,4.387 -1.211,1.191 -2.649,2.07 -4.367,2.629 -1.688,0.547 -3.446,0.879 -5.438,0.879 -2.316,0 -4.355,-0.254 -6.125,-0.656 -1.836,-0.477 -3.398,-1.036 -4.765,-1.661 v 0 l 0.476,-7.566 v 0 c 1.438,0.887 3,1.59 4.563,2.144 1.562,0.559 3.058,0.801 4.367,0.801 2.234,0 4.16,-0.722 5.722,-2.136 1.563,-1.434 2.313,-3.508 2.313,-6.153 0,-1.66 -0.273,-3.019 -0.828,-4.133 -0.528,-1.179 -1.289,-2.058 -2.246,-2.871 -1.008,-0.703 -2.168,-1.258 -3.528,-1.59 -1.367,-0.398 -2.871,-0.546 -4.433,-0.546 v 0 h -1.973 v -6.68 0 c 0.41,0 0.938,0 1.621,0.078 0.625,0 1.438,0 2.395,0 2.84,0 5.117,-0.812 6.726,-2.324 1.633,-1.516 2.473,-3.731 2.473,-6.524 0,-1.738 -0.285,-3.254 -0.762,-4.543 -0.48,-1.257 -1.164,-2.285 -1.965,-3.093 -0.878,-0.879 -1.836,-1.512 -2.949,-1.914 -1.133,-0.379 -2.293,-0.633 -3.601,-0.633 -1.836,0 -3.528,0.332 -5.09,0.957 -1.59,0.554 -2.996,1.258 -4.238,1.992 v 0 l -0.477,-7.641 v 0" /><path
         id="path76"
         style="fill:#ffffff;fill-opacity:1;fill-rule:nonzero;stroke:none"
         d="m 505.344,170.906 c 1.152,-2.547 2.636,-4.539 4.48,-5.945 1.836,-1.438 4.035,-2.168 6.68,-2.168 2.648,0 4.914,0.73 6.75,2.234 1.816,1.438 3.328,3.411 4.492,5.981 1.152,2.547 1.961,5.562 2.442,8.992 0.476,3.406 0.75,7.156 0.75,11.223 v 0 0 0 c 0,4.05 -0.274,7.781 -0.75,11.289 -0.481,3.418 -1.29,6.441 -2.442,8.992 -1.164,2.539 -2.676,4.531 -4.492,6.047 -1.836,1.433 -4.102,2.168 -6.75,2.168 -2.645,0 -4.922,-0.735 -6.758,-2.168 -1.816,-1.516 -3.25,-3.508 -4.402,-6.047 -1.164,-2.551 -1.992,-5.574 -2.453,-8.992 -0.477,-3.508 -0.75,-7.239 -0.75,-11.289 0,-4.067 0.273,-7.817 0.75,-11.223 0.461,-3.508 1.289,-6.555 2.453,-9.094 v 0" /><path
         id="path78"
         style="fill:#ffffff;fill-opacity:1;fill-rule:nonzero;stroke:none"
         d="m 564.688,163.418 h 7.082 v 24.219 c 0,3.172 0.527,5.722 1.687,7.558 1.086,1.817 2.715,2.696 4.961,2.696 1.836,0 3.156,-0.703 4.035,-2.137 0.801,-1.438 1.211,-3.762 1.211,-6.938 v 0 -25.398 h 7.078 v 27.312 0 c 0,4.321 -0.808,7.715 -2.449,10.266 -1.633,2.539 -4.199,3.828 -7.754,3.828 -2.324,0 -4.16,-0.636 -5.449,-1.836 -1.36,-1.261 -2.442,-2.629 -3.195,-4.14 v 0 h -0.125 v 24.297 h -7.082 v -59.727 0" /><path
         id="path80"
         style="fill:#ffffff;fill-opacity:1;fill-rule:nonzero;stroke:none"
         d="m 88.9063,75.5742 -0.4297,7.0039 v 0 c -0.75,-0.5586 -1.7852,-1.0351 -2.9453,-1.4375 -1.1602,-0.3984 -2.3946,-0.6328 -3.5782,-0.6328 -3.0742,0 -5.4179,1.2578 -7.0547,3.8086 -1.7148,2.5469 -2.5507,5.9766 -2.5507,10.2813 0,5.0117 0.8359,8.6723 2.4726,11.0663 1.6641,2.363 3.9844,3.574 7.0078,3.574 1.3086,0 2.4688,-0.144 3.5,-0.558 1.0352,-0.399 1.918,-0.797 2.8203,-1.356 v 0 l 0.3282,6.934 v 0 c -0.8789,0.398 -1.9141,0.781 -3.2227,1.101 -1.3125,0.332 -2.5976,0.481 -3.9062,0.481 -2.6719,0 -5.0938,-0.481 -7.1329,-1.516 -2.0664,-1.023 -3.7812,-2.539 -5.1367,-4.383 -1.3867,-1.914 -2.4218,-4.132 -3.1015,-6.75 -0.6836,-2.617 -1.0352,-5.4176 -1.0352,-8.5113 0,-2.8828 0.3516,-5.5781 0.957,-8.1172 0.6289,-2.5508 1.6641,-4.7969 2.9493,-6.6328 1.3086,-1.8164 2.9492,-3.3281 5.0156,-4.3555 1.9922,-1.1328 4.3828,-1.6875 7.1328,-1.6875 1.5078,0 2.9453,0.1758 4.4102,0.4766 1.4335,0.4023 2.5898,0.8047 3.5,1.2109 v 0" /><path
         id="path82"
         style="fill:#ffffff;fill-opacity:1;fill-rule:nonzero;stroke:none"
         d="m 93.4688,74.4414 h 7.1332 v 24.2109 c 0,3.1837 0.55,5.7227 1.714,7.5707 1.106,1.804 2.743,2.695 5.012,2.695 1.867,0 3.152,-0.715 4.059,-2.152 0.804,-1.434 1.234,-3.75 1.234,-6.9222 v 0 -25.4024 h 7.129 v 27.3166 0 c 0,4.305 -0.828,7.707 -2.469,10.254 -1.636,2.547 -4.258,3.828 -7.808,3.828 -2.344,0 -4.207,-0.625 -5.496,-1.836 -1.383,-1.262 -2.469,-2.617 -3.223,-4.129 v 0 h -0.152 v 24.285 h -7.1332 v -59.7186 0" /><path
         id="path84"
         style="fill:#ffffff;fill-opacity:1;fill-rule:nonzero;stroke:none"
         d="m 126.887,74.4414 h 7.129 V 96.418 c 0,2.0586 0.203,3.824 0.605,5.34 0.43,1.512 0.957,2.695 1.664,3.652 0.68,0.879 1.508,1.594 2.391,2.07 0.887,0.403 1.793,0.657 2.824,0.657 0.406,0 0.805,0 1.16,-0.11 0.328,-0.066 0.754,-0.144 1.082,-0.222 v 0 7.965 0 c -0.125,0 -0.25,0 -0.328,0.07 -0.074,0 -0.199,0 -0.351,0 -1.309,0 -2.473,-0.149 -3.5,-0.547 -1.036,-0.41 -1.844,-0.969 -2.598,-1.668 -0.758,-0.734 -1.438,-1.516 -1.992,-2.395 -0.555,-0.878 -1.032,-1.835 -1.383,-2.871 v 0 h -0.129 v 0 c 0,0.321 0,0.801 0,1.438 -0.078,0.625 -0.078,1.355 -0.125,2.066 -0.078,0.727 -0.078,1.36 -0.078,1.985 -0.074,0.632 -0.074,1.113 -0.074,1.445 v 0 h -6.579 v 0 c 0.051,-1.191 0.129,-2.473 0.204,-3.762 0.078,-1.336 0.078,-2.691 0.078,-4.051 v 0 -33.0386 0" /><path
         id="path86"
         style="fill:#ffffff;fill-opacity:1;fill-rule:nonzero;stroke:none"
         d="m 147.168,74.4414 h 7.16 v 40.8516 h -7.16 v -40.8516 0" /><path
         id="path88"
         style="fill:#ffffff;fill-opacity:1;fill-rule:nonzero;stroke:none"
         d="m 146.969,123.477 h 7.558 v 8.847 h -7.558 v -8.847 0" /><path
         id="path90"
         style="fill:#ffffff;fill-opacity:1;fill-rule:nonzero;stroke:none"
         d="m 160.449,76.0547 c 1.086,-0.5547 2.473,-1.1328 4.184,-1.5117 1.637,-0.4024 3.504,-0.6563 5.496,-0.6563 3.976,0 6.98,1.1328 9.117,3.4258 2.067,2.3164 3.078,5.2656 3.078,8.918 v 0 0 0 c 0,2.4687 -0.605,4.4609 -1.761,5.9765 -1.235,1.5157 -2.903,3.0157 -5.016,4.3868 v 0 l -3.102,1.9921 v 0 c -1.562,1.0235 -2.746,1.8831 -3.625,2.7691 -0.886,0.801 -1.316,1.915 -1.316,3.274 0,1.434 0.43,2.617 1.316,3.508 0.879,0.847 2.192,1.258 3.977,1.258 1.437,0 2.824,-0.157 3.98,-0.477 1.164,-0.41 2.27,-0.781 3.227,-1.262 v 0 l 0.328,6.668 v 0 c -0.758,0.332 -1.762,0.637 -3.148,1.035 -1.438,0.332 -3.079,0.481 -4.942,0.481 -1.789,0 -3.351,-0.324 -4.808,-0.957 -1.438,-0.625 -2.672,-1.516 -3.707,-2.539 -1.008,-1.114 -1.84,-2.403 -2.395,-3.731 -0.555,-1.433 -0.836,-2.949 -0.836,-4.465 0,-1.433 0.231,-2.722 0.559,-3.828 0.351,-1.1091 0.832,-2.0661 1.437,-2.945 0.629,-0.8906 1.313,-1.5937 2.215,-2.2187 0.883,-0.7305 1.84,-1.3672 2.949,-1.9922 v 0 l 3.707,-2.1407 v 0 c 1.563,-0.8867 2.672,-1.8437 3.278,-2.8007 0.55,-0.9571 0.828,-1.9922 0.828,-3.0274 0,-1.582 -0.551,-2.793 -1.637,-3.5742 -1.105,-0.8789 -2.621,-1.2891 -4.461,-1.2891 -1.715,0 -3.375,0.3321 -4.816,1.0352 -1.434,0.6523 -2.668,1.2891 -3.7,1.8476 v 0 l -0.406,-7.1601 v 0" /><path
         id="path92"
         style="fill:#ffffff;fill-opacity:1;fill-rule:nonzero;stroke:none"
         d="m 206.641,75.0977 v 6.1914 c -0.477,-0.2266 -0.957,-0.4805 -1.508,-0.625 -0.531,-0.2539 -1.164,-0.3321 -1.918,-0.3321 -1.309,0 -2.195,0.4766 -2.801,1.3672 -0.629,0.8789 -0.902,2.3946 -0.902,4.6094 v 0 22.6094 h 7.129 v 6.375 h -7.129 v 10.832 l -7.133,-2.473 v -8.359 h -5.621 v -6.375 h 5.621 v -24.2696 0 c 0,-3.9062 0.758,-6.7109 2.344,-8.2929 1.562,-1.668 3.754,-2.4688 6.656,-2.4688 1.027,0 2.039,0.0977 2.941,0.3242 0.887,0.3321 1.715,0.5547 2.321,0.8868 v 0" /><path
         id="path94"
         style="fill:#ffffff;fill-opacity:1;fill-rule:nonzero;stroke:none"
         d="m 211.984,74.4414 h 7.133 v 20.2383 h 0.125 l 11.746,-20.2383 h 8.489 l -14.262,22.4531 13.027,18.3985 h -7.887 L 219.117,98.7305 V 134.16 h -7.133 v -59.7186 0" /><path
         id="path96"
         style="fill:#ffffff;fill-opacity:1;fill-rule:nonzero;stroke:none"
         d="m 263.695,74.4414 h 6.453 v 0 c -0.078,0.7266 -0.203,1.7578 -0.281,2.9414 -0.07,1.211 -0.125,2.4688 -0.125,3.8399 v 0 19.5003 0 c 0,2.695 -0.226,4.941 -0.703,6.679 -0.48,1.758 -1.234,3.203 -2.121,4.383 -0.754,1.035 -1.992,1.992 -3.625,2.871 -1.668,0.782 -3.781,1.184 -6.453,1.184 -2.27,0 -4.258,-0.324 -5.969,-0.957 -1.715,-0.625 -3.301,-1.36 -4.617,-2.215 v 0 l 0.559,-7.082 v 0 c 0.906,1.035 2.191,1.992 3.906,2.852 1.66,0.8 3.453,1.199 5.414,1.199 2.551,0 4.336,-0.797 5.445,-2.391 0.527,-0.801 0.957,-1.66 1.156,-2.617 0.207,-1.035 0.278,-2.168 0.278,-3.43 v 0 -1.6873 h -2.543 v 0 c -5.692,0 -10.078,-1.1054 -13.028,-3.25 -2.949,-2.2187 -4.461,-5.7265 -4.461,-10.5078 0,-1.9141 0.278,-3.5742 0.805,-5.0898 0.555,-1.5157 1.313,-2.7266 2.27,-3.7618 0.91,-1.0234 1.992,-1.7343 3.226,-2.2148 1.231,-0.5469 2.547,-0.8008 3.981,-0.8008 2.621,0 4.664,0.6563 6.25,1.9141 1.515,1.2109 2.746,2.6172 3.629,4.2265 v 0 h 0.152 v 0 c 0,-0.2421 0,-0.6523 0.047,-1.1992 0,-0.5586 0,-1.1133 0.078,-1.6718 0.074,-0.5547 0.074,-1.1016 0.152,-1.5821 0.047,-0.5547 0.047,-0.8867 0.125,-1.1328 v 0" /><path
         id="path98"
         style="fill:#ffffff;fill-opacity:1;fill-rule:nonzero;stroke:none"
         d="m 293.938,75.0977 v 6.1914 c -0.481,-0.2266 -0.958,-0.4805 -1.516,-0.625 -0.551,-0.2539 -1.156,-0.3321 -1.914,-0.3321 -1.313,0 -2.192,0.4766 -2.82,1.3672 -0.606,0.8789 -0.887,2.3946 -0.887,4.6094 v 0 22.6094 h 7.137 v 6.375 h -7.137 v 10.832 l -7.129,-2.473 v -8.359 h -5.645 v -6.375 h 5.645 v -24.2696 0 c 0,-3.9062 0.754,-6.7109 2.316,-8.2929 1.59,-1.668 3.785,-2.4688 6.657,-2.4688 1.035,0 2.062,0.0977 2.949,0.3242 0.906,0.3321 1.738,0.5547 2.344,0.8868 v 0" /><path
         id="path100"
         style="fill:#ffffff;fill-opacity:1;fill-rule:nonzero;stroke:none"
         d="m 299.254,74.4414 h 7.129 v 24.2109 c 0,3.1837 0.555,5.7227 1.715,7.5707 1.105,1.804 2.746,2.695 5.011,2.695 1.868,0 3.18,-0.715 4.059,-2.152 0.828,-1.434 1.234,-3.75 1.234,-6.9222 v 0 -25.4024 h 7.137 v 27.3166 0 c 0,4.305 -0.836,7.707 -2.473,10.254 -1.64,2.547 -4.257,3.828 -7.812,3.828 -2.344,0 -4.184,-0.625 -5.492,-1.836 -1.387,-1.262 -2.473,-2.617 -3.227,-4.129 v 0 h -0.152 v 24.285 h -7.129 v -59.7186 0" /><path
         id="path102"
         style="fill:#ffffff;fill-opacity:1;fill-rule:nonzero;stroke:none"
         d="m 329.895,74.4414 h 7.429 v 9.6524 h -7.429 v -9.6524 0" /><path
         id="path104"
         style="fill:#ffffff;fill-opacity:1;fill-rule:nonzero;stroke:none"
         d="m 424.902,75.5742 c 0.957,-0.4062 2.141,-0.8086 3.575,-1.2109 1.437,-0.3789 3.027,-0.5547 4.863,-0.5547 3.351,0 6.172,0.7344 8.515,2.2461 2.278,1.5117 4.192,3.5742 5.625,6.2695 1.438,2.7266 2.473,5.9766 3.079,9.8047 0.625,3.7305 0.976,7.9611 0.976,12.5781 v 0 0 0 c 0,3.801 -0.273,7.305 -0.754,10.508 -0.476,3.172 -1.308,5.965 -2.468,8.262 -1.184,2.324 -2.696,4.062 -4.543,5.339 -1.915,1.262 -4.258,1.914 -7.079,1.914 -4.23,0 -7.609,-1.582 -10.156,-4.785 -2.519,-3.172 -3.75,-7.715 -3.75,-13.535 0,-2.613 0.32,-5.008 0.957,-7.148 0.606,-2.149 1.434,-4.063 2.598,-5.5745 1.101,-1.5117 2.41,-2.7148 3.973,-3.5742 1.515,-0.8906 3.234,-1.3672 5.097,-1.3672 2.266,0 4.18,0.5586 5.695,1.7383 1.434,1.1445 2.598,2.6484 3.426,4.4606 v 0 l 0.129,-0.078 v 0 c -0.051,-2.4607 -0.285,-4.9295 -0.683,-7.3045 -0.403,-2.4687 -1.086,-4.6367 -1.993,-6.5195 -0.957,-1.9141 -2.187,-3.4297 -3.625,-4.6407 -1.433,-1.1796 -3.3,-1.8164 -5.418,-1.8164 -1.593,0 -3.027,0.2227 -4.336,0.7813 -1.308,0.4805 -2.394,1.0351 -3.3,1.5937 v 0 l -0.403,-7.3867 v 0" /><path
         id="path106"
         style="fill:#ffffff;fill-opacity:1;fill-rule:nonzero;stroke:none"
         d="m 457.285,74.4414 h 7.434 v 9.6524 h -7.434 v -9.6524 0" /><path
         id="path108"
         style="fill:#ffffff;fill-opacity:1;fill-rule:nonzero;stroke:none"
         d="m 469.551,76.0547 c 1.437,-0.5547 3.078,-1.1328 4.941,-1.5117 1.836,-0.4805 3.75,-0.7344 5.821,-0.7344 2.394,0 4.609,0.4023 6.601,1.1133 1.992,0.8008 3.633,1.914 5.07,3.2695 1.434,1.4375 2.539,3.1758 3.301,5.168 0.75,1.9922 1.16,4.2383 1.16,6.7773 v 0 0 0 c 0,2.0703 -0.281,3.9063 -0.761,5.5 -0.555,1.5821 -1.231,2.8399 -2.118,3.9727 -0.898,1.1136 -1.933,1.9926 -3.097,2.6246 -1.16,0.625 -2.391,1.106 -3.699,1.36 v 0 0.156 0 c 1.035,0.223 2.058,0.625 3.144,1.18 1.035,0.558 2.07,1.359 2.949,2.394 0.907,1.035 1.59,2.313 2.149,3.906 0.547,1.512 0.828,3.329 0.828,5.567 0,2.215 -0.352,4.316 -1.035,6.055 -0.762,1.738 -1.719,3.171 -2.95,4.382 -1.23,1.184 -2.695,2.063 -4.414,2.618 -1.707,0.558 -3.496,0.878 -5.468,0.878 -2.344,0 -4.403,-0.242 -6.192,-0.652 -1.843,-0.48 -3.426,-1.035 -4.793,-1.66 v 0 l 0.477,-7.559 v 0 c 1.437,0.879 3.027,1.582 4.59,2.141 1.593,0.555 3.097,0.809 4.414,0.809 2.238,0 4.179,-0.735 5.742,-2.149 1.594,-1.437 2.344,-3.496 2.344,-6.144 0,-1.668 -0.274,-3.028 -0.828,-4.129 -0.559,-1.192 -1.289,-2.071 -2.266,-2.879 -1.016,-0.703 -2.199,-1.262 -3.555,-1.582 -1.386,-0.403 -2.902,-0.559 -4.465,-0.559 v 0 h -1.992 v -6.6795 0 c 0.403,0 0.957,0 1.641,0.0781 0.625,0 1.437,0 2.422,0 2.871,0 5.136,-0.8125 6.777,-2.3164 1.633,-1.5117 2.473,-3.7265 2.473,-6.5312 0,-1.7383 -0.285,-3.25 -0.766,-4.5313 -0.476,-1.2578 -1.16,-2.2929 -1.988,-3.1054 -0.879,-0.879 -1.836,-1.5157 -2.949,-1.9141 -1.153,-0.3711 -2.317,-0.625 -3.625,-0.625 -1.864,0 -3.582,0.3203 -5.145,0.957 -1.582,0.5586 -3.019,1.2617 -4.258,1.9922 v 0 l -0.48,-7.6367 v 0" /><path
         id="path110"
         style="fill:#ffffff;fill-opacity:1;fill-rule:nonzero;stroke:none"
         d="m 504.68,81.9258 c 1.16,-2.5508 2.675,-4.543 4.539,-5.9492 1.836,-1.4336 4.035,-2.168 6.73,-2.168 2.664,0 4.942,0.7344 6.778,2.2461 1.863,1.4336 3.378,3.3984 4.539,5.9648 1.152,2.5508 1.98,5.5782 2.461,9.0039 0.48,3.4024 0.761,7.1524 0.761,11.2106 v 0 0 0 c 0,4.055 -0.281,7.786 -0.761,11.289 -0.481,3.43 -1.309,6.45 -2.461,8.997 -1.161,2.546 -2.676,4.539 -4.539,6.043 -1.836,1.449 -4.114,2.167 -6.778,2.167 -2.695,0 -4.941,-0.718 -6.808,-2.167 -1.864,-1.504 -3.301,-3.497 -4.461,-6.043 -1.153,-2.547 -1.985,-5.567 -2.461,-8.997 -0.481,-3.503 -0.762,-7.234 -0.762,-11.289 0,-4.0582 0.281,-7.8082 0.762,-11.2106 0.476,-3.5039 1.308,-6.5507 2.461,-9.0976 v 0" /><path
         id="path112"
         style="fill:#ffffff;fill-opacity:1;fill-rule:nonzero;stroke:none"
         d="m 564.484,74.4414 h 7.129 v 24.2109 c 0,3.1837 0.555,5.7227 1.719,7.5707 1.102,1.804 2.742,2.695 5.008,2.695 1.848,0 3.156,-0.715 4.062,-2.152 0.801,-1.434 1.231,-3.75 1.231,-6.9222 v 0 -25.4024 h 7.129 v 27.3166 0 c 0,4.305 -0.828,7.707 -2.469,10.254 -1.66,2.547 -4.258,3.828 -7.832,3.828 -2.316,0 -4.18,-0.625 -5.5,-1.836 -1.356,-1.262 -2.461,-2.617 -3.223,-4.129 v 0 h -0.125 v 24.285 h -7.129 v -59.7186 0" /><path
         id="path114"
         style="fill:#1a67bb;fill-opacity:1;fill-rule:nonzero;stroke:none"
         d="m 208.508,608.102 c 10.558,-1.188 22.152,-2.344 31.523,-7.032 8.215,-3.531 15.246,-10.562 21.09,-17.59 4.692,-8.089 7.035,-17.464 7.035,-26.839 0,-8.188 -2.343,-17.563 -7.035,-24.594 -4.683,-8.215 -11.715,-15.246 -19.906,-19.934 -9.375,-4.687 -20.988,-5.847 -31.524,-5.847 -7.031,0 -15.246,1.16 -22.277,2.343 -11.715,3.504 -22.254,9.375 -30.465,18.75 -5.851,8.188 -9.375,18.75 -9.375,30.469 -1.164,8.188 1.18,17.563 5.867,24.594 4.688,9.273 14.063,16.305 23.438,19.805 9.375,4.687 21.094,5.875 31.629,5.875 v 0" /><path
         id="path116"
         style="fill:#1a67bb;fill-opacity:1;fill-rule:nonzero;stroke:none"
         d="m 72.0234,276.113 c 0.0782,3.731 0.6836,6.68 1.8399,8.75 1.1601,1.985 2.7969,3.02 4.8398,3.02 4.2305,0 6.3516,-3.879 6.3516,-11.77 v 0 H 72.0234 v 0" /><path
         id="path118"
         style="fill:#1a67bb;fill-opacity:1;fill-rule:nonzero;stroke:none"
         d="m 145.332,272.363 v -3.664 c 0,-3.238 -0.605,-5.886 -1.84,-7.879 -1.285,-2.07 -3.125,-3.105 -5.644,-3.105 -1.84,0 -3.203,0.633 -4.16,1.844 -0.958,1.183 -1.438,2.843 -1.438,4.836 0,2.722 0.91,4.714 2.75,6.074 1.836,1.336 4.484,1.961 7.961,1.961 0.402,0 0.809,0 1.285,0 0.481,0 0.883,0 1.086,-0.067 v 0" /><path
         id="path120"
         style="fill:#1a67bb;fill-opacity:1;fill-rule:nonzero;stroke:none"
         d="m 198.652,262.031 c -1.156,2.285 -1.761,5.969 -1.761,10.985 0,4.687 0.527,8.183 1.636,10.656 1.008,2.391 2.797,3.586 5.243,3.652 2.32,0 4.082,-1.183 5.367,-3.574 1.234,-2.395 1.84,-5.977 1.84,-10.664 v 0 0 0 c 0,-4.934 -0.606,-8.582 -1.762,-10.988 -1.164,-2.461 -3.078,-3.653 -5.723,-3.653 -2.043,0 -3.676,1.192 -4.84,3.586 v 0" /><path
         id="path122"
         style="fill:#1a67bb;fill-opacity:1;fill-rule:nonzero;stroke:none"
         d="m 291.895,276.113 c 0.074,3.731 0.679,6.68 1.835,8.75 1.165,1.985 2.797,3.02 4.84,3.02 4.235,0 6.352,-3.879 6.352,-11.77 v 0 h -13.027 v 0" /><path
         id="path124"
         style="fill:#1a67bb;fill-opacity:1;fill-rule:nonzero;stroke:none"
         d="m 448.41,280.398 c -0.879,0.559 -1.562,1.438 -2.121,2.473 -0.547,1.035 -0.957,2.234 -1.23,3.574 -0.254,1.36 -0.399,2.727 -0.399,4.239 0,1.582 0.145,3.093 0.399,4.453 0.273,1.336 0.683,2.625 1.308,3.664 0.528,1.023 1.211,1.836 2.09,2.39 0.84,0.547 1.848,0.879 3,0.879 1.16,0 2.195,-0.332 3.074,-0.879 0.891,-0.554 1.563,-1.367 2.121,-2.39 0.528,-1.039 0.957,-2.328 1.211,-3.664 0.274,-1.36 0.43,-2.871 0.43,-4.453 v 0 0 0 c 0,-1.512 -0.156,-2.95 -0.43,-4.317 -0.254,-1.328 -0.683,-2.539 -1.211,-3.574 -0.625,-1.035 -1.308,-1.914 -2.187,-2.473 -0.891,-0.554 -1.848,-0.879 -3.008,-0.879 -1.152,0 -2.16,0.325 -3.047,0.957 v 0" /><path
         id="path126"
         style="fill:#1a67bb;fill-opacity:1;fill-rule:nonzero;stroke:none"
         d="m 91.6797,173.301 c -0.6055,1.355 -1.0352,2.871 -1.2344,4.707 -0.2773,1.816 -0.4062,3.73 -0.4062,5.879 0,2.168 0.1289,4.051 0.4062,5.886 0.1992,1.848 0.6289,3.364 1.2344,4.692 0.6055,1.289 1.3633,2.32 2.3203,3.023 0.8789,0.735 2.0391,1.137 3.3984,1.137 1.3633,0 2.5235,-0.402 3.4806,-1.137 0.879,-0.703 1.637,-1.734 2.242,-3.023 0.606,-1.328 1.004,-2.844 1.285,-4.692 0.199,-1.835 0.352,-3.718 0.352,-5.886 v 0 0 0 c 0,-2.149 -0.153,-4.063 -0.352,-5.879 -0.281,-1.836 -0.679,-3.352 -1.285,-4.707 -0.605,-1.367 -1.363,-2.395 -2.242,-3.106 -0.9571,-0.703 -2.1173,-1.101 -3.4806,-1.101 -1.3593,0 -2.5195,0.398 -3.3984,1.101 -0.957,0.711 -1.7148,1.739 -2.3203,3.106 v 0" /><path
         id="path128"
         style="fill:#1a67bb;fill-opacity:1;fill-rule:nonzero;stroke:none"
         d="m 260.395,183.406 v -3.66 c 0,-3.254 -0.606,-5.891 -1.84,-7.883 -1.285,-2.066 -3.125,-3.101 -5.645,-3.101 -1.84,0 -3.203,0.633 -4.16,1.843 -0.957,1.18 -1.434,2.84 -1.434,4.833 0,2.726 0.883,4.718 2.719,6.074 1.84,1.34 4.512,1.965 7.988,1.965 0.407,0 0.809,0 1.29,0 0.476,0 0.878,0 1.082,-0.071 v 0" /><path
         id="path130"
         style="fill:#1a67bb;fill-opacity:1;fill-rule:nonzero;stroke:none"
         d="m 435,191.445 c -0.879,0.547 -1.562,1.438 -2.09,2.473 -0.555,1.023 -0.957,2.234 -1.23,3.57 -0.282,1.36 -0.399,2.727 -0.399,4.239 0,1.582 0.117,3.097 0.399,4.453 0.273,1.34 0.675,2.629 1.281,3.656 0.555,1.031 1.238,1.844 2.117,2.398 0.832,0.547 1.848,0.879 3,0.879 1.16,0 2.168,-0.332 3.074,-0.879 0.879,-0.554 1.563,-1.367 2.09,-2.398 0.559,-1.027 0.957,-2.316 1.242,-3.656 0.274,-1.356 0.399,-2.871 0.399,-4.453 v 0 0 0 c 0,-1.512 -0.125,-2.95 -0.399,-4.317 -0.285,-1.324 -0.683,-2.535 -1.242,-3.57 -0.605,-1.035 -1.277,-1.914 -2.168,-2.473 -0.879,-0.558 -1.836,-0.879 -2.996,-0.879 -1.152,0 -2.168,0.321 -3.078,0.957 v 0" /><path
         id="path132"
         style="fill:#1a67bb;fill-opacity:1;fill-rule:nonzero;stroke:none"
         d="m 510.91,175.137 c -1.008,3.73 -1.562,9.148 -1.562,16.086 0,6.922 0.554,12.312 1.562,16.152 1.035,3.824 2.949,5.738 5.594,5.738 2.715,0 4.641,-1.914 5.644,-5.672 1.036,-3.8 1.563,-9.218 1.563,-16.218 v 0 0 0 c 0,-6.938 -0.527,-12.356 -1.563,-16.086 -1.082,-3.828 -2.996,-5.742 -5.644,-5.742 -2.645,0 -4.559,1.914 -5.594,5.742 v 0" /><path
         id="path134"
         style="fill:#1a67bb;fill-opacity:1;fill-rule:nonzero;stroke:none"
         d="m 263.012,94.4258 v -3.6563 c 0,-3.25 -0.629,-5.8945 -1.864,-7.8867 -1.285,-2.0742 -3.152,-3.0976 -5.695,-3.0976 -1.84,0 -3.226,0.625 -4.183,1.8359 -0.957,1.1836 -1.434,2.8516 -1.434,4.832 0,2.7266 0.883,4.7188 2.746,6.0742 1.836,1.3399 4.539,1.9766 8.016,1.9766 0.429,0 0.828,0 1.308,0 0.477,0 0.907,0 1.106,-0.0781 v 0" /><path
         id="path136"
         style="fill:#1a67bb;fill-opacity:1;fill-rule:nonzero;stroke:none"
         d="m 433.82,102.461 c -0.879,0.555 -1.582,1.434 -2.121,2.469 -0.547,1.039 -0.957,2.25 -1.23,3.578 -0.274,1.367 -0.43,2.722 -0.43,4.234 0,1.582 0.156,3.098 0.43,4.465 0.273,1.328 0.683,2.617 1.289,3.652 0.547,1.036 1.23,1.836 2.14,2.395 0.801,0.555 1.836,0.879 3.028,0.879 1.152,0 2.187,-0.324 3.066,-0.879 0.906,-0.559 1.59,-1.359 2.149,-2.395 0.527,-1.035 0.957,-2.324 1.23,-3.652 0.25,-1.367 0.399,-2.883 0.399,-4.465 v 0 0 0 c 0,-1.512 -0.149,-2.945 -0.399,-4.304 -0.273,-1.34 -0.703,-2.551 -1.23,-3.586 -0.637,-1.036 -1.321,-1.914 -2.219,-2.469 -0.887,-0.547 -1.844,-0.879 -2.996,-0.879 -1.192,0 -2.227,0.332 -3.106,0.957 v 0" /><path
         id="path138"
         style="fill:#1a67bb;fill-opacity:1;fill-rule:nonzero;stroke:none"
         d="m 510.305,86.1523 c -1.035,3.7305 -1.563,9.1524 -1.563,16.0817 0,6.926 0.528,12.325 1.563,16.153 1.035,3.832 2.949,5.746 5.644,5.746 2.723,0 4.656,-1.914 5.692,-5.664 1.007,-3.813 1.562,-9.231 1.562,-16.235 v 0 0 0 c 0,-6.9293 -0.555,-12.3512 -1.562,-16.0817 -1.102,-3.8281 -3.028,-5.7421 -5.692,-5.7421 -2.695,0 -4.609,1.914 -5.644,5.7421 v 0" /></g></g></svg>