<?xml version="1.0" encoding="UTF-8" standalone="no"?>
<svg
   xmlns:dc="http://purl.org/dc/elements/1.1/"
   xmlns:cc="http://creativecommons.org/ns#"
   xmlns:rdf="http://www.w3.org/1999/02/22-rdf-syntax-ns#"
   xmlns:svg="http://www.w3.org/2000/svg"
   xmlns="http://www.w3.org/2000/svg"
   viewBox="0 0 87.306664 132.28"
   height="132.28"
   width="87.306664"
   xml:space="preserve"
   id="svg2"
   version="1.1"><metadata
     id="metadata8"><rdf:RDF><cc:Work
         rdf:about=""><dc:format>image/svg+xml</dc:format><dc:type
           rdf:resource="http://purl.org/dc/dcmitype/StillImage" /></cc:Work></rdf:RDF></metadata><defs
     id="defs6" /><g
     transform="matrix(1.3333333,0,0,-1.3333333,0,132.28)"
     id="g10"><g
       transform="scale(0.1)"
       id="g12"><path
         id="path14"
         style="fill:#1a67bb;fill-opacity:1;fill-rule:nonzero;stroke:none"
         d="M 0,0 H 654.824 V 992.125 H 0 Z" /><path
         id="path16"
         style="fill:#ffffff;fill-opacity:1;fill-rule:nonzero;stroke:none"
         d="m 225.996,818.113 h 125.266 v 0 c 0,0 2.343,0 3.535,0 1.152,0 3.496,1.164 4.687,1.164 2.344,1.184 3.496,1.184 5.84,2.344 1.192,1.184 2.344,1.184 2.344,2.344 v 0 L 346.582,781.777 H 225.996 v -139.332 0 c 1.184,0 3.527,0 4.688,-1.156 7.031,-1.187 14.062,-2.344 21.089,-5.875 11.719,-4.687 22.282,-11.719 30.469,-21.09 12.778,-16.402 20.992,-35.152 20.992,-56.25 0,-23.308 -9.375,-46.742 -25.679,-61.988 -18.75,-17.566 -43.344,-24.598 -67.965,-24.598 -24.594,0 -49.215,5.852 -67.965,22.25 -18.621,15.25 -29.18,38.684 -30.34,61.992 -1.183,23.442 8.188,45.715 23.438,62.122 12.773,12.875 30.34,22.25 50.273,24.593 1.156,0 2.344,0 3.5,0 v 0 139.332 H 59.7266 v 41.028 0 l 1.1562,-1.184 c 1.1875,-1.16 3.5313,-2.344 4.6875,-2.344 2.3438,-1.164 4.6875,-1.164 5.875,-1.164 1.1563,0 3.5,0 3.5,0 v 0 H 188.496 v 97.125 0 c 0,1.184 0,2.344 0,3.528 0,2.343 0,3.5 0,5.843 0,2.344 -1.156,4.688 -2.344,5.875 0,1.157 -1.156,1.157 -1.156,2.344 v 0 h 42.184 v 0 c 0,-1.187 0,-1.187 0,-2.344 -1.184,-1.187 -1.184,-2.343 -1.184,-3.531 0,-2.344 0,-4.687 0,-7.031 v -2.34 0 -99.469 0" /><path
         id="path18"
         style="fill:#1a67bb;fill-opacity:1;fill-rule:nonzero;stroke:none"
         d="m 208.508,608.102 c 10.558,-1.188 22.152,-2.344 31.523,-7.032 8.215,-3.531 15.246,-10.562 21.09,-17.59 4.692,-8.089 7.035,-17.464 7.035,-26.839 0,-8.188 -2.343,-17.563 -7.035,-24.594 -4.683,-8.215 -11.715,-15.246 -19.906,-19.934 -9.375,-4.687 -20.988,-5.847 -31.524,-5.847 -7.031,0 -15.246,1.16 -22.277,2.343 -11.715,3.504 -22.254,9.375 -30.465,18.75 -5.851,8.188 -9.375,18.75 -9.375,30.469 -1.164,8.188 1.18,17.563 5.867,24.594 4.688,9.273 14.063,16.305 23.438,19.805 9.375,4.687 21.094,5.875 31.629,5.875 v 0" /><path
         id="path20"
         style="fill:#ffffff;fill-opacity:1;fill-rule:nonzero;stroke:none"
         d="m 71.9961,270.469 h 19.9102 v 2.773 c 0,3.574 -0.3516,6.602 -0.9571,9.219 -0.6054,2.644 -1.4844,4.797 -2.6484,6.457 -1.1563,1.687 -2.5938,2.867 -4.1289,3.68 -1.6406,0.781 -3.4063,1.179 -5.3203,1.179 -2.168,0 -4.1289,-0.476 -5.8203,-1.511 -1.7657,-1.036 -3.2735,-2.539 -4.4102,-4.383 -1.1602,-1.914 -2.1172,-4.133 -2.7227,-6.75 -0.6054,-2.625 -0.957,-5.496 -0.957,-8.594 0,-2.949 0.3516,-5.754 0.957,-8.289 0.6055,-2.551 1.4883,-4.691 2.7735,-6.535 1.2344,-1.836 2.7969,-3.242 4.6875,-4.277 1.914,-1.114 4.1562,-1.59 6.6523,-1.59 2.168,0 4.1602,0.25 5.8477,0.781 1.6836,0.555 3.0469,1.109 4.2109,1.656 v 0 l -0.3594,6.938 v 0 c -0.8789,-0.707 -2.0156,-1.438 -3.3711,-2.141 -1.4375,-0.734 -3.125,-1.113 -5.1679,-1.113 -3.25,0 -5.5703,1.035 -6.9805,3.172 -1.4375,2.074 -2.1953,5.168 -2.1953,9.328 v 0" /><path
         id="path22"
         style="fill:#ffffff;fill-opacity:1;fill-rule:nonzero;stroke:none"
         d="m 105.234,252.402 h 8.344 l 10.535,40.821 h -7.058 l -7.485,-32.785 h -0.125 l -7.332,32.785 h -7.4607 l 10.5817,-40.821 v 0" /><path
         id="path24"
         style="fill:#ffffff;fill-opacity:1;fill-rule:nonzero;stroke:none"
         d="m 145.758,252.402 h 6.375 v 0 c -0.07,0.703 -0.199,1.739 -0.278,2.918 -0.074,1.211 -0.125,2.473 -0.125,3.828 v 0 19.512 0 c 0,2.695 -0.203,4.942 -0.679,6.684 -0.481,1.754 -1.235,3.191 -2.113,4.383 -0.735,1.027 -1.969,1.984 -3.606,2.871 -1.617,0.781 -3.73,1.179 -6.375,1.179 -2.242,0 -4.211,-0.32 -5.898,-0.957 -1.692,-0.632 -3.254,-1.355 -4.563,-2.215 v 0 l 0.559,-7.082 v 0 c 0.879,1.036 2.16,1.993 3.875,2.844 1.617,0.813 3.379,1.211 5.347,1.211 2.52,0 4.282,-0.801 5.368,-2.394 0.55,-0.797 0.957,-1.661 1.156,-2.618 0.199,-1.035 0.277,-2.168 0.277,-3.425 v 0 -1.692 h -2.519 v 0 c -5.645,0 -9.981,-1.109 -12.907,-3.25 -2.918,-2.219 -4.406,-5.722 -4.406,-10.508 0,-1.914 0.277,-3.574 0.805,-5.089 0.554,-1.512 1.312,-2.723 2.246,-3.758 0.879,-1.035 1.961,-1.739 3.199,-2.215 1.211,-0.531 2.52,-0.781 3.93,-0.781 2.597,0 4.613,0.632 6.176,1.89 1.507,1.211 2.718,2.617 3.605,4.231 v 0 h 0.125 v 0 c 0,-0.254 0,-0.656 0.074,-1.211 0,-0.547 0,-1.106 0.078,-1.66 0.075,-0.555 0.075,-1.114 0.121,-1.59 0.079,-0.547 0.079,-0.879 0.153,-1.106 v 0" /><path
         id="path26"
         style="fill:#ffffff;fill-opacity:1;fill-rule:nonzero;stroke:none"
         d="m 158.41,252.402 h 7.055 v 24.192 c 0,3.172 0.531,5.719 1.687,7.554 1.086,1.821 2.719,2.7 4.969,2.7 1.836,0 3.125,-0.707 4,-2.141 0.809,-1.437 1.215,-3.75 1.215,-6.934 v 0 -25.371 h 7.055 v 27.293 0 c 0,4.309 -0.805,7.707 -2.446,10.254 -1.613,2.539 -4.207,3.828 -7.734,3.828 -2.02,0 -3.805,-0.554 -5.344,-1.734 -1.562,-1.215 -2.797,-2.871 -3.679,-5.012 v 0 h -0.125 v 0 c 0,0.227 0,0.703 0,1.262 -0.079,0.547 -0.079,1.18 -0.149,1.836 -0.055,0.625 -0.055,1.258 -0.055,1.812 -0.074,0.547 -0.074,1.036 -0.074,1.282 v 0 h -6.656 v 0 c 0.078,-1.18 0.129,-2.469 0.207,-3.75 0.074,-1.336 0.074,-2.696 0.074,-4.063 v 0 -33.008 0" /><path
         id="path28"
         style="fill:#ffffff;fill-opacity:1;fill-rule:nonzero;stroke:none"
         d="m 191.293,245.02 -0.43,-7.735 v 0 c 1.164,-0.558 2.801,-1.113 4.84,-1.672 2.016,-0.547 4.137,-0.879 6.227,-0.879 5.164,0 9.047,1.692 11.617,4.946 2.57,3.269 3.879,7.957 3.879,13.98 v 0 32.641 0 c 0,1.179 0.051,2.312 0.129,3.496 0.074,1.187 0.074,2.32 0.125,3.426 v 0 h -6.504 v 0 c 0,-0.246 0,-0.735 0,-1.282 -0.071,-0.554 -0.071,-1.187 -0.149,-1.812 -0.05,-0.656 -0.05,-1.211 -0.05,-1.77 -0.079,-0.554 -0.079,-1.035 -0.079,-1.261 v 0 h -0.199 v 0 c -0.883,1.82 -2.043,3.429 -3.453,4.765 -1.433,1.289 -3.199,1.914 -5.367,1.914 -2.117,0 -4.008,-0.476 -5.57,-1.511 -1.563,-1.036 -2.918,-2.391 -3.93,-4.211 -1.035,-1.832 -1.84,-4.051 -2.32,-6.621 -0.528,-2.625 -0.805,-5.496 -0.805,-8.672 0,-3.809 0.328,-7 1.082,-9.625 0.68,-2.621 1.562,-4.789 2.723,-6.379 1.136,-1.66 2.445,-2.774 3.855,-3.496 1.438,-0.711 2.926,-1.082 4.41,-1.082 2.399,0 4.285,0.601 5.723,1.961 1.41,1.289 2.566,2.871 3.449,4.863 v 0 h 0.129 v -5.086 0 c 0,-1.672 -0.129,-3.332 -0.406,-4.848 -0.324,-1.511 -0.805,-2.793 -1.485,-3.902 -0.754,-1.105 -1.687,-1.992 -2.921,-2.695 -1.211,-0.657 -2.774,-0.961 -4.618,-0.961 -1.914,0 -3.722,0.402 -5.566,1.117 -1.84,0.801 -3.25,1.582 -4.336,2.391 v 0" /><path
         id="path30"
         style="fill:#ffffff;fill-opacity:1;fill-rule:nonzero;stroke:none"
         d="m 224.457,252.402 h 7.336 v 9.629 h -7.336 v -9.629 0" /><path
         id="path32"
         style="fill:#ffffff;fill-opacity:1;fill-rule:nonzero;stroke:none"
         d="m 266.895,252.402 h 7.054 v 21.946 c 0,2.07 0.203,3.836 0.606,5.347 0.406,1.504 0.957,2.696 1.636,3.653 0.684,0.879 1.489,1.582 2.375,2.062 0.879,0.41 1.762,0.653 2.766,0.653 0.43,0 0.836,0 1.164,-0.094 0.352,-0.082 0.758,-0.149 1.082,-0.227 v 0 7.957 0 c -0.125,0 -0.277,0 -0.324,0.078 -0.078,0 -0.207,0 -0.359,0 -1.282,0 -2.442,-0.144 -3.45,-0.554 -1.007,-0.403 -1.843,-0.957 -2.57,-1.66 -0.758,-0.735 -1.434,-1.512 -1.992,-2.391 -0.528,-0.879 -1.004,-1.848 -1.332,-2.871 v 0 h -0.153 v 0 c 0,0.32 0,0.797 0,1.433 -0.078,0.625 -0.078,1.36 -0.125,2.063 -0.078,0.73 -0.078,1.363 -0.078,1.988 -0.074,0.637 -0.074,1.113 -0.074,1.438 v 0 h -6.504 v 0 c 0.078,-1.18 0.125,-2.469 0.203,-3.75 0.075,-1.336 0.075,-2.696 0.075,-4.063 v 0 -33.008 0" /><path
         id="path34"
         style="fill:#ffffff;fill-opacity:1;fill-rule:nonzero;stroke:none"
         d="m 291.137,270.469 h 19.91 v 2.773 c 0,3.574 -0.352,6.602 -0.957,9.219 -0.606,2.644 -1.492,4.797 -2.649,6.457 -1.156,1.687 -2.597,2.867 -4.16,3.68 -1.609,0.781 -3.375,1.179 -5.289,1.179 -2.168,0 -4.133,-0.476 -5.824,-1.511 -1.762,-1.036 -3.27,-2.539 -4.41,-4.383 -1.156,-1.914 -2.113,-4.133 -2.719,-6.75 -0.605,-2.625 -0.957,-5.496 -0.957,-8.594 0,-2.949 0.352,-5.754 0.957,-8.289 0.606,-2.551 1.484,-4.691 2.774,-6.535 1.234,-1.836 2.796,-3.242 4.687,-4.277 1.914,-1.114 4.133,-1.59 6.652,-1.59 2.168,0 4.129,0.25 5.844,0.781 1.688,0.555 3.051,1.109 4.207,1.656 v 0 l -0.351,6.938 v 0 c -0.883,-0.707 -2.016,-1.438 -3.379,-2.141 -1.434,-0.734 -3.118,-1.113 -5.164,-1.113 -3.246,0 -5.567,1.035 -7.004,3.172 -1.41,2.074 -2.168,5.168 -2.168,9.328 v 0" /><path
         id="path36"
         style="fill:#ffffff;fill-opacity:1;fill-rule:nonzero;stroke:none"
         d="m 320.016,252.402 h 7.054 v 34.446 h 6.301 v 6.375 h -6.301 v 7.793 0 c 0,1.836 0.356,3.195 0.934,4.152 0.605,0.965 1.687,1.441 3.125,1.441 0.406,0 0.957,-0.105 1.566,-0.254 0.606,-0.156 1.231,-0.332 1.692,-0.554 v 0 6.379 0 c -0.735,0.222 -1.621,0.476 -2.653,0.625 -1.007,0.156 -1.812,0.23 -2.441,0.23 -1.664,0 -3.156,-0.301 -4.313,-0.855 -1.156,-0.559 -2.113,-1.371 -2.847,-2.395 -0.754,-1.035 -1.281,-2.148 -1.641,-3.508 -0.324,-1.355 -0.476,-2.871 -0.476,-4.382 v 0 -8.672 h -5.696 v -6.375 h 5.696 v -34.446 0" /><path
         id="path38"
         style="fill:#ffffff;fill-opacity:1;fill-rule:nonzero;stroke:none"
         d="m 339.219,252.402 h 7.336 v 9.629 h -7.336 v -9.629 0" /><path
         id="path40"
         style="fill:#ffffff;fill-opacity:1;fill-rule:nonzero;stroke:none"
         d="m 440.07,253.508 c 0.938,-0.403 2.09,-0.805 3.524,-1.184 1.418,-0.383 2.98,-0.558 4.816,-0.558 3.328,0 6.102,0.714 8.418,2.218 2.246,1.516 4.129,3.582 5.567,6.278 1.414,2.726 2.449,5.976 3.054,9.804 0.606,3.735 0.957,7.961 0.957,12.571 v 0 0 0 c 0,3.808 -0.285,7.312 -0.761,10.515 -0.477,3.176 -1.278,5.969 -2.442,8.266 -1.16,2.312 -2.644,4.051 -4.48,5.34 -1.895,1.258 -4.211,1.914 -6.985,1.914 -4.207,0 -7.539,-1.582 -10.058,-4.785 -2.52,-3.172 -3.731,-7.715 -3.731,-13.535 0,-2.618 0.332,-5.008 0.957,-7.161 0.606,-2.136 1.418,-4.05 2.578,-5.562 1.086,-1.516 2.364,-2.727 3.926,-3.574 1.516,-0.891 3.203,-1.371 5.039,-1.371 2.246,0 4.133,0.558 5.625,1.742 1.438,1.129 2.59,2.644 3.399,4.461 v 0 l 0.129,-0.078 v 0 c -0.051,-2.469 -0.254,-4.942 -0.684,-7.305 -0.402,-2.473 -1.086,-4.641 -1.965,-6.524 -0.926,-1.925 -2.168,-3.425 -3.601,-4.636 -1.418,-1.196 -3.254,-1.821 -5.344,-1.821 -1.563,0 -2.996,0.227 -4.285,0.782 -1.282,0.48 -2.364,1.039 -3.254,1.593 v 0 l -0.399,-7.39 v 0" /><path
         id="path42"
         style="fill:#ffffff;fill-opacity:1;fill-rule:nonzero;stroke:none"
         d="m 472.102,252.402 h 7.332 v 9.629 h -7.332 v -9.629 0" /><path
         id="path44"
         style="fill:#ffffff;fill-opacity:1;fill-rule:nonzero;stroke:none"
         d="m 492.668,252.402 h 7.176 v 55.536 h -6.297 l -10.586,-11.29 3.523,-5.964 6.184,7.402 v -45.684 0" /><path
         id="path46"
         style="fill:#ffffff;fill-opacity:1;fill-rule:nonzero;stroke:none"
         d="m 505.793,253.984 c 1.289,-0.546 2.793,-1.132 4.559,-1.504 1.691,-0.46 3.605,-0.714 5.566,-0.714 5.02,0 8.898,1.742 11.594,5.168 2.722,3.504 4.082,8.195 4.082,14.168 v 0 0 0 c 0,2.699 -0.352,5.168 -1.028,7.226 -0.73,2.172 -1.687,3.906 -2.851,5.344 -1.133,1.433 -2.567,2.469 -4.129,3.176 -1.641,0.73 -3.332,1.113 -5.09,1.113 -1.082,0 -2.117,-0.078 -3.008,-0.227 -0.925,-0.078 -1.758,-0.332 -2.363,-0.554 v 0 14.011 h 16.23 v 6.747 h -22.878 v -28.321 0 c 1.152,0.403 2.363,0.781 3.601,1.184 1.211,0.398 2.649,0.554 4.211,0.554 3.242,0 5.691,-1.035 7.402,-3.027 1.61,-1.988 2.45,-4.687 2.45,-7.957 0,-3.406 -0.84,-6.199 -2.52,-8.34 -1.687,-2.246 -4.012,-3.359 -6.933,-3.359 -1.692,0 -3.25,0.332 -4.688,0.887 -1.414,0.558 -2.695,1.183 -3.809,1.914 v 0 l -0.398,-7.489 v 0" /><path
         id="path48"
         style="fill:#ffffff;fill-opacity:1;fill-rule:nonzero;stroke:none"
         d="m 564.707,252.402 h 7.063 v 24.192 c 0,3.172 0.527,5.719 1.687,7.554 1.086,1.821 2.715,2.7 4.961,2.7 1.836,0 3.125,-0.707 4.004,-2.141 0.812,-1.437 1.211,-3.75 1.211,-6.934 v 0 -25.371 h 7.062 v 27.293 0 c 0,4.309 -0.812,7.707 -2.422,10.254 -1.64,2.539 -4.238,3.828 -7.765,3.828 -2.293,0 -4.129,-0.625 -5.418,-1.836 -1.36,-1.257 -2.442,-2.625 -3.195,-4.136 v 0 h -0.125 v 24.293 h -7.063 v -59.696 0" /><path
         id="path50"
         style="fill:#ffffff;fill-opacity:1;fill-rule:nonzero;stroke:none"
         d="m 88.6836,164.551 -0.4063,7.012 v 0 c -0.7343,-0.555 -1.7617,-1.036 -2.9257,-1.434 -1.1563,-0.41 -2.3672,-0.637 -3.5235,-0.637 -3.0781,0 -5.3906,1.262 -7.0078,3.809 -1.7148,2.539 -2.5195,5.965 -2.5195,10.285 0,5.008 0.8047,8.66 2.4453,11.051 1.6367,2.375 3.957,3.586 6.9297,3.586 1.3086,0 2.4687,-0.157 3.4765,-0.555 1.0352,-0.402 1.9141,-0.805 2.7969,-1.359 v 0 l 0.3281,6.921 v 0 c -0.8789,0.411 -1.8906,0.782 -3.1992,1.118 -1.2851,0.32 -2.5742,0.476 -3.8828,0.476 -2.6445,0 -5.0117,-0.476 -7.0547,-1.515 -2.039,-1.036 -3.7539,-2.547 -5.1172,-4.383 -1.3632,-1.914 -2.3671,-4.129 -3.0468,-6.746 -0.6836,-2.629 -1.0352,-5.422 -1.0352,-8.528 0,-2.871 0.3516,-5.566 0.957,-8.117 0.6055,-2.535 1.6407,-4.781 2.9258,-6.617 1.2852,-1.82 2.9219,-3.332 4.9649,-4.367 1.9648,-1.133 4.3554,-1.692 7.082,-1.692 1.4844,0 2.9219,0.188 4.3594,0.481 1.4101,0.41 2.5664,0.808 3.4531,1.211 v 0" /><path
         id="path52"
         style="fill:#ffffff;fill-opacity:1;fill-rule:nonzero;stroke:none"
         d="m 112.09,163.418 h 6.402 v 0 c -0.074,0.73 -0.199,1.766 -0.277,2.949 -0.051,1.211 -0.125,2.473 -0.125,3.828 v 0 19.512 0 c 0,2.695 -0.203,4.93 -0.684,6.68 -0.476,1.758 -1.234,3.191 -2.113,4.375 -0.758,1.035 -1.969,1.992 -3.602,2.879 -1.64,0.785 -3.73,1.183 -6.402,1.183 -2.246,0 -4.211,-0.332 -5.9218,-0.957 -1.6914,-0.637 -3.2539,-1.355 -4.5625,-2.219 v 0 l 0.5508,-7.078 v 0 c 0.8867,1.028 2.1679,1.993 3.8828,2.84 1.6407,0.813 3.4027,1.215 5.3667,1.215 2.524,0 4.286,-0.805 5.395,-2.395 0.527,-0.808 0.934,-1.66 1.133,-2.617 0.23,-1.035 0.277,-2.168 0.277,-3.429 v 0 -1.688 h -2.519 v 0 c -5.645,0 -10.0043,-1.113 -12.9301,-3.254 -2.9179,-2.215 -4.4062,-5.722 -4.4062,-10.508 0,-1.914 0.2773,-3.582 0.8047,-5.086 0.5547,-1.511 1.3125,-2.722 2.2461,-3.761 0.8789,-1.035 1.9883,-1.739 3.1992,-2.215 1.2344,-0.559 2.5193,-0.813 3.9533,-0.813 2.574,0 4.613,0.664 6.203,1.926 1.484,1.199 2.719,2.617 3.602,4.227 v 0 h 0.128 v 0 c 0,-0.25 0,-0.653 0.071,-1.207 0,-0.559 0,-1.106 0.051,-1.664 0.078,-0.555 0.078,-1.114 0.152,-1.59 0.078,-0.547 0.078,-0.879 0.125,-1.133 v 0" /><path
         id="path54"
         style="fill:#ffffff;fill-opacity:1;fill-rule:nonzero;stroke:none"
         d="m 142.082,164.07 v 6.203 c -0.48,-0.222 -0.961,-0.476 -1.492,-0.625 -0.551,-0.253 -1.156,-0.332 -1.914,-0.332 -1.281,0 -2.168,0.481 -2.797,1.36 -0.606,0.887 -0.879,2.398 -0.879,4.617 v 0 22.598 h 7.082 v 6.375 H 135 v 10.839 l -7.055,-2.468 v -8.371 h -5.597 v -6.375 h 5.597 v -24.266 0 c 0,-3.906 0.727,-6.699 2.289,-8.293 1.563,-1.66 3.754,-2.473 6.602,-2.473 1.035,0 2.043,0.11 2.926,0.332 0.883,0.332 1.715,0.559 2.32,0.879 v 0" /><path
         id="path56"
         style="fill:#ffffff;fill-opacity:1;fill-rule:nonzero;stroke:none"
         d="m 147.574,163.418 h 7.36 v 9.656 h -7.36 v -9.656 0" /><path
         id="path58"
         style="fill:#ffffff;fill-opacity:1;fill-rule:nonzero;stroke:none"
         d="m 190.082,163.418 h 7.086 v 21.973 c 0,2.07 0.199,3.836 0.605,5.339 0.403,1.516 0.957,2.708 1.637,3.665 0.68,0.878 1.485,1.582 2.391,2.058 0.887,0.41 1.769,0.656 2.773,0.656 0.406,0 0.832,0 1.16,-0.097 0.356,-0.078 0.754,-0.149 1.082,-0.227 v 0 7.961 0 c -0.121,0 -0.25,0 -0.328,0.078 -0.07,0 -0.199,0 -0.351,0 -1.282,0 -2.446,-0.156 -3.449,-0.558 -1.036,-0.399 -1.844,-0.957 -2.598,-1.661 -0.754,-0.73 -1.438,-1.511 -1.965,-2.39 -0.555,-0.891 -1.035,-1.848 -1.363,-2.871 v 0 h -0.149 v 0 c 0,0.324 0,0.801 0,1.433 -0.05,0.625 -0.05,1.36 -0.129,2.063 -0.074,0.73 -0.074,1.367 -0.074,1.992 -0.047,0.637 -0.047,1.113 -0.047,1.434 v 0 h -6.554 v 0 c 0.074,-1.18 0.152,-2.469 0.203,-3.75 0.07,-1.336 0.07,-2.696 0.07,-4.063 v 0 -33.035 0" /><path
         id="path60"
         style="fill:#ffffff;fill-opacity:1;fill-rule:nonzero;stroke:none"
         d="m 211.711,167.805 c 1.281,-1.664 2.844,-2.953 4.68,-3.735 1.769,-0.8 3.683,-1.211 5.722,-1.211 2.043,0 3.934,0.411 5.774,1.211 1.785,0.782 3.347,2.071 4.636,3.735 1.286,1.687 2.372,3.828 3.122,6.453 0.757,2.617 1.164,5.898 1.164,9.629 v 0 0 0 c 0,3.672 -0.407,6.843 -1.164,9.472 -0.75,2.618 -1.836,4.864 -3.122,6.524 -1.289,1.687 -2.851,2.949 -4.636,3.758 -1.84,0.785 -3.731,1.183 -5.774,1.183 -2.039,0 -3.953,-0.398 -5.722,-1.183 -1.836,-0.809 -3.399,-2.071 -4.68,-3.758 -1.316,-1.66 -2.398,-3.906 -3.125,-6.524 -0.758,-2.629 -1.164,-5.8 -1.164,-9.472 0,-3.731 0.406,-7.012 1.164,-9.629 0.727,-2.625 1.809,-4.766 3.125,-6.453 v 0" /><path
         id="path62"
         style="fill:#ffffff;fill-opacity:1;fill-rule:nonzero;stroke:none"
         d="m 241.742,163.418 h 7.086 v 25 c 0,3.027 0.527,5.344 1.563,7.004 1.007,1.687 2.57,2.469 4.562,2.469 3.25,0 4.887,-2.539 4.887,-7.559 v 0 -26.914 h 7.078 v 25 0 c 0,3.027 0.535,5.344 1.562,7.004 1.012,1.687 2.598,2.469 4.563,2.469 3.25,0 4.891,-2.539 4.891,-7.559 v 0 -26.914 h 7.082 v 26.766 0 c 0,4.757 -0.805,8.441 -2.446,10.91 -1.715,2.441 -4.234,3.73 -7.636,3.73 -2.243,0 -4.082,-0.636 -5.496,-1.914 -1.434,-1.34 -2.52,-2.851 -3.399,-4.543 -0.355,0.813 -0.754,1.594 -1.234,2.395 -0.477,0.711 -1.082,1.445 -1.766,2.07 -0.68,0.555 -1.484,1.035 -2.394,1.434 -0.883,0.402 -1.961,0.558 -3.125,0.558 -2.168,0 -3.93,-0.636 -5.368,-1.914 -1.433,-1.34 -2.597,-2.949 -3.324,-4.941 v 0 h -0.152 v 0 c 0,0.254 0,0.73 0,1.355 -0.055,0.559 -0.055,1.192 -0.055,1.848 -0.07,0.625 -0.07,1.258 -0.07,1.816 -0.078,0.547 -0.078,1.024 -0.078,1.278 v 0 h -7.004 v 0 c 0.074,-1.102 0.125,-2.313 0.203,-3.575 0.07,-1.289 0.07,-2.625 0.07,-4.128 v 0 -33.145 0" /><path
         id="path64"
         style="fill:#ffffff;fill-opacity:1;fill-rule:nonzero;stroke:none"
         d="m 291.816,163.418 h 7.336 v 9.656 h -7.336 v -9.656 0" /><path
         id="path66"
         style="fill:#ffffff;fill-opacity:1;fill-rule:nonzero;stroke:none"
         d="m 426.289,164.551 c 0.957,-0.403 2.09,-0.801 3.527,-1.211 1.434,-0.371 2.997,-0.547 4.832,-0.547 3.332,0 6.125,0.73 8.45,2.234 2.234,1.516 4.129,3.586 5.566,6.282 1.434,2.722 2.441,5.964 3.074,9.804 0.606,3.731 0.93,7.957 0.93,12.567 v 0 0 0 c 0,3.808 -0.246,7.316 -0.734,10.508 -0.477,3.187 -1.309,5.98 -2.461,8.273 -1.133,2.312 -2.645,4.051 -4.493,5.344 -1.882,1.258 -4.207,1.914 -7,1.914 -4.21,0 -7.558,-1.594 -10.058,-4.789 -2.52,-3.172 -3.75,-7.711 -3.75,-13.535 0,-2.618 0.351,-5.008 0.957,-7.157 0.605,-2.14 1.434,-4.054 2.566,-5.566 1.114,-1.516 2.395,-2.727 3.957,-3.582 1.485,-0.879 3.203,-1.36 5.039,-1.36 2.247,0 4.161,0.555 5.645,1.739 1.434,1.133 2.598,2.644 3.406,4.461 v 0 l 0.129,-0.078 v 0 c -0.058,-2.469 -0.254,-4.942 -0.683,-7.301 -0.403,-2.473 -1.086,-4.641 -1.965,-6.535 -0.957,-1.914 -2.168,-3.418 -3.602,-4.629 -1.437,-1.192 -3.281,-1.817 -5.375,-1.817 -1.558,0 -2.996,0.227 -4.285,0.782 -1.309,0.476 -2.391,1.035 -3.27,1.582 v 0 l -0.402,-7.383 v 0" /><path
         id="path68"
         style="fill:#ffffff;fill-opacity:1;fill-rule:nonzero;stroke:none"
         d="m 458.391,163.418 h 7.363 v 9.656 h -7.363 v -9.656 0" /><path
         id="path70"
         style="fill:#ffffff;fill-opacity:1;fill-rule:nonzero;stroke:none"
         d="m 470.539,165.027 c 1.434,-0.547 3.074,-1.132 4.91,-1.504 1.836,-0.476 3.731,-0.73 5.774,-0.73 2.39,0 4.558,0.398 6.55,1.102 1.965,0.812 3.606,1.914 5.012,3.285 1.445,1.433 2.52,3.172 3.281,5.164 0.75,1.992 1.161,4.226 1.161,6.777 v 0 0 0 c 0,2.059 -0.282,3.906 -0.762,5.488 -0.527,1.59 -1.211,2.852 -2.117,3.985 -0.879,1.113 -1.887,1.992 -3.047,2.629 -1.164,0.625 -2.395,1.101 -3.684,1.355 v 0 0.145 0 c 1.035,0.238 2.043,0.636 3.125,1.195 1.035,0.547 2.043,1.355 2.93,2.391 0.91,1.035 1.582,2.316 2.121,3.906 0.547,1.512 0.828,3.32 0.828,5.566 0,2.219 -0.351,4.309 -1.035,6.043 -0.762,1.739 -1.688,3.176 -2.918,4.387 -1.242,1.191 -2.648,2.07 -4.367,2.629 -1.688,0.547 -3.477,0.879 -5.438,0.879 -2.324,0 -4.367,-0.254 -6.125,-0.656 -1.843,-0.477 -3.406,-1.036 -4.765,-1.661 v 0 l 0.48,-7.566 v 0 c 1.434,0.887 2.996,1.59 4.559,2.144 1.562,0.559 3.047,0.801 4.355,0.801 2.246,0 4.141,-0.722 5.723,-2.136 1.562,-1.434 2.297,-3.508 2.297,-6.153 0,-1.66 -0.254,-3.019 -0.801,-4.133 -0.559,-1.179 -1.289,-2.058 -2.246,-2.871 -1.035,-0.703 -2.199,-1.258 -3.555,-1.59 -1.359,-0.398 -2.851,-0.546 -4.414,-0.546 v 0 h -1.965 v -6.68 0 c 0.403,0 0.938,0 1.614,0.078 0.632,0 1.433,0 2.39,0 2.852,0 5.098,-0.812 6.731,-2.324 1.64,-1.516 2.449,-3.731 2.449,-6.524 0,-1.738 -0.254,-3.254 -0.731,-4.543 -0.48,-1.257 -1.164,-2.285 -1.992,-3.093 -0.879,-0.879 -1.816,-1.512 -2.922,-1.914 -1.16,-0.379 -2.293,-0.633 -3.601,-0.633 -1.848,0 -3.535,0.332 -5.098,0.957 -1.562,0.554 -3,1.258 -4.23,1.992 v 0 l -0.477,-7.641 v 0" /><path
         id="path72"
         style="fill:#ffffff;fill-opacity:1;fill-rule:nonzero;stroke:none"
         d="m 505.391,170.906 c 1.152,-2.547 2.648,-4.539 4.48,-5.945 1.84,-1.438 4.008,-2.168 6.684,-2.168 2.644,0 4.883,0.73 6.726,2.234 1.836,1.438 3.321,3.411 4.485,5.981 1.16,2.547 1.992,5.562 2.441,8.992 0.477,3.406 0.762,7.156 0.762,11.223 v 0 0 0 c 0,4.05 -0.285,7.781 -0.762,11.289 -0.449,3.418 -1.281,6.441 -2.441,8.992 -1.164,2.539 -2.649,4.531 -4.485,6.047 -1.843,1.433 -4.082,2.168 -6.726,2.168 -2.676,0 -4.914,-0.735 -6.758,-2.168 -1.817,-1.516 -3.254,-3.508 -4.406,-6.047 -1.161,-2.551 -1.973,-5.574 -2.45,-8.992 -0.48,-3.508 -0.753,-7.239 -0.753,-11.289 0,-4.067 0.273,-7.817 0.753,-11.223 0.477,-3.508 1.289,-6.555 2.45,-9.094 v 0" /><path
         id="path74"
         style="fill:#ffffff;fill-opacity:1;fill-rule:nonzero;stroke:none"
         d="m 564.688,163.418 h 7.082 v 24.219 c 0,3.172 0.527,5.722 1.687,7.558 1.086,1.817 2.715,2.696 4.961,2.696 1.836,0 3.125,-0.703 4.004,-2.137 0.832,-1.438 1.242,-3.762 1.242,-6.938 v 0 -25.398 h 7.078 v 27.312 0 c 0,4.321 -0.828,7.715 -2.449,10.266 -1.633,2.539 -4.23,3.828 -7.754,3.828 -2.324,0 -4.16,-0.636 -5.449,-1.836 -1.36,-1.261 -2.442,-2.629 -3.195,-4.14 v 0 h -0.125 v 24.297 h -7.082 v -59.727 0" /><path
         id="path76"
         style="fill:#ffffff;fill-opacity:1;fill-rule:nonzero;stroke:none"
         d="M 75.5508,74.4414 H 83.918 L 94.4531,115.293 H 87.3672 L 79.9141,82.5 h -0.1524 l -7.3359,32.793 H 64.9414 L 75.5508,74.4414 v 0" /><path
         id="path78"
         style="fill:#ffffff;fill-opacity:1;fill-rule:nonzero;stroke:none"
         d="m 102.617,92.5273 h 19.934 v 2.7774 c 0,3.582 -0.352,6.5973 -0.957,9.2263 -0.606,2.649 -1.492,4.785 -2.649,6.446 -1.156,1.691 -2.597,2.871 -4.16,3.679 -1.637,0.782 -3.398,1.184 -5.289,1.184 -2.191,0 -4.16,-0.481 -5.848,-1.516 -1.761,-1.023 -3.277,-2.539 -4.4332,-4.383 -1.1562,-1.914 -2.0898,-4.132 -2.7187,-6.75 -0.6055,-2.617 -0.9336,-5.4957 -0.9336,-8.5933 0,-2.9493 0.3281,-5.7422 0.9336,-8.2891 0.6289,-2.5469 1.5078,-4.6875 2.7969,-6.5234 1.23,-1.8477 2.793,-3.2539 4.684,-4.2852 1.918,-1.1367 4.16,-1.6133 6.679,-1.6133 2.168,0 4.129,0.2539 5.844,0.8008 1.688,0.5547 3.051,1.1133 4.207,1.668 v 0 l -0.352,6.9258 v 0 c -0.882,-0.7032 -2.039,-1.4336 -3.402,-2.1407 -1.41,-0.7304 -3.125,-1.1133 -5.164,-1.1133 -3.25,0 -5.566,1.0352 -6.98,3.1875 -1.434,2.0586 -2.192,5.1641 -2.192,9.3125 v 0" /><path
         id="path80"
         style="fill:#ffffff;fill-opacity:1;fill-rule:nonzero;stroke:none"
         d="m 129.023,67.0508 -0.402,-7.7344 v 0 c 1.16,-0.5547 2.801,-1.1016 4.84,-1.6601 2.043,-0.5586 4.133,-0.879 6.25,-0.879 5.168,0 9.043,1.6915 11.617,4.9336 2.594,3.2774 3.883,7.9688 3.883,14.0118 v 0 32.6363 0 c 0,1.184 0.074,2.317 0.121,3.504 0.078,1.184 0.078,2.317 0.152,3.43 v 0 h -6.523 v 0 c 0,-0.254 0,-0.734 0,-1.289 -0.078,-0.559 -0.078,-1.184 -0.152,-1.816 -0.055,-0.657 -0.055,-1.211 -0.055,-1.766 -0.07,-0.547 -0.07,-1.027 -0.07,-1.262 v 0 h -0.204 v 0 c -0.882,1.817 -2.039,3.43 -3.48,4.766 -1.41,1.289 -3.172,1.914 -5.367,1.914 -2.09,0 -4.004,-0.481 -5.567,-1.516 -1.562,-1.023 -2.921,-2.39 -3.929,-4.195 -1.035,-1.848 -1.84,-4.066 -2.321,-6.633 -0.554,-2.629 -0.832,-5.496 -0.832,-8.6718 0,-3.8008 0.356,-7.0039 1.106,-9.6289 0.683,-2.6172 1.562,-4.7851 2.726,-6.3672 1.133,-1.6718 2.442,-2.7734 3.852,-3.5078 1.441,-0.7031 2.926,-1.1094 4.437,-1.1094 2.372,0 4.286,0.6329 5.696,1.9883 1.433,1.2891 2.597,2.8711 3.476,4.8633 v 0 h 0.125 v -5.0859 0 c 0,-1.6914 -0.125,-3.3477 -0.398,-4.8633 -0.328,-1.5156 -0.805,-2.8047 -1.488,-3.9063 -0.758,-1.1132 -1.715,-1.9922 -2.926,-2.6953 -1.231,-0.6562 -2.793,-0.957 -4.633,-0.957 -1.891,0 -3.73,0.3984 -5.574,1.1016 -1.836,0.8125 -3.246,1.5937 -4.36,2.3945 v 0" /><path
         id="path82"
         style="fill:#ffffff;fill-opacity:1;fill-rule:nonzero;stroke:none"
         d="m 161.762,74.4414 h 7.058 V 134.16 h -7.058 v -59.7186 0" /><path
         id="path84"
         style="fill:#ffffff;fill-opacity:1;fill-rule:nonzero;stroke:none"
         d="m 226.172,75.5742 -0.406,7.0039 v 0 c -0.75,-0.5586 -1.762,-1.0351 -2.918,-1.4375 -1.164,-0.3984 -2.368,-0.6328 -3.532,-0.6328 -3.07,0 -5.367,1.2578 -7.007,3.8086 -1.711,2.5469 -2.52,5.9766 -2.52,10.2813 0,5.0117 0.809,8.6723 2.449,11.0663 1.633,2.363 3.953,3.574 6.926,3.574 1.316,0 2.473,-0.144 3.477,-0.558 1.011,-0.399 1.922,-0.797 2.8,-1.356 v 0 l 0.325,6.934 v 0 c -0.879,0.398 -1.887,0.781 -3.196,1.101 -1.285,0.332 -2.57,0.481 -3.859,0.481 -2.672,0 -5.039,-0.481 -7.078,-1.516 -2.043,-1.023 -3.731,-2.539 -5.09,-4.383 -1.363,-1.914 -2.398,-4.132 -3.074,-6.75 -0.68,-2.617 -1.012,-5.4176 -1.012,-8.5113 0,-2.8828 0.332,-5.5781 0.961,-8.1172 0.602,-2.5508 1.613,-4.7969 2.922,-6.6328 1.281,-1.8164 2.922,-3.3281 4.941,-4.3555 1.992,-1.1328 4.36,-1.6875 7.078,-1.6875 1.489,0 2.926,0.1758 4.36,0.4766 1.414,0.4023 2.57,0.8047 3.453,1.2109 v 0" /><path
         id="path86"
         style="fill:#ffffff;fill-opacity:1;fill-rule:nonzero;stroke:none"
         d="m 249.555,74.4414 h 6.402 v 0 c -0.074,0.7266 -0.199,1.7578 -0.277,2.9414 -0.075,1.211 -0.121,2.4688 -0.121,3.8399 v 0 19.5003 0 c 0,2.695 -0.207,4.941 -0.688,6.679 -0.476,1.758 -1.234,3.203 -2.113,4.383 -0.754,1.035 -1.965,1.992 -3.602,2.871 -1.64,0.782 -3.73,1.184 -6.402,1.184 -2.242,0 -4.207,-0.324 -5.899,-0.957 -1.714,-0.625 -3.277,-1.36 -4.558,-2.215 v 0 l 0.555,-7.082 v 0 c 0.878,1.035 2.164,1.992 3.851,2.852 1.641,0.8 3.406,1.199 5.371,1.199 2.52,0 4.285,-0.797 5.391,-2.391 0.527,-0.801 0.933,-1.66 1.133,-2.617 0.23,-1.035 0.281,-2.168 0.281,-3.43 v 0 -1.6873 h -2.52 v 0 c -5.621,0 -9.98,-1.1054 -12.906,-3.25 -2.922,-2.2187 -4.41,-5.7265 -4.41,-10.5078 0,-1.9141 0.254,-3.5742 0.805,-5.0898 0.535,-1.5157 1.289,-2.7266 2.246,-3.7618 0.879,-1.0234 1.965,-1.7343 3.199,-2.2148 1.211,-0.5469 2.52,-0.8008 3.93,-0.8008 2.597,0 4.64,0.6563 6.203,1.9141 1.484,1.2109 2.719,2.6172 3.601,4.2265 v 0 h 0.129 v 0 c 0,-0.2421 0,-0.6523 0.074,-1.1992 0,-0.5586 0,-1.1133 0.051,-1.6718 0.074,-0.5547 0.074,-1.1016 0.153,-1.5821 0.074,-0.5547 0.074,-0.8867 0.121,-1.1328 v 0" /><path
         id="path88"
         style="fill:#ffffff;fill-opacity:1;fill-rule:nonzero;stroke:none"
         d="m 279.523,75.0977 v 6.1914 c -0.48,-0.2266 -0.957,-0.4805 -1.492,-0.625 -0.551,-0.2539 -1.156,-0.3321 -1.914,-0.3321 -1.281,0 -2.168,0.4766 -2.773,1.3672 -0.629,0.8789 -0.879,2.3946 -0.879,4.6094 v 0 22.6094 h 7.058 v 6.375 h -7.058 v 10.832 l -7.082,-2.473 v -8.359 h -5.567 v -6.375 h 5.567 v -24.2696 0 c 0,-3.9062 0.754,-6.7109 2.316,-8.2929 1.563,-1.668 3.731,-2.4688 6.578,-2.4688 1.036,0 2.043,0.0977 2.926,0.3242 0.883,0.3321 1.715,0.5547 2.32,0.8868 v 0" /><path
         id="path90"
         style="fill:#ffffff;fill-opacity:1;fill-rule:nonzero;stroke:none"
         d="m 285.016,74.4414 h 7.332 v 9.6524 h -7.332 v -9.6524 0" /><path
         id="path92"
         style="fill:#ffffff;fill-opacity:1;fill-rule:nonzero;stroke:none"
         d="m 426.438,75.5742 c 0.933,-0.4062 2.089,-0.8086 3.523,-1.2109 1.437,-0.3789 3,-0.5547 4.844,-0.5547 3.32,0 6.093,0.7344 8.418,2.2461 2.238,1.5117 4.148,3.5742 5.566,6.2695 1.438,2.7266 2.441,5.9766 3.078,9.8047 0.606,3.7305 0.926,7.9611 0.926,12.5781 v 0 0 0 c 0,3.801 -0.254,7.305 -0.73,10.508 -0.481,3.172 -1.309,5.965 -2.442,8.262 -1.164,2.324 -2.668,4.062 -4.484,5.339 -1.914,1.262 -4.239,1.914 -7.012,1.914 -4.227,0 -7.559,-1.582 -10.078,-4.785 -2.488,-3.172 -3.731,-7.715 -3.731,-13.535 0,-2.613 0.352,-5.008 0.957,-7.148 0.606,-2.149 1.418,-4.063 2.579,-5.5745 1.105,-1.5117 2.394,-2.7148 3.957,-3.5742 1.484,-0.8906 3.191,-1.3672 5.007,-1.3672 2.247,0 4.161,0.5586 5.645,1.7383 1.437,1.1445 2.598,2.6484 3.41,4.4606 v 0 l 0.145,-0.078 v 0 c -0.078,-2.4607 -0.274,-4.9295 -0.684,-7.3045 -0.418,-2.4687 -1.102,-4.6367 -1.98,-6.5195 -0.938,-1.9141 -2.168,-3.4297 -3.606,-4.6407 -1.414,-1.1796 -3.25,-1.8164 -5.371,-1.8164 -1.562,0 -2.977,0.2227 -4.285,0.7813 -1.281,0.4805 -2.363,1.0351 -3.254,1.5937 v 0 l -0.398,-7.3867 v 0" /><path
         id="path94"
         style="fill:#ffffff;fill-opacity:1;fill-rule:nonzero;stroke:none"
         d="m 458.516,74.4414 h 7.355 v 9.6524 h -7.355 v -9.6524 0" /><path
         id="path96"
         style="fill:#ffffff;fill-opacity:1;fill-rule:nonzero;stroke:none"
         d="m 470.664,76.0547 c 1.438,-0.5547 3.047,-1.1328 4.883,-1.5117 1.848,-0.4805 3.73,-0.7344 5.773,-0.7344 2.391,0 4.559,0.4023 6.532,1.1133 1.992,0.8008 3.605,1.914 5.039,3.2695 1.437,1.4375 2.519,3.1758 3.254,5.168 0.75,1.9922 1.152,4.2383 1.152,6.7773 v 0 0 0 c 0,2.0703 -0.246,3.9063 -0.734,5.5 -0.547,1.5821 -1.231,2.8399 -2.11,3.9727 -0.887,1.1136 -1.894,1.9926 -3.047,2.6246 -1.16,0.625 -2.402,1.106 -3.679,1.36 v 0 0.156 0 c 1.003,0.223 2.039,0.625 3.125,1.18 1.035,0.558 2.039,1.359 2.918,2.394 0.878,1.035 1.562,2.313 2.121,3.906 0.527,1.512 0.8,3.329 0.8,5.567 0,2.215 -0.324,4.316 -1.007,6.055 -0.75,1.738 -1.707,3.171 -2.918,4.382 -1.243,1.184 -2.676,2.063 -4.368,2.618 -1.679,0.558 -3.476,0.878 -5.437,0.878 -2.316,0 -4.356,-0.242 -6.125,-0.652 -1.816,-0.48 -3.398,-1.035 -4.734,-1.66 v 0 l 0.449,-7.559 v 0 c 1.433,0.879 2.996,1.582 4.558,2.141 1.563,0.555 3.079,0.809 4.368,0.809 2.234,0 4.128,-0.735 5.691,-2.149 1.562,-1.437 2.316,-3.496 2.316,-6.144 0,-1.668 -0.273,-3.028 -0.8,-4.129 -0.559,-1.192 -1.313,-2.071 -2.246,-2.879 -1.036,-0.703 -2.192,-1.262 -3.555,-1.582 -1.36,-0.403 -2.844,-0.559 -4.406,-0.559 v 0 h -1.973 v -6.6795 0 c 0.41,0 0.969,0 1.641,0.0781 0.605,0 1.418,0 2.375,0 2.839,0 5.085,-0.8125 6.726,-2.3164 1.633,-1.5117 2.442,-3.7265 2.442,-6.5312 0,-1.7383 -0.274,-3.25 -0.731,-4.5313 -0.48,-1.2578 -1.152,-2.2929 -1.992,-3.1054 -0.879,-0.879 -1.836,-1.5157 -2.922,-1.9141 -1.16,-0.3711 -2.297,-0.625 -3.602,-0.625 -1.836,0 -3.527,0.3203 -5.089,0.957 -1.563,0.5586 -2.997,1.2617 -4.207,1.9922 v 0 l -0.481,-7.6367 v 0" /><path
         id="path98"
         style="fill:#ffffff;fill-opacity:1;fill-rule:nonzero;stroke:none"
         d="m 505.461,81.9258 c 1.16,-2.5508 2.644,-4.543 4.492,-5.9492 1.836,-1.4336 4.004,-2.168 6.68,-2.168 2.644,0 4.883,0.7344 6.726,2.2461 1.836,1.4336 3.321,3.3984 4.485,5.9648 1.16,2.5508 1.961,5.5782 2.441,9.0039 0.477,3.4024 0.762,7.1524 0.762,11.2106 v 0 0 0 c 0,4.055 -0.285,7.786 -0.762,11.289 -0.48,3.43 -1.281,6.45 -2.441,8.997 -1.164,2.546 -2.649,4.539 -4.485,6.043 -1.843,1.449 -4.082,2.167 -6.726,2.167 -2.676,0 -4.922,-0.718 -6.731,-2.167 -1.843,-1.504 -3.281,-3.497 -4.441,-6.043 -1.152,-2.547 -1.965,-5.567 -2.441,-8.997 -0.481,-3.503 -0.754,-7.234 -0.754,-11.289 0,-4.0582 0.273,-7.8082 0.754,-11.2106 0.476,-3.5039 1.289,-6.5507 2.441,-9.0976 v 0" /><path
         id="path100"
         style="fill:#ffffff;fill-opacity:1;fill-rule:nonzero;stroke:none"
         d="m 564.707,74.4414 h 7.082 v 24.2109 c 0,3.1837 0.527,5.7227 1.688,7.5707 1.086,1.804 2.726,2.695 4.961,2.695 1.847,0 3.136,-0.715 4.015,-2.152 0.828,-1.434 1.231,-3.75 1.231,-6.9222 v 0 -25.4024 h 7.058 v 27.3166 0 c 0,4.305 -0.808,7.707 -2.449,10.254 -1.633,2.547 -4.199,3.828 -7.734,3.828 -2.317,0 -4.161,-0.625 -5.442,-1.836 -1.355,-1.262 -2.441,-2.617 -3.203,-4.129 v 0 h -0.125 v 24.285 h -7.082 v -59.7186 0" /><path
         id="path102"
         style="fill:#1a67bb;fill-opacity:1;fill-rule:nonzero;stroke:none"
         d="m 71.9961,276.113 c 0.0781,3.731 0.6836,6.68 1.8437,8.75 1.1563,1.985 2.7969,3.02 4.8125,3.02 4.211,0 6.3243,-3.879 6.3243,-11.77 v 0 H 71.9961 v 0" /><path
         id="path104"
         style="fill:#1a67bb;fill-opacity:1;fill-rule:nonzero;stroke:none"
         d="m 145.078,272.363 v -3.664 c 0,-3.238 -0.629,-5.886 -1.84,-7.879 -1.285,-2.07 -3.125,-3.105 -5.644,-3.105 -1.813,0 -3.176,0.633 -4.133,1.844 -0.957,1.183 -1.41,2.843 -1.41,4.836 0,2.722 0.879,4.714 2.695,6.074 1.84,1.336 4.488,1.961 7.942,1.961 0.421,0 0.828,0 1.308,0 0.453,0 0.883,0 1.082,-0.067 v 0" /><path
         id="path106"
         style="fill:#1a67bb;fill-opacity:1;fill-rule:nonzero;stroke:none"
         d="m 198.199,262.031 c -1.133,2.285 -1.761,5.969 -1.761,10.985 0,4.687 0.554,8.183 1.632,10.656 1.012,2.391 2.774,3.586 5.223,3.652 2.316,0 4.078,-1.183 5.363,-3.574 1.239,-2.395 1.84,-5.977 1.84,-10.664 v 0 0 0 c 0,-4.934 -0.601,-8.582 -1.762,-10.988 -1.16,-2.461 -3.05,-3.653 -5.695,-3.653 -2.043,0 -3.68,1.192 -4.84,3.586 v 0" /><path
         id="path108"
         style="fill:#1a67bb;fill-opacity:1;fill-rule:nonzero;stroke:none"
         d="m 291.137,276.113 c 0.074,3.731 0.679,6.68 1.843,8.75 1.157,1.985 2.766,3.02 4.809,3.02 4.207,0 6.328,-3.879 6.328,-11.77 v 0 h -12.98 v 0" /><path
         id="path110"
         style="fill:#1a67bb;fill-opacity:1;fill-rule:nonzero;stroke:none"
         d="m 448.887,280.398 c -0.879,0.559 -1.563,1.438 -2.117,2.473 -0.528,1.035 -0.957,2.234 -1.204,3.574 -0.281,1.36 -0.41,2.727 -0.41,4.239 0,1.582 0.129,3.093 0.41,4.453 0.247,1.336 0.676,2.625 1.282,3.664 0.523,1.023 1.211,1.836 2.09,2.39 0.839,0.547 1.843,0.879 2.996,0.879 1.164,0 2.168,-0.332 3.058,-0.879 0.879,-0.554 1.563,-1.367 2.11,-2.39 0.535,-1.039 0.937,-2.328 1.211,-3.664 0.281,-1.36 0.41,-2.871 0.41,-4.453 v 0 0 0 c 0,-1.512 -0.129,-2.95 -0.41,-4.317 -0.274,-1.328 -0.676,-2.539 -1.211,-3.574 -0.625,-1.035 -1.309,-1.914 -2.188,-2.473 -0.879,-0.554 -1.816,-0.879 -2.98,-0.879 -1.153,0 -2.157,0.325 -3.047,0.957 v 0" /><path
         id="path112"
         style="fill:#1a67bb;fill-opacity:1;fill-rule:nonzero;stroke:none"
         d="m 111.41,183.406 v -3.66 c 0,-3.254 -0.605,-5.891 -1.84,-7.883 -1.285,-2.066 -3.125,-3.101 -5.644,-3.101 -1.84,0 -3.199,0.633 -4.1291,1.843 -0.9571,1.18 -1.4375,2.84 -1.4375,4.833 0,2.726 0.8789,4.718 2.7186,6.074 1.844,1.34 4.488,1.965 7.965,1.965 0.402,0 0.805,0 1.285,0 0.477,0 0.883,0 1.082,-0.071 v 0" /><path
         id="path114"
         style="fill:#1a67bb;fill-opacity:1;fill-rule:nonzero;stroke:none"
         d="m 216.391,173.301 c -0.598,1.355 -1.004,2.871 -1.231,4.707 -0.254,1.816 -0.402,3.73 -0.402,5.879 0,2.168 0.148,4.051 0.402,5.886 0.227,1.848 0.633,3.364 1.231,4.692 0.605,1.289 1.363,2.32 2.32,3.023 0.883,0.735 2.043,1.137 3.402,1.137 1.364,0 2.52,-0.402 3.477,-1.137 0.887,-0.703 1.617,-1.734 2.246,-3.023 0.602,-1.328 1.008,-2.844 1.285,-4.692 0.199,-1.835 0.328,-3.718 0.328,-5.886 v 0 0 0 c 0,-2.149 -0.129,-4.063 -0.328,-5.879 -0.277,-1.836 -0.683,-3.352 -1.285,-4.707 -0.629,-1.367 -1.359,-2.395 -2.246,-3.106 -0.957,-0.703 -2.113,-1.101 -3.477,-1.101 -1.359,0 -2.519,0.398 -3.402,1.101 -0.957,0.711 -1.715,1.739 -2.32,3.106 v 0" /><path
         id="path116"
         style="fill:#1a67bb;fill-opacity:1;fill-rule:nonzero;stroke:none"
         d="m 435.129,191.445 c -0.883,0.547 -1.563,1.438 -2.109,2.473 -0.559,1.023 -0.969,2.234 -1.243,3.57 -0.254,1.36 -0.398,2.727 -0.398,4.239 0,1.582 0.144,3.097 0.398,4.453 0.274,1.34 0.684,2.629 1.309,3.656 0.527,1.031 1.211,1.844 2.09,2.398 0.84,0.547 1.847,0.879 3.008,0.879 1.152,0 2.187,-0.332 3.066,-0.879 0.891,-0.554 1.563,-1.367 2.102,-2.398 0.546,-1.027 0.957,-2.316 1.23,-3.656 0.273,-1.356 0.398,-2.871 0.398,-4.453 v 0 0 0 c 0,-1.512 -0.125,-2.95 -0.398,-4.317 -0.273,-1.324 -0.684,-2.535 -1.23,-3.57 -0.606,-1.035 -1.289,-1.914 -2.168,-2.473 -0.891,-0.558 -1.848,-0.879 -3,-0.879 -1.161,0 -2.168,0.321 -3.055,0.957 v 0" /><path
         id="path118"
         style="fill:#1a67bb;fill-opacity:1;fill-rule:nonzero;stroke:none"
         d="m 510.957,175.137 c -1.004,3.73 -1.562,9.148 -1.562,16.086 0,6.922 0.558,12.312 1.562,16.152 1.035,3.824 2.922,5.738 5.598,5.738 2.722,0 4.609,-1.914 5.644,-5.672 1.004,-3.8 1.563,-9.218 1.563,-16.218 v 0 0 0 c 0,-6.938 -0.559,-12.356 -1.563,-16.086 -1.086,-3.828 -3,-5.742 -5.644,-5.742 -2.676,0 -4.563,1.914 -5.598,5.742 v 0" /><path
         id="path120"
         style="fill:#1a67bb;fill-opacity:1;fill-rule:nonzero;stroke:none"
         d="m 102.617,98.1758 c 0.074,3.7262 0.68,6.6762 1.836,8.7502 1.164,1.992 2.797,3.015 4.84,3.015 4.207,0 6.305,-3.878 6.305,-11.7652 v 0 h -12.981 v 0" /><path
         id="path122"
         style="fill:#1a67bb;fill-opacity:1;fill-rule:nonzero;stroke:none"
         d="m 135.98,84.0938 c -1.16,2.2929 -1.789,5.9648 -1.789,10.9843 0,4.6875 0.555,8.1919 1.641,10.6639 1.027,2.395 2.797,3.574 5.238,3.653 2.321,0 4.082,-1.192 5.371,-3.586 1.235,-2.391 1.836,-5.9652 1.836,-10.6527 v 0 0 0 c 0,-4.9415 -0.601,-8.5938 -1.761,-10.9844 -1.161,-2.4727 -3.078,-3.6641 -5.719,-3.6641 -2.043,0 -3.684,1.1914 -4.817,3.586 v 0" /><path
         id="path124"
         style="fill:#1a67bb;fill-opacity:1;fill-rule:nonzero;stroke:none"
         d="m 248.879,94.4258 v -3.6563 c 0,-3.25 -0.606,-5.8945 -1.844,-7.8867 -1.281,-2.0742 -3.125,-3.0976 -5.644,-3.0976 -1.809,0 -3.172,0.625 -4.129,1.8359 -0.957,1.1836 -1.438,2.8516 -1.438,4.832 0,2.7266 0.879,4.7188 2.723,6.0742 1.84,1.3399 4.484,1.9766 7.961,1.9766 0.402,0 0.808,0 1.285,0 0.48,0 0.883,0 1.086,-0.0781 v 0" /><path
         id="path126"
         style="fill:#1a67bb;fill-opacity:1;fill-rule:nonzero;stroke:none"
         d="m 435.254,102.461 c -0.879,0.555 -1.563,1.434 -2.09,2.469 -0.555,1.039 -0.957,2.25 -1.23,3.578 -0.282,1.367 -0.411,2.722 -0.411,4.234 0,1.582 0.129,3.098 0.411,4.465 0.273,1.328 0.675,2.617 1.281,3.652 0.555,1.036 1.238,1.836 2.117,2.395 0.813,0.555 1.836,0.879 3,0.879 1.16,0 2.164,-0.324 3.047,-0.879 0.887,-0.559 1.562,-1.359 2.117,-2.395 0.527,-1.035 0.957,-2.324 1.211,-3.652 0.273,-1.367 0.43,-2.883 0.43,-4.465 v 0 0 0 c 0,-1.512 -0.157,-2.945 -0.43,-4.304 -0.254,-1.34 -0.684,-2.551 -1.211,-3.586 -0.605,-1.036 -1.289,-1.914 -2.187,-2.469 -0.887,-0.547 -1.817,-0.879 -2.977,-0.879 -1.164,0 -2.187,0.332 -3.078,0.957 v 0" /><path
         id="path128"
         style="fill:#1a67bb;fill-opacity:1;fill-rule:nonzero;stroke:none"
         d="m 511.035,86.1523 c -1.004,3.7305 -1.562,9.1524 -1.562,16.0817 0,6.926 0.558,12.325 1.562,16.153 1.035,3.832 2.922,5.746 5.598,5.746 2.715,0 4.609,-1.914 5.644,-5.664 1.004,-3.813 1.563,-9.231 1.563,-16.235 v 0 0 0 c 0,-6.9293 -0.559,-12.3512 -1.563,-16.0817 -1.113,-3.8281 -3,-5.7421 -5.644,-5.7421 -2.676,0 -4.563,1.914 -5.598,5.7421 v 0" /></g></g></svg>