<?xml version="1.0" encoding="UTF-8" standalone="no"?>
<svg
   xmlns:dc="http://purl.org/dc/elements/1.1/"
   xmlns:cc="http://creativecommons.org/ns#"
   xmlns:rdf="http://www.w3.org/1999/02/22-rdf-syntax-ns#"
   xmlns:svg="http://www.w3.org/2000/svg"
   xmlns="http://www.w3.org/2000/svg"
   viewBox="0 0 94.493332 132.28"
   height="132.28"
   width="94.493332"
   xml:space="preserve"
   id="svg2"
   version="1.1"><metadata
     id="metadata8"><rdf:RDF><cc:Work
         rdf:about=""><dc:format>image/svg+xml</dc:format><dc:type
           rdf:resource="http://purl.org/dc/dcmitype/StillImage" /></cc:Work></rdf:RDF></metadata><defs
     id="defs6" /><g
     transform="matrix(1.3333333,0,0,-1.3333333,0,132.28)"
     id="g10"><g
       transform="scale(0.1)"
       id="g12"><path
         id="path14"
         style="fill:#231f20;fill-opacity:1;fill-rule:nonzero;stroke:none"
         d="M 0,0 V 992.129 H 708.66 V 0 H 0 M 1.45703,1.45703 H 707.285 V 990.746 H 1.45703 V 1.45703" /><path
         id="path16"
         style="fill:#1a67bb;fill-opacity:1;fill-rule:nonzero;stroke:none"
         d="M 14.2188,14.2188 V 977.98 H 694.512 V 14.2188 H 14.2188 M 106.344,389.797 H 602.395 V 885.824 H 106.344 V 389.797" /><path
         id="path18"
         style="fill:#ee2c30;fill-opacity:1;fill-rule:nonzero;stroke:none"
         d="m 322.422,821.781 v -20.664 h 21.164 l -0.469,-50.937 v 0 c -14.609,-6.371 -24.836,-20.918 -24.836,-37.907 v 0 -231.543 0 c 0,-22.82 18.496,-41.328 41.328,-41.328 22.825,0 41.329,18.508 41.329,41.328 v 0 l 0.136,231.325 v 0 c 0,16.992 -10.359,32.078 -24.98,38.414 v 0 l 0.039,50.683 h 12.414 l 14.871,-28.117 h 29.738 l -29.738,48.781 -80.996,-0.035 v 0 m -15.703,-10.332 -90.934,24.805 v -49.609 l 90.934,24.804" /></g></g></svg>