<?xml version="1.0" encoding="UTF-8" standalone="no"?>
<svg
   xmlns:dc="http://purl.org/dc/elements/1.1/"
   xmlns:cc="http://creativecommons.org/ns#"
   xmlns:rdf="http://www.w3.org/1999/02/22-rdf-syntax-ns#"
   xmlns:svg="http://www.w3.org/2000/svg"
   xmlns="http://www.w3.org/2000/svg"
   viewBox="0 0 330.70667 651.97333"
   height="651.97333"
   width="330.70667"
   xml:space="preserve"
   id="svg2"
   version="1.1"><metadata
     id="metadata8"><rdf:RDF><cc:Work
         rdf:about=""><dc:format>image/svg+xml</dc:format><dc:type
           rdf:resource="http://purl.org/dc/dcmitype/StillImage" /></cc:Work></rdf:RDF></metadata><defs
     id="defs6" /><g
     transform="matrix(1.3333333,0,0,-1.3333333,0,651.97333)"
     id="g10"><g
       transform="scale(0.1)"
       id="g12"><path
         id="path14"
         style="fill:#231f20;fill-opacity:1;fill-rule:nonzero;stroke:none"
         d="m 410.227,3484.24 h 741.363 v 247.01 l -64.1,39.2 v 0 c -23.44,-17.13 -45.72,-30.61 -51.47,-35.64 v 0 l -0.65,-126.97 h -15.16 l -0.44,14.68 -57.637,56.87 -62.016,-55.44 0.055,-16.47 -9.785,-0.25 v 33.75 l -61.473,26.13 -0.902,11.72 -19.574,22.8 -20.481,-22.24 -0.394,-12.28 -53.856,-24.93 v -74.71 l -17.59,-0.89 -0.726,24.38 -47.504,365.56 -67.297,-344.44 1.887,-45.5 h -15.149 l 0.07,62.65 -87.082,58.07 -89.73,-56.75 -0.359,-146.31 v 0" /><path
         id="path16"
         style="fill:#231f20;fill-opacity:1;fill-rule:nonzero;stroke:none"
         d="m 410.98,2546.14 h 739.81 v 246.49 l -63.97,39.12 v 0 c -23.38,-17.09 -45.62,-30.54 -51.36,-35.56 v 0 l -0.65,-126.71 h -15.12 l -0.44,14.66 -57.516,56.74 -61.894,-55.31 0.066,-16.44 -9.758,-0.25 v 33.67 l -61.355,26.08 -0.898,11.7 -19.536,22.75 -20.441,-22.2 -0.395,-12.25 -53.738,-24.87 v -74.56 l -17.547,-0.88 -0.73,24.32 -47.399,364.79 -67.156,-343.72 1.879,-45.39 h -15.117 l 0.062,62.51 -86.886,57.95 -89.551,-56.63 -0.36,-146.01 v 0" /><path
         id="path18"
         style="fill:#1a67bb;fill-opacity:1;fill-rule:nonzero;stroke:none"
         d="M 28.3555,28.3516 V 4861.44 H 2452 V 28.3516 H 28.3555 M 212.563,2196.52 V 1275.09 H 2267.79 v 921.43 H 212.563 m 0,992.29 V 2267.38 H 2267.79 v 921.43 H 212.563 m 0,992.28 V 3259.67 H 2267.79 v 921.42 H 212.563 m 0,-2976.83 V 282.844 H 2267.79 V 1204.26 H 212.563 M 1240.16,4782.64 c -206.86,0 -374.629,-111.12 -374.629,-248.09 0,-136.98 167.769,-248.09 374.629,-248.09 206.87,0 374.63,111.11 374.63,248.09 0,136.97 -167.76,248.09 -374.63,248.09 v 0" /><path
         id="path20"
         style="fill:#ee2c30;fill-opacity:1;fill-rule:nonzero;stroke:none"
         d="m 1913.39,4059.79 c -88.56,26.14 -176.68,18.19 -259.17,-23.37 -82.45,-41.5 -141.36,-107.57 -173.13,-194.25 -31.84,-86.74 -29.65,-175.17 6.41,-260.2 36.04,-84.98 98.1,-148.08 182.5,-185.49 196.5,-87.05 424.59,19.62 483.75,226.23 53.55,187 -53.79,382.21 -240.36,437.08 v 0 m -33.54,-113.45 c 124.35,-36.61 195.9,-166.71 160.19,-291.35 -39.45,-137.65 -191.42,-208.8 -322.4,-150.74 -56.23,24.9 -97.6,66.94 -121.65,123.59 -24,56.7 -25.44,115.67 -4.26,173.43 21.2,57.78 60.45,101.8 115.41,129.5 54.95,27.66 113.7,32.98 172.71,15.57 v 0 m -237.93,-35.95 40.23,29.74 -8.04,10.92 -28.23,-20.88 -13.09,17.73 18.87,13.92 -8.03,10.89 -18.88,-13.89 -11.12,15.07 28.23,20.82 -8.05,10.93 -40.22,-29.75 48.33,-65.5 m 53.92,37.63 12.64,4.86 -19.21,49.91 42.15,-41.06 16.51,6.33 -29.25,76.01 -12.64,-4.87 19.65,-51.06 -42.9,42.13 -16.23,-6.25 29.28,-76 m 204.52,13.03 45.15,-21.5 5.81,12.28 -31.67,15.06 9.45,19.9 21.15,-10.09 5.85,12.22 -21.18,10.08 8.06,16.92 31.68,-15.06 5.85,12.28 -45.16,21.47 -34.99,-73.56 m -309.28,-31.67 17.69,-13.84 v 0 c 1.16,-0.9 2.33,-2.04 3.34,-3.06 2.97,-3.09 5.19,-6.78 6.55,-10.89 1.44,-4.59 1.73,-9.42 0.71,-14.1 -0.9,-4.11 -2.78,-7.93 -5.37,-11.2 -2.71,-3.56 -6.23,-6.48 -10.23,-8.43 -3.87,-1.82 -8.1,-2.73 -12.39,-2.61 -4.46,0.09 -8.97,1.23 -12.9,3.52 -1.43,0.8 -2.78,1.77 -4.14,2.79 v 0 l -22.2,17.4 v 0 c -1.64,1.26 -3.18,2.85 -4.53,4.47 -2.61,3.06 -4.38,6.71 -5.4,10.59 -1.04,4.02 -1.26,8.25 -0.51,12.33 0.86,4.53 2.93,8.73 5.82,12.36 2.55,3.25 5.77,6.03 9.48,7.86 3.51,1.71 7.38,2.58 11.29,2.67 3.33,0 6.67,-0.54 9.81,-1.76 0.63,-0.22 1.43,-0.57 2,-0.85 v 0 l -9.11,-11.7 v 0 c -0.45,0.09 -1.09,0.24 -1.56,0.28 -2.17,0.32 -4.43,-0.13 -6.45,-1.09 -2.07,-0.92 -3.82,-2.46 -5.23,-4.32 -1.76,-2.34 -2.9,-5.22 -2.94,-8.13 -0.05,-2.52 0.66,-5.04 2.19,-7.02 0.75,-0.99 1.71,-1.88 2.7,-2.64 v 0 l 25.41,-19.9 v 0 c 1.08,-0.84 2.34,-1.65 3.64,-2.13 2.33,-0.9 5.06,-0.72 7.5,0.04 2.79,0.81 5.39,2.43 7.19,4.77 1.74,2.25 2.71,5.04 2.71,7.92 0,2.46 -0.74,4.89 -2.16,6.9 -0.81,1.14 -1.81,2.13 -2.88,2.97 v 0 l -8.56,6.72 -7.7,-9.96 -10.71,8.37 16.94,21.67 v 0 m 485.96,-0.27 -9,11.91 -65.05,-48.97 28.03,-37.17 10.83,8.12 -19.01,25.26 54.2,40.85 m -246.57,47.01 14.62,80.15 34.64,-6.31 v 0 c 1.24,-0.23 2.81,-0.8 3.97,-1.32 3.59,-1.47 6.73,-3.93 8.96,-7.08 2.47,-3.51 3.85,-7.65 3.85,-11.95 0,-1.49 -0.12,-3.03 -0.4,-4.55 v 0 l -0.53,-3.07 v 0 c -0.27,-1.49 -0.69,-2.93 -1.16,-4.31 -1.1,-3.03 -2.83,-5.67 -5.18,-7.87 -3.04,-2.93 -6.92,-4.85 -11.12,-5.58 -0.51,-0.09 -1.29,-0.23 -1.83,-0.27 v 0 l 11.43,-38.22 -16.38,2.97 -11.2,38.17 -8.63,1.59 -6.32,-34.99 -14.72,2.64 v 0 m 191.71,7.84 -11.45,9.54 -52.12,-62.56 35.72,-29.76 8.7,10.38 -24.3,20.25 43.45,52.15 m -257.28,-12.32 49.79,4.63 -1.26,13.53 -34.91,-3.21 -2.07,21.87 23.37,2.16 -1.26,13.53 -23.37,-2.19 -1.71,18.67 34.91,3.23 -1.26,13.54 -50.27,-5.1 8.04,-80.66 m 89.09,50.18 17.97,-3.3 v 0 c 0.81,-0.18 1.72,-0.22 2.58,-0.12 1.11,0.09 2.18,0.48 3.15,1.11 1.02,0.72 1.84,1.68 2.43,2.85 0.31,0.72 0.62,1.53 0.74,2.28 v 0 l 0.61,3.12 v 0 c 0.12,0.72 0.17,1.53 0.17,2.28 -0.05,1.14 -0.33,2.25 -0.9,3.3 -0.72,1.2 -1.79,2.13 -3.02,2.76 -0.63,0.33 -1.45,0.69 -2.07,0.79 v 0 l -18.33,3.35 -3.33,-18.42 v 0 m -40.9,-939.3 c -195.67,0 -354.32,-158.69 -354.32,-354.39 0,-195.7 158.65,-354.38 354.32,-354.38 195.68,0 354.33,158.68 354.33,354.38 0,195.7 -158.65,354.39 -354.33,354.39 v 0 m 0.01,-118.12 c -130.43,0 -236.22,-105.79 -236.22,-236.26 0,-130.46 105.79,-236.25 236.22,-236.25 130.44,0 236.23,105.79 236.23,236.25 0,130.47 -105.79,236.26 -236.23,236.26 v 0 m -0.09,-1866.47 c -195.65,0 -354.32,-158.684 -354.32,-354.383 0,-195.688 158.67,-354.375 354.32,-354.375 195.68,0 354.34,158.687 354.34,354.375 0,195.699 -158.66,354.383 -354.34,354.383 v 0 m 0.03,-118.106 c -130.45,0 -236.23,-105.793 -236.23,-236.261 0,-130.458 105.78,-236.25 236.23,-236.25 130.43,0 236.21,105.792 236.21,236.25 0,130.468 -105.78,236.261 -236.21,236.261 v 0 m -0.03,1110.406 c -195.7,0 -354.35,-158.69 -354.35,-354.42 0,-195.74 158.65,-354.42 354.35,-354.42 195.72,0 354.37,158.68 354.37,354.42 0,195.73 -158.65,354.42 -354.37,354.42 v 0 m 0,-118.17 c -130.45,0 -236.24,-105.8 -236.24,-236.27 0,-130.47 105.79,-236.27 236.24,-236.27 130.45,0 236.22,105.8 236.22,236.27 0,130.47 -105.77,236.27 -236.22,236.27 v 0" /><path
         id="path22"
         style="fill:#ee2c30;fill-opacity:1;fill-rule:nonzero;stroke:none"
         d="m 469.652,2472.15 567.168,567.25 55.32,-55.31 -567.167,-567.28 -55.321,55.34" /><path
         id="path24"
         style="fill:#231f20;fill-opacity:1;fill-rule:nonzero;stroke:none"
         d="M 0,0 V 4889.77 H 2480.32 V 0 H 0 M 1.42969,1.42578 H 2478.92 V 4888.38 H 1.42969 V 1.42578" /><path
         id="path26"
         style="fill:#231f20;fill-opacity:1;fill-rule:nonzero;stroke:none"
         d="m 1740.9,2820.6 c 5.37,0.07 10.59,-2.27 14.62,-5.8 4.32,-3.75 6.49,-9.37 6.84,-15.01 0.25,-4.36 -0.86,-9.3 -2.31,-13.47 -1.18,-3.42 -2.55,-6.77 -4.19,-10.01 -1.27,-2.6 -3.14,-5.69 -5.38,-7.53 -2.62,-2.23 -6.01,-3.35 -9.5,-3.31 -3.46,0 -6.84,1.22 -9.5,3.49 -1.81,1.52 -3.43,3.97 -4.65,5.98 -2.12,3.61 -4.03,7.52 -5.39,11.49 -1.46,4.1 -2.35,8.67 -2.06,13.03 0.4,5.36 2.37,10.81 6.26,14.51 4.18,3.96 9.51,6.55 15.26,6.63 v 0 m 0.19,-89.99 c 3.24,-0.21 6.33,-1.51 8.96,-3.38 1.8,-1.29 3.53,-3.5 4.79,-5.29 2.73,-3.96 5.05,-8.31 6.91,-12.75 2.78,-6.44 4.79,-13.18 5.94,-20.05 1.18,-6.74 1.58,-14.05 0.18,-20.74 -1.16,-5.8 -3.64,-11.49 -7.74,-15.77 -4.86,-5.19 -11.59,-8.18 -18.68,-8.47 -8,-0.36 -15.77,2.67 -21.32,8.47 -4.13,4.28 -6.65,9.93 -7.78,15.8 -1.26,6.55 -0.64,14.19 0.48,20.74 1.15,6.81 2.88,13.54 5.18,20.05 1.69,4.76 4.06,10.27 7.34,14.08 1.88,2.13 4.11,4.15 6.74,5.29 2.77,1.27 5.93,2.21 9,2.02 v 0 m 0,123.69 c 4.14,-0.14 10.22,-0.47 14.26,-1.26 4.93,-1 9.67,-2.77 14.07,-5.25 9.53,-5.41 17.14,-13.65 21.96,-23.56 3.97,-8.06 5.79,-17.17 6.01,-26.21 0.22,-8.82 -1.16,-17.68 -4.18,-25.97 -2.54,-7.09 -6.37,-13.75 -10.94,-19.75 -0.61,-0.84 -1.62,-2.09 -2.27,-2.92 0.46,-0.61 1.37,-1.7 1.8,-2.35 6.81,-9.14 12.54,-19.22 16.39,-29.96 3.84,-10.8 5.83,-22.28 6.34,-33.73 0.31,-8.97 -0.26,-18.34 -2.56,-26.93 -2.42,-8.97 -6.59,-17.4 -12.54,-24.49 -5.68,-6.74 -12.85,-12.03 -20.81,-15.85 -8.46,-4.03 -17.68,-6.3 -27.06,-6.4 -8.93,-0.08 -17.75,1.83 -25.93,5.47 -8.32,3.75 -15.73,9.25 -21.63,16.17 -5.84,6.73 -10.12,14.65 -12.69,23.22 -2.87,9.47 -3.48,20.06 -3.01,29.96 0.58,11.7 2.56,23.51 6.63,34.49 3.59,10.02 8.86,19.31 15.37,27.7 0.5,0.64 1.34,1.69 1.84,2.3 -0.4,0.5 -1.13,1.4 -1.55,1.91 -5.37,6.7 -9.36,14.48 -12.1,22.65 -2.6,7.81 -3.96,16.02 -3.92,24.23 0.04,9.61 2.04,19.3 6.51,27.76 5.88,10.99 15.41,19.55 26.93,24.42 3.93,1.65 7.99,2.84 12.16,3.48 3.13,0.48 7.76,0.73 10.92,0.87 v 0 m 146.98,-35.11 c 2.75,0.07 5.44,-0.54 7.85,-1.84 2.36,-1.22 4.26,-3.41 5.7,-5.61 2.34,-3.64 3.99,-8.83 5.08,-13.03 1.87,-7.17 3.32,-14.51 4.43,-21.86 1.11,-7.57 1.93,-15.23 2.48,-22.9 0.5,-7.85 0.82,-15.7 0.75,-23.59 -0.04,-8.86 -0.42,-17.75 -1.19,-26.64 -0.78,-8.9 -2.04,-18.15 -3.96,-26.83 -1.36,-6.05 -3.12,-12.17 -5.48,-17.89 -1.21,-2.96 -2.77,-6.09 -4.63,-8.71 -1.26,-1.74 -2.85,-3.43 -4.64,-4.65 -1.98,-1.26 -4.29,-2.05 -6.66,-2.16 -2.78,-0.18 -5.66,0.47 -7.96,2.09 -1.66,1.11 -3.16,2.98 -4.29,4.68 -1.8,2.7 -3.31,5.65 -4.57,8.68 -2.34,5.61 -3.96,12.06 -5.08,18 -1.58,8.46 -2.62,18.69 -3.32,27.25 -0.63,8.43 -1.26,18.19 -1.26,26.62 0,7.77 0.48,15.7 1.26,23.47 0.8,7.67 1.92,15.41 3.26,23.08 1.21,6.95 2.77,14.23 4.59,21.03 1.25,4.43 3.11,9.72 5.66,13.47 1.48,2.12 3.39,4.24 5.68,5.47 1.92,0.97 4.11,1.73 6.3,1.87 v 0 m -0.24,35.11 c 5.08,0 10.34,-1.05 15.23,-2.52 10.65,-3.21 19.81,-10.77 26.53,-19.62 5.87,-7.75 10.15,-17.03 13.22,-26.25 2.95,-8.86 4.96,-18.08 6.37,-27.34 1.4,-9.46 2.11,-19.33 2.48,-28.91 0.33,-11.09 0.22,-22.21 -0.53,-33.3 -0.74,-10.38 -1.99,-20.67 -3.87,-30.9 -2.12,-11.67 -5.19,-23.55 -9.49,-34.57 -3.93,-9.97 -9.62,-20.73 -17.46,-27.94 -8.79,-8.1 -20.17,-12.82 -32.11,-13.21 -11.28,-0.44 -22.44,2.99 -31.29,10.01 -9.55,7.48 -16.21,20.09 -20.42,31.54 -4.03,10.91 -6.84,22.5 -8.63,34 -1.63,10.04 -2.67,20.8 -3.39,30.96 -0.72,9.97 -1.19,21.17 -0.76,31.21 0.43,10.27 1.79,20.93 3.53,31.04 1.55,8.9 3.6,18.3 6.33,26.93 2.92,9.27 7.09,18.77 12.89,26.55 6.95,9.29 16.52,16.99 27.68,20.12 4.36,1.22 9.18,2.2 13.69,2.2 v 0 m -180.27,-1986.773 0.8,-238.836 h -34.73 l -0.95,179.524 v 0 c -0.57,-0.449 -1.45,-1.328 -2.01,-1.828 -1.77,-1.621 -3.63,-3.211 -5.55,-4.621 -2.37,-1.832 -5.53,-3.875 -8.05,-5.465 -2.13,-1.41 -5.05,-3.203 -7.32,-4.281 -0.83,-0.387 -2.05,-0.946 -2.92,-1.27 v 0 l -17.49,29.172 v 0 c 0.89,0.469 1.93,1.074 2.84,1.582 4.39,2.488 9.07,5.41 13.11,8.437 5.08,3.848 9.71,8.274 13.64,13.235 4.03,5.047 7.41,10.699 10.19,16.531 1.11,2.273 2.52,5.477 3.56,7.82 v 0 h 34.88 v 0 m 225.53,-32.515 c 2.73,0.144 5.43,-0.512 7.83,-1.762 2.32,-1.23 4.22,-3.418 5.67,-5.594 2.33,-3.633 3.99,-8.855 5.07,-13 1.84,-7.183 3.3,-14.453 4.4,-21.804 1.18,-7.532 1.97,-15.196 2.48,-22.84 0.57,-7.856 0.82,-15.657 0.79,-23.508 0,-8.887 -0.44,-17.742 -1.23,-26.582 -0.78,-8.887 -2.04,-18.106 -3.96,-26.785 -1.33,-5.996 -3.1,-12.129 -5.43,-17.864 -1.21,-2.91 -2.77,-6.046 -4.64,-8.632 -1.26,-1.739 -2.82,-3.418 -4.61,-4.661 -1.98,-1.277 -4.29,-2.039 -6.66,-2.144 -2.78,-0.188 -5.62,0.469 -7.92,2.09 -1.66,1.121 -3.13,2.976 -4.26,4.676 -1.83,2.664 -3.34,5.625 -4.6,8.613 -2.35,5.605 -3.93,11.98 -5,17.969 -1.59,8.464 -2.64,18.652 -3.32,27.175 -0.68,8.364 -1.3,18.149 -1.3,26.543 0.04,7.778 0.51,15.657 1.3,23.442 0.8,7.664 1.87,15.371 3.2,23.015 1.23,6.868 2.75,14.18 4.61,20.957 1.26,4.422 3.07,9.637 5.62,13.418 1.48,2.129 3.39,4.246 5.68,5.469 1.96,0.977 4.11,1.738 6.28,1.809 v 0 m -0.18,35.144 c 5.04,0 10.33,-1.047 15.19,-2.519 10.61,-3.211 19.72,-10.735 26.42,-19.59 5.87,-7.703 10.16,-16.965 13.18,-26.145 2.95,-8.867 5,-18.047 6.37,-27.261 1.4,-9.457 2.12,-19.297 2.49,-28.871 0.32,-11.063 0.21,-22.157 -0.54,-33.192 -0.69,-10.344 -1.95,-20.637 -3.87,-30.801 -2.11,-11.66 -5.13,-23.507 -9.46,-34.48 -3.89,-9.953 -9.58,-20.664 -17.41,-27.883 -8.76,-8.066 -20.14,-12.773 -32.02,-13.176 -11.26,-0.437 -22.38,2.989 -31.21,9.973 -9.55,7.5 -16.17,20.059 -20.37,31.473 -4.04,10.879 -6.81,22.433 -8.65,33.91 -1.59,10.027 -2.64,20.75 -3.38,30.867 -0.69,9.93 -1.15,21.133 -0.73,31.152 0.44,10.215 1.77,20.84 3.54,30.926 1.55,8.899 3.56,18.266 6.29,26.856 2.93,9.257 7.05,18.73 12.89,26.503 6.99,9.258 16.46,16.926 27.59,20.059 4.35,1.223 9.2,2.199 13.68,2.199 v 0 m -76.59,-209.785 v -31.68 h -124.27 l -0.03,20.957 v 0 c -0.08,5.469 1.89,13.68 3.3,18.887 1.55,5.84 3.86,11.758 6.3,17.219 4.58,10.016 10.2,19.695 16.25,28.836 4.7,7.004 11.08,15.605 16.19,22.305 0.98,1.257 4.69,6.191 5.66,7.453 v 0 l 31.29,40.047 v 0 c 1.94,2.539 6.87,8.855 8.31,11.699 1.95,3.926 3.06,8.164 3.14,12.453 0.06,6.266 -2.17,12.281 -6.1,17.098 -5.39,6.738 -13.53,10.769 -22.14,10.664 -6.91,-0.079 -13.53,-3.028 -18.46,-7.813 -4.14,-4.031 -6.99,-9.18 -7.96,-14.844 -0.39,-2.336 -0.39,-5.949 -0.39,-8.3 v 0 -7.942 l -35.22,-0.058 v 0 c -0.14,1.867 -0.17,4.574 -0.17,6.449 0,2.398 0.11,4.812 0.28,7.222 0.18,2.18 0.44,4.407 0.79,6.555 0.21,1.699 0.55,3.418 0.91,5.117 2.98,13.36 11.12,25.059 21.96,33.418 10.83,8.418 24.12,13.25 37.9,13.328 14.52,0.11 28.6,-4.91 39.89,-13.984 9.83,-7.957 17.04,-18.672 20.6,-30.769 1.68,-5.594 2.52,-11.379 2.52,-17.149 0.07,-6.699 -0.9,-13.332 -2.81,-19.695 -1.15,-3.664 -2.67,-7.317 -4.57,-10.617 -1.69,-3.079 -3.85,-6.043 -6.06,-8.836 v 0 l -46.5,-59.621 v 0 c -1.45,-1.868 -3.43,-4.395 -4.86,-6.27 -2.35,-3.137 -5.08,-6.836 -7.24,-10.148 -2.99,-4.825 -5.69,-10.125 -8.07,-15.301 -1.55,-3.418 -3.31,-7.785 -4.03,-11.453 -0.28,-1.516 -0.58,-3.743 -0.75,-5.227 v 0 h 84.34 v 0 m -145.4,1199.379 0.82,-238.88 h -34.77 l -0.94,179.54 v 0 c -0.58,-0.48 -1.44,-1.34 -2.02,-1.81 -1.76,-1.67 -3.63,-3.23 -5.55,-4.64 -2.37,-1.84 -5.53,-3.85 -8.05,-5.48 -2.13,-1.36 -5.04,-3.21 -7.32,-4.28 -0.82,-0.39 -2.04,-0.9 -2.91,-1.26 v 0 l -17.5,29.17 v 0 c 0.91,0.47 1.95,1.07 2.85,1.62 4.4,2.44 9.08,5.36 13.11,8.38 5.07,3.85 9.72,8.28 13.63,13.25 4.04,5.04 7.43,10.73 10.21,16.53 1.11,2.31 2.52,5.5 3.55,7.86 v 0 h 34.89 v 0 m 79.02,-32.52 c 2.74,0.1 5.44,-0.54 7.85,-1.8 2.3,-1.19 4.24,-3.43 5.64,-5.58 2.36,-3.64 4.01,-8.85 5.13,-13 1.8,-7.21 3.27,-14.48 4.42,-21.78 1.12,-7.57 1.92,-15.25 2.45,-22.87 0.54,-7.84 0.8,-15.67 0.75,-23.52 0,-8.87 -0.42,-17.71 -1.22,-26.57 -0.8,-8.9 -1.98,-18.11 -3.95,-26.78 -1.34,-6.02 -3.1,-12.15 -5.44,-17.87 -1.23,-2.92 -2.74,-6.05 -4.62,-8.63 -1.3,-1.74 -2.83,-3.42 -4.64,-4.64 -1.97,-1.31 -4.28,-2.07 -6.63,-2.18 -2.79,-0.17 -5.64,0.48 -7.96,2.09 -1.64,1.13 -3.12,2.99 -4.24,4.69 -1.83,2.66 -3.34,5.6 -4.6,8.6 -2.35,5.66 -3.93,12 -5.01,18.01 -1.58,8.42 -2.63,18.6 -3.3,27.15 -0.7,8.36 -1.3,18.14 -1.27,26.52 0,7.78 0.47,15.68 1.27,23.46 0.78,7.67 1.9,15.36 3.19,23 1.24,6.87 2.74,14.22 4.65,20.95 1.23,4.44 3.02,9.69 5.57,13.43 1.48,2.13 3.43,4.26 5.7,5.49 1.94,1.01 4.11,1.73 6.26,1.83 v 0 m -0.22,35.14 c 5.08,0 10.37,-1.05 15.23,-2.52 10.66,-3.2 19.73,-10.76 26.47,-19.6 5.86,-7.68 10.11,-16.99 13.17,-26.17 2.91,-8.85 5.02,-18.03 6.34,-27.26 1.45,-9.47 2.16,-19.29 2.48,-28.87 0.39,-11.05 0.25,-22.14 -0.53,-33.19 -0.69,-10.35 -1.95,-20.59 -3.82,-30.8 -2.12,-11.66 -5.19,-23.51 -9.51,-34.5 -3.89,-9.93 -9.57,-20.66 -17.42,-27.85 -8.75,-8.07 -20.12,-12.79 -32.01,-13.18 -11.27,-0.44 -22.36,2.98 -31.25,9.97 -9.5,7.48 -16.16,20.06 -20.34,31.46 -3.99,10.88 -6.77,22.44 -8.64,33.93 -1.59,10 -2.63,20.73 -3.35,30.86 -0.72,9.97 -1.15,21.14 -0.75,31.14 0.44,10.23 1.76,20.85 3.56,30.93 1.51,8.89 3.54,18.25 6.26,26.9 2.96,9.21 7.1,18.68 12.93,26.47 6.91,9.23 16.42,16.9 27.54,20.05 4.35,1.22 9.22,2.23 13.64,2.23 v 0 m 140.96,-35.14 c 2.72,0.1 5.43,-0.54 7.84,-1.8 2.3,-1.19 4.21,-3.43 5.66,-5.58 2.33,-3.64 3.99,-8.85 5.07,-13 1.84,-7.21 3.3,-14.48 4.4,-21.78 1.18,-7.57 1.97,-15.25 2.48,-22.87 0.57,-7.84 0.82,-15.67 0.79,-23.52 0,-8.88 -0.44,-17.71 -1.23,-26.57 -0.78,-8.9 -2.04,-18.11 -3.96,-26.78 -1.34,-6.02 -3.1,-12.15 -5.44,-17.87 -1.22,-2.92 -2.77,-6.05 -4.63,-8.63 -1.27,-1.74 -2.82,-3.42 -4.62,-4.64 -1.98,-1.31 -4.28,-2.07 -6.65,-2.18 -2.78,-0.17 -5.62,0.48 -7.93,2.09 -1.66,1.13 -3.13,2.99 -4.24,4.69 -1.84,2.66 -3.35,5.6 -4.61,8.6 -2.34,5.66 -3.93,12 -5,18.01 -1.59,8.42 -2.63,18.6 -3.32,27.15 -0.68,8.36 -1.3,18.14 -1.3,26.52 0.04,7.78 0.51,15.68 1.3,23.46 0.8,7.67 1.87,15.36 3.21,23 1.22,6.87 2.73,14.22 4.6,20.95 1.26,4.44 3.07,9.69 5.63,13.43 1.47,2.13 3.38,4.26 5.67,5.49 1.95,1.01 4.11,1.73 6.28,1.83 v 0 m -0.22,35.14 c 5.07,0 10.34,-1.05 15.19,-2.52 10.62,-3.2 19.74,-10.76 26.42,-19.6 5.88,-7.68 10.15,-16.99 13.18,-26.17 2.96,-8.85 5,-18.03 6.38,-27.26 1.39,-9.47 2.12,-19.29 2.48,-28.87 0.36,-11.05 0.21,-22.14 -0.55,-33.19 -0.67,-10.35 -1.93,-20.59 -3.84,-30.8 -2.13,-11.66 -5.15,-23.51 -9.47,-34.5 -3.86,-9.93 -9.58,-20.66 -17.43,-27.85 -8.75,-8.07 -20.13,-12.79 -31.98,-13.18 -11.25,-0.44 -22.42,2.98 -31.23,9.97 -9.55,7.48 -16.18,20.06 -20.38,31.46 -4.03,10.88 -6.8,22.44 -8.65,33.93 -1.57,10 -2.63,20.73 -3.38,30.86 -0.69,9.97 -1.15,21.14 -0.71,31.14 0.42,10.23 1.76,20.85 3.53,30.93 1.53,8.89 3.55,18.25 6.29,26.9 2.92,9.21 7.05,18.68 12.89,26.47 6.98,9.23 16.45,16.9 27.61,20.05 4.32,1.22 9.18,2.23 13.65,2.23 v 0 m -40.07,1978.84 c -4.48,0 -9.23,-0.98 -13.53,-2.18 -11.06,-3.13 -20.52,-10.71 -27.39,-19.93 -5.76,-7.71 -9.86,-17.1 -12.75,-26.28 -2.73,-8.56 -4.74,-17.83 -6.29,-26.65 -1.72,-10.02 -3.04,-20.55 -3.49,-30.72 -0.43,-9.93 0.07,-21 0.75,-30.9 0.72,-10.03 1.74,-20.68 3.33,-30.61 1.84,-11.4 4.56,-22.89 8.59,-33.7 4.12,-11.28 10.74,-23.76 20.18,-31.2 8.76,-6.93 19.8,-10.33 30.93,-9.9 11.82,0.39 23.09,5.07 31.78,13.08 7.76,7.14 13.4,17.79 17.27,27.66 4.29,10.92 7.32,22.66 9.41,34.21 1.84,10.11 3.1,20.31 3.81,30.58 0.76,10.97 0.88,21.99 0.52,32.94 -0.33,9.51 -1.05,19.27 -2.42,28.66 -1.39,9.14 -3.4,18.27 -6.35,27.03 -3,9.12 -7.24,18.33 -13.04,25.98 -6.66,8.76 -15.69,16.23 -26.27,19.45 -4.81,1.44 -10,2.48 -15.04,2.48 v 0 m -94.16,-2.51 h -113.22 v -124.94 l 33.3,-7.92 v 0 c 0.22,0.71 0.6,1.83 0.91,2.58 0.48,1.11 1.14,2.22 1.76,3.21 2.19,3.18 4.99,5.91 8.25,7.92 4.23,2.58 9.04,3.99 13.98,3.97 5.7,-0.06 11.31,-1.96 15.64,-5.59 3.87,-3.27 6.72,-8.31 8.63,-12.96 1.59,-3.87 2.9,-7.86 3.75,-12 1.09,-4.98 1.63,-10.08 1.63,-15.24 0.05,-4.8 -0.4,-9.61 -1.29,-14.29 -0.84,-4.68 -2.22,-9.42 -4.38,-13.68 -2.14,-4.29 -5.11,-8.25 -8.96,-11.13 -4.36,-3.18 -9.55,-4.96 -14.93,-5.08 -5.3,-0.08 -10.48,1.42 -14.91,4.33 -4.13,2.73 -7.41,6.45 -9.41,10.92 -0.57,1.23 -1.2,3.03 -1.66,4.26 v 0 l -32.31,-9.36 v 0 c 0.27,-1.29 0.6,-3.15 0.96,-4.38 1.07,-3.93 3.18,-7.89 5.37,-11.28 3.52,-5.47 7.77,-10.63 12.75,-14.8 5.19,-4.35 11.23,-7.64 17.55,-10.02 7.41,-2.79 15.34,-4.29 23.25,-4.02 6.7,0.21 13.36,1.71 19.59,4.18 6.34,2.42 12.24,5.78 17.4,10.14 5.55,4.64 10.14,10.25 13.72,16.55 3.85,6.79 6.53,14.71 8.45,22.27 2.15,8.31 3.55,17.05 3.64,25.6 0.08,7.98 -1.08,16.38 -2.74,24.24 -1.61,7.77 -4.08,16.18 -7.76,23.23 -3.48,6.74 -8.16,12.77 -13.84,17.79 -5.63,5.04 -12.17,8.94 -19.22,11.6 -6.81,2.58 -14.08,3.94 -21.4,3.94 -6.92,0 -13.88,-1.2 -20.28,-3.96 -0.74,-0.37 -1.95,-0.87 -2.66,-1.2 v 0 52.87 h 78.44 v 32.25 0 m 94.43,-32.33 c 2.7,0.09 5.37,-0.51 7.72,-1.8 2.34,-1.21 4.23,-3.39 5.64,-5.55 2.3,-3.61 3.95,-8.73 5.04,-12.91 1.82,-7.07 3.27,-14.34 4.37,-21.6 1.12,-7.5 1.93,-15.09 2.43,-22.68 0.54,-7.77 0.84,-15.58 0.78,-23.34 -0.02,-8.77 -0.41,-17.59 -1.19,-26.35 -0.79,-8.82 -2.02,-18 -3.9,-26.58 -1.35,-5.97 -3.09,-12.03 -5.44,-17.74 -1.19,-2.91 -2.73,-6 -4.58,-8.58 -1.27,-1.74 -2.8,-3.39 -4.59,-4.62 -1.96,-1.23 -4.24,-2.01 -6.61,-2.13 -2.72,-0.18 -5.57,0.45 -7.85,2.06 -1.62,1.12 -3.12,2.95 -4.26,4.63 -1.75,2.67 -3.24,5.61 -4.51,8.61 -2.31,5.55 -3.9,11.92 -5.03,17.79 -1.54,8.4 -2.58,18.52 -3.25,26.98 -0.66,8.34 -1.25,18 -1.25,26.35 0,7.71 0.47,15.54 1.25,23.22 0.77,7.62 1.89,15.27 3.22,22.83 1.2,6.91 2.7,14.1 4.56,20.82 1.19,4.39 3.06,9.63 5.56,13.33 1.48,2.12 3.37,4.23 5.66,5.43 1.88,0.99 4.01,1.71 6.23,1.83 v 0" /><path
         id="path28"
         style="fill:#007f46;fill-opacity:1;fill-rule:nonzero;stroke:none"
         d="m 749.645,1071.82 h 17.773 l -4.5,-188.129 -60.434,-0.324 47.161,188.453 m 46.843,0 2.653,-188.453 h 59.761 l -45.304,188.453 h -17.11 m -234.5,-220.004 v -26.562 h 51.297 v -52.246 h 25.738 l 13.957,52.246 h 255.243 l 11.976,-52.246 h 25.699 v 52.246 h 53.821 v 26.562 H 561.988 M 681.371,799.063 586.055,415.137 h 166.918 l 8.277,383.293 -79.879,0.633 m 118.578,0 3.473,-383.926 H 969.336 L 878.848,799.063 H 799.949 M 530.75,389.109 h 500.26 V 1097.93 H 530.75 V 389.109 m 96.527,1396.261 v 0 c -13.211,-0.06 -23.953,-11.05 -24.082,-24.53 -0.054,-13.55 10.555,-24.64 23.84,-24.82 13.61,-0.22 24.817,10.95 24.817,24.82 -0.079,13.69 -11.153,24.61 -24.575,24.53 m 106.786,-24.63 v 0 h -45.821 l -3.078,0.13 v 0 c -1.297,0 -3.129,-0.08 -4.285,-0.53 -1.246,-0.4 -2.281,-1.19 -3.129,-2.13 -0.527,-0.6 -1.168,-1.73 -1.562,-2.39 v 0 l -22.122,-38.47 v 0 c -0.664,-1.11 -0.98,-2.47 -1.195,-3.8 -0.183,-2.12 0.402,-4.23 1.817,-5.85 1.566,-1.77 4.058,-2.56 6.39,-2.78 0.387,0 2.402,0 2.75,0 v 0 h 70.235 v 55.82 m 5.199,0 v 0 -55.82 H 823.5 v 55.82 h -84.238 m 90.14,0 v 0 -55.82 h 70.266 v 0 c 0.504,0 3.887,0 4.336,0.08 2.23,0.53 4.109,1.78 5.293,3.78 1.035,1.78 1.301,3.99 0.719,6.05 -0.27,1.01 -0.719,1.99 -1.239,2.9 v 0 l -21.812,37.29 v 0 c -0.266,0.48 -1.113,1.86 -1.434,2.33 -0.715,1 -1.699,1.93 -2.812,2.45 -1.289,0.67 -3.168,0.85 -4.606,0.94 -1.109,0 -2.886,0 -4.043,0 v 0 h -44.668 m 105.848,24.75 v 0 c -13.727,0.14 -25.062,-11.03 -25.012,-25.04 0.078,-13.61 10.891,-24.58 24.231,-24.72 13.605,-0.21 24.801,10.89 24.883,24.8 0.046,13.69 -10.696,24.82 -24.102,24.96 m -7.891,16.73 v 0 l -45.195,61.25 v 0 c -0.586,0.74 -1.289,1.58 -1.949,2.18 -0.77,0.67 -1.699,1.21 -2.68,1.55 -1.035,0.32 -2.203,0.53 -3.301,0.58 -0.98,0.07 -2.23,0.07 -3.183,0.07 v 0 H 690.945 v 0 c -0.98,0 -2.015,0 -2.98,-0.07 -1.113,-0.05 -2.414,-0.26 -3.449,-0.66 -1.114,-0.4 -2.094,-1.07 -2.852,-1.94 -0.476,-0.38 -1.062,-1.18 -1.383,-1.63 v 0 l -44.929,-59.96 v 0 c 1.246,0.08 2.55,0.14 3.793,0.27 v 0 l 65.41,4.32 v 0 c 18.039,0.8 51.633,1.09 69.73,1.22 21.688,0.14 57.824,0.14 79.414,-1.62 v 0 l 69.817,-5.64 v 0 c 1.031,0 2.785,0.08 3.843,0.08 m 18.571,-120.98 v 0 l 13.285,-0.08 v 0 c 0.531,0 2.332,0 2.863,0.14 1.238,0.34 2.274,1.12 2.985,2.18 0.851,1.28 1.167,2.91 1.25,4.4 0.05,1.46 -0.137,4.24 -0.266,5.7 -0.449,4.78 -0.582,9.71 -0.449,14.61 0.129,4.47 0.449,9.18 0.847,13.65 0.528,5.09 1.168,10.55 1.832,15.6 0.582,4.72 1.336,10.02 2.188,14.68 0.711,4.26 2.226,12.89 2.039,17.2 -0.262,5.65 -2.039,11.22 -4.762,16.21 -2.601,4.78 -6.195,8.96 -10.492,12.17 -3.113,2.31 -6.641,4.12 -10.262,5.39 -1.113,0.39 -2.675,0.91 -3.793,1.27 v 0 l -54.246,71.47 v 0 c -0.129,0.19 -2,2.65 -2.133,2.78 -0.847,0.94 -1.878,1.73 -3.05,2.21 -1.192,0.53 -2.621,0.79 -3.828,0.88 -0.985,0.05 -2.309,0.05 -3.266,0.05 v 0 H 685.375 v 0 c -0.582,0 -2.543,0 -3.129,0 -1.34,-0.05 -2.984,-0.27 -4.226,-0.85 -0.985,-0.48 -1.887,-1.27 -2.653,-2.01 -0.648,-0.73 -1.312,-1.47 -1.898,-2.26 v 0 l -52.531,-71.7 v 0 c -0.848,-0.13 -2.032,-0.26 -2.797,-0.45 -4.379,-0.88 -8.61,-2.99 -12.274,-5.59 -5.129,-3.73 -9.543,-8.49 -12.41,-14.21 -1.816,-3.61 -2.984,-7.57 -3.648,-11.57 -0.586,-3.66 -0.715,-7.43 -0.129,-11.14 0.207,-1.62 1.375,-5.95 1.773,-7.54 1.926,-7.68 3.172,-15.74 3.891,-23.63 0.523,-6.07 0.926,-14.7 1.164,-20.73 0.211,-5.45 0.476,-13.25 0.133,-18.62 -0.055,-1.45 -0.133,-3.92 0.211,-5.25 0.238,-1.04 0.769,-2.13 1.484,-2.85 0.848,-0.87 1.82,-1.46 2.934,-1.65 0.449,-0.14 2.675,-0.06 3.128,-0.06 v 0 l 13.29,0.06 v -52.49 0 c 0,-0.34 0,-2.85 0,-3.12 0.128,-1.14 0.371,-2.47 1.085,-3.35 0.719,-0.84 1.817,-1.31 2.879,-1.5 0.321,-0.09 2.016,-0.09 2.332,-0.09 v 0 h 18.5 v 0 c 0.325,0 3.184,0 3.504,0.09 0.914,0.26 1.766,0.71 2.403,1.46 0.714,0.85 1.109,2.11 1.242,3.32 v 0 3.51 45.06 l 4.297,-0.21 v 0 c 18.769,-1.07 44.605,-2.48 63.34,-3.18 20.07,-0.79 41.484,-1.4 61.523,-1.4 10.441,0 55.68,0.92 66.09,1.18 17.836,0.41 46.965,1.32 64.586,4.18 1.035,0.14 3.074,0.54 4.164,0.67 v 0 -47.7 0 c 0,-1.06 0.133,-2.17 0.347,-3.23 0.133,-0.69 0.372,-1.49 0.848,-2.07 0.488,-0.74 1.473,-1.14 2.399,-1.4 0.769,-0.19 1.753,-0.28 2.55,-0.28 v 0 h 19.637 v 0 c 0.981,0 2.149,0.09 3.121,0.35 0.926,0.27 1.91,0.8 2.488,1.6 0.504,0.79 0.719,2.11 0.774,3.04 0.133,0.93 0.133,1.93 0.133,2.81 v 0 52.29 M 530.715,1381.39 h 500.295 v 708.82 H 530.715 v -708.82" /><path
         id="path30"
         style="fill:#231f20;fill-opacity:1;fill-rule:nonzero;stroke:none"
         d="m 1212.66,4399.48 -1.66,42.77 v 0 c -7.16,-4.57 -14.72,-7.96 -23.5,-10.44 -8.78,-2.52 -18.86,-3.81 -30.2,-3.81 -27.3,0 -48.69,9.68 -64.61,29.37 -15.92,19.69 -23.9,48.24 -23.9,86.44 0,18.46 2.52,34.38 7.12,48.24 4.62,13.42 11.3,24.72 19.29,33.55 7.96,8.79 17.21,15.12 27.65,19.69 10.51,4.21 21.85,6.34 33.22,6.34 12.13,0 22.65,-1.69 31.43,-4.65 8.78,-3.35 16.78,-7.13 23.5,-10.91 v 0 l 1.66,42.38 v 0 c -6.3,2.94 -14.66,5.47 -25.16,7.98 -10.92,2.1 -22.64,3.36 -35.24,3.36 -20.56,0 -38.62,-3.78 -54.97,-10.88 -16.34,-7.16 -29.76,-17.68 -41.1,-30.67 -11.3,-13.43 -20.12,-29.34 -25.99,-47.41 -6.3,-18.47 -9.25,-38.56 -9.25,-60.8 0,-20.56 2.95,-40.29 8.38,-58.33 5.48,-18.03 13.44,-33.98 24.34,-47.84 10.9,-13.82 24.76,-24.33 41.53,-32.25 16.75,-8 36.5,-11.74 59.19,-11.74 10.89,0 21.37,0.86 31.89,2.52 10.43,2.06 19.28,4.18 26.38,7.09 v 0" /><path
         id="path32"
         style="fill:#231f20;fill-opacity:1;fill-rule:nonzero;stroke:none"
         d="m 1244.05,4393.22 h 45.32 v 132.55 h 94.36 v -132.55 h 45.33 v 292.79 h -45.33 v -122.05 h -94.36 v 122.05 h -45.32 v -292.79" /></g></g></svg>