<?xml version="1.0" encoding="UTF-8" standalone="no"?>
<svg
   xmlns:dc="http://purl.org/dc/elements/1.1/"
   xmlns:cc="http://creativecommons.org/ns#"
   xmlns:rdf="http://www.w3.org/1999/02/22-rdf-syntax-ns#"
   xmlns:svg="http://www.w3.org/2000/svg"
   xmlns="http://www.w3.org/2000/svg"
   viewBox="0 0 217.32001 103.93333"
   height="103.93333"
   width="217.32001"
   xml:space="preserve"
   id="svg2"
   version="1.1"><metadata
     id="metadata8"><rdf:RDF><cc:Work
         rdf:about=""><dc:format>image/svg+xml</dc:format><dc:type
           rdf:resource="http://purl.org/dc/dcmitype/StillImage" /></cc:Work></rdf:RDF></metadata><defs
     id="defs6" /><g
     transform="matrix(1.3333333,0,0,-1.3333333,0,103.93333)"
     id="g10"><g
       transform="scale(0.1)"
       id="g12"><path
         id="path14"
         style="fill:#007f46;fill-opacity:1;fill-rule:nonzero;stroke:none"
         d="M 42.5508,737.051 H 1587.44 V 42.5469 H 42.5508 V 737.051 M 85.0664,680.352 V 304.773 H 266.477 V 680.352 H 85.0664 m 1459.8536,0 h -181.4 V 304.773 h 181.4 V 680.352 M 600.953,640.75 c 0.07,54.793 -82.223,54.793 -82.187,0 -0.036,-54.789 82.226,-54.824 82.187,-0.031 v 0 0.031 0 M 766.809,368.633 c 11.16,11.953 11.16,30.527 0,42.515 v 0 h -85.754 v 72.29 l -54.254,87.152 h 43.379 l 32.765,-52.629 v 0 c 13.426,-2.883 26.746,5.398 30.09,18.719 v 0 l -47.551,76.425 h -83.558 v 0 c -12.633,-19.187 -36.649,-27.398 -58.356,-19.98 v 0 -64.367 H 474.809 V 489.086 H 577.59 v 26.461 l 24.66,-39.633 -42.371,-33.59 v -130.39 0 c 9.863,-9.543 25.519,-9.543 35.426,0 v 0 l 0.383,107.379 45.66,36.941 v -87.621 h 125.461 v 0 M 456.41,490.492 v 36.86 h -93.562 l 41.976,34.019 h -55.152 l -64.766,-52.445 64.766,-52.418 h 55.152 l -41.976,33.984 h 93.562 m 654.81,150.258 c 0.04,54.793 -82.26,54.793 -82.22,0 -0.04,-54.789 82.26,-54.824 82.22,-0.031 v 0 0.031 0 m 43.93,-151.664 v 0 39.672 h -68.73 v 64.367 0 c -21.7,-7.453 -45.79,0.793 -58.35,19.98 v 0 H 944.504 L 896.953,536.68 v 0 c 3.313,-13.36 16.633,-21.602 30.059,-18.719 v 0 l 32.761,52.629 h 43.407 l -54.242,-87.152 v -72.29 h -85.754 v 0 c -11.161,-11.988 -11.161,-30.562 0,-42.515 v 0 h 125.421 v 87.621 l 46.085,-36.504 v -107.816 0 c 9.9,-9.543 25.52,-9.571 35.42,0 v 0 130.39 l -42.37,33.59 24.66,39.633 v -26.461 h 102.75 m 111.99,38.266 h -93.57 v -36.86 h 93.57 l -42.01,-33.984 h 55.19 l 64.77,52.418 -64.77,52.445 h -55.19 l 42.01,-34.019 M 1118.82,106.348 h 21.53 v 141.73 h -18.9 l -31.65,-28.84 10.55,-15.226 18.47,18.859 V 106.348 m 66.28,29.843 v 0 c 3.05,-9.757 8.75,-14.621 16.67,-14.621 7.92,0 13.6,4.864 16.84,14.621 3.03,9.532 4.68,23.321 4.68,40.997 v 0 0 0 c 0,17.859 -1.65,31.679 -4.68,41.433 -3.05,9.543 -8.75,14.406 -16.84,14.406 -7.92,0 -13.62,-4.863 -16.67,-14.621 -3.03,-9.754 -4.68,-23.543 -4.68,-41.218 0,-17.676 1.65,-31.465 4.68,-40.997 m -16.63,-10.773 c 3.42,-6.512 7.92,-11.59 13.39,-15.223 5.48,-3.672 11.99,-5.468 19.91,-5.468 7.92,0 14.62,1.796 20.09,5.644 5.46,3.672 9.93,8.75 13.38,15.234 3.46,6.512 5.91,14.219 7.32,22.969 1.43,8.711 2.23,18.25 2.23,28.614 v 0 0 0 c 0,10.371 -0.8,19.91 -2.23,28.835 -1.41,8.711 -3.86,16.457 -7.32,22.93 -3.45,6.516 -7.92,11.594 -13.38,15.453 -5.47,3.672 -12.17,5.469 -20.09,5.469 -7.92,0 -14.62,-1.797 -20.13,-5.469 -5.47,-3.859 -9.75,-8.937 -13.17,-15.453 -3.46,-6.473 -5.91,-14.219 -7.31,-22.93 -1.44,-8.925 -2.23,-18.464 -2.23,-28.835 0,-10.364 0.79,-19.903 2.23,-28.614 1.4,-8.937 3.85,-16.672 7.31,-23.156 v 0 m 118.8,10.773 v 0 c 3.05,-9.757 8.75,-14.621 16.67,-14.621 7.92,0 13.6,4.864 16.84,14.621 3.03,9.532 4.68,23.321 4.68,40.997 v 0 0 0 c 0,17.859 -1.65,31.679 -4.68,41.433 -3.05,9.543 -8.75,14.406 -16.84,14.406 -7.92,0 -13.62,-4.863 -16.67,-14.621 -3.03,-9.754 -4.68,-23.543 -4.68,-41.218 0,-17.676 1.65,-31.465 4.68,-40.997 m -16.63,-10.773 c 3.41,-6.512 7.91,-11.59 13.38,-15.223 5.48,-3.672 12,-5.468 19.92,-5.468 7.92,0 14.61,1.796 20.08,5.644 5.47,3.672 9.94,8.75 13.39,15.234 3.46,6.512 5.91,14.219 7.32,22.969 1.43,8.711 2.22,18.25 2.22,28.614 v 0 0 0 c 0,10.371 -0.79,19.91 -2.22,28.835 -1.41,8.711 -3.86,16.457 -7.32,22.93 -3.45,6.516 -7.92,11.594 -13.39,15.453 -5.47,3.672 -12.16,5.469 -20.08,5.469 -7.92,0 -14.62,-1.797 -20.13,-5.469 -5.47,-3.859 -9.76,-8.937 -13.17,-15.453 -3.46,-6.473 -5.91,-14.219 -7.31,-22.93 -1.44,-8.925 -2.24,-18.464 -2.24,-28.835 0,-10.364 0.8,-19.903 2.24,-28.614 1.4,-8.937 3.85,-16.672 7.31,-23.156 v 0 m 144.5,-19.07 h 21.13 v 63.75 0 c 0,7.703 1.62,13.574 4.65,17.851 3.06,4.246 7.74,6.309 13.6,6.309 9.76,0 14.62,-6.524 14.62,-19.297 v 0 -68.613 h 21.13 v 63.75 0 c 0,7.703 1.62,13.574 4.68,17.851 3.03,4.246 7.71,6.309 13.62,6.309 9.71,0 14.61,-6.524 14.61,-19.297 v 0 -68.613 h 21.1 v 68.211 0 c 0,12.168 -2.42,21.535 -7.32,27.793 -5.07,6.3 -12.56,9.582 -22.71,9.582 -6.91,0 -12.6,-1.661 -16.89,-4.903 -4.46,-3.457 -8.09,-7.304 -10.76,-11.554 -1,2.011 -2.24,4.035 -3.63,6.086 -1.45,1.835 -3.07,3.632 -4.86,5.292 -1.84,1.407 -4.08,2.625 -6.73,3.633 -2.64,1.004 -5.66,1.446 -9.11,1.446 -6.52,0 -11.81,-1.231 -15.84,-3.899 -4.29,-2.625 -7.75,-6.472 -10.38,-11.551 v 0 h -0.21 v 0 c 0,0.614 0,1.621 0,3.028 -0.18,1.218 -0.18,2.664 -0.18,4.062 -0.21,1.446 -0.21,2.664 -0.21,4.071 -0.22,1.222 -0.22,2.226 -0.22,2.843 v 0 h -20.88 v 0 c 0.18,-2.843 0.4,-5.898 0.57,-9.14 0.22,-3.243 0.22,-6.7 0.22,-10.547 v 0 -84.453 0 m -1330.0736,0 h 77.3316 v 18.027 h -53.175 l 5.254,5.691 v 0 c 6.304,6.914 12.386,14.043 18.078,21.348 5.508,7.09 10.367,14.395 14.613,21.524 4.281,7.089 7.523,14.003 9.973,20.917 2.449,6.7 3.636,13.176 3.636,19.258 0,5.078 -0.793,9.758 -2.23,14.223 -1.621,4.461 -4.035,8.316 -7.098,11.773 -3.234,3.274 -7.304,5.899 -11.984,7.922 -4.86,1.836 -10.547,2.844 -17.067,2.844 -6.695,0 -12.996,-0.793 -18.468,-2.238 -5.6878,-1.621 -10.9808,-3.633 -15.6253,-6.086 v 0 l 2.2305,-20.692 v 0 c 3.2421,2.625 7.3125,5.254 11.9918,7.489 4.645,2.226 9.938,3.449 15.84,3.449 6.266,0 11.34,-2.012 14.797,-6.301 3.457,-4.246 5.293,-9.539 5.293,-16.23 0,-4.676 -1.012,-9.754 -3.062,-15.235 -2.231,-5.468 -5.075,-11.367 -8.926,-17.234 -3.852,-6.086 -8.321,-12.383 -13.395,-19.082 -5.293,-6.731 -10.98,-13.606 -17.2771,-20.735 v 0 L 85.0664,124.598 v -18.25 0 m 119.8126,29.843 v 0 c 3.055,-9.757 8.742,-14.621 16.664,-14.621 7.922,0 13.609,4.864 16.852,14.621 3.023,9.532 4.675,23.321 4.675,40.997 v 0 0 0 c 0,17.859 -1.652,31.679 -4.675,41.433 -3.063,9.543 -8.75,14.406 -16.852,14.406 -7.922,0 -13.609,-4.863 -16.664,-14.621 -3.027,-9.754 -4.684,-23.543 -4.684,-41.218 0,-17.676 1.657,-31.465 4.684,-40.997 m -16.637,-10.773 c 3.422,-6.512 7.926,-11.59 13.395,-15.223 5.472,-3.672 11.984,-5.468 19.906,-5.468 7.922,0 14.617,1.796 20.09,5.644 5.472,3.672 9.933,8.75 13.39,15.234 3.457,6.512 5.907,14.219 7.313,22.969 1.437,8.711 2.23,18.25 2.23,28.614 v 0 0 0 c 0,10.371 -0.793,19.91 -2.23,28.835 -1.406,8.711 -3.856,16.457 -7.313,22.93 -3.457,6.516 -7.918,11.594 -13.39,15.453 -5.473,3.672 -12.168,5.469 -20.09,5.469 -7.922,0 -14.613,-1.797 -20.121,-5.469 -5.477,-3.859 -9.758,-8.937 -13.18,-15.453 -3.453,-6.473 -5.902,-14.219 -7.304,-22.93 -1.442,-8.925 -2.231,-18.464 -2.231,-28.835 0,-10.364 0.789,-19.903 2.231,-28.614 1.402,-8.937 3.851,-16.672 7.304,-23.156 v 0 m 118.805,10.773 v 0 c 3.058,-9.757 8.75,-14.621 16.668,-14.621 7.922,0 13.609,4.864 16.848,14.621 3.027,9.532 4.679,23.321 4.679,40.997 v 0 0 0 c 0,17.859 -1.652,31.679 -4.679,41.433 -3.063,9.543 -8.747,14.406 -16.848,14.406 -7.918,0 -13.61,-4.863 -16.668,-14.621 -3.024,-9.754 -4.68,-23.543 -4.68,-41.218 0,-17.676 1.656,-31.465 4.68,-40.997 m -16.633,-10.773 c 3.418,-6.512 7.922,-11.59 13.391,-15.223 5.472,-3.672 11.992,-5.468 19.91,-5.468 7.922,0 14.613,1.796 20.09,5.644 5.468,3.672 9.933,8.75 13.39,15.234 3.453,6.512 5.907,14.219 7.309,22.969 1.437,8.711 2.23,18.25 2.23,28.614 v 0 0 0 c 0,10.371 -0.793,19.91 -2.23,28.835 -1.402,8.711 -3.856,16.457 -7.309,22.93 -3.457,6.516 -7.922,11.594 -13.39,15.453 -5.477,3.672 -12.168,5.469 -20.09,5.469 -7.918,0 -14.617,-1.797 -20.125,-5.469 -5.469,-3.859 -9.758,-8.937 -13.176,-15.453 -3.457,-6.473 -5.902,-14.219 -7.309,-22.93 -1.441,-8.925 -2.23,-18.464 -2.23,-28.835 0,-10.364 0.789,-19.903 2.23,-28.614 1.407,-8.937 3.852,-16.672 7.309,-23.156 v 0 m 144.508,-19.07 h 21.133 v 63.75 0 c 0,7.703 1.617,13.574 4.644,17.851 3.055,4.246 7.739,6.309 13.61,6.309 9.754,0 14.613,-6.524 14.613,-19.297 v 0 -68.613 h 21.133 v 63.75 0 c 0,7.703 1.621,13.574 4.675,17.851 3.028,4.246 7.708,6.309 13.61,6.309 9.723,0 14.621,-6.524 14.621,-19.297 v 0 -68.613 h 21.094 v 68.211 0 c 0,12.168 -2.414,21.535 -7.313,27.793 -5.07,6.3 -12.562,9.582 -22.715,9.582 -6.91,0 -12.597,-1.661 -16.882,-4.903 -4.465,-3.457 -8.102,-7.304 -10.762,-11.554 -1.012,2.011 -2.235,4.035 -3.641,6.086 -1.437,1.835 -3.058,3.632 -4.855,5.292 -1.836,1.407 -4.071,2.625 -6.735,3.633 -2.629,1.004 -5.652,1.446 -9.105,1.446 -6.52,0 -11.813,-1.231 -15.84,-3.899 -4.289,-2.625 -7.746,-6.472 -10.371,-11.551 v 0 h -0.215 v 0 c 0,0.614 0,1.621 0,3.028 -0.18,1.218 -0.18,2.664 -0.18,4.062 -0.214,1.446 -0.214,2.664 -0.214,4.071 -0.215,1.222 -0.215,2.226 -0.215,2.843 v 0 h -20.887 v 0 c 0.184,-2.843 0.398,-5.898 0.578,-9.14 0.219,-3.243 0.219,-6.7 0.219,-10.547 v 0 -84.453 0" /><path
         id="path16"
         style="fill:#231f20;fill-opacity:1;fill-rule:nonzero;stroke:none"
         d="M 0,0 V 779.531 H 1629.92 V 0 H 0 M 1.44922,778.148 V 1.45313 H 1628.54 V 778.148 H 1.44922" /></g></g></svg>