<?xml version="1.0" encoding="UTF-8" standalone="no"?>
<svg
   xmlns:dc="http://purl.org/dc/elements/1.1/"
   xmlns:cc="http://creativecommons.org/ns#"
   xmlns:rdf="http://www.w3.org/1999/02/22-rdf-syntax-ns#"
   xmlns:svg="http://www.w3.org/2000/svg"
   xmlns="http://www.w3.org/2000/svg"
   viewBox="0 0 94.493332 132.28"
   height="132.28"
   width="94.493332"
   xml:space="preserve"
   id="svg2"
   version="1.1"><metadata
     id="metadata8"><rdf:RDF><cc:Work
         rdf:about=""><dc:format>image/svg+xml</dc:format><dc:type
           rdf:resource="http://purl.org/dc/dcmitype/StillImage" /></cc:Work></rdf:RDF></metadata><defs
     id="defs6" /><g
     transform="matrix(1.3333333,0,0,-1.3333333,0,132.28)"
     id="g10"><g
       transform="scale(0.1)"
       id="g12"><path
         id="path14"
         style="fill:#007f46;fill-opacity:1;fill-rule:nonzero;stroke:none"
         d="m 330.059,732.914 c -1.504,-0.633 -2.977,-1.355 -4.559,-1.859 -5.977,-1.977 -12.242,-2.989 -18.543,-2.989 -6.297,0 -12.562,1.012 -18.574,2.989 -3.852,1.258 -7.598,2.914 -11.121,4.968 -4.469,2.555 -8.571,5.688 -12.207,9.325 -1.977,1.98 -4.625,3.168 -6.313,5.398 v 0 l -110.828,0.832 -60.2226,-97.383 v 0 c 0.9375,-16.129 16.1996,-27.507 31.9336,-23.797 v 0 l 50.395,81.504 h 60.406 L 154.328,589.504 V 498.531 H 71.3477 v 0 c -12.3438,-10.332 -12.3438,-29.301 0,-39.676 v 0 H 193.996 v 104.797 l 68.793,-54.214 v -111.887 0 c 9.43,-13.11 28.438,-14.477 39.668,-2.91 v 0 134.054 l -59.828,47.164 47.949,77.075 v -55.079 h 104.863 v 39.708 H 330.25 l -0.191,95.351 v 0 M 646.309,389.813 V 834.844 H 419.523 V 389.813 H 646.309 M 694.484,978.02 H 14.2188 V 14.2188 H 694.484 V 978.02 M 188.527,266.516 V 211.25 h 225.489 l -55.254,-53.855 h 79.199 l 83.621,81.46 -83.621,81.516 h -79.199 l 55.254,-53.855 H 188.527 m 117.961,567.539 c 26.008,0 47.086,-21.086 47.086,-47.09 0,-26.008 -21.078,-47.09 -47.086,-47.09 -26.004,0 -47.082,21.082 -47.082,47.09 0,26.004 21.078,47.09 47.082,47.09 v 0" /><path
         id="path16"
         style="fill:#231f20;fill-opacity:1;fill-rule:nonzero;stroke:none"
         d="M 0,0 V 992.129 H 708.66 V 0 H 0 M 1.45703,1.45703 H 707.246 V 990.746 H 1.45703 V 1.45703" /></g></g></svg>