<?xml version="1.0" encoding="UTF-8" standalone="no"?>
<svg
   xmlns:dc="http://purl.org/dc/elements/1.1/"
   xmlns:cc="http://creativecommons.org/ns#"
   xmlns:rdf="http://www.w3.org/1999/02/22-rdf-syntax-ns#"
   xmlns:svg="http://www.w3.org/2000/svg"
   xmlns="http://www.w3.org/2000/svg"
   viewBox="0 0 170.45332 57.066666"
   height="57.066666"
   width="170.45332"
   xml:space="preserve"
   id="svg2"
   version="1.1"><metadata
     id="metadata8"><rdf:RDF><cc:Work
         rdf:about=""><dc:format>image/svg+xml</dc:format><dc:type
           rdf:resource="http://purl.org/dc/dcmitype/StillImage" /></cc:Work></rdf:RDF></metadata><defs
     id="defs6" /><g
     transform="matrix(1.3333333,0,0,-1.3333333,0,57.066667)"
     id="g10"><g
       transform="scale(0.1)"
       id="g12"><path
         id="path14"
         style="fill:#ffffff;fill-opacity:1;fill-rule:nonzero;stroke:none"
         d="M 1.41797,1.41797 H 1277.008 v 425.191 H 1.41797 Z" /><path
         id="path16"
         style="fill:none;stroke:#231f20;stroke-width:2.83500004;stroke-linecap:butt;stroke-linejoin:miter;stroke-miterlimit:4;stroke-dasharray:none;stroke-opacity:1"
         d="M 1.41797,1.41797 H 1277.01 V 426.609 H 1.41797 V 1.41797" /><path
         id="path18"
         style="fill:#3e3c40;fill-opacity:1;fill-rule:nonzero;stroke:none"
         d="m 348.531,222.527 c -13.863,-6.047 -25.234,-13.859 -33.769,-23.468 -8.532,-9.938 -12.778,-23.079 -12.778,-39.782 0,-9.609 1.762,-18.828 5.325,-27.004 3.171,-8.171 8.175,-15.664 14.546,-21.707 6.407,-6.015 14.219,-11.0152 23.473,-14.1793 9.215,-3.5351 19.547,-5.2929 31.246,-5.2929 11.016,0 21.348,1.4062 30.922,4.9296 9.254,3.2032 17.067,7.4536 23.832,13.4966 6.735,6.054 11.699,13.148 15.625,21.671 3.567,8.536 5.328,18.114 5.328,28.77 v 0 0 0 c 0,15.66 -4.281,28.801 -12.777,39.453 -8.895,10.297 -20.27,18.473 -34.129,24.516 13.5,6.769 23.797,15.625 30.563,26.64 6.734,10.696 10.296,22.032 10.296,34.125 0,8.899 -1.765,17.067 -4.968,24.52 -3.567,7.449 -8.532,13.859 -14.582,19.187 -6.043,5.328 -13.5,9.254 -21.668,12.457 -8.536,2.84 -17.75,4.246 -27.719,4.246 -10.66,0 -20.234,-1.406 -28.766,-4.609 -8.535,-3.199 -15.66,-7.812 -21.676,-13.5 -6.042,-5.683 -10.687,-12.453 -13.855,-19.906 -3.203,-7.813 -5.008,-16.344 -5.008,-25.235 0,-12.777 3.203,-24.156 9.973,-34.093 6.734,-10.332 16.703,-18.504 30.566,-25.235 v 0" /><path
         id="path20"
         style="fill:#3e3c40;fill-opacity:1;fill-rule:nonzero;stroke:none"
         d="m 505.422,127.273 c 6.008,-11.375 13.82,-20.23 23.43,-26.636 9.578,-6.4182 20.953,-9.5432 34.816,-9.5432 13.855,0 25.594,3.125 35.207,9.9022 9.574,6.406 17.387,15.266 23.434,26.633 6.05,11.375 10.3,24.883 12.781,40.18 2.484,15.261 3.926,31.964 3.926,50.078 v 0 0 0 c 0,18.136 -1.442,34.843 -3.926,50.468 -2.481,15.262 -6.731,28.797 -12.781,40.141 -6.047,11.375 -13.86,20.27 -23.434,27.035 -9.613,6.371 -21.352,9.574 -35.207,9.574 -13.863,0 -25.563,-3.203 -35.176,-9.574 -9.574,-6.765 -17.062,-15.66 -23.07,-27.035 -6.051,-11.344 -10.332,-24.879 -12.82,-40.141 -2.485,-15.625 -3.887,-32.332 -3.887,-50.468 0,-18.114 1.402,-34.817 3.887,-50.078 2.488,-15.661 6.769,-29.168 12.82,-40.536 v 0" /><path
         id="path22"
         style="fill:#3e3c40;fill-opacity:1;fill-rule:nonzero;stroke:none"
         d="m 750.395,93.8945 h 36.972 V 205.465 c 0,13.5 2.844,23.793 8.176,31.281 5.332,7.453 13.496,11.016 23.797,11.016 17.062,0 25.598,-11.375 25.598,-33.77 v 0 -120.0975 h 36.933 v 111.5705 0 c 0,13.5 2.84,23.793 8.172,31.281 5.324,7.453 13.496,11.016 23.832,11.016 17.027,0 25.555,-11.375 25.555,-33.77 v 0 -120.0975 h 36.972 v 119.3825 0 c 0,21.309 -4.277,37.657 -12.773,48.672 -8.899,11.016 -22.031,16.703 -39.816,16.703 -11.739,0 -21.317,-2.847 -28.809,-8.535 -7.449,-6.012 -13.133,-12.777 -17.742,-20.23 -1.77,3.527 -3.926,7.09 -6.407,10.656 -2.48,3.203 -5.695,6.41 -9.218,9.254 -3.567,2.484 -7.844,4.605 -12.453,6.371 -4.61,1.801 -10.301,2.484 -16.348,2.484 -11.375,0 -20.594,-2.847 -28.074,-8.535 -7.453,-6.012 -13.508,-13.14 -17.395,-22.031 v 0 h -0.722 v 0 c 0,1.078 0,3.203 0,6.051 -0.352,2.484 -0.352,5.328 -0.352,8.172 -0.359,2.843 -0.359,5.683 -0.359,8.168 -0.364,2.488 -0.364,4.644 -0.364,5.691 v 0 h -36.582 v 0 c 0.332,-4.969 0.684,-10.301 1.047,-15.984 0.36,-5.688 0.36,-11.739 0.36,-18.469 v 0 -147.8205 0" /><path
         id="path24"
         style="fill:#ffffff;fill-opacity:1;fill-rule:nonzero;stroke:none"
         d="m 380.137,236.023 c -11.375,5.692 -20.231,12.063 -26.278,19.551 -6.406,7.094 -9.617,15.266 -9.617,24.52 0,10.652 3.211,19.183 9.617,25.918 6.047,6.406 13.86,9.613 23.438,9.613 10.293,0 18.465,-3.207 24.152,-9.254 5.692,-6.371 8.531,-14.578 8.531,-24.152 v 0 0 0 c 0,-4.973 -0.683,-9.617 -2.484,-13.864 -1.762,-4.609 -3.887,-8.531 -6.73,-12.417 -2.844,-3.926 -6.047,-7.493 -9.614,-10.696 -3.562,-3.168 -7.089,-6.371 -11.015,-9.219 v 0" /><path
         id="path26"
         style="fill:#ffffff;fill-opacity:1;fill-rule:nonzero;stroke:none"
         d="m 374.809,209.711 c 5.328,-2.848 10.3,-5.688 15.3,-8.531 4.61,-3.168 8.856,-6.371 12.782,-10.297 3.566,-3.887 6.406,-8.172 8.531,-12.778 2.125,-4.968 3.203,-10.66 3.203,-17.066 v 0 0 0 c 0,-12.094 -3.203,-22.035 -9.609,-29.484 -6.735,-7.817 -15.625,-11.731 -27.004,-11.731 -12.453,0 -21.668,3.914 -28.438,12.09 -6.73,8.176 -9.933,17.754 -9.933,29.488 0,6.043 1.078,11.371 2.839,15.981 1.762,4.609 3.887,8.89 7.094,12.777 3.203,3.926 6.77,7.129 11.375,10.332 4.285,3.207 8.895,6.051 13.86,9.219 v 0" /><path
         id="path28"
         style="fill:#ffffff;fill-opacity:1;fill-rule:nonzero;stroke:none"
         d="m 534.543,146.102 c -5.328,16.703 -8.176,40.894 -8.176,71.785 0,30.922 2.848,55.078 8.176,72.14 5.324,17.063 15.262,25.598 29.125,25.598 14.219,0 24.187,-8.535 29.516,-25.238 5.332,-17.063 8.175,-41.223 8.175,-72.5 v 0 0 0 c 0,-30.891 -2.843,-55.082 -8.175,-71.785 -5.684,-17.032 -15.661,-25.567 -29.516,-25.567 -13.863,0 -23.801,8.535 -29.125,25.567 v 0" /></g></g></svg>