<?xml version="1.0" encoding="UTF-8" standalone="no"?>
<svg
   xmlns:dc="http://purl.org/dc/elements/1.1/"
   xmlns:cc="http://creativecommons.org/ns#"
   xmlns:rdf="http://www.w3.org/1999/02/22-rdf-syntax-ns#"
   xmlns:svg="http://www.w3.org/2000/svg"
   xmlns="http://www.w3.org/2000/svg"
   viewBox="0 0 94.866669 66.519997"
   height="66.519997"
   width="94.866669"
   xml:space="preserve"
   id="svg2"
   version="1.1"><metadata
     id="metadata8"><rdf:RDF><cc:Work
         rdf:about=""><dc:format>image/svg+xml</dc:format><dc:type
           rdf:resource="http://purl.org/dc/dcmitype/StillImage" /></cc:Work></rdf:RDF></metadata><defs
     id="defs6" /><g
     transform="matrix(1.3333333,0,0,-1.3333333,0,66.52)"
     id="g10"><g
       transform="scale(0.1)"
       id="g12"><path
         id="path14"
         style="fill:#ffffff;fill-opacity:1;fill-rule:nonzero;stroke:none"
         d="m 1.41797,1.41797 h 708.66 v 496.039 h -708.66 z" /><path
         id="path16"
         style="fill:none;stroke:#231f20;stroke-width:2.83500004;stroke-linecap:butt;stroke-linejoin:miter;stroke-miterlimit:4;stroke-dasharray:none;stroke-opacity:1"
         d="M 1.41797,1.41797 H 710.078 V 497.457 H 1.41797 V 1.41797" /><path
         id="path18"
         style="fill:#231f20;fill-opacity:1;fill-rule:nonzero;stroke:none"
         d="m 290.961,305.648 -18.754,-57.996 v 0 c -0.074,-0.324 -0.758,-2.199 -0.758,-2.445 -0.609,-3.605 1.805,-7.023 4.793,-8.965 3.383,-2.308 7.844,-2.808 11.41,-0.758 v 0 l 2.125,1.512 132.157,93.633 v 0 c 0.5,0.434 1.945,1.441 2.375,1.875 2.304,2.051 3.601,4.934 3.738,8.027 0.187,2.883 -0.684,5.938 -2.695,7.992 -0.536,0.504 -1.981,1.551 -2.481,1.981 v 0 L 289.02,446.266 v 0 c -0.61,0.394 -1.622,1.078 -2.379,1.507 -3.672,1.731 -8.028,1.192 -11.196,-1.367 -3.129,-2.445 -4.496,-6.48 -4.066,-10.293 0,-0.613 0.07,-1.621 0.254,-2.125 v 0 l 19.008,-57.238 h -54.145 v 0 c -2.488,0 -6.734,-0.254 -8.965,-0.504 -21.023,-1.695 -41.511,-8.719 -60.086,-18.508 C 151.5,349.316 136.848,338.551 124.027,325.844 111,312.813 100.094,297.977 91.5586,281.602 c -9.7891,-19.008 -16.2695,-39.747 -18.5,-61.129 0,-0.114 0,-0.254 -0.0742,-0.434 -0.1797,-1.976 -0.6836,-6.914 -0.6836,-8.711 v 0 -167.3632 h 71.1722 v 160.7032 0 c 0,0.793 0.429,4.609 0.609,6.227 0,0.105 0,0.179 0.074,0.253 1.293,11.196 3.926,22.286 8.457,32.438 5.114,11.844 12.528,22.5 21.817,31.531 8.715,8.535 18.941,15.446 30.097,20.559 10.223,4.679 21.059,7.847 32.149,9.285 0.179,0 0.254,0 0.429,0 1.766,0.254 5.547,0.687 6.551,0.687 v 0 h 47.305 v 0" /><path
         id="path20"
         style="fill:#231f20;fill-opacity:1;fill-rule:nonzero;stroke:none"
         d="m 254.781,55.4883 c 4.071,-1.5117 8.75,-2.9883 14.293,-4.0703 5.332,-1.2227 11.309,-1.875 17.461,-1.875 15.805,0 27.938,4.6445 36.469,13.8281 8.531,9.3945 12.816,21.9609 12.816,37.9379 v 0 0 0 c 0,7.277 -1.082,13.867 -3.207,19.406 -2.34,5.762 -5.328,10.437 -8.961,14.297 -3.636,3.843 -8.101,6.621 -12.996,8.523 -5.113,1.914 -10.476,2.988 -16.023,2.988 -3.383,0 -6.586,-0.214 -9.36,-0.644 -2.988,-0.215 -5.543,-0.859 -7.449,-1.477 v 0 37.512 h 50.942 v 18.109 h -71.86 v -75.89 0 c 3.637,1.082 7.453,2.129 11.309,3.211 3.848,1.035 8.312,1.472 13.207,1.472 10.262,0 17.93,-2.769 23.258,-8.101 5.109,-5.324 7.668,-12.563 7.668,-21.3127 0,-9.1757 -2.559,-16.6289 -7.883,-22.3906 -5.328,-5.9765 -12.606,-8.9648 -21.746,-8.9648 -5.324,0 -10.223,0.8711 -14.727,2.375 -4.461,1.4804 -8.527,3.1719 -11.914,5.1172 v 0 l -1.297,-20.0508 v 0" /><path
         id="path22"
         style="fill:#231f20;fill-opacity:1;fill-rule:nonzero;stroke:none"
         d="m 364.66,71.25 c 3.633,-6.8086 8.309,-12.1289 14.07,-15.9844 5.762,-3.8476 12.598,-5.7226 20.918,-5.7226 8.313,0 15.332,1.875 21.094,5.9453 5.762,3.8476 10.442,9.1797 14.074,15.9765 3.641,6.8438 6.161,14.9415 7.637,24.0821 1.473,9.1871 2.344,19.1871 2.344,30.0701 v 0 0 0 c 0,10.867 -0.871,20.906 -2.344,30.274 -1.476,9.175 -3.996,17.273 -7.637,24.121 -3.632,6.797 -8.312,12.129 -14.074,16.195 -5.762,3.816 -12.781,5.762 -21.094,5.762 -8.32,0 -15.371,-1.946 -21.132,-5.762 -5.762,-4.066 -10.223,-9.398 -13.856,-16.195 -3.605,-6.848 -6.16,-14.946 -7.672,-24.121 -1.476,-9.368 -2.34,-19.407 -2.34,-30.274 0,-10.883 0.864,-20.883 2.34,-30.0701 1.512,-9.3555 4.067,-17.4492 7.672,-24.2969 v 0" /><path
         id="path24"
         style="fill:#231f20;fill-opacity:1;fill-rule:nonzero;stroke:none"
         d="m 489.504,51.2422 h 22.176 v 66.9218 c 0,8.098 1.691,14.289 4.894,18.75 3.203,4.504 8.106,6.621 14.297,6.621 10.223,0 15.332,-6.836 15.332,-20.265 v 0 -72.0278 h 22.176 v 66.9218 0 c 0,8.098 1.691,14.289 4.894,18.75 3.204,4.504 8.106,6.621 14.297,6.621 10.223,0 15.332,-6.836 15.332,-20.265 v 0 -72.0278 h 22.176 v 71.6018 0 c 0,12.808 -2.558,22.605 -7.668,29.226 -5.328,6.594 -13.211,10.012 -23.863,10.012 -7.063,0 -12.824,-1.691 -17.285,-5.117 -4.465,-3.633 -7.883,-7.668 -10.657,-12.168 -1.074,2.168 -2.332,4.285 -3.847,6.414 -1.473,1.906 -3.387,3.848 -5.547,5.539 -2.129,1.512 -4.676,2.77 -7.449,3.855 -2.774,1.043 -6.192,1.477 -9.797,1.477 -6.836,0 -12.383,-1.691 -16.844,-5.117 -4.504,-3.633 -8.098,-7.883 -10.441,-13.203 v 0 h -0.43 v 0 c 0,0.64 0,1.902 0,3.629 -0.215,1.476 -0.215,3.168 -0.215,4.894 -0.222,1.692 -0.222,3.391 -0.222,4.903 -0.215,1.476 -0.215,2.765 -0.215,3.417 v 0 h -21.953 v 0 c 0.214,-2.988 0.429,-6.191 0.64,-9.609 0.219,-3.43 0.219,-7.019 0.219,-11.094 v 0 -88.6598 0" /><path
         id="path26"
         style="fill:#ffffff;fill-opacity:1;fill-rule:nonzero;stroke:none"
         d="m 382.148,82.5586 c -3.203,10.0078 -4.89,24.5114 -4.89,43.0584 0,18.571 1.687,33.047 4.89,43.301 3.204,10.223 9.18,15.34 17.5,15.34 8.528,0 14.473,-5.117 17.676,-15.125 3.203,-10.254 4.895,-24.731 4.895,-43.516 v 0 0 0 c 0,-18.547 -1.692,-33.0506 -4.895,-43.0584 -3.418,-10.2227 -9.363,-15.3398 -17.676,-15.3398 -8.32,0 -14.296,5.1171 -17.5,15.3398 v 0" /></g></g></svg>