<?xml version="1.0" encoding="UTF-8" standalone="no"?>
<svg
   xmlns:dc="http://purl.org/dc/elements/1.1/"
   xmlns:cc="http://creativecommons.org/ns#"
   xmlns:rdf="http://www.w3.org/1999/02/22-rdf-syntax-ns#"
   xmlns:svg="http://www.w3.org/2000/svg"
   xmlns="http://www.w3.org/2000/svg"
   viewBox="0 0 170.45332 57.066666"
   height="57.066666"
   width="170.45332"
   xml:space="preserve"
   id="svg2"
   version="1.1"><metadata
     id="metadata8"><rdf:RDF><cc:Work
         rdf:about=""><dc:format>image/svg+xml</dc:format><dc:type
           rdf:resource="http://purl.org/dc/dcmitype/StillImage" /></cc:Work></rdf:RDF></metadata><defs
     id="defs6" /><g
     transform="matrix(1.3333333,0,0,-1.3333333,0,57.066667)"
     id="g10"><g
       transform="scale(0.1)"
       id="g12"><path
         id="path14"
         style="fill:#ffffff;fill-opacity:1;fill-rule:nonzero;stroke:none"
         d="M 1.41797,1.41797 H 1277.008 v 425.191 H 1.41797 Z" /><path
         id="path16"
         style="fill:none;stroke:#231f20;stroke-width:2.83500004;stroke-linecap:butt;stroke-linejoin:miter;stroke-miterlimit:4;stroke-dasharray:none;stroke-opacity:1"
         d="M 1.41797,1.41797 H 1277.01 V 426.609 H 1.41797 V 1.41797" /><path
         id="path18"
         style="fill:#231f20;fill-opacity:1;fill-rule:nonzero;stroke:none"
         d="m 1184.63,44.2852 -15.95,241.1018 45.8,-12.133 v 0 c 1.83,-0.473 3.63,0.215 4.82,1.867 1.29,1.836 1.4,4.535 0.22,6.625 v 0 l -64.95,112.899 v 0 c -1.23,2.23 -3.42,3.636 -5.54,3.636 -2.39,0 -4.61,-1.406 -5.91,-3.746 v 0 L 1079.4,280.703 v 0 c -1.11,-1.871 -1.01,-4.43 0.19,-6.301 1.11,-1.875 3.01,-2.664 4.93,-2.089 v 0 l 46.28,12.242 -12.91,-240.6214 66.74,0.3516 v 0" /><path
         id="path20"
         style="fill:#231f20;fill-opacity:1;fill-rule:nonzero;stroke:none"
         d="m 164.137,44.2852 -15.91,241.0628 45.793,-12.129 v 0 c 1.796,-0.469 3.597,0.25 4.824,1.871 1.293,1.867 1.402,4.535 0.179,6.656 v 0 l -64.945,112.863 v 0 c -1.187,2.231 -3.383,3.633 -5.508,3.633 -2.414,0 -4.609,-1.402 -5.902,-3.746 v 0 L 58.9453,280.703 v 0 c -1.1172,-1.871 -1.0039,-4.465 0.1797,-6.301 1.1133,-1.875 3.0234,-2.699 4.9336,-2.121 v 0 L 110.352,284.555 97.4336,43.9648 164.137,44.2852 v 0" /><path
         id="path22"
         style="fill:#231f20;fill-opacity:1;fill-rule:nonzero;stroke:none"
         d="M 273.508,93.6406 H 386.402 V 125.254 H 308.75 l 7.707,9.941 v 0 c 9.211,12.09 18.106,24.512 26.387,37.328 7.992,12.418 15.121,25.235 21.347,37.657 6.231,12.457 10.981,24.515 14.504,36.613 3.567,11.73 5.368,23.074 5.368,33.73 0,8.891 -1.188,17.067 -3.278,24.875 -2.375,7.848 -5.941,14.582 -10.363,20.625 -4.758,5.692 -10.695,10.301 -17.5,13.864 -7.125,3.203 -15.406,4.965 -24.914,4.965 -9.754,0 -18.934,-1.399 -26.961,-3.883 -8.281,-2.844 -15.984,-6.41 -22.824,-10.696 v 0 l 3.277,-36.214 v 0 c 4.75,4.609 10.652,9.218 17.496,13.136 6.801,3.895 14.504,6.051 23.109,6.051 9.18,0 16.598,-3.562 21.637,-11.016 5.039,-7.488 7.703,-16.703 7.703,-28.441 0,-8.168 -1.472,-17.062 -4.461,-26.637 -3.242,-9.613 -7.382,-19.91 -13.035,-30.203 -5.613,-10.66 -12.133,-21.676 -19.551,-33.41 -7.699,-11.738 -16.015,-23.832 -25.199,-36.254 v 0 l -15.691,-21.672 v -31.9724 0" /><path
         id="path24"
         style="fill:#231f20;fill-opacity:1;fill-rule:nonzero;stroke:none"
         d="m 412.07,51.0234 h 25.489 L 458.617,136.27 H 427.188 L 412.07,51.0234 v 0" /><path
         id="path26"
         style="fill:#231f20;fill-opacity:1;fill-rule:nonzero;stroke:none"
         d="m 492.168,99.2969 c 4.504,-1.9727 9.723,-3.9531 15.879,-5.4024 5.937,-1.6484 12.562,-2.5156 19.437,-2.5156 17.571,0 31.071,6.2266 40.539,18.4651 9.5,12.5 14.254,29.265 14.254,50.586 v 0 0 0 c 0,9.683 -1.187,18.465 -3.562,25.883 -2.629,7.667 -5.942,13.929 -9.973,19.042 -4.031,5.114 -9,8.821 -14.472,11.379 -5.684,2.551 -11.594,3.957 -17.786,3.957 -3.777,0 -7.343,-0.285 -10.398,-0.828 -3.352,-0.289 -6.199,-1.152 -8.32,-2.015 v 0 50.039 h 56.664 v 24.156 h -79.883 v -101.195 0 c 4.031,1.437 8.281,2.843 12.562,4.285 4.25,1.398 9.254,1.976 14.688,1.976 11.379,0 19.906,-3.707 25.851,-10.796 5.688,-7.129 8.528,-16.778 8.528,-28.442 0,-12.207 -2.84,-22.18 -8.781,-29.844 -5.907,-7.961 -13.965,-11.953 -24.157,-11.953 -5.937,0 -11.41,1.153 -16.383,3.137 -4.964,1.98 -9.468,4.285 -13.281,6.836 v 0 l -1.406,-26.7501 v 0" /><path
         id="path28"
         style="fill:#231f20;fill-opacity:1;fill-rule:nonzero;stroke:none"
         d="m 669.293,93.6406 h 30.848 v 90.2614 h 0.578 l 50.683,-90.2614 h 36.758 l -61.672,100.1914 56.348,82.082 h -34.09 l -48.605,-73.906 v 158.148 h -30.848 v -266.5154 0" /><path
         id="path30"
         style="fill:#231f20;fill-opacity:1;fill-rule:nonzero;stroke:none"
         d="m 821.969,93.6406 h 30.847 V 205.211 c 0,13.5 2.375,23.797 6.809,31.281 4.461,7.453 11.27,11.02 19.875,11.02 14.215,0 21.344,-11.375 21.344,-33.766 v 0 -120.1054 h 30.812 v 111.5704 0 c 0,13.5 2.383,23.797 6.805,31.281 4.465,7.453 11.269,11.02 19.875,11.02 14.219,0 21.348,-11.375 21.348,-33.766 v 0 -120.1054 h 30.806 v 119.3824 0 c 0,21.313 -3.56,37.657 -10.65,48.672 -7.414,11.016 -18.391,16.703 -33.223,16.703 -9.758,0 -17.785,-2.843 -24.015,-8.531 -6.192,-6.012 -10.946,-12.781 -14.793,-20.234 -1.477,3.531 -3.282,7.094 -5.332,10.66 -2.09,3.203 -4.747,6.406 -7.707,9.25 -2.989,2.484 -6.551,4.605 -10.399,6.371 -3.859,1.801 -8.566,2.484 -13.613,2.484 -9.504,0 -17.207,-2.843 -23.43,-8.531 -6.23,-6.012 -11.269,-13.14 -14.512,-22.031 v 0 h -0.613 v 0 c 0,1.082 0,3.203 0,6.047 -0.285,2.484 -0.285,5.328 -0.285,8.172 -0.293,2.843 -0.293,5.687 -0.293,8.175 -0.281,2.481 -0.281,4.641 -0.281,5.684 v 0 h -30.567 v 0 c 0.321,-4.969 0.614,-10.293 0.899,-15.984 0.293,-5.688 0.293,-11.739 0.293,-18.465 v 0 -147.8244 0" /></g></g></svg>