<?xml version="1.0" encoding="UTF-8" standalone="no"?>
<svg
   xmlns:dc="http://purl.org/dc/elements/1.1/"
   xmlns:cc="http://creativecommons.org/ns#"
   xmlns:rdf="http://www.w3.org/1999/02/22-rdf-syntax-ns#"
   xmlns:svg="http://www.w3.org/2000/svg"
   xmlns="http://www.w3.org/2000/svg"
   viewBox="0 0 45.733334 136.44"
   height="136.44"
   width="45.733334"
   xml:space="preserve"
   id="svg2"
   version="1.1"><metadata
     id="metadata8"><rdf:RDF><cc:Work
         rdf:about=""><dc:format>image/svg+xml</dc:format><dc:type
           rdf:resource="http://purl.org/dc/dcmitype/StillImage" /></cc:Work></rdf:RDF></metadata><defs
     id="defs6" /><g
     transform="matrix(1.3333333,0,0,-1.3333333,0,136.44)"
     id="g10"><g
       transform="scale(0.1)"
       id="g12"><path
         id="path14"
         style="fill:#ffffff;fill-opacity:1;fill-rule:nonzero;stroke:none"
         d="m 1.41797,1.41797 h 340.125 V 1021.868 H 1.41797 Z" /><path
         id="path16"
         style="fill:none;stroke:#231f20;stroke-width:2.83500004;stroke-linecap:butt;stroke-linejoin:miter;stroke-miterlimit:4;stroke-dasharray:none;stroke-opacity:1"
         d="M 1.41797,1.41797 H 341.543 V 1021.87 H 1.41797 V 1.41797" /><path
         id="path18"
         style="fill:#ffffff;fill-opacity:1;fill-rule:nonzero;stroke:none"
         d="m 1.41797,1.41797 h 340.125 V 1021.868 H 1.41797 Z" /><path
         id="path20"
         style="fill:none;stroke:#231f20;stroke-width:2.83500004;stroke-linecap:butt;stroke-linejoin:round;stroke-miterlimit:4;stroke-dasharray:none;stroke-opacity:1"
         d="M 1.41797,1.41797 H 341.543 V 1021.87 H 1.41797 V 1.41797" /><path
         id="path22"
         style="fill:#231f20;fill-opacity:1;fill-rule:nonzero;stroke:none"
         d="M 128.926,327.352 V 695.848 L 41.6641,682.602 v 0 c -3.6719,-0.864 -7.2735,0.437 -9.4336,3.382 -2.8047,3.387 -3.0196,8.211 -0.6485,12.028 v 0 l 128.883,204.191 v 0 c 2.664,3.746 6.84,6.336 11.23,6.336 4.828,0.145 9.215,-2.375 11.879,-6.336 v 0 l 128.235,-204.84 v 0 c 2.234,-3.383 2.019,-7.992 -0.149,-11.379 -2.226,-3.382 -6.262,-4.82 -9.863,-4.027 v 0 l -87.84,13.891 V 327.352 l 87.84,14.257 v 0 c 3.601,0.793 7.637,-0.64 9.863,-4.031 2.168,-3.379 2.383,-7.988 0.149,-11.375 v 0 L 183.574,121.367 v 0 c -2.664,-3.965 -7.051,-6.484 -11.879,-6.34 -4.39,0 -8.566,2.59 -11.23,6.34 v 0 L 31.582,325.559 v 0 c -2.3711,3.816 -2.1562,8.64 0.6485,12.019 2.1601,2.949 5.7617,4.25 9.4336,3.391 v 0 l 87.2619,-13.617 v 0" /></g></g></svg>