<?xml version="1.0" encoding="UTF-8" standalone="no"?>
<svg
   xmlns:dc="http://purl.org/dc/elements/1.1/"
   xmlns:cc="http://creativecommons.org/ns#"
   xmlns:rdf="http://www.w3.org/1999/02/22-rdf-syntax-ns#"
   xmlns:svg="http://www.w3.org/2000/svg"
   xmlns="http://www.w3.org/2000/svg"
   viewBox="0 0 189.36 75.973335"
   height="75.973335"
   width="189.36"
   xml:space="preserve"
   id="svg2"
   version="1.1"><metadata
     id="metadata8"><rdf:RDF><cc:Work
         rdf:about=""><dc:format>image/svg+xml</dc:format><dc:type
           rdf:resource="http://purl.org/dc/dcmitype/StillImage" /></cc:Work></rdf:RDF></metadata><defs
     id="defs6" /><g
     transform="matrix(1.3333333,0,0,-1.3333333,0,75.973333)"
     id="g10"><g
       transform="scale(0.1)"
       id="g12"><path
         id="path14"
         style="fill:#ffffff;fill-opacity:1;fill-rule:nonzero;stroke:none"
         d="M 1.41406,1.41797 H 1418.7341 v 566.926 H 1.41406 Z" /><path
         id="path16"
         style="fill:none;stroke:#231f20;stroke-width:2.83500004;stroke-linecap:butt;stroke-linejoin:round;stroke-miterlimit:4;stroke-dasharray:none;stroke-opacity:1"
         d="M 1.41406,1.41797 H 1418.73 V 568.344 H 1.41406 V 1.41797" /><path
         id="path18"
         style="fill:#231f20;fill-opacity:1;fill-rule:nonzero;stroke:none"
         d="M 986.234,212.305 963.695,63.9102 v 0 c -1.445,-6.1914 0.793,-12.3086 5.762,-15.9805 5.762,-4.8242 13.965,-5.1836 20.449,-1.1524 v 0 L 1337.16,265.945 v 0 c 6.33,4.535 10.73,11.664 10.73,19.082 0.29,8.207 -4.04,15.692 -10.73,20.227 v 0 L 988.824,523.273 v 0 c -5.761,3.817 -13.605,3.457 -19.367,-0.214 -5.762,-3.821 -8.211,-10.661 -6.844,-16.778 v 0 L 986.234,356.953 86.5195,405.117 V 164.211 l 899.7145,48.094 v 0" /></g></g></svg>