<?xml version="1.0" encoding="UTF-8" standalone="no"?>
<svg
   xmlns:dc="http://purl.org/dc/elements/1.1/"
   xmlns:cc="http://creativecommons.org/ns#"
   xmlns:rdf="http://www.w3.org/1999/02/22-rdf-syntax-ns#"
   xmlns:svg="http://www.w3.org/2000/svg"
   xmlns="http://www.w3.org/2000/svg"
   viewBox="0 0 113.76 75.973335"
   height="75.973335"
   width="113.76"
   xml:space="preserve"
   id="svg2"
   version="1.1"><metadata
     id="metadata8"><rdf:RDF><cc:Work
         rdf:about=""><dc:format>image/svg+xml</dc:format><dc:type
           rdf:resource="http://purl.org/dc/dcmitype/StillImage" /></cc:Work></rdf:RDF></metadata><defs
     id="defs6" /><g
     transform="matrix(1.3333333,0,0,-1.3333333,0,75.973333)"
     id="g10"><g
       transform="scale(0.1)"
       id="g12"><path
         id="path14"
         style="fill:#ffffff;fill-opacity:1;fill-rule:nonzero;stroke:none"
         d="m 1.41797,1.41797 h 850.391 v 566.926 H 1.41797 Z" /><path
         id="path16"
         style="fill:none;stroke:#231f20;stroke-width:2.83500004;stroke-linecap:butt;stroke-linejoin:miter;stroke-miterlimit:4;stroke-dasharray:none;stroke-opacity:1"
         d="M 1.41797,1.41797 H 851.809 V 568.344 H 1.41797 V 1.41797" /><path
         id="path18"
         style="fill:#231f20;fill-opacity:1;fill-rule:nonzero;stroke:none"
         d="m 334.273,464.34 c 2.27,-4.57 5.184,-8.102 8.786,-10.652 3.562,-2.594 7.812,-3.821 12.996,-3.821 5.187,0 9.574,1.227 13.175,3.926 3.563,2.594 6.516,6.121 8.75,10.695 2.266,4.535 3.852,9.938 4.786,16.055 0.937,6.117 1.476,12.777 1.476,20.012 v 0 0 0 c 0,7.277 -0.539,13.937 -1.476,20.203 -0.934,6.117 -2.52,11.515 -4.786,16.055 -2.234,4.57 -5.187,8.101 -8.75,10.8 -3.601,2.555 -7.988,3.852 -13.175,3.852 -5.184,0 -9.575,-1.297 -13.141,-3.852 -3.601,-2.699 -6.371,-6.23 -8.641,-10.8 -2.265,-4.54 -3.851,-9.938 -4.785,-16.055 -0.937,-6.266 -1.48,-12.926 -1.48,-20.203 0,-7.235 0.543,-13.895 1.48,-20.012 0.934,-6.266 2.52,-11.664 4.785,-16.203 v 0" /><path
         id="path20"
         style="fill:#231f20;fill-opacity:1;fill-rule:nonzero;stroke:none"
         d="m 410.27,502.43 c -5.18,-2.41 -9.43,-5.547 -12.598,-9.399 -3.203,-3.961 -4.789,-9.215 -4.789,-15.906 0,-3.855 0.648,-7.527 1.98,-10.801 1.188,-3.277 3.059,-6.265 5.469,-8.679 2.379,-2.411 5.293,-4.387 8.75,-5.688 3.457,-1.367 7.309,-2.09 11.699,-2.09 4.106,0 7.961,0.578 11.555,1.949 3.457,1.293 6.375,2.989 8.894,5.399 2.559,2.414 4.395,5.254 5.872,8.672 1.328,3.426 1.98,7.238 1.98,11.527 v 0 0 0 c 0,6.262 -1.59,11.516 -4.793,15.766 -3.312,4.14 -7.559,7.375 -12.746,9.828 5.039,2.699 8.898,6.226 11.418,10.656 2.559,4.246 3.848,8.781 3.848,13.641 0,3.531 -0.645,6.804 -1.836,9.793 -1.328,2.992 -3.203,5.543 -5.469,7.668 -2.238,2.164 -5.039,3.711 -8.102,5.004 -3.168,1.117 -6.625,1.695 -10.367,1.695 -3.961,0 -7.562,-0.578 -10.765,-1.836 -3.168,-1.297 -5.832,-3.133 -8.102,-5.402 -2.23,-2.301 -3.961,-5.004 -5.18,-7.993 -1.191,-3.093 -1.836,-6.519 -1.836,-10.082 0,-5.105 1.188,-9.644 3.707,-13.644 2.52,-4.102 6.231,-7.375 11.411,-10.078 v 0" /><path
         id="path22"
         style="fill:#231f20;fill-opacity:1;fill-rule:nonzero;stroke:none"
         d="m 465.207,490.051 c 1.582,-3.172 3.633,-5.656 6.121,-7.457 2.52,-1.797 5.508,-2.703 9.141,-2.703 3.601,0 6.699,0.906 9.179,2.808 2.52,1.805 4.571,4.289 6.153,7.457 1.594,3.203 2.707,6.981 3.351,11.231 0.653,4.281 1.016,8.965 1.016,14.039 v 0 0 0 c 0,5.078 -0.363,9.754 -1.016,14.148 -0.644,4.25 -1.757,8.028 -3.351,11.231 -1.582,3.168 -3.633,5.656 -6.153,7.558 -2.48,1.805 -5.578,2.7 -9.179,2.7 -3.633,0 -6.727,-0.895 -9.219,-2.7 -2.52,-1.902 -4.461,-4.39 -6.043,-7.558 -1.582,-3.203 -2.695,-6.981 -3.352,-11.231 -0.644,-4.394 -1.042,-9.07 -1.042,-14.148 0,-5.074 0.398,-9.758 1.042,-14.039 0.657,-4.356 1.77,-8.133 3.352,-11.336 v 0" /><path
         id="path24"
         style="fill:#231f20;fill-opacity:1;fill-rule:nonzero;stroke:none"
         d="m 510.82,490.051 c 1.582,-3.172 3.633,-5.656 6.153,-7.457 2.519,-1.797 5.468,-2.703 9.113,-2.703 3.633,0 6.687,0.906 9.207,2.808 2.527,1.805 4.582,4.289 6.125,7.457 1.582,3.203 2.703,6.981 3.348,11.231 0.683,4.281 1.047,8.965 1.047,14.039 v 0 0 0 c 0,5.078 -0.364,9.754 -1.047,14.148 -0.645,4.25 -1.766,8.028 -3.348,11.231 -1.543,3.168 -3.598,5.656 -6.125,7.558 -2.52,1.805 -5.574,2.7 -9.207,2.7 -3.645,0 -6.699,-0.895 -9.219,-2.7 -2.48,-1.902 -4.465,-4.39 -6.047,-7.558 -1.582,-3.203 -2.703,-6.981 -3.347,-11.231 -0.645,-4.394 -1.008,-9.07 -1.008,-14.148 0,-5.074 0.363,-9.758 1.008,-14.039 0.644,-4.356 1.765,-8.133 3.347,-11.336 v 0" /><path
         id="path26"
         style="fill:#231f20;fill-opacity:1;fill-rule:nonzero;stroke:none"
         d="m 574.785,484.938 h 29.738 v 12.382 h -29.738 v -12.382 0" /><path
         id="path28"
         style="fill:#231f20;fill-opacity:1;fill-rule:nonzero;stroke:none"
         d="m 647.727,450.984 h 14.07 v 99.184 h -12.344 l -20.73,-20.164 6.902,-10.652 12.102,13.211 v -81.579 0" /><path
         id="path30"
         style="fill:#231f20;fill-opacity:1;fill-rule:nonzero;stroke:none"
         d="m 687.258,450.984 h 14.109 v 99.184 h -12.383 l -20.703,-20.164 6.914,-10.652 12.063,13.211 v -81.579 0" /><path
         id="path32"
         style="fill:#231f20;fill-opacity:1;fill-rule:nonzero;stroke:none"
         d="m 713.105,482.699 c 1.946,-0.719 4.172,-1.398 6.692,-1.902 2.519,-0.578 5.117,-0.906 7.918,-0.906 3.242,0 6.23,0.507 8.937,1.41 2.657,1.004 4.891,2.375 6.875,4.066 1.942,1.801 3.418,3.992 4.461,6.477 1.008,2.488 1.582,5.293 1.582,8.465 v 0 0 0 c 0,2.589 -0.398,4.859 -1.043,6.875 -0.722,1.976 -1.66,3.562 -2.882,4.964 -1.192,1.407 -2.586,2.485 -4.18,3.278 -1.582,0.793 -3.27,1.406 -5.039,1.695 v 0 0.215 0 c 1.406,0.285 2.812,0.789 4.289,1.473 1.406,0.683 2.812,1.695 3.992,2.988 1.231,1.297 2.16,2.879 2.883,4.863 0.762,1.903 1.113,4.176 1.113,6.981 0,2.777 -0.43,5.367 -1.367,7.562 -1.047,2.195 -2.336,3.957 -3.996,5.473 -1.688,1.472 -3.633,2.59 -5.977,3.277 -2.304,0.68 -4.746,1.11 -7.41,1.11 -3.176,0 -5.976,-0.321 -8.39,-0.825 -2.52,-0.574 -4.649,-1.297 -6.512,-2.09 v 0 l 0.644,-9.429 v 0 c 1.942,1.082 4.102,1.98 6.231,2.664 2.156,0.722 4.207,1.008 5.976,1.008 3.055,0 5.645,-0.903 7.813,-2.7 2.117,-1.765 3.164,-4.355 3.164,-7.632 0,-2.09 -0.391,-3.782 -1.113,-5.184 -0.762,-1.516 -1.809,-2.594 -3.098,-3.598 -1.367,-0.863 -2.957,-1.589 -4.824,-1.984 -1.875,-0.5 -3.926,-0.684 -6.055,-0.684 v 0 h -2.695 v -8.347 0 c 0.578,0 1.301,0 2.238,0.066 0.82,0 1.941,0 3.27,0 3.886,0 6.945,-0.973 9.179,-2.879 2.239,-1.871 3.352,-4.679 3.352,-8.136 0,-2.196 -0.363,-4.102 -1.008,-5.688 -0.652,-1.582 -1.59,-2.879 -2.703,-3.887 -1.223,-1.078 -2.52,-1.871 -3.996,-2.379 -1.582,-0.504 -3.164,-0.789 -4.93,-0.789 -2.519,0 -4.824,0.395 -6.984,1.192 -2.129,0.683 -4.102,1.582 -5.762,2.48 v 0 l -0.645,-9.543 v 0" /><path
         id="path34"
         style="fill:#231f20;fill-opacity:1;fill-rule:nonzero;stroke:none"
         d="m 760.762,490.051 c 1.554,-3.172 3.605,-5.656 6.125,-7.457 2.519,-1.797 5.468,-2.703 9.109,-2.703 3.633,0 6.692,0.906 9.211,2.808 2.527,1.805 4.578,4.289 6.16,7.457 1.543,3.203 2.668,6.981 3.352,11.231 0.644,4.281 1.004,8.965 1.004,14.039 v 0 0 0 c 0,5.078 -0.36,9.754 -1.004,14.148 -0.684,4.25 -1.809,8.028 -3.352,11.231 -1.582,3.168 -3.633,5.656 -6.16,7.558 -2.519,1.805 -5.578,2.7 -9.211,2.7 -3.641,0 -6.699,-0.895 -9.219,-2.7 -2.48,-1.902 -4.461,-4.39 -6.015,-7.558 -1.582,-3.203 -2.696,-6.981 -3.379,-11.231 -0.645,-4.394 -1.004,-9.07 -1.004,-14.148 0,-5.074 0.359,-9.758 1.004,-14.039 0.683,-4.356 1.797,-8.133 3.379,-11.336 v 0" /><path
         id="path36"
         style="fill:#231f20;fill-opacity:1;fill-rule:nonzero;stroke:none"
         d="m 347.988,301.48 h 14.801 v 99.211 h -13 l -21.781,-20.16 7.277,-10.652 12.703,13.211 v -81.61 0" /><path
         id="path38"
         style="fill:#231f20;fill-opacity:1;fill-rule:nonzero;stroke:none"
         d="m 369.73,323.113 h 37.696 V 301.48 h 13.965 v 21.633 h 10.73 v 11.774 h -10.73 v 65.804 h -17.313 l -34.348,-63.39 v -14.188 0" /><path
         id="path40"
         style="fill:#231f20;fill-opacity:1;fill-rule:nonzero;stroke:none"
         d="m 458.438,331.215 h 10.371 v 69.476 h -9.114 l -15.222,-14.144 5.07,-7.449 8.895,9.246 v -57.129 0" /><path
         id="path42"
         style="fill:#231f20;fill-opacity:1;fill-rule:nonzero;stroke:none"
         d="m 477.375,333.23 c 1.875,-0.722 3.992,-1.402 6.551,-1.906 2.453,-0.578 5.187,-0.898 7.988,-0.898 7.238,0 12.824,2.191 16.711,6.476 3.926,4.391 5.867,10.262 5.867,17.711 v 0 0 0 c 0,3.387 -0.469,6.481 -1.472,9.039 -1.047,2.7 -2.415,4.895 -4.075,6.696 -1.687,1.761 -3.738,3.058 -5.976,3.957 -2.344,0.902 -4.785,1.41 -7.344,1.41 -1.543,0 -3.027,-0.113 -4.285,-0.289 -1.367,-0.113 -2.551,-0.403 -3.418,-0.723 v 0 17.531 h 23.367 v 8.457 h -32.937 v -35.421 0 c 1.648,0.507 3.418,0.968 5.175,1.48 1.766,0.5 3.817,0.715 6.055,0.715 4.676,0 8.203,-1.293 10.652,-3.813 2.344,-2.484 3.528,-5.871 3.528,-9.937 0,-4.285 -1.184,-7.738 -3.633,-10.438 -2.453,-2.773 -5.762,-4.179 -9.973,-4.179 -2.41,0 -4.687,0.394 -6.738,1.082 -2.051,0.718 -3.887,1.508 -5.469,2.414 v 0 l -0.574,-9.364 v 0" /><path
         id="path44"
         style="fill:#231f20;fill-opacity:1;fill-rule:nonzero;stroke:none"
         d="m 544.941,335.465 h 31.25 v 12.383 h -31.25 v -12.383 0" /><path
         id="path46"
         style="fill:#231f20;fill-opacity:1;fill-rule:nonzero;stroke:none"
         d="m 621.555,301.48 h 14.793 v 99.211 h -12.996 l -21.782,-20.16 7.278,-10.652 12.707,13.211 v -81.61 0" /><path
         id="path48"
         style="fill:#231f20;fill-opacity:1;fill-rule:nonzero;stroke:none"
         d="m 650.566,301.48 h 16.457 l 29.59,85.422 v 13.789 h -53.312 v -12.636 h 39.054 L 650.566,301.48 v 0" /><path
         id="path50"
         style="fill:#231f20;fill-opacity:1;fill-rule:nonzero;stroke:none"
         d="m 708.926,333.23 c 2.051,-0.722 4.394,-1.402 7.062,-1.906 2.625,-0.578 5.36,-0.898 8.27,-0.898 3.43,0 6.555,0.5 9.406,1.402 2.84,1.008 5.176,2.375 7.234,4.067 2.051,1.8 3.594,3.996 4.68,6.48 1.074,2.484 1.649,5.293 1.649,8.461 v 0 0 0 c 0,2.59 -0.391,4.855 -1.075,6.875 -0.761,1.98 -1.765,3.562 -3.027,4.969 -1.258,1.402 -2.734,2.48 -4.395,3.277 -1.648,0.793 -3.417,1.402 -5.253,1.688 v 0 0.214 0 c 1.445,0.289 2.921,0.793 4.464,1.481 1.473,0.683 2.957,1.691 4.219,2.984 1.258,1.301 2.227,2.883 3.016,4.864 0.793,1.91 1.191,4.175 1.191,6.984 0,2.769 -0.508,5.363 -1.472,7.555 -1.086,2.199 -2.454,3.961 -4.219,5.476 -1.758,1.473 -3.781,2.594 -6.223,3.274 -2.449,0.687 -5.008,1.121 -7.812,1.121 -3.348,0 -6.27,-0.328 -8.821,-0.832 -2.632,-0.575 -4.859,-1.293 -6.843,-2.09 v 0 l 0.683,-9.426 v 0 c 2.051,1.078 4.328,1.977 6.555,2.66 2.265,0.723 4.394,1.012 6.269,1.012 3.204,0 5.938,-0.906 8.204,-2.703 2.234,-1.762 3.308,-4.356 3.308,-7.629 0,-2.09 -0.391,-3.781 -1.152,-5.188 -0.789,-1.515 -1.864,-2.593 -3.242,-3.597 -1.473,-0.867 -3.125,-1.59 -5.067,-1.985 -1.945,-0.504 -4.113,-0.683 -6.379,-0.683 v 0 h -2.801 v -8.348 0 c 0.575,0 1.368,0 2.333,0.066 0.871,0 2.05,0 3.417,0 4.114,0 7.317,-0.972 9.688,-2.875 2.344,-1.875 3.496,-4.683 3.496,-8.14 0,-2.192 -0.398,-4.102 -1.082,-5.688 -0.684,-1.582 -1.66,-2.875 -2.805,-3.886 -1.297,-1.078 -2.664,-1.871 -4.218,-2.375 -1.649,-0.508 -3.309,-0.793 -5.184,-0.793 -2.629,0 -5.07,0.394 -7.305,1.191 -2.265,0.684 -4.316,1.582 -6.086,2.481 v 0 l -0.683,-9.54 v 0" /><path
         id="path52"
         style="fill:#231f20;fill-opacity:1;fill-rule:nonzero;stroke:none"
         d="m 759.004,340.578 c 1.652,-3.172 3.781,-5.656 6.445,-7.453 2.629,-1.801 5.754,-2.699 9.571,-2.699 3.82,0 7.023,0.898 9.648,2.804 2.668,1.797 4.785,4.286 6.445,7.454 1.692,3.203 2.844,6.984 3.528,11.23 0.679,4.281 1.082,8.965 1.082,14.043 v 0 0 0 c 0,5.074 -0.403,9.758 -1.082,14.145 -0.684,4.25 -1.836,8.027 -3.528,11.23 -1.66,3.172 -3.777,5.656 -6.445,7.563 -2.625,1.796 -5.828,2.703 -9.648,2.703 -3.817,0 -7.051,-0.907 -9.676,-2.703 -2.637,-1.907 -4.688,-4.391 -6.34,-7.563 -1.66,-3.203 -2.84,-6.98 -3.524,-11.23 -0.695,-4.387 -1.085,-9.071 -1.085,-14.145 0,-5.078 0.39,-9.762 1.085,-14.043 0.684,-4.355 1.864,-8.137 3.524,-11.336 v 0" /><path
         id="path54"
         style="fill:#231f20;fill-opacity:1;fill-rule:nonzero;stroke:none"
         d="m 313.215,93.5469 h 45.863 v 12.6641 h -31.535 l 3.133,3.965 v 0 c 3.742,4.863 7.344,9.824 10.726,14.941 3.243,4.961 6.118,10.078 8.641,15.078 2.52,4.973 4.465,9.793 5.902,14.618 1.442,4.718 2.16,9.25 2.16,13.496 0,3.566 -0.468,6.847 -1.332,9.984 -0.933,3.125 -2.375,5.828 -4.21,8.238 -1.907,2.27 -4.321,4.102 -7.094,5.539 -2.879,1.262 -6.266,1.981 -10.117,1.981 -3.961,0 -7.664,-0.574 -10.942,-1.543 -3.351,-1.153 -6.48,-2.594 -9.254,-4.285 v 0 l 1.332,-14.512 v 0 c 1.91,1.875 4.325,3.711 7.098,5.262 2.766,1.582 5.902,2.445 9.394,2.445 3.704,0 6.731,-1.438 8.782,-4.426 2.019,-2.988 3.133,-6.66 3.133,-11.379 0,-3.277 -0.614,-6.804 -1.836,-10.652 -1.297,-3.82 -2.989,-7.957 -5.293,-12.063 -2.266,-4.285 -4.934,-8.679 -7.922,-13.394 -3.129,-4.68 -6.512,-9.504 -10.219,-14.465 v 0 l -6.41,-8.684 v -12.8081 0" /><path
         id="path56"
         style="fill:#231f20;fill-opacity:1;fill-rule:nonzero;stroke:none"
         d="m 372.258,106.934 c 2.051,-4.571 4.676,-8.0942 7.918,-10.6567 3.277,-2.5859 7.125,-3.8554 11.808,-3.8554 4.676,0 8.676,1.2695 11.914,3.9648 3.243,2.586 5.903,6.1213 7.957,10.6953 2.016,4.527 3.454,9.93 4.317,16.051 0.832,6.125 1.332,12.785 1.332,20.019 v 0 0 0 c 0,7.27 -0.5,13.93 -1.332,20.196 -0.863,6.117 -2.301,11.515 -4.317,16.054 -2.054,4.571 -4.714,8.098 -7.957,10.805 -3.238,2.547 -7.238,3.844 -11.914,3.844 -4.683,0 -8.679,-1.297 -11.921,-3.844 -3.235,-2.707 -5.754,-6.234 -7.805,-10.805 -2.059,-4.539 -3.496,-9.937 -4.324,-16.054 -0.864,-6.266 -1.332,-12.926 -1.332,-20.196 0,-7.234 0.468,-13.894 1.332,-20.019 0.828,-6.258 2.265,-11.66 4.324,-16.199 v 0" /><path
         id="path58"
         style="fill:#231f20;fill-opacity:1;fill-rule:nonzero;stroke:none"
         d="m 432.09,132.637 c 1.437,-3.164 3.273,-5.657 5.539,-7.453 2.305,-1.797 4.969,-2.696 8.281,-2.696 3.281,0 6.043,0.899 8.32,2.805 2.266,1.797 4.141,4.289 5.575,7.453 1.445,3.199 2.453,6.981 3.027,11.227 0.578,4.289 0.938,8.965 0.938,14.043 v 0 0 0 c 0,5.078 -0.36,9.757 -0.938,14.152 -0.574,4.25 -1.582,8.027 -3.027,11.23 -1.434,3.165 -3.309,5.653 -5.575,7.559 -2.277,1.797 -5.039,2.707 -8.32,2.707 -3.312,0 -6.086,-0.91 -8.351,-2.707 -2.266,-1.906 -4.032,-4.394 -5.469,-7.559 -1.445,-3.203 -2.449,-6.98 -3.027,-11.23 -0.61,-4.395 -0.938,-9.074 -0.938,-14.152 0,-5.078 0.328,-9.754 0.938,-14.043 0.578,-4.352 1.582,-8.133 3.027,-11.336 v 0" /><path
         id="path60"
         style="fill:#231f20;fill-opacity:1;fill-rule:nonzero;stroke:none"
         d="m 473.418,132.637 c 1.437,-3.164 3.273,-5.657 5.539,-7.453 2.305,-1.797 4.969,-2.696 8.281,-2.696 3.282,0 6.043,0.899 8.321,2.805 2.261,1.797 4.136,4.289 5.574,7.453 1.406,3.199 2.453,6.981 3.027,11.227 0.578,4.289 0.938,8.965 0.938,14.043 v 0 0 0 c 0,5.078 -0.36,9.757 -0.938,14.152 -0.574,4.25 -1.621,8.027 -3.027,11.23 -1.438,3.165 -3.313,5.653 -5.574,7.559 -2.278,1.797 -5.039,2.707 -8.321,2.707 -3.312,0 -6.086,-0.91 -8.351,-2.707 -2.266,-1.906 -4.032,-4.394 -5.469,-7.559 -1.445,-3.203 -2.449,-6.98 -3.027,-11.23 -0.614,-4.395 -0.938,-9.074 -0.938,-14.152 0,-5.078 0.324,-9.754 0.938,-14.043 0.578,-4.352 1.582,-8.133 3.027,-11.336 v 0" /><path
         id="path62"
         style="fill:#231f20;fill-opacity:1;fill-rule:nonzero;stroke:none"
         d="m 531.34,127.527 h 26.922 v 12.387 H 531.34 v -12.387 0" /><path
         id="path64"
         style="fill:#231f20;fill-opacity:1;fill-rule:nonzero;stroke:none"
         d="m 589.914,106.934 c 2.051,-4.571 4.676,-8.0942 7.949,-10.6567 3.242,-2.5859 7.098,-3.8554 11.778,-3.8554 4.675,0 8.672,1.2695 11.914,3.9648 3.242,2.586 5.906,6.1213 7.957,10.6953 2.011,4.527 3.488,9.93 4.316,16.051 0.832,6.125 1.34,12.785 1.34,20.019 v 0 0 0 c 0,7.27 -0.508,13.93 -1.34,20.196 -0.828,6.117 -2.305,11.515 -4.316,16.054 -2.051,4.571 -4.715,8.098 -7.957,10.805 -3.242,2.547 -7.239,3.844 -11.914,3.844 -4.68,0 -8.684,-1.297 -11.914,-3.844 -3.243,-2.707 -5.762,-6.234 -7.813,-10.805 -2.051,-4.539 -3.496,-9.937 -4.328,-16.054 -0.859,-6.266 -1.328,-12.926 -1.328,-20.196 0,-7.234 0.469,-13.894 1.328,-20.019 0.832,-6.258 2.277,-11.66 4.328,-16.199 v 0" /><path
         id="path66"
         style="fill:#231f20;fill-opacity:1;fill-rule:nonzero;stroke:none"
         d="m 655.176,145.594 -0.254,0.148 v 0 c 0.109,4.395 0.469,8.789 1.191,13.215 0.723,4.246 1.946,8.094 3.633,11.52 1.555,3.378 3.711,6.222 6.231,8.351 2.558,2.156 5.8,3.137 9.503,3.137 2.774,0 5.333,-0.442 7.598,-1.262 2.305,-1.015 4.207,-1.984 5.762,-2.988 v 0 l 0.613,13.203 v 0 c -1.699,0.723 -3.711,1.445 -6.121,2.129 -2.519,0.723 -5.293,1.004 -8.566,1.004 -5.868,0 -10.801,-1.297 -14.805,-3.992 -4.063,-2.696 -7.344,-6.368 -9.863,-11.231 -2.52,-4.824 -4.461,-10.652 -5.535,-17.316 -1.086,-6.844 -1.661,-14.364 -1.661,-22.606 0,-6.847 0.469,-13.074 1.297,-18.761 0.86,-5.68 2.305,-10.508 4.356,-14.645 2.05,-4.113 4.679,-7.3867 8.066,-9.6523 3.234,-2.3008 7.344,-3.4258 12.277,-3.4258 7.45,0 13.348,2.8515 17.782,8.5351 4.465,5.547 6.621,13.641 6.621,24.012 v 0 0 0 c 0,4.679 -0.469,8.965 -1.543,12.785 -1.082,3.848 -2.664,7.266 -4.578,10.117 -2.051,2.695 -4.36,4.961 -7.129,6.512 -2.735,1.582 -5.645,2.305 -8.887,2.305 -3.969,0 -7.344,-1.012 -9.863,-2.985 -2.668,-2.16 -4.68,-4.863 -6.125,-8.109 v 0" /><path
         id="path68"
         style="fill:#231f20;fill-opacity:1;fill-rule:nonzero;stroke:none"
         d="m 707.883,132.637 c 1.445,-3.164 3.308,-5.657 5.574,-7.453 2.277,-1.797 4.973,-2.696 8.254,-2.696 3.269,0 6.043,0.899 8.348,2.805 2.265,1.797 4.101,4.289 5.546,7.453 1.438,3.199 2.442,6.981 3.02,11.227 0.613,4.289 0.938,8.965 0.938,14.043 v 0 0 0 c 0,5.078 -0.325,9.757 -0.938,14.152 -0.578,4.25 -1.582,8.027 -3.02,11.23 -1.445,3.165 -3.281,5.653 -5.546,7.559 -2.305,1.797 -5.079,2.707 -8.348,2.707 -3.281,0 -6.055,-0.91 -8.359,-2.707 -2.266,-1.906 -4.024,-4.394 -5.469,-7.559 -1.438,-3.203 -2.453,-6.98 -3.028,-11.23 -0.578,-4.395 -0.929,-9.074 -0.929,-14.152 0,-5.078 0.351,-9.754 0.929,-14.043 0.575,-4.352 1.59,-8.133 3.028,-11.336 v 0" /><path
         id="path70"
         style="fill:#231f20;fill-opacity:1;fill-rule:nonzero;stroke:none"
         d="m 749.211,132.637 c 1.445,-3.164 3.281,-5.657 5.574,-7.453 2.278,-1.797 4.973,-2.696 8.254,-2.696 3.27,0 6.043,0.899 8.348,2.805 2.265,1.797 4.101,4.289 5.547,7.453 1.437,3.199 2.441,6.981 3.019,11.227 0.613,4.289 0.938,8.965 0.938,14.043 v 0 0 0 c 0,5.078 -0.325,9.757 -0.938,14.152 -0.578,4.25 -1.582,8.027 -3.019,11.23 -1.446,3.165 -3.282,5.653 -5.547,7.559 -2.305,1.797 -5.078,2.707 -8.348,2.707 -3.281,0 -6.086,-0.91 -8.359,-2.707 -2.266,-1.906 -4.024,-4.394 -5.469,-7.559 -1.438,-3.203 -2.453,-6.98 -3.027,-11.23 -0.579,-4.395 -0.93,-9.074 -0.93,-14.152 0,-5.078 0.351,-9.754 0.93,-14.043 0.574,-4.352 1.589,-8.133 3.027,-11.336 v 0" /><path
         id="path72"
         style="fill:#ffffff;fill-opacity:1;fill-rule:nonzero;stroke:none"
         d="m 345.18,471.863 c -2.016,6.66 -3.055,16.352 -3.055,28.692 0,12.39 1.039,22.039 3.055,28.875 1.984,6.804 5.691,10.222 10.875,10.222 5.328,0 9.035,-3.418 11.05,-10.078 1.981,-6.84 3.028,-16.488 3.028,-29.019 v 0 0 0 c 0,-12.34 -1.047,-22.032 -3.028,-28.692 -2.125,-6.84 -5.863,-10.222 -11.05,-10.222 -5.184,0 -8.891,3.382 -10.875,10.222 v 0" /><path
         id="path74"
         style="fill:#ffffff;fill-opacity:1;fill-rule:nonzero;stroke:none"
         d="m 422.113,507.832 c -4.246,2.266 -7.558,4.824 -9.828,7.813 -2.41,2.839 -3.597,6.117 -3.597,9.789 0,4.281 1.187,7.707 3.597,10.406 2.27,2.555 5.188,3.812 8.75,3.812 3.852,0 6.91,-1.257 9.035,-3.672 2.125,-2.554 3.203,-5.828 3.203,-9.679 v 0 0 0 c 0,-1.985 -0.253,-3.856 -0.937,-5.543 -0.645,-1.836 -1.438,-3.422 -2.516,-4.973 -1.078,-1.582 -2.269,-2.988 -3.605,-4.281 -1.328,-1.258 -2.625,-2.559 -4.102,-3.672 v 0" /><path
         id="path76"
         style="fill:#ffffff;fill-opacity:1;fill-rule:nonzero;stroke:none"
         d="m 420.133,497.32 c 1.98,-1.152 3.851,-2.304 5.687,-3.425 1.731,-1.293 3.352,-2.551 4.789,-4.133 1.336,-1.547 2.411,-3.242 3.211,-5.114 0.789,-1.98 1.18,-4.25 1.18,-6.808 v 0 0 0 c 0,-4.856 -1.18,-8.817 -3.598,-11.805 -2.519,-3.137 -5.832,-4.683 -10.078,-4.683 -4.644,0 -8.101,1.546 -10.66,4.824 -2.519,3.277 -3.707,7.094 -3.707,11.812 0,2.41 0.398,4.535 1.082,6.371 0.649,1.871 1.438,3.567 2.625,5.114 1.227,1.582 2.559,2.84 4.289,4.136 1.582,1.297 3.309,2.411 5.18,3.711 v 0" /><path
         id="path78"
         style="fill:#ffffff;fill-opacity:1;fill-rule:nonzero;stroke:none"
         d="m 472.844,495.336 c -1.406,4.684 -2.168,11.453 -2.168,20.09 0,8.676 0.762,15.41 2.168,20.195 1.367,4.789 3.992,7.168 7.625,7.168 3.711,0 6.301,-2.379 7.707,-7.059 1.406,-4.789 2.117,-11.554 2.117,-20.304 v 0 0 0 c 0,-8.637 -0.711,-15.406 -2.117,-20.09 -1.477,-4.785 -4.106,-7.16 -7.707,-7.16 -3.633,0 -6.258,2.375 -7.625,7.16 v 0" /><path
         id="path80"
         style="fill:#ffffff;fill-opacity:1;fill-rule:nonzero;stroke:none"
         d="m 518.445,495.336 c -1.363,4.684 -2.117,11.453 -2.117,20.09 0,8.676 0.754,15.41 2.117,20.195 1.41,4.789 3.996,7.168 7.641,7.168 3.738,0 6.336,-2.379 7.734,-7.059 1.368,-4.789 2.125,-11.554 2.125,-20.304 v 0 0 0 c 0,-8.637 -0.757,-15.406 -2.125,-20.09 -1.504,-4.785 -4.101,-7.16 -7.734,-7.16 -3.645,0 -6.231,2.375 -7.641,7.16 v 0" /><path
         id="path82"
         style="fill:#ffffff;fill-opacity:1;fill-rule:nonzero;stroke:none"
         d="m 768.359,495.336 c -1.367,4.684 -2.117,11.453 -2.117,20.09 0,8.676 0.75,15.41 2.117,20.195 1.407,4.789 3.996,7.168 7.637,7.168 3.742,0 6.34,-2.379 7.734,-7.059 1.368,-4.789 2.129,-11.554 2.129,-20.304 v 0 0 0 c 0,-8.637 -0.761,-15.406 -2.129,-20.09 -1.511,-4.785 -4.101,-7.16 -7.734,-7.16 -3.641,0 -6.23,2.375 -7.637,7.16 v 0" /><path
         id="path84"
         style="fill:#ffffff;fill-opacity:1;fill-rule:nonzero;stroke:none"
         d="m 381.328,334.887 25.813,50.468 h 0.285 v -50.468 h -26.098 v 0" /><path
         id="path86"
         style="fill:#ffffff;fill-opacity:1;fill-rule:nonzero;stroke:none"
         d="m 766.992,345.863 c -1.472,4.684 -2.226,11.45 -2.226,20.094 0,8.672 0.754,15.406 2.226,20.195 1.477,4.786 4.211,7.164 8.028,7.164 3.886,0 6.632,-2.378 8.105,-7.058 1.477,-4.789 2.227,-11.555 2.227,-20.301 v 0 0 0 c 0,-8.644 -0.75,-15.41 -2.227,-20.094 -1.555,-4.785 -4.285,-7.16 -8.105,-7.16 -3.817,0 -6.551,2.375 -8.028,7.16 v 0" /><path
         id="path88"
         style="fill:#ffffff;fill-opacity:1;fill-rule:nonzero;stroke:none"
         d="m 382.121,114.465 c -1.805,6.66 -2.773,16.336 -2.773,28.687 0,12.387 0.968,22.032 2.773,28.868 1.797,6.808 5.18,10.226 9.863,10.226 4.825,0 8.172,-3.418 9.969,-10.078 1.836,-6.848 2.774,-16.492 2.774,-29.016 v 0 0 0 c 0,-12.351 -0.938,-22.027 -2.774,-28.687 -1.91,-6.848 -5.293,-10.227 -9.969,-10.227 -4.683,0 -8.066,3.379 -9.863,10.227 v 0" /><path
         id="path90"
         style="fill:#ffffff;fill-opacity:1;fill-rule:nonzero;stroke:none"
         d="m 438.996,137.93 c -1.262,4.675 -1.945,11.445 -1.945,20.086 0,8.683 0.683,15.41 1.945,20.199 1.258,4.785 3.602,7.168 6.914,7.168 3.348,0 5.723,-2.383 6.981,-7.063 1.261,-4.785 1.945,-11.554 1.945,-20.304 v 0 0 0 c 0,-8.641 -0.684,-15.411 -1.945,-20.086 -1.368,-4.785 -3.7,-7.168 -6.981,-7.168 -3.312,0 -5.656,2.383 -6.914,7.168 v 0" /><path
         id="path92"
         style="fill:#ffffff;fill-opacity:1;fill-rule:nonzero;stroke:none"
         d="m 480.32,137.93 c -1.257,4.675 -1.941,11.445 -1.941,20.086 0,8.683 0.684,15.41 1.941,20.199 1.262,4.785 3.606,7.168 6.918,7.168 3.348,0 5.723,-2.383 6.981,-7.063 1.261,-4.785 1.945,-11.554 1.945,-20.304 v 0 0 0 c 0,-8.641 -0.684,-15.411 -1.945,-20.086 -1.367,-4.785 -3.699,-7.168 -6.981,-7.168 -3.312,0 -5.656,2.383 -6.918,7.168 v 0" /><path
         id="path94"
         style="fill:#ffffff;fill-opacity:1;fill-rule:nonzero;stroke:none"
         d="m 599.777,114.465 c -1.797,6.66 -2.773,16.336 -2.773,28.687 0,12.387 0.976,22.032 2.773,28.868 1.793,6.808 5.184,10.226 9.864,10.226 4.824,0 8.172,-3.418 10.007,-10.078 1.797,-6.848 2.735,-16.492 2.735,-29.016 v 0 0 0 c 0,-12.351 -0.938,-22.027 -2.735,-28.687 -1.941,-6.848 -5.332,-10.227 -10.007,-10.227 -4.68,0 -8.071,3.379 -9.864,10.227 v 0" /><path
         id="path96"
         style="fill:#ffffff;fill-opacity:1;fill-rule:nonzero;stroke:none"
         d="m 659.387,110.176 c -1.114,1.875 -1.836,3.996 -2.297,6.406 -0.469,2.414 -0.723,4.969 -0.723,7.813 0,2.695 0.254,5.402 0.828,7.812 0.5,2.449 1.223,4.57 2.309,6.406 0.965,1.836 2.156,3.282 3.738,4.434 1.543,0.965 3.242,1.543 5.293,1.543 2.012,0 3.848,-0.578 5.403,-1.543 1.542,-1.152 2.773,-2.598 3.738,-4.434 0.937,-1.836 1.66,-4.101 2.16,-6.554 0.469,-2.411 0.723,-4.969 0.723,-7.664 v 0 0 0 c 0,-2.844 -0.254,-5.399 -0.723,-7.813 -0.5,-2.41 -1.223,-4.531 -2.16,-6.406 -1.074,-1.836 -2.305,-3.387 -3.848,-4.395 -1.582,-1.008 -3.281,-1.543 -5.293,-1.543 -2.051,0 -3.855,0.535 -5.437,1.543 -1.543,1.008 -2.778,2.559 -3.711,4.395 v 0" /><path
         id="path98"
         style="fill:#ffffff;fill-opacity:1;fill-rule:nonzero;stroke:none"
         d="m 714.797,137.93 c -1.262,4.675 -1.945,11.445 -1.945,20.086 0,8.683 0.683,15.41 1.945,20.199 1.258,4.785 3.633,7.168 6.914,7.168 3.379,0 5.723,-2.383 6.98,-7.063 1.262,-4.785 1.946,-11.554 1.946,-20.304 v 0 0 0 c 0,-8.641 -0.684,-15.411 -1.946,-20.086 -1.336,-4.785 -3.711,-7.168 -6.98,-7.168 -3.281,0 -5.656,2.383 -6.914,7.168 v 0" /><path
         id="path100"
         style="fill:#ffffff;fill-opacity:1;fill-rule:nonzero;stroke:none"
         d="m 756.125,137.93 c -1.262,4.675 -1.945,11.445 -1.945,20.086 0,8.683 0.683,15.41 1.945,20.199 1.258,4.785 3.633,7.168 6.914,7.168 3.379,0 5.723,-2.383 6.981,-7.063 1.261,-4.785 1.945,-11.554 1.945,-20.304 v 0 0 0 c 0,-8.641 -0.684,-15.411 -1.945,-20.086 -1.336,-4.785 -3.711,-7.168 -6.981,-7.168 -3.281,0 -5.656,2.383 -6.914,7.168 v 0" /><path
         id="path102"
         style="fill:#ee2c30;fill-opacity:1;fill-rule:nonzero;stroke:none"
         d="m 164.176,532.926 c 58.64,0 106.019,-47.488 106.558,-106.309 0,-58.285 -47.375,-106.308 -106.023,-106.308 -58.676,0 -106.5899,46.941 -106.5899,106.308 0,58.281 47.3709,106.309 106.0549,106.309 v 0" /><path
         id="path104"
         style="fill:#ffffff;fill-opacity:1;fill-rule:nonzero;stroke:none"
         d="m 206.723,369.266 c -11.914,-8.676 -26.313,-13.754 -41.828,-13.754 -39.313,0 -71.3872,31.465 -71.3872,71.246 0,15.551 5.0391,29.992 13.7152,41.582 v 0 l 99.5,-99.074 v 0" /><path
         id="path106"
         style="fill:#ffffff;fill-opacity:1;fill-rule:nonzero;stroke:none"
         d="m 122.09,483.531 c 11.558,8.313 25.957,13.75 41.469,14.11 39.316,0 71.75,-31.102 71.75,-70.883 0.359,-15.551 -4.317,-29.985 -13.356,-41.938 v 0 l -99.863,98.711 v 0" /><path
         id="path108"
         style="fill:#1a67bb;fill-opacity:1;fill-rule:nonzero;stroke:none"
         d="m 201.973,370.023 c -10.688,-7.273 -23.434,-11.414 -37.223,-11.414 -37.547,0 -68.2227,30.063 -68.2227,68.039 0,13.465 4.1407,26.247 11.0157,37.297 v 0 l 94.43,-93.922 v 0" /><path
         id="path110"
         style="fill:#1a67bb;fill-opacity:1;fill-rule:nonzero;stroke:none"
         d="m 126.879,482.813 c 10.332,6.91 23.078,11.41 36.863,11.734 37.547,0 68.582,-29.699 68.582,-67.684 0.324,-13.461 -3.457,-26.242 -10.691,-37.613 v 0 l -94.754,93.563 v 0" /><path
         id="path112"
         style="fill:#1a67bb;fill-opacity:1;fill-rule:nonzero;stroke:none"
         d="M 72.3008,228.184 H 256.547 V 43.9336 H 72.3008 v 184.2504 0" /><path
         id="path114"
         style="fill:#ffffff;fill-opacity:1;fill-rule:nonzero;stroke:none"
         d="M 148.945,67.1563 H 125.762 V 197.801 h 65.343 v 0 c 5.36,0 11.231,-2.086 14.719,-6.766 4.684,-6.121 4.465,-11.953 4.465,-11.953 v 0 -43.781 0 c 0,-3.055 -0.934,-9.61 -5.617,-14.293 -4.207,-4.211 -8.676,-5.863 -13.567,-5.863 v 0 h -42.16 v -47.9887 0" /><path
         id="path116"
         style="fill:#1a67bb;fill-opacity:1;fill-rule:nonzero;stroke:none"
         d="m 148.945,135.234 v 41.903 h 33.266 v 0 c 1.402,0 3.023,0 3.961,-0.934 0.933,-0.941 1.187,-1.875 1.187,-3.969 v 0 -32.066 0 c 0,-1.66 -0.468,-3.07 -1.406,-3.75 -0.933,-0.941 -1.871,-1.184 -3.527,-1.184 v 0 h -33.481 v 0" /></g></g></svg>