<?xml version="1.0" encoding="UTF-8" standalone="no"?>
<svg
   xmlns:dc="http://purl.org/dc/elements/1.1/"
   xmlns:cc="http://creativecommons.org/ns#"
   xmlns:rdf="http://www.w3.org/1999/02/22-rdf-syntax-ns#"
   xmlns:svg="http://www.w3.org/2000/svg"
   xmlns="http://www.w3.org/2000/svg"
   viewBox="0 0 170.45332 57.066666"
   height="57.066666"
   width="170.45332"
   xml:space="preserve"
   id="svg2"
   version="1.1"><metadata
     id="metadata8"><rdf:RDF><cc:Work
         rdf:about=""><dc:format>image/svg+xml</dc:format><dc:type
           rdf:resource="http://purl.org/dc/dcmitype/StillImage" /></cc:Work></rdf:RDF></metadata><defs
     id="defs6" /><g
     transform="matrix(1.3333333,0,0,-1.3333333,0,57.066667)"
     id="g10"><g
       transform="scale(0.1)"
       id="g12"><path
         id="path14"
         style="fill:#ffffff;fill-opacity:1;fill-rule:nonzero;stroke:none"
         d="M 1.41797,1.41797 H 1277.008 v 425.191 H 1.41797 Z" /><path
         id="path16"
         style="fill:none;stroke:#231f20;stroke-width:2.83500004;stroke-linecap:butt;stroke-linejoin:miter;stroke-miterlimit:4;stroke-dasharray:none;stroke-opacity:1"
         d="M 1.41797,1.41797 H 1277.01 V 426.609 H 1.41797 V 1.41797" /><path
         id="path18"
         style="fill:#231f20;fill-opacity:1;fill-rule:nonzero;stroke:none"
         d="m 327.289,343.559 c 70.418,0 127.551,-57.133 127.551,-127.547 0,-70.414 -57.133,-127.5432 -127.551,-127.5432 -70.414,0 -127.547,57.1292 -127.547,127.5432 0,70.414 57.133,127.547 127.547,127.547 v 0" /><path
         id="path20"
         style="fill:#231f20;fill-opacity:1;fill-rule:nonzero;stroke:none"
         d="m 958.121,334.488 c 66.489,0 120.449,-53.965 120.449,-120.457 0,-66.492 -53.96,-120.4568 -120.449,-120.4568 -66.496,0 -120.461,53.9648 -120.461,120.4568 0,66.492 53.965,120.457 120.461,120.457 v 0" /><path
         id="path22"
         style="fill:#ee2c30;fill-opacity:1;fill-rule:nonzero;stroke:none"
         d="m 327.289,329.398 c 62.609,0 113.387,-50.777 113.387,-113.386 0,-62.614 -50.778,-113.383 -113.387,-113.383 -62.609,0 -113.387,50.769 -113.387,113.383 0,62.609 50.778,113.386 113.387,113.386 v 0" /></g></g></svg>