<?xml version="1.0" encoding="UTF-8" standalone="no"?>
<svg
   xmlns:dc="http://purl.org/dc/elements/1.1/"
   xmlns:cc="http://creativecommons.org/ns#"
   xmlns:rdf="http://www.w3.org/1999/02/22-rdf-syntax-ns#"
   xmlns:svg="http://www.w3.org/2000/svg"
   xmlns="http://www.w3.org/2000/svg"
   viewBox="0 0 113.38667 113.38667"
   height="113.38667"
   width="113.38667"
   xml:space="preserve"
   id="svg2"
   version="1.1"><metadata
     id="metadata8"><rdf:RDF><cc:Work
         rdf:about=""><dc:format>image/svg+xml</dc:format><dc:type
           rdf:resource="http://purl.org/dc/dcmitype/StillImage" /></cc:Work></rdf:RDF></metadata><defs
     id="defs6" /><g
     transform="matrix(1.3333333,0,0,-1.3333333,0,113.38667)"
     id="g10"><g
       transform="scale(0.1)"
       id="g12"><path
         id="path14"
         style="fill:#231f20;fill-opacity:1;fill-rule:nonzero;stroke:none"
         d="M 0,0 H 850.387 V 850.391 H 0 Z" /><path
         id="path16"
         style="fill:#ffffff;fill-opacity:1;fill-rule:nonzero;stroke:none"
         d="m 8.51172,8.50781 h 833.367 v 833.371 H 8.51172 Z" /><path
         id="path18"
         style="fill:#231f20;fill-opacity:1;fill-rule:nonzero;stroke:none"
         d="m 467.809,498.961 v 128.562 l 84.98,48.817 -0.137,49.379 -43.457,25.097 -41.34,-24.324 v 48.34 l -42.55,24.543 -42.512,-24.586 v -48.512 l -41.688,24.539 -43.457,-25.097 -0.128,-49.379 85.273,-48.992 v -128.52 l -111.543,64.414 0.219,98.024 -42.856,24.578 -43.461,-25.102 0.391,-47.949 -41.859,24.145 -42.512,-24.579 0.043,-49.074 41.992,-24.281 -42.078,-23.844 v -50.156 l 42.684,-24.84 85.058,49.375 111.328,-64.281 -111.457,-64.32 -84.89,49.25 -42.68,-24.844 v -50.156 l 41.859,-23.762 -41.902,-24.188 0.043,-49.074 42.512,-24.492 41.945,24.23 -0.434,-48.3 43.461,-25.098 42.852,24.578 -0.215,98.281 111.5,64.375 V 222.961 l -85.191,-48.945 0.132,-49.387 43.457,-25.0977 41.602,24.4917 V 75.5977 l 42.465,-24.5821 42.512,24.543 v 48.3864 l 41.511,-24.4137 43.457,25.0977 0.137,49.387 -85.105,48.894 v 128.692 l 111.328,-64.239 -0.215,-98.281 42.851,-24.578 43.457,25.098 -0.429,48.3 41.941,-24.23 42.512,24.492 0.047,49.074 -41.903,24.188 41.856,23.762 v 50.156 l -42.676,24.844 -84.894,-49.25 -111.454,64.32 111.329,64.281 85.058,-49.375 42.684,24.84 v 50.156 l -42.078,23.844 41.992,24.281 0.039,49.074 -42.512,24.579 -41.855,-24.145 0.39,47.949 -43.465,25.102 -42.851,-24.578 0.215,-98.024 -111.328,-64.281" /></g></g></svg>