<?xml version="1.0" encoding="UTF-8" standalone="no"?>
<svg
   xmlns:dc="http://purl.org/dc/elements/1.1/"
   xmlns:cc="http://creativecommons.org/ns#"
   xmlns:rdf="http://www.w3.org/1999/02/22-rdf-syntax-ns#"
   xmlns:svg="http://www.w3.org/2000/svg"
   xmlns="http://www.w3.org/2000/svg"
   viewBox="0 0 170.45332 57.066666"
   height="57.066666"
   width="170.45332"
   xml:space="preserve"
   id="svg2"
   version="1.1"><metadata
     id="metadata8"><rdf:RDF><cc:Work
         rdf:about=""><dc:format>image/svg+xml</dc:format><dc:type
           rdf:resource="http://purl.org/dc/dcmitype/StillImage" /></cc:Work></rdf:RDF></metadata><defs
     id="defs6" /><g
     transform="matrix(1.3333333,0,0,-1.3333333,0,57.066667)"
     id="g10"><g
       transform="scale(0.1)"
       id="g12"><path
         id="path14"
         style="fill:#ffffff;fill-opacity:1;fill-rule:nonzero;stroke:none"
         d="M 1.41797,1.41797 H 1277.008 v 425.191 H 1.41797 Z" /><path
         id="path16"
         style="fill:none;stroke:#231f20;stroke-width:2.83500004;stroke-linecap:butt;stroke-linejoin:miter;stroke-miterlimit:4;stroke-dasharray:none;stroke-opacity:1"
         d="M 1.41797,1.41797 H 1277.01 V 426.609 H 1.41797 V 1.41797" /><path
         id="path18"
         style="fill:#231f20;fill-opacity:1;fill-rule:nonzero;stroke:none"
         d="M 72.3008,107.723 256.547,213.992 72.3008,320.305 V 107.723" /><path
         id="path20"
         style="fill:#231f20;fill-opacity:1;fill-rule:nonzero;stroke:none"
         d="m 1206.12,107.723 -184.25,106.269 184.25,106.313 V 107.723" /><path
         id="path22"
         style="fill:#231f20;fill-opacity:1;fill-rule:nonzero;stroke:none"
         d="m 314.906,114.773 c 5.758,-2.476 12.383,-4.96 19.801,-6.765 7.414,-2.078 15.082,-3.125 23.324,-3.125 9.649,0 18.434,1.758 26.395,4.93 7.988,3.527 14.578,8.527 20.336,14.542 5.761,6.407 10.191,14.219 13.211,23.118 3.023,8.882 4.644,18.82 4.644,30.199 v 0 0 0 c 0,9.254 -1.078,17.426 -3.023,24.516 -2.196,7.128 -4.93,12.777 -8.496,17.785 -3.602,4.968 -7.703,8.855 -12.383,11.699 -4.68,2.844 -9.613,5.004 -14.832,6.047 v 0 0.719 0 c 4.14,1.082 8.242,2.847 12.637,5.332 4.14,2.48 8.242,6.043 11.804,10.656 3.602,4.605 6.34,10.297 8.531,17.422 2.2,6.73 3.317,14.906 3.317,24.875 0,9.937 -1.406,19.191 -4.141,27.004 -3.023,7.804 -6.875,14.218 -11.808,19.543 -4.969,5.328 -10.731,9.214 -17.606,11.742 -6.84,2.476 -14.004,3.883 -21.957,3.883 -9.363,0 -17.605,-1.079 -24.734,-2.844 -7.414,-2.125 -13.754,-4.606 -19.262,-7.453 v 0 l 1.945,-33.77 v 0 c 5.762,3.926 12.098,7.129 18.399,9.613 6.336,2.489 12.383,3.532 17.601,3.532 9.071,0 16.743,-3.168 23.075,-9.578 6.339,-6.407 9.328,-15.622 9.328,-27.36 0,-7.449 -1.078,-13.5 -3.278,-18.469 -2.195,-5.363 -5.218,-9.25 -9.07,-12.816 -4.141,-3.203 -8.785,-5.687 -14.293,-7.09 -5.508,-1.801 -11.558,-2.484 -17.855,-2.484 v 0 h -7.996 v -29.844 0 c 1.656,0 3.855,0 6.628,0.32 2.446,0 5.754,0 9.61,0 11.523,0 20.594,-3.523 27.215,-10.293 6.586,-6.73 9.863,-16.703 9.863,-29.125 0,-7.812 -1.078,-14.578 -3.023,-20.265 -1.907,-5.688 -4.641,-10.293 -7.954,-13.86 -3.562,-3.886 -7.418,-6.738 -11.812,-8.535 -4.676,-1.769 -9.359,-2.844 -14.578,-2.844 -7.414,0 -14.293,1.438 -20.59,4.29 -6.336,2.48 -12.098,5.683 -17.066,8.886 v 0 l -1.907,-34.133 v 0" /><path
         id="path24"
         style="fill:#231f20;fill-opacity:1;fill-rule:nonzero;stroke:none"
         d="m 447.637,65.0586 h 23.652 l 19.512,85.2544 H 461.68 L 447.637,65.0586 v 0" /><path
         id="path26"
         style="fill:#231f20;fill-opacity:1;fill-rule:nonzero;stroke:none"
         d="m 517.262,107.684 h 88.992 v 26.859 h -61.199 l 6.05,8.465 v 0 c 7.27,10.254 14.25,20.84 20.805,31.715 6.297,10.582 11.914,21.453 16.813,32 4.894,10.586 8.64,20.843 11.449,31.136 2.808,9.977 4.207,19.625 4.207,28.7 0,7.519 -0.93,14.464 -2.586,21.125 -1.836,6.664 -4.648,12.39 -8.176,17.535 -3.711,4.824 -8.387,8.75 -13.754,11.773 -5.613,2.699 -12.168,4.207 -19.652,4.207 -7.707,0 -14.941,-1.183 -21.242,-3.308 -6.551,-2.414 -12.602,-5.434 -17.996,-9.075 v 0 l 2.586,-30.781 v 0 c 3.746,3.93 8.39,7.852 13.789,11.164 5.367,3.313 11.453,5.149 18.218,5.149 7.239,0 13.067,-3.024 17.028,-9.399 4,-6.336 6.082,-14.183 6.082,-24.152 0,-6.949 -1.153,-14.473 -3.488,-22.649 -2.594,-8.168 -5.833,-16.918 -10.301,-25.664 -4.422,-9.07 -9.574,-18.429 -15.403,-28.406 -6.086,-9.973 -12.605,-20.23 -19.839,-30.816 v 0 l -12.383,-18.399 v -27.179 0" /><path
         id="path28"
         style="fill:#231f20;fill-opacity:1;fill-rule:nonzero;stroke:none"
         d="m 631.852,136.055 c 3.961,-9.649 9.07,-17.207 15.371,-22.649 6.297,-5.429 13.789,-8.133 22.902,-8.133 9.098,0 16.805,2.704 23.102,8.426 6.339,5.434 11.445,13 15.449,22.68 3.957,9.644 6.769,21.133 8.39,34.129 1.649,12.961 2.586,27.176 2.586,42.59 v 0 0 0 c 0,15.402 -0.937,29.586 -2.586,42.875 -1.621,12.996 -4.433,24.476 -8.39,34.125 -4.004,9.687 -9.11,17.211 -15.449,22.968 -6.297,5.434 -14.004,8.133 -23.102,8.133 -9.113,0 -16.82,-2.699 -23.117,-8.133 -6.301,-5.757 -11.195,-13.281 -15.156,-22.968 -3.961,-9.649 -6.77,-21.129 -8.422,-34.125 -1.621,-13.289 -2.559,-27.473 -2.559,-42.875 0,-15.414 0.938,-29.629 2.559,-42.59 1.652,-13.32 4.461,-24.766 8.422,-34.453 v 0" /><path
         id="path30"
         style="fill:#231f20;fill-opacity:1;fill-rule:nonzero;stroke:none"
         d="m 790.074,107.684 h 28.582 v 111.57 c 0,13.496 2.188,23.793 6.301,31.281 4.141,7.453 10.438,11.02 18.426,11.02 13.176,0 19.765,-11.379 19.765,-33.774 v 0 -120.097 h 28.586 v 111.57 0 c 0,13.496 2.196,23.793 6.336,31.281 4.102,7.453 10.442,11.02 18.399,11.02 13.176,0 19.797,-11.379 19.797,-33.774 v 0 -120.097 h 28.582 v 119.382 0 c 0,21.309 -3.309,37.657 -9.903,48.672 -6.875,11.016 -17.058,16.703 -30.781,16.703 -9.07,0 -16.484,-2.847 -22.273,-8.535 -5.762,-6.011 -10.157,-12.777 -13.723,-20.23 -1.367,3.527 -3.027,7.09 -4.969,10.656 -1.906,3.203 -4.386,6.406 -7.129,9.254 -2.734,2.484 -6.047,4.605 -9.609,6.371 -3.566,1.801 -7.988,2.484 -12.637,2.484 -8.82,0 -15.949,-2.847 -21.711,-8.535 -5.789,-6.011 -10.437,-13.14 -13.457,-22.031 v 0 h -0.574 v 0 c 0,1.078 0,3.203 0,6.051 -0.254,2.48 -0.254,5.328 -0.254,8.168 -0.293,2.847 -0.293,5.687 -0.293,8.172 -0.285,2.488 -0.285,4.644 -0.285,5.691 v 0 h -28.301 v 0 c 0.293,-4.973 0.551,-10.301 0.832,-15.988 0.293,-5.688 0.293,-11.735 0.293,-18.465 v 0 -147.82 0" /><path
         id="path32"
         style="fill:#ffffff;fill-opacity:1;fill-rule:nonzero;stroke:none"
         d="m 650.961,152.078 c -3.484,14.184 -5.359,34.738 -5.359,61.02 0,26.277 1.875,46.8 5.359,61.304 3.496,14.508 10.051,21.746 19.164,21.746 9.352,0 15.867,-7.238 19.391,-21.457 3.496,-14.472 5.371,-35.027 5.371,-61.593 v 0 0 0 c 0,-26.282 -1.875,-46.836 -5.371,-61.02 -3.739,-14.512 -10.293,-21.746 -19.391,-21.746 -9.113,0 -15.668,7.234 -19.164,21.746 v 0" /></g></g></svg>