<?xml version="1.0" encoding="UTF-8" standalone="no"?>
<svg
   xmlns:dc="http://purl.org/dc/elements/1.1/"
   xmlns:cc="http://creativecommons.org/ns#"
   xmlns:rdf="http://www.w3.org/1999/02/22-rdf-syntax-ns#"
   xmlns:svg="http://www.w3.org/2000/svg"
   xmlns="http://www.w3.org/2000/svg"
   viewBox="0 0 113.38667 113.38667"
   height="113.38667"
   width="113.38667"
   xml:space="preserve"
   id="svg2"
   version="1.1"><metadata
     id="metadata8"><rdf:RDF><cc:Work
         rdf:about=""><dc:format>image/svg+xml</dc:format><dc:type
           rdf:resource="http://purl.org/dc/dcmitype/StillImage" /></cc:Work></rdf:RDF></metadata><defs
     id="defs6" /><g
     transform="matrix(1.3333333,0,0,-1.3333333,0,113.38667)"
     id="g10"><g
       transform="scale(0.1)"
       id="g12"><path
         id="path14"
         style="fill:#231f20;fill-opacity:1;fill-rule:nonzero;stroke:none"
         d="M 0,0 H 850.391 V 850.391 H 0 Z" /><path
         id="path16"
         style="fill:#ffffff;fill-opacity:1;fill-rule:nonzero;stroke:none"
         d="m 7.09375,7.08984 h 836.207 v 836.211 H 7.09375 Z" /><path
         id="path18"
         style="fill:#231f20;fill-opacity:1;fill-rule:nonzero;stroke:none"
         d="m 183.785,137.414 24.223,6.258 -11.231,14.687 -4.57,-3.457 -18.359,24.844 47.125,34.992 3.672,-6.691 15.371,13.215 -30.059,30.879 14.688,14.257 32.214,-32.394 147.676,108.215 14.039,-19.016 -151.344,-111.699 3.454,-4.969 81.328,59.219 12.523,-16.848 -75.023,-55.547 v 0 c -1.078,0.215 -2.586,0.215 -3.672,0.215 -11.66,0.645 -23.363,-2.597 -33.516,-8.426 -9.5,-5.402 -17.281,-13.175 -22.929,-22.675 -5.614,-9.512 -8.641,-20.305 -8.422,-31.328 0.215,-5.618 1.293,-11.446 2.808,-16.848 0.645,-2.156 1.942,-5.184 2.59,-7.344 v 0 L 62.7148,71.9648 l 1.293,-6.2617 -9.0703,-1.9414 -1.293,6.2578 -21.4218,-4.539 -3.8868,18.1445 151.5591,41.043 3.89,12.746 v 0" /><path
         id="path20"
         style="fill:#231f20;fill-opacity:1;fill-rule:nonzero;stroke:none"
         d="m 217.301,417.926 c 2.371,0.644 5.828,1.726 8.207,2.156 17.316,4.32 35.246,6.051 52.988,6.051 19.66,-0.219 39.567,-3.028 58.789,-7.992 18.828,-5.188 37.188,-12.746 54.074,-22.465 17.278,-9.938 33.086,-22.246 47.129,-36.504 13.817,-14.074 25.946,-29.633 35.887,-46.692 9.934,-17.058 17.488,-35.644 22.676,-54.648 4.57,-16.414 7.383,-33.477 7.812,-50.547 0,-2.586 0,-6.258 0,-8.855 v 0 h -13 v 0 c 0,2.597 0,6.054 -0.211,8.64 -0.429,15.989 -3.019,31.973 -7.343,47.305 -4.961,17.93 -12.09,35.422 -21.602,51.621 -9.316,15.988 -20.547,30.676 -33.727,43.848 -13.214,13.215 -28.121,24.664 -44.136,34.164 -15.985,9.293 -33.051,16.637 -51.016,21.387 -17.926,4.968 -36.754,7.128 -55.332,7.343 -16.449,0.215 -33.73,-1.078 -49.535,-5.183 -2.375,-0.645 -5.832,-1.508 -8.207,-2.375 v 0 l -3.453,12.746 v 0" /><path
         id="path22"
         style="fill:#231f20;fill-opacity:1;fill-rule:nonzero;stroke:none"
         d="m 282.852,188.391 c 31.324,0 56.418,-25.489 56.418,-56.809 0,-31.102 -25.309,-56.375 -56.633,-56.375 -31.137,0 -56.446,25.273 -56.446,56.375 0,31.32 25.309,56.809 56.661,56.809 v 0" /><path
         id="path24"
         style="fill:#231f20;fill-opacity:1;fill-rule:nonzero;stroke:none"
         d="m 196.672,493.52 c 2.375,0.652 6.262,1.515 8.637,2.164 24.011,5.398 48.671,8.636 73.296,8.636 26.606,0 53.208,-3.453 78.915,-10.582 25.523,-6.914 49.964,-17.277 72.863,-30.457 23.144,-13.386 44.746,-29.804 63.574,-48.812 18.797,-18.793 35.027,-39.746 48.203,-62.684 13.211,-23.101 23.582,-47.945 30.496,-73.648 6.477,-23.117 10.149,-47.09 10.586,-70.852 0,-2.586 0,-6.258 0,-8.855 v 0 h -11.453 v 0 c 0,2.383 0,6.054 0,8.425 -0.43,22.903 -4.101,46.008 -10.363,68.04 -6.699,24.628 -16.453,48.386 -29.199,70.632 -12.743,22.286 -28.329,42.801 -46.473,60.95 -18.184,18.14 -38.703,33.695 -60.988,46.652 -22.032,12.531 -45.61,22.469 -70.055,29.16 -24.621,6.699 -50.363,10.371 -76.106,10.586 -23.542,0 -47.125,-3.027 -70.054,-8.422 -2.379,-0.648 -6.266,-1.512 -8.422,-2.164 v 0 l -3.457,11.231 v 0" /><path
         id="path26"
         style="fill:#231f20;fill-opacity:1;fill-rule:nonzero;stroke:none"
         d="m 175.719,569.984 c 2.156,0.653 6.48,1.516 8.636,2.164 30.708,6.911 62.5,11.231 94.075,11.231 33.515,0 67.246,-4.535 99.648,-13.395 32.215,-8.636 63.145,-21.593 92.117,-38.23 29.2,-16.848 55.989,-37.582 79.778,-61.344 23.797,-23.758 44.316,-50.328 60.984,-79.273 16.633,-29.153 29.59,-60.297 38.273,-92.699 8.204,-29.805 12.743,-60.477 13.172,-91.153 0.215,-2.801 0.215,-6.258 0.215,-8.855 v 0 h -9.285 v 0 c 0,2.597 0,6.269 -0.219,8.855 -1.082,29.817 -4.968,59.836 -12.781,88.781 -8.418,31.747 -21.16,62.247 -37.832,90.536 -16.199,28.082 -36.113,54 -59.004,77.113 -23.367,23.324 -49.715,43.633 -78.484,60.265 -27.903,15.981 -58.176,28.297 -89.313,36.719 -31.789,8.641 -64.621,13.395 -97.492,13.395 -30.273,-0.215 -61.629,-4.754 -91.258,-11.231 -2.375,-0.437 -6.48,-1.515 -8.636,-1.949 v 0 l -2.594,9.07 v 0" /><path
         id="path28"
         style="fill:#231f20;fill-opacity:1;fill-rule:nonzero;stroke:none"
         d="m 155.27,645.801 c 2.378,0.648 6.05,1.515 8.421,2.164 37.622,9.285 76.11,14.039 114.805,14.039 40.645,0 81.074,-5.402 120.242,-15.984 38.703,-10.372 75.891,-25.922 110.668,-46.008 35.242,-20.305 67.891,-44.93 96.66,-73.875 28.329,-28.508 52.95,-60.91 73.075,-95.903 20.129,-34.992 36.113,-72.363 46.472,-111.496 9.758,-36.289 14.731,-74.078 15.813,-111.883 0,-2.371 0,-5.828 0,-8.425 v 0 h -7.598 v 0 c -0.215,2.597 -0.215,5.84 -0.215,8.425 -1.082,36.934 -5.613,74.305 -15.125,109.942 -10.148,38.445 -25.957,75.422 -46.047,109.98 -19.902,34.129 -43.875,65.883 -71.992,93.961 -28.113,28.293 -60.125,52.703 -94.929,72.793 -34.172,19.657 -70.93,34.774 -108.977,45.145 -38.484,10.367 -78.266,15.98 -118.047,15.98 -37.832,0 -76.101,-5.398 -113.074,-13.82 -2.16,-0.648 -6.047,-1.516 -8.211,-1.945 v 0 l -1.941,6.91 v 0" /><path
         id="path30"
         style="fill:#231f20;fill-opacity:1;fill-rule:nonzero;stroke:none"
         d="m 134.645,722.305 c 2.156,0.429 6.043,1.508 7.988,2.16 44.535,11.449 90.18,17.062 136.012,17.062 47.335,0 94.675,-6.261 140.539,-18.793 45.613,-12.308 89.5,-30.453 130.359,-54.254 41.07,-23.757 78.699,-52.699 112.215,-86.394 33.515,-33.481 62.492,-71.066 86.035,-112.106 23.801,-41.039 41.973,-85.324 54.504,-131.152 11.668,-42.551 18.797,-87.265 18.359,-131.543 -0.215,-2.371 -0.215,-6.472 -0.215,-8.855 v 0 h -4.746 v 0 c 0,2.383 0,6.484 0,8.855 -0.441,44.063 -6.914,87.91 -18.359,130.254 -12.356,45.606 -30.285,89.238 -53.859,130.063 -23.329,40.613 -52.098,77.98 -85.176,111.027 -33.301,33.262 -70.703,61.992 -111.348,85.535 -40.644,23.363 -84.101,41.504 -129.277,53.606 -45.434,12.093 -92.125,18.359 -139.246,18.574 -45.403,0 -90.617,-5.188 -134.5,-16.633 -2.16,-0.648 -5.832,-1.512 -7.992,-2.16 v 0 l -1.293,4.754 v 0" /><path
         id="path32"
         style="fill:#ffffff;fill-opacity:1;fill-rule:nonzero;stroke:none"
         d="m 283.32,167.766 c 19.907,-0.227 35.895,-16.641 35.895,-36.504 -0.215,-19.875 -16.203,-35.8597 -36.11,-35.8597 -19.906,-0.2148 -36.109,15.9847 -36.109,35.8597 -0.215,20.086 16.203,36.504 36.324,36.504 v 0" /><path
         id="path34"
         style="fill:#231f20;fill-opacity:1;fill-rule:nonzero;stroke:none"
         d="m 282.852,162.941 c 17.5,-0.226 31.574,-14.472 31.359,-31.757 0,-17.278 -14.078,-31.106 -31.359,-31.106 -17.313,-0.2147 -31.567,13.613 -31.567,31.106 -0.219,17.5 14.039,31.757 31.567,31.757 v 0" /></g></g></svg>