<?xml version="1.0" encoding="UTF-8" standalone="no"?>
<svg
   xmlns:dc="http://purl.org/dc/elements/1.1/"
   xmlns:cc="http://creativecommons.org/ns#"
   xmlns:rdf="http://www.w3.org/1999/02/22-rdf-syntax-ns#"
   xmlns:svg="http://www.w3.org/2000/svg"
   xmlns="http://www.w3.org/2000/svg"
   viewBox="0 0 170.45332 57.066666"
   height="57.066666"
   width="170.45332"
   xml:space="preserve"
   id="svg2"
   version="1.1"><metadata
     id="metadata8"><rdf:RDF><cc:Work
         rdf:about=""><dc:format>image/svg+xml</dc:format><dc:type
           rdf:resource="http://purl.org/dc/dcmitype/StillImage" /></cc:Work></rdf:RDF></metadata><defs
     id="defs6" /><g
     transform="matrix(1.3333333,0,0,-1.3333333,0,57.066667)"
     id="g10"><g
       transform="scale(0.1)"
       id="g12"><path
         id="path14"
         style="fill:#ffffff;fill-opacity:1;fill-rule:nonzero;stroke:none"
         d="M 1.41797,1.41797 H 1277.008 v 425.191 H 1.41797 Z" /><path
         id="path16"
         style="fill:none;stroke:#231f20;stroke-width:2.83500004;stroke-linecap:butt;stroke-linejoin:miter;stroke-miterlimit:4;stroke-dasharray:none;stroke-opacity:1"
         d="M 1.41797,1.41797 H 1277.01 V 426.609 H 1.41797 V 1.41797" /><path
         id="path18"
         style="fill:#231f20;fill-opacity:1;fill-rule:nonzero;stroke:none"
         d="m 22.7305,65.2031 c 0,-23.5039 18.9687,-42.5078 42.5156,-42.5078 v 0 H 1213.25 v 0 c 23.47,0 42.52,19.0039 42.52,42.5078 v 0 297.6129 0 c 0,23.473 -19.05,42.52 -42.52,42.52 v 0 H 65.2461 v 0 c -23.5469,0 -42.5156,-19.047 -42.5156,-42.52 v 0 -297.6129 0" /><path
         id="path20"
         style="fill:#ffffff;fill-opacity:1;fill-rule:nonzero;stroke:none"
         d="m 36.9141,65.2031 c 0,-15.6914 12.6718,-28.3281 28.2617,-28.3281 v 0 H 1213.18 v 0 c 15.7,0 28.4,12.6367 28.4,28.3281 v 0 297.6129 0 c 0,15.664 -12.7,28.336 -28.4,28.336 v 0 H 65.1758 v 0 c -15.5899,0 -28.2617,-12.672 -28.2617,-28.336 v 0 -297.6129 0" /><path
         id="path22"
         style="fill:#231f20;fill-opacity:1;fill-rule:nonzero;stroke:none"
         d="m 460.637,157.906 h 76.75 v -43.199 h 28.437 v 43.199 h 21.891 v 23.582 h -21.891 v 131.617 h -35.277 l -69.91,-126.792 v -28.407 0" /><path
         id="path24"
         style="fill:#231f20;fill-opacity:1;fill-rule:nonzero;stroke:none"
         d="m 647.047,217.598 c -11.094,-4.825 -20.168,-11.09 -27.004,-18.758 -6.805,-7.957 -10.223,-18.469 -10.223,-31.863 0,-7.664 1.403,-15.043 4.246,-21.594 2.555,-6.516 6.551,-12.492 11.661,-17.317 5.113,-4.863 11.378,-8.82 18.761,-11.378 7.41,-2.809 15.653,-4.247 25.02,-4.247 8.816,0 17.058,1.153 24.726,3.954 7.383,2.558 13.653,5.976 19.051,10.8 5.391,4.825 9.395,10.52 12.52,17.356 2.851,6.804 4.25,14.472 4.25,23.004 v 0 0 0 c 0,12.527 -3.418,23.043 -10.227,31.57 -7.117,8.246 -16.191,14.762 -27.285,19.621 10.801,5.399 19.043,12.492 24.445,21.313 5.399,8.535 8.242,17.601 8.242,27.289 0,7.09 -1.437,13.644 -3.996,19.621 -2.839,5.976 -6.804,11.086 -11.629,15.336 -4.855,4.281 -10.832,7.418 -17.343,9.968 -6.848,2.27 -14.219,3.387 -22.18,3.387 -8.535,0 -16.199,-1.117 -23.035,-3.672 -6.809,-2.554 -12.496,-6.265 -17.32,-10.8 -4.864,-4.571 -8.536,-9.973 -11.09,-15.95 -2.551,-6.226 -3.992,-13.066 -3.992,-20.16 0,-10.226 2.554,-19.332 7.953,-27.285 5.402,-8.246 13.355,-14.801 24.449,-20.195 v 0" /><path
         id="path26"
         style="fill:#231f20;fill-opacity:1;fill-rule:nonzero;stroke:none"
         d="m 809.547,114.707 h 29.551 v 72.184 h 0.574 l 48.605,-72.184 h 35.243 l -59.11,80.137 54.004,65.664 h -32.695 l -46.621,-59.113 v 126.503 h -29.551 v -213.191 0" /><path
         id="path28"
         style="fill:#231f20;fill-opacity:1;fill-rule:nonzero;stroke:none"
         d="m 955.961,114.707 h 29.59 v 89.242 c 0,10.801 2.265,19.043 6.515,25.02 4.286,5.976 10.804,8.824 19.044,8.824 13.64,0 20.49,-9.113 20.49,-27 v 0 -96.086 h 29.55 v 89.242 0 c 0,10.801 2.26,19.043 6.55,25.02 4.25,5.976 10.8,8.824 19.04,8.824 13.65,0 20.45,-9.113 20.45,-27 v 0 -96.086 h 29.59 v 95.508 0 c 0,17.066 -3.42,30.133 -10.25,38.949 -7.1,8.785 -17.61,13.359 -31.83,13.359 -9.39,0 -17.06,-2.269 -23.04,-6.839 -5.94,-4.825 -10.51,-10.223 -14.18,-16.204 -1.44,2.848 -3.14,5.692 -5.15,8.536 -1.98,2.554 -4.53,5.109 -7.38,7.379 -2.84,2.015 -6.26,3.707 -9.93,5.113 -3.72,1.441 -8.25,2.015 -13.11,2.015 -9.07,0 -16.48,-2.269 -22.433,-6.839 -5.977,-4.825 -10.801,-10.512 -13.926,-17.602 v 0 h -0.574 v 0 c 0,0.824 0,2.555 0,4.824 -0.293,1.977 -0.293,4.246 -0.293,6.512 -0.286,2.305 -0.286,4.57 -0.286,6.555 -0.293,1.976 -0.293,3.707 -0.293,4.535 v 0 H 954.84 v 0 c 0.293,-3.961 0.574,-8.242 0.867,-12.778 0.254,-4.539 0.254,-9.363 0.254,-14.8 v 0 -118.223 0" /><path
         id="path30"
         style="fill:#ffffff;fill-opacity:1;fill-rule:nonzero;stroke:none"
         d="m 484.215,181.488 52.598,100.91 h 0.574 v -100.91 h -53.172 v 0" /><path
         id="path32"
         style="fill:#ffffff;fill-opacity:1;fill-rule:nonzero;stroke:none"
         d="m 672.348,228.395 c -9.11,4.535 -16.2,9.687 -21.024,15.625 -5.109,5.687 -7.668,12.242 -7.668,19.617 0,8.535 2.559,15.375 7.668,20.773 4.824,5.11 11.094,7.668 18.758,7.668 8.242,0 14.797,-2.558 19.328,-7.383 4.539,-5.109 6.805,-11.66 6.805,-19.328 v 0 0 0 c 0,-3.996 -0.535,-7.707 -1.981,-11.09 -1.398,-3.707 -3.125,-6.836 -5.402,-9.972 -2.266,-3.129 -4.824,-5.938 -7.664,-8.528 -2.844,-2.558 -5.684,-5.113 -8.82,-7.382 v 0" /><path
         id="path34"
         style="fill:#ffffff;fill-opacity:1;fill-rule:nonzero;stroke:none"
         d="m 668.102,207.371 c 4.246,-2.269 8.242,-4.574 12.207,-6.84 3.699,-2.558 7.129,-5.109 10.222,-8.246 2.844,-3.129 5.149,-6.515 6.836,-10.219 1.692,-4 2.559,-8.535 2.559,-13.648 v 0 0 0 c 0,-9.684 -2.559,-17.637 -7.664,-23.574 -5.403,-6.27 -12.532,-9.406 -21.602,-9.406 -9.972,0 -17.355,3.136 -22.754,9.652 -5.402,6.551 -7.953,14.223 -7.953,23.617 0,4.824 0.863,9.109 2.266,12.781 1.437,3.707 3.129,7.125 5.687,10.223 2.559,3.133 5.399,5.687 9.11,8.246 3.379,2.594 7.089,4.856 11.086,7.414 v 0" /><path
         id="path36"
         style="fill:#1a67bb;fill-opacity:1;fill-rule:nonzero;stroke:none"
         d="m 72.3008,72.2969 h 283.465 v 283.465 H 72.3008 Z" /><path
         id="path38"
         style="fill:#ffffff;fill-opacity:1;fill-rule:nonzero;stroke:none"
         d="M 100.637,100.637 H 327.434 V 327.43 H 100.637 Z" /><path
         id="path40"
         style="fill:#231f20;fill-opacity:1;fill-rule:nonzero;stroke:none"
         d="m 240.75,121.902 v 13.11 l -0.074,1.66 v 0 c -0.035,1.043 -0.867,1.797 -1.367,2.051 -0.254,0.172 -0.543,0.386 -0.758,0.574 -0.254,0.215 -0.543,0.5 -0.649,0.793 -0.578,0.894 -0.468,2.262 -0.468,3.308 v 0 31.719 0 c 0.179,-2.668 0.754,-5.398 1.332,-7.851 0.648,-2.192 1.472,-4.461 2.484,-6.481 1.113,-2.015 2.555,-3.922 4.176,-5.582 1.332,-1.433 2.988,-2.773 4.75,-3.633 1.769,-0.933 4.035,-1.043 5.762,-0.359 1.226,0.469 2.304,1.191 3.242,2.051 3.781,4.035 3.707,10.117 2.59,15.015 -0.29,1.368 -1.727,5.508 -2.196,6.766 -1.222,3.527 -2.195,7.055 -2.879,10.727 -1.441,7.453 -2.164,22.429 -2.164,29.703 0.074,1.402 0.074,7.125 0.114,8.531 0.14,1.801 0.609,6.949 0.75,8.746 0.363,3.961 0.437,9.723 -0.215,13.789 -0.18,1.691 -0.535,4.246 -0.864,5.867 -0.105,0.61 -0.824,3.418 -1.003,4.106 -0.215,0.859 -1.622,6.441 -1.911,7.343 -0.035,0.145 -0.972,3.418 -0.972,4.071 0,0.969 0.215,2.191 0.648,3.019 l 0.43,0.868 c 0.148,0.285 0.074,0.937 0.074,1.222 0,0.578 -0.074,1.551 -0.215,2.02 -0.254,0.644 -1.043,1.218 -1.695,1.328 -0.246,0.07 -0.649,0.18 -0.863,0.254 -0.36,0.32 -2.051,2.773 -2.34,3.234 -0.754,0.867 -1.621,1.621 -2.52,2.199 -0.828,0.469 -1.691,0.789 -2.625,1.043 -1.226,0.184 -2.668,0 -3.89,0 v 0 10.367 1.153 0 c 0,6.48 -2.125,11.305 -9.719,11.305 v 0 l -47.09,0.218 v 0 c -3.129,0 -5.254,-0.758 -7.523,-2.593 -2.2,-1.622 -3.024,-5.614 -3.024,-8.247 v 0 -152.425 0 c 0,-0.754 0,-1.614 -0.32,-2.266 -0.289,-0.645 -0.723,-1.223 -1.516,-1.621 v 0 l -1.012,-0.535 v 0 c -0.574,-0.324 -1.257,-0.508 -1.257,-1.371 v 0 l -0.071,-1.297 -0.218,-13.899 h 75.066 v 0" /><path
         id="path42"
         style="fill:#ffffff;fill-opacity:1;fill-rule:nonzero;stroke:none"
         d="m 229.66,234.805 v 38.59 h -49.14 v -38.59 h 49.14 v 0" /><path
         id="path44"
         style="fill:#ffffff;fill-opacity:1;fill-rule:nonzero;stroke:none"
         d="m 229.66,282.574 v 12.742 h -49.14 v -12.742 h 49.14 v 0" /><path
         id="path46"
         style="fill:#ffffff;fill-opacity:1;fill-rule:nonzero;stroke:none"
         d="m 240.676,257.41 4.461,1.551 v 0 c 0.504,0.25 1.152,0.32 1.547,0.719 0.543,0.394 0.617,0.968 0.617,1.621 v 0 4.969 l -2.988,1.906 v 3.422 l -3.637,-2.02 v -12.168 0" /><path
         id="path48"
         style="fill:#ffffff;fill-opacity:1;fill-rule:nonzero;stroke:none"
         d="m 237.363,270.691 8.926,4.364 v 0 c -0.215,1.367 -0.937,2.765 -1.687,3.738 -0.469,0.578 -1.086,1.191 -1.661,1.59 -0.613,0.32 -1.222,0.64 -1.871,0.789 -1.047,0.359 -2.668,0.254 -3.707,0 v 0 -10.481 0" /><path
         id="path50"
         style="fill:#ffffff;fill-opacity:1;fill-rule:nonzero;stroke:none"
         d="m 249.566,262.813 c -0.074,-0.793 -0.179,-2.016 -0.179,-2.848 v 0 l -0.184,-10.547 v 0 c -0.215,-2.988 -0.574,-5.938 -1.152,-8.891 -0.5,-2.734 -1.258,-5.941 -1.977,-8.601 v 0 l -2.304,-8.68 v 0 c -0.829,-3.023 -1.547,-6.191 -2.266,-9.285 -0.469,-1.945 -0.938,-4.395 -1.227,-6.406 -0.285,-2.2 -0.433,-5.293 -0.574,-7.567 -0.109,-2.41 -0.215,-5.433 -0.324,-7.918 -0.145,-2.16 -0.254,-5.328 -0.285,-7.484 -0.074,-2.09 -0.074,-4.609 0,-6.699 0.105,-2.555 0.429,-5.114 0.898,-7.594 0.758,-3.207 2.156,-6.809 3.778,-9.613 0.683,-1.227 1.695,-2.844 2.593,-3.961 1.188,-1.406 2.555,-2.559 4.141,-3.418 1.367,-0.762 3.344,-1.043 4.93,-0.188 0.867,0.442 1.656,1.192 2.304,1.914 0.867,1.043 1.582,2.34 2.02,3.672 0.93,2.879 0.715,6.121 0.066,9.035 -0.394,1.985 -1.258,4.75 -1.871,6.661 -0.898,2.953 -2.375,7.632 -2.988,10.66 -0.863,3.672 -1.406,7.699 -1.801,11.41 -0.355,2.949 -0.574,6.152 -0.644,9.105 -0.04,2.844 0.175,7.493 0.289,10.297 0.25,5.653 0.535,11.305 0.644,16.922 0.106,2.371 0.18,5.688 0.074,8.059 -0.074,2.632 -0.324,5.222 -0.718,7.812 -0.289,2.164 -0.688,4.356 -1.153,6.445 -0.363,1.696 -0.832,3.493 -1.261,5.114 -0.254,0.758 -0.614,1.91 -0.829,2.594 v 0" /><path
         id="path52"
         style="fill:#ffffff;fill-opacity:1;fill-rule:nonzero;stroke:none"
         d="m 237.363,254.457 v -49.785 c 0.825,5.617 2.446,12.851 4.25,18.609 0.5,1.547 2.192,7.129 2.586,8.676 0.758,2.738 1.442,5.582 1.875,8.391 0.289,2.09 0.61,6.082 0.793,8.246 0.071,0.754 0.285,3.922 0.36,4.644 0.035,0.575 0.035,1.219 0.035,1.727 0,0.285 0,0.754 -0.18,0.973 -0.109,0.175 -0.289,0.324 -0.43,0.429 -0.183,0.035 -0.437,0.035 -0.652,0.035 -0.359,0 -0.863,-0.109 -1.223,-0.14 v 0 l -1.043,-0.324 -6.371,-1.481 v 0" /></g></g></svg>