<?xml version="1.0" encoding="UTF-8" standalone="no"?>
<svg
   xmlns:dc="http://purl.org/dc/elements/1.1/"
   xmlns:cc="http://creativecommons.org/ns#"
   xmlns:rdf="http://www.w3.org/1999/02/22-rdf-syntax-ns#"
   xmlns:svg="http://www.w3.org/2000/svg"
   xmlns="http://www.w3.org/2000/svg"
   viewBox="0 0 107.18667 37.773335"
   height="37.773335"
   width="107.18667"
   xml:space="preserve"
   id="svg2"
   version="1.1"><metadata
     id="metadata8"><rdf:RDF><cc:Work
         rdf:about=""><dc:format>image/svg+xml</dc:format><dc:type
           rdf:resource="http://purl.org/dc/dcmitype/StillImage" /></cc:Work></rdf:RDF></metadata><defs
     id="defs6" /><g
     transform="matrix(1.3333333,0,0,-1.3333333,0,37.773333)"
     id="g10"><g
       transform="scale(0.1)"
       id="g12"><path
         id="path14"
         style="fill:#231f20;fill-opacity:1;fill-rule:nonzero;stroke:none"
         d="M 56.1641,47.5195 H 15.8008 L 11.8516,73.5859 0,83.9258 v 36.2732 h 8.1875 v 0 c 0.35938,1.149 0.78516,2.871 1.07422,4.02 v 0 l 2.30078,9.336 v 0 c 0.6445,2.441 1.5078,5.246 2.7305,7.472 1.2187,2.368 3.0156,4.668 5.3125,6.028 1.1523,0.652 2.6562,1.222 3.875,1.656 2.375,0.719 5.9609,1.652 8.4023,2.297 12.7149,3.23 33.6172,8.402 46.3985,11.203 21.9027,4.738 45.0277,8.406 67.2227,11.352 21.687,2.941 43.519,5.308 65.351,7.175 1.079,0.075 2.157,0.219 3.231,0.289 v 0 l 109.957,85.036 4.594,3.734 v 0 c 3.234,2.367 6.824,4.234 10.558,5.672 3.52,1.363 7.325,2.367 11.059,3.16 7.398,1.437 19.75,2.152 27.289,2.516 v 0 l 44.527,2.078 v 0 c 14.297,0.429 31.172,0.289 45.457,0.074 16.661,-0.289 34.836,-0.719 51.43,-1.649 4.949,-0.289 34.176,-1.945 39.137,-2.015 3.515,-0.07 9.699,-0.285 13.144,-0.863 2.297,-0.43 4.594,-1.149 6.817,-1.938 2.871,-1.078 5.824,-2.582 8.261,-4.527 1.731,-1.36 4.387,-4.379 5.821,-6.028 v 0 l 5.097,-5.535 56.231,-65.422 105.363,-5.172 6.102,-0.144 v 0 c 2.297,-0.07 5.597,-0.215 7.902,-0.715 2.148,-0.363 4.16,-1.082 6.023,-2.086 4.239,-2.226 7.618,-6.031 10.208,-9.98 1.796,-2.805 3.445,-6.106 4.023,-9.336 0.285,-1.582 0.352,-3.446 0.352,-5.028 v 0 -3.086 -33.328 l 10.488,-9.121 V 87.5195 L 785.039,69.707 h 14.219 V 58.1445 h -42.305 l -10.988,-10.625 h -43.731 v 0 c 0.071,0.7149 0.286,2.7266 0.434,3.4493 0.215,2.1484 0.496,5.2421 0.641,7.3906 0.5,12.2851 -3.086,24.4258 -9.266,35.0508 -6.465,11.2028 -15.656,20.5388 -26.934,26.9338 -10.691,6.101 -22.832,9.406 -35.187,9.336 -12.5,-0.075 -24.774,-3.524 -35.543,-9.981 -10.492,-6.176 -19.25,-15.011 -25.141,-25.6404 -5.965,-10.9219 -8.691,-23.5586 -9.195,-35.9141 -0.07,-1.7968 -0.07,-3.875 0.078,-5.6718 0.137,-1.4375 0.426,-3.5157 0.711,-4.9532 v 0 H 195.703 v 0 c -0.074,1.7969 -0.148,4.4532 -0.148,6.25 v 0 5.8125 0 c -0.141,11.8555 -2.797,23.7774 -8.469,34.2618 -5.891,10.9142 -14.871,19.7462 -25.566,25.9962 -10.774,6.316 -22.985,9.765 -35.407,9.695 -12.64,-0.07 -24.996,-3.879 -35.9802,-10.199 C 79.7148,113.375 70.5234,105.117 64.418,94.7773 58.2422,84.2188 55.3711,72.0117 55.3711,59.7969 c 0,-1.9336 0.0742,-3.8789 0.1406,-5.8125 0.1485,-1.8633 0.4336,-4.5977 0.6524,-6.4649 v 0" /><path
         id="path16"
         style="fill:#231f20;fill-opacity:1;fill-rule:nonzero;stroke:none"
         d="M 125.855,116.055 C 157.453,116.129 183.23,90.7031 183.594,59.1016 184.023,26.8555 158.168,0.285156 125.922,0.363281 93.6758,0.363281 67.9688,27.0703 68.3984,59.25 c 0.5039,31.4531 25.9961,56.805 57.4566,56.805 v 0" /><path
         id="path18"
         style="fill:#231f20;fill-opacity:1;fill-rule:nonzero;stroke:none"
         d="m 632.156,116.418 c 32.102,0.066 58.313,-25.7891 58.391,-57.961 C 690.613,26.1445 664.328,-0.214844 632.012,0 c -32.176,0.214844 -57.879,26.6406 -57.598,58.7422 0.281,31.8203 25.926,57.6018 57.742,57.6758 v 0" /><path
         id="path20"
         style="fill:#ffffff;fill-opacity:1;fill-rule:nonzero;stroke:none"
         d="m 126.164,78.5938 c 11.059,0 20.324,-8.543 20.539,-19.5391 0.215,-11.4844 -9.121,-20.8203 -20.613,-20.7539 -11.563,0.0703 -20.754,9.6289 -20.324,21.1133 0.429,10.8515 9.55,19.1797 20.398,19.1797 v 0" /><path
         id="path22"
         style="fill:#ffffff;fill-opacity:1;fill-rule:nonzero;stroke:none"
         d="m 632.176,78.7305 c 11.281,0.0781 20.754,-8.8282 20.832,-20.1758 0.144,-11.5625 -9.336,-20.9766 -20.899,-20.7617 -11.425,0.2265 -20.398,9.7773 -20.039,21.125 0.282,10.9843 9.121,19.7461 20.106,19.8125 v 0" /><path
         id="path24"
         style="fill:#ffffff;fill-opacity:1;fill-rule:nonzero;stroke:none"
         d="M 49.9609,87.5313 H 19.2227 v -3.879 l 30.7382,-3.7304 v 7.6094 0" /><path
         id="path26"
         style="fill:#ffffff;fill-opacity:1;fill-rule:nonzero;stroke:none"
         d="M 390.859,87.5313 H 209.664 v -7.6094 h 181.195 v 7.6094 0" /><path
         id="path28"
         style="fill:#ffffff;fill-opacity:1;fill-rule:nonzero;stroke:none"
         d="M 549.57,87.5313 V 79.9219 H 432.859 v 7.6094 H 549.57 v 0" /><path
         id="path30"
         style="fill:#ffffff;fill-opacity:1;fill-rule:nonzero;stroke:none"
         d="M 411.473,181.008 H 239.254 l 105.074,82.305 85.965,4.304 -18.82,-86.609 v 0" /><path
         id="path32"
         style="fill:#ffffff;fill-opacity:1;fill-rule:nonzero;stroke:none"
         d="m 432.859,181.008 19.184,86.469 113.18,-4.668 45.675,-81.801 H 432.859 v 0" /><path
         id="path34"
         style="fill:#ffffff;fill-opacity:1;fill-rule:nonzero;stroke:none"
         d="m 781.164,87.5313 v -2.9454 l -71.32,-4.664 v 7.6094 h 71.32 v 0" /></g></g></svg>