<?xml version="1.0" encoding="UTF-8" standalone="no"?>
<svg
   xmlns:dc="http://purl.org/dc/elements/1.1/"
   xmlns:cc="http://creativecommons.org/ns#"
   xmlns:rdf="http://www.w3.org/1999/02/22-rdf-syntax-ns#"
   xmlns:svg="http://www.w3.org/2000/svg"
   xmlns="http://www.w3.org/2000/svg"
   viewBox="0 0 178.8 37.799999"
   height="37.799999"
   width="178.8"
   xml:space="preserve"
   id="svg2"
   version="1.1"><metadata
     id="metadata8"><rdf:RDF><cc:Work
         rdf:about=""><dc:format>image/svg+xml</dc:format><dc:type
           rdf:resource="http://purl.org/dc/dcmitype/StillImage" /></cc:Work></rdf:RDF></metadata><defs
     id="defs6" /><g
     transform="matrix(1.3333333,0,0,-1.3333333,0,37.8)"
     id="g10"><g
       transform="scale(0.1)"
       id="g12"><path
         id="path14"
         style="fill:#231f20;fill-opacity:1;fill-rule:nonzero;stroke:none"
         d="m 689.973,282.379 562.687,1.152 v 0 c 4.17,0 8.56,-0.578 12.16,-2.304 3.25,-1.582 5.98,-4.247 7.99,-7.125 v 0 l 65.6,-100.657 v 0 c 0.71,-1.222 1.37,-2.738 1.73,-4.105 0.64,-1.727 0.64,-8.781 0.64,-10.586 v 0 L 1341,64.6484 v 0 c 0,-4.1015 -1.22,-8.5625 -4.4,-11.2304 -3.44,-2.8789 -8.49,-3.4571 -12.88,-3.4571 v 0 h -104.55 v 0 c 0.08,2.0235 0.15,4.9727 0,7.0625 -1.94,30.7422 -28.51,53.4966 -59.33,53.8516 -31.38,0.363 -59.18,-22.3203 -61.27,-53.6367 -0.06,-2.0117 -0.06,-4.9727 -0.06,-6.9141 v 0 l -276.272,0.293 v 0 c 0,1.4336 0,3.5234 -0.148,5.0391 -2.012,30.6679 -28.797,53.0587 -59.539,53.1327 -30.676,0 -56.738,-22.6054 -59.903,-53.1327 -0.214,-1.5157 -0.363,-3.75 -0.363,-5.3321 v 0 l -47.734,-0.3633 v 0 c -3.168,-0.1367 -6.266,1.3672 -8.645,3.5352 -2.515,2.7344 -3.883,6.6914 -3.883,10.3633 v 0 l -0.503,90.9376 v 0 c 0,2.156 0.14,4.683 0.429,6.766 0.219,3.171 0.938,8.496 1.801,11.304 v 0 l 23.762,97.344 v 0 c 0.937,4.246 4.461,7.852 8.347,9.648 4.25,2.09 9.582,2.52 14.114,2.52 v 0" /><path
         id="path16"
         style="fill:#231f20;fill-opacity:1;fill-rule:nonzero;stroke:none"
         d="m 762.844,99.5703 c 27.429,0 49.597,-22.2461 49.597,-49.6758 0,-27.5 -22.246,-49.757781 -49.675,-49.757781 -27.286,0 -49.532,22.031281 -49.68,49.394581 -0.145,27.6484 22.18,50.039 49.758,50.039 v 0" /><path
         id="path18"
         style="fill:#231f20;fill-opacity:1;fill-rule:nonzero;stroke:none"
         d="m 1159.78,100.438 c 27.71,-0.29 49.46,-23.4732 49.1,-51.2661 C 1208.45,22.0313 1186.34,0.0703125 1159.12,0 c -27.57,-0.078125 -50.17,21.9531 -50.47,49.4648 -0.43,28.3672 22.76,51.2582 51.13,50.9732 v 0" /><path
         id="path20"
         style="fill:#231f20;fill-opacity:1;fill-rule:nonzero;stroke:none"
         d="m 95.6875,102.238 c 28.0785,0 50.3985,-23.0388 50.3985,-50.4021 C 146.809,23.7617 124.488,0 95.6875,0 67.6094,0 45.2891,23.0391 45.2891,51.8359 c 0,27.3633 23.0351,50.4021 50.3984,50.4021 v 0" /><path
         id="path22"
         style="fill:#231f20;fill-opacity:1;fill-rule:nonzero;stroke:none"
         d="m 454.895,102.164 c 28.8,0 52.562,-23.7538 51.839,-52.5624 -0.718,-27.3555 -23.761,-48.957069 -51.117,-48.957069 -28.082,0 -51.125,21.601569 -51.844,49.679669 -0.714,28.086 22.321,51.8398 51.122,51.8398 v 0" /><path
         id="path24"
         style="fill:#231f20;fill-opacity:1;fill-rule:nonzero;stroke:none"
         d="m 586.008,108.574 h -80.641 l 7.203,-9.3592 66.239,-1.4414 V 79.0547 L 530.566,61.7695 v 0 c 0,-0.7148 0.719,-11.5156 0.719,-12.2382 v 0 h -12.961 v 0 c 0,0.7226 0,2.1601 0,2.1601 -2.879,33.8399 -28.797,62.6406 -62.636,62.6406 -33.84,0.723 -61.2,-27.3593 -64.083,-60.4843 0,-1.4336 0,-2.8711 -0.714,-3.5938 v 0 l -233.934,0.7227 v 0 c 0,0.7148 0,2.1601 0,2.8711 0.723,33.125 -28.078,58.3243 -61.1992,58.3243 -32.3984,0 -59.7617,-25.922 -61.1953,-58.3243 0,-1.4336 0,-2.8711 0,-3.5938 v 0 H 4.31641 l 0.72265,7.1992 v 0 C 4.31641,58.1758 2.875,58.1758 1.44141,59.6094 0,61.0547 0,63.2148 0,63.9375 v 0 6.4727 0 c 0,0.7226 0,4.3281 0.71875,5.039 0.72266,1.4453 2.87891,1.4453 4.32031,1.4453 v 0 h 7.19924 l 7.1992,69.8395 v 0 c 0,2.875 1.4414,6.481 3.6016,8.637 2.8789,2.883 8.6406,4.324 9.3593,4.324 v 0 l 8.6407,0.715 21.5976,46.078 v 0 c 4.3203,8.645 18.7227,18.723 30.961,18.723 v 0 H 164.16 l -0.722,-126.7188 231.05,-0.7188 8.637,9.3596 -231.766,0.719 1.438,174.961 413.211,0.718 v -174.957 0" /><path
         id="path26"
         style="fill:#ffffff;fill-opacity:1;fill-rule:nonzero;stroke:none"
         d="m 679.465,261.648 20.73,0.141 -23.465,-94.824 h -20.597 l 23.332,94.683 v 0" /><path
         id="path28"
         style="fill:#ffffff;fill-opacity:1;fill-rule:nonzero;stroke:none"
         d="m 715.461,261.934 63.57,0.289 0.657,-95.188 -87.481,-0.285 23.254,95.184 v 0" /><path
         id="path30"
         style="fill:#ffffff;fill-opacity:1;fill-rule:nonzero;stroke:none"
         d="m 792.863,262.223 h 71.211 l -0.578,-95.258 h -70.34 l -0.293,95.258 v 0" /><path
         id="path32"
         style="fill:#ffffff;fill-opacity:1;fill-rule:nonzero;stroke:none"
         d="m 877.461,262.223 h 70.129 l 0.144,-95.258 h -70.273 v 95.258 0" /><path
         id="path34"
         style="fill:#ffffff;fill-opacity:1;fill-rule:nonzero;stroke:none"
         d="m 961.992,262.223 71.348,-0.289 0.94,-95.184 h -71.858 l -0.43,95.473 v 0" /><path
         id="path36"
         style="fill:#ffffff;fill-opacity:1;fill-rule:nonzero;stroke:none"
         d="m 1047.24,261.934 73.15,0.355 0.94,-95.754 -72.94,0.215 -1.15,95.184 v 0" /><path
         id="path38"
         style="fill:#ffffff;fill-opacity:1;fill-rule:nonzero;stroke:none"
         d="m 1134.57,262.223 h 71.57 l 0.65,-94.825 -71.28,-0.648 -0.94,95.473 v 0" /><path
         id="path40"
         style="fill:#ffffff;fill-opacity:1;fill-rule:nonzero;stroke:none"
         d="m 1220.68,262.223 h 43.64 l 59.76,-94.825 H 1220.9 l -0.22,94.825 v 0" /><path
         id="path42"
         style="fill:#ffffff;fill-opacity:1;fill-rule:nonzero;stroke:none"
         d="m 762.766,71.2813 c 11.668,0 20.879,-9.7266 20.664,-21.3868 -0.149,-11.164 -9.219,-20.2343 -20.371,-20.2343 -11.231,-0.0704 -20.383,8.8554 -20.813,20.0195 -0.293,11.6601 8.859,21.5234 20.52,21.6016 v 0" /><path
         id="path44"
         style="fill:#ffffff;fill-opacity:1;fill-rule:nonzero;stroke:none"
         d="m 1159.63,71.4961 c 11.95,-0.0781 21.39,-10.1563 20.6,-22.1797 -0.66,-10.6523 -9.87,-18.6523 -20.67,-18.7187 -10.95,-0.0704 -20.45,7.9179 -21.24,18.7187 -0.79,12.168 9.07,22.3242 21.31,22.1797 v 0" /><path
         id="path46"
         style="fill:#ffffff;fill-opacity:1;fill-rule:nonzero;stroke:none"
         d="m 95.6875,71.9258 c 11.5195,0 20.8785,-9.3555 20.8785,-20.1563 0,-12.2461 -8.64,-21.6015 -20.1597,-21.6015 -12.2422,-0.7227 -21.6016,9.3554 -21.6016,20.8789 0,11.5234 9.3594,20.8789 20.8828,20.8789 v 0" /><path
         id="path48"
         style="fill:#ffffff;fill-opacity:1;fill-rule:nonzero;stroke:none"
         d="m 455.617,72.6484 c 12.238,0 20.879,-10.8007 20.16,-23.0468 0,-10.793 -9.359,-19.4336 -20.16,-19.4336 -11.519,0 -20.879,7.9179 -21.601,19.4336 -0.719,12.2461 9.359,23.0468 21.601,23.0468 v 0" /><path
         id="path50"
         style="fill:#ffffff;fill-opacity:1;fill-rule:nonzero;stroke:none"
         d="m 100.004,205.773 36.726,-0.718 v -45.36 l -58.3237,0.715 21.5977,45.363 v 0" /><path
         id="path52"
         style="fill:#ffffff;fill-opacity:1;fill-rule:nonzero;stroke:none"
         d="M 70.4883,205.773 H 86.3281 L 65.4453,159.695 H 50.3281 l 20.1602,46.078 v 0" /></g></g></svg>