<?xml version="1.0" encoding="UTF-8" standalone="no"?>
<svg
   xmlns:dc="http://purl.org/dc/elements/1.1/"
   xmlns:cc="http://creativecommons.org/ns#"
   xmlns:rdf="http://www.w3.org/1999/02/22-rdf-syntax-ns#"
   xmlns:svg="http://www.w3.org/2000/svg"
   xmlns="http://www.w3.org/2000/svg"
   viewBox="0 0 78.133331 37.799999"
   height="37.799999"
   width="78.133331"
   xml:space="preserve"
   id="svg2"
   version="1.1"><metadata
     id="metadata8"><rdf:RDF><cc:Work
         rdf:about=""><dc:format>image/svg+xml</dc:format><dc:type
           rdf:resource="http://purl.org/dc/dcmitype/StillImage" /></cc:Work></rdf:RDF></metadata><defs
     id="defs6" /><g
     transform="matrix(1.3333333,0,0,-1.3333333,0,37.8)"
     id="g10"><g
       transform="scale(0.1)"
       id="g12"><path
         id="path14"
         style="fill:#231f20;fill-opacity:1;fill-rule:nonzero;stroke:none"
         d="M 95.6875,102.242 C 123.77,102.242 146.09,79.1992 146.09,51.8359 146.809,23.7617 124.488,0 95.6875,0 67.6094,0 45.2891,23.0391 45.2891,51.8359 c 0,27.3633 23.0351,50.4061 50.3984,50.4061 v 0" /><path
         id="path16"
         style="fill:#231f20;fill-opacity:1;fill-rule:nonzero;stroke:none"
         d="m 454.898,102.168 c 28.797,0 52.559,-23.7578 51.836,-52.5586 -0.722,-27.3633 -23.761,-48.964869 -51.125,-48.964869 -28.074,0 -51.113,21.601569 -51.836,49.675769 -0.722,28.0899 22.325,51.8477 51.125,51.8477 v 0" /><path
         id="path18"
         style="fill:#231f20;fill-opacity:1;fill-rule:nonzero;stroke:none"
         d="m 586.012,108.574 h -80.645 l 7.196,-9.3592 66.242,-1.4414 V 79.0547 L 530.57,61.7773 v 0 c 0,-0.7226 0.715,-11.5234 0.715,-12.246 v 0 h -12.961 v 0 c 0,0.7226 0,2.1679 0,2.1679 -2.879,33.8399 -28.797,62.6368 -62.636,62.6368 -33.836,0.719 -61.2,-27.3594 -64.083,-60.4805 0,-1.4414 0,-2.8789 -0.722,-3.6016 v 0 l -233.926,0.7227 v 0 c 0,0.7226 0,2.1601 0,2.8789 0.723,33.1211 -28.078,58.3165 -61.1992,58.3165 -32.3984,0 -59.7578,-25.9181 -61.1953,-58.3165 0,-1.4414 0,-2.8789 0,-3.6016 v 0 H 4.32031 l 0.71875,7.1992 v 0 C 4.32031,58.1758 2.88281,58.1758 1.44141,59.6211 0,61.0547 0,63.2148 0,63.9336 v 0 6.4766 0 c 0,0.7226 0,4.3242 0.71875,5.0507 0.72266,1.4336 2.87891,1.4336 4.32031,1.4336 v 0 h 7.20314 l 7.1953,69.8395 v 0 c 0,2.879 1.4414,6.481 3.5977,8.641 2.8828,2.883 8.6445,4.316 9.3632,4.316 v 0 l 8.6407,0.723 21.6015,46.082 v 0 c 4.3164,8.641 18.7188,18.719 30.9571,18.719 v 0 H 164.16 l -0.722,-126.7189 231.05,-0.7227 8.641,9.3596 -231.77,0.722 1.438,174.958 413.215,0.722 v -174.961 0" /><path
         id="path20"
         style="fill:#ffffff;fill-opacity:1;fill-rule:nonzero;stroke:none"
         d="m 95.6875,71.9258 c 11.5195,0 20.8785,-9.3594 20.8785,-20.1602 0,-12.2343 -8.636,-21.5976 -20.1597,-21.5976 -12.2422,-0.7266 -21.5977,9.3633 -21.5977,20.8789 0,11.5195 9.3555,20.8789 20.8789,20.8789 v 0" /><path
         id="path22"
         style="fill:#ffffff;fill-opacity:1;fill-rule:nonzero;stroke:none"
         d="m 455.609,72.6445 c 12.246,0 20.891,-10.7968 20.168,-23.0351 0,-10.8008 -9.367,-19.4414 -20.168,-19.4414 -11.511,0 -20.879,7.9179 -21.589,19.4414 -0.723,12.2383 9.355,23.0351 21.589,23.0351 v 0" /><path
         id="path24"
         style="fill:#ffffff;fill-opacity:1;fill-rule:nonzero;stroke:none"
         d="m 100.004,205.777 36.726,-0.722 v -45.364 l -58.3198,0.723 21.5938,45.363 v 0" /><path
         id="path26"
         style="fill:#ffffff;fill-opacity:1;fill-rule:nonzero;stroke:none"
         d="M 70.4883,205.777 H 86.3281 L 65.4492,159.691 H 50.3281 l 20.1602,46.086 v 0" /></g></g></svg>