<?xml version="1.0" encoding="UTF-8" standalone="no"?>
<svg
   xmlns:dc="http://purl.org/dc/elements/1.1/"
   xmlns:cc="http://creativecommons.org/ns#"
   xmlns:rdf="http://www.w3.org/1999/02/22-rdf-syntax-ns#"
   xmlns:svg="http://www.w3.org/2000/svg"
   xmlns="http://www.w3.org/2000/svg"
   viewBox="0 0 136.75999 37.786667"
   height="37.786667"
   width="136.75999"
   xml:space="preserve"
   id="svg2"
   version="1.1"><metadata
     id="metadata8"><rdf:RDF><cc:Work
         rdf:about=""><dc:format>image/svg+xml</dc:format><dc:type
           rdf:resource="http://purl.org/dc/dcmitype/StillImage" /></cc:Work></rdf:RDF></metadata><defs
     id="defs6" /><g
     transform="matrix(1.3333333,0,0,-1.3333333,0,37.786667)"
     id="g10"><g
       transform="scale(0.1)"
       id="g12"><path
         id="path14"
         style="fill:#231f20;fill-opacity:1;fill-rule:nonzero;stroke:none"
         d="M 172.758,108.773 V 281.172 H 574.273 V 108.773 h -71.621 l 6.696,-7.847 h 167.211 l 6.472,7.847 h -54.414 v 172.399 l 397.133,2.23 V 108.773 h -26.43 v 0 c 0.657,-0.503 1.59,-1.293 2.17,-1.871 1.22,-1.148 2.3,-2.371 3.23,-3.742 0.51,-0.644 1.08,-1.582 1.51,-2.234 v 0 h 13.97 V 55.5078 h -8.5 v 0 c -0.06,1.7969 -0.21,4.3164 -0.36,6.043 -3.38,34.1953 -32.606,59.8942 -67.008,59.7462 -34.191,-0.067 -63.203,-25.5509 -66.437,-59.5978 -0.215,-1.7969 -0.293,-4.3945 -0.36,-6.1914 v 0 h -71.047 v 0 c -0.078,2.0117 -0.144,4.8906 -0.359,6.9141 -3.457,34.5508 -33.117,60.2461 -67.883,60.0311 -35.125,-0.219 -65.215,-26.4178 -67.371,-61.5428 -0.078,-1.5157 -0.078,-3.8204 -0.078,-5.4024 v 0 h -6.192 v 6.9141 l -41.601,21.3047 h -45.93 L 528.707,65.8008 V 50.7617 h -19.434 v 0 c 0,1.5821 -0.074,3.8867 -0.14,5.4688 -2.235,32.3203 -28.219,58.4455 -60.613,58.5195 -32.317,0.141 -58.45,-25.625 -60.969,-57.7969 -0.145,-1.8086 -0.215,-4.3945 -0.215,-6.1914 v 0 H 161.027 v 0 c 0,1.5821 -0.074,3.8086 -0.222,5.3242 C 158.219,89.2656 130.504,114.891 97.2461,114.535 65.0742,114.102 38.9414,88.7656 35.8438,56.6602 35.7031,54.9297 35.5586,52.4922 35.5586,50.7617 v 0 H 0 V 73.293 l 12.3086,0.0664 8.7812,65.5036 v 0 c 0.1446,1.438 0.3594,3.02 0.5743,4.535 0.3632,2.446 0.9375,5.758 1.8047,7.989 1.0781,3.023 2.9492,5.761 5.539,7.633 2.2344,1.652 5.0391,2.66 7.7735,3.168 0.8671,0.14 2.0195,0.289 2.8828,0.429 v 0 l 25.5507,53.192 v 0 c 0.504,1.011 1.0782,2.164 1.5821,3.242 0.9375,1.797 2.3789,4.101 3.8867,5.398 1.6602,1.297 3.7461,2.09 5.8359,2.449 1.5078,0.215 3.8868,0.29 5.3946,0.29 v 0 H 164.047 V 100.926 h 222.785 l 6.836,7.847 h -220.91 v 0" /><path
         id="path16"
         style="fill:#231f20;fill-opacity:1;fill-rule:nonzero;stroke:none"
         d="M 97.8359,104.441 C 126.848,104.66 150.598,81.1914 150.527,52.1094 150.453,23.75 127.563,0.710938 99.2031,0.429688 70.2656,0.144531 46.582,23.3867 46.5156,52.4023 46.4414,80.9102 69.2578,104.301 97.8359,104.441 v 0" /><path
         id="path18"
         style="fill:#231f20;fill-opacity:1;fill-rule:nonzero;stroke:none"
         d="M 448.766,102.645 C 476.477,102.5 498.574,79.8242 498.938,52.1094 499.293,24.043 477.125,0.859375 449.055,0.429688 420.547,0 397.223,22.8906 397.082,51.4648 c -0.215,28.4375 23.176,51.3242 51.684,51.1802 v 0" /><path
         id="path20"
         style="fill:#231f20;fill-opacity:1;fill-rule:nonzero;stroke:none"
         d="M 738.199,109.195 C 768.285,109.34 792.77,85.1523 792.984,55.1367 793.121,24.9805 768.648,0.429688 738.492,0.359375 708.402,0.285156 684,24.6211 683.93,54.6289 c -0.078,30.0938 24.258,54.4921 54.269,54.5661 v 0" /><path
         id="path22"
         style="fill:#231f20;fill-opacity:1;fill-rule:nonzero;stroke:none"
         d="m 944.262,108.832 c 29.875,0.074 54.062,-24.0351 54.347,-53.8398 C 998.824,24.9023 974.789,0.144531 944.703,0 c -30.234,-0.078125 -54.57,24.6211 -54.426,54.8438 0.149,29.8046 24.192,53.9882 53.985,53.9882 v 0" /><path
         id="path24"
         style="fill:#ffffff;fill-opacity:1;fill-rule:nonzero;stroke:none"
         d="M 72.3555,203.816 H 85.6758 L 67.1719,162.645 h -14.25 l 19.4336,41.171 v 0" /><path
         id="path26"
         style="fill:#ffffff;fill-opacity:1;fill-rule:nonzero;stroke:none"
         d="M 97.4102,203.816 H 138.656 V 162.645 H 78.7695 l 18.6407,41.171 v 0" /><path
         id="path28"
         style="fill:#ffffff;fill-opacity:1;fill-rule:nonzero;stroke:none"
         d="m 793.148,108.789 h 97.688 l -7.559,-7.848 h -83.293 l -6.836,7.848 v 0" /><path
         id="path30"
         style="fill:#ffffff;fill-opacity:1;fill-rule:nonzero;stroke:none"
         d="m 98.2031,70.625 c 10.2929,0 18.4999,-8.4961 18.3559,-18.7891 C 116.484,41.8281 108.422,33.6914 98.418,33.625 88.125,33.4766 79.7773,41.7578 79.7031,51.9727 c -0.0703,10.3007 8.2071,18.7187 18.5,18.6523 v 0" /><path
         id="path32"
         style="fill:#ffffff;fill-opacity:1;fill-rule:nonzero;stroke:none"
         d="m 449.059,70.9102 c 10.367,0.1445 19.004,-8.1368 19.004,-18.4961 0,-10.3711 -8.567,-18.7227 -19.004,-18.6446 -10.149,0.0664 -18.43,8.2735 -18.43,18.4961 -0.066,10.2266 8.211,18.5742 18.43,18.6446 v 0" /><path
         id="path34"
         style="fill:#ffffff;fill-opacity:1;fill-rule:nonzero;stroke:none"
         d="m 738.422,73.6406 c 10.586,0.1485 19.66,-8.1328 19.445,-18.7109 -0.226,-10.5078 -9.152,-18.5742 -19.582,-18.2109 -9.941,0.2851 -17.93,8.4179 -17.93,18.3476 0.079,10.0781 7.989,18.3594 18.067,18.5742 v 0" /><path
         id="path36"
         style="fill:#ffffff;fill-opacity:1;fill-rule:nonzero;stroke:none"
         d="m 944.273,73.3594 c 10.223,-0.0781 18.641,-8.2149 18.719,-18.5078 0.137,-10.293 -8.211,-18.711 -18.574,-18.8555 C 933.832,35.9258 925.199,44.4219 925.27,55 c 0.144,10.293 8.71,18.4258 19.003,18.3594 v 0" /></g></g></svg>