<?xml version="1.0" encoding="UTF-8" standalone="no"?>
<svg
   xmlns:dc="http://purl.org/dc/elements/1.1/"
   xmlns:cc="http://creativecommons.org/ns#"
   xmlns:rdf="http://www.w3.org/1999/02/22-rdf-syntax-ns#"
   xmlns:svg="http://www.w3.org/2000/svg"
   xmlns="http://www.w3.org/2000/svg"
   viewBox="0 0 103.92 37.799999"
   height="37.799999"
   width="103.92"
   xml:space="preserve"
   id="svg2"
   version="1.1"><metadata
     id="metadata8"><rdf:RDF><cc:Work
         rdf:about=""><dc:format>image/svg+xml</dc:format><dc:type
           rdf:resource="http://purl.org/dc/dcmitype/StillImage" /></cc:Work></rdf:RDF></metadata><defs
     id="defs6" /><g
     transform="matrix(1.3333333,0,0,-1.3333333,0,37.8)"
     id="g10"><g
       transform="scale(0.1)"
       id="g12"><path
         id="path14"
         style="fill:#231f20;fill-opacity:1;fill-rule:nonzero;stroke:none"
         d="m 172.5,163.383 -0.066,120.133 H 779.406 V 93.7539 h -22.785 l 4.375,-7.1641 h 12.102 v -34.246 h -11.387 v 0 c -0.07,1.582 -0.148,3.9453 -0.215,5.5937 -2.793,34.3828 -31.23,61.1715 -65.762,60.9575 -34.171,-0.215 -62.472,-26.7895 -64.543,-60.9575 -0.078,-1.6484 -0.078,-4.0117 -0.078,-5.5937 v 0 h -9.09 v 0 c 0,1.2187 -0.078,3.0078 -0.148,4.3046 -2.148,34.0977 -30.02,61.0316 -64.187,61.1056 -34.094,0.07 -61.465,-27.1524 -64.688,-61.1056 -0.137,-1.2187 -0.219,-3.0859 -0.285,-4.3046 v 0 H 374.586 L 356.105,121.48 h -65.046 v 0 c 1.004,-0.148 2.222,-0.363 3.222,-0.578 1.719,-0.285 3.801,-0.718 5.52,-1.148 1.644,-0.496 3.222,-1 4.801,-1.645 1.144,-0.429 2.648,-1.074 3.722,-1.574 0.574,-0.285 1.934,-0.863 2.578,-1.148 v 0 h 38.614 V 52.3438 h -9.532 v 0 c 0,1.1523 0,2.9414 -0.066,4.0898 -1.504,32.7344 -28.656,58.3084 -61.398,58.0934 -32.09,-0.144 -58.524,-25.2848 -60.168,-57.3786 -0.075,-1.3554 -0.075,-3.4375 -0.075,-4.8046 v 0 h -57.668 v 0 c -0.07,1.3671 -0.144,3.3007 -0.285,4.6601 -1.293,16.9024 -8.883,32.8828 -21.636,44.1291 -11.536,10.172 -26.579,15.472 -41.9771,15.183 C 80.0195,116.035 64.1172,109.297 52.5117,97.3359 42.6211,87.0898 36.3203,73.6914 35.8906,59.4414 c -0.0703,-2.0781 0.0703,-5.0859 0.1446,-7.0976 v 0 H 0 v 21.9218 l 11.8203,-0.0664 8.8828,68.5548 0.2891,2.867 v 0 c 0.2148,2 0.6445,4.297 1.4297,6.156 1.5039,3.582 4.4453,6.52 7.7383,8.598 1.8632,1.215 4.082,2.223 6.3046,2.652 0.7852,0.141 1.8594,0.282 2.6524,0.356 v 0 l 27.6523,56.453 v 0 c 0.1407,0.211 0.8594,1.715 1,1.93 0.9336,1.648 2.2891,3.007 3.9414,4.015 1.5039,0.86 3.1485,1.43 4.8711,1.571 0.2852,0 2.793,0 3.1485,0 v 0 H 164.121 V 115.387 h 83.457 v 0 c 0.5,0.218 1.36,0.648 1.86,0.863 1.863,0.859 3.941,1.504 5.8,2.074 2.438,0.719 5.305,1.43 7.742,2.008 1.504,0.356 3.364,0.859 4.872,1.148 v 0 H 172.5 v 35.168 h 208.676 l 18.269,-70.0582 h 94.629 v 0 c 0.145,0.4297 0.36,1.004 0.508,1.3594 0.43,0.9336 1.074,1.9375 1.57,2.7969 0.43,0.5703 0.86,1.2148 1.289,1.7187 0.293,0.4297 0.793,0.9297 1.153,1.2891 v 0 H 405.461 L 386.555,163.383 H 172.5 v 0" /><path
         id="path16"
         style="fill:#231f20;fill-opacity:1;fill-rule:nonzero;stroke:none"
         d="M 96.7969,104.887 C 125.813,105.176 149.809,82.1758 149.809,53.1641 149.738,24.5117 126.313,1.58984 97.6563,1.58984 69.2188,1.66016 46.0781,24.5117 46.0078,52.9492 45.8633,81.25 68.5,104.531 96.7969,104.887 v 0" /><path
         id="path18"
         style="fill:#231f20;fill-opacity:1;fill-rule:nonzero;stroke:none"
         d="m 278.52,105.746 c 29.23,0.141 52.867,-23.5702 52.652,-52.7304 -0.141,-28.7187 -23.496,-51.86326 -52.223,-51.86326 -28.652,0 -51.933,23.21486 -52.078,51.86326 -0.215,28.8789 22.852,52.5864 51.649,52.7304 v 0" /><path
         id="path20"
         style="fill:#231f20;fill-opacity:1;fill-rule:nonzero;stroke:none"
         d="m 557.656,105.809 c 29.375,0 53.086,-23.9262 52.871,-53.3012 C 610.383,23.2813 586.457,-0.136719 557.227,0 c -29.012,0.144531 -52.579,23.7109 -52.579,52.8008 0,29.2969 23.711,53.0822 53.008,53.0082 v 0" /><path
         id="path22"
         style="fill:#231f20;fill-opacity:1;fill-rule:nonzero;stroke:none"
         d="m 696.191,105.742 c 29.082,0.074 52.649,-23.4295 52.727,-52.4412 0,-28.7891 -23.281,-52.14846 -52.082,-52.3633 -29.082,-0.214844 -52.938,23.0664 -53.086,52.1484 -0.145,29.0118 23.43,52.5861 52.441,52.6561 v 0" /><path
         id="path24"
         style="fill:#ffffff;fill-opacity:1;fill-rule:nonzero;stroke:none"
         d="M 71.1836,204.203 H 83.5 L 66.0938,163.371 H 51.6953 l 19.4883,40.832 v 0" /><path
         id="path26"
         style="fill:#ffffff;fill-opacity:1;fill-rule:nonzero;stroke:none"
         d="M 95.2383,204.203 H 137.863 V 163.371 H 77.6914 l 17.5469,40.832 v 0" /><path
         id="path28"
         style="fill:#ffffff;fill-opacity:1;fill-rule:nonzero;stroke:none"
         d="m 616.895,93.7109 h 19.484 l -4.004,-7.164 H 621.27 l -4.375,7.164 v 0" /><path
         id="path30"
         style="fill:#ffffff;fill-opacity:1;fill-rule:nonzero;stroke:none"
         d="M 97.2422,72.9609 C 107.848,72.8242 115.938,63.7188 115.508,53.125 115.152,43.3086 107.129,35.6445 97.3867,35.4297 87.1445,35.1367 78.332,42.8789 77.7578,53.0469 c -0.5742,11.0351 8.4531,20.125 19.4844,19.914 v 0" /><path
         id="path32"
         style="fill:#ffffff;fill-opacity:1;fill-rule:nonzero;stroke:none"
         d="m 278.98,72.6055 c 10.672,0.0703 19.051,-9.0313 18.622,-19.7071 -0.356,-10.0273 -8.664,-17.9765 -18.77,-17.832 -9.668,0.0703 -17.547,7.7344 -18.051,17.4024 -0.57,10.6757 7.524,19.9921 18.199,20.1367 v 0" /><path
         id="path34"
         style="fill:#ffffff;fill-opacity:1;fill-rule:nonzero;stroke:none"
         d="m 557.402,71.2422 c 10.539,0.3476 19.844,-7.4531 19.993,-18.0586 0.066,-10.8086 -9.102,-19.2656 -19.915,-18.9063 -10.027,0.3516 -17.91,8.5938 -17.773,18.6211 0.148,9.8164 7.883,17.9805 17.695,18.3438 v 0" /><path
         id="path36"
         style="fill:#ffffff;fill-opacity:1;fill-rule:nonzero;stroke:none"
         d="m 696.574,72.0313 c 10.176,-0.1485 18.125,-8.5938 18.125,-18.7696 0,-9.9609 -7.883,-18.125 -17.832,-18.4101 -10.539,-0.3594 -19.347,7.9492 -19.492,18.4101 -0.137,10.6055 8.672,18.9844 19.199,18.7696 v 0" /></g></g></svg>