<?xml version="1.0" encoding="UTF-8" standalone="no"?>
<svg
   xmlns:dc="http://purl.org/dc/elements/1.1/"
   xmlns:cc="http://creativecommons.org/ns#"
   xmlns:rdf="http://www.w3.org/1999/02/22-rdf-syntax-ns#"
   xmlns:svg="http://www.w3.org/2000/svg"
   xmlns="http://www.w3.org/2000/svg"
   viewBox="0 0 93.26667 37.813332"
   height="37.813332"
   width="93.26667"
   xml:space="preserve"
   id="svg2"
   version="1.1"><metadata
     id="metadata8"><rdf:RDF><cc:Work
         rdf:about=""><dc:format>image/svg+xml</dc:format><dc:type
           rdf:resource="http://purl.org/dc/dcmitype/StillImage" /></cc:Work></rdf:RDF></metadata><defs
     id="defs6" /><g
     transform="matrix(1.3333333,0,0,-1.3333333,0,37.813333)"
     id="g10"><g
       transform="scale(0.1)"
       id="g12"><path
         id="path14"
         style="fill:#231f20;fill-opacity:1;fill-rule:nonzero;stroke:none"
         d="m 48.457,282.457 562.676,1.152 v 0 c 4.18,0 8.574,-0.578 12.168,-2.304 3.242,-1.586 5.976,-4.246 8,-7.129 v 0 l 65.586,-100.653 v 0 c 0.722,-1.226 1.375,-2.742 1.726,-4.109 0.657,-1.726 0.657,-8.785 0.657,-10.582 v 0 l 0.214,-94.1054 v 0 c 0,-4.1016 -1.222,-8.5625 -4.394,-11.2305 -3.457,-2.8789 -8.496,-3.457 -12.895,-3.457 v 0 H 577.656 v 0 c 0.071,2.0117 0.149,4.9726 0,7.0625 -1.941,30.7343 -28.515,53.4884 -59.324,53.8514 -31.398,0.363 -59.191,-22.3202 -61.269,-53.6366 -0.079,-2.0234 -0.079,-4.9726 -0.079,-6.9141 v 0 l -276.261,0.2813 v 0 c 0,1.4453 0,3.5352 -0.145,5.0391 -2.019,30.6796 -28.801,53.0703 -59.543,53.1403 -30.6717,0 -56.7381,-22.6091 -59.9061,-53.1403 -0.2148,-1.5039 -0.3555,-3.7383 -0.3555,-5.3204 v 0 L 13.0313,50.0391 v 0 C 9.86328,49.8945 6.76953,51.4063 4.39453,53.5664 1.875,56.3008 0.507813,60.2656 0.507813,63.9375 v 0 L 0,154.875 v 0 c 0,2.156 0.148438,4.676 0.433594,6.766 0.214844,3.164 0.933596,8.496 1.796876,11.304 v 0 l 23.76173,97.344 v 0 c 0.9375,4.246 4.4687,7.848 8.3555,9.649 4.2461,2.085 9.5742,2.519 14.1093,2.519 v 0" /><path
         id="path16"
         style="fill:#231f20;fill-opacity:1;fill-rule:nonzero;stroke:none"
         d="M 121.391,99.6484 C 148.828,99.6484 171,77.4023 171,49.9727 171,22.4609 148.754,0.214844 121.324,0.214844 94.0352,0.214844 71.7891,22.2461 71.6406,49.6094 71.5,77.2578 93.8203,99.6484 121.391,99.6484 v 0" /><path
         id="path18"
         style="fill:#231f20;fill-opacity:1;fill-rule:nonzero;stroke:none"
         d="M 518.262,100.441 C 545.977,100.152 567.727,76.9648 567.363,49.1719 566.934,22.0313 544.824,0.0703125 517.609,0 c -27.578,-0.0664063 -50.187,21.9648 -50.468,49.4648 -0.43,28.3672 22.754,51.2652 51.121,50.9762 v 0" /><path
         id="path20"
         style="fill:#ffffff;fill-opacity:1;fill-rule:nonzero;stroke:none"
         d="m 38.0195,261.719 20.7344,0.148 -23.4687,-94.824 H 14.6875 l 23.332,94.676 v 0" /><path
         id="path22"
         style="fill:#ffffff;fill-opacity:1;fill-rule:nonzero;stroke:none"
         d="m 74.0195,262.008 63.5745,0.289 0.648,-95.188 -87.4803,-0.289 23.2578,95.188 v 0" /><path
         id="path24"
         style="fill:#ffffff;fill-opacity:1;fill-rule:nonzero;stroke:none"
         d="m 151.348,262.297 h 71.207 l -0.578,-95.254 h -70.34 l -0.289,95.254 v 0" /><path
         id="path26"
         style="fill:#ffffff;fill-opacity:1;fill-rule:nonzero;stroke:none"
         d="M 235.875,262.297 H 306 l 0.148,-95.254 h -70.273 v 95.254 0" /><path
         id="path28"
         style="fill:#ffffff;fill-opacity:1;fill-rule:nonzero;stroke:none"
         d="m 320.473,262.297 71.355,-0.289 0.938,-95.188 h -71.864 l -0.429,95.477 v 0" /><path
         id="path30"
         style="fill:#ffffff;fill-opacity:1;fill-rule:nonzero;stroke:none"
         d="m 405.723,262.008 73.156,0.359 0.926,-95.758 -72.93,0.211 -1.152,95.188 v 0" /><path
         id="path32"
         style="fill:#ffffff;fill-opacity:1;fill-rule:nonzero;stroke:none"
         d="m 492.988,262.297 h 71.563 l 0.656,-94.824 -71.281,-0.653 -0.938,95.477 v 0" /><path
         id="path34"
         style="fill:#ffffff;fill-opacity:1;fill-rule:nonzero;stroke:none"
         d="m 579.172,262.297 h 43.633 l 59.754,-94.824 H 579.387 l -0.215,94.824 v 0" /><path
         id="path36"
         style="fill:#ffffff;fill-opacity:1;fill-rule:nonzero;stroke:none"
         d="m 121.324,71.3477 c 11.66,0 20.879,-9.7149 20.664,-21.375 -0.148,-11.1641 -9.218,-20.2344 -20.375,-20.2344 -11.238,-0.0781 -20.379,8.8555 -20.812,20.0078 -0.289,11.6719 8.859,21.5352 20.523,21.6016 v 0" /><path
         id="path38"
         style="fill:#ffffff;fill-opacity:1;fill-rule:nonzero;stroke:none"
         d="m 518.039,71.5625 c 11.953,-0.0664 21.387,-10.1445 20.594,-22.168 -0.645,-10.664 -9.863,-18.6523 -20.664,-18.7187 -10.946,-0.0781 -20.449,7.918 -21.239,18.7187 -0.792,12.168 9.071,22.3164 21.309,22.168 v 0" /></g></g></svg>