<?xml version="1.0" encoding="UTF-8" standalone="no"?>
<svg
   xmlns:dc="http://purl.org/dc/elements/1.1/"
   xmlns:cc="http://creativecommons.org/ns#"
   xmlns:rdf="http://www.w3.org/1999/02/22-rdf-syntax-ns#"
   xmlns:svg="http://www.w3.org/2000/svg"
   xmlns="http://www.w3.org/2000/svg"
   viewBox="0 0 57.173332 37.786667"
   height="37.786667"
   width="57.173332"
   xml:space="preserve"
   id="svg2"
   version="1.1"><metadata
     id="metadata8"><rdf:RDF><cc:Work
         rdf:about=""><dc:format>image/svg+xml</dc:format><dc:type
           rdf:resource="http://purl.org/dc/dcmitype/StillImage" /></cc:Work></rdf:RDF></metadata><defs
     id="defs6" /><g
     transform="matrix(1.3333333,0,0,-1.3333333,0,37.786667)"
     id="g10"><g
       transform="scale(0.1)"
       id="g12"><path
         id="path14"
         style="fill:#231f20;fill-opacity:1;fill-rule:nonzero;stroke:none"
         d="m 36.6367,14.7578 -0.082,42.2539 v 0 c -1.6992,1.6992 -4.1875,4.1328 -5.7969,5.8321 -5.4883,5.75 -10.3711,12.0703 -14.5937,18.8164 -3.5313,5.6601 -6.49222,11.6289 -8.89066,17.8125 -3.09375,8.1443 -5.05078,16.8553 -6.14063,25.4803 -1.35156,10.496 -1.35156,21.078 0.04297,31.531 1.61328,12.067 5.3125,23.735 10.58592,34.668 4.836,9.977 11.0664,19.297 18.6875,27.356 7.3203,7.707 16.6016,14.59 25.5742,20.293 9.6289,6.097 20.0391,11.543 30.3672,16.332 14.5074,6.754 29.4924,12.418 44.8714,16.855 12.765,3.707 25.879,6.45 39.035,8.407 12.285,1.832 24.699,2.789 37.117,3.05 15.379,0.348 30.711,-0.613 45.918,-2.746 15.113,-2.133 30.145,-5.66 44.695,-10.191 15.989,-4.922 31.543,-11.41 46.446,-18.988 13.547,-6.879 26.66,-14.938 38.64,-24.258 10.2,-7.93 18.774,-18.078 25.657,-29.008 5.363,-8.492 9.675,-17.68 12.546,-27.309 2.571,-8.582 3.84,-17.859 4.27,-26.785 0.391,-8.84 -0.086,-17.73 -1.699,-26.394 -2.129,-11.496 -6.407,-22.516 -12.199,-32.6683 -4.266,-7.4883 -9.454,-14.6289 -15.68,-20.5938 -1.352,-1.3594 -3.442,-3.1836 -4.875,-4.4453 v 0 l 0.078,-45.4297 37.598,0.1289 L 428.594,0 0,0.253906 0.0429688,14.8438 36.6367,14.7578 v 0" /><path
         id="path16"
         style="fill:#ffffff;fill-opacity:1;fill-rule:nonzero;stroke:none"
         d="m 211.422,32.4727 c -1.789,0 -3.574,0.3007 -5.274,0.9961 -1.656,0.6523 -3.179,1.6601 -4.488,2.9179 -1.308,1.2617 -2.308,2.7852 -3.008,4.4453 -0.691,1.6485 -1.089,3.4375 -1.089,5.2735 0,1.7773 0.351,3.5625 1.05,5.2617 0.696,1.6601 1.696,3.1836 3.004,4.4453 1.266,1.2695 2.785,2.3125 4.488,2.957 1.653,0.7032 3.442,1.0469 5.274,1.0078 8.797,-0.0898 15.203,-8.3203 13.113,-16.8554 -1.445,-6.0547 -6.847,-10.3633 -13.07,-10.4492 v 0" /><path
         id="path18"
         style="fill:#ffffff;fill-opacity:1;fill-rule:nonzero;stroke:none"
         d="m 187.465,14.582 c -6.973,5.2735 -11.852,12.2852 -14.379,20.6446 -2.481,8.3672 -2.223,16.9414 0.785,25.1367 2.965,8.2305 8.277,14.9297 15.598,19.7265 7.273,4.793 15.551,7.0547 24.265,6.5313 8.317,-0.4766 15.993,-3.3477 22.567,-8.5352 6.531,-5.1367 11.148,-11.9336 13.554,-19.9023 2.391,-8.0156 2.266,-16.1992 -0.351,-24.1289 -2.617,-7.8828 -7.402,-14.5508 -14.113,-19.5117 v 0 h 142.89 l 0.039,34.1875 v 0 c -0.254,-0.1758 -0.996,-0.6524 -1.3,-0.7813 -1.7,-0.7422 -4.098,-0.9179 -5.926,-0.9648 v 0 l -113.235,-0.168 v 0 c -0.3,25.957 -21.687,46.7305 -47.699,46.207 C 185.023,92.5 164.809,72.1602 164.418,46.9844 v 0 l -24.961,0.0469 -0.219,142.7267 v 0 c 0.133,1.957 -0.261,3.918 -1.133,5.664 -1.96,3.742 -5.921,5.965 -10.105,5.746 v 0 l -55.9844,0.133 v 0 c -3.7461,0.215 -7.4062,-1.223 -9.9726,-3.922 -2.3555,-2.524 -3.5742,-5.879 -3.3985,-9.277 v 0 V 47.1602 H 49.1016 L 49.1875,14.7578 187.465,14.582 v 0" /><path
         id="path20"
         style="fill:#ffffff;fill-opacity:1;fill-rule:nonzero;stroke:none"
         d="m 289.336,142.988 -33.723,-0.043 v 0 c -2.261,-0.175 -4.527,0.567 -6.226,2.133 -1.528,1.352 -2.485,3.223 -2.746,5.231 v 0 l 0.047,40.371 v 0 c -0.309,2.484 0.433,5.054 2.042,6.968 1.836,2.137 4.493,3.352 7.278,3.266 v 0 l 72.664,-0.039 v 0 c 2.832,0.258 5.578,-0.785 7.59,-2.746 1.863,-1.875 2.871,-4.441 2.781,-7.055 v 0 -40.461 0 c -0.039,-2.355 -1.133,-4.531 -2.957,-6.011 -1.184,-0.957 -2.656,-1.567 -4.184,-1.7 v 0 l -42.566,0.086 v 0" /><path
         id="path22"
         style="fill:#231f20;fill-opacity:1;fill-rule:nonzero;stroke:none"
         d="M 67.3359,47.2461 67.2461,187.488 v 0 c -0.2148,1.696 0.4336,3.395 1.6992,4.528 1,0.957 2.3555,1.48 3.7891,1.48 v 0 l 52.3246,-0.086 v 0 c 2.046,0.129 4.007,-0.828 5.14,-2.48 0.739,-1.09 1.09,-2.356 1.047,-3.664 v 0 L 130.855,47.1602 67.3359,47.2461 v 0" /><path
         id="path24"
         style="fill:#ffffff;fill-opacity:1;fill-rule:nonzero;stroke:none"
         d="m 76.6797,143.063 0.0391,41.199 45.2692,-0.043 -0.09,-41.375 -45.2183,0.219 v 0" /></g></g></svg>