<?xml version="1.0" encoding="UTF-8" standalone="no"?>
<svg
   xmlns:dc="http://purl.org/dc/elements/1.1/"
   xmlns:cc="http://creativecommons.org/ns#"
   xmlns:rdf="http://www.w3.org/1999/02/22-rdf-syntax-ns#"
   xmlns:svg="http://www.w3.org/2000/svg"
   xmlns="http://www.w3.org/2000/svg"
   viewBox="0 0 73.186668 37.799999"
   height="37.799999"
   width="73.186668"
   xml:space="preserve"
   id="svg2"
   version="1.1"><metadata
     id="metadata8"><rdf:RDF><cc:Work
         rdf:about=""><dc:format>image/svg+xml</dc:format><dc:type
           rdf:resource="http://purl.org/dc/dcmitype/StillImage" /></cc:Work></rdf:RDF></metadata><defs
     id="defs6" /><g
     transform="matrix(1.3333333,0,0,-1.3333333,0,37.8)"
     id="g10"><g
       transform="scale(0.1)"
       id="g12"><path
         id="path14"
         style="fill:#231f20;fill-opacity:1;fill-rule:nonzero;stroke:none"
         d="M 105.953,72.4414 C 125.879,72.375 141.777,55.8984 141.703,35.9766 141.703,16.3398 125.953,0.222656 106.313,0 86.2383,-0.28125 69.7656,15.832 69.5508,35.832 69.3359,56.1133 85.7383,72.5898 105.953,72.4414 v 0" /><path
         id="path16"
         style="fill:#231f20;fill-opacity:1;fill-rule:nonzero;stroke:none"
         d="M 421.02,72.6563 C 441.168,72.8008 457.777,56.8359 457.926,36.7656 458.07,16.4727 441.527,0 421.234,0.078125 401.098,0.144531 384.84,16.6875 385.055,36.8359 c 0.215,19.7852 16.258,35.6836 35.965,35.8204 v 0" /><path
         id="path18"
         style="fill:#231f20;fill-opacity:1;fill-rule:nonzero;stroke:none"
         d="m 0,73.2813 h 8.55859 v 53.0857 c 0,0.43 0.14844,3.953 0.14844,4.317 0.06641,1.871 0.14063,4.531 0.50391,6.402 0.28515,1.871 0.85546,3.953 1.43356,5.758 0.5743,1.582 1.2266,3.449 1.8008,5.031 v 0 l 1.6563,4.172 19.7812,59.851 H 145.383 V 78.8867 h 11.582 V 219.527 H 33.8828 v 40.786 0 c 0,1.078 0,3.453 0.0703,4.457 0.2891,2.593 1.0078,5.039 2.1602,7.339 0.9336,1.731 2.0859,3.313 3.3789,4.821 1.582,1.656 3.3828,3.308 5.4687,4.316 1.7227,0.938 3.8125,1.438 5.7539,1.727 1.0782,0.215 3.0196,0.504 4.1719,0.504 v 0 H 508.805 v 0 c 1.511,0 3.242,-0.075 4.746,-0.145 2.734,-0.285 5.398,-0.863 7.918,-1.871 3.019,-1.223 5.683,-3.094 8.125,-5.25 2.09,-1.871 3.957,-4.027 5.617,-6.332 1.141,-1.652 2.156,-3.379 3.016,-5.25 0.859,-1.945 1.515,-4.102 1.73,-6.262 0.145,-1.144 0.215,-2.297 0.215,-3.449 v 0 -181.6367 h 8.777 V 48.1758 h -82.441 v 0 c -0.215,0.789 -0.574,1.8633 -0.867,2.6562 -1.008,2.8789 -2.227,5.8282 -3.743,8.4922 -4.101,7.1875 -10.281,13.0196 -17.48,17.1875 -7.117,4.1016 -15.176,6.5508 -23.445,6.4102 -7.844,-0.0742 -15.469,-2.5235 -22.305,-6.4766 -7.336,-4.25 -13.664,-10.2148 -17.617,-17.6953 -1.301,-2.3047 -2.375,-4.9727 -3.242,-7.4805 -0.364,-0.9375 -0.793,-2.1601 -1.075,-3.0937 v 0 H 151.211 v 0 c -0.289,0.8555 -0.719,1.9414 -1.008,2.8008 -1.078,2.8789 -2.445,5.9765 -4.027,8.6328 -4.028,7.1172 -10.145,12.8789 -17.196,16.9023 -6.976,4.0352 -14.886,6.336 -22.871,6.336 -8.9957,0 -17.7692,-2.7305 -25.3238,-7.625 C 74.5273,71.1914 69.2734,65.8008 65.3906,59.3945 63.8789,56.875 62.582,54.1406 61.5781,51.3398 c -0.289,-0.9414 -0.6484,-2.2304 -0.9336,-3.164 v 0 H 0 v 25.1055 0" /><path
         id="path20"
         style="fill:#ffffff;fill-opacity:1;fill-rule:nonzero;stroke:none"
         d="m 106.547,48.4375 c 6.402,-0.2852 11.082,-5.832 11.152,-12.1602 0.071,-6.3281 -4.75,-11.7187 -11.078,-12.0781 -6.9765,-0.3594 -12.9491,5.0274 -13.0976,12.0117 -0.2148,7.0508 5.9727,12.5196 13.0236,12.2266 v 0" /><path
         id="path22"
         style="fill:#ffffff;fill-opacity:1;fill-rule:nonzero;stroke:none"
         d="m 421.188,48.3672 c 6.835,0.0703 12.734,-5.1055 12.8,-12.0117 0.078,-6.6875 -5.457,-12.0899 -12.226,-12.2344 -6.973,-0.1367 -12.949,5.1836 -12.949,12.2344 0,6.6914 5.617,11.9375 12.375,12.0117 v 0" /><path
         id="path24"
         style="fill:#ffffff;fill-opacity:1;fill-rule:nonzero;stroke:none"
         d="m 20.2305,138.242 22.7343,62.946 H 129.863 V 138.242 H 20.2305 v 0" /><path
         id="path26"
         style="fill:#ffffff;fill-opacity:1;fill-rule:nonzero;stroke:none"
         d="M 273.168,57.2461 V 219.531 h 79.777 V 57.2461 h -79.777 v 0" /><path
         id="path28"
         style="fill:#ffffff;fill-opacity:1;fill-rule:nonzero;stroke:none"
         d="m 383.109,138.242 v 81.363 H 508.715 V 138.242 H 383.109 v 0" /></g></g></svg>