<?xml version="1.0" encoding="UTF-8" standalone="no"?>
<svg
   xmlns:dc="http://purl.org/dc/elements/1.1/"
   xmlns:cc="http://creativecommons.org/ns#"
   xmlns:rdf="http://www.w3.org/1999/02/22-rdf-syntax-ns#"
   xmlns:svg="http://www.w3.org/2000/svg"
   xmlns="http://www.w3.org/2000/svg"
   viewBox="0 0 69.426666 37.786667"
   height="37.786667"
   width="69.426666"
   xml:space="preserve"
   id="svg2"
   version="1.1"><metadata
     id="metadata8"><rdf:RDF><cc:Work
         rdf:about=""><dc:format>image/svg+xml</dc:format><dc:type
           rdf:resource="http://purl.org/dc/dcmitype/StillImage" /></cc:Work></rdf:RDF></metadata><defs
     id="defs6" /><g
     transform="matrix(1.3333333,0,0,-1.3333333,0,37.786667)"
     id="g10"><g
       transform="scale(0.1)"
       id="g12"><path
         id="path14"
         style="fill:#231f20;fill-opacity:1;fill-rule:nonzero;stroke:none"
         d="m 11.4492,114.059 -3.59373,3.902 v 0 c -5.03516,5.445 26.10543,22.738 39.77343,27.527 9.6172,3.364 34.9922,7.867 40.4141,7.867 v 0 15.161 0 c 0,0.73 0,3.609 1.4414,5.062 1.4375,1.442 4.7304,0.949 5.7812,0.719 2.0977,-0.473 7.2184,-2.172 7.2184,-2.172 0.719,0.734 2.172,2.172 2.891,2.895 1.441,1.449 11.555,7.953 15.895,8.671 7.941,0.719 14.445,-0.718 21.664,-2.89 v 0 l 8.671,-2.891 v 0 c 2.981,-0.996 9.309,4.43 12.286,4.324 5.324,-0.183 30.953,-8.871 29.629,-3.707 v 0 l -4.36,16.711 v 0 c -0.644,2.434 -4.57,17.438 -6.5,18.789 -0.547,0.371 -1.941,-0.16 -2.949,-0.89 -2.66,-1.946 -7.422,-1.356 -8.102,1.535 -0.484,2.101 -1.39,4.461 -2.668,5.855 -1.308,1.411 -8.691,2.719 -10.836,2.891 -1.148,0.09 -2.402,0.992 -2.167,2.156 0.531,2.848 1.449,5.785 -0.723,9.399 v 0 l -5.047,10.109 v 0 c -1.453,2.168 -1.453,5.781 -1.453,7.941 0,2.891 0,5.782 0.719,8.672 2.171,13.719 16.613,20.942 28.179,21.672 9.395,0.727 26.004,-0.73 32.504,-26.004 0.723,-2.89 0.723,-7.222 0.723,-9.39 1.265,0 25.687,-1.297 33.945,-4.328 9.664,-3.571 40.875,-27.145 56.344,-42.618 10.262,-7.687 29.578,-24.511 40.457,-39.011 2.316,-4.633 5.207,-10.082 4.172,-17.985 -0.254,-1.953 -2.735,-11.621 -4.895,-13.793 v 0 l 27.453,-18.047 18.047,21.661 v 0 c 2.196,2.16 2.469,4.961 1.766,6.773 -1.094,2.809 -5.379,3.34 -9.707,4.789 v 0 l -18.047,6.488 v 0 c -0.742,0.735 -6.172,1.844 -5.281,7.969 0.586,4.039 4.344,5.727 5.996,5.77 v 0 l 112.683,2.156 15.176,-0.723 v 0 c 1.809,-0.082 4.485,-2.355 5.696,-5.332 1.757,-4.359 0.339,-8.144 -0.852,-9.437 v 0 l -8.887,-9.391 v 0 c -0.39,-2.289 0.489,-3.48 1.867,-4.734 1.055,-0.961 17.579,-14.926 21.68,-23.098 1.434,-2.172 1.512,-10.324 3.582,-10.258 4.504,0.149 8.684,-2.773 8.684,-6.3552 v 0 -48.4024 0 c 0,-0.7187 -0.188,-2.6172 -0.715,-3.6133 -0.731,-1.3437 -3.836,-2.039 -5.887,-1.9687 -4.172,0.1445 -7.121,1.9687 -7.832,1.9687 0,-0.7187 -12.961,-45.8281 -65.734,-46.226537 C 377.574,-0.265625 366.918,58.75 366.871,58.7383 v 0 L 306.09,34.3242 200.004,34.1914 v 0 c -2.168,0 -13.617,-0.2656 -15.301,7.4883 -1.223,5.5976 7.348,13.4492 8.086,14.1719 v 0 L 167.5,89.7969 v 0 c 0,0 -2.172,4.3281 -5.781,2.8906 -2.891,-0.7187 -2.891,-5.0664 -2.891,-5.0664 v 0 L 158.57,66.6914 v 0 c 0,-0.7148 0,-4.0937 -1.898,-5.793 -2.375,-2.1211 -7.121,-0.7304 -9.223,-0.7304 C 140.805,25.8906 110.609,0 74.4102,0 33.3281,0 0,33.3203 0,74.4023 0,88.9766 4.19922,102.582 11.4492,114.059 v 0" /><path
         id="path16"
         style="fill:#ffffff;fill-opacity:1;fill-rule:nonzero;stroke:none"
         d="m 199.16,78.8008 -19.512,31.0272 v 0 c -2.16,5.113 -2.16,11.594 1.442,15.914 2.879,2.879 7.992,2.879 12.312,-1.441 5.758,-5.754 7.922,-17.352 7.922,-22.391 0,-5.7577 -2.164,-15.1912 -2.164,-23.1092 v 0" /><path
         id="path18"
         style="fill:#ffffff;fill-opacity:1;fill-rule:nonzero;stroke:none"
         d="m 301.695,69.4336 -20.234,2.168 v 0 c 0,0 7.918,14.4687 15.184,21.6718 5.761,5.7539 14.406,11.5896 20.234,15.1876 v 0 L 301.695,69.4336 v 0" /><path
         id="path20"
         style="fill:#ffffff;fill-opacity:1;fill-rule:nonzero;stroke:none"
         d="m 173.168,149.719 h -45.5 v 0 c 0,0 6.477,14.472 19.512,13.754 4.32,0 7.199,0.718 12.957,-2.953 5.113,-3.602 9.433,-7.204 13.031,-10.801 v 0" /><path
         id="path22"
         style="fill:#ffffff;fill-opacity:1;fill-rule:nonzero;stroke:none"
         d="m 89.0273,82.6172 8.4141,12.6406 v 0 c 5.6566,-5.7422 9.1216,-13.4805 9.1216,-22.1719 0,-17.5586 -14.2583,-31.8164 -31.8169,-31.8164 -17.5625,0 -31.8164,14.2578 -31.8164,31.8164 0,17.1094 13.5078,31.0591 30.4336,31.7931 v 0 l 0.7461,-14.5118 v 0 C 64.8789,90.0781 57.4727,82.4805 57.4727,73.1914 c 0,-9.4805 7.707,-17.1836 17.1836,-17.1836 9.4804,0 17.1914,7.7031 17.1914,17.1836 0,3.4805 -1.0352,6.7188 -2.8204,9.4258 v 0" /><path
         id="path24"
         style="fill:#ffffff;fill-opacity:1;fill-rule:nonzero;stroke:none"
         d="m 454.41,66.4531 12.735,-6.3359 v 0 C 462.27,48.8477 451.051,40.9844 438.012,40.9844 c -17.5,0 -31.707,14.2109 -31.707,31.7187 0,5.7539 1.531,11.1641 4.226,15.8242 v 0 l 13.047,-6.4101 v 0 c -1.824,-2.7539 -2.89,-6.0625 -2.89,-9.6172 0,-9.6094 7.792,-17.4023 17.402,-17.4023 7.461,0 13.867,4.7265 16.32,11.3554 v 0" /><path
         id="path26"
         style="fill:#ffffff;fill-opacity:1;fill-rule:nonzero;stroke:none"
         d="m 468.141,82.6563 -13.809,-3.8946 v 0 c -2.519,6.5117 -8.84,11.1406 -16.242,11.1406 -1.61,0 -3.164,-0.2148 -4.649,-0.6289 v 0 l -5.449,13.5196 v 0 c 3.145,1.051 6.516,1.625 10.02,1.625 14.043,0 25.937,-9.1367 30.129,-21.7617 v 0" /></g></g></svg>