<?xml version="1.0" encoding="UTF-8" standalone="no"?>
<svg
   xmlns:dc="http://purl.org/dc/elements/1.1/"
   xmlns:cc="http://creativecommons.org/ns#"
   xmlns:rdf="http://www.w3.org/1999/02/22-rdf-syntax-ns#"
   xmlns:svg="http://www.w3.org/2000/svg"
   xmlns="http://www.w3.org/2000/svg"
   viewBox="0 0 70.226669 37.573334"
   height="37.573334"
   width="70.226669"
   xml:space="preserve"
   id="svg2"
   version="1.1"><metadata
     id="metadata8"><rdf:RDF><cc:Work
         rdf:about=""><dc:format>image/svg+xml</dc:format><dc:type
           rdf:resource="http://purl.org/dc/dcmitype/StillImage" /></cc:Work></rdf:RDF></metadata><defs
     id="defs6" /><g
     transform="matrix(1.3333333,0,0,-1.3333333,0,37.573333)"
     id="g10"><g
       transform="scale(0.1)"
       id="g12"><path
         id="path14"
         style="fill:#231f20;fill-opacity:1;fill-rule:nonzero;stroke:none"
         d="m 339.367,49.3086 -64.582,-1.4414 0.723,-23.6875 10.801,0.7187 v -7.1992 l -29.454,-0.7187 -0.722,7.1992 10.008,0.7187 -0.711,22.9688 h -12.891 v 0 c -4.324,0 -8.644,0 -12.168,1.4414 -13.683,4.3203 -24.414,15.0469 -25.851,29.4453 -0.719,10.0117 3.605,20.0899 10.726,27.2191 0.723,0.718 2.168,1.441 2.168,2.156 v 0 l -7.855,11.527 3.527,6.407 v 0 c 0.723,2.878 2.883,6.476 2.883,9.359 v 0 l -55.223,33.695 v 0 c -2.16,1.442 -5.762,3.598 -7.918,5.758 -2.164,1.441 -4.32,3.602 -5.762,5.762 -2.16,2.156 -6.406,14.324 -6.406,16.488 v 0 l -11.523,-22.25 v 0 l 2.879,-1.441 c 17.207,-13.61 22.968,-18.649 30.168,-31.532 9.293,-14.402 13.609,-30.89 15.05,-48.0973 0,0 -2.168,-2.1563 -2.879,-2.1563 v 0 l -5.039,-0.7265 v 0 C 180.754,27.7813 118.332,-16.7188 58.7852,4.09375 0.609375,24.8984 -20.1992,96.6875 17.8164,145.5 v 0 l -3.5976,2.805 v 0 c -2.0899,1.441 -3.5313,3.601 -2.0899,5.039 v 0 l 2.8086,2.883 v 0 c 5.0391,5.039 12.957,12.242 19.4375,16.488 10.0117,6.48 20.8086,11.519 32.2578,13.683 19.3672,4.317 38.8052,2.875 57.4532,-4.324 1.441,0 3.605,-0.719 4.973,-1.437 v 0 l 13.679,28.726 v 0 c -0.722,0 -14.402,-3.601 -15.769,-3.601 -0.719,0 -2.16,0 -2.883,0.722 -0.715,0.719 -1.434,1.438 -1.434,2.879 v 0 21.528 -1.442 0 c 0,0 -0.722,4.321 1.434,6.41 0.723,0.719 2.883,1.442 4.25,1.442 3.602,0 7.203,-0.723 10.801,-1.442 v 0 l 15.047,-2.808 6.48,14.328 v 0 c -7.195,0 -15.766,8.644 -15.766,17.93 0,7.195 1.442,15.765 10.008,15.765 2.16,0 6.481,0.719 8.641,0.719 v 0 l 67.461,-0.719 v -8.57 h -68.18 v 0 c -5.043,0 -8.644,-2.879 -8.644,-6.477 0,-6.48 2.882,-7.922 6.48,-8.64 v 0 l 16.484,-4.246 -10.722,-22.969 v 0 c 1.441,0.719 12.168,3.598 17.929,2.879 9.356,-1.438 17.93,-3.602 27.286,-10.082 11.445,-7.196 20.086,-21.528 22.246,-32.254 v 0 l 0.722,-17.281 v 0 c 0,-3.598 0.723,-7.125 2.157,-10.727 3.605,-7.199 12.168,-13.676 21.535,-18.648 5.039,-2.157 15.051,-4.321 20.801,-5.762 5.039,-0.719 17.207,-5.039 19.375,-1.434 v 0 l 52.414,101.157 v 0 c -1.438,0 -12.961,2.878 -16.563,4.32 -6.406,2.879 -15.051,6.48 -16.484,12.957 -2.16,5.691 4.316,13.609 11.523,11.453 7.84,0 19.363,-5.047 28.649,-5.047 7.922,-0.715 23.695,1.442 31.613,1.442 9.355,0 12.883,-14.325 7.922,-20.805 -1.449,-3.598 -7.922,-8.57 -15.129,-10.012 -4.246,-0.715 -15.047,0 -15.762,1.442 v 0 l 22.246,-50.254 v 0 c 2.157,0.718 5.039,2.16 7.922,2.882 9.285,2.157 20.086,2.875 30.098,2.157 25.125,-2.157 48.804,-14.399 66.09,-33.047 7.855,-7.918 14.328,-17.93 17.211,-28.731 0.718,-1.367 0.718,-2.808 0.718,-2.808 v 0 l 10.727,-0.715 v 0 c 0.719,0 3.601,0 4.324,-0.723 0.715,-0.718 0.715,-2.16 0.715,-3.601 v 0 -40.8909 0 c 0,-1.4414 0,-2.8828 -1.438,-3.6055 v 0 l -15.769,-3.5977 v 0 C 497.988,33.5391 465.012,6.97266 426.203,4.09375 391.063,1.93359 358.016,19.1406 339.367,49.3086 v 0" /><path
         id="path16"
         style="fill:#ffffff;fill-opacity:1;fill-rule:nonzero;stroke:none"
         d="m 159.008,84.9453 h -53.133 v 0 c 0,-7.125 -9.2891,-13.6055 -17.9297,-13.6055 -12.8867,0 -23.6875,15.0469 -17.207,25.8477 0,1.4414 1.4414,2.8825 2.1562,4.3205 v 0 l -30.164,43.055 v 0 C 1.83203,109.355 14,43.332 64.2578,24.6836 108.031,8.19531 155.41,38.3633 159.008,84.9453 v 0" /><path
         id="path18"
         style="fill:#ffffff;fill-opacity:1;fill-rule:nonzero;stroke:none"
         d="m 103.355,100.359 23.688,48.739 v 0 c 0.715,-0.719 2.156,-1.368 2.879,-2.086 8.57,-5.039 15.051,-12.957 20.09,-20.879 5.039,-8.567 7.918,-18.645 8.636,-27.9377 0.723,-1.4414 0.723,-2.875 0.723,-3.6015 v 0 l -52.418,-1.4375 v 0 c 0,0.7226 0,2.164 -0.719,4.3203 -0.722,1.4414 -2.164,2.8824 -2.879,2.8824 v 0" /><path
         id="path20"
         style="fill:#ffffff;fill-opacity:1;fill-rule:nonzero;stroke:none"
         d="m 80.2383,106.113 -30.8867,43.059 v 0 c 1.4414,0.723 2.164,1.441 3.6015,2.156 8.5664,5.043 18.6485,7.922 28.7266,9.363 10.7266,0.649 22.2503,0 32.2543,-4.32 0.726,-0.719 2.164,-1.437 2.882,-1.437 v 0 L 93.8477,106.836 v 0 c -0.7188,0 -2.8789,1.441 -6.4805,1.441 -2.1563,0 -4.9649,0 -7.1289,-2.164 v 0" /><path
         id="path22"
         style="fill:#ffffff;fill-opacity:1;fill-rule:nonzero;stroke:none"
         d="m 312.949,117.277 46.653,104.039 19.363,-42.336 v 0 c -0.711,-0.722 -2.156,-1.441 -2.871,-2.164 -11.453,-5.687 -20.809,-13.609 -29.383,-22.961 -8.633,-10.011 -16.555,-21.531 -19.438,-34.421 0,-0.719 -0.718,-2.157 -0.718,-2.875 v 0 l -13.606,0.718 v 0" /><path
         id="path24"
         style="fill:#ffffff;fill-opacity:1;fill-rule:nonzero;stroke:none"
         d="m 390.207,153.855 15.84,-37.296 v 0 c 0,0 0,-0.723 -0.727,-0.723 -2.156,0 -6.48,-5.039 -6.48,-7.922 v 0 h -45.215 v 0 c 1.441,11.453 6.48,22.969 13.609,31.609 6.477,6.411 14.399,11.45 22.973,14.332 v 0" /><path
         id="path26"
         style="fill:#ffffff;fill-opacity:1;fill-rule:nonzero;stroke:none"
         d="m 490.137,98.918 -42.332,0.7148 v 0 c 0,0.7262 -2.883,9.3632 -10.078,15.0512 -5.696,4.32 -12.891,5.039 -20.09,5.039 v 0 l -17.207,38.015 v 0 c 20.086,6.481 42.336,2.883 59.543,-9.285 17.273,-11.523 28.004,-29.449 30.164,-49.535 v 0" /><path
         id="path28"
         style="fill:#ffffff;fill-opacity:1;fill-rule:nonzero;stroke:none"
         d="m 421.164,61.332 v -5.0429 h 23.688 v -7.1953 h -78.27 v 0 c 0.723,-1.3672 1.445,-2.8086 2.16,-3.5313 18.649,-24.4062 52.422,-29.4492 80.36,-17.2812 23.683,10.082 40.246,32.332 40.964,58.1796 0,1.4414 0,2.8789 0,3.5977 v 0 h -41.687 v 0 c 0,-7.918 -2.813,-15.1211 -7.852,-20.8047 -5.039,-5.043 -12.234,-7.9219 -19.363,-7.9219 v 0" /></g></g></svg>