<?xml version="1.0" encoding="UTF-8" standalone="no"?>
<svg
   xmlns:dc="http://purl.org/dc/elements/1.1/"
   xmlns:cc="http://creativecommons.org/ns#"
   xmlns:rdf="http://www.w3.org/1999/02/22-rdf-syntax-ns#"
   xmlns:svg="http://www.w3.org/2000/svg"
   xmlns="http://www.w3.org/2000/svg"
   viewBox="0 0 58.026669 37.799999"
   height="37.799999"
   width="58.026669"
   xml:space="preserve"
   id="svg2"
   version="1.1"><metadata
     id="metadata8"><rdf:RDF><cc:Work
         rdf:about=""><dc:format>image/svg+xml</dc:format><dc:type
           rdf:resource="http://purl.org/dc/dcmitype/StillImage" /></cc:Work></rdf:RDF></metadata><defs
     id="defs6" /><g
     transform="matrix(1.3333333,0,0,-1.3333333,0,37.8)"
     id="g10"><g
       transform="scale(0.1)"
       id="g12"><path
         id="path14"
         style="fill:#231f20;fill-opacity:1;fill-rule:nonzero;stroke:none"
         d="m 328.531,165.453 c 7.129,1.871 14.617,3.313 22.254,3.313 46.582,0 84.387,-37.805 84.387,-84.3871 C 435.172,37.793 397.367,0 350.785,0 309.594,0 275.18,29.5898 267.836,68.6836 v 0 l -18.359,0.0781 v 0 c -4.461,0 -10.008,0 -14.395,1.7969 -4.687,1.5117 -8.641,4.8906 -12.098,8.2812 v 0 L 119.234,182.66 113.398,164.156 v 0 c 32.043,-12.093 55.586,-42.48 55.586,-78.7654 0,-46.582 -37.871,-84.531225 -84.4567,-84.531225 C 37.8711,0.859375 0,38.8086 0,85.3906 c 0,46.5824 37.8711,84.4534 84.5273,84.4534 4.6094,0 8.7852,-0.574 13.2461,-1.293 v 0 l 25.4216,89.203 v 0 c 1.723,5.976 4.102,13.254 8.348,17.5 4.898,5.039 13.031,8.207 22.535,8.207 v 0 h 31.11 v -16.488 h -24.915 v 0 c -4.898,0 -11.089,0 -14.402,-2.735 -3.312,-2.953 -4.391,-6.699 -5.683,-11.16 v 0 l -5.547,-18.074 h 149.113 l 5.254,15.34 -23.613,5.687 v 10.942 h 52.988 v -16.629 h -12.742 l -5.547,-15.34 28.437,-69.551 v 0" /><path
         id="path16"
         style="fill:#ffffff;fill-opacity:1;fill-rule:nonzero;stroke:none"
         d="m 334.801,148.75 c 4.969,1.223 10.222,1.871 15.625,1.871 36.504,0 66.16,-29.664 66.16,-66.1679 0,-36.5039 -29.656,-66.1718 -66.16,-66.1718 -31.035,0 -57.168,21.4531 -64.297,50.332 v 0 l 53.281,0.0703 v 0 c 6.473,0 16.336,-0.4297 20.371,5.9062 3.309,5.3985 -0.859,13.75 -2.226,17.5665 v 0 L 334.801,148.75 v 0" /><path
         id="path18"
         style="fill:#ffffff;fill-opacity:1;fill-rule:nonzero;stroke:none"
         d="M 278.422,219.164 236.012,89.3516 125.137,201.309 l 5.113,17.855 h 148.172 v 0" /><path
         id="path20"
         style="fill:#ffffff;fill-opacity:1;fill-rule:nonzero;stroke:none"
         d="M 312.914,160.055 C 285.699,146.301 266.898,118.148 266.402,85.6797 v 0 h -14.406 l 40.469,122.7583 20.449,-48.383 v 0" /><path
         id="path22"
         style="fill:#ffffff;fill-opacity:1;fill-rule:nonzero;stroke:none"
         d="m 108.723,146.801 c 24.402,-9.715 41.683,-33.547 41.683,-61.4104 0,-36.5039 -29.664,-66.1015 -66.1677,-66.1015 -36.5039,0 -66.168,29.5976 -66.168,66.1015 0,36.5044 29.6641,66.0934 66.168,66.0934 2.7383,0 5.5469,-0.144 8.207,-0.504 v 0 L 74.5898,87.6211 v 0 C 73.6563,84.5273 73.0078,78.5469 79.8477,76.6016 86.6172,74.6563 90,79.4141 91.0078,82.8711 v 0 l 17.7152,63.9299 v 0" /><path
         id="path24"
         style="fill:#ffffff;fill-opacity:1;fill-rule:nonzero;stroke:none"
         d="m 319.242,142.844 22.473,-57.1643 h -57.168 v 0 c 0,25.1953 13.894,45.9293 34.695,57.1643 v 0" /></g></g></svg>