<?xml version="1.0" encoding="UTF-8" standalone="no"?>
<svg
   xmlns:dc="http://purl.org/dc/elements/1.1/"
   xmlns:cc="http://creativecommons.org/ns#"
   xmlns:rdf="http://www.w3.org/1999/02/22-rdf-syntax-ns#"
   xmlns:svg="http://www.w3.org/2000/svg"
   xmlns="http://www.w3.org/2000/svg"
   viewBox="0 0 32.453335 37.733334"
   height="37.733334"
   width="32.453335"
   xml:space="preserve"
   id="svg2"
   version="1.1"><metadata
     id="metadata8"><rdf:RDF><cc:Work
         rdf:about=""><dc:format>image/svg+xml</dc:format><dc:type
           rdf:resource="http://purl.org/dc/dcmitype/StillImage" /></cc:Work></rdf:RDF></metadata><defs
     id="defs6" /><g
     transform="matrix(1.3333333,0,0,-1.3333333,0,37.733333)"
     id="g10"><g
       transform="scale(0.1)"
       id="g12"><path
         id="path14"
         style="fill:#231f20;fill-opacity:1;fill-rule:nonzero;stroke:none"
         d="m 158.352,254.211 c -0.668,-2.645 -1.625,-5.828 -2.825,-8.289 -2.937,-5.695 -9.004,-9.598 -15.183,-9.899 -6.906,-0.179 -12.184,6.18 -13.203,13.024 -0.602,4.437 0.179,9.781 1.437,14.101 v 0 l 29.774,-8.937 v 0" /><path
         id="path16"
         style="fill:#231f20;fill-opacity:1;fill-rule:nonzero;stroke:none"
         d="m 129.023,266.059 c 0.782,2.461 1.739,5.105 2.825,7.382 2.34,4.981 7.019,8.883 12.363,9.606 5.816,0.719 11.758,-3.063 14.219,-8.281 v 0 l 9.246,-20.645 -38.653,11.938 v 0" /><path
         id="path18"
         style="fill:#231f20;fill-opacity:1;fill-rule:nonzero;stroke:none"
         d="m 192.734,248.754 33.606,-29.649 v 0 c 2.586,-2.277 2.039,-6.781 0.781,-10.019 -1.437,-3.781 -5.695,-9.004 -8.703,-11.582 -1.016,-0.84 -2.461,-1.563 -3.66,-1.082 -1.68,0.598 -3.059,2.945 -3.84,4.562 v 0 l -4.141,8.821 v 0 c -2.156,4.32 -6.238,11.226 -8.945,15.367 v 0 L 187.09,239.75 v 0 c -0.899,0.781 -4.012,3.367 -4.856,4.266 -0.664,0.714 -1.082,1.738 -0.839,2.699 0.714,3.359 8.761,4.379 11.339,2.039 v 0" /><path
         id="path20"
         style="fill:#231f20;fill-opacity:1;fill-rule:nonzero;stroke:none"
         d="m 213.113,188.316 c -3.484,9.844 -8.218,19.926 -13.386,29.106 -3.594,6.601 -8.039,13.562 -13.321,19.328 -3.601,3.957 -8.523,7.559 -13.808,8.34 -6.055,0.961 -13.078,-2.043 -18.243,-5.402 v 0 L 93.4414,200.859 v 0 c -6.2969,2.52 -13.2031,-1.8 -13.6797,-8.519 -0.3633,-6.363 6.4219,-11.945 12.6016,-10.145 2.039,0.539 3.7812,1.739 5.1015,3.422 v 0 l 13.5582,-11.285 -27.1207,-30.426 -5.1015,-5.82 v 0 C 69.6211,145.707 58.7539,149.488 46.8125,149.25 23.0469,148.648 2.75781,130.285 0,106.641 -1.44141,94.8125 1.32422,83.6523 7.98438,73.8711 11.6445,68.4688 16.3242,63.8477 21.8477,60.3125 38.168,49.9336 60.8555,50.5273 76.8203,62.2852 92.543,74.0547 99.625,95.4141 94.4023,114.199 c -1.8007,6.246 -4.7968,12.067 -8.8789,17.106 v 0 l 11.5821,13.383 20.4605,-77.5982 29.895,-9.7851 v 0 C 141.211,25.3203 167.805,-3.42969 200.207,0 c 26.109,2.75391 45.371,26.3398 43.211,52.0898 -1.074,12.9024 -6.719,24.004 -16.563,32.5821 -9.785,8.5273 -21.601,12.4883 -34.687,11.707 v 0 l -3.543,21.9611 25.867,29.469 v 0 c 2.403,2.699 4.199,6.058 4.68,9.664 0.418,2.937 0.183,6.058 -0.293,8.996 -1.203,7.441 -3.188,14.707 -5.766,21.847 v 0" /><path
         id="path22"
         style="fill:#ffffff;fill-opacity:1;fill-rule:nonzero;stroke:none"
         d="m 177.16,171.094 -38.828,-8.281 -1.086,-10.504 -24.664,9.004 12.848,13.863 -18.008,15.004 45.676,27.066 24.062,-46.152" /><path
         id="path24"
         style="fill:#ffffff;fill-opacity:1;fill-rule:nonzero;stroke:none"
         d="m 194.609,82.8828 c 15.547,0 29.473,-10.6211 33.672,-25.207 4.141,-14.6367 -1.797,-30.8477 -14.883,-39.3047 -11.523,-7.3242 -26.648,-7.1406 -38.046,0.3008 -11.649,7.6172 -17.469,21.4844 -15.43,34.6875 v 0 l 32.644,-10.3203 v 0 c 1.926,-0.6055 4.028,-0.2461 5.649,0.957 1.922,1.375 2.82,3.7773 2.398,6.1211 v 0 l -6.004,32.7656 v 0" /><path
         id="path26"
         style="fill:#ffffff;fill-opacity:1;fill-rule:nonzero;stroke:none"
         d="m 179.875,56.9805 7.977,-2.7617 v 0 c 0.48,-0.1172 1.027,0 1.32,0.4296 0.183,0.2344 0.301,0.5977 0.242,0.8985 v 0 l -4.316,26.0469 v 0 c -4.688,-1.1446 -9.063,-3.3008 -12.785,-6.4258 -4.083,-3.3594 -7.325,-7.6758 -9.305,-12.6563 v 0 l 16.867,-5.5312 v 0" /><path
         id="path28"
         style="fill:#ffffff;fill-opacity:1;fill-rule:nonzero;stroke:none"
         d="m 155.832,135.676 11.707,-4.5 -18.43,-32.2893 6.723,36.7893" /><path
         id="path30"
         style="fill:#ffffff;fill-opacity:1;fill-rule:nonzero;stroke:none"
         d="m 176.426,147.047 -18.965,-1.984 15.012,-5.278 3.953,7.262" /><path
         id="path32"
         style="fill:#ffffff;fill-opacity:1;fill-rule:nonzero;stroke:none"
         d="m 70.4531,127.809 c -7.1992,5.882 -15.6054,8.519 -24.8437,7.742 C 27.1836,134.109 12.8984,117.969 13.7383,99.4258 14.582,81.3555 29.6445,66.5938 47.7109,66.2422 65.5313,65.8789 80.957,79.4375 83,97.1445 83.957,105.969 81.7383,114.25 76.5156,121.387 v 0 L 55.9922,98.8828 47.7109,96.6602 v 0 c -2.9453,-0.7774 -5.9414,1.2656 -6.3046,4.2618 -0.2383,2.461 1.3242,4.742 3.6601,5.402 v 0 l 6.3633,1.68 19.0234,19.805 v 0" /><path
         id="path34"
         style="fill:#ffffff;fill-opacity:1;fill-rule:nonzero;stroke:none"
         d="m 150.039,66.8477 c 2.813,7.2617 7.5,13.6211 13.496,18.6015 5.469,4.5664 12.07,7.8047 19.024,9.3633 v 0 l -2.215,14.5235 -31.086,-31.0274 v 0 c -2.403,-2.3359 -5.703,-3.4805 -9.004,-3.0586 -5.879,0.7227 -10.082,5.9414 -9.422,11.8203 v 0 l 5.879,55.4527 -30.789,11.282 -1.375,-1.321 20.281,-77.2926 25.211,-8.3437 v 0" /></g></g></svg>