<?xml version="1.0" encoding="UTF-8" standalone="no"?>
<svg
   xmlns:dc="http://purl.org/dc/elements/1.1/"
   xmlns:cc="http://creativecommons.org/ns#"
   xmlns:rdf="http://www.w3.org/1999/02/22-rdf-syntax-ns#"
   xmlns:svg="http://www.w3.org/2000/svg"
   xmlns="http://www.w3.org/2000/svg"
   viewBox="0 0 36.426666 37.799999"
   height="37.799999"
   width="36.426666"
   xml:space="preserve"
   id="svg2"
   version="1.1"><metadata
     id="metadata8"><rdf:RDF><cc:Work
         rdf:about=""><dc:format>image/svg+xml</dc:format><dc:type
           rdf:resource="http://purl.org/dc/dcmitype/StillImage" /></cc:Work></rdf:RDF></metadata><defs
     id="defs6" /><g
     transform="matrix(1.3333333,0,0,-1.3333333,0,37.8)"
     id="g10"><g
       transform="scale(0.1)"
       id="g12"><path
         id="path14"
         style="fill:#231f20;fill-opacity:1;fill-rule:nonzero;stroke:none"
         d="M 174.816,81.3594 C 169.699,73.2227 166.027,63.6445 166.027,53.3516 166.027,23.8984 190.012,0 219.602,0 c 29.589,0 53.562,23.8984 53.562,53.3516 0,29.4414 -23.973,53.3474 -53.562,53.3474 -9.368,0 -18.079,-2.375 -25.704,-6.551 v 0 l -9.152,14.688 14.043,28.656 h 9.219 v 8.785 h -28.516 l -0.144,-8.785 h 10.437 l -8.347,-17.347 h -3.594 v 0 c -2.09,-0.223 -6.27,12.234 -12.824,37.582 -5.469,21.168 -5.106,61.554 -19.364,71.062 -6.34,4.176 -10.801,6.695 -14.039,8.641 -6.84,3.886 -4.824,7.777 -4.32,9.644 8.348,19.297 -4.324,30.965 -13.106,30.387 -10.078,-0.793 -17.5699,-8.496 -17.066,-16.273 0.5742,-8.86 -6.0469,-18.145 -5.1094,-18.649 1.8711,-1.078 6.1914,-2.305 6.6953,-3.816 2.1601,-6.192 3.8121,-8.711 7.2691,-8.711 3.243,0 3.821,1.222 6.77,0.648 0.504,-0.074 1.441,-3.887 1.227,-4.176 -0.653,-0.722 -5.254,-5.976 -12.532,-24.121 -0.789,-2.015 -4.1012,-13.39 -4.5348,-14.183 -0.2149,-0.43 -2.5938,-7.992 -7.7735,-18.434 -0.3633,-1.004 -7.3437,-11.305 -7.9922,-12.957 -0.5781,-1.441 -9.3632,-14.113 -11.3047,-14.184 -2.8828,-0.144 -3.3828,-3.171 -3.5312,-4.464 -0.0664,-2.305 0.2891,-4.176 0.2891,-4.684 0,-0.285 2.4492,-3.383 2.5937,-3.812 0.2149,-0.649 2.5899,2.23 3.168,2.015 1.7265,-0.863 16.1992,-6.625 16.1289,-6.84 -0.3633,-1.656 -12.0977,-28.656 -12.8203,-28.371 -4.3867,1.442 -8.6367,4.25 -22.0313,4.684 C 24.1172,107.133 0,83.0859 0,53.5664 0,24.1914 24.1172,0.136719 53.6367,0.136719 c 29.5235,0 53.6443,24.054681 53.6443,53.429681 0,18.9336 -9.8669,35.4961 -24.699,45.1445 v 0 l 5.7618,7.1951 36.3592,-34.3435 0.215,-0.1445 v 0 C 126.43,9.93359 100.941,18.7227 99.4297,11.3008 98.9258,8.49609 97.9219,8.56641 133.059,10.5742 c 1.652,0.0781 6.765,22.9024 11.804,42.1289 v 0 l 7.559,-6.1992 18.293,38.1641 4.101,-3.3086 v 0" /><path
         id="path16"
         style="fill:#ffffff;fill-opacity:1;fill-rule:nonzero;stroke:none"
         d="m 157.715,97.8359 6.711,-7.5234 -14.785,-30.4102 -1.973,1.9063 10.047,36.0273" /><path
         id="path18"
         style="fill:#ffffff;fill-opacity:1;fill-rule:nonzero;stroke:none"
         d="M 72.6406,95.1602 49.7461,55.3516 55.6484,51.6094 79.1211,91.4883 v 0 C 91.4297,83.3594 99.4258,69.6094 99.4258,53.7695 99.4258,28.7891 79.0469,8.41797 54.0664,8.41797 29.0859,8.41797 8.71094,28.7891 8.71094,53.7695 c 0,24.9805 20.37496,45.3516 45.35546,45.3516 6.6211,0 12.8867,-1.4414 18.5742,-3.9609 v 0" /><path
         id="path20"
         style="fill:#ffffff;fill-opacity:1;fill-rule:nonzero;stroke:none"
         d="m 91.7969,114.535 1.3594,3.379 32.6097,-0.266 -0.012,-35.1363 -33.9571,32.0233" /><path
         id="path22"
         style="fill:#ffffff;fill-opacity:1;fill-rule:nonzero;stroke:none"
         d="m 125.059,126.57 -28.5043,0.016 3.4763,8.922 -22.7068,9.308 5.0352,2.024 0.1992,0.125 0.207,0.125 v 0 c 5.375,3.301 10.0039,7.633 14.1719,12.348 v 0 l 0.5586,0.625 v 0 c 5.1759,5.855 9.7269,12.218 14.0429,18.722 v 0 l 0.785,1.188 0.715,1.187 12.02,-54.59 v 0" /><path
         id="path24"
         style="fill:#ffffff;fill-opacity:1;fill-rule:nonzero;stroke:none"
         d="m 215.5,20.5977 14.031,31.9609 v 0 c -1.074,0.1445 -2.734,2.668 -3.093,3.1641 v 0 l -28.586,37.5781 v 0 c 6.632,3.5976 13.976,5.6836 22.031,5.6836 25.273,0 45.793,-20.4375 45.793,-45.6328 0,-25.1993 -20.52,-45.63676 -45.793,-45.63676 -25.262,0 -45.781,20.43746 -45.781,45.63676 0,8.3476 2.226,16.1211 6.113,22.8203 0,0 0.078,0 0.148,0 v 0 l 22.606,-21.8164 v 0 c 3.379,-2.7344 5.832,-8.5625 6.406,-11.0157 1.945,-8.2734 -2.449,-25.2656 2.012,-25.5468 3.672,-0.293 3.32,1.0078 4.113,2.8047 v 0" /></g></g></svg>