<?xml version="1.0" encoding="UTF-8" standalone="no"?>
<svg
   xmlns:dc="http://purl.org/dc/elements/1.1/"
   xmlns:cc="http://creativecommons.org/ns#"
   xmlns:rdf="http://www.w3.org/1999/02/22-rdf-syntax-ns#"
   xmlns:svg="http://www.w3.org/2000/svg"
   xmlns="http://www.w3.org/2000/svg"
   viewBox="0 0 19.773333 37.799999"
   height="37.799999"
   width="19.773333"
   xml:space="preserve"
   id="svg2"
   version="1.1"><metadata
     id="metadata8"><rdf:RDF><cc:Work
         rdf:about=""><dc:format>image/svg+xml</dc:format><dc:type
           rdf:resource="http://purl.org/dc/dcmitype/StillImage" /></cc:Work></rdf:RDF></metadata><defs
     id="defs6" /><g
     transform="matrix(1.3333333,0,0,-1.3333333,0,37.8)"
     id="g10"><g
       transform="scale(0.1)"
       id="g12"><path
         id="path14"
         style="fill:#231f20;fill-opacity:1;fill-rule:nonzero;stroke:none"
         d="M 13.5313,0 H 10.8711 V 0 0 C 7.70703,0 5.1875,2.51953 5.1875,5.68359 c 0,0.9375 0.21484,1.79688 0.64453,2.58985 v 0 L 56.7109,108.086 v 7.559 0 h 45.4141 l -0.078,-7.559 46.269,-90.8204 v -9.63669 0 c 0,-4.17969 -3.378,-7.5585975 -7.55,-7.5585975 v 0 L 139.398,0 v 0 0 0 0 0 0 0 c -2.156,0 -4.101,1.28906 -5.039,3.16406 v 0 L 86.1484,97.7969 v 0 c -1.2304,2.4491 -3.8867,4.1051 -6.7695,4.1051 -2.9531,0 -5.5391,-1.73 -6.7656,-4.1754 v 0 L 27.0625,8.27344 v 0 C 24.543,3.37891 19.4336,0 13.5313,0 v 0" /><path
         id="path16"
         style="fill:#231f20;fill-opacity:1;fill-rule:nonzero;stroke:none"
         d="M 1.07813,133.555 C 0.433594,132.617 0,131.465 0,130.246 c 0,-1.875 0.9375,-3.598 2.44531,-4.609 2.16016,-1.512 4.75391,-2.375 7.55859,-2.375 4.5313,0 8.4922,2.23 10.8672,5.617 v 0 l 35.7656,51.094 0.0742,-56.711 h 45.4021 l -0.066,71.89 26.766,-26.769 v -37.781 0 0 0 0 0 c 0,-2.086 1.73,-3.813 3.82,-3.813 v 0 0 h -0.078 v 0 0 0 c 8.347,0 15.117,6.766 15.117,15.113 v 0 26.481 0 c 0,5.183 -2.09,9.933 -5.469,13.312 v 0 l -40.879,40.879 v 0 c -4.824,4.821 -11.367,7.77 -18.7107,7.77 -8.9219,0 -16.836,-4.461 -21.6602,-11.301 v 0 L 1.07813,133.555 v 0" /><path
         id="path18"
         style="fill:#231f20;fill-opacity:1;fill-rule:nonzero;stroke:none"
         d="m 89.6914,260.785 c 0,12.535 -10.2226,22.692 -22.7422,22.692 -12.5195,0 -22.6679,-10.157 -22.6679,-22.684 0,-12.535 10.1484,-22.691 22.6679,-22.691 12.5196,0 22.7422,10.156 22.7422,22.683 v 0" /></g></g></svg>