<?xml version="1.0" encoding="UTF-8" standalone="no"?>
<svg
   xmlns:dc="http://purl.org/dc/elements/1.1/"
   xmlns:cc="http://creativecommons.org/ns#"
   xmlns:rdf="http://www.w3.org/1999/02/22-rdf-syntax-ns#"
   xmlns:svg="http://www.w3.org/2000/svg"
   xmlns="http://www.w3.org/2000/svg"
   viewBox="0 0 85.946671 37.799999"
   height="37.799999"
   width="85.946671"
   xml:space="preserve"
   id="svg2"
   version="1.1"><metadata
     id="metadata8"><rdf:RDF><cc:Work
         rdf:about=""><dc:format>image/svg+xml</dc:format><dc:type
           rdf:resource="http://purl.org/dc/dcmitype/StillImage" /></cc:Work></rdf:RDF></metadata><defs
     id="defs6" /><g
     transform="matrix(1.3333333,0,0,-1.3333333,0,37.8)"
     id="g10"><g
       transform="scale(0.1)"
       id="g12"><path
         id="path14"
         style="fill:#231f20;fill-opacity:1;fill-rule:nonzero;stroke:none"
         d="m 644.621,42.4805 -2.883,-3.6016 H 587.09 l 2.16,3.6016 h 55.371" /><path
         id="path16"
         style="fill:#231f20;fill-opacity:1;fill-rule:nonzero;stroke:none"
         d="M 623.016,3.60156 620.859,0 H 0 L 2.16406,3.60156 H 623.016" /><path
         id="path18"
         style="fill:#231f20;fill-opacity:1;fill-rule:nonzero;stroke:none"
         d="M 385.637,182.809 H 140.332 v 0 c 0,0.714 0,1.441 0,2.156 0,2.164 0.719,4.324 2.16,6.48 0.715,1.442 2.156,2.883 2.879,3.606 1.442,1.433 2.156,2.156 3.598,2.875 1.441,0.722 2.883,0.722 4.324,1.441 0.715,0 1.437,0 2.156,0 v 0 h 215.137 v 0 c 0.723,0 2.883,0 3.602,0 2.882,-0.719 5.687,-2.16 7.128,-4.316 1.438,-1.442 2.872,-3.606 3.598,-5.762 0,-1.441 0.723,-2.883 0.723,-4.324 0,-0.715 0,-1.442 0,-2.156 v 0" /><path
         id="path20"
         style="fill:#231f20;fill-opacity:1;fill-rule:nonzero;stroke:none"
         d="m 24.4805,42.4805 h 52.4883 l 2.164,-3.6016 H 21.6016 l 2.8789,3.6016" /><path
         id="path22"
         style="fill:#231f20;fill-opacity:1;fill-rule:nonzero;stroke:none"
         d="M 568.371,157.605 H 94.9727 v 0 c 0,0.719 0.7148,1.442 0.7148,1.442 1.4414,2.883 2.8828,5.039 4.3245,7.199 1.437,2.164 3.597,4.32 5.758,5.762 2.878,2.156 6.48,4.32 10.078,5.762 2.882,1.441 5.761,2.156 8.64,2.156 v 0 h 3.602 279.859 v 7.922 l -61.914,40.965 87.051,38.16 v 12.965 h -4.324 -1.371 v 0 h -0.719 c -0.715,-0.723 -0.715,-0.723 -0.715,-1.442 v -0.723 -0.718 0 h -2.879 v 2.883 0 c 0,0 0,0.714 0.711,0.714 0,0.727 0,1.442 0.723,1.442 0,0.719 0.722,0.719 0.722,0.719 0.723,0.722 0.723,0.722 1.438,0.722 v 0 h 1.367 13.68 v 0 h 0.722 c 0.723,-0.722 1.438,-0.722 1.438,-0.722 0.719,-0.719 0.719,-0.719 1.445,-1.434 v -0.727 c 0,-0.714 0,-0.714 0,-0.714 v 0 -2.883 h -2.16 v 0 0.718 c 0,0.723 0,0.723 -0.723,1.442 0,0 0,0 0,0.723 0,0 -0.722,0 -1.433,0 v 0 h -0.723 -4.328 v -12.965 l 90.652,-39.598 -61.132,-39.527 v -7.922 h 64.73 3.602 v 0 c 2.16,0 5.039,-0.715 7.199,-1.442 v 0 l 6.484,-1.437 v 0 c 0,0 0.723,-0.719 1.434,-0.719 v 0 l 0.722,3.598 h 10.801 v 0 c 0.723,0 1.446,0 1.446,-0.715 0.71,0 0.71,0 1.437,-0.727 0,0 0.723,0 0.723,-0.714 v -0.723 0 -12.961 0 l 0.711,-0.715 v 0 l 1.445,-2.164 v 0 c 0.723,-0.719 1.434,-1.441 1.434,-2.16 0,-0.723 0.726,-0.723 0.726,-1.442 v 0" /><path
         id="path24"
         style="fill:#231f20;fill-opacity:1;fill-rule:nonzero;stroke:none"
         d="M 92.8828,150.336 H 570.605 l 3.594,-12.891 h -8.633 l 10.789,-40.3161 v 0 c 0,-0.7226 0.727,-1.4414 0.727,-2.1641 v -2.1562 0 l 0.723,-3.5977 v -2.8828 l 1.433,-30.957 5.696,-1.4453 V 43.918 l -4.973,-1.4375 v -4.3282 l -13.684,-2.8671 v 0 c 0,-0.7266 -0.711,-0.7266 -0.711,-0.7266 -0.722,0 -0.722,-0.7188 -0.722,-0.7188 -0.723,-0.7226 -0.723,-1.4375 0,-1.4375 0,-0.7226 0,-0.7226 0.722,-1.4453 0,0 0.711,0 1.438,0 v 0 h 12.957 l 4.973,-2.8789 h 11.511 1.446 v 0 c 0,0 0.722,0 0.722,0.7227 0,0 0.715,0 0.715,0.7187 v 0.7149 l 0.723,0.7226 h 0.719 c 0.726,0 0.726,0 0.726,0 v 0 -7.9179 0 c 0,0 0,0 -0.726,0 0,0 0,0 -0.719,0 0,0 0,0.7226 -0.723,0.7226 0,0.7188 0,0.7188 0,1.4336 0,0 0,0.7227 -0.715,0.7227 v 0 c -0.722,0 -0.722,0 -1.445,0 v 0 h -41.691 v 0 -0.7227 c 0,-0.7148 0,-1.4336 0,-2.1562 -0.711,-0.7266 -1.434,-1.4375 -1.434,-1.4375 -0.723,-0.7227 -0.723,-0.7227 -1.445,-0.7227 -0.711,-0.7226 -0.711,-0.7226 -1.434,-0.7226 -0.726,0 -0.726,0 -1.445,0 v 0 h -8.633 v 0 c 0,-0.7149 0,-1.4336 -0.727,-1.4336 0,-2.1602 -0.718,-4.3282 -1.433,-6.4883 -0.723,-2.1563 -2.879,-4.31252 -4.328,-5.75784 -2.879,-1.4375 -6.473,-2.875 -10.078,-2.875 -4.313,0 -8.641,2.16016 -11.52,5.03907 -2.16,2.88277 -4.316,5.75387 -4.316,9.35937 0,0.7227 0,1.4414 0,2.1563 v 0 h -35.207 v 0 c 0,-0.7149 0,-2.1563 -0.723,-2.8829 0,-2.8789 -2.156,-6.4726 -4.316,-8.63277 -2.879,-2.87891 -7.208,-4.32422 -10.801,-5.03907 -5.039,0 -9.367,2.16016 -12.957,5.03907 -2.168,2.88277 -3.606,5.75387 -3.606,9.35937 0,0 0,1.4414 0,2.1563 v 0 h -10.801 v 0 c -0.722,0 -0.722,0 -1.433,0 -0.723,0.7226 -1.449,0.7226 -2.168,1.4453 -0.715,0.7109 -0.715,0.7109 -1.438,1.4375 0,0.7226 0,1.4414 -0.722,1.4414 0,0.7148 0,1.4375 0,1.4375 v 0 H 239.621 v -1.4375 0 c 0,0 0,-1.4414 -0.726,-1.4414 0,-0.7266 0,-1.4375 -0.715,-1.4375 0,-0.7227 -0.723,-0.7227 -1.442,-1.4453 -0.722,0 -1.441,0 -2.156,0 v 0 h -7.203 v 0 c 0,-0.7149 0,-1.4336 0,-2.1563 -0.719,-3.6055 -2.16,-7.1992 -5.039,-9.35937 -2.883,-2.87891 -7.203,-5.03907 -10.801,-5.03907 -4.32,0 -8.57,2.16016 -11.449,4.32032 -2.16,2.87892 -3.602,5.03902 -4.32,8.64062 0,0.7109 -0.719,2.1602 -0.719,3.5938 v 0 H 159.77 v 0 c 0,-0.7149 0,-2.1563 -0.723,-2.8829 0,-2.8789 -1.442,-6.4726 -4.317,-8.63277 -2.878,-2.87891 -7.203,-4.32422 -11.523,-5.03907 -4.316,0 -8.637,2.16016 -11.519,5.03907 -2.157,2.88277 -3.598,5.04297 -3.598,8.63277 0,0.7266 0,2.168 0,2.8829 v 0 h -18 v 0 c -0.719,0 -1.367,0 -2.086,0 -0.723,0.7226 -1.441,0.7226 -1.441,1.4453 -0.723,0 -1.442,0.7109 -2.165,1.4375 0,0.7226 0,1.4414 0,2.1562 v 0.7227 0 H 68.4023 66.9648 v 0 c -0.7226,0 -0.7226,0 -1.4414,-0.7227 0,0 0,0 0,-0.7148 v 0 l -0.7226,-0.7188 v 0 L 64.082,23.0391 c -0.7187,0 -0.7187,0 -0.7187,0 -0.7227,0 -1.4375,0 -2.1602,0 v 0 l 0.7227,7.9179 v 0 c 0,0 0.7148,0 1.4375,0 l 0.7187,-0.7226 0.7188,-0.7149 c 0,0 0.7226,-0.7187 1.4414,-0.7187 v 0 0 h 12.9609 l 3.6016,2.1562 h 21.5933 v 3.6016 l -17.273,2.1602 0.7188,5.7617 -5.0391,1.4375 v 10.0078 l 5.0391,1.4453 5.039,94.9649 v 0" /><path
         id="path26"
         style="fill:#ffffff;fill-opacity:1;fill-rule:nonzero;stroke:none"
         d="m 458.348,179.211 h -43.192 v 8.637 h 43.192 v -8.637 0" /><path
         id="path28"
         style="fill:#ffffff;fill-opacity:1;fill-rule:nonzero;stroke:none"
         d="m 515.168,227.375 -53.938,-33.84 h -50.398 l -54.648,34.563 78.406,36.644 80.578,-37.367 v 0" /><path
         id="path30"
         style="fill:#ffffff;fill-opacity:1;fill-rule:nonzero;stroke:none"
         d="M 120.961,92.8828 H 97.9219 v 0 h -0.7188 c -0.7226,0 -1.4414,0.7149 -2.1601,0.7149 -0.7227,0.7226 -0.7227,1.4414 -1.4414,2.1601 0,0.7227 0,1.4453 0,2.1641 v 0 l 3.6015,44.5621 v 0 0.723 c 0,0.719 0.7188,1.441 0.7188,2.16 0.7187,0.723 1.4375,1.442 2.1601,1.442 h 0.719 v 0 h 19.445 v 0 c 0.715,0 1.434,0 2.156,0 0.719,0 0.719,-0.719 1.442,-0.719 0.715,-0.723 0.715,-1.442 0.715,-2.164 0.726,-0.719 0.726,-0.719 0.726,-1.442 v 0 -43.8473 0 c 0,-0.7148 0,-1.4336 0,-2.1562 -0.726,-0.7227 -0.726,-1.4414 -1.441,-2.1602 0,-0.7226 -0.723,-0.7226 -1.442,-1.4375 0,0 -0.722,0 -1.441,0 v 0" /><path
         id="path32"
         style="fill:#ffffff;fill-opacity:1;fill-rule:nonzero;stroke:none"
         d="M 168.41,38.8789 H 133.848 V 146.809 h 34.562 v -107.9301 0" /><path
         id="path34"
         style="fill:#ffffff;fill-opacity:1;fill-rule:nonzero;stroke:none"
         d="m 211.609,38.8789 h -36 V 146.809 h 36 v -107.9301 0" /><path
         id="path36"
         style="fill:#ffffff;fill-opacity:1;fill-rule:nonzero;stroke:none"
         d="m 290.664,92.8828 h -63.285 v 0 h -1.441 c -0.719,0 -1.442,0.7149 -2.161,0.7149 0,0.7226 -0.718,1.4414 -0.718,2.1601 0,0.7227 -0.719,0.7227 -0.719,1.4453 v 0 45.2809 0 c 0,0 0.719,0.723 0.719,1.442 0,0.722 0.718,1.441 1.437,2.164 0.723,0 1.442,0.719 2.164,0.719 0.719,0 1.438,0 1.438,0 v 0 h 61.125 v 0 h 1.441 c 1.441,0 2.164,0 2.883,-0.719 0.719,-0.723 1.437,-2.164 1.437,-2.883 0,-0.723 0,-0.723 0,-1.441 v 0 -43.8441 0 c 0,-0.7188 0,-1.4414 0,-1.4414 0,-0.7227 -0.718,-1.4414 -0.718,-2.1602 -0.719,-0.7226 -1.438,-1.4375 -2.161,-1.4375 -0.718,0 -0.718,0 -1.441,0 v 0" /><path
         id="path38"
         style="fill:#ffffff;fill-opacity:1;fill-rule:nonzero;stroke:none"
         d="m 366.191,92.8828 h -60.406 v 0 c -0.722,0 -1.437,0 -1.437,0 -0.719,0 -2.16,0.7149 -2.16,1.4375 -0.723,0.7188 -1.442,1.4375 -1.442,2.1602 0,0.7226 0,0.7226 0,1.4414 v 0 43.8441 0 c 0,0 0,0.718 0,1.441 0,0.719 0.719,1.441 1.442,2.16 0.718,0.723 1.441,1.442 2.16,1.442 0,0 1.437,0 2.156,0 v 0 h 59.687 v 0 c 0.723,0 1.446,0 2.157,0 0.726,0 2.168,-0.719 2.882,-1.442 0,-0.719 0.723,-1.441 0.723,-2.883 v -1.437 0 -43.1251 0 c 0,-0.7188 0,-1.4414 0,-2.1641 -0.723,-0.7187 -1.437,-1.4375 -2.156,-2.1601 -0.723,-0.7149 -1.449,-0.7149 -2.16,-0.7149 -0.723,0 -1.446,0 -1.446,0 v 0" /><path
         id="path40"
         style="fill:#ffffff;fill-opacity:1;fill-rule:nonzero;stroke:none"
         d="m 443.23,92.8828 h -60.406 v 0 c -0.715,0 -1.437,0 -1.437,0 -0.723,0 -2.16,0 -2.879,0.7149 0,0.7226 -0.723,1.4414 -0.723,2.8828 0,0 -0.715,0.7226 -0.715,1.4414 v 0 43.8441 0 c 0,0.718 0.715,1.441 0.715,2.16 0,0.722 0.723,1.441 1.442,2.164 0.714,0.719 2.16,0.719 2.882,0.719 h 1.438 v 0 h 59.683 v 0 c 0.727,0 2.161,0 2.161,0 0.722,0 1.445,-0.719 2.16,-1.442 0,0 0.719,-0.719 0.719,-1.441 0,-0.719 0,-1.442 0,-2.16 v 0 -43.1293 0 -1.4336 c 0,-1.4453 -0.719,-2.164 -0.719,-2.8828 -0.715,-0.7226 -1.438,-0.7226 -2.16,-1.4375 -0.711,0 -1.434,0 -2.161,0 v 0" /><path
         id="path42"
         style="fill:#ffffff;fill-opacity:1;fill-rule:nonzero;stroke:none"
         d="M 518.039,38.8789 H 467.715 V 146.809 h 50.324 v -107.9301 0" /><path
         id="path44"
         style="fill:#ffffff;fill-opacity:1;fill-rule:nonzero;stroke:none"
         d="m 566.277,92.8828 h -36.718 v 0 c -0.719,0 -0.719,0 -1.434,0 -0.723,0 -1.445,0.7149 -1.445,1.4375 -0.723,0 -1.434,0.7188 -1.434,1.4375 0,0.7227 0,0.7227 0,1.4453 v 0 26.6369 0 c 0,0.719 0,1.437 0,2.16 0,2.16 1.434,3.602 2.156,5.758 1.438,1.441 2.883,2.883 4.317,4.32 2.16,0.719 4.328,1.442 6.484,1.442 0.723,0.718 1.438,0.718 2.156,0.718 v 0 h 14.407 v 0 c 0.711,0 2.16,-0.718 2.879,-0.718 0.714,0 1.437,0 2.16,-0.723 0,-0.719 0.711,-0.719 0.711,-1.438 0.726,-0.718 0.726,-2.16 1.449,-2.16 v 0 l 8.64,-32.398 v 0 c 0,-0.723 0,-2.1643 0,-2.8791 0.711,-0.7188 0,-1.4414 0,-2.8828 -0.722,-0.7188 -1.445,-1.4414 -2.167,-1.4414 -0.715,-0.7149 -1.434,-0.7149 -2.161,-0.7149 v 0" /></g></g></svg>