<?xml version="1.0" encoding="UTF-8" standalone="no"?>
<svg
   xmlns:dc="http://purl.org/dc/elements/1.1/"
   xmlns:cc="http://creativecommons.org/ns#"
   xmlns:rdf="http://www.w3.org/1999/02/22-rdf-syntax-ns#"
   xmlns:svg="http://www.w3.org/2000/svg"
   xmlns="http://www.w3.org/2000/svg"
   viewBox="0 0 58.773335 37.799999"
   height="37.799999"
   width="58.773335"
   xml:space="preserve"
   id="svg2"
   version="1.1"><metadata
     id="metadata8"><rdf:RDF><cc:Work
         rdf:about=""><dc:format>image/svg+xml</dc:format><dc:type
           rdf:resource="http://purl.org/dc/dcmitype/StillImage" /></cc:Work></rdf:RDF></metadata><defs
     id="defs6" /><g
     transform="matrix(1.3333333,0,0,-1.3333333,0,37.8)"
     id="g10"><g
       transform="scale(0.1)"
       id="g12"><path
         id="path14"
         style="fill:#231f20;fill-opacity:1;fill-rule:nonzero;stroke:none"
         d="m 174.879,139.57 c -0.184,9.575 -0.184,42.055 0.035,49.547 -22.976,-3.062 -60.402,-9.144 -95.3476,-19.73 -16.8984,-5.114 -31.3867,-9.871 -39.8008,-15.739 -12.0078,-8.316 -15.2773,-18.437 -16.4648,-24.339 13.4805,12.816 31.6367,20.742 51.625,20.742 22.4023,0 42.6092,-9.903 56.3402,-25.574 v 0 0 l 43.613,15.093 v 0 0 0 m 9.922,50.774 c -0.071,-0.258 -0.071,-0.578 -0.071,-0.899 -0.468,-23.375 0.145,-39.722 0.465,-46.308 v 0 0 l 7.59,2.699 v 0 0 c -0.035,7.019 -0.183,35 -0.183,39.32 0,1.407 0.214,3.637 0.613,6.157 -2.086,-0.254 -4.922,-0.5 -8.414,-0.969 v 0 0 0 0 0 m 49.828,25.492 v 0 0 0 c 0.684,0.789 1.98,0.898 2.883,0.18 v 0 0 l 27.898,-22.578 v 0 0 c 0.899,-0.684 1.074,-1.985 0.43,-2.809 v 0 0 0 0 0 c -0.684,-0.828 -1.945,-0.863 -2.84,-0.18 v 0 0 l -10.859,8.785 v 0 0 c -1.118,0.434 -2.336,0.434 -3.196,-0.933 -1.875,-3.028 -10.968,-15.344 -10.968,-15.344 0,0 -0.758,-1.332 -0.184,-2.555 0.547,-1.297 1.23,-3.781 -0.574,-5.507 -1.653,-1.516 -26.785,-25.93 -31.852,-30.434 v 0 0 l 0.145,-15.012 h 41.09 v 0 0 c 1.191,3.672 4.57,12.352 12.375,23.696 10.457,15.195 31.316,36.152 66.043,44.293 v 0 0 l -15.5,77.597 v 0 0 c 0,0 -40.731,-0.972 -58.348,-2.305 -17.617,-1.367 -18.984,-1.367 -20.711,-1.835 -1.867,-0.543 -4.199,-1.301 -6.004,-5.692 -1.797,-4.32 -18.332,-36.66 -22.684,-64.242 -0.394,-2.52 8.016,11.309 12.836,15.055 1.039,0.863 2.766,1.476 4.493,1.047 1.691,-0.469 3.273,-2.274 3.558,-4.11 0.184,-1.801 2.121,-12.496 2.121,-12.496 0,0 0.254,-3.203 0.934,-3.883 0.613,-0.617 5.398,-7.351 5.398,-7.351 0,0 1.075,-0.684 2.012,0.109 0.898,0.793 12.871,12.715 12.871,12.715 0,0 0.82,0.609 0.469,1.762 v 0 0 l -11.399,9.179 v 0 0 c -0.894,0.723 -1.082,1.985 -0.437,2.848 v 0 0 0 0 m 183.973,-61.793 c 13.812,-16.273 22.191,-37.27 22.191,-60.2071 0,-51.4531 -41.926,-93.445275 -93.305,-93.445275 -41.843,0 -77.41,27.832075 -89.195,66.007775 v 0 0 H 149.352 v 0 0 C 145.074,29.0938 113.293,0 74.9258,0 33.6523,0 0,33.6992 0,75.0391 c 0,19.375 7.375,37.0549 19.4883,50.4139 1.0781,6.121 3.7031,15.879 9.707,23.043 9.3828,11.234 31.0977,17.434 49.7266,23.695 15.1367,5.039 62.5941,15.52 96.1721,20.059 0.504,7.559 2.371,29.668 10.859,50.305 9.457,22.937 14.633,28.699 12.508,35.433 -2.152,6.735 4.894,3.707 6.437,1.871 1.512,-1.871 5.18,-6.734 0.614,-15.879 -4.387,-8.75 -18.801,-40.761 -20.637,-70.542 3.234,0.363 6.184,0.609 8.809,0.722 1.004,5.649 2.371,11.879 2.875,14.688 0.898,4.757 10.894,35.359 16.578,48.183 5.601,12.785 4.851,11.09 4.851,11.09 0,0 3.02,11.488 17.832,12.207 14.844,0.649 37.102,2.664 52.063,3.133 14.922,0.469 48.355,-0.359 63.496,-1.906 15.055,-1.657 14.344,-1.047 17.176,-5.836 2.84,-4.75 2.84,-4.75 2.84,-4.75 0,0 8.164,-19.633 12.628,-33.742 4.348,-14.082 9.485,-36.082 10.032,-39.723 0.574,-3.598 -0.762,-6.012 2.261,-7.379 3.086,-1.332 19.414,-7.816 29.262,-15.23 9.852,-7.344 10.684,-7.672 10.965,-8.606 0.359,-0.902 1.301,-1.84 -2.332,-3.316 -3.34,-1.332 -9.602,-4.5 -15.609,-8.93 v 0 0 0 0 0 M 74.9258,33.875 c 22.6172,0 41.0582,18.5195 41.0582,41.1641 0,22.6523 -18.441,41.1209 -41.0582,41.1209 -22.6133,0 -41.0586,-18.4686 -41.0586,-41.1209 0,-22.6446 18.4453,-41.1641 41.0586,-41.1641 v 0 0 0 0 m 272.5622,8.3633 c 28.403,0 51.528,23.1523 51.528,51.5976 0,28.4101 -23.125,51.5311 -51.528,51.5311 -28.394,0 -51.59,-23.121 -51.59,-51.5311 0,-28.4453 23.196,-51.5976 51.59,-51.5976 v 0 0 0 0 m -73.23,117.4607 c 0,0 23.801,31.649 72.976,34.063 49.223,2.375 80.579,-23.438 84.926,-28.231 v 0 0 l -8.273,-4.394 v 0 0 c -0.324,-0.18 -22.93,26.07 -71.035,27.402 -37.176,1.012 -65.118,-17.031 -76.797,-28.809 -1.836,-1.867 -1.797,-0.031 -1.797,-0.031 v 0 0 0 0 m 49.758,114.906 16.394,-74.648 v 0 0 c 0,0 14.988,1.941 39.688,-1.406 0,0 3.593,0 2.91,4.429 -0.684,4.391 -6.035,41.301 -20.098,66.258 0,0 -0.789,2.594 -6.433,3.313 -5.645,0.648 -19.914,1.726 -32.461,2.054 v 0 0 0 0 M 74.9258,59.8047 c 8.414,0 15.2461,6.8867 15.2461,15.2344 0,8.4297 -6.8321,15.2343 -15.2461,15.2343 -8.3711,0 -15.2031,-6.8046 -15.2031,-15.2343 0,-8.3477 6.832,-15.2344 15.2031,-15.2344 v 0 0 0 0 M 347.488,78.6055 c 8.383,0 15.18,6.8437 15.18,15.2304 0,8.3911 -6.797,15.2661 -15.18,15.2661 -8.445,0 -15.242,-6.875 -15.242,-15.2661 0,-8.3867 6.797,-15.2304 15.242,-15.2304 v 0 0 0 0" /></g></g></svg>