<?xml version="1.0" encoding="UTF-8" standalone="no"?>
<svg
   xmlns:dc="http://purl.org/dc/elements/1.1/"
   xmlns:cc="http://creativecommons.org/ns#"
   xmlns:rdf="http://www.w3.org/1999/02/22-rdf-syntax-ns#"
   xmlns:svg="http://www.w3.org/2000/svg"
   xmlns="http://www.w3.org/2000/svg"
   viewBox="0 0 89.773331 37.786667"
   height="37.786667"
   width="89.773331"
   xml:space="preserve"
   id="svg2"
   version="1.1"><metadata
     id="metadata8"><rdf:RDF><cc:Work
         rdf:about=""><dc:format>image/svg+xml</dc:format><dc:type
           rdf:resource="http://purl.org/dc/dcmitype/StillImage" /></cc:Work></rdf:RDF></metadata><defs
     id="defs6" /><g
     transform="matrix(1.3333333,0,0,-1.3333333,0,37.786667)"
     id="g10"><g
       transform="scale(0.1)"
       id="g12"><path
         id="path14"
         style="fill:#231f20;fill-opacity:1;fill-rule:nonzero;stroke:none"
         d="M 30.6016,145.797 214.879,174.352 H 571.777 L 673.34,148.961 v -44.16 H 662.762 V 97.9648 L 587.313,10.1445 v 0 C 586.094,8.77734 584.219,7.19531 582.785,6.04688 580.84,4.46484 578.68,3.01563 576.309,2.08984 574.297,1.30078 571.922,0.792969 569.766,0.429688 569.188,0.359375 566.602,0 566.023,0 V 0 H 152.949 v 0 c -1.582,0 -4.39,0 -5.972,0 -2.805,0.144531 -6.329,0.429688 -8.848,1.58203 -2.297,0.9375 -4.891,3.09375 -6.688,4.7461 -0.074,0.07812 -4.027,3.73827 -4.097,3.81637 v 0 L 43.4766,88.9023 v 9.0625 h -12.875 v 47.8322 0" /><path
         id="path16"
         style="fill:#231f20;fill-opacity:1;fill-rule:nonzero;stroke:none"
         d="m 30.6406,232.723 v -6.543 l 278.2854,14.027 v 16.324 l 50.996,26.907 h 133.211 l 47.113,-25.68 v -74.227 h -231.32 v 21.36 L 30.6406,202.012 v -7.77 H 0 v 38.481 h 30.6406" /><path
         id="path18"
         style="fill:#ffffff;fill-opacity:1;fill-rule:nonzero;stroke:none"
         d="m 109.148,39.4258 c 0.942,3.0234 2.45,7.4101 3.817,10.293 3.164,6.3281 8.199,11.5703 14.168,15.3085 6.254,3.8907 13.449,6.0469 20.789,6.1915 7.551,0.2148 14.957,-1.7266 21.433,-5.6133 5.899,-3.5235 10.786,-8.4883 14.168,-14.4532 1.582,-2.8046 2.805,-5.7539 3.668,-8.8476 0.215,-0.793 0.504,-2.0899 0.719,-2.8789 v 0 h 25.176 v 0 c 0.289,1.0039 0.719,2.4492 1.078,3.457 0.934,2.9492 2.16,5.6797 3.742,8.2695 3.524,5.8204 8.41,10.7891 14.242,14.2383 6.618,3.8203 14.098,5.6836 21.719,5.4688 7.051,-0.2149 13.883,-2.2266 19.852,-5.8321 6.187,-3.7382 11.297,-9.0585 14.746,-15.3906 1.371,-2.2929 2.375,-4.7461 3.238,-7.332 0.289,-0.8594 0.645,-2.0899 0.86,-2.8789 v 0 h 16.328 v 0 c 0.289,0.7187 0.652,1.7265 0.863,2.5156 1.082,3.0195 2.449,6.1953 4.031,8.918 3.813,6.2578 9.492,11.2969 15.891,14.8945 6.476,3.5899 13.808,5.75 21.289,5.75 7.629,0 15.109,-2.1601 21.797,-5.9648 6.117,-3.4571 11.652,-8.4219 15.109,-14.6016 1.074,-1.875 2.801,-6.3281 3.664,-8.3477 0.36,-0.8632 0.934,-2.2968 1.297,-3.164 v 0 h 26.973 v 0 c 0.285,0.9336 0.644,2.3711 0.937,3.3086 0.93,2.8789 2.078,5.6133 3.524,8.2031 3.527,6.2578 8.554,11.6523 14.816,15.2422 6.113,3.457 13.231,4.9609 20.215,4.8945 7.332,-0.0664 14.668,-1.7304 20.926,-5.5351 6.047,-3.5977 10.863,-8.918 14.32,-15.1094 1.289,-2.293 2.437,-4.8906 3.379,-7.4024 0.426,-1.0859 0.926,-2.5195 1.289,-3.6015 v 0 h 25.965 v 0 c 0.293,0.9336 0.722,2.2344 1.082,3.164 1.008,3.0235 2.297,6.1094 3.879,8.9219 3.386,6.1172 8.347,11.2891 14.316,14.961 6.406,3.8086 13.672,5.8242 21.152,5.6836 6.973,-0.1446 13.731,-2.2344 19.774,-5.6836 6.047,-3.5235 11.371,-8.418 14.68,-14.5313 1.144,-2.1562 2.441,-5.5351 3.3,-7.8398 v 0 l -7.832,-9.211 v 0 c -0.226,0.7227 -0.652,1.7969 -0.867,2.5235 -0.578,1.6562 -2.656,7.4765 -3.449,8.9922 -2.305,4.6015 -6.191,8.3398 -10.578,11.0742 -4.598,2.8008 -9.852,4.4609 -15.254,4.4609 -5.535,0 -10.926,-1.7969 -15.672,-4.6758 -4.387,-2.7343 -8.273,-6.3281 -10.859,-10.8593 -2.668,-4.5313 -3.887,-9.7852 -4.102,-15.0391 -0.215,-5.3203 0.645,-10.6445 2.656,-15.5352 0.723,-1.7226 1.942,-4.0937 2.813,-5.7539 v 0 h -58.262 v 0 c 0.574,0.8672 1.434,2.2344 1.942,3.0977 1.289,2.0078 2.726,4.4609 3.593,6.6211 1.508,3.6601 2.082,7.6172 1.946,11.5039 -0.145,4.8906 -1.368,9.6367 -3.743,13.8047 -2.519,4.6133 -6.257,8.3515 -10.722,11.0742 -4.746,2.8828 -10.133,4.4648 -15.606,4.5351 -5.32,0.0782 -10.496,-1.289 -15.027,-3.8789 -4.609,-2.664 -8.418,-6.5546 -11.082,-11.1523 -2.512,-4.3164 -3.957,-9.2109 -4.027,-14.2383 -0.079,-5.4687 1.367,-10.8594 4.027,-15.6836 1.004,-1.6523 2.664,-4.0234 3.738,-5.6836 v 0 h -62.433 v 0 c 1.367,1.7266 3.312,4.3164 4.464,6.1914 2.735,4.5313 4.387,9.7774 4.317,15.0313 -0.078,4.8906 -1.731,9.707 -4.168,13.9531 -2.602,4.5313 -6.195,8.5547 -10.727,11.2891 -4.527,2.8125 -9.781,4.25 -15.105,4.3164 -5.539,0 -11.004,-1.5039 -15.746,-4.3867 -4.391,-2.586 -7.985,-6.3282 -10.645,-10.6407 -2.594,-4.3867 -4.242,-9.3593 -4.39,-14.5312 -0.075,-5.4688 1.511,-10.8633 4.531,-15.5391 1.078,-1.7304 3.023,-4.1015 4.39,-5.6836 v 0 h -56.539 v 0 c 1.368,1.5821 3.383,3.9532 4.532,5.7539 2.734,4.3907 3.961,9.6368 3.812,14.8907 -0.14,4.7461 -1.508,9.4921 -3.738,13.6718 -2.59,4.7461 -6.254,8.7696 -10.789,11.5039 -4.461,2.7344 -9.57,4.168 -14.746,4.3829 -5.899,0.1484 -11.797,-1.2188 -16.828,-4.2344 -4.461,-2.668 -8.059,-6.4102 -10.645,-10.793 -2.594,-4.4609 -4.101,-9.4219 -4.242,-14.5312 -0.149,-5.8204 1.359,-11.6524 4.746,-16.3985 0.93,-1.2969 2.586,-3.0234 3.664,-4.2461 v 0 h -60.203 v 0 c 1.223,1.5157 2.949,3.8164 3.961,5.4688 2.66,4.5312 3.879,9.7851 3.805,15.0273 -0.067,5.2578 -1.434,10.3633 -4.094,14.8242 -2.594,4.3868 -6.188,8.0586 -10.578,10.5704 -4.672,2.7304 -10.067,4.246 -15.465,4.1757 -5.461,-0.0781 -10.715,-1.8047 -15.461,-4.5312 -4.317,-2.5195 -8.125,-5.9766 -10.719,-10.293 -1.508,-2.5078 -2.59,-5.2422 -3.238,-8.125 -0.289,-1.4336 -0.57,-3.5937 -0.789,-5.039 v 0 l -8.778,7.2695 v 0" /></g></g></svg>