<?xml version="1.0" encoding="UTF-8" standalone="no"?>
<svg
   xmlns:dc="http://purl.org/dc/elements/1.1/"
   xmlns:cc="http://creativecommons.org/ns#"
   xmlns:rdf="http://www.w3.org/1999/02/22-rdf-syntax-ns#"
   xmlns:svg="http://www.w3.org/2000/svg"
   xmlns="http://www.w3.org/2000/svg"
   viewBox="0 0 79.559998 37.799999"
   height="37.799999"
   width="79.559998"
   xml:space="preserve"
   id="svg2"
   version="1.1"><metadata
     id="metadata8"><rdf:RDF><cc:Work
         rdf:about=""><dc:format>image/svg+xml</dc:format><dc:type
           rdf:resource="http://purl.org/dc/dcmitype/StillImage" /></cc:Work></rdf:RDF></metadata><defs
     id="defs6" /><g
     transform="matrix(1.3333333,0,0,-1.3333333,0,37.8)"
     id="g10"><g
       transform="scale(0.1)"
       id="g12"><path
         id="path14"
         style="fill:#231f20;fill-opacity:1;fill-rule:nonzero;stroke:none"
         d="m 466.941,132.051 v -20.996 l -15.925,-0.43 V 102.77 H 28.7852 v 0 c -1.1446,0 -2.5,0.144 -3.6446,0.289 -2.5742,0.355 -5.1406,1.14 -7.3554,2.566 -2,1.215 -3.6446,2.789 -5.0704,4.645 -1.1445,1.5 -2.1445,3.144 -2.85542,4.925 -0.21485,0.645 -0.50391,1.504 -0.71875,2.145 v 0 L 0,122.91 v 22.57 l 6.78906,3.856 v 23.637 0 c 0,0.504 0.28125,4.57 0.35547,5.074 0.14063,2.211 0.35547,4.926 0.71094,7.07 0.35937,2.426 0.92969,4.926 1.71484,7.211 0.57029,1.574 1.21489,3.074 1.92969,4.574 v 0 l 35.9219,74.778 v 0 c 0.2148,0.425 1.5039,2.285 1.789,2.644 1,1.496 2.2852,3.211 3.6407,4.352 0.8593,0.715 2,1.5 2.9961,2.07 1.0742,0.645 2.3593,1.359 3.5742,1.715 1.2109,0.43 2.8594,0.644 4.1406,0.785 1.0039,0.074 2.9336,0.215 3.9336,0.215 v 0 h 83.9879 v 0 c 1.071,0 2.356,0 3.43,-0.141 1.496,-0.285 3.07,-0.785 4.496,-1.355 1.215,-0.574 2.43,-1.219 3.5,-2.004 0.856,-0.711 1.641,-1.57 2.285,-2.352 0.785,-0.933 1.571,-2.074 2,-3.144 0.36,-0.93 0.575,-1.93 0.575,-2.856 v 0 -139.558 h 43.847 v 16.215 l 6.93,7 h 11 l 3.137,-2.93 119.347,19.785 0.645,-3.859 98.34,16.285 19.5,10.855 48.418,-83.062 v 0 c 0.863,0.215 2.218,0.644 3.078,0.859 5.351,1.5 11.066,2.641 16.64,2.715 20.567,0.215 39.493,-11.07 49.989,-28.8515 10.648,-18 10.781,-40.3516 0.285,-58.4297 C 578.574,10.9297 559.57,0.0703125 539.082,0 c -20.859,-0.078125 -40.285,10.8516 -50.566,29.0625 -10.078,17.8633 -9.93,39.6406 0.214,57.4961 3.778,6.7148 9.063,12.5 15.067,17.3514 0.93,0.789 2.289,1.789 3.285,2.574 v 0 l -40.141,70.133 -77.918,-44.566 h 77.918 v 0" /><path
         id="path16"
         style="fill:#231f20;fill-opacity:1;fill-rule:nonzero;stroke:none"
         d="M 388.996,3.01953 H 87.0352 v 0 c -0.0704,0 -6.9297,0.50781 -6.9961,0.50781 -1.7149,0.13672 -4.2149,0.35157 -5.8594,0.84766 -1.0703,0.29297 -3.1406,1.28906 -4.1406,1.71875 -0.3555,0.21484 -3.5,1.64063 -3.9297,1.85547 -0.8555,0.36328 -1.7149,0.85937 -2.5,1.35937 v 0 L 17.832,35.9492 14.9766,37.5195 v 0 c -5.00004,2.8516 -9.35941,6.7891 -12.21879,11.7891 -5.85547,9.9883 -5.92578,22.4219 -0.28125,32.5586 2.78125,4.9297 6.92578,9.0039 11.99614,11.6445 5,2.6406 10.7851,3.8555 16.5,4.1406 1.0703,0.0743 2.2109,0.0743 3.2851,0.0743 v 0 L 389.637,97.082 h 5.285 v 0 c 8.359,-0.1406 16.719,-2.0703 24.004,-6.2109 7.07,-4 12.851,-10.0703 16.707,-17.3555 7.715,-14.6367 7.785,-32.1367 -0.067,-46.707 -4.07,-7.5703 -10.281,-13.6445 -17.781,-17.86329 -6.289,-3.49609 -13.293,-5.5664 -20.5,-5.92578 v 0 h -8.289 v 0" /><path
         id="path18"
         style="fill:#ffffff;fill-opacity:1;fill-rule:nonzero;stroke:none"
         d="m 528.262,57.9414 c 0,5.7891 4.785,10.293 10.578,10.293 5.711,-0.0781 10.281,-4.6485 10.348,-10.3633 0,-5.6445 -4.5,-10.2148 -10.137,-10.3516 -5.926,-0.1445 -10.789,4.5703 -10.789,10.4219 v 0" /><path
         id="path20"
         style="fill:#ffffff;fill-opacity:1;fill-rule:nonzero;stroke:none"
         d="M 138.816,201.598 H 32.6914 l 27.707,58.281 h 78.4176 v -58.281 0" /><path
         id="path22"
         style="fill:#ffffff;fill-opacity:1;fill-rule:nonzero;stroke:none"
         d="M 360.871,132.047 H 237.816 v 4 l 116.911,19.211 -0.567,4.07 75.422,12.211 -68.711,-39.492 v 0" /><path
         id="path24"
         style="fill:#ffffff;fill-opacity:1;fill-rule:nonzero;stroke:none"
         d="M 51.6406,65.5586 C 51.5664,53.9961 42.3516,44.5625 30.7852,44.4258 18.9297,44.3477 9.21875,53.918 9.28906,65.7734 9.35938,77.5586 19.0039,87.0625 30.8594,86.8477 42.4258,86.7031 51.6406,77.207 51.6406,65.5586 v 0" /><path
         id="path26"
         style="fill:#ffffff;fill-opacity:1;fill-rule:nonzero;stroke:none"
         d="m 373.172,49.8633 c -0.067,11.8555 9.648,21.5039 21.504,21.3594 11.566,-0.1485 20.918,-9.5704 20.918,-21.1446 0,-11.5703 -9.278,-21.0625 -20.848,-21.2109 -11.785,-0.1367 -21.492,9.2187 -21.574,20.9961 v 0" /></g></g></svg>