<?xml version="1.0" encoding="UTF-8" standalone="no"?>
<svg
   xmlns:dc="http://purl.org/dc/elements/1.1/"
   xmlns:cc="http://creativecommons.org/ns#"
   xmlns:rdf="http://www.w3.org/1999/02/22-rdf-syntax-ns#"
   xmlns:svg="http://www.w3.org/2000/svg"
   xmlns="http://www.w3.org/2000/svg"
   viewBox="0 0 52.386665 37.813332"
   height="37.813332"
   width="52.386665"
   xml:space="preserve"
   id="svg2"
   version="1.1"><metadata
     id="metadata8"><rdf:RDF><cc:Work
         rdf:about=""><dc:format>image/svg+xml</dc:format><dc:type
           rdf:resource="http://purl.org/dc/dcmitype/StillImage" /></cc:Work></rdf:RDF></metadata><defs
     id="defs6" /><g
     transform="matrix(1.3333333,0,0,-1.3333333,0,37.813333)"
     id="g10"><g
       transform="scale(0.1)"
       id="g12"><path
         id="path14"
         style="fill:#231f20;fill-opacity:1;fill-rule:nonzero;stroke:none"
         d="M 392.906,128.816 282.523,18.0078 v 0 c -1.152,-1.082 -4.597,-4.2461 -5.828,-5.3984 -1.945,-1.7305 -4.746,-4.11331 -7.129,-5.26565 -2.668,-1.15234 -6.191,-1.58203 -9.074,-1.64844 v 0 h -9.57 -185.6212 v 0 c -2.4453,0 -6.6914,0 -8.9961,0.4961 -2.8086,0.50781 -5.4727,1.59375 -7.707,3.39062 -2.2305,1.79687 -3.961,4.17967 -4.9649,6.69927 -0.6484,1.6484 -1.2265,4.1015 -1.6562,5.8281 v 0 h -5.4727 v 0 c 0.3594,-2.5196 1.0117,-6.043 1.9414,-8.4258 1.3672,-3.3125 3.6055,-6.33985 6.4805,-8.56641 C 47.5938,3.09766 50.6875,1.66016 54,0.9375 57.2422,0.214844 61.3438,0 64.7266,0 V 0 H 250.777 v 0 c 1.582,0 9.141,0 10.731,0.148438 3.449,0.144531 7.48,0.789062 10.578,2.304692 2.598,1.15234 5.332,3.38671 7.422,5.2539 2.09,1.875 5.398,5.18357 7.344,7.12887 v 0 L 392.906,121.324 v 7.492 0" /><path
         id="path16"
         style="fill:#231f20;fill-opacity:1;fill-rule:nonzero;stroke:none"
         d="m 392.906,188.859 v 5.547 H 275.973 l -50.039,48.309 H 13.9688 v 0 c -1.3672,0 -4.60942,0 -5.97661,-0.36 C 5.6875,241.777 3.67188,240.484 2.15625,238.613 0.722656,236.887 0.0742188,234.656 0,232.352 c -0.0742188,-2.309 0.503906,-4.684 1.94141,-6.555 1.36718,-1.875 3.24218,-3.168 5.32812,-3.817 C 9,221.477 11.9531,221.332 13.7539,221.332 v 0 h 4.9649 L 148.754,91.1563 152.781,95.2578 26.7813,221.332 h 97.4177 l 65.524,-64.73 32.254,32.257 -32.254,32.473 h 28.007 l 38.731,-37.656 v 0 c 0.937,-0.938 2.812,-2.738 4.031,-3.528 1.301,-0.937 2.961,-1.656 4.688,-1.945 2.16,-0.359 4.531,0.141 6.406,1.442 1.867,1.226 3.164,3.093 3.742,5.113 0.36,1.226 0.574,2.879 0.645,4.101 v 0 h 116.933 v 0" /><path
         id="path18"
         style="fill:#231f20;fill-opacity:1;fill-rule:nonzero;stroke:none"
         d="m 122.617,247.398 c -9.797,0.067 -17.64,8.063 -17.715,18 0,10.008 8.141,18.356 18.289,18.215 9.793,-0.144 17.641,-8.207 17.641,-18 0,-10.008 -8.211,-18.289 -18.215,-18.215 v 0" /><path
         id="path20"
         style="fill:#231f20;fill-opacity:1;fill-rule:nonzero;stroke:none"
         d="m 234.43,176.621 53.359,-52.777 h 65.301 v 0 c 1.867,0 4.746,-0.074 6.555,-0.504 2.156,-0.574 4.168,-1.801 5.613,-3.457 1.652,-2.086 2.226,-4.61 1.945,-7.27 -0.148,-2.304 -1.008,-4.394 -2.598,-6.117 -1.437,-1.59 -3.312,-2.668 -5.402,-3.172 -1.504,-0.433 -5.469,-0.5 -7.129,-0.5 v 0 h -55.652 v 0 c -2.375,0 -6.113,0.067 -8.496,0.281 -3.02,0.219 -6.047,0.864 -8.781,1.95 -2.813,1.152 -5.547,3.164 -7.852,5.113 -1.434,1.293 -5.32,5.18 -6.688,6.547 v 0 L 234.43,146.664 183.961,95.7617 v -71.2773 0 c 0,-1.6524 -0.074,-4.7461 -0.504,-6.3399 -0.574,-2.3047 -1.801,-4.4609 -3.672,-5.8281 -1.73,-1.2226 -3.746,-1.875 -5.762,-1.9453 -2.16,-0.0664 -4.39,0.3633 -6.046,1.5156 -1.946,1.2188 -3.313,3.2422 -4.106,5.4688 -0.789,2.1562 -0.937,4.7539 -0.937,7.0586 v 0 66.2422 0 c 0,2.2304 0,4.6757 0.363,6.8359 0.289,2.375 0.937,4.7538 1.941,6.8398 0.864,2.016 2.02,3.887 3.387,5.473 1.512,1.945 3.457,4.035 5.184,5.761 v 0 l 60.621,61.055 v 0" /></g></g></svg>