<?xml version="1.0" encoding="UTF-8" standalone="no"?>
<svg
   xmlns:dc="http://purl.org/dc/elements/1.1/"
   xmlns:cc="http://creativecommons.org/ns#"
   xmlns:rdf="http://www.w3.org/1999/02/22-rdf-syntax-ns#"
   xmlns:svg="http://www.w3.org/2000/svg"
   xmlns="http://www.w3.org/2000/svg"
   viewBox="0 0 41.333332 37.786667"
   height="37.786667"
   width="41.333332"
   xml:space="preserve"
   id="svg2"
   version="1.1"><metadata
     id="metadata8"><rdf:RDF><cc:Work
         rdf:about=""><dc:format>image/svg+xml</dc:format><dc:type
           rdf:resource="http://purl.org/dc/dcmitype/StillImage" /></cc:Work></rdf:RDF></metadata><defs
     id="defs6" /><g
     transform="matrix(1.3333333,0,0,-1.3333333,0,37.786667)"
     id="g10"><g
       transform="scale(0.1)"
       id="g12"><path
         id="path14"
         style="fill:#231f20;fill-opacity:1;fill-rule:nonzero;stroke:none"
         d="m 306.277,152.852 3.672,-5.903 L 63.1875,4.53125 v 0 C 62.6133,4.17188 61.4609,3.59375 60.957,3.24219 59.3008,2.375 57.5,1.58203 55.7031,1.00781 53.6875,0.429688 51.5273,0.0703125 49.5117,0 47.1406,0 44.9063,0.285156 42.6055,0.859375 40.8789,1.36719 39.2227,2.01172 37.5664,2.88281 c -1.7266,0.9375 -3.2344,2.01172 -4.6016,3.3086 -0.9375,0.9375 -1.875,1.94531 -2.7343,3.16406 -0.2891,0.57812 -0.8672,1.30083 -1.2266,1.94533 v 0 l 5.3945,3.0156 v 0 c 0.2891,-0.4961 0.7227,-1.1406 1.0118,-1.582 1.0781,-1.3672 2.3711,-2.586 3.7382,-3.59377 1.6563,-1.29688 3.6016,-2.01172 5.6172,-2.51954 1.5821,-0.35937 3.1641,-0.50781 4.7461,-0.42968 1.3008,0.13672 2.8086,0.5 3.961,0.85937 1.3671,0.36328 2.875,1.00781 4.2461,1.66016 v 0 l 2.5898,1.65236 107.9454,62.539 -1.867,6.6875 v 0 c -0.149,0.5079 -0.223,1.3008 -0.293,1.9454 -0.071,0.6445 -0.071,1.2968 0.144,1.875 0.071,0.5742 0.219,1.2187 0.434,1.8632 0.281,1.086 0.933,2.0235 1.797,2.9493 0.508,0.5078 0.867,1.0156 1.511,1.3671 v 0 l 11.731,9.4336 -73.977,17.5586 -2.304,0.578 v 0 c -1.442,0.356 -3.383,0.863 -4.75,1.293 -1.5081,0.504 -2.9495,1.227 -4.3167,1.945 -2.2305,1.223 -4.5391,2.661 -6.2617,4.602 -1.586,1.586 -2.7344,3.746 -3.2422,6.047 -0.1406,1.297 -0.2149,2.734 -0.1406,3.957 0.1406,1.367 0.4296,2.59 0.7929,3.742 0.5742,1.727 1.6524,3.672 2.6602,5.18 0.4336,0.648 1.0781,1.656 1.5117,2.16 v 0 l 5.0391,7.41 L 0,153.93 0.148438,158.395 H 4.67969 v 0 c 0,0.289 -0.07031,0.718 -0.14453,1.148 -0.07032,1.656 0.21484,3.383 0.79297,4.824 0.43359,1.293 1.07812,2.446 1.86718,3.383 0.79297,0.859 1.94532,1.656 3.09769,2.227 0.5039,0.144 1.1523,0.433 1.6562,0.648 v 0 l 53.9024,54.84 v 0 l 1.7265,2.012 c 0.7891,0.937 1.9453,2.304 2.5157,3.308 0.5078,0.938 1.0117,2.02 1.2226,3.098 0.1445,0.719 0.1445,1.441 0.0742,2.156 -0.1445,0.504 -0.2148,1.008 -0.3593,1.516 -0.4297,0.57 -1.0079,1.008 -1.5079,1.367 -0.5078,0.289 -1.0117,0.504 -1.5156,0.644 -0.5742,0.145 -1.2187,0.075 -1.7969,0.075 -0.6484,0.07 -1.875,0 -2.3789,0 -2.8086,-0.364 -5.7578,-0.364 -8.4179,0.359 -2.8086,0.504 -5.4688,1.723 -7.8477,3.527 -2.4453,1.653 -4.6016,3.813 -6.043,6.473 -1.6562,2.52 -2.6601,5.543 -3.0234,8.566 -0.2852,2.805 -0.2148,5.684 0.6484,8.418 0.7188,2.954 2.0196,5.688 3.8164,8.133 1.8008,2.305 4.1016,4.176 6.6915,5.543 2.5898,1.434 5.3984,2.371 8.3476,2.735 2.8789,0.214 5.6875,0.074 8.4219,-0.723 2.7344,-0.719 5.3242,-2.16 7.6289,-3.883 2.082,-1.726 3.957,-3.887 5.3945,-6.117 1.4414,-2.52 2.5938,-5.328 2.8789,-8.277 0.2149,-1.942 -0.0703,-4.247 -0.2851,-6.118 -0.0742,-0.789 -0.2188,-2.16 -0.4336,-2.875 0.3594,-0.074 0.7929,-0.074 1.1484,-0.074 v 0 l 4.25,-0.074 v 0 c 3.6719,-0.074 7.2656,-0.574 10.7969,-1.438 5.4683,-1.296 11.0083,-3.527 16.1173,-6.117 5.543,-2.804 10.797,-6.261 15.828,-10.004 5.254,-4.027 10.148,-8.851 14.609,-13.531 4.036,-4.242 7.989,-8.918 11.301,-13.672 v 0 l 6.481,-9.281 v 0 c 0.789,-1.223 2.734,-4.102 3.379,-5.328 0.789,-1.367 1.511,-2.875 1.793,-4.461 0.292,-1.149 0.292,-2.59 0.148,-3.813 0,-1.007 0,-2.086 -0.281,-3.093 -0.227,-1.586 -0.793,-3.094 -1.367,-4.387 -0.293,-0.797 -0.793,-1.59 -1.086,-2.231 -0.579,-1.082 -1.297,-2.093 -1.946,-3.023 -0.508,-0.652 -1.582,-1.875 -2.09,-2.594 v 0 l -12.586,-14.394 92.403,-0.289 0.066,10.941 4.824,-0.285 -0.21,-25.262 -4.829,0.145 0.071,9.785 -96.934,0.508 v 0 c -0.355,-0.364 -0.859,-0.938 -1.223,-1.227 -0.5,-0.504 -2.804,-2.734 -3.168,-3.312 -1.003,-1.149 -1.871,-2.297 -2.585,-3.672 -0.364,-0.856 -0.868,-1.938 -0.938,-2.946 -0.074,-0.503 -0.074,-1.007 0,-1.582 0.07,-0.867 0.434,-1.656 0.863,-2.308 0.578,-0.856 1.293,-1.434 2.086,-1.867 1.227,-0.793 3.532,-1.871 4.899,-2.375 0.863,-0.36 2.734,-1.004 3.664,-1.508 v 0 l 69.808,-32.028 89.375,52.247 v 0" /><path
         id="path16"
         style="fill:#ffffff;fill-opacity:1;fill-rule:nonzero;stroke:none"
         d="m 99.8281,158.039 -79.0156,0.285 v 0 c 0.2109,0.364 0.4258,0.938 0.6484,1.301 v 0 l 0.8633,1.582 v 0 c 0.2813,0.574 0.5039,1.078 0.6446,1.797 0,0.074 0.2148,1.078 0.289,1.226 0.1445,0.43 0.5039,1.079 0.7227,1.293 v 0 l 1.0781,2.157 v 0 c 0.5039,0.797 1.0781,1.515 1.7227,2.234 v 0 l 33.5351,29.219 v 0 c 0.8672,0.789 1.9453,1.582 2.8828,2.23 0.7891,0.578 1.7266,1.293 2.7344,1.797 1.0039,0.504 1.9414,0.863 3.0234,1.153 1.7266,0.433 3.8868,0.433 5.7539,0.433 2.7344,-0.074 5.543,-0.289 8.3516,-0.648 3.3789,-0.504 6.7617,-1.227 9.9258,-2.09 3.3828,-1.008 7.1247,-2.66 10.2187,-4.102 2.379,-1.078 6.481,-2.875 8.781,-4.027 1.227,-0.649 2.953,-1.582 3.813,-2.59 0.508,-0.648 0.937,-1.441 1.152,-2.305 0.149,-0.648 0.149,-1.226 0.074,-1.867 -0.074,-0.726 -0.214,-1.441 -0.578,-2.09 -0.14,-0.648 -0.504,-1.297 -0.937,-1.797 v 0 L 99.8281,158.039 v 0" /></g></g></svg>