<?xml version="1.0" encoding="UTF-8" standalone="no"?>
<svg
   xmlns:dc="http://purl.org/dc/elements/1.1/"
   xmlns:cc="http://creativecommons.org/ns#"
   xmlns:rdf="http://www.w3.org/1999/02/22-rdf-syntax-ns#"
   xmlns:svg="http://www.w3.org/2000/svg"
   xmlns="http://www.w3.org/2000/svg"
   viewBox="0 0 40.240002 37.453335"
   height="37.453335"
   width="40.240002"
   xml:space="preserve"
   id="svg2"
   version="1.1"><metadata
     id="metadata8"><rdf:RDF><cc:Work
         rdf:about=""><dc:format>image/svg+xml</dc:format><dc:type
           rdf:resource="http://purl.org/dc/dcmitype/StillImage" /></cc:Work></rdf:RDF></metadata><defs
     id="defs6" /><g
     transform="matrix(1.3333333,0,0,-1.3333333,0,37.453333)"
     id="g10"><g
       transform="scale(0.1)"
       id="g12"><path
         id="path14"
         style="fill:#231f20;fill-opacity:1;fill-rule:nonzero;stroke:none"
         d="m 98.8594,280.949 c 9.4996,5.25 21.1636,1.653 26.5666,-7.633 5.254,-9.363 2.156,-21.097 -7.055,-26.57 -9.578,-5.758 -21.8905,-2.664 -27.578,6.91 -5.543,9.723 -1.7969,22.032 8.0664,27.293 v 0" /><path
         id="path16"
         style="fill:#231f20;fill-opacity:1;fill-rule:nonzero;stroke:none"
         d="m 8.64453,45 c 0.5,-0.7187 1.14453,-1.7969 1.50777,-2.375 0.5743,-0.8633 2.0157,-2.9531 2.4493,-3.7422 0.7187,-0.7187 1.582,-2.0898 2.1601,-2.6601 0.4297,-0.7266 1.5821,-1.9493 2.0899,-2.668 0.289,-0.2149 0.8593,-0.7891 1.0781,-1.0781 v 0 l 81.5742,47.0859 v 0 c 0.1445,0.793 0.1445,1.7266 0.1445,2.5156 -0.0742,1.6641 0.1407,3.2461 0.2891,4.8985 0.2145,1.875 0.5745,4.25 1.1525,6.1914 0.648,1.5898 1.293,3.2422 2.371,4.7578 0.578,0.7187 1.152,1.6523 1.805,2.5192 v 0 l 1.652,1.942 39.82,49.101 -28.082,49.25 v 0 c -0.433,0.789 -1.008,1.942 -1.367,2.953 -1.152,2.305 -2.23,4.676 -2.953,7.344 -0.789,2.445 -1.367,4.965 -1.367,7.633 -0.149,5.324 1.293,10.512 4.035,15.191 2.445,4.61 6.043,8.567 10.437,11.301 5.039,2.883 10.657,4.18 16.418,4.11 3.598,-0.215 7.196,-0.942 10.653,-2.309 2.445,-1.148 4.972,-2.664 7.269,-4.391 v 0 l 2.528,-2.3 46.218,-36.075 32.832,-41.543 26.211,14.758 3.887,-6.262 -18.863,-10.949 23.828,-41.469 18.723,10.438 4.683,-7.484 L 111.742,12.0273 v 0 c -0.429,-0.2148 -2.23,-1.2929 -2.66,-1.3671 C 103.105,7.49219 96.5547,4.89844 90,2.88281 83.3047,1.22656 76.5391,0.21875 69.4844,0 62.4961,-0.0664063 55.3672,0.9375 48.457,2.66797 41.7578,4.46875 35.2773,7.27734 29.3086,10.7344 23.1094,14.2578 17.2813,18.3633 12.6016,23.1875 8.20703,27.5039 4.68359,32.1875 1.58203,37.1523 1.07813,38.0195 0.433594,39.0273 0,39.8203 v 0 L 8.64453,45 v 0" /><path
         id="path18"
         style="fill:#ffffff;fill-opacity:1;fill-rule:nonzero;stroke:none"
         d="m 60.4102,47.6641 13.8984,-23.9727 -1.6602,-4.8984 5.3985,-1.0039 3.457,-6.4141 v 0 C 80.4258,11.2344 78.9844,11.0195 78.0469,10.7344 75.168,10.3711 72.3594,10.1563 69.4844,9.9375 63.5742,9.86719 57.168,10.9492 51.4063,12.5313 c -5.8282,1.6523 -11.7344,3.8164 -16.918,6.5507 -3.168,1.8711 -6.0469,3.7461 -8.711,6.0508 -0.5781,0.4297 -1.2929,1.2188 -2.0156,1.6524 v 0 l 36.6485,20.8789 v 0" /><path
         id="path20"
         style="fill:#ffffff;fill-opacity:1;fill-rule:nonzero;stroke:none"
         d="M 68.6172,52.5625 98.1367,69.4102 93.5313,32.0391 97.9922,31.25 93.6719,27.3633 82.7305,28.5156 68.6172,52.5625 v 0" /><path
         id="path22"
         style="fill:#ffffff;fill-opacity:1;fill-rule:nonzero;stroke:none"
         d="m 93.168,14.4727 -1.8008,-0.6446 -0.9336,1.2227 0.6445,0.3594 2.0899,-0.9375 v 0" /><path
         id="path24"
         style="fill:#ffffff;fill-opacity:1;fill-rule:nonzero;stroke:none"
         d="M 176.113,59.4727 115.992,24.4844 132.77,74.3086 v 0 c 0.074,0.7148 1.003,3.3086 1.367,3.957 0.648,1.8711 1.297,3.5274 2.09,5.2539 1.218,2.3047 2.519,4.3946 4.175,6.3399 v 0 l 2.805,3.5312 v 0 c 0.793,0.9297 2.379,3.3086 3.172,3.9571 0.863,0.7187 1.726,1.2968 2.59,1.8711 0.578,0.289 1.222,0.6484 1.797,0.9372 0.507,0.141 1.011,0.43 1.441,0.719 v 0 l 23.906,-41.4023 v 0" /><path
         id="path26"
         style="fill:#ffffff;fill-opacity:1;fill-rule:nonzero;stroke:none"
         d="m 184.75,64.2969 -23.898,41.5471 66.957,38.59 v 0 c 0.433,-0.141 0.789,-0.36 1.078,-0.575 2.09,-0.933 4.25,-1.082 6.41,-0.652 1.871,0.223 3.672,1.152 5.328,2.305 1.367,1.011 2.445,2.164 3.383,3.386 0.652,1.153 1.226,2.665 1.441,4.032 0.074,0.504 0.074,1.3 0.215,1.726 v 0 l 0.363,0.074 L 270,113.258 184.75,64.2969 v 0" /><path
         id="path28"
         style="fill:#ffffff;fill-opacity:1;fill-rule:nonzero;stroke:none"
         d="m 150.914,154.23 -5.258,8.997 37.367,21.597 5.473,-8.711 -37.582,-21.883 v 0" /><path
         id="path30"
         style="fill:#ffffff;fill-opacity:1;fill-rule:nonzero;stroke:none"
         d="m 212.043,144.293 -30.172,51.906 13.68,-10.148 27.004,-35.567 -10.512,-6.191 v 0" /></g></g></svg>