<?xml version="1.0" encoding="UTF-8" standalone="no"?>
<svg
   xmlns:dc="http://purl.org/dc/elements/1.1/"
   xmlns:cc="http://creativecommons.org/ns#"
   xmlns:rdf="http://www.w3.org/1999/02/22-rdf-syntax-ns#"
   xmlns:svg="http://www.w3.org/2000/svg"
   xmlns="http://www.w3.org/2000/svg"
   viewBox="0 0 124.48 37.799999"
   height="37.799999"
   width="124.48"
   xml:space="preserve"
   id="svg2"
   version="1.1"><metadata
     id="metadata8"><rdf:RDF><cc:Work
         rdf:about=""><dc:format>image/svg+xml</dc:format><dc:type
           rdf:resource="http://purl.org/dc/dcmitype/StillImage" /></cc:Work></rdf:RDF></metadata><defs
     id="defs6" /><g
     transform="matrix(1.3333333,0,0,-1.3333333,0,37.8)"
     id="g10"><g
       transform="scale(0.1)"
       id="g12"><path
         id="path14"
         style="fill:#231f20;fill-opacity:1;fill-rule:nonzero;stroke:none"
         d="M 0,0 H 933.621 V 56.2305 H 832.754 v 0 c 3.098,2.9492 7.559,7.1992 9.863,10.7226 4.102,5.8282 6.406,12.6094 6.836,19.8047 0.36,6.332 -0.793,12.7461 -3.738,18.4332 -2.094,4.028 -6.555,9.286 -9.504,12.743 v 0 h 66.379 v 33.406 h -84.387 v 0 c 1.516,1.371 3.899,3.094 5.399,4.68 2.746,2.664 5.05,5.761 6.996,9.074 1.941,3.308 3.308,6.84 4.097,10.293 0.578,2.164 1.157,5.043 1.516,6.988 1.582,0 4.102,-0.219 5.613,0 2.16,0.355 4.465,1.004 6.047,2.305 1.367,1.218 2.305,2.949 2.879,4.675 0.645,1.731 0.793,4.684 0.793,6.625 v 0 26.356 0 c 0,2.945 -0.574,5.828 -1.516,8.562 -1.004,2.52 -2.515,4.825 -4.675,6.555 -2.305,1.942 -5.254,3.094 -8.133,3.887 -2.524,0.574 -7.778,0.793 -10.293,1.008 v 0 l -72.942,4.25 -37.441,36.863 H 570.598 l -30.453,-36.863 -44.637,-4.465 v 0 c -2.09,-0.219 -4.246,-0.574 -6.414,-0.938 -2.082,-0.648 -4.25,-1.367 -6.196,-2.519 -2.078,-1.586 -3.671,-3.742 -4.824,-6.262 -1.148,-2.519 -1.726,-5.402 -1.941,-8.137 v 0 l -2.305,-28.152 v 0 c -0.215,-1.945 -0.215,-3.891 0,-5.758 0,-1.59 0.36,-3.531 1.297,-4.898 1.008,-1.367 2.52,-2.09 4.102,-2.52 1.593,-0.574 4.113,-0.574 5.839,-0.574 v 0 h 21.309 v 0 c 0.434,-1.59 0.578,-4.109 1.008,-5.617 0.937,-4.246 2.519,-8.57 4.609,-12.242 2.371,-3.457 5.039,-6.551 8.352,-9.286 1.363,-1.152 3.672,-2.742 5.254,-3.89 v 0 H 413.281 v 0 c 1.946,1.371 4.606,3.672 6.407,5.258 2.664,2.66 4.824,5.613 6.55,8.925 1.582,2.879 2.95,6.192 3.746,9.286 0.579,2.304 1.153,5.402 1.293,7.566 1.012,0 2.379,0.215 3.313,0.355 2.379,0.434 4.469,1.227 6.195,2.739 1.367,1.152 2.375,2.734 2.949,4.25 0.793,2.156 0.938,5.109 0.938,7.414 v 0 24.84 0 c 0,3.093 -0.723,6.406 -2.305,9.289 -1.582,2.515 -3.672,4.676 -6.191,6.047 -2.738,1.507 -6.192,2.519 -9.36,2.879 v 0 l -10.082,0.792 -73.296,5.618 -35.926,36.863 H 160.629 L 129.961,246.598 92.7344,240.98 v 0 c -0.2149,0 -6.7656,-1.007 -7.1992,-1.007 -2.3047,-0.36 -5.1836,-1.157 -7.3438,-2.52 -2.1601,-1.367 -3.6719,-3.238 -4.8242,-5.402 -1.2227,-2.156 -1.8008,-4.461 -2.1602,-6.77 v 0 l -3.6718,-28.722 v 0 c -0.2149,-1.731 -0.4297,-3.532 -0.4297,-5.258 0,-1.582 0.2148,-3.887 1.0039,-5.254 0.7969,-1.152 1.9453,-2.09 3.0976,-2.668 1.586,-0.649 3.0938,-1.004 4.8243,-1.004 v 0 h 26.4257 v 0 c 0.215,-1.59 0.574,-3.672 0.938,-5.262 1.003,-4.246 2.519,-8.347 4.89,-12.019 1.945,-3.457 4.469,-6.41 7.129,-9.074 1.586,-1.586 3.887,-3.309 5.688,-4.68 v 0 H 36.6445 v -33.406 h 72.3635 v 0 c -3.242,-3.672 -8.133,-9.071 -10.4377,-13.176 -3.0976,-5.4025 -4.8242,-11.6682 -4.8242,-17.8596 0,-6.7617 1.9414,-13.3906 5.3984,-19.0078 2.3045,-3.6718 6.7695,-8.4961 9.8635,-11.6601 v 0 L 0,56.2305 V 0 0" /><path
         id="path16"
         style="fill:#ffffff;fill-opacity:1;fill-rule:nonzero;stroke:none"
         d="m 176.688,182.301 h 181.007 v 0 c 0,-1.516 0.215,-3.887 0.575,-5.617 0.652,-4.106 1.945,-8.133 3.886,-11.805 1.946,-3.531 4.469,-6.84 7.782,-9.508 1.726,-1.367 4.675,-2.949 6.621,-4.101 v 0 H 157.105 v 0 c 1.942,1.582 4.676,3.671 6.407,5.253 2.879,2.879 5.398,5.829 7.562,9.29 2.156,3.527 3.672,7.414 4.676,11.449 0.363,1.582 0.719,3.672 0.938,5.039 v 0" /><path
         id="path18"
         style="fill:#ffffff;fill-opacity:1;fill-rule:nonzero;stroke:none"
         d="m 579.453,182.301 h 182.024 v 0 c 0.211,-1.731 0.359,-4.68 0.574,-6.406 0.574,-3.891 2.156,-7.563 3.887,-10.875 1.726,-3.239 4.035,-6.551 6.984,-9.075 1.726,-1.582 4.82,-3.523 6.766,-4.675 v 0 H 561.816 v 0 c 1.582,1.152 3.887,2.875 5.403,4.25 2.945,2.734 5.254,5.613 7.41,8.921 2.305,4.11 3.672,8.571 4.465,13.036 0.222,1.367 0.359,3.457 0.359,4.824 v 0" /><path
         id="path20"
         style="fill:#ffffff;fill-opacity:1;fill-rule:nonzero;stroke:none"
         d="m 154.223,117.934 h 39.172 v 0 c -2.52,-3.094 -5.977,-7.778 -7.922,-11.086 -3.532,-5.977 -6.047,-12.6058 -6.192,-19.5863 -0.218,-6.5586 1.508,-13.1797 4.821,-19.0078 2.164,-3.8906 6.41,-8.7109 9.293,-12.0234 v 0 h -39.172 v 0 c 2.882,3.3125 6.984,8.3515 9.144,12.2383 3.238,5.8281 5.184,12.2343 5.039,19.0078 0,6.4101 -2.156,12.9574 -5.472,18.6484 -2.082,3.672 -5.977,8.496 -8.711,11.809 v 0" /><path
         id="path22"
         style="fill:#ffffff;fill-opacity:1;fill-rule:nonzero;stroke:none"
         d="m 752.766,117.934 h 38.23 v 0 c -2.746,-3.672 -6.769,-9.145 -8.723,-13.176 -2.734,-5.6174 -4.316,-11.883 -4.097,-17.8596 0.359,-7.5625 2.879,-14.5468 7.34,-20.5898 2.382,-3.3086 6.632,-7.3438 9.504,-10.0781 v 0 h -42.254 v 0 c 3.093,3.0976 7.554,8.1328 9.859,11.8086 3.313,5.6836 4.895,12.2343 4.895,18.8593 0,5.9766 -1.004,12.2422 -3.887,17.6446 -2.305,4.246 -7.344,9.859 -10.867,13.391 v 0" /><path
         id="path24"
         style="fill:#ffffff;fill-opacity:1;fill-rule:nonzero;stroke:none"
         d="m 237.816,117.934 h 468.715 v 0 c -2.664,-3.094 -6.551,-7.563 -8.496,-11.086 -3.523,-5.977 -5.469,-12.6058 -5.613,-19.5863 -0.215,-6.5586 1.152,-13.1797 4.465,-19.0078 2.09,-3.8906 6.551,-8.9258 9.644,-12.0234 v 0 H 237.816 v 0 c 2.735,3.3125 6.985,8.3515 9.141,12.2383 3.242,5.8281 5.188,12.2343 5.043,19.0078 0,6.5507 -1.801,12.9574 -5.043,18.6484 -2.371,3.672 -6.406,8.496 -9.141,11.809 v 0" /></g></g></svg>