<?xml version="1.0" encoding="UTF-8" standalone="no"?>
<svg
   xmlns:dc="http://purl.org/dc/elements/1.1/"
   xmlns:cc="http://creativecommons.org/ns#"
   xmlns:rdf="http://www.w3.org/1999/02/22-rdf-syntax-ns#"
   xmlns:svg="http://www.w3.org/2000/svg"
   xmlns="http://www.w3.org/2000/svg"
   viewBox="0 0 109.45333 37.773335"
   height="37.773335"
   width="109.45333"
   xml:space="preserve"
   id="svg2"
   version="1.1"><metadata
     id="metadata8"><rdf:RDF><cc:Work
         rdf:about=""><dc:format>image/svg+xml</dc:format><dc:type
           rdf:resource="http://purl.org/dc/dcmitype/StillImage" /></cc:Work></rdf:RDF></metadata><defs
     id="defs6" /><g
     transform="matrix(1.3333333,0,0,-1.3333333,0,37.773333)"
     id="g10"><g
       transform="scale(0.1)"
       id="g12"><path
         id="path14"
         style="fill:#231f20;fill-opacity:1;fill-rule:nonzero;stroke:none"
         d="m 820.867,149.688 c -1.363,0.148 -1.219,-0.356 -4.742,0.148 -6.992,0.863 -13.32,-1.152 -19.66,-3.023 -8.36,-2.239 -17.5,-6.196 -25.203,-9.723 -5.469,-2.594 -10.871,-5.328 -15.981,-8.207 -0.867,-0.504 -2.449,-1.367 -3.238,-1.871 v 0 l 14.258,40.031 h -39.895 v 0 c 1.367,1.227 3.457,2.953 4.824,4.32 2.375,2.375 4.395,5.114 6.125,7.992 1.727,2.735 2.879,5.758 3.739,9 0.508,1.727 0.871,4.25 1.219,6.118 1.371,0 3.539,-0.141 5.121,0 1.648,0.363 3.738,0.863 5.254,2.09 1.218,1.007 2.019,2.375 2.593,3.886 0.5,1.731 0.5,4.324 0.5,5.977 v 0 23.183 0 c 0,2.594 -0.359,5.114 -1.367,7.493 -0.859,2.23 -2.234,4.316 -4.101,5.828 -2.09,1.73 -4.61,2.734 -7.208,3.238 -2.011,0.508 -7.121,0.863 -8.996,1.012 v 0 l -64.082,3.742 -32.898,32.398 h -128.02 l -26.929,-32.398 -39.028,-3.891 v 0 c -1.863,-0.215 -3.953,-0.5 -5.828,-1.078 -1.648,-0.289 -3.738,-1.008 -5.254,-2.16 -1.875,-1.223 -3.386,-3.242 -4.25,-5.324 -1.004,-2.164 -1.726,-4.758 -1.875,-7.344 v 0 l -2.078,-24.484 v 0 c -0.144,-1.727 -0.144,-3.598 0,-5.325 0.215,-1.371 0.352,-3.023 1.223,-4.109 0.855,-1.144 2.223,-1.871 3.594,-2.371 1.375,-0.363 3.894,-0.363 5.261,-0.363 v 0 h 18.575 v 0 c 0.363,-1.512 0.5,-3.524 0.859,-4.899 0.871,-3.957 2.234,-7.484 4.25,-10.941 1.875,-3.02 4.246,-5.762 7.129,-7.992 1.226,-1.223 3.242,-2.52 4.605,-3.598 v 0 h -98.636 v 0 c 1.656,1.367 4.035,3.242 5.617,4.824 2.379,2.156 4.246,4.75 5.761,7.629 1.368,2.738 2.586,5.477 3.239,8.356 0.5,1.871 1.008,4.753 1.367,6.621 0.863,0 2.09,0.215 2.738,0.215 2.016,0.363 3.957,1.152 5.469,2.378 1.152,1.004 2.016,2.379 2.52,3.887 0.722,1.945 0.863,4.32 0.863,6.336 v 0 21.82 0 c 0,2.879 -0.645,5.829 -2.012,8.207 -1.226,2.157 -3.242,4.102 -5.473,5.399 -2.378,1.367 -5.472,2.086 -8.211,2.594 v 0 l -8.855,0.504 -64.437,5.109 -31.321,32.398 H 148.965 L 121.82,250.922 89.1367,245.953 82.9453,245.16 v 0 c -2.164,-0.5 -4.7578,-1.078 -6.414,-2.23 -1.9415,-1.227 -3.4493,-2.879 -4.461,-4.969 -0.8633,-1.871 -1.5117,-3.742 -1.8711,-5.973 v 0 L 66.957,206.789 v 0 c -0.1406,-1.375 -0.1406,-3.098 -0.1406,-4.469 -0.2187,-1.507 0,-3.382 0.6445,-4.605 0.6485,-1.012 1.7266,-1.875 2.7383,-2.379 1.3672,-0.648 2.7344,-0.863 4.25,-0.863 v 0 h 23.1836 v 0 c 0.1406,-1.293 0.5039,-3.168 0.8633,-4.535 0.8633,-3.813 2.2309,-7.344 4.2459,-10.801 1.731,-2.883 3.961,-5.614 6.336,-7.989 1.371,-1.152 3.527,-2.878 4.899,-4.105 v 0 H 55.0039 l 10.9492,-35.781 -3.2422,1.508 v 0 c -6.6953,3.457 -16.5586,8.207 -23.6875,10.8 -8.3554,3.024 -17.207,5.254 -26.1367,5.903 C 9.35938,149.688 3.38281,149.688 0,149.688 v 0 -46.723 0 c 3.23828,0.215 8.63672,0 11.8789,-0.145 7.8477,-0.363 16.2031,-2.8825 23.6875,-5.8317 5.4727,-2.1641 18.5742,-8.5 24.0469,-11.0899 6.8437,-3.3867 15.5547,-7.2734 22.8242,-9.5 7.7031,-2.3828 15.6992,-3.75 23.9065,-3.75 8.133,0 16.488,1.1524 24.551,3.3868 8.496,2.5898 18.867,7.1992 26.71,10.9492 6.481,3.0156 18.579,8.8515 25.278,10.8672 8.851,2.8824 17.847,4.4644 27.285,4.4644 8.133,0.141 16.703,-0.867 24.48,-3.2418 6.696,-2.2344 17.786,-7.7031 24.047,-10.9492 7.848,-3.8867 18.285,-8.8477 26.641,-11.3672 8.641,-2.7422 17.711,-4.1094 26.711,-4.1094 9.07,0 18.07,1.3672 26.641,4.3946 5.761,1.875 21.453,9.9414 26.925,12.6758 6.77,3.3789 14.977,7.121 22.321,9.1406 8.496,2.5896 17.355,3.5976 26.207,3.4566 7.558,0 15.195,-1.007 22.324,-3.2418 7.051,-2.0859 16.203,-6.6953 22.676,-9.9336 6.339,-3.2422 16.562,-8.4961 23.183,-11.0156 8.215,-3.0937 17.071,-5.332 25.781,-5.4766 8.497,-0.2148 17.208,1.3672 25.411,3.75 7.785,2.3711 16.496,6.1133 23.839,9.7149 5.465,2.5195 19.071,9 24.696,10.875 9.719,3.4527 19.797,5.1137 29.875,5.3277 8.496,0.141 17.207,-0.722 25.34,-3.0972 6.992,-2.0157 16.922,-6.8399 23.41,-10.0782 7.262,-3.75 18.211,-9.0039 25.84,-11.5898 8.718,-2.8828 17.793,-4.7578 26.785,-4.9024 8,-0.2148 16.203,0.8672 23.906,3.0274 7.273,1.875 15.481,5.4687 22.461,8.5625 2.598,1.1523 19.805,9.2187 22.539,10.2305 7.629,3.0234 15.984,5.6132 24.191,6.8402 4.102,0.504 10.223,0.793 14.469,1.007 v 0 47.372 0" /><path
         id="path16"
         style="fill:#231f20;fill-opacity:1;fill-rule:nonzero;stroke:none"
         d="m 820.867,77.2578 c -1.363,0 -3.379,0 -4.742,0 -6.34,-0.2148 -13.469,-1.7305 -19.66,-3.7422 -8.496,-2.5976 -17.207,-6.1914 -25.203,-9.9414 -4.25,-1.8633 -20.801,-9.5 -25.199,-11.2304 -9.215,-3.2422 -18.934,-5.1055 -28.661,-5.1055 -7.695,0 -15.476,1.2187 -23.039,3.2422 -6.98,2.2265 -15.625,5.9648 -22.461,9.207 -6.336,3.0977 -19.937,9.5039 -26.785,11.9531 -9.355,3.2422 -19.219,5.2539 -29.16,5.4024 -9.863,0 -19.941,-2.0117 -29.309,-5.1094 -8.132,-2.5195 -17.207,-6.2695 -25.191,-10.0078 -5.832,-2.7344 -19.301,-8.8594 -25.273,-10.7344 -8.86,-2.9492 -18.215,-4.4609 -27.579,-3.9531 -7.343,0.4961 -14.835,2.3711 -21.816,4.9609 -7.199,2.5196 -15.551,6.4844 -22.316,9.7266 -5.828,2.8789 -17.071,8.3476 -23.184,10.3594 -8.855,3.0976 -18.074,4.7578 -27.644,4.7578 -9.219,-0.1485 -18.582,-2.0117 -27.438,-4.8946 -7.344,-2.5976 -18.574,-7.8515 -25.562,-11.4531 -6.481,-3.2344 -16.055,-7.6289 -23.184,-9.8633 -7.988,-2.375 -16.344,-3.5937 -24.91,-3.5937 -8.352,0 -16.488,1.2187 -24.551,3.3789 -7.996,2.2344 -16.492,5.9766 -23.977,9.7266 -5.328,2.5859 -21.168,10.4375 -26.781,12.3046 -9.219,3.0274 -18.941,4.3946 -28.656,4.3946 -7.856,-0.1485 -15.844,-1.3672 -23.473,-3.5274 -8.066,-2.2343 -17.57,-6.6992 -25.058,-10.4375 -6.332,-3.2422 -18.938,-9.5039 -25.629,-11.5937 -8.356,-2.8789 -17.207,-4.2461 -26.067,-4.2461 -7.847,0 -15.8395,1.0039 -23.4723,3.2422 C 78.4063,52.4922 68.832,57.1016 62.7109,60.1953 55.8672,63.5742 46.293,68.3984 39.0234,70.918 30.668,74.0156 21.8164,76.25 12.8867,76.8945 9.35938,77.043 4.25,77.043 0.644531,77.043 v 0 -46.6602 0 C 3.88672,30.5273 8.63672,30.3828 11.8789,30.168 19.7266,29.8828 28.082,27.2852 35.5664,24.4141 41.0391,22.1797 54.1406,15.8398 59.6133,13.3203 66.457,9.94141 75.168,5.97656 82.4375,3.75 90.1406,1.36719 98.1367,0 106.344,0 c 8.133,0 16.488,1.23047 24.551,3.45703 8.496,2.51953 18.867,7.12887 26.71,10.87107 6.481,3.0938 18.579,8.8555 25.278,10.9453 8.851,2.8829 17.847,4.3946 27.285,4.6094 8.133,0 16.703,-0.8672 24.48,-3.457 6.696,-2.0117 17.926,-7.6367 24.047,-10.8672 C 266.758,11.4453 276.77,6.69922 285.336,4.10156 293.977,1.36719 303.047,0 312.047,0 c 9.07,0 18.07,1.36719 26.641,4.46484 5.761,1.875 21.453,9.86326 26.925,12.60546 6.77,3.3789 14.977,7.1992 22.321,9.211 8.496,2.5195 17.355,3.75 26.207,3.6015 7.558,-0.2148 15.195,-1.2187 22.324,-3.457 7.051,-2.0117 16.203,-6.6211 22.676,-9.8633 C 465.48,13.3203 475.703,8.06641 482.324,5.48047 490.539,2.375 499.395,0.214844 508.105,0 c 8.497,-0.144531 17.208,1.36719 25.411,3.75 7.785,2.44141 16.496,6.19141 23.839,9.7188 5.614,2.5859 19.071,9.0703 24.696,10.9453 9.719,3.3789 19.797,5.2539 29.875,5.4687 8.496,0.1485 17.207,-0.8672 25.34,-3.2422 6.992,-2.0898 16.922,-6.8359 23.41,-10.0781 7.262,-3.6016 18.211,-9.07031 25.84,-11.58984 C 695.234,2.08984 704.309,0.214844 713.301,0 c 8.215,-0.144531 16.203,0.871094 23.906,3.09766 7.129,1.875 15.625,5.47656 22.461,8.49614 3.605,1.7265 18.801,8.7109 22.539,10.2226 7.629,3.0977 15.984,5.6172 24.191,6.8477 4.102,0.4961 10.223,0.8593 14.469,1.0039 v 0 47.5898 0" /><path
         id="path18"
         style="fill:#ffffff;fill-opacity:1;fill-rule:nonzero;stroke:none"
         d="m 516.965,194.473 h 159.683 v 0 c 0.149,-1.727 0.364,-4.102 0.727,-5.762 0.508,-3.234 1.656,-6.477 3.238,-9.574 1.516,-2.883 3.528,-5.614 6.125,-7.848 1.653,-1.367 4.246,-3.019 6.114,-4.246 v 0 h -191.59 v 0 c 1.367,1.227 3.386,2.734 4.754,3.887 2.375,2.23 4.824,4.968 6.472,7.703 2.094,3.601 3.242,7.492 3.969,11.594 0.145,1.222 0.281,3.093 0.508,4.246 v 0" /><path
         id="path20"
         style="fill:#ffffff;fill-opacity:1;fill-rule:nonzero;stroke:none"
         d="M 162.934,194.473 H 321.98 v 0 c 0.149,-1.368 0.149,-3.598 0.504,-4.965 0.508,-3.531 1.657,-7.129 3.532,-10.371 1.726,-3.239 3.961,-6.117 6.695,-8.352 1.512,-1.152 4.105,-2.738 5.762,-3.742 v 0 H 145.867 v 0 c 1.516,1.367 3.895,3.242 5.477,4.75 2.519,2.379 4.75,5.113 6.625,8.066 1.871,3.239 3.238,6.621 4.101,10.223 0.364,1.156 0.649,3.023 0.864,4.391 v 0" /></g></g></svg>