<?xml version="1.0" encoding="UTF-8" standalone="no"?>
<svg
   xmlns:dc="http://purl.org/dc/elements/1.1/"
   xmlns:cc="http://creativecommons.org/ns#"
   xmlns:rdf="http://www.w3.org/1999/02/22-rdf-syntax-ns#"
   xmlns:svg="http://www.w3.org/2000/svg"
   xmlns="http://www.w3.org/2000/svg"
   viewBox="0 0 37.759998 37.786667"
   height="37.786667"
   width="37.759998"
   xml:space="preserve"
   id="svg2"
   version="1.1"><metadata
     id="metadata8"><rdf:RDF><cc:Work
         rdf:about=""><dc:format>image/svg+xml</dc:format><dc:type
           rdf:resource="http://purl.org/dc/dcmitype/StillImage" /></cc:Work></rdf:RDF></metadata><defs
     id="defs6" /><g
     transform="matrix(1.3333333,0,0,-1.3333333,0,37.786667)"
     id="g10"><g
       transform="scale(0.1)"
       id="g12"><path
         id="path14"
         style="fill:#231f20;fill-opacity:1;fill-rule:nonzero;stroke:none"
         d="m 211.266,79.9531 -66.93,38.6409 V 82.9219 h -0.004 v 0 c 0,-1.8946 -1.535,-3.4297 -3.43,-3.4297 -0.625,0 -1.211,0.168 -1.718,0.4609 v 0 0 L 72.2617,118.59 v -35.6681 0 0 c 0,-1.8867 -1.5429,-3.4297 -3.4375,-3.4297 -0.625,0 -1.2187,0.168 -1.7187,0.4609 v 0 L 0,118.418 V 0 h 283.168 l 0.02,79.9531 -66.934,38.6409 v -35.6721 0 0 c 0,-1.8946 -1.531,-3.4297 -3.438,-3.4297 -0.625,0 -1.062,0.1367 -1.55,0.4609 v 0" /><path
         id="path16"
         style="fill:#231f20;fill-opacity:1;fill-rule:nonzero;stroke:none"
         d="m 199.098,96.8398 -5.676,164.3082 -15.731,-0.132 -7.773,-147.399 29.18,-16.7772" /><path
         id="path18"
         style="fill:#231f20;fill-opacity:1;fill-rule:nonzero;stroke:none"
         d="M 121.836,99.9414 116.211,283.395 H 100.367 L 92.6602,116.715 121.836,99.9414" /><path
         id="path20"
         style="fill:#ffffff;fill-opacity:1;fill-rule:nonzero;stroke:none"
         d="M 25.7031,25.918 H 85.7656 V 51.6993 H 25.7031 Z" /><path
         id="path22"
         style="fill:#ffffff;fill-opacity:1;fill-rule:nonzero;stroke:none"
         d="m 171.664,51.6602 -60.066,0.039 V 25.918 h 60.066 v 25.7422" /><path
         id="path24"
         style="fill:#ffffff;fill-opacity:1;fill-rule:nonzero;stroke:none"
         d="M 257.484,51.6992 V 25.918 h -60.066 v 25.7539 l 60.066,0.0273" /></g></g></svg>