<?xml version="1.0" encoding="UTF-8" standalone="no"?>
<svg
   xmlns:dc="http://purl.org/dc/elements/1.1/"
   xmlns:cc="http://creativecommons.org/ns#"
   xmlns:rdf="http://www.w3.org/1999/02/22-rdf-syntax-ns#"
   xmlns:svg="http://www.w3.org/2000/svg"
   xmlns="http://www.w3.org/2000/svg"
   viewBox="0 0 56.693333 56.693333"
   height="56.693333"
   width="56.693333"
   xml:space="preserve"
   id="svg2"
   version="1.1"><metadata
     id="metadata8"><rdf:RDF><cc:Work
         rdf:about=""><dc:format>image/svg+xml</dc:format><dc:type
           rdf:resource="http://purl.org/dc/dcmitype/StillImage" /></cc:Work></rdf:RDF></metadata><defs
     id="defs6" /><g
     transform="matrix(1.3333333,0,0,-1.3333333,0,56.693333)"
     id="g10"><g
       transform="scale(0.1)"
       id="g12"><path
         id="path14"
         style="fill:#1a67bb;fill-opacity:1;fill-rule:nonzero;stroke:none"
         d="M 0,0 V 425.195 H 425.207 V 0 H 0 m 164.414,383.574 v 0 -86.433 L 90.1445,340.344 41.7266,255.809 115.809,212.617 41.7266,169.414 90.1445,84.9219 164.414,128.125 V 41.7188 h 96.445 v 86.4062 l 74.309,-43.2031 48.418,84.4921 -74.309,43.203 74.309,43.192 -48.418,84.535 -74.309,-43.203 v 86.433 h -96.445 m 64.805,-160.156 0.566,11.621 h -2.293 l -0.551,-11.621 h 2.278 m -14.446,-48.605 -0.574,17.386 -2.332,-0.219 0.606,-17.167 h 2.3 m 10.586,-40.106 0.754,14.621 h -2.297 l -0.546,-14.621 h 2.089 m -3.054,-26.023 0.754,2.265 1.941,5.977 1.113,2.918 1.192,2.879 1.152,3.125 3.059,5.949 3.132,6.191 0.938,1.731 0.793,1.726 0.398,1.368 0.364,1.542 0.211,1.516 v 1.188 l -0.211,1.371 -0.364,1.113 -0.398,1.148 -0.578,1.196 -0.617,0.965 -0.75,0.976 -1.727,2.09 -2.309,1.941 -4.285,3.637 -1.718,1.543 0.214,2.129 0.536,14.473 0.617,14.285 0.578,13.508 11.406,12.312 1.336,1.797 1.367,1.875 0.352,0.82 0.402,0.907 0.36,0.968 0.39,0.828 0.227,0.903 0.133,0.972 v 0.969 l 0.226,0.754 -0.226,1.953 -0.36,1.942 -0.535,1.582 -0.832,1.73 -1.113,1.727 -1.18,1.73 -1.379,1.543 -1.73,1.512 -1.864,1.367 -1.941,1.34 -3.535,2.117 0.222,2.305 0.606,14.687 0.547,14.649 0.566,15.047 0.762,15.238 0.617,15.84 -1.379,1.941 -1.504,1.727 -1.34,1.543 -1.363,1.156 -1.543,0.973 -1.367,0.578 -0.578,0.39 h -0.762 l -0.75,0.149 h -0.617 -0.75 l -0.578,-0.149 h -0.762 l -0.828,-0.39 -1.328,-0.578 -1.367,-0.973 -1.516,-1.156 -1.328,-1.543 -1.582,-1.727 -1.336,-1.941 0.359,-9.075 1.368,0.215 1.945,-0.215 1.941,-0.398 1.942,-0.363 1.73,-0.965 1.875,-1.156 1.797,-1.188 1.516,-1.515 1.55,-1.727 1.368,-2.16 v 0 l 0.75,-1.113 0.363,-1.192 0.617,-1.367 0.359,-1.113 0.215,-1.368 v -1.191 -1.113 l -0.437,-1.367 -0.754,-1.336 -0.977,-1.157 -0.968,-0.789 -1.512,-0.535 -1.328,-0.219 h -1.367 l -1.336,0.219 -1.372,0.535 v 0 l -1.187,0.364 -1.113,0.425 -1.157,0.403 -1.179,0.148 -0.977,0.215 h -1.113 -0.977 -0.605 l 1.367,-37.402 -0.398,0.359 -0.969,0.606 -0.977,0.761 -0.898,0.969 -0.977,0.973 -0.968,0.968 -0.829,1.114 -0.898,1.152 -0.828,1.34 -1.731,2.695 -1.328,2.703 -1.367,2.91 -1.121,3.098 -0.609,1.551 -0.36,1.367 -0.398,1.516 v 1.328 l -0.215,1.367 v 1.336 l 0.215,1.18 v 1.156 l 0.398,1.187 0.36,1.114 0.394,0.98 0.574,0.965 0.618,0.977 0.535,0.964 0.793,0.766 0.758,0.602 0.753,0.765 0.977,0.574 0.969,0.391 1.152,0.547 0.977,0.43 0.964,0.148 1.192,0.215 1.328,0.176 h 1.152 1.121 l 1.368,-0.176 h 1.332 l 1.191,-0.215 1.363,-0.363 1.328,-0.617 1.372,-0.536 0.976,-0.214 0.75,-0.215 0.762,-0.145 0.578,0.145 0.602,0.215 0.363,0.39 0.402,0.36 0.215,0.617 0.145,0.578 v 0.75 0.617 0.75 l -0.36,0.977 -0.402,0.964 -0.215,0.766 -0.75,1.18 -1.125,1.512 -1.184,1.554 -1.363,1.367 -1.34,0.969 -1.515,0.906 -1.368,0.606 -1.543,0.363 -1.582,0.215 -1.511,0.184 -1.551,-0.184 -1.516,-0.215 -1.582,-0.363 -1.726,-0.606 -1.328,-0.546 -1.731,-0.793 -1.582,-0.934 -2.488,-1.543 -2.524,-1.945 -2.117,-1.727 -1.941,-1.945 -1.516,-1.914 -1.555,-2.16 -1.148,-1.875 -0.969,-2.157 -0.976,-2.336 -0.364,-1.875 -0.601,-2.343 v -2.078 l -0.215,-2.168 0.215,-2.336 0.215,-2.086 0.535,-2.129 0.617,-2.305 0.574,-2.121 0.754,-2.156 1.192,-1.875 0.937,-2.16 1.18,-2.129 1.34,-1.719 1.367,-1.953 1.328,-1.719 1.727,-1.73 1.582,-1.727 1.515,-1.77 1.727,-1.363 1.73,-1.34 1.766,-1.367 1.906,-1.328 v 0 l 3.133,-1.902 3.055,-1.946 0.98,-0.574 1.363,-35.715 -1.797,-1.726 -2.488,-2.707 -1.328,-1.114 -1.191,-1.367 -1.153,-1.34 -0.968,-1.363 -0.973,-1.328 -0.754,-1.367 -0.574,-1.328 -0.762,-1.379 -0.394,-1.328 -0.575,-1.368 -0.398,-1.328 -0.215,-1.379 -0.148,-1.543 v -1.363 -1.328 -1.379 l 0.363,-1.328 0.215,-1.367 0.398,-1.336 0.36,-1.367 0.609,-1.328 0.547,-1.586 0.789,-1.336 0.754,-1.367 0.972,-1.512 0.754,-1.328 1.153,-1.582 1.191,-1.332 2.481,-2.703 2.703,-2.879 2.304,-2.161 2.91,-68.4761 h 3.458 v 0 l 0.617,15.6251 v 3.137 0 M 7.59766,417.707 v 0 V 7.59766 H 417.715 V 417.707 H 7.59766" /></g></g></svg>