<?xml version="1.0" encoding="UTF-8" standalone="no"?>
<svg
   xmlns:dc="http://purl.org/dc/elements/1.1/"
   xmlns:cc="http://creativecommons.org/ns#"
   xmlns:rdf="http://www.w3.org/1999/02/22-rdf-syntax-ns#"
   xmlns:svg="http://www.w3.org/2000/svg"
   xmlns="http://www.w3.org/2000/svg"
   viewBox="0 0 41.386665 75.58667"
   height="75.58667"
   width="41.386665"
   xml:space="preserve"
   id="svg2"
   version="1.1"><metadata
     id="metadata8"><rdf:RDF><cc:Work
         rdf:about=""><dc:format>image/svg+xml</dc:format><dc:type
           rdf:resource="http://purl.org/dc/dcmitype/StillImage" /></cc:Work></rdf:RDF></metadata><defs
     id="defs6" /><g
     transform="matrix(1.3333333,0,0,-1.3333333,0,75.586667)"
     id="g10"><g
       transform="scale(0.1)"
       id="g12"><path
         id="path14"
         style="fill:#ee2c30;fill-opacity:1;fill-rule:nonzero;stroke:none"
         d="m 152.262,546.23 v -29.515 h 30.226 l -0.683,-72.754 v 0 c -20.867,-9.106 -35.45,-29.879 -35.45,-54.176 v 0 -330.7537 0 C 146.355,26.4258 172.773,0 205.383,0 c 32.566,0 59.015,26.4258 59.015,59.0313 v 0 l 0.184,330.4647 v 0 c 0,24.266 -14.793,45.824 -35.664,54.859 v 0 l 0.031,72.391 h 17.746 l 21.235,-40.133 h 42.461 L 267.93,546.266 152.262,546.23 v 0" /><path
         id="path16"
         style="fill:#ee2c30;fill-opacity:1;fill-rule:nonzero;stroke:none"
         d="M 129.879,531.469 0,496.051 v 70.879 l 129.879,-35.461" /></g></g></svg>