<?xml version="1.0" encoding="UTF-8" standalone="no"?>
<svg
   xmlns:dc="http://purl.org/dc/elements/1.1/"
   xmlns:cc="http://creativecommons.org/ns#"
   xmlns:rdf="http://www.w3.org/1999/02/22-rdf-syntax-ns#"
   xmlns:svg="http://www.w3.org/2000/svg"
   xmlns="http://www.w3.org/2000/svg"
   viewBox="0 0 173.85333 105.89333"
   height="105.89333"
   width="173.85333"
   xml:space="preserve"
   id="svg2"
   version="1.1"><metadata
     id="metadata8"><rdf:RDF><cc:Work
         rdf:about=""><dc:format>image/svg+xml</dc:format><dc:type
           rdf:resource="http://purl.org/dc/dcmitype/StillImage" /></cc:Work></rdf:RDF></metadata><defs
     id="defs6" /><g
     transform="matrix(1.3333333,0,0,-1.3333333,0,105.89333)"
     id="g10"><g
       transform="scale(0.1)"
       id="g12"><path
         id="path14"
         style="fill:#bdbcbc;fill-opacity:1;fill-rule:nonzero;stroke:none"
         d="M 0,794.16 H 1303.92 V 405.359 H 0 v 388.801 0 0" /><path
         id="path16"
         style="fill:#bdbcbc;fill-opacity:1;fill-rule:nonzero;stroke:none"
         d="M 1303.92,385.199 H 0 V 0 h 1303.92 v 385.199 0" /><path
         id="path18"
         style="fill:#ffffff;fill-opacity:1;fill-rule:nonzero;stroke:none"
         d="M 768.242,367.203 H 888.48 V 346.316 H 768.242 v 20.887 0 0" /><path
         id="path20"
         style="fill:#ffffff;fill-opacity:1;fill-rule:nonzero;stroke:none"
         d="m 1126.8,367.203 h 121.68 V 346.316 H 1126.8 v 20.887 0 0" /><path
         id="path22"
         style="fill:#ffffff;fill-opacity:1;fill-rule:nonzero;stroke:none"
         d="M 47.5195,444.961 V 424.082 H 167.039 v 20.879 H 47.5195 v 0 0" /><path
         id="path24"
         style="fill:#ffffff;fill-opacity:1;fill-rule:nonzero;stroke:none"
         d="m 406.078,444.961 v -20.879 h 121.68 v 20.879 h -121.68 v 0 0" /><path
         id="path26"
         style="fill:#231f20;fill-opacity:1;fill-rule:nonzero;stroke:none"
         d="m 38.1641,61.918 v 5.7617 c 0,5.0391 4.3164,9.3594 9.3554,9.3594 3.6016,0 6.4844,-2.1602 7.918,-5.0352 v 0 h 10.8008 v 0 c -2.8789,8.6367 -9.3516,14.3984 -18.7188,14.3984 -10.8007,0 -19.4336,-8.6445 -19.4336,-20.164 v 0 -17.9961 0 c 0,-7.2031 1.4336,-10.8008 4.3164,-14.4024 3.6055,-4.3203 9.3555,-5.7578 14.4063,-5.7578 10.7891,0 20.1562,7.918 20.1562,18.7188 0,10.7969 -8.6445,18.7187 -18,18.7187 -3.6054,0 -7.9179,-1.4375 -10.8007,-3.6015 v 0" /><path
         id="path28"
         style="fill:#231f20;fill-opacity:1;fill-rule:nonzero;stroke:none"
         d="m 76.3164,28.8008 h 9.3672 v 8.6406 l -9.3672,0.7188 v -9.3594 0" /><path
         id="path30"
         style="fill:#231f20;fill-opacity:1;fill-rule:nonzero;stroke:none"
         d="m 113.047,28.082 c 0.715,0 0.715,0 1.433,0 10.801,0 18.723,7.918 18.723,17.9961 v 0 20.8789 0 c 0,5.7618 -1.445,10.0821 -5.039,13.6836 -4.324,3.5977 -8.644,5.7617 -13.684,5.7617 -12.234,0 -18.7183,-10.8007 -18.7183,-19.4453 v 0 -20.1562 0 c 0,-5.7617 1.4453,-10.082 5.0393,-13.6797 4.328,-4.3203 7.922,-5.0391 12.246,-5.0391 v 0" /><path
         id="path32"
         style="fill:#231f20;fill-opacity:1;fill-rule:nonzero;stroke:none"
         d="m 139.68,38.8828 h 26.636 v -10.082 h 10.09 v 10.082 h 5.039 v 9.3594 h -4.328 V 84.9609 H 164.883 L 139.68,48.2422 v -9.3594 0" /><path
         id="path34"
         style="fill:#bdbcbc;fill-opacity:1;fill-rule:nonzero;stroke:none"
         d="m 113.762,36.7188 c -5.039,0 -8.633,3.6015 -8.633,8.6406 v 0 21.5976 0 c 0,5.7618 4.312,10.0821 9.351,10.0821 5.04,0 8.645,-4.3203 8.645,-9.3594 v 0 -22.3203 0 c 0,-4.3203 -3.605,-8.6406 -9.363,-8.6406 v 0" /><path
         id="path36"
         style="fill:#bdbcbc;fill-opacity:1;fill-rule:nonzero;stroke:none"
         d="m 151.926,48.2422 14.39,20.8789 V 48.2422 h -14.39 v 0" /><path
         id="path38"
         style="fill:#bdbcbc;fill-opacity:1;fill-rule:nonzero;stroke:none"
         d="m 46.8086,36.7188 c -5.0508,0 -8.6445,3.6015 -8.6445,9.3593 0,6.4805 4.3164,10.0821 9.3554,10.0821 5.0391,0 8.6407,-3.6016 8.6407,-9.3594 0,-6.4805 -4.3125,-10.082 -9.3516,-10.082 v 0" /></g></g></svg>