<?xml version="1.0" encoding="UTF-8" standalone="no"?>
<svg
   xmlns:dc="http://purl.org/dc/elements/1.1/"
   xmlns:cc="http://creativecommons.org/ns#"
   xmlns:rdf="http://www.w3.org/1999/02/22-rdf-syntax-ns#"
   xmlns:svg="http://www.w3.org/2000/svg"
   xmlns="http://www.w3.org/2000/svg"
   viewBox="0 0 173.85333 105.89333"
   height="105.89333"
   width="173.85333"
   xml:space="preserve"
   id="svg2"
   version="1.1"><metadata
     id="metadata8"><rdf:RDF><cc:Work
         rdf:about=""><dc:format>image/svg+xml</dc:format><dc:type
           rdf:resource="http://purl.org/dc/dcmitype/StillImage" /></cc:Work></rdf:RDF></metadata><defs
     id="defs6" /><g
     transform="matrix(1.3333333,0,0,-1.3333333,0,105.89333)"
     id="g10"><g
       transform="scale(0.1)"
       id="g12"><path
         id="path14"
         style="fill:#bdbcbc;fill-opacity:1;fill-rule:nonzero;stroke:none"
         d="M 0,794.16 V 0 H 1303.92 V 384.48 H 637.203 v 20.879 H 1303.92 V 794.16 H 0 v 0 0" /><path
         id="path16"
         style="fill:#ffffff;fill-opacity:1;fill-rule:nonzero;stroke:none"
         d="M 55.4375,405.359 H 118.082 V 384.48 H 55.4375 v 20.879 0 0" /><path
         id="path18"
         style="fill:#ffffff;fill-opacity:1;fill-rule:nonzero;stroke:none"
         d="M 172.797,405.359 H 234 V 384.48 h -61.203 v 20.879 0 0" /><path
         id="path20"
         style="fill:#ffffff;fill-opacity:1;fill-rule:nonzero;stroke:none"
         d="m 288.723,405.359 h 61.199 V 384.48 h -61.199 v 20.879 0 0" /><path
         id="path22"
         style="fill:#ffffff;fill-opacity:1;fill-rule:nonzero;stroke:none"
         d="M 405.359,405.359 H 465.84 V 384.48 h -60.481 v 20.879 0 0" /><path
         id="path24"
         style="fill:#ffffff;fill-opacity:1;fill-rule:nonzero;stroke:none"
         d="m 521.277,405.359 h 60.481 V 384.48 h -60.481 v 20.879 0" /><path
         id="path26"
         style="fill:#231f20;fill-opacity:1;fill-rule:nonzero;stroke:none"
         d="m 38.8867,61.918 v 5.7617 c 0,5.0391 3.5938,9.3594 8.6328,9.3594 3.6016,0 6.4844,-2.1602 7.918,-5.0352 v 0 h 10.8008 v 0 c -2.1563,8.6367 -9.3516,14.3984 -17.9961,14.3984 -11.5234,0 -20.1563,-8.6445 -20.1563,-20.164 v 0 -17.9961 0 c 0,-7.2031 2.1563,-10.8008 5.0391,-14.4024 2.8828,-4.3203 8.6328,-5.7578 14.3945,-5.7578 10.8008,0 19.4453,7.918 19.4453,18.7188 0,10.7969 -7.9218,18.7187 -17.2851,18.7187 -4.3203,0 -7.9219,-1.4375 -10.793,-3.6015 v 0" /><path
         id="path28"
         style="fill:#231f20;fill-opacity:1;fill-rule:nonzero;stroke:none"
         d="m 113.762,28.082 h 0.718 c 10.801,0 19.446,7.918 19.446,17.9961 v 0 20.8789 0 c 0,5.7618 -1.446,10.0821 -5.762,13.6836 -3.601,3.5977 -7.922,5.7617 -13.684,5.7617 -11.519,0 -18.7183,-10.8007 -18.7183,-19.4453 v 0 -20.1562 0 c 0,-5.7617 2.1602,-10.082 5.7613,-13.6797 3.606,-4.3203 7.2,-5.0391 12.239,-5.0391 v 0" /><path
         id="path30"
         style="fill:#231f20;fill-opacity:1;fill-rule:nonzero;stroke:none"
         d="m 142.559,43.1992 c 1.445,-9.3594 9.367,-15.1172 19.445,-15.1172 3.601,0 7.195,0.7188 10.801,2.1563 5.758,3.6015 8.64,10.082 8.64,16.5625 0,11.5195 -7.922,19.4375 -19.441,19.4375 -2.16,0 -5.039,0 -7.199,-0.7188 v 0 10.0821 h 23.039 v 9.3593 h -33.84 V 52.5586 h 10.801 v 0 c 1.433,2.8789 4.316,4.3203 7.199,4.3203 5.035,0 9.363,-3.5976 9.363,-9.3594 v 0 -2.1601 0 c 0,-4.3203 -4.328,-8.6406 -9.363,-8.6406 -4.316,0 -7.922,2.8828 -8.645,6.4804 v 0 h -10.8 v 0" /><path
         id="path32"
         style="fill:#231f20;fill-opacity:1;fill-rule:nonzero;stroke:none"
         d="m 76.3164,28.8008 h 9.3672 v 8.6406 l -9.3672,0.7188 v -9.3594 0" /><path
         id="path34"
         style="fill:#bdbcbc;fill-opacity:1;fill-rule:nonzero;stroke:none"
         d="m 114.48,36.7188 c -5.039,0 -9.351,3.6015 -9.351,8.6406 v 0 21.5976 0 c 0,5.7618 4.312,10.0821 9.351,10.0821 5.04,0 9.36,-4.3203 9.36,-9.3594 v 0 -22.3203 0 c 0,-4.3203 -4.32,-8.6406 -9.36,-8.6406 v 0" /><path
         id="path36"
         style="fill:#bdbcbc;fill-opacity:1;fill-rule:nonzero;stroke:none"
         d="m 47.5195,36.7188 c -5.039,0 -9.3554,3.6015 -9.3554,9.3593 0,6.4805 4.3164,10.0821 9.3554,10.0821 5.0391,0 9.3672,-3.6016 9.3672,-9.3594 0,-6.4805 -4.3281,-10.082 -9.3672,-10.082 v 0" /></g></g></svg>