<?xml version="1.0" encoding="UTF-8" standalone="no"?>
<svg
   xmlns:dc="http://purl.org/dc/elements/1.1/"
   xmlns:cc="http://creativecommons.org/ns#"
   xmlns:rdf="http://www.w3.org/1999/02/22-rdf-syntax-ns#"
   xmlns:svg="http://www.w3.org/2000/svg"
   xmlns="http://www.w3.org/2000/svg"
   viewBox="0 0 173.85333 105.78667"
   height="105.78667"
   width="173.85333"
   xml:space="preserve"
   id="svg2"
   version="1.1"><metadata
     id="metadata8"><rdf:RDF><cc:Work
         rdf:about=""><dc:format>image/svg+xml</dc:format><dc:type
           rdf:resource="http://purl.org/dc/dcmitype/StillImage" /></cc:Work></rdf:RDF></metadata><defs
     id="defs6" /><g
     transform="matrix(1.3333333,0,0,-1.3333333,0,105.78667)"
     id="g10"><g
       transform="scale(0.1)"
       id="g12"><path
         id="path14"
         style="fill:#bdbcbc;fill-opacity:1;fill-rule:nonzero;stroke:none"
         d="M 0,793.438 H 1303.92 V 272.156 H 0 v 521.282 0 0" /><path
         id="path16"
         style="fill:#bdbcbc;fill-opacity:1;fill-rule:nonzero;stroke:none"
         d="M 1303.92,251.277 V 0 H 0 v 251.277 h 1303.92 v 0" /><path
         id="path18"
         style="fill:#fcd213;fill-opacity:1;fill-rule:nonzero;stroke:none"
         d="M 57.5977,529.199 V 510.477 H 314.641 v 18.722 H 57.5977 v 0 0" /><path
         id="path20"
         style="fill:#fcd213;fill-opacity:1;fill-rule:nonzero;stroke:none"
         d="m 375.84,529.199 v -18.722 h 252.004 v 18.722 H 375.84 v 0 0" /><path
         id="path22"
         style="fill:#fcd213;fill-opacity:1;fill-rule:nonzero;stroke:none"
         d="m 689.035,529.199 v -18.722 h 252 v 18.722 h -252 v 0 0" /><path
         id="path24"
         style="fill:#fcd213;fill-opacity:1;fill-rule:nonzero;stroke:none"
         d="m 1002.24,529.199 v -18.722 h 252 v 18.722 h -252 v 0 0" /><path
         id="path26"
         style="fill:#fcd213;fill-opacity:1;fill-rule:nonzero;stroke:none"
         d="m 406.797,560.879 v 39.598 c 0,12.238 -17.274,22.316 -48.242,25.918 -9.356,1.449 -18.719,1.449 -28.075,1.449 -1.445,0 -2.16,0 -3.605,0 v 0 h -28.797 v 0 c -25.195,0 -44.64,-2.883 -53.996,-12.969 -9.363,6.48 -25.926,11.52 -57.605,11.52 v 0 h -27.356 v 0 c -61.9218,0 -74.8827,-20.157 -74.8827,-28.797 v 0 -36.719 H 406.797 v 0" /><path
         id="path28"
         style="fill:#fcd213;fill-opacity:1;fill-rule:nonzero;stroke:none"
         d="M 84.2383,636.473 H 326.875 v 0 c 51.848,0 83.527,12.961 83.527,31.679 0,18.723 -33.847,32.403 -81.367,32.403 v 0 H 84.2383 V 682.559 H 319.68 v 0 c 19.441,0 23.758,-0.723 28.797,-1.446 13.683,-2.156 22.324,-7.195 22.324,-12.961 0,-5.039 -8.641,-10.078 -22.324,-12.957 -6.473,-0.715 -10.801,-0.715 -27.364,-0.715 v 0 H 84.2383 v -18.007 0" /><path
         id="path30"
         style="fill:#fcd213;fill-opacity:1;fill-rule:nonzero;stroke:none"
         d="m 315.363,706.316 c 56.875,-2.156 97.918,13.684 97.918,33.118 0,18.007 -36.726,32.402 -82.801,32.402 -28.8,0 -48.964,-5.762 -72.726,-13.684 v 0 l -74.871,-27.351 v 0 c -7.922,-3.606 -16.563,-4.328 -23.047,-4.328 -18,0 -31.68,5.761 -31.68,12.961 0,6.484 12.957,12.246 30.242,12.968 v 0 l 1.438,17.274 v 0 c -43.918,0 -78.4766,-14.403 -78.4766,-30.242 0,-17.278 35.9956,-30.957 78.4766,-30.957 19.441,0 37.441,2.878 58.32,10.078 v 0 l 84.246,30.246 v 0 c 9.356,3.601 18,5.039 27.356,5.039 20.879,0 37.441,-6.488 37.441,-14.406 0,-9.356 -17.277,-15.84 -50.402,-14.395 v 0 l -1.434,-18.723 v 0" /><path
         id="path32"
         style="fill:#fcd213;fill-opacity:1;fill-rule:nonzero;stroke:none"
         d="m 1230.48,560.879 v 39.598 c 0,12.238 -17.28,22.316 -48.24,25.918 -9.36,1.449 -18.72,1.449 -28.08,1.449 -1.45,0 -2.16,0 -3.6,0 v 0 h -28.8 v 0 c -25.21,0 -44.64,-2.883 -54.01,-12.969 -9.35,6.48 -25.91,11.52 -57.59,11.52 v 0 h -27.367 v 0 c -61.914,0 -74.871,-20.157 -74.871,-28.797 v 0 -36.719 h 322.558 v 0" /><path
         id="path34"
         style="fill:#fcd213;fill-opacity:1;fill-rule:nonzero;stroke:none"
         d="m 907.922,636.473 h 242.638 v 0 c 51.84,0 83.52,12.961 83.52,31.679 0,18.723 -33.85,32.403 -81.37,32.403 v 0 H 907.922 v -17.996 h 235.438 v 0 c 19.43,0 23.76,-0.723 28.8,-1.446 13.68,-2.156 22.32,-7.195 22.32,-12.961 0,-5.039 -8.64,-10.078 -22.32,-12.957 -6.48,-0.715 -10.8,-0.715 -27.36,-0.715 v 0 H 907.922 v -18.007 0" /><path
         id="path36"
         style="fill:#fcd213;fill-opacity:1;fill-rule:nonzero;stroke:none"
         d="m 1139.04,706.316 c 56.88,-2.156 97.91,13.684 97.91,33.118 0,18.007 -36.72,32.402 -82.79,32.402 -28.8,0 -48.96,-5.762 -72.72,-13.684 v 0 l -74.89,-27.351 v 0 c -7.917,-3.606 -16.55,-4.328 -23.034,-4.328 -17.996,0 -31.68,5.761 -31.68,12.961 0,6.484 12.961,12.246 30.246,12.968 v 0 l 1.434,17.274 v 0 c -43.914,0 -78.477,-14.403 -78.477,-30.242 0,-17.278 35.996,-30.957 78.477,-30.957 19.444,0 37.444,2.878 58.324,10.078 v 0 l 84.23,30.246 v 0 c 9.37,3.601 18.01,5.039 27.37,5.039 20.88,0 37.44,-6.488 37.44,-14.406 0,-9.356 -17.29,-15.84 -50.4,-14.395 v 0 l -1.44,-18.723 v 0" /><path
         id="path38"
         style="fill:#bdbcbc;fill-opacity:1;fill-rule:nonzero;stroke:none"
         d="m 223.918,578.879 h -98.645 v 14.402 c 0,10.078 14.407,14.395 35.286,14.395 0,0 1.445,0 2.156,0 v 0 h 27.363 v 0 c 15.117,0 26.641,-2.879 31.68,-7.199 0.722,-1.446 2.16,-2.879 2.16,-10.801 v 0 -10.797 0" /><path
         id="path40"
         style="fill:#bdbcbc;fill-opacity:1;fill-rule:nonzero;stroke:none"
         d="m 365.762,578.879 h -99.364 v 17.285 c 0,9.352 11.524,13.672 33.836,13.672 v 0 h 30.246 v 0 c 24.481,0 35.282,-4.32 35.282,-13.672 v 0 -17.285 0" /><path
         id="path42"
         style="fill:#bdbcbc;fill-opacity:1;fill-rule:nonzero;stroke:none"
         d="m 1047.6,578.879 h -98.643 v 14.402 c 0,10.078 14.402,14.395 35.281,14.395 0,0 1.438,0 2.16,0 v 0 h 27.362 v 0 c 15.12,0 26.64,-2.879 31.68,-7.199 0.72,-1.446 2.16,-2.879 2.16,-10.801 v 0 -10.797 0" /><path
         id="path44"
         style="fill:#bdbcbc;fill-opacity:1;fill-rule:nonzero;stroke:none"
         d="m 1189.43,578.879 h -99.35 v 17.285 c 0,9.352 11.52,13.672 33.84,13.672 v 0 h 30.24 v 0 c 24.47,0 35.27,-4.32 35.27,-13.672 v 0 -17.285 0" /><path
         id="path46"
         style="fill:#231f20;fill-opacity:1;fill-rule:nonzero;stroke:none"
         d="m 38.2188,61.8594 v 5.7617 c 0,5.0391 4.3164,9.3672 9.3554,9.3672 3.6016,0 6.4844,-2.168 7.9219,-5.0391 v 0 H 66.293 v 0 c -2.8789,8.6328 -9.3555,14.3946 -18.7188,14.3946 -10.8008,0 -19.4336,-8.6446 -19.4336,-20.1563 v 0 -18 0 c 0,-7.207 1.4375,-10.8008 4.3164,-14.4023 3.6016,-4.3164 9.3555,-5.7618 14.4024,-5.7618 10.7929,0 20.1562,7.918 20.1562,18.7188 0,10.8008 -8.6406,18.7226 -17.9961,18.7226 -3.6054,0 -7.9218,-1.4375 -10.8007,-3.6054 v 0" /><path
         id="path48"
         style="fill:#231f20;fill-opacity:1;fill-rule:nonzero;stroke:none"
         d="m 76.3711,28.7461 h 9.3672 v 8.6406 l -9.3672,0.7149 v -9.3555 0" /><path
         id="path50"
         style="fill:#231f20;fill-opacity:1;fill-rule:nonzero;stroke:none"
         d="m 113.102,28.0234 c 0.711,0 0.711,0 1.437,0 10.797,0 18.719,7.918 18.719,17.9961 v 0 20.8789 0 c 0,5.7618 -1.445,10.0899 -5.039,13.6836 -4.328,3.6016 -8.641,5.7618 -13.68,5.7618 -12.238,0 -18.7226,-10.8008 -18.7226,-19.4454 v 0 -20.1562 0 c 0,-5.7617 1.4453,-10.0781 5.0386,-13.6797 4.325,-4.3164 7.918,-5.0391 12.247,-5.0391 v 0" /><path
         id="path52"
         style="fill:#231f20;fill-opacity:1;fill-rule:nonzero;stroke:none"
         d="m 148.375,57.543 c -3.594,-2.8789 -5.762,-7.918 -5.762,-12.9571 0,-9.3671 7.207,-16.5625 20.164,-16.5625 8.645,0 13.684,2.1563 16.563,5.7618 2.871,2.8789 4.316,7.1953 4.316,10.8007 0,5.7618 -2.156,10.0782 -5.761,12.9571 2.882,3.6054 4.316,7.9218 4.316,12.2383 0,8.6406 -6.473,16.5625 -19.434,16.5625 -12.246,0 -19.441,-7.9219 -19.441,-16.5625 0,-5.0391 2.16,-9.3555 5.039,-12.2383 v 0" /><path
         id="path54"
         style="fill:#bdbcbc;fill-opacity:1;fill-rule:nonzero;stroke:none"
         d="m 46.8594,36.6641 c -5.0469,0 -8.6406,3.6054 -8.6406,9.3554 0,6.4844 4.3164,10.0899 9.3554,10.0899 5.0391,0 8.6406,-3.6055 8.6406,-9.3672 0,-6.4727 -4.3164,-10.0781 -9.3554,-10.0781 v 0" /><path
         id="path56"
         style="fill:#bdbcbc;fill-opacity:1;fill-rule:nonzero;stroke:none"
         d="m 113.813,36.6641 c -5.04,0 -7.918,3.6054 -7.918,8.6445 v 0 21.5898 0 c 0,5.7618 3.601,10.0899 8.644,10.0899 5.039,0 8.641,-4.3281 8.641,-9.3672 v 0 -22.3125 0 c 0,-4.3281 -3.602,-8.6445 -9.367,-8.6445 v 0" /><path
         id="path58"
         style="fill:#bdbcbc;fill-opacity:1;fill-rule:nonzero;stroke:none"
         d="m 162.777,61.8594 c -5.761,0 -8.64,3.6054 -8.64,7.9219 0,3.6015 2.879,7.207 8.64,7.207 6.477,0 9.356,-3.6055 9.356,-7.207 0,-4.3165 -2.879,-7.9219 -9.356,-7.9219 v 0" /><path
         id="path60"
         style="fill:#bdbcbc;fill-opacity:1;fill-rule:nonzero;stroke:none"
         d="m 152.703,44.5859 c 0,4.3164 3.59,7.918 10.074,7.918 7.2,0 10.078,-3.6016 10.078,-7.918 0,-4.3164 -2.878,-7.9218 -10.078,-7.9218 -7.207,0 -10.074,3.6054 -10.074,7.9218 v 0" /></g></g></svg>