<?xml version="1.0" encoding="UTF-8" standalone="no"?>
<svg
   xmlns:dc="http://purl.org/dc/elements/1.1/"
   xmlns:cc="http://creativecommons.org/ns#"
   xmlns:rdf="http://www.w3.org/1999/02/22-rdf-syntax-ns#"
   xmlns:svg="http://www.w3.org/2000/svg"
   xmlns="http://www.w3.org/2000/svg"
   viewBox="0 0 105.81333 105.84"
   height="105.84"
   width="105.81333"
   xml:space="preserve"
   id="svg2"
   version="1.1"><metadata
     id="metadata8"><rdf:RDF><cc:Work
         rdf:about=""><dc:format>image/svg+xml</dc:format><dc:type
           rdf:resource="http://purl.org/dc/dcmitype/StillImage" /></cc:Work></rdf:RDF></metadata><defs
     id="defs6" /><g
     transform="matrix(1.3333333,0,0,-1.3333333,0,105.84)"
     id="g10"><g
       transform="scale(0.1)"
       id="g12"><path
         id="path14"
         style="fill:#bdbcbc;fill-opacity:1;fill-rule:nonzero;stroke:none"
         d="M 0,0 H 793.578 V 793.801 H 0 Z" /><path
         id="path16"
         style="fill:#918f90;fill-opacity:1;fill-rule:nonzero;stroke:none"
         d="m 249.121,0 v 330.477 c 0,71.281 -58.32,129.601 -129.601,129.601 v 0 H 0 V 0 h 249.121 v 0" /><path
         id="path18"
         style="fill:#918f90;fill-opacity:1;fill-rule:nonzero;stroke:none"
         d="M 793.578,460.078 V 0 H 538.344 v 330.477 c 0,71.281 58.32,129.601 129.601,129.601 v 0 h 125.633 v 0" /><path
         id="path20"
         style="fill:#918f90;fill-opacity:1;fill-rule:nonzero;stroke:none"
         d="m 0,709.34 h 793.578 v 84.4609 H 0 Z" /><path
         id="path22"
         style="fill:#ffffff;fill-opacity:1;fill-rule:nonzero;stroke:none"
         d="m 400.824,478.801 13.899,-24.121 14.031,24.121 h -27.93" /><path
         id="path24"
         style="fill:#ffffff;fill-opacity:1;fill-rule:nonzero;stroke:none"
         d="m 441.859,478.801 14.043,-24.121 13.899,24.121 h -27.942" /><path
         id="path26"
         style="fill:#ffffff;fill-opacity:1;fill-rule:nonzero;stroke:none"
         d="m 483.121,478.801 13.828,-24.121 14.031,24.121 h -27.859" /><path
         id="path28"
         style="fill:#ffffff;fill-opacity:1;fill-rule:nonzero;stroke:none"
         d="m 524.156,478.801 13.828,-24.121 14.043,24.121 h -27.871" /><path
         id="path30"
         style="fill:#ffffff;fill-opacity:1;fill-rule:nonzero;stroke:none"
         d="m 565.199,478.801 14.043,-24.121 13.821,24.121 h -27.864" /><path
         id="path32"
         style="fill:#ffffff;fill-opacity:1;fill-rule:nonzero;stroke:none"
         d="m 465.121,166.828 43.703,208.797 h -87.629 l 43.926,-208.797" /><path
         id="path34"
         style="fill:#ffffff;fill-opacity:1;fill-rule:nonzero;stroke:none"
         d="m 386.063,11.875 h 13.8984 V 56.5234 H 386.063 Z" /><path
         id="path36"
         style="fill:#ffffff;fill-opacity:1;fill-rule:nonzero;stroke:none"
         d="m 386.063,82.5898 h 13.8984 v 44.8516 H 386.063 Z" /><path
         id="path38"
         style="fill:#ffffff;fill-opacity:1;fill-rule:nonzero;stroke:none"
         d="m 386.063,159.27 h 13.8984 V 433.801 H 386.063 Z" /><path
         id="path40"
         style="fill:#bdbcbc;fill-opacity:1;fill-rule:nonzero;stroke:none"
         d="m 465.121,231.98 23.184,117.942 H 441.859 L 465.121,231.98" /><path
         id="path42"
         style="fill:#231f20;fill-opacity:1;fill-rule:nonzero;stroke:none"
         d="m 283.633,388.867 v 3.953 c 0,4.11 3.027,7.059 6.84,7.059 2.668,0 4.898,-1.508 5.976,-3.672 v 0 h 8.141 v 0 c -1.875,6.766 -7.203,10.727 -13.969,10.727 -8.207,0 -14.766,-6.407 -14.766,-14.969 v 0 -13.535 0 c 0,-5.403 1.297,-8.285 3.458,-10.801 2.589,-3.024 6.699,-4.895 10.804,-4.895 8.207,0 14.903,6.621 14.903,14.754 0,7.996 -6.266,14.039 -13.247,14.039 -2.882,0 -5.835,-1.004 -8.14,-2.66 v 0" /><path
         id="path44"
         style="fill:#231f20;fill-opacity:1;fill-rule:nonzero;stroke:none"
         d="m 311.934,363.598 7.129,-0.075 v 7.059 l -7.055,0.066 -0.074,-7.05 v 0" /><path
         id="path46"
         style="fill:#231f20;fill-opacity:1;fill-rule:nonzero;stroke:none"
         d="m 329.145,363.598 h 7.632 v 42.472 h -7.558 l -4.321,-7.773 v -4.32 h 4.247 v -30.379 0" /><path
         id="path48"
         style="fill:#231f20;fill-opacity:1;fill-rule:nonzero;stroke:none"
         d="m 344.629,363.598 h 28.226 v 7.05 h -17.136 l 12.89,12.821 v 0 c 2.305,2.23 3.672,5.398 3.672,9.07 0,8.203 -6.265,14.395 -14.191,14.395 -8.711,0 -14.473,-7.485 -14.324,-14.903 v 0 h 8.132 v 0 c -0.574,4.465 2.668,7.778 6.192,7.778 3.39,0 6.34,-2.805 6.34,-6.625 0,-1.797 -0.719,-3.672 -2.305,-5.254 v 0 l -17.496,-17.282 v -7.05 0" /><path
         id="path50"
         style="fill:#231f20;fill-opacity:1;fill-rule:nonzero;stroke:none"
         d="m 452.137,524.352 v 3.961 c 0,4.105 3.023,7.054 6.843,7.054 2.665,0 4.899,-1.512 5.977,-3.672 v 0 h 8.137 v 0 c -1.875,6.766 -7.199,10.727 -13.969,10.727 -8.211,0 -14.766,-6.406 -14.766,-14.977 v 0 -13.527 0 c 0,-5.402 1.301,-8.281 3.457,-10.805 2.594,-3.019 6.7,-4.965 10.801,-4.965 8.215,0 14.906,6.696 14.906,14.829 0,7.992 -6.261,14.039 -13.246,14.039 -2.879,0 -5.836,-1.008 -8.14,-2.664 v 0" /><path
         id="path52"
         style="fill:#231f20;fill-opacity:1;fill-rule:nonzero;stroke:none"
         d="m 480.438,499.082 7.128,-0.141 v 7.122 l -7.054,0.074 -0.074,-7.055 v 0" /><path
         id="path54"
         style="fill:#231f20;fill-opacity:1;fill-rule:nonzero;stroke:none"
         d="m 497.652,499.016 h 7.633 v 42.543 h -7.566 l -4.317,-7.774 v -4.32 h 4.25 v -30.449 0" /><path
         id="path56"
         style="fill:#231f20;fill-opacity:1;fill-rule:nonzero;stroke:none"
         d="m 512.414,511.25 c -0.144,-6.91 5.399,-13.102 14.469,-13.102 9.293,0 14.765,6.047 14.765,13.028 0,3.597 -1.511,7.418 -4.753,10.152 2.808,2.52 4.246,6.051 4.246,9 0,3.813 -2.805,12.168 -13.969,12.168 -8.57,0 -13.754,-5.832 -13.68,-12.242 v 0 h 8.207 v 0 c 0.508,3.242 2.953,5.113 5.688,5.113 3.39,0 5.91,-2.66 5.91,-5.902 0,-3.024 -2.02,-5.184 -5.188,-5.184 v 0 h -4.461 v -7.054 h 4.606 v 0 c 3.676,0 5.617,-2.09 5.617,-5.329 0,-3.746 -3.027,-6.691 -6.84,-6.691 -3.027,0 -5.906,2.297 -6.554,6.043 v 0 h -8.063 v 0" /><path
         id="path58"
         style="fill:#231f20;fill-opacity:1;fill-rule:nonzero;stroke:none"
         d="m 425.492,109.039 v 3.953 c 0,4.11 3.028,7.059 6.844,7.059 2.664,0 4.894,-1.512 5.973,-3.672 v 0 h 8.14 v 0 c -1.867,6.766 -7.199,10.726 -13.969,10.726 -8.207,0 -14.761,-6.406 -14.761,-14.972 v 0 -13.5353 0 c 0,-5.3985 1.293,-8.2813 3.457,-10.8008 2.59,-3.0235 6.695,-4.9649 10.801,-4.9649 8.207,0 14.902,6.6953 14.902,14.8282 0,7.9918 -6.262,14.0388 -13.246,14.0388 -2.879,0 -5.836,-1.008 -8.141,-2.66 v 0" /><path
         id="path60"
         style="fill:#231f20;fill-opacity:1;fill-rule:nonzero;stroke:none"
         d="m 453.793,83.7695 7.129,-0.1445 v 7.1289 l -7.055,0.0664 -0.074,-7.0508 v 0" /><path
         id="path62"
         style="fill:#231f20;fill-opacity:1;fill-rule:nonzero;stroke:none"
         d="m 471.004,83.6953 h 7.633 v 42.5427 h -7.559 l -4.32,-7.769 v -4.324 h 4.246 v -30.4497 0" /><path
         id="path64"
         style="fill:#231f20;fill-opacity:1;fill-rule:nonzero;stroke:none"
         d="m 483.535,91.543 h 20.16 v -7.8477 h 7.778 v 7.8477 h 3.672 v 7.0547 h -3.598 v 27.6403 h -9.004 L 483.535,98.6719 v -7.1289 0" /><path
         id="path66"
         style="fill:#bdbcbc;fill-opacity:1;fill-rule:nonzero;stroke:none"
         d="m 290.258,369.785 c -3.746,0 -6.766,2.883 -6.766,6.988 0,4.75 3.094,7.625 6.914,7.625 3.739,0 6.84,-3.019 6.84,-7.05 0,-4.61 -3.168,-7.563 -6.988,-7.563 v 0" /><path
         id="path68"
         style="fill:#bdbcbc;fill-opacity:1;fill-rule:nonzero;stroke:none"
         d="m 458.766,505.273 c -3.746,0 -6.77,2.879 -6.77,6.985 0,4.75 3.098,7.629 6.91,7.629 3.746,0 6.84,-3.024 6.84,-7.055 0,-4.605 -3.164,-7.559 -6.98,-7.559 v 0" /><path
         id="path70"
         style="fill:#bdbcbc;fill-opacity:1;fill-rule:nonzero;stroke:none"
         d="m 432.121,89.957 c -3.746,0 -6.769,2.8789 -6.769,6.9844 0,4.7536 3.097,7.6286 6.914,7.6286 3.746,0 6.839,-3.023 6.839,-7.0505 0,-4.6093 -3.167,-7.5625 -6.984,-7.5625 v 0" /><path
         id="path72"
         style="fill:#bdbcbc;fill-opacity:1;fill-rule:nonzero;stroke:none"
         d="M 492.895,98.5977 503.77,114.434 V 98.5977 h -10.875 v 0" /></g></g></svg>