<?xml version="1.0" encoding="UTF-8" standalone="no"?>
<svg
   xmlns:dc="http://purl.org/dc/elements/1.1/"
   xmlns:cc="http://creativecommons.org/ns#"
   xmlns:rdf="http://www.w3.org/1999/02/22-rdf-syntax-ns#"
   xmlns:svg="http://www.w3.org/2000/svg"
   xmlns="http://www.w3.org/2000/svg"
   viewBox="0 0 173.88 105.82667"
   height="105.82667"
   width="173.88"
   xml:space="preserve"
   id="svg2"
   version="1.1"><metadata
     id="metadata8"><rdf:RDF><cc:Work
         rdf:about=""><dc:format>image/svg+xml</dc:format><dc:type
           rdf:resource="http://purl.org/dc/dcmitype/StillImage" /></cc:Work></rdf:RDF></metadata><defs
     id="defs6" /><g
     transform="matrix(1.3333333,0,0,-1.3333333,0,105.82667)"
     id="g10"><g
       transform="scale(0.1)"
       id="g12"><path
         id="path14"
         style="fill:#bdbcbc;fill-opacity:1;fill-rule:nonzero;stroke:none"
         d="M 0,645.117 H 1304.13 V 793.652 H 0 Z" /><path
         id="path16"
         style="fill:#bdbcbc;fill-opacity:1;fill-rule:nonzero;stroke:none"
         d="M 0,0 H 1304.13 V 625.531 H 0 Z" /><path
         id="path18"
         style="fill:#ffffff;fill-opacity:1;fill-rule:nonzero;stroke:none"
         d="m 43.0508,147.813 h 98.6445 v 22.3242 H 43.0508 Z" /><path
         id="path20"
         style="fill:#ffffff;fill-opacity:1;fill-rule:nonzero;stroke:none"
         d="m 233.852,147.813 h 92.1641 v 22.3242 H 233.852 Z" /><path
         id="path22"
         style="fill:#ffffff;fill-opacity:1;fill-rule:nonzero;stroke:none"
         d="m 418.176,147.813 h 92.3047 v 22.3242 H 418.176 Z" /><path
         id="path24"
         style="fill:#ffffff;fill-opacity:1;fill-rule:nonzero;stroke:none"
         d="m 602.637,147.813 h 92.1602 v 22.3242 H 602.637 Z" /><path
         id="path26"
         style="fill:#ffffff;fill-opacity:1;fill-rule:nonzero;stroke:none"
         d="m 786.953,147.813 h 92.3828 v 22.3242 H 786.953 Z" /><path
         id="path28"
         style="fill:#ffffff;fill-opacity:1;fill-rule:nonzero;stroke:none"
         d="m 971.277,147.813 h 92.375 v 22.3242 h -92.375 z" /><path
         id="path30"
         style="fill:#ffffff;fill-opacity:1;fill-rule:nonzero;stroke:none"
         d="m 1155.81,147.813 h 92.168 v 22.3242 h -92.168 z" /><path
         id="path32"
         style="fill:#231f20;fill-opacity:1;fill-rule:nonzero;stroke:none"
         d="m 36.1289,581.059 v 3.961 c 0,4.101 3.0938,7.054 6.9141,7.054 2.6601,0 4.8906,-1.511 5.9023,-3.672 v 0 h 8.1328 v 0 c -1.875,6.77 -7.1289,10.727 -13.9687,10.727 -8.2031,0 -14.6797,-6.402 -14.6797,-14.973 v 0 -13.539 0 c 0,-5.402 1.2187,-8.277 3.3828,-10.801 2.6602,-3.023 6.7617,-4.894 10.8672,-4.894 8.2109,0 14.9023,6.621 14.9023,14.762 0,7.992 -6.3359,14.039 -13.2461,14.039 -2.8828,0 -5.8281,-1.008 -8.207,-2.664 v 0" /><path
         id="path34"
         style="fill:#231f20;fill-opacity:1;fill-rule:nonzero;stroke:none"
         d="m 64.4922,555.785 7.0547,-0.074 v 7.059 l -6.9805,0.074 -0.0742,-7.059 v 0" /><path
         id="path36"
         style="fill:#231f20;fill-opacity:1;fill-rule:nonzero;stroke:none"
         d="m 81.6992,555.785 h 7.6328 v 42.481 h -7.6328 l -4.25,-7.778 v -4.316 h 4.25 v -30.387 0" /><path
         id="path38"
         style="fill:#231f20;fill-opacity:1;fill-rule:nonzero;stroke:none"
         d="m 96.6016,566.875 c 1.1523,-6.84 7.1254,-11.883 14.3944,-11.883 2.883,0 5.547,0.649 7.992,2.086 4.317,2.668 6.77,7.633 6.77,12.242 0,9.075 -6.051,14.977 -14.613,14.977 -1.946,0 -3.887,-0.289 -5.618,-0.938 v 0 7.852 h 17.422 v 7.055 H 97.7539 v -24.192 h 7.7731 v 0 c 1.223,1.942 3.383,3.168 5.758,3.168 3.817,0 6.695,-2.734 6.695,-7.054 v 0 -1.583 0 c 0,-3.671 -2.953,-6.628 -6.695,-6.628 -3.453,0 -5.972,1.945 -6.836,4.898 v 0 h -7.8474 v 0" /><path
         id="path40"
         style="fill:#231f20;fill-opacity:1;fill-rule:nonzero;stroke:none"
         d="m 36.1289,54.5664 v 3.9609 c 0,4.1016 3.0938,7.0547 6.9141,7.0547 2.6601,0 4.8906,-1.5156 5.9023,-3.6718 v 0 h 8.1328 v 0 c -1.875,6.7656 -7.1289,10.7265 -13.9687,10.7265 -8.2031,0 -14.6797,-6.4062 -14.6797,-14.9765 v 0 -13.5352 0 c 0,-5.3984 1.2187,-8.2812 3.3828,-10.8008 2.6602,-3.0273 6.7617,-4.9687 10.8672,-4.9687 8.2109,0 14.9023,6.6953 14.9023,14.832 0,7.9961 -6.3359,14.0391 -13.2461,14.0391 -2.8828,0 -5.8281,-1.0039 -8.207,-2.6602 v 0" /><path
         id="path42"
         style="fill:#231f20;fill-opacity:1;fill-rule:nonzero;stroke:none"
         d="m 64.4922,29.293 7.0547,-0.1485 v 7.1289 l -6.9805,0.0743 -0.0742,-7.0547 v 0" /><path
         id="path44"
         style="fill:#231f20;fill-opacity:1;fill-rule:nonzero;stroke:none"
         d="M 81.6992,29.2188 H 89.332 V 71.7734 H 81.6992 L 77.4492,64 v -4.3203 h 4.25 v -30.4609 0" /><path
         id="path46"
         style="fill:#231f20;fill-opacity:1;fill-rule:nonzero;stroke:none"
         d="m 104.301,54.5664 v 3.9609 c 0,4.1016 3.097,7.0547 6.914,7.0547 2.664,0 4.894,-1.5156 5.902,-3.6718 v 0 h 8.137 v 0 c -1.875,6.7656 -7.129,10.7265 -13.969,10.7265 -8.203,0 -14.6834,-6.4062 -14.6834,-14.9765 v 0 -13.5352 0 c 0,-5.3984 1.2187,-8.2812 3.3828,-10.8008 2.6606,-3.0273 6.7656,-4.9687 10.8706,-4.9687 8.208,0 14.903,6.6953 14.903,14.832 0,7.9961 -6.34,14.0391 -13.246,14.0391 -2.883,0 -5.832,-1.0039 -8.211,-2.6602 v 0" /><path
         id="path48"
         style="fill:#bdbcbc;fill-opacity:1;fill-rule:nonzero;stroke:none"
         d="m 42.7539,561.977 c -3.6719,0 -6.6992,2.882 -6.6992,6.984 0,4.75 3.0937,7.633 6.8398,7.633 3.7461,0 6.8399,-3.024 6.8399,-7.059 0,-4.601 -3.168,-7.558 -6.9805,-7.558 v 0" /><path
         id="path50"
         style="fill:#bdbcbc;fill-opacity:1;fill-rule:nonzero;stroke:none"
         d="m 42.7539,35.4844 c -3.6719,0 -6.6992,2.8789 -6.6992,6.9804 0,4.7579 3.0937,7.6329 6.8398,7.6329 3.7461,0 6.8399,-3.0235 6.8399,-7.0547 0,-4.6055 -3.168,-7.5586 -6.9805,-7.5586 v 0" /><path
         id="path52"
         style="fill:#bdbcbc;fill-opacity:1;fill-rule:nonzero;stroke:none"
         d="m 110.93,35.4844 c -3.672,0 -6.7,2.8789 -6.7,6.9804 0,4.7579 3.094,7.6329 6.84,7.6329 3.743,0 6.84,-3.0235 6.84,-7.0547 0,-4.6055 -3.168,-7.5586 -6.98,-7.5586 v 0" /></g></g></svg>