<?xml version="1.0" encoding="UTF-8" standalone="no"?>
<svg
   xmlns:dc="http://purl.org/dc/elements/1.1/"
   xmlns:cc="http://creativecommons.org/ns#"
   xmlns:rdf="http://www.w3.org/1999/02/22-rdf-syntax-ns#"
   xmlns:svg="http://www.w3.org/2000/svg"
   xmlns="http://www.w3.org/2000/svg"
   viewBox="0 0 105.84 105.81333"
   height="105.81333"
   width="105.84"
   xml:space="preserve"
   id="svg2"
   version="1.1"><metadata
     id="metadata8"><rdf:RDF><cc:Work
         rdf:about=""><dc:format>image/svg+xml</dc:format><dc:type
           rdf:resource="http://purl.org/dc/dcmitype/StillImage" /></cc:Work></rdf:RDF></metadata><defs
     id="defs6" /><g
     transform="matrix(1.3333333,0,0,-1.3333333,0,105.81333)"
     id="g10"><g
       transform="scale(0.1)"
       id="g12"><path
         id="path14"
         style="fill:#bdbcbc;fill-opacity:1;fill-rule:nonzero;stroke:none"
         d="M 0,793.59 H 793.801 V 0 H 407.375 V 388.086 H 394.414 L 394.414,0 H 0 v 793.59" /><path
         id="path16"
         style="fill:#918f90;fill-opacity:1;fill-rule:nonzero;stroke:none"
         d="M 274.898,0 H 0 v 396.508 h 145.297 v 0 c 71.281,0 129.601,-58.324 129.601,-129.606 v 0 V 0 0" /><path
         id="path18"
         style="fill:#918f90;fill-opacity:1;fill-rule:nonzero;stroke:none"
         d="M 793.801,396.508 V 0 H 525.82 v 266.902 c 0,71.282 58.313,129.606 129.602,129.606 v 0 h 138.379 v 0" /><path
         id="path20"
         style="fill:#918f90;fill-opacity:1;fill-rule:nonzero;stroke:none"
         d="M 0,647.645 H 793.801 V 793.59 L 0,793.59 Z" /><path
         id="path22"
         style="fill:#ffffff;fill-opacity:1;fill-rule:nonzero;stroke:none"
         d="m 417.961,407.887 14.043,-24.121 13.894,24.121 h -27.937" /><path
         id="path24"
         style="fill:#ffffff;fill-opacity:1;fill-rule:nonzero;stroke:none"
         d="m 458.645,407.887 13.894,-24.121 14.031,24.121 h -27.925" /><path
         id="path26"
         style="fill:#ffffff;fill-opacity:1;fill-rule:nonzero;stroke:none"
         d="m 499.316,407.887 13.899,-24.121 14.043,24.121 h -27.942" /><path
         id="path28"
         style="fill:#ffffff;fill-opacity:1;fill-rule:nonzero;stroke:none"
         d="m 539.855,407.887 14.043,-24.121 13.817,24.121 h -27.86" /><path
         id="path30"
         style="fill:#ffffff;fill-opacity:1;fill-rule:nonzero;stroke:none"
         d="m 219.457,392.188 h 34.1992 v 15.6992 H 219.457 Z" /><path
         id="path32"
         style="fill:#ffffff;fill-opacity:1;fill-rule:nonzero;stroke:none"
         d="m 279.359,392.188 h 34.1992 v 15.6992 H 279.359 Z" /><path
         id="path34"
         style="fill:#ffffff;fill-opacity:1;fill-rule:nonzero;stroke:none"
         d="m 339.336,392.188 h 34.1992 v 15.6992 H 339.336 Z" /><path
         id="path36"
         style="fill:#231f20;fill-opacity:1;fill-rule:nonzero;stroke:none"
         d="m 542.012,289.441 h 77.761 l -35.132,-60.839 v -80.137 h -2.161 v 76.32 l -1.582,-2.883 -1.804,3.098 v -76.535 h -2.16 v 80.137 l -34.922,60.839" /><path
         id="path38"
         style="fill:#ee2c30;fill-opacity:1;fill-rule:nonzero;stroke:none"
         d="m 580.898,226.805 34.563,60.265 H 546.34 l 34.558,-60.265" /><path
         id="path40"
         style="fill:#231f20;fill-opacity:1;fill-rule:nonzero;stroke:none"
         d="m 580.898,241.922 19.434,36.359 h -38.875 l 19.441,-36.359" /><path
         id="path42"
         style="fill:#ffffff;fill-opacity:1;fill-rule:nonzero;stroke:none"
         d="m 580.898,245.887 16.204,30.742 h -32.258 l 16.054,-30.742" /></g></g></svg>