<?xml version="1.0" encoding="UTF-8" standalone="no"?>
<svg
   xmlns:dc="http://purl.org/dc/elements/1.1/"
   xmlns:cc="http://creativecommons.org/ns#"
   xmlns:rdf="http://www.w3.org/1999/02/22-rdf-syntax-ns#"
   xmlns:svg="http://www.w3.org/2000/svg"
   xmlns="http://www.w3.org/2000/svg"
   viewBox="0 0 105.81333 105.78667"
   height="105.78667"
   width="105.81333"
   xml:space="preserve"
   id="svg2"
   version="1.1"><metadata
     id="metadata8"><rdf:RDF><cc:Work
         rdf:about=""><dc:format>image/svg+xml</dc:format><dc:type
           rdf:resource="http://purl.org/dc/dcmitype/StillImage" /></cc:Work></rdf:RDF></metadata><defs
     id="defs6" /><g
     transform="matrix(1.3333333,0,0,-1.3333333,0,105.78667)"
     id="g10"><g
       transform="scale(0.1)"
       id="g12"><path
         id="path14"
         style="fill:#918f90;fill-opacity:1;fill-rule:nonzero;stroke:none"
         d="M 0,0 H 793.512 V 793.363 H 0 Z" /><path
         id="path16"
         style="fill:#bdbcbc;fill-opacity:1;fill-rule:nonzero;stroke:none"
         d="m 261,0 c 239.902,0 56.305,0 215.637,0 0,75.5938 0,150.984 0,226.582 -0.352,62.852 31.465,93.457 88.562,93.816 v 0 h 228.379 v 215.782 0 c -105.262,0 -210.742,0 -316.074,0 -46.582,4.898 -76.102,17.281 -106.918,43.996 v 0 L 157.32,793.438 H 0 v -147.747 0 C 74.8789,570.816 149.762,496.078 224.637,421.195 247.68,390.023 257.402,362.52 261,313.203 v 0 V 0 0" /><path
         id="path18"
         style="fill:#ffffff;fill-opacity:1;fill-rule:nonzero;stroke:none"
         d="m 312.266,420.84 -30.239,1.797 19.289,-23.399 10.95,21.602" /><path
         id="path20"
         style="fill:#ffffff;fill-opacity:1;fill-rule:nonzero;stroke:none"
         d="m 374.547,492.262 26.492,12.242 4.316,-9.867 -26.492,-12.239 -4.316,9.864" /><path
         id="path22"
         style="fill:#ffffff;fill-opacity:1;fill-rule:nonzero;stroke:none"
         d="m 417.242,507.961 28.946,3.383 1.074,-10.801 -29.16,-3.387 -0.86,10.805" /><path
         id="path24"
         style="fill:#ffffff;fill-opacity:1;fill-rule:nonzero;stroke:none"
         d="m 338.398,466.559 22.68,18.359 6.629,-8.641 -22.684,-18.355 -6.625,8.637" /><path
         id="path26"
         style="fill:#ffffff;fill-opacity:1;fill-rule:nonzero;stroke:none"
         d="m 298.082,388.438 -30.098,-3.598 23.258,-19.442 6.84,23.04" /><path
         id="path28"
         style="fill:#ffffff;fill-opacity:1;fill-rule:nonzero;stroke:none"
         d="m 333,449.063 -29.016,8.496 13.536,-27.004 15.48,18.508" /><path
         id="path30"
         style="fill:#ffffff;fill-opacity:1;fill-rule:nonzero;stroke:none"
         d="m 467.789,500.395 h 325.789 v 10.9492 H 467.789 Z" /><path
         id="path32"
         style="fill:#ffffff;fill-opacity:1;fill-rule:nonzero;stroke:none"
         d="M 13.6797,793.438 319.461,487.797 311.758,480.02 0,791.637 v 1.801 h 13.6797" /><path
         id="path34"
         style="fill:#ffffff;fill-opacity:1;fill-rule:nonzero;stroke:none"
         d="m 291.539,0 0.063,346.82 H 280.586 L 280.664,0 h 10.875" /><path
         id="path36"
         style="fill:#231f20;fill-opacity:1;fill-rule:nonzero;stroke:none"
         d="m 56.6641,519.98 -25.5625,25.778 -1.9414,-1.797 25.7031,-25.777 -4.1016,-4.106 -25.7773,25.703 -1.8008,-1.945 25.7773,-25.555 -23.6132,-23.617 52.1953,-52.203 25.562,25.559 19.653,-72.86 54.863,54.863 -72.859,19.438 25.562,25.562 -52.4177,52.196 -21.2422,-21.239" /><path
         id="path38"
         style="fill:#231f20;fill-opacity:1;fill-rule:nonzero;stroke:none"
         d="m 623.52,553.824 c 0,12.094 0,33.91 0,35.137 v 0 l -44.141,-43.781 -45.711,45.578 45.711,45.937 44.141,-43.922 v 0 c 0,5.903 0,16.704 0,35.278 v 0 h 73.945 v -33.332 h 36.211 v -2.524 h -36.211 v -5.902 h 36.211 v -2.52 H 697.465 V 553.824 H 623.52 v 0" /><path
         id="path40"
         style="fill:#231f20;fill-opacity:1;fill-rule:nonzero;stroke:none"
         d="m 490.316,132.629 c 18.723,0 29.524,0 35.43,0 v 0 l -44.062,44.129 45.859,45.871 45.937,-45.871 -44.14,-44.129 v 0 c 1.445,0 23.398,0 35.5,0 v 0 -73.8126 H 534.742 V 22.4609 h -2.668 v 36.3555 h -5.75 V 22.4609 h -2.746 v 36.3555 h -33.262 v 73.8126 0" /><path
         id="path42"
         style="fill:#ffffff;fill-opacity:1;fill-rule:nonzero;stroke:none"
         d="M 29.5195,488.664 77.9063,537.117 126,489.023 77.7578,440.641 29.5195,488.664" /><path
         id="path44"
         style="fill:#ffffff;fill-opacity:1;fill-rule:nonzero;stroke:none"
         d="m 626.402,556.918 h 68.0352 v 68.0391 H 626.402 Z" /><path
         id="path46"
         style="fill:#ffffff;fill-opacity:1;fill-rule:nonzero;stroke:none"
         d="m 493.344,61.6992 h 68.3984 v 68.0469 H 493.344 Z" /><path
         id="path48"
         style="fill:#ffffff;fill-opacity:1;fill-rule:nonzero;stroke:none"
         d="m 536.898,590.758 42.481,42.695 42.695,-42.695 -42.695,-42.336 -42.481,42.336" /><path
         id="path50"
         style="fill:#ffffff;fill-opacity:1;fill-rule:nonzero;stroke:none"
         d="m 527.543,219.238 -42.48,-42.48 42.48,-42.481 42.48,42.481 -42.48,42.48" /><path
         id="path52"
         style="fill:#231f20;fill-opacity:1;fill-rule:nonzero;stroke:none"
         d="M 557.789,104.902 V 91.0742 h -17.793 v 0 c -3.234,0 -5.754,-2.5195 -5.754,-5.7539 v 0 -19.6562 h -13.535 v 20.8789 0 c 0,10.0781 8.273,18.359 18.359,18.359 v 0 h 18.723 v 0" /><path
         id="path54"
         style="fill:#231f20;fill-opacity:1;fill-rule:nonzero;stroke:none"
         d="m 524.156,103.32 c -2.375,-1.808 -3.808,-3.9645 -5.402,-6.8473 v 0 l -22.168,21.9653 5.754,5.906 21.816,-21.024 v 0" /><path
         id="path56"
         style="fill:#231f20;fill-opacity:1;fill-rule:nonzero;stroke:none"
         d="m 70.918,458.063 v 18.574 c 0,10.222 8.2812,18.504 18.5039,18.504 v 0 H 110.16 V 481.68 H 90.7227 v 0 c -3.2422,0 -5.9766,-2.739 -5.9766,-5.977 v 0 -17.64 H 70.918 v 0" /><path
         id="path58"
         style="fill:#231f20;fill-opacity:1;fill-rule:nonzero;stroke:none"
         d="m 61.2031,514.941 -6.3398,-5.902 17.6406,-17.496 v 0 c 1.8008,2.375 3.8125,4.176 6.6953,5.758 v 0 l -17.9961,17.64 v 0" /><path
         id="path60"
         style="fill:#231f20;fill-opacity:1;fill-rule:nonzero;stroke:none"
         d="m 652.68,581.973 v -20.59 h 13.468 v 19.297 c 0,3.238 2.735,5.976 5.977,5.976 v 0 h 17.637 v 13.821 h -18.574 v 0 c -10.227,0 -18.508,-8.282 -18.508,-18.504 v 0" /><path
         id="path62"
         style="fill:#231f20;fill-opacity:1;fill-rule:nonzero;stroke:none"
         d="m 628.559,613.801 5.91,6.117 21.59,-21.027 v 0 c -2.157,-2.012 -3.739,-3.961 -5.399,-7.055 v 0 l -22.101,21.965 v 0" /><path
         id="path64"
         style="fill:#231f20;fill-opacity:1;fill-rule:nonzero;stroke:none"
         d="m 550.941,590.758 28.438,28.656 28.664,-28.656 -28.664,-28.297 -28.438,28.297" /><path
         id="path66"
         style="fill:#231f20;fill-opacity:1;fill-rule:nonzero;stroke:none"
         d="m 527.543,205.344 -28.582,-28.586 28.582,-28.653 28.652,28.653 -28.652,28.586" /><path
         id="path68"
         style="fill:#fcd213;fill-opacity:1;fill-rule:nonzero;stroke:none"
         d="m 554.039,590.758 25.34,25.558 25.566,-25.558 -25.566,-25.203 -25.34,25.203" /><path
         id="path70"
         style="fill:#fcd213;fill-opacity:1;fill-rule:nonzero;stroke:none"
         d="m 527.543,202.313 -25.555,-25.555 25.555,-25.559 25.559,25.559 -25.559,25.555" /><path
         id="path72"
         style="fill:#ee2c30;fill-opacity:1;fill-rule:nonzero;stroke:none"
         d="m 105.84,460.797 67.105,-18.215 -48.961,-48.957 -18.144,67.172" /><path
         id="path74"
         style="fill:#231f20;fill-opacity:1;fill-rule:nonzero;stroke:none"
         d="m 116.641,450.141 39.238,-12.02 -27.359,-27.363 -11.879,39.383" /><path
         id="path76"
         style="fill:#ffffff;fill-opacity:1;fill-rule:nonzero;stroke:none"
         d="m 119.305,447.262 33.121,-10.227 -22.828,-22.894 -10.293,33.121" /></g></g></svg>