<?xml version="1.0" encoding="UTF-8" standalone="no"?>
<svg
   xmlns:dc="http://purl.org/dc/elements/1.1/"
   xmlns:cc="http://creativecommons.org/ns#"
   xmlns:rdf="http://www.w3.org/1999/02/22-rdf-syntax-ns#"
   xmlns:svg="http://www.w3.org/2000/svg"
   xmlns="http://www.w3.org/2000/svg"
   viewBox="0 0 105.84 105.82667"
   height="105.82667"
   width="105.84"
   xml:space="preserve"
   id="svg2"
   version="1.1"><metadata
     id="metadata8"><rdf:RDF><cc:Work
         rdf:about=""><dc:format>image/svg+xml</dc:format><dc:type
           rdf:resource="http://purl.org/dc/dcmitype/StillImage" /></cc:Work></rdf:RDF></metadata><defs
     id="defs6" /><g
     transform="matrix(1.3333333,0,0,-1.3333333,0,105.82667)"
     id="g10"><g
       transform="scale(0.1)"
       id="g12"><path
         id="path14"
         style="fill:#bdbcbc;fill-opacity:1;fill-rule:nonzero;stroke:none"
         d="M 0,793.652 H 391.824 V 549.574 h 12.961 V 793.652 H 793.801 V 481.535 H 633.605 V 468.574 H 793.801 V 0 H 316.941 V 142.051 H 304.199 V 0 H 0 v 398.734 h 243.863 v 12.961 H 0 v 381.957" /><path
         id="path16"
         style="fill:#918f90;fill-opacity:1;fill-rule:nonzero;stroke:none"
         d="m 295.563,636.191 c 0,-71.136 -58.321,-129.457 -129.602,-129.457 v 0 H 0 v 286.918 h 295.563 v -157.461 0" /><path
         id="path18"
         style="fill:#918f90;fill-opacity:1;fill-rule:nonzero;stroke:none"
         d="M 498.957,793.652 V 636.191 c 0,-71.136 58.316,-129.457 129.383,-129.457 v 0 H 793.801 V 793.652 H 498.957 v 0" /><path
         id="path20"
         style="fill:#918f90;fill-opacity:1;fill-rule:nonzero;stroke:none"
         d="m 498.957,169.414 c 0,71.066 58.316,129.387 129.383,129.387 v 0 H 793.801 V 0 H 498.957 v 169.414 0" /><path
         id="path22"
         style="fill:#918f90;fill-opacity:1;fill-rule:nonzero;stroke:none"
         d="M 295.563,0 H 0 v 298.801 h 165.961 v 0 c 71.281,0 129.602,-58.321 129.602,-129.387 v 0 V 0 0" /><path
         id="path24"
         style="fill:#ffffff;fill-opacity:1;fill-rule:nonzero;stroke:none"
         d="M 289.801,399.238 265.68,385.414 289.801,371.52 v 27.718" /><path
         id="path26"
         style="fill:#ffffff;fill-opacity:1;fill-rule:nonzero;stroke:none"
         d="m 392.543,503.852 -14.035,24.121 -13.828,-24.121 h 27.863" /><path
         id="path28"
         style="fill:#ffffff;fill-opacity:1;fill-rule:nonzero;stroke:none"
         d="M 289.801,358.773 265.68,344.73 289.801,330.84 v 27.933" /><path
         id="path30"
         style="fill:#ffffff;fill-opacity:1;fill-rule:nonzero;stroke:none"
         d="M 351.863,503.852 338.043,527.973 324,503.852 h 27.863" /><path
         id="path32"
         style="fill:#ffffff;fill-opacity:1;fill-rule:nonzero;stroke:none"
         d="m 289.801,318.098 -24.121,-13.899 24.121,-14.043 v 27.942" /><path
         id="path34"
         style="fill:#ffffff;fill-opacity:1;fill-rule:nonzero;stroke:none"
         d="m 311.184,503.852 -13.825,24.121 -13.898,-24.121 h 27.723" /><path
         id="path36"
         style="fill:#ffffff;fill-opacity:1;fill-rule:nonzero;stroke:none"
         d="M 289.801,277.41 265.68,263.516 289.801,249.699 V 277.41" /><path
         id="path38"
         style="fill:#ffffff;fill-opacity:1;fill-rule:nonzero;stroke:none"
         d="m 270.719,503.852 -14.039,24.121 -13.899,-24.121 h 27.938" /><path
         id="path40"
         style="fill:#ffffff;fill-opacity:1;fill-rule:nonzero;stroke:none"
         d="m 306,175.313 6.117,39.464 12.606,-2.023 -5.977,-39.383 -12.746,1.942" /><path
         id="path42"
         style="fill:#ffffff;fill-opacity:1;fill-rule:nonzero;stroke:none"
         d="m 320.902,245.156 14.618,37.082 11.878,-4.679 -14.617,-37.079 -11.879,4.676" /><path
         id="path44"
         style="fill:#ffffff;fill-opacity:1;fill-rule:nonzero;stroke:none"
         d="m 348.121,304.055 21.238,33.621 10.801,-6.836 -21.238,-33.621 -10.801,6.836" /><path
         id="path46"
         style="fill:#ffffff;fill-opacity:1;fill-rule:nonzero;stroke:none"
         d="m 387.004,361.293 27.351,28.945 9.368,-8.785 -27.368,-29.015 -9.351,8.855" /><path
         id="path48"
         style="fill:#ffffff;fill-opacity:1;fill-rule:nonzero;stroke:none"
         d="m 436.316,407.52 32.914,22.535 7.196,-10.801 -32.91,-22.32 -7.2,10.586" /><path
         id="path50"
         style="fill:#ffffff;fill-opacity:1;fill-rule:nonzero;stroke:none"
         d="m 499.102,446.613 36.582,15.836 5.039,-11.879 -36.582,-15.691 -5.039,11.734" /><path
         id="path52"
         style="fill:#ffffff;fill-opacity:1;fill-rule:nonzero;stroke:none"
         d="m 565.195,471.453 39.035,7.922 2.52,-12.602 -39.035,-7.921 -2.52,12.601" /><path
         id="path54"
         style="fill:#231f20;fill-opacity:1;fill-rule:nonzero;stroke:none"
         d="m 244.223,723.09 v 36.363 h -2.664 V 723.09 h -5.973 v 36.363 h -2.523 V 723.09 h -33.262 v -73.797 h 36.14 l -37.796,-65.305 h 77.617 l -37.657,65.305 h 35.997 v 73.797 h -29.879" /><path
         id="path56"
         style="fill:#231f20;fill-opacity:1;fill-rule:nonzero;stroke:none"
         d="M 71.4258,247.676 H 35.2773 v -2.664 h 36.1485 v -5.754 H 35.2773 v -2.742 h 36.1485 v -33.262 h 74.0122 v 36.141 l 65.304,-37.793 v 77.753 l -65.304,-37.8 v 36.004 H 71.4258 v -29.883" /><path
         id="path58"
         style="fill:#231f20;fill-opacity:1;fill-rule:nonzero;stroke:none"
         d="m 727.344,555.117 v -29.879 h -73.946 v 0 c 0,11.879 0,33.84 0,35.282 v 0 l -43.918,-43.922 -45.933,45.722 45.933,45.789 43.918,-43.992 v 0 c 0,6.121 0,16.778 0,35.352 v 0 h 73.946 v -33.188 h 36.355 v -2.527 h -36.355 v -5.902 h 36.355 v -2.735 h -36.355 v 0" /><path
         id="path60"
         style="fill:#231f20;fill-opacity:1;fill-rule:nonzero;stroke:none"
         d="m 566.426,72.0039 h 29.883 v 74.0121 c -11.883,0 -33.848,0 -35.286,0 v 0 l 43.918,43.918 -45.711,45.867 -45.871,-45.867 44.063,-43.918 v 0 c -6.113,0 -16.914,0 -35.418,0 v 0 -74.0121 h 33.262 V 35.6367 h 2.515 v 36.3672 h 5.981 V 35.6367 h 2.664 v 36.3672 0" /><path
         id="path62"
         style="fill:#ee2c30;fill-opacity:1;fill-rule:nonzero;stroke:none"
         d="m 237.023,646.629 34.559,-60.481 h -69.117 l 34.558,60.481" /><path
         id="path64"
         style="fill:#ee2c30;fill-opacity:1;fill-rule:nonzero;stroke:none"
         d="m 148.105,240.48 60.333,34.559 v -69.121 l -60.333,34.562" /><path
         id="path66"
         style="fill:#ffffff;fill-opacity:1;fill-rule:nonzero;stroke:none"
         d="m 202.82,652.172 h 68.4063 v 68.043 H 202.82 Z" /><path
         id="path68"
         style="fill:#ffffff;fill-opacity:1;fill-rule:nonzero;stroke:none"
         d="m 74.5234,206.281 h 67.8203 v 68.3984 H 74.5234 Z" /><path
         id="path70"
         style="fill:#ffffff;fill-opacity:1;fill-rule:nonzero;stroke:none"
         d="m 656.426,528.117 h 67.8906 v 68.2539 H 656.426 Z" /><path
         id="path72"
         style="fill:#ffffff;fill-opacity:1;fill-rule:nonzero;stroke:none"
         d="m 525.02,75.0977 h 68.4102 v 67.8242 H 525.02 Z" /><path
         id="path74"
         style="fill:#ffffff;fill-opacity:1;fill-rule:nonzero;stroke:none"
         d="m 566.789,562.32 42.691,42.547 42.485,-42.547 -42.485,-42.48 -42.691,42.48" /><path
         id="path76"
         style="fill:#ffffff;fill-opacity:1;fill-rule:nonzero;stroke:none"
         d="m 559.23,232.559 -42.628,-42.625 42.628,-42.485 42.469,42.485 -42.469,42.625" /><path
         id="path78"
         style="fill:#231f20;fill-opacity:1;fill-rule:nonzero;stroke:none"
         d="m 237.023,631.508 19.442,-36.356 h -38.883 l 19.441,36.356" /><path
         id="path80"
         style="fill:#231f20;fill-opacity:1;fill-rule:nonzero;stroke:none"
         d="m 163.223,240.48 36.363,19.442 v -38.887 l -36.363,19.445" /><path
         id="path82"
         style="fill:#231f20;fill-opacity:1;fill-rule:nonzero;stroke:none"
         d="m 237.023,716.254 v -20.883 c 2.161,1.442 4.536,2.379 7.2,2.738 v 0 18.145 h -7.2 v 0" /><path
         id="path84"
         style="fill:#231f20;fill-opacity:1;fill-rule:nonzero;stroke:none"
         d="m 267.117,695.371 v -13.824 h -17.64 v 0 c -3.239,0 -5.969,-2.52 -5.969,-5.758 v 0 -19.656 h -13.469 v 20.879 0 c 0,10.082 8.281,18.359 18.508,18.359 v 0 h 18.57 v 0" /><path
         id="path86"
         style="fill:#231f20;fill-opacity:1;fill-rule:nonzero;stroke:none"
         d="m 230.762,689.113 c -1.297,-2.164 -2.164,-4.539 -2.739,-7.203 v 0 h -21.242 v 7.203 h 23.981 v 0" /><path
         id="path88"
         style="fill:#231f20;fill-opacity:1;fill-rule:nonzero;stroke:none"
         d="m 78.4805,240.48 h 20.8789 v 0 c -1.4375,-2.16 -2.3789,-4.679 -2.8789,-7.199 v 0 h -18 v 7.199 0" /><path
         id="path90"
         style="fill:#231f20;fill-opacity:1;fill-rule:nonzero;stroke:none"
         d="m 117.719,247.316 h 20.664 v -13.457 h -19.438 v 0 c -3.242,0 -5.902,-2.519 -5.902,-5.761 v 0 -17.864 H 99.1445 v 18.723 0 c 0,10.078 8.2775,18.359 18.5745,18.359 v 0" /><path
         id="path92"
         style="fill:#231f20;fill-opacity:1;fill-rule:nonzero;stroke:none"
         d="m 112.68,270.711 h -7.2 v -24.109 c 2.161,1.433 4.68,2.375 7.2,2.734 v 0 21.375 0" /><path
         id="path94"
         style="fill:#231f20;fill-opacity:1;fill-rule:nonzero;stroke:none"
         d="m 678.379,555.117 c 0.578,2.735 1.445,5.039 2.883,7.203 v 0 h -20.879 v -7.203 h 17.996 v 0" /><path
         id="path96"
         style="fill:#231f20;fill-opacity:1;fill-rule:nonzero;stroke:none"
         d="m 699.617,569.375 c -10.215,0 -18.492,-8.496 -18.492,-18.578 v 0 -18.723 h 13.816 v 17.86 0 c 0,3.242 2.735,5.902 5.977,5.902 v 0 h 19.441 v 13.539 h -20.742 v 0" /><path
         id="path98"
         style="fill:#231f20;fill-opacity:1;fill-rule:nonzero;stroke:none"
         d="m 694.582,592.41 h -7.199 v -23.972 c 2.16,1.441 4.68,2.378 7.199,2.882 v 0 21.09 0" /><path
         id="path100"
         style="fill:#231f20;fill-opacity:1;fill-rule:nonzero;stroke:none"
         d="m 559.23,138.957 h 7.196 v -18 c -2.664,-0.508 -5.039,-1.434 -7.196,-2.883 v 0 20.883 0" /><path
         id="path102"
         style="fill:#231f20;fill-opacity:1;fill-rule:nonzero;stroke:none"
         d="m 570.742,118.293 h 18.723 V 104.395 H 571.68 v 0 c -3.242,0 -5.977,-2.665 -5.977,-5.8989 v 0 -19.4414 h -13.469 v 20.6641 0 c 0,10.2932 8.43,18.5742 18.508,18.5742 v 0" /><path
         id="path104"
         style="fill:#231f20;fill-opacity:1;fill-rule:nonzero;stroke:none"
         d="m 553.105,111.953 h -24.121 v -7.195 h 21.243 v 0 c 0.574,2.519 1.433,5.039 2.878,7.195 v 0" /><path
         id="path106"
         style="fill:#231f20;fill-opacity:1;fill-rule:nonzero;stroke:none"
         d="m 580.82,562.32 28.66,28.508 28.442,-28.508 -28.442,-28.445 -28.66,28.445" /><path
         id="path108"
         style="fill:#231f20;fill-opacity:1;fill-rule:nonzero;stroke:none"
         d="m 559.23,218.516 -28.585,-28.582 28.585,-28.438 28.653,28.438 -28.653,28.582" /><path
         id="path110"
         style="fill:#ffffff;fill-opacity:1;fill-rule:nonzero;stroke:none"
         d="m 237.023,627.551 16.059,-30.817 h -32.258 l 16.199,30.817" /><path
         id="path112"
         style="fill:#ffffff;fill-opacity:1;fill-rule:nonzero;stroke:none"
         d="M 167.184,240.48 198,256.535 v -32.258 l -30.816,16.203" /><path
         id="path114"
         style="fill:#fcd213;fill-opacity:1;fill-rule:nonzero;stroke:none"
         d="M 583.918,562.32 609.48,587.734 635.039,562.32 609.48,536.758 583.918,562.32" /><path
         id="path116"
         style="fill:#fcd213;fill-opacity:1;fill-rule:nonzero;stroke:none"
         d="M 559.23,215.5 533.664,189.934 559.23,164.523 584.785,189.934 559.23,215.5" /></g></g></svg>