<?xml version="1.0" encoding="UTF-8" standalone="no"?>
<svg
   xmlns:dc="http://purl.org/dc/elements/1.1/"
   xmlns:cc="http://creativecommons.org/ns#"
   xmlns:rdf="http://www.w3.org/1999/02/22-rdf-syntax-ns#"
   xmlns:svg="http://www.w3.org/2000/svg"
   xmlns="http://www.w3.org/2000/svg"
   viewBox="0 0 173.85333 105.84"
   height="105.84"
   width="173.85333"
   xml:space="preserve"
   id="svg2"
   version="1.1"><metadata
     id="metadata8"><rdf:RDF><cc:Work
         rdf:about=""><dc:format>image/svg+xml</dc:format><dc:type
           rdf:resource="http://purl.org/dc/dcmitype/StillImage" /></cc:Work></rdf:RDF></metadata><defs
     id="defs6" /><g
     transform="matrix(1.3333333,0,0,-1.3333333,0,105.84)"
     id="g10"><g
       transform="scale(0.1)"
       id="g12"><path
         id="path14"
         style="fill:#bdbcbc;fill-opacity:1;fill-rule:nonzero;stroke:none"
         d="M 0,0 H 1303.92 V 793.801 H 0 Z" /><path
         id="path16"
         style="fill:#918f90;fill-opacity:1;fill-rule:nonzero;stroke:none"
         d="M 0,676.656 H 1303.92 V 793.801 H 0 Z" /><path
         id="path18"
         style="fill:#918f90;fill-opacity:1;fill-rule:nonzero;stroke:none"
         d="M 0,0 H 1303.92 V 117.004 H 0 Z" /><path
         id="path20"
         style="fill:#fcd213;fill-opacity:1;fill-rule:nonzero;stroke:none"
         d="m 714.957,568.082 h 584.277 v 19.8008 H 714.957 Z" /><path
         id="path22"
         style="fill:#fcd213;fill-opacity:1;fill-rule:nonzero;stroke:none"
         d="m 5.17969,206.855 h 301.898 v 19.582 H 5.17969 Z" /><path
         id="path24"
         style="fill:#fcd213;fill-opacity:1;fill-rule:nonzero;stroke:none"
         d="m 333.719,608.762 h 350.426 v 64.2969 H 333.719 Z" /><path
         id="path26"
         style="fill:#fcd213;fill-opacity:1;fill-rule:nonzero;stroke:none"
         d="m 333.719,486.719 h 350.426 v 64.2969 H 333.719 Z" /><path
         id="path28"
         style="fill:#fcd213;fill-opacity:1;fill-rule:nonzero;stroke:none"
         d="m 333.719,364.898 h 350.426 v 64.0781 H 333.719 Z" /><path
         id="path30"
         style="fill:#fcd213;fill-opacity:1;fill-rule:nonzero;stroke:none"
         d="m 333.719,242.852 h 350.426 v 64.082 H 333.719 Z" /><path
         id="path32"
         style="fill:#fcd213;fill-opacity:1;fill-rule:nonzero;stroke:none"
         d="m 333.719,120.813 h 350.426 v 64.2266 H 333.719 Z" /><path
         id="path34"
         style="fill:#231f20;fill-opacity:1;fill-rule:nonzero;stroke:none"
         d="m 718.027,217.527 v 3.957 c 0,4.106 3.094,7.055 6.911,7.055 2.664,0 4.898,-1.508 5.902,-3.672 v 0 h 8.14 v 0 c -1.875,6.77 -7.128,10.731 -13.972,10.731 -8.207,0 -14.688,-6.41 -14.688,-14.977 v 0 -13.531 0 c 0,-5.402 1.227,-8.281 3.387,-10.801 2.66,-3.023 6.766,-4.898 10.867,-4.898 8.215,0 14.906,6.629 14.906,14.761 0,7.989 -6.335,14.039 -13.246,14.039 -2.879,0 -5.836,-1.007 -8.207,-2.664 v 0" /><path
         id="path36"
         style="fill:#231f20;fill-opacity:1;fill-rule:nonzero;stroke:none"
         d="m 746.391,192.258 7.062,-0.07 v 7.054 l -6.988,0.071 -0.074,-7.055 v 0" /><path
         id="path38"
         style="fill:#231f20;fill-opacity:1;fill-rule:nonzero;stroke:none"
         d="m 763.602,192.258 h 7.632 v 42.472 h -7.632 l -4.247,-7.773 v -4.32 h 4.247 v -30.379 0" /><path
         id="path40"
         style="fill:#231f20;fill-opacity:1;fill-rule:nonzero;stroke:none"
         d="m 777.352,192.258 h 9.074 l 20.808,35.277 v 7.195 h -28.582 v -10.292 h 7.848 v 3.097 h 11.664 l -20.812,-35.277 v 0" /><path
         id="path42"
         style="fill:#231f20;fill-opacity:1;fill-rule:nonzero;stroke:none"
         d="m 1192.58,635.797 v 3.961 c 0,4.097 3.1,7.051 6.92,7.051 2.66,0 4.89,-1.512 5.9,-3.672 v 0 h 8.14 v 0 c -1.88,6.765 -7.13,10.726 -13.97,10.726 -8.21,0 -14.69,-6.406 -14.69,-14.972 v 0 -13.536 0 c 0,-5.398 1.22,-8.281 3.38,-10.8 2.67,-3.024 6.78,-4.965 10.88,-4.965 8.2,0 14.9,6.695 14.9,14.828 0,7.996 -6.34,14.039 -13.25,14.039 -2.88,0 -5.83,-1.004 -8.21,-2.66 v 0" /><path
         id="path44"
         style="fill:#231f20;fill-opacity:1;fill-rule:nonzero;stroke:none"
         d="m 1220.95,610.527 7.06,-0.144 v 7.129 l -6.99,0.066 -0.07,-7.051 v 0" /><path
         id="path46"
         style="fill:#231f20;fill-opacity:1;fill-rule:nonzero;stroke:none"
         d="m 1238.16,610.453 h 7.63 V 653 h -7.63 l -4.18,-7.773 v -4.321 h 4.18 v -30.453 0" /><path
         id="path48"
         style="fill:#231f20;fill-opacity:1;fill-rule:nonzero;stroke:none"
         d="m 1257.46,632.629 c -2.89,-2.449 -4.54,-5.981 -4.54,-9.863 0,-6.985 5.4,-13.176 15.12,-13.176 6.77,0 10.44,2.09 12.75,4.898 2.01,2.371 3.02,5.18 3.02,8.348 0,4.027 -1.73,7.484 -4.61,9.719 2.38,2.519 3.6,5.828 3.6,8.925 0,6.481 -5.18,12.458 -14.47,12.458 -9.44,0 -14.54,-5.758 -14.54,-12.672 0,-3.528 1.29,-6.481 3.67,-8.637 v 0" /><path
         id="path50"
         style="fill:#bdbcbc;fill-opacity:1;fill-rule:nonzero;stroke:none"
         d="m 724.648,198.445 c -3.671,0 -6.695,2.883 -6.695,6.985 0,4.758 3.098,7.633 6.84,7.633 3.746,0 6.844,-3.024 6.844,-7.055 0,-4.606 -3.172,-7.563 -6.989,-7.563 v 0" /><path
         id="path52"
         style="fill:#bdbcbc;fill-opacity:1;fill-rule:nonzero;stroke:none"
         d="m 1199.21,616.719 c -3.67,0 -6.7,2.875 -6.7,6.984 0,4.75 3.1,7.625 6.84,7.625 3.74,0 6.84,-3.023 6.84,-7.051 0,-4.609 -3.17,-7.558 -6.98,-7.558 v 0" /><path
         id="path54"
         style="fill:#bdbcbc;fill-opacity:1;fill-rule:nonzero;stroke:none"
         d="m 1267.97,635.863 c -4.11,0 -6.41,2.52 -6.41,5.547 0,2.879 2.23,5.399 6.55,5.399 4.82,0 6.91,-2.45 6.91,-5.469 0,-2.957 -2.01,-5.477 -7.05,-5.477 v 0" /><path
         id="path56"
         style="fill:#bdbcbc;fill-opacity:1;fill-rule:nonzero;stroke:none"
         d="m 1260.7,622.621 c 0,3.313 2.37,6.047 7.63,6.047 5.4,0 7.63,-2.734 7.63,-5.977 0,-3.097 -2.45,-6.046 -7.78,-6.046 -5.18,0 -7.48,2.882 -7.48,5.976 v 0" /></g></g></svg>