<?xml version="1.0" encoding="UTF-8" standalone="no"?>
<svg
   xmlns:dc="http://purl.org/dc/elements/1.1/"
   xmlns:cc="http://creativecommons.org/ns#"
   xmlns:rdf="http://www.w3.org/1999/02/22-rdf-syntax-ns#"
   xmlns:svg="http://www.w3.org/2000/svg"
   xmlns="http://www.w3.org/2000/svg"
   viewBox="0 0 173.85333 105.84"
   height="105.84"
   width="173.85333"
   xml:space="preserve"
   id="svg2"
   version="1.1"><metadata
     id="metadata8"><rdf:RDF><cc:Work
         rdf:about=""><dc:format>image/svg+xml</dc:format><dc:type
           rdf:resource="http://purl.org/dc/dcmitype/StillImage" /></cc:Work></rdf:RDF></metadata><defs
     id="defs6" /><g
     transform="matrix(1.3333333,0,0,-1.3333333,0,105.84)"
     id="g10"><g
       transform="scale(0.1)"
       id="g12"><path
         id="path14"
         style="fill:#bdbcbc;fill-opacity:1;fill-rule:nonzero;stroke:none"
         d="M 605.664,358.559 H 764.418 V 744.84 H 605.664 Z" /><path
         id="path16"
         style="fill:#bdbcbc;fill-opacity:1;fill-rule:nonzero;stroke:none"
         d="m 605.664,761.039 h 158.754 v 32.7617 H 605.664 Z" /><path
         id="path18"
         style="fill:#bdbcbc;fill-opacity:1;fill-rule:nonzero;stroke:none"
         d="m 780.621,761.039 h 158.973 v 32.7617 H 780.621 Z" /><path
         id="path20"
         style="fill:#bdbcbc;fill-opacity:1;fill-rule:nonzero;stroke:none"
         d="m 955.797,761.039 h 158.906 v 32.7617 H 955.797 Z" /><path
         id="path22"
         style="fill:#bdbcbc;fill-opacity:1;fill-rule:nonzero;stroke:none"
         d="M 780.621,358.559 H 939.594 V 744.84 H 780.621 Z" /><path
         id="path24"
         style="fill:#bdbcbc;fill-opacity:1;fill-rule:nonzero;stroke:none"
         d="m 955.797,358.559 h 158.906 V 744.84 H 955.797 Z" /><path
         id="path26"
         style="fill:#bdbcbc;fill-opacity:1;fill-rule:nonzero;stroke:none"
         d="M 0,793.801 V 0 H 1303.92 V 793.801 H 1130.9 l -0.11,-453.141 v 0 c -180.513,0 -360.97,0.403 -541.474,0.403 v 0 452.738 H 0 v 0" /><path
         id="path28"
         style="fill:#918f90;fill-opacity:1;fill-rule:nonzero;stroke:none"
         d="m 304.703,274.824 c 0,-80.781 -66.027,-147.019 -146.883,-147.019 v 0 H 0 v 665.996 h 304.703 v -518.977 0" /><path
         id="path30"
         style="fill:#656263;fill-opacity:1;fill-rule:nonzero;stroke:none"
         d="M 0,291.75 H 110.664 V 793.801 L 0,793.801 Z" /><path
         id="path32"
         style="fill:#fcd213;fill-opacity:1;fill-rule:nonzero;stroke:none"
         d="m 464.539,127.805 h 44.5 v 213.258 h -44.5 z" /><path
         id="path34"
         style="fill:#fcd213;fill-opacity:1;fill-rule:nonzero;stroke:none"
         d="m 1197.14,127.805 h 44.2773 V 341.063 H 1197.14 Z" /><path
         id="path36"
         style="fill:#fcd213;fill-opacity:1;fill-rule:nonzero;stroke:none"
         d="m 1283.04,127.805 h 20.8789 V 341.063 H 1283.04 Z" /><path
         id="path38"
         style="fill:#fcd213;fill-opacity:1;fill-rule:nonzero;stroke:none"
         d="m 309.238,127.805 h 44.2813 V 341.063 H 309.238 Z" /><path
         id="path40"
         style="fill:#fcd213;fill-opacity:1;fill-rule:nonzero;stroke:none"
         d="m 386.996,127.805 h 44.2813 V 341.063 H 386.996 Z" /><path
         id="path42"
         style="fill:#fcd213;fill-opacity:1;fill-rule:nonzero;stroke:none"
         d="m 543.961,127.805 h 615.957 V 341.063 H 543.961 Z" /><path
         id="path44"
         style="fill:#fcd213;fill-opacity:1;fill-rule:nonzero;stroke:none"
         d="m 356.902,341.063 h 16.1992 V 793.801 H 356.902 Z" /><path
         id="path46"
         style="fill:#bdbcbc;fill-opacity:1;fill-rule:nonzero;stroke:none"
         d="M 966.742,144.504 1119.38,297.141 V 144.504 H 966.742" /><path
         id="path48"
         style="fill:#bdbcbc;fill-opacity:1;fill-rule:nonzero;stroke:none"
         d="M 754.34,144.504 H 592.559 L 771.266,323.281 H 933.121 L 754.34,144.504" /><path
         id="path50"
         style="fill:#bdbcbc;fill-opacity:1;fill-rule:nonzero;stroke:none"
         d="M 584.422,323.281 V 161.789 L 745.914,323.281 H 584.422" /><path
         id="path52"
         style="fill:#bdbcbc;fill-opacity:1;fill-rule:nonzero;stroke:none"
         d="M 941.402,144.504 H 779.762 L 958.461,323.281 H 1119.38 L 941.402,144.504" /><path
         id="path54"
         style="fill:#231f20;fill-opacity:1;fill-rule:nonzero;stroke:none"
         d="m 919.586,669.387 v 0 0.355 l -11.309,32.617 h -4.894 v 0 h -86.406 v 0 h -4.825 l -11.367,-32.617 h -0.144 v -0.355 0 c 0,-80.641 0,-161.067 0,-241.707 v 0 h 13.464 l 2.375,5.039 h 87.266 l 2.371,-5.039 h 13.469 v 0 c 0,80.64 0,161.066 0,241.707 v 0" /><path
         id="path56"
         style="fill:#231f20;fill-opacity:1;fill-rule:nonzero;stroke:none"
         d="M 732.242,389.52 H 630.355 l -8.496,30.382 v 0 0.215 256.68 0 0 l 8.496,42.844 v 0 0 c 0.864,2.3 4.469,4.32 8.786,4.32 4.535,0 8.281,-2.02 8.855,-4.684 v 0 h 69.266 v 0 c 0.574,2.664 4.316,4.684 8.855,4.684 4.465,0 8.281,-2.02 8.781,-4.684 v 0 l 1.961,-8.918 6.536,-33.562 v 0 0 -256.68 -0.215 0 l -8.497,-30.382 h -2.656 v 0" /><path
         id="path58"
         style="fill:#231f20;fill-opacity:1;fill-rule:nonzero;stroke:none"
         d="m 978.121,405.141 h -0.215 l -4.824,25.922 h -0.215 l 0.008,219.566 -0.008,0.609 v 0 c 0.574,2.524 3.231,17.282 7.918,28.442 5.254,12.238 15.117,25.199 15.695,25.199 v 0 h 70.56 v 0 c 1.58,-2.52 9.86,-11.156 14.9,-25.199 4.18,-11.52 7.56,-25.918 7.92,-28.442 v 0 l 0.36,-13.816 -0.15,-206.359 v 0 l -4.31,-25.922 v 0 c -7.78,0 -15.48,0 -23.26,0 v 0 6.48 h -61.34 v -6.48 0 c -7.777,0 -15.336,0 -23.039,0 v 0" /><path
         id="path60"
         style="fill:#bdbcbc;fill-opacity:1;fill-rule:nonzero;stroke:none"
         d="m 811.078,685.227 -5.613,-15.84 V 432.504 h 4.676 l 0.937,4.539 v 248.184" /><path
         id="path62"
         style="fill:#bdbcbc;fill-opacity:1;fill-rule:nonzero;stroke:none"
         d="m 815.902,486.145 h 87.8438 v 54.5742 H 815.902 Z" /><path
         id="path64"
         style="fill:#bdbcbc;fill-opacity:1;fill-rule:nonzero;stroke:none"
         d="m 903.746,481.316 h -87.844 v -43.773 h 87.844 v 43.773" /><path
         id="path66"
         style="fill:#bdbcbc;fill-opacity:1;fill-rule:nonzero;stroke:none"
         d="m 815.902,545.543 h 87.8438 v 82.0781 H 815.902 Z" /><path
         id="path68"
         style="fill:#bdbcbc;fill-opacity:1;fill-rule:nonzero;stroke:none"
         d="m 815.902,632.52 h 87.8438 v 64.9414 H 815.902 Z" /><path
         id="path70"
         style="fill:#bdbcbc;fill-opacity:1;fill-rule:nonzero;stroke:none"
         d="M 908.637,687.383 V 437.758 l 1.222,-5.254 h 4.903 v 237.098 l -6.125,17.781" /><path
         id="path72"
         style="fill:#bdbcbc;fill-opacity:1;fill-rule:nonzero;stroke:none"
         d="m 730.219,631.441 c -15.84,2.875 -31.68,5.18 -47.664,5.18 -15.84,0 -31.676,-2.305 -47.516,-5.902 v 0 46.078 0 l 7.344,36.867 v 0 c 0.719,0.215 1.441,0.574 2.156,0.938 v 0 h 76.18 v 0 c 0.508,-0.364 1.433,-0.723 2.156,-0.938 v 0 l 7.344,-36.867 v -45.356 0" /><path
         id="path74"
         style="fill:#bdbcbc;fill-opacity:1;fill-rule:nonzero;stroke:none"
         d="m 635.039,394.34 v 75.601 c 15.84,-3.597 31.676,-5.902 47.516,-5.902 15.984,0 31.824,2.305 47.664,5.184 v 0 -74.883 h -95.18 v 0" /><path
         id="path76"
         style="fill:#bdbcbc;fill-opacity:1;fill-rule:nonzero;stroke:none"
         d="m 626.758,420.117 3.383,-12.812 v 269.492 h 0.214 l 6.989,36.723 v 0 c -1.086,0.144 -2.164,0.359 -3.242,0.718 v 0 l -7.344,-37.441 v -256.68 0" /><path
         id="path78"
         style="fill:#bdbcbc;fill-opacity:1;fill-rule:nonzero;stroke:none"
         d="m 738.5,420.117 -3.379,-12.812 v 269.492 h -0.223 l -6.984,36.723 v 0 c 1.086,0.144 2.16,0.359 3.027,0.718 v 0 l 7.559,-37.441 v -256.68 0" /><path
         id="path80"
         style="fill:#bdbcbc;fill-opacity:1;fill-rule:nonzero;stroke:none"
         d="m 730.219,474.262 c -15.84,-2.664 -31.68,-5.184 -47.664,-5.399 -15.84,0 -31.676,2.52 -47.516,5.977 v 0 14.762 h 95.18 v -15.34 0" /><path
         id="path82"
         style="fill:#bdbcbc;fill-opacity:1;fill-rule:nonzero;stroke:none"
         d="m 635.039,494.277 h 95.1797 V 604.8 H 635.039 Z" /><path
         id="path84"
         style="fill:#bdbcbc;fill-opacity:1;fill-rule:nonzero;stroke:none"
         d="m 730.219,626.395 v -16.77 h -95.18 v 16.195 c 15.84,3.457 31.676,5.977 47.516,5.977 15.984,-0.215 31.824,-2.734 47.664,-5.402 v 0" /><path
         id="path86"
         style="fill:#bdbcbc;fill-opacity:1;fill-rule:nonzero;stroke:none"
         d="m 1085.18,602.422 c -17.78,3.242 -35.78,5.617 -53.78,5.617 -17.86,0 -35.857,-2.375 -53.642,-6.336 v 0 49.535 0 0 c 0.363,3.239 3.242,15.117 7.922,26.785 2.156,5.399 5.398,10.801 8.425,15.122 v 0 l 1.29,-79.559 1.582,0.215 2.746,86.039 h 63.497 l 2.74,-86.039 1.58,-0.215 1.29,79.414 v 0 c 2.88,-4.324 6.13,-9.578 8.28,-14.977 4.83,-12.242 6.97,-24.015 8.07,-27.144 0.1,-0.266 0.13,-0.102 0.13,-0.25 v 0 l -0.13,-48.207 v 0" /><path
         id="path88"
         style="fill:#bdbcbc;fill-opacity:1;fill-rule:nonzero;stroke:none"
         d="m 1085.18,597.746 c -17.78,2.731 -35.78,5.399 -53.78,5.399 -17.86,0.214 -35.857,-2.52 -53.642,-6.125 v 0 -7.555 h 107.422 v 8.281 0" /><path
         id="path90"
         style="fill:#bdbcbc;fill-opacity:1;fill-rule:nonzero;stroke:none"
         d="m 977.758,500.758 h 107.422 v 83.668 H 977.758 Z" /><path
         id="path92"
         style="fill:#bdbcbc;fill-opacity:1;fill-rule:nonzero;stroke:none"
         d="m 977.758,438.84 h 107.422 v 56.8789 H 977.758 Z" /><path
         id="path94"
         style="fill:#bdbcbc;fill-opacity:1;fill-rule:nonzero;stroke:none"
         d="M 1085.18,433.941 H 977.758 v -2.664 h 0.148 l 3.953,-21.238 h 14.407 v 6.481 h 4.894 v 0 h 61.34 v 0 h 4.68 v -6.481 h 14.4 l 3.6,21.238 v 0 2.664" /><path
         id="path96"
         style="fill:#231f20;fill-opacity:1;fill-rule:nonzero;stroke:none"
         d="m 38.4727,63.1406 v 5.2539 c 0,5.4727 4.1054,9.4336 9.2187,9.4336 3.5234,0 6.5508,-1.9453 7.918,-4.8984 v 0 h 10.8711 v 0 c -2.5196,9 -9.5782,14.3281 -18.6485,14.3281 -10.9414,0 -19.6523,-8.4961 -19.6523,-19.9453 v 0 -18.1367 0 c 0,-7.2031 1.7266,-11.0156 4.6016,-14.3281 3.457,-4.0313 8.9335,-6.5508 14.4726,-6.5508 10.875,0 19.8008,8.8554 19.8008,19.6523 0,10.6524 -8.3477,18.7149 -17.6367,18.7149 -3.8164,0 -7.7774,-1.293 -10.9453,-3.5235 v 0" /><path
         id="path98"
         style="fill:#231f20;fill-opacity:1;fill-rule:nonzero;stroke:none"
         d="m 76.2734,29.4492 9.4336,-0.0742 0.0703,9.3594 -9.3593,0.1445 -0.1446,-9.4297 v 0" /><path
         id="path100"
         style="fill:#231f20;fill-opacity:1;fill-rule:nonzero;stroke:none"
         d="M 99.168,29.4492 H 109.32 V 86.1016 H 99.2422 L 93.4805,75.668 v -5.7617 h 5.6875 v -40.4571 0" /><path
         id="path102"
         style="fill:#231f20;fill-opacity:1;fill-rule:nonzero;stroke:none"
         d="m 119.117,42.6211 c 1.434,-5.6133 7.633,-14.3242 19.223,-14.3242 10.652,0 19.008,8.4219 19.008,18.3594 v 0 19.7265 0 c 0,7.3399 -1.727,11.1563 -4.535,14.3242 -3.458,3.9571 -9.075,6.5508 -14.622,6.5508 -4.894,0 -9.211,-1.7305 -12.882,-4.9687 -4.325,-3.8164 -6.77,-9.1446 -6.77,-14.6875 0,-10.793 8.637,-18.7149 17.422,-18.7149 3.746,0 7.777,1.2188 11.09,3.4531 v 0 -5.1835 0 c 0,-5.5391 -3.961,-9.5 -9.215,-9.5 -3.457,0 -6.484,1.9453 -7.852,4.9648 v 0 h -10.867 v 0" /><path
         id="path104"
         style="fill:#bdbcbc;fill-opacity:1;fill-rule:nonzero;stroke:none"
         d="m 47.4023,37.6563 c -4.9726,0 -9,3.8867 -9,9.3554 0,6.3399 4.1016,10.1524 9.1407,10.1524 5.039,0 9.1445,-3.961 9.1445,-9.3555 0,-6.1914 -4.2461,-10.1523 -9.2852,-10.1523 v 0" /><path
         id="path106"
         style="fill:#bdbcbc;fill-opacity:1;fill-rule:nonzero;stroke:none"
         d="m 138.051,58.3164 c -5.039,0 -9.071,3.957 -9.071,9.4336 0,6.043 4.317,10.0781 9.286,10.0781 4.824,0 8.859,-3.8867 8.859,-9.0742 0,-6.7656 -4.109,-10.4375 -9.074,-10.4375 v 0" /></g></g></svg>