<?xml version="1.0" encoding="UTF-8" standalone="no"?>
<svg
   xmlns:dc="http://purl.org/dc/elements/1.1/"
   xmlns:cc="http://creativecommons.org/ns#"
   xmlns:rdf="http://www.w3.org/1999/02/22-rdf-syntax-ns#"
   xmlns:svg="http://www.w3.org/2000/svg"
   xmlns="http://www.w3.org/2000/svg"
   viewBox="0 0 23.053333 189.36"
   height="189.36"
   width="23.053333"
   xml:space="preserve"
   id="svg2"
   version="1.1"><metadata
     id="metadata8"><rdf:RDF><cc:Work
         rdf:about=""><dc:format>image/svg+xml</dc:format><dc:type
           rdf:resource="http://purl.org/dc/dcmitype/StillImage" /></cc:Work></rdf:RDF></metadata><defs
     id="defs6" /><g
     transform="matrix(1.3333333,0,0,-1.3333333,0,189.36)"
     id="g10"><g
       transform="scale(0.1)"
       id="g12"><path
         id="path14"
         style="fill:#231f20;fill-opacity:1;fill-rule:nonzero;stroke:none"
         d="m 1.41797,780.961 h 170.063 v 354.348 H 1.41797 Z" /><path
         id="path16"
         style="fill:#ffffff;fill-opacity:1;fill-rule:nonzero;stroke:none"
         d="m 171.48,1135.62 v 198.12 c 0,46.98 -38.05,85.03 -85.0347,85.03 v 0 0 0 c -46.9765,0 -85.02733,-38.05 -85.02733,-85.03 v 0 -198.12 H 171.48 v 0" /><path
         id="path18"
         style="fill:none;stroke:#231f20;stroke-width:2.83500004;stroke-linecap:butt;stroke-linejoin:round;stroke-miterlimit:4;stroke-dasharray:none;stroke-opacity:1"
         d="m 171.48,1135.62 v 198.12 c 0,46.98 -38.05,85.03 -85.0347,85.03 v 0 0 0 c -46.9765,0 -85.02733,-38.05 -85.02733,-85.03 v 0 -198.12 H 171.48 v 0" /><path
         id="path20"
         style="fill:#ffffff;fill-opacity:1;fill-rule:nonzero;stroke:none"
         d="m 86.4453,873.082 c 23.5077,0 42.5627,-19.039 42.5627,-42.519 0,-23.489 -19.055,-42.52 -42.5627,-42.52 -23.5039,0 -42.5586,19.031 -42.5586,42.52 0,23.48 19.0547,42.519 42.5586,42.519 v 0" /><path
         id="path22"
         style="fill:#ffffff;fill-opacity:1;fill-rule:nonzero;stroke:none"
         d="m 86.4453,1128.21 c 23.5077,0 42.5627,-19.03 42.5627,-42.51 0,-23.49 -19.055,-42.52 -42.5627,-42.52 -23.5039,0 -42.5586,19.03 -42.5586,42.52 0,23.48 19.0547,42.51 42.5586,42.51 v 0" /><path
         id="path24"
         style="fill:#ffffff;fill-opacity:1;fill-rule:nonzero;stroke:none"
         d="m 1.41797,1.41797 h 170.063 v 779.543 H 1.41797 Z" /><path
         id="path26"
         style="fill:none;stroke:#231f20;stroke-width:2.83500004;stroke-linecap:butt;stroke-linejoin:round;stroke-miterlimit:4;stroke-dasharray:none;stroke-opacity:1"
         d="M 1.41797,1.41797 H 171.48 V 780.961 H 1.41797 V 1.41797" /></g></g></svg>